<svg xmlns="http://www.w3.org/2000/svg" viewBox="0 0 28 28" width="28" height="28"><path d="M23.868 0c.744 0 1.433.187 2.066.56s1.135.877 1.507 1.512A4.02 4.02 0 0 1 28 4.143v12.065c0 .747-.186 1.442-.558 2.086s-.875 1.152-1.507 1.526-1.321.56-2.066.56h-9.715l-9.519 7.614h-.307a.36.36 0 0 1-.293-.07c-.084-.065-.144-.154-.181-.266a.52.52 0 0 1 0-.336l2.596-7.054H4.132c-.744 0-1.433-.187-2.066-.56S.931 18.83.558 18.196A4.02 4.02 0 0 1 0 16.124V4.143a4.02 4.02 0 0 1 .558-2.072C.931 1.437 1.433.933 2.066.56S3.387 0 4.132 0h19.737zm0 1.488H4.132c-.48 0-.907.116-1.31.354a2.7 2.7 0 0 0-.98.983c-.238.405-.354.836-.354 1.319v11.981c0 .483.116.913.354 1.319a2.7 2.7 0 0 0 .98.983c.403.238.831.354 1.31.354h4.45l-.737 2.001-1.43 3.883 6.81-5.447.407-.326h10.237c.48 0 .907-.116 1.31-.354.411-.243.731-.566.975-.989a2.61 2.61 0 0 0 .359-1.341V4.143c0-.483-.116-.913-.354-1.319a2.7 2.7 0 0 0-.98-.983c-.403-.238-.831-.354-1.31-.354zm-9.782 2.606a.3.3 0 0 1 .288.196l1.505 3.604 3.91.312a.3.3 0 0 1 .269.214l.049.153a.3.3 0 0 1-.092.33l-2.949 2.533.906 3.8c.03.122-.016.249-.116.324l-.178.098c-.104.07-.239.07-.343 0l-3.329-2.019-3.347 2.038c-.104.07-.239.07-.343 0l-.135-.092c-.1-.075-.146-.203-.116-.324l.881-3.825-2.949-2.533a.3.3 0 0 1-.11-.33l.049-.153a.3.3 0 0 1 .269-.214l3.91-.312 1.499-3.604c.045-.112.149-.187.267-.196h.204zm-.091 2.533l-.725 1.747-.293.705-.761.061-1.852.148 1.398 1.201.573.492-.17.736-.424 1.838 1.615-.983.649-.395.649.394 1.632.99-.437-1.835-.177-.741.578-.497 1.397-1.2-1.869-.149-.76-.061-.294-.704-.73-1.749z"/></svg>
