<svg xmlns="http://www.w3.org/2000/svg" viewBox="0 0 28 28" width="28" height="28" class="glsr-icon"><path d="M0 10.5h28V12H0zM12 24v4H0v-4h12zm-1.5 1.5h-9v1h9v-1zm17.5-12v9H0v-9h28zM26.5 15h-25v6h25v-6zM22.437 0c.091-.002.174.054.205.14l1.075 2.575 2.793.223c.09.005.167.067.192.153l.035.109c.03.085.004.179-.066.236l-2.107 1.81.647 2.714c.021.087-.011.178-.083.232l-.127.07c-.074.05-.171.05-.245 0L22.38 6.819l-2.391 1.456c-.074.05-.171.05-.245 0l-.096-.066c-.072-.054-.104-.145-.083-.232l.629-2.732-2.107-1.81c-.074-.054-.106-.149-.079-.236l.035-.109c.026-.086.102-.148.192-.153l2.793-.223L22.101.14c.032-.08.107-.134.191-.14h.146zm-.064 2.738l-.189.457-.293.705-.761.061-.469.036.349.3.573.492-.17.736-.113.487.43-.262.649-.395.649.394.434.264-.113-.479-.177-.741.578-.497.348-.299-.481-.037-.76-.061-.294-.704-.191-.458zM13.437 0c.091-.002.174.054.205.14l1.075 2.575 2.793.223c.09.005.167.067.192.153l.035.109c.03.085.004.179-.066.236l-2.107 1.81.647 2.714c.021.087-.011.178-.083.232l-.127.07c-.074.05-.171.05-.245 0L13.38 6.819l-2.391 1.456c-.074.05-.171.05-.245 0l-.096-.066c-.072-.054-.104-.145-.083-.232l.629-2.732-2.107-1.81c-.074-.054-.106-.149-.079-.236l.035-.109c.026-.086.102-.148.192-.153l2.793-.223L13.101.14c.032-.08.107-.134.191-.14h.146zm-.064 2.738l-.189.457-.293.705-.761.061-.469.036.349.3.573.492-.17.736-.113.487.43-.262.649-.395.649.394.434.264-.113-.479-.177-.741.578-.497.348-.299-.481-.037-.76-.061-.294-.704-.191-.458zM4.437 0c.091-.002.174.054.205.14l1.075 2.575 2.793.223c.09.005.167.067.192.153l.035.109c.03.085.004.179-.066.236l-2.107 1.81.647 2.714c.021.087-.011.178-.083.232l-.127.07c-.074.05-.171.05-.245 0L4.38 6.819 1.989 8.275c-.074.05-.171.05-.245 0l-.096-.066c-.072-.054-.104-.145-.083-.232l.629-2.732-2.107-1.81C.014 3.382-.017 3.287.009 3.2l.035-.109c.026-.086.102-.148.192-.153l2.793-.223L4.101.14c.032-.08.107-.134.191-.14h.146zm-.064 2.738l-.189.457-.293.705-.761.061-.469.036.349.3.573.492-.17.736-.113.487.43-.262.649-.395.649.394.434.264-.113-.479-.177-.741.578-.497.348-.299-.481-.037-.76-.061-.294-.704-.191-.458z"/></svg>
