<svg xmlns="http://www.w3.org/2000/svg" viewBox="0 0 32 24" fill="none"><g clip-path="url(#A)"><path fill="#fff" d="M0 0h32v24H0z"/><g fill-rule="evenodd"><path d="M8 0H24V24H8V0Z" fill="#ffd018"/><path d="M0 0H8V24H0V0Z" fill="#2e42a5"/><path d="M24 0h8v24h-8V0z" fill="#e31d1c"/><path d="M16.299 19.424c.221-.062.411-.446.411-.446s.144.113.373.228.467-.228.467-.228.325 0 .468-.384-.284-.548-.284-.548.499-.524 1.342-.524 1.499 0 2.048-.233 1.084-.635 1.284-1.468-.433-1.358-.433-1.358.14.044.433-.195-.179-1.01-.433-1.01-.284.143-.284.143-.157-.136-.371-.598.215-.868.215-.868.235.135.441-.088-.107-.563-.107-.563.988-.336.845-1.6-1.446-1.192-1.446-1.192.04-.21-.144-.33-.32.12-.32.12c-.144-.333.278-.789.616-1.154l.271-.307c.292-.377.109-.843-.96-1.352s-1.652.175-1.737.417.246.392.246.392c-.27.237-.793.328-1.15.164s-.198-.663-.125-.798l.031-.054c.101-.169.311-.523.094-.868-.245-.387-.668-.387-1.006-.167-.29.188-.701.288-.814.312-.113-.025-.524-.124-.814-.312-.338-.22-.762-.22-1.006.167-.218.344-.007.698.094.868l.031.054c.074.136.232.634-.125.798s-.879.073-1.15-.164c0 0 .332-.15.246-.392s-.669-.926-1.737-.417-1.252.975-.96 1.352c.069.089.166.194.271.307.338.365.76.821.616 1.154 0 0-.136-.24-.319-.12s-.144.33-.144.33-1.303-.072-1.446 1.192.845 1.6.845 1.6-.312.341-.107.563.441.088.441.088.429.406.215.868-.371.598-.371.598-.03-.143-.284-.143-.725.77-.433 1.01.433.195.433.195-.633.525-.433 1.358.734 1.235 1.284 1.468 1.206.233 2.048.233a1.96 1.96 0 0 1 1.342.524s-.427.164-.284.548.467.384.467.384.238.342.467.228.373-.228.373-.228.19.384.411.446v.008c.01 0 .02-.001.029-.002s.02.002.029.002v-.008z" fill="#bf9937"/></g><path d="M12.11 15.998l.105-.254c1.208.518 2.582.777 4.124.777s2.878-.259 4.013-.776l.111.252c-1.171.534-2.546.8-4.123.8s-2.987-.266-4.229-.798z" fill="#805440"/></g><defs><clipPath id="A"><path fill="#fff" d="M0 0h32v24H0z"/></clipPath></defs></svg>
