<svg xmlns="http://www.w3.org/2000/svg" viewBox="0 0 32 24" fill="none"><g clip-path="url(#A)"><path fill="#fff" d="M0 0h32v24H0z"/><g fill-rule="evenodd"><path d="M22 0H32V24H22V0Z" fill="#67bd38"/><path d="M10 0H22V24H10V0Z" fill="#d51700"/><path d="M0 0H10V24H0V0Z" fill="#272727"/><g fill="#f7fcff"><path d="M12.488 7.977l.346.217c-.577.97-.964 1.86-1.164 2.668a.93.93 0 0 1 .192.241 7.08 7.08 0 0 1 .395.789l-.46.196-.255-.533a4.17 4.17 0 0 0 .009 1.118.93.93 0 0 1 .236.056 6.94 6.94 0 0 1 .81.351l-.226.446a6.35 6.35 0 0 0-.69-.303l.005.015a5.59 5.59 0 0 0 .982 1.783.95.95 0 0 1 .208-.021c.313 0 .606.018.881.053l-.06.496c-.187-.024-.384-.039-.592-.046a7.87 7.87 0 0 0 1.397 1.098l-.211.356c-.664-.416-1.228-.879-1.693-1.39l-.228.096-.035.015a7.87 7.87 0 0 0 1.441 1.175l-.215.353c-.641-.413-1.189-.872-1.645-1.376a1.08 1.08 0 0 1-.615-.008l.133-.481a.67.67 0 0 0 .096.021 6.21 6.21 0 0 1-.956-1.842l-.097-.358c-.166-.032-.305-.094-.45-.2l.29-.406a.67.67 0 0 0 .076.049c-.052-.612.02-1.274.214-1.983a1.07 1.07 0 0 1-.242-.473l.425-.11c.229-.648.553-1.334.971-2.058l.349.213c-.456.789-.793 1.526-1.014 2.212a3.03 3.03 0 0 0 .23.185c.221-.806.611-1.677 1.166-2.611zm-1.29 3.142l-.165-.124-.091-.068c-.154.636-.2 1.223-.138 1.763l.256-.009.079-.005c-.066-.487-.047-1.006.057-1.557zm-.115 2.06l.157-.009.061.202a5.99 5.99 0 0 0 .959 1.796l-.083.036-.193.08a5.82 5.82 0 0 1-1.029-1.893l-.058-.202.186-.009zm8.416-5.202l-.346.217c.577.97.964 1.86 1.164 2.668a.93.93 0 0 0-.192.241 7.08 7.08 0 0 0-.395.789l.46.196a6.13 6.13 0 0 1 .255-.533 4.17 4.17 0 0 1-.009 1.118.93.93 0 0 0-.236.056 6.94 6.94 0 0 0-.81.351l.226.446a6.35 6.35 0 0 1 .69-.303l-.005.015a5.59 5.59 0 0 1-.982 1.783.95.95 0 0 0-.208-.021c-.313 0-.606.018-.881.053l.06.496a6.13 6.13 0 0 1 .593-.046 7.87 7.87 0 0 1-1.397 1.098l.211.356c.664-.416 1.228-.879 1.693-1.39l.228.096.035.015a7.87 7.87 0 0 1-1.44 1.175l.215.353c.641-.413 1.189-.872 1.645-1.376a1.08 1.08 0 0 0 .615-.008l-.133-.481a.67.67 0 0 1-.096.021 6.21 6.21 0 0 0 .956-1.842l.097-.358c.166-.032.305-.094.45-.2l-.29-.406a.67.67 0 0 1-.076.049c.052-.612-.02-1.274-.214-1.983a1.08 1.08 0 0 0 .242-.473l-.425-.11c-.229-.648-.553-1.334-.971-2.058l-.349.213c.456.789.793 1.526 1.014 2.212a3.03 3.03 0 0 1-.23.185c-.221-.806-.611-1.677-1.166-2.611zm1.29 3.142l.165-.124.091-.068c.154.636.2 1.223.137 1.763a3.52 3.52 0 0 1-.256-.009l-.079-.005c.066-.487.047-1.006-.057-1.557zm.115 2.06l-.157-.009-.061.202a5.99 5.99 0 0 1-.959 1.796l.083.036.193.08a5.82 5.82 0 0 0 1.029-1.893l.058-.202-.186-.009z"/><path d="M14.253 16.264l-1.116 1.105s.963.59 2.777.59 2.871-.59 2.871-.59l-.849-1.105s-1.156.448-1.975.448-1.708-.448-1.708-.448z"/></g></g><path d="M14.276 16.969s.945.223 1.67.223 1.67-.223 1.67-.223" stroke="#c00001" stroke-width=".5"/><g fill-rule="evenodd" fill="#f7fcff"><path d="M16.892 9.458c0 .437-.399.792-.892.792s-.892-.354-.892-.792.399-.792.892-.792.892.354.892.792zM16 10.25h-.96l-.264.203h-.051V8.868h-.487v1.585h-.426v.27h.426v2.858c-.058.457-.191.715-.378.804l-.993.476h5.977l-.43-.429c-.377-.377-.558-.667-.558-.836v-2.873h.171v-.27h-.171V8.868h-.486v1.585h-.157l-.314-.203H16zm-1.276.473h2.646v2.874c0 .232.11.483.324.765h-3.17c.098-.197.163-.443.201-.749v-2.889zM16.081 12h-1.054v2.083h2.108L16.081 12zm1.089-5.844l.002.003v-.001l-.001-.002zm1.541.542l.001.009-.001-.007v-.003zm.299.037l.002-.005-.001.002-.001.002zm-1.212.614h.006-.003-.003z"/><path d="M12.993 10.668l-.199.143.206.301c-.176.063-.459.223-.459.599 0 .546-.192.992-.192.992l.572.367s.06-.636.216-.998c.078-.181.2-.272.301-.317l.89 1.306.199-.143-1.533-2.251zm6.078 0l.199.143-.205.301c.176.063.459.223.459.599a2.8 2.8 0 0 0 .192.992l-.572.367s-.06-.636-.215-.998c-.078-.181-.2-.272-.302-.317l-.89 1.306-.199-.143 1.534-2.251z"/></g></g><defs><clipPath id="A"><path fill="#fff" d="M0 0h32v24H0z"/></clipPath></defs></svg>
