<svg xmlns="http://www.w3.org/2000/svg" viewBox="0 0 32 24" fill="none"><g clip-path="url(#A)"><path fill="#fff" d="M0 0h32v24H0z"/><g fill-rule="evenodd"><path d="M0 0H32V24H0V0Z" fill="#1b1b1b"/><path d="M16 14l-2.003 3.799.05-4.195-3.659 2.651 2.093-3.761-4.591.977 3.722-2.581L7 10l4.613-.89-3.722-2.581 4.591.977-2.093-3.761 3.659 2.651-.05-4.196L16 6l2.003-3.799-.05 4.196 3.659-2.651-2.093 3.761 4.59-.977-3.721 2.581L25 10l-4.613.89 3.721 2.581-4.59-.977 2.093 3.761-3.659-2.651.05 4.195L16 14z" fill="#f9d313"/></g><path fill="#f1f9ff" d="M6 14h20v10H6z"/><path fill="#4a80e8" d="M2 10h28v4H2z"/><path fill-rule="evenodd" d="M0 6L16 24L32 6V24H0V6Z" fill="#e31d1c"/></g><defs><clipPath id="A"><path fill="#fff" d="M0 0h32v24H0z"/></clipPath></defs></svg>
