<svg xmlns="http://www.w3.org/2000/svg" viewBox="0 0 32 24" fill="none"><style><![CDATA[.B{fill-rule:evenodd}.C{fill:#f7fcff}.D{fill:#f50100}]]></style><g clip-path="url(#C)"><path fill="#fff" d="M0 0h32v24H0z"/><path d="M0 0V24H32V0H0Z" fill="#2e42a5" class="B"/><mask id="A" maskUnits="userSpaceOnUse" x="0" y="0" width="32" height="24"><path d="M0 0V24H32V0H0Z" fill="#fff" class="B"/></mask><g mask="url(#A)"><path d="M20.943 11.856l.003.35.329 5.804c.161.768.745 2.041 1.433 3.062.864 1.284 1.786 2.064 2.669 2.064s1.809-.726 2.669-1.936c.706-.993 1.311-2.253 1.552-3.181.298-1.149.437-3.085.42-5.817l-.002-.348-.318.165a4.44 4.44 0 0 1-2.073.497c-.733 0-1.441-.219-2.128-.661l-.118-.076-.119.073c-.725.444-1.405.664-2.044.664-.646 0-1.296-.165-1.952-.498l-.322-.163zm.546 6.113c-.19-.907-.298-2.828-.325-5.765.686.348 1.37.522 2.053.522s1.403-.232 2.16-.696c.721.464 1.471.696 2.249.696s1.503-.174 2.175-.522c.017 2.716-.121 4.637-.414 5.765-.439 1.691-2.279 4.958-4.01 4.958s-3.604-3.598-3.888-4.958z" fill="#fbe625" class="B"/><path d="M21.164 12.205l.325 5.765c.285 1.36 2.157 4.958 3.888 4.958s3.572-3.267 4.01-4.958.414-5.765.414-5.765-1.009.522-2.175.522-2.249-.696-2.249-.696-1.136.696-2.16.696-2.053-.522-2.053-.522z" fill="#f5fbff" class="B"/><mask id="B" maskUnits="userSpaceOnUse" x="21" y="12" width="9" height="11"><path d="M21.164 12.205l.325 5.765c.285 1.36 2.157 4.958 3.888 4.958s3.572-3.267 4.01-4.958.414-5.765.414-5.765-1.009.522-2.175.522-2.249-.696-2.249-.696-1.136.696-2.16.696-2.053-.522-2.053-.522z" fill="#fff" class="B"/></mask><g mask="url(#B)" class="B"><path d="M24.64 15.488c0 .288-.411 1.125-.649 1.339-.176.159-.122-.21-.082-.482h0l.026-.224v-.02l-.006-.117c-.007-.036-.022-.07-.055-.144h0l-.045-.104c-.382-.814-.112-1.204.008-1.377l.042-.065c.018-.037.052-.069.09-.106.096-.092.216-.209.171-.47-.064-.365.322-.834.322-.834s-.094.908.35.686c.288-.145.811.063 1.276.248.25.099.484.192.655.22.346.056.535-.09.652-.179.049-.037.085-.065.115-.065.102 0 .222.02.222.095s-.455.292-.684.359c-.173.051.005.192.153.31l.123.104c.118.121.227.779-.047.365s-.856-.691-1.351-.732-1.119.335-1.194.732.585.324.585.324-.048.062-.261.137-.418 0-.418 0zm-.498-.031c0 .058-.049.105-.109.105s-.109-.047-.109-.105.049-.105.109-.105.109.047.109.105zm2.44 1.944c-.303-.104-1.235-.058-1.486.082 0 0-.034-.216-.203-.366s-.246-.162-.246-.162.384.542.001.669-1.014-.237-1.219-.689-.244-1.096-.015-1.536-.294-.026-.342.136c-.012.04-.021.097-.032.158-.031.187-.069.41-.197.284-.17-.167-.581-.46-.646-.424s-.025.151.025.24c.015.026.056.044.113.069.135.059.354.154.473.484.059.163.091.412.125.679.064.496.136 1.054.402 1.236.41.28-.43.639-.43.639s.597.111.885-.122c.206-.167.367-.117.494-.078h0c.05.015.096.029.137.027.019-.001.045.002.077.005.209.021.681.068 1.208-.66l.069-.09h0c.05-.065.072-.095.1-.118s.05-.034.1-.062l.017-.009c.039-.022.118-.051.209-.085h0 0c.257-.097.606-.228.382-.305zm-1.253.481c.051-.028.115-.008.144.044s.012.118-.039.146-.115.008-.144-.044-.012-.118.039-.146zm.513-3.007c.078.311.624 1.067.878 1.202 0 0-.163.146-.196.369s-.002.295-.002.295.246-.617.561-.365.354.98.085 1.398-.786.802-1.28.849.138.261.3.213c.04-.012.093-.035.15-.06.174-.076.381-.166.345.011-.048.234-.07.738-.004.773s.14-.062.188-.151c.014-.026.006-.071-.004-.132-.024-.146-.064-.381.148-.66.105-.138.296-.301.502-.475.381-.324.81-.688.818-1.011.012-.496.77.013.77.013s-.232-.561-.585-.676c-.252-.082-.298-.244-.335-.372-.014-.051-.027-.096-.051-.129-.011-.016-.023-.039-.038-.067-.096-.187-.314-.608-1.212-.654l-.113-.009a.72.72 0 0 1-.153-.02c-.029-.009-.056-.023-.106-.05-.057-.03-.125-.08-.203-.138h0c-.221-.163-.521-.384-.464-.154zm1.12.829c-.051-.027-.07-.092-.041-.145s.092-.074.143-.047.07.092.041.145-.093.074-.143.047z" fill="#ff9800"/><path d="M21.426 19.752h7.279v3.457h-7.279v-3.457z" fill="#36c6ff"/></g><g clip-path="url(#D)"><path fill="#2e42a5" d="M0 0h18v14H0z"/><path d="M-2.004 13l3.961 1.737L18.09 1.889l2.089-2.582-4.236-.581-6.58 5.537-5.296 3.73L-2.004 13z" class="C"/><path d="M-1.462 14.217l2.018 1.008L19.429-.933h-2.833l-18.058 15.15z" class="D"/><path d="M20.004 13l-3.961 1.737L-.09 1.889-2.179-.693l4.236-.581 6.58 5.537 5.296 3.73L20.004 13z" class="C"/><path d="M19.869 13.873l-2.018 1.008-8.036-6.918-2.383-.773L-2.38-.684H.453l9.807 7.688 2.605.927 7.004 5.943z" class="D"/><path d="M9.985 0h-2v6H0v2h7.985v6h2V8H18V6H9.985V0z" class="B D"/><path d="M6.485 0h5v4.5H18v5h-6.515L11.5 14h-5l-.015-4.5H0v-5h6.485V0zm1.5 6H0v2h7.985v6h2V8H18V6H9.985V0h-2v6z" class="B C"/></g></g></g><defs><clipPath id="C"><path fill="#fff" d="M0 0h32v24H0z"/></clipPath><clipPath id="D"><path fill="#fff" d="M0 0h18v14H0z"/></clipPath></defs></svg>
