<svg xmlns="http://www.w3.org/2000/svg" viewBox="0 0 32 24" fill="none"><g clip-path="url(#A)"><path fill="#fff" d="M0 0h32v24H0z"/><g fill-rule="evenodd"><path d="M0 0H32V24H0V0Z" fill="#f50100"/><path d="M16.5 6.224c.068-.014.238-.107.603-.587.223-.293.213-.646.204-.952-.011-.401-.021-.722.5-.722.427 0 .743-.123 1.008-.225.305-.118.542-.21.801-.058.417.244.909.278.908.283s-.013.001-.04.001c-.201 0-.922.411-.364.411.273 0 .564-.197.79-.349.236-.16.402-.271.402-.061 0 0 .159.464-.224.499 0 0-1.728.169-1.39.245 0 0 .308.127.518.134 0 0 .091.32-.469.409 0 0-1.583.294-1.655.803-.018.128-.063.296-.112.475-.144.536-.317 1.179.112 1.179.572 0 .944-.392.944-.833s.078-1.185.581-1.221c0 0 1.239-.418 1.392-.389.058.011.055.049.051.092-.006.071-.013.157.252.157.425 0 1.658-1.022 1.852-1.428s.485 0 .485 0 .188 1.136-.789 1.552-1.548.416-1.548.416-.609.448-.224.448c.085 0 .192.008.313.017.423.031 1.018.074 1.46-.162l.319-.175c.333-.185.47-.261.47-.128v.003c0 .177 0 1.116-.65 1.116H21.31c-.224 0-.756.32.127.536s1.167.126 1.56 0 .65-.197.65 0-.539.936-1.002.936c-.271 0-.56-.141-.799-.257-.169-.082-.313-.153-.409-.153-.231 0-.471.41-.351.41.039 0 .107.063.199.147.192.176.488.448.84.448.287 0 .511-.059.712-.111.163-.043.312-.082.466-.082.2 0 .284-.024.319.007.026.023.026.074.026.186 0 .265-.688.556-1.002.556-.143 0-.494-.157-.835-.309-.409-.182-.803-.358-.803-.248 0 .201.83 1.284 1.341 1.284h.955c.345 0 .208.438.208.438s-.334.297-.748.297c-.311 0-.617-.236-.858-.42l-.216-.157c-.252-.158-.603-.28-.603 0s.793 1.399 1.435 1.399c.256 0 .488-.041.673-.074.279-.05.454-.081.454.074 0 .258-.298.833-.65.706l-.008-.003c-.36-.13-1.457-.525-1.679-.946s-.635-.242-.469 0 1.038 1.496 1.679 1.613l.493.07c.425.052.734.09.634.293-.137.277-.704.665-1.002.543s-1.315-1.057-1.559-1.447-.872-1.136-.872-.83c0 .065-.012.155-.025.256-.049.374-.118.909.294.999.524.114.8.619.524.619s-1.263-.236-1.263-.862-.446-.977-.446-.801l-.001.073c-.005.221-.016.67.202.971.245.34-.102.617-.2.478s-.518-.78-.518-.904-.148-.416-.323-.416-.209.304.117.956 1.131 1.173 1.385 1.173 0 .585 0 .585l1.73.448s.659-.34.659-.448.344-.373.65-.373.329.373.165.373c-.081 0-.197.07-.313.14s-.241.145-.328.145c-.173 0-.702.37-.702.37h1.178s-.189-.207.305-.207.697.207.697.207-.557.327-.697.327c-.036 0-.08.007-.136.016a2.23 2.23 0 0 1-.323.034c-.038-.028-.06-.022-.073 0-.12-.002-.26-.015-.424-.05-.529-.114.415.237.415.237s-.02-.136.009-.187h.073a.78.78 0 0 1 .153.187c.305.463.352.607 0 .607s-.65-.107-.65-.357-.659-.487-.659-.487l-.847.487s.158.272-.1.357-.623-.04-.623-.126.085-.482.305-.482.887-.363.887-.363l-1.615-.482s-.452.482-.601.482c-.076 0-.226-.308-.39-.644-.156-.32-.324-.667-.453-.797-.081-.082-.153-.19-.222-.294-.157-.238-.303-.457-.515-.304-.306.22-.428.898 0 1.469s1.168 1.022 1.374 1.022.611.02.611.162-.18.725-.611.478l-.256-.149c-.341-.201-.648-.381-.7-.329-.065.065.204.799.58.974.165.077.319.071.439.067.153-.006.252-.009.252.164 0 .308-.266.651-.746.326-.212-.144-.387-.333-.524-.482-.173-.187-.285-.308-.333-.188-.087.216-.05 1.059.331 1.059l.242-.005c.245-.009.401-.014.401.1 0 .149-.088.783-.485.53s-.688-.568-.759-.791-.495-.001-.361.313.459.946.545.946-1.007 1.911-1.007 1.911l-.007-2.353-.007 2.353-1.007-1.911c.087 0 .411-.633.545-.946s-.29-.536-.361-.313-.361.538-.759.791-.485-.381-.485-.53c0-.114.156-.109.401-.1l.242.005c.38 0 .417-.843.331-1.059-.048-.12-.16.001-.333.188-.137.148-.312.338-.524.482-.48.326-.746-.018-.746-.326 0-.173.099-.169.252-.164.12.004.274.01.439-.067.376-.175.646-.909.58-.974-.053-.052-.359.128-.7.329l-.256.149c-.431.247-.611-.336-.611-.478s.405-.162.611-.162.946-.451 1.374-1.022.306-1.249 0-1.469c-.212-.153-.358.066-.515.304-.069.105-.141.213-.222.294-.129.13-.297.476-.453.797-.164.336-.313.644-.39.644-.149 0-.601-.482-.601-.482l-1.615.482s.667.363.887.363.305.396.305.482-.364.211-.623.126-.1-.357-.1-.357l-.847-.487s-.659.237-.659.487-.298.357-.65.357-.305-.144 0-.607a.78.78 0 0 1 .153-.187h.073c.03.051.009.187.009.187s.943-.351.415-.237c-.163.035-.304.049-.424.05-.013-.022-.035-.028-.073 0a2.23 2.23 0 0 1-.323-.034l-.136-.016c-.141 0-.697-.327-.697-.327s.203-.207.697-.207.305.207.305.207h1.178s-.529-.37-.702-.37c-.088 0-.209-.073-.328-.145s-.232-.14-.313-.14c-.165 0-.141-.373.165-.373s.65.264.65.373.659.448.659.448l1.73-.448s-.254-.585 0-.585 1.059-.521 1.385-1.173.291-.956.117-.956-.323.291-.323.416-.42.765-.518.904-.446-.139-.2-.478c.218-.301.207-.751.202-.971l-.001-.073c0-.176-.446.176-.446.801s-.986.862-1.262.862 0-.505.524-.619c.412-.09.343-.626.294-.999l-.025-.256c0-.306-.628.44-.873.83s-1.262 1.325-1.559 1.447-.865-.265-1.002-.543c-.1-.204.208-.241.634-.293l.493-.07c.641-.117 1.514-1.37 1.679-1.613s-.245-.423-.469 0-1.319.816-1.679.946l-.008.003c-.352.127-.65-.448-.65-.706 0-.155.175-.124.454-.074.185.033.417.074.673.074.641 0 1.435-1.119 1.435-1.399s-.351-.158-.603 0c-.063.04-.136.095-.216.157-.24.184-.547.42-.857.42-.415 0-.748-.297-.748-.297s-.137-.438.208-.438h.955c.511 0 1.341-1.083 1.341-1.284 0-.11-.394.066-.803.248-.341.152-.693.309-.835.309-.314 0-1.002-.292-1.002-.556 0-.111 0-.163.026-.186.035-.031.119-.007.319-.007.155 0 .303.039.466.082.201.053.425.111.712.111.352 0 .648-.272.839-.448.092-.085.16-.147.199-.147.12 0-.12-.41-.351-.41-.096 0-.24.07-.409.153-.239.117-.528.257-.799.257-.463 0-1.002-.739-1.002-.936s.257-.126.65 0 .678.216 1.56 0 .351-.536.127-.536h-1.687c-.65 0-.65-.94-.65-1.116v-.003c0-.133.136-.057.47.128l.319.175c.442.236 1.036.192 1.46.162l.313-.017c.385 0-.224-.448-.224-.448s-.572 0-1.548-.416-.789-1.552-.789-1.552.291-.406.485 0 1.426 1.428 1.852 1.428c.265 0 .258-.085.252-.157-.004-.043-.007-.081.051-.092.154-.029 1.392.389 1.392.389.504.036.582.78.582 1.221s.372.833.944.833c.429 0 .256-.643.112-1.179l-.112-.475c-.072-.509-1.655-.803-1.655-.803-.56-.089-.469-.409-.469-.409.21-.008.518-.134.518-.134.338-.076-1.391-.245-1.391-.245-.383-.035-.224-.499-.224-.499 0-.21.165-.098.402.061.226.153.517.349.79.349.558 0-.164-.411-.364-.411-.028 0-.041 0-.041-.001s.491-.038.908-.283c.259-.152.496-.06.801.058.265.103.581.225 1.008.225.521 0 .511.321.5.722-.009.306-.019.659.204.952.365.48.535.573.603.587z" fill="#1a1a1a"/></g></g><defs><clipPath id="A"><path fill="#fff" d="M0 0h32v24H0z"/></clipPath></defs></svg>
