<svg xmlns="http://www.w3.org/2000/svg" viewBox="0 0 32 24" fill="none"><style><![CDATA[.B{fill-rule:evenodd}.C{fill:#ffea42}.D{color-interpolation-filters:sRGB}]]></style><g clip-path="url(#D)"><path fill="#fff" d="M0 0h32v24H0z"/><path d="M0 0V24H32V0H0Z" fill="#1d1d1d" class="B"/><mask id="A" maskUnits="userSpaceOnUse" x="0" y="0" width="32" height="24"><path d="M0 0V24H32V0H0Z" fill="#fff" class="B"/></mask><g mask="url(#A)"><path d="M0 0V12H32V0H0Z" fill="#f50100" class="B"/><path d="M9.933 5.897l.427-1.405c3.2.977 5.13 2.689 5.672 5.132.36 1.62.196 3.069-.386 4.359-.415.919-.942 1.605-1.699 2.377-1.263 1.288-3.341 2.11-5.218 1.761-1.308-.243-2.512-.701-3.61-1.375l.765-1.252c.943.579 1.978.973 3.111 1.184 1.355.252 2.961-.384 3.906-1.347.647-.66 1.079-1.223 1.409-1.953.454-1.005.581-2.129.291-3.434-.414-1.864-1.932-3.211-4.669-4.046z" class="C"/><g filter="url(#B)" class="B"><use href="#E" fill="#fcff01"/><use href="#E" class="C"/></g><g filter="url(#C)" class="B"><use href="#F" fill="#fcff01"/><use href="#F" class="C"/></g><path d="M11.712 4.074l-.39.883 1.278.553.363-.883-1.251-.553zm2.613 1.41l-.704.66.96 1.009.679-.671-.935-.998zm.961 2.652l.9-.349.493 1.276-.881.368-.513-1.295zm1.753 2.5l-.965-.031-.034 1.392.955.005.044-1.367zm-1.192 2.558l.883.39-.553 1.251-.883-.362.553-1.278zm-.523 3.008l-.66-.704-1.009.96.671.679.998-.935zm-2.647.965l.349.9-1.276.493-.368-.881 1.295-.513zm-2.493 1.754l.031-.965-1.392-.034-.005.955 1.367.044zm-2.552-1.193l-.39.883-1.251-.553.362-.883 1.278.553z" class="B C"/></g></g><defs><filter id="B" x="8.31" y="7.214" width="3.073" height="2.907" filterUnits="userSpaceOnUse" class="D"><feFlood flood-opacity="0" result="A"/><feColorMatrix in="SourceAlpha" values="0 0 0 0 0 0 0 0 0 0 0 0 0 0 0 0 0 0 127 0"/><feOffset/><feColorMatrix values="0 0 0 0 0 0 0 0 0 0 0 0 0 0 0 0 0 0 0.2 0"/><feBlend in2="A"/><feBlend in="SourceGraphic"/></filter><filter id="C" x="6.747" y="9.86" width="12.126" height="9.048" filterUnits="userSpaceOnUse" class="D"><feFlood flood-opacity="0" result="A"/><feColorMatrix in="SourceAlpha" values="0 0 0 0 0 0 0 0 0 0 0 0 0 0 0 0 0 0 127 0"/><feOffset/><feColorMatrix values="0 0 0 0 0 0 0 0 0 0 0 0 0 0 0 0 0 0 0.2 0"/><feBlend in2="A"/><feBlend in="SourceGraphic"/></filter><clipPath id="D"><path fill="#fff" d="M0 0h32v24H0z"/></clipPath><path id="E" d="M9.846 9.464l-.95.657.335-1.102-.922-.695 1.157-.023.38-1.087.38 1.087 1.157.023-.922.695.335 1.102-.95-.657z"/><path id="F" d="M7.614 9.86s-1.684 2.469-.358 3.371 8.337 4.707 8.337 4.707 1.449-.008 1.655.3.635.671.816.671.648-.327.648-.327.364-.298 0-.644-2.288-1.532-2.288-1.532L8.277 11.14c-.638-.474-.663-1.28-.663-1.28z"/></defs></svg>
