<svg xmlns="http://www.w3.org/2000/svg" viewBox="0 0 32 24" fill="none"><g clip-path="url(#B)"><path fill="#fff" d="M0 0h32v24H0z"/><path fill-rule="evenodd" d="M0 0V24H32V0H0Z" fill="#5196ed"/><mask id="A" maskUnits="userSpaceOnUse" x="0" y="0" width="32" height="24"><path fill-rule="evenodd" d="M0 0V24H32V0H0Z" fill="#fff"/></mask><g mask="url(#A)"><path fill-rule="evenodd" d="M8.717 7.894l2.351 1.446c.287.313.747 1.464 1.464.813s1.435-.145 1.435-1.181 1.071-3.44 2.625-2.837 2.832.225 3.191.466 1.22 1.437 1.889 1.437 1.004.699 1.052 1.711-.215 1.109.406 1.229.861.578.55 1.181-.287.337-.239.964-.622 4.321-2.678 4.683-4.006.169-3.48-.53 1.254-1.503.178-1.671-1.754-.312-2.831-.023-2.2.747-2.87-.12-.526-1.494-1.076-1.904-1.22-.337-.669-1.133 1.004-.498.55-1.125-2.169-.899-2.169-1.526-1.091-2 .32-1.88z" fill="#f5f8fb"/></g></g><defs><clipPath id="B"><path fill="#fff" d="M0 0h32v24H0z"/></clipPath></defs></svg>
