<svg xmlns="http://www.w3.org/2000/svg" viewBox="0 0 32 24" fill="none"><style><![CDATA[.B{fill-rule:evenodd}.C{fill:#ffc125}.D{fill:#984111}]]></style><g clip-path="url(#B)"><path fill="#fff" d="M0 0h32v24H0z"/><path d="M0 0V24H32V0H0Z" fill="#f7fcff" class="B"/><mask id="A" maskUnits="userSpaceOnUse" x="0" y="0" width="32" height="24"><path d="M0 0V24H32V0H0Z" fill="#fff" class="B"/></mask><g mask="url(#A)" class="B"><path d="M0 0v7h32V0H0zm0 17v7h32v-7H0z" fill="#58a5ff"/></g><path d="M15.219 7.128c-.066-.032-.146-.005-.178.06-.148.297-.038.558.051.771h0l.027.066.05.117a28.23 28.23 0 0 1 .058.132l.06.13c.047.096.067.137.067.276l-.004.246h0c-.009.439-.022 1.055.137 1.312.038.062.23-.036.293-.074s.039-.241.001-.303c-.16-.259-.16-.79-.16-1.157V8.68c0-.183-.029-.246-.093-.386l-.055-.123-.059-.134-.047-.11-.039-.083c-.068-.137-.157-.32-.048-.54.032-.065.005-.144-.061-.176zm1.954.079c-.048-.055-.132-.062-.188-.014-.252.215-.253.499-.254.73h0 0 0 0 0 0 0 0 0 0 0 0 0 0v.071.127h0 0l.002.144.005.143a.49.49 0 0 1-.047.28l-.099.225h0c-.18.4-.433.963-.387 1.261.011.072.225.057.298.047s.13-.207.119-.279c-.046-.301.161-.79.305-1.127h0 0l.01-.023c.072-.169.07-.238.065-.392h0 0l-.003-.134-.002-.146V8c0-.027-.001-.058-.003-.091-.009-.153-.02-.356.167-.516.055-.047.061-.131.013-.186zm1.582.718c.069-.023.145.014.169.084s-.012.144-.081.168c-.233.078-.299.271-.348.416l-.031.086-.045.111c0-.001-.041.106-.053.136l-.048.125h0 0 0 0 0 0 0 0c-.053.144-.077.209-.207.339l-.017.017c-.259.259-.635.634-.705.931-.017.071-.144.231-.215.214s-.276-.084-.259-.155c.07-.294.515-.721.831-1.025l.176-.171c.098-.098.113-.141.148-.242l.049-.134.053-.135.048-.118.027-.066h0 0 0c.087-.214.195-.476.509-.581zm1.494 1.509c.005-.073-.05-.137-.123-.143-.33-.026-.532.174-.695.336h0 0 0l-.05.049-.09.09c0 0-.079.081-.101.104l-.098.104c-.072.079-.102.113-.231.165l-.229.089c-.41.156-.986.375-1.165.618-.043.059.119.2.178.244s.238-.054.281-.113c.181-.246.672-.444 1.013-.582l.023-.009c.17-.069.217-.119.323-.231l.093-.097.102-.105.085-.085.062-.067h0 0c.102-.114.238-.266.483-.247.073.006.136-.049.14-.122zm.606 1.615c.065.033.092.112.06.178s-.111.093-.176.061c-.22-.109-.403-.019-.54.048h0l-.083.039-.11.047c.001-.001-.104.046-.134.059l-.123.055h0c-.14.064-.203.093-.386.093h-.025c-.367 0-.897 0-1.157.16-.062.038-.265.062-.303-.001s-.136-.254-.073-.293c.257-.159.874-.146 1.312-.137h0l.246.004a.49.49 0 0 0 .276-.067l.13-.06.133-.058.117-.05.066-.027h0c.213-.089.474-.199.771-.051zm-.019 2.115c.055-.048.062-.132.014-.188-.215-.252-.499-.253-.73-.254h0 0 0 0l-.071-.001h-.127 0 0l-.145.002-.143.005c-.107.005-.152.008-.28-.047l-.225-.099h0c-.4-.18-.963-.432-1.261-.387-.072.011-.057.225-.047.298s.207.13.279.119c.301-.046.79.161 1.127.305l.023.01c.169.072.238.07.392.065h0 0 0l.134-.003.146-.002h.12l.091-.003c.153-.008.356-.02.516.167.047.055.131.061.186.013zm-.725 1.566c.023.069-.014.145-.084.169s-.144-.012-.168-.081c-.078-.233-.271-.298-.416-.348l-.086-.031-.111-.045c.001 0-.106-.041-.136-.053l-.126-.048h0c-.144-.053-.209-.077-.339-.207l-.017-.017c-.259-.259-.634-.635-.931-.705-.071-.017-.231-.144-.214-.215s.084-.275.155-.259c.294.07.721.515 1.024.831h0 0 0l.171.176c.098.098.142.113.242.148l.134.049.135.053.118.048.066.027c.214.087.476.195.581.509zm-1.521 1.482c.073.005.137-.05.143-.123.026-.33-.174-.532-.336-.696l-.05-.051-.09-.09-.104-.101-.104-.098h0c-.079-.072-.113-.102-.165-.231l-.089-.229c-.156-.41-.375-.986-.618-1.165-.059-.043-.2.119-.244.178s.054.238.113.281c.246.181.444.672.582 1.013l.009.023c.069.17.119.217.231.323l.097.093.105.102.084.085a1.3 1.3 0 0 0 .067.062h0c.114.102.266.238.247.483-.006.073.049.136.122.14zm-1.631.6c-.032.065-.112.092-.178.06s-.093-.111-.061-.176c.109-.22.019-.403-.048-.54h0 0l-.039-.083-.047-.11c0 .001-.046-.104-.059-.134l-.055-.123c-.064-.14-.093-.203-.093-.386v-.025c0-.367 0-.897-.16-1.157-.038-.062-.062-.265.001-.303s.254-.136.293-.073c.159.257.146.874.137 1.312h0l-.004.246c0 .139.02.18.067.276l.06.13.058.133.05.117.027.066h0c.089.213.199.474.051.771zm-2.132-.019c.048.055.132.062.188.014.252-.216.253-.499.254-.73h0 0 0 0 0l.001-.071v-.127h0l-.002-.145-.005-.143h0a.49.49 0 0 1 .046-.28l.099-.225h0c.18-.4.432-.963.387-1.261-.011-.072-.225-.057-.298-.047s-.13.207-.119.279c.046.302-.161.79-.305 1.127l-.01.023c-.072.169-.07.238-.065.392l.003.135.002.146V16c-.001.027.001.058.003.091.008.153.02.356-.167.516-.055.047-.061.131-.013.186zm-1.582-.718c-.069.023-.145-.014-.169-.084s.012-.144.081-.168c.233-.078.298-.271.348-.416l.031-.086.045-.111c0 .001.041-.106.053-.136l.048-.126h0c.053-.144.078-.209.207-.339l.017-.017h0c.259-.259.635-.634.705-.931.017-.071.144-.231.215-.214s.276.084.259.155c-.07.294-.514.721-.831 1.025h0 0 0 0 0l-.176.171c-.098.098-.113.142-.148.242h0l-.049.134-.053.135-.048.118-.027.066c-.087.213-.195.476-.509.581zm-1.481-1.485c-.004.073.052.136.125.141.331.02.529-.183.69-.348l.05-.051.089-.091c0 0 .077-.083.099-.105l.096-.106c.07-.08.1-.115.228-.169l.227-.093h0 0c.407-.163.98-.392 1.154-.639.042-.059-.123-.197-.182-.241s-.237.058-.279.118c-.176.249-.664.456-1.002.599l-.023.01c-.169.072-.215.123-.319.236l-.092.099-.1.107-.083.086c-.019.019-.04.043-.061.068-.1.116-.233.27-.478.255-.073-.004-.135.051-.138.125zm-.619-1.639c-.065-.032-.092-.112-.06-.178s.111-.093.176-.061c.22.109.403.019.54-.048h0l.083-.039.11-.047a25.82 25.82 0 0 1 .134-.059l.123-.055h0 0 0c.14-.064.203-.093.386-.093h.025c.367 0 .897 0 1.157-.16.062-.038.265-.062.303.001s.136.254.073.293c-.257.159-.873.146-1.312.137h0l-.246-.004c-.139 0-.18.02-.276.067l-.13.06-.132.058-.117.05-.066.027h0c-.213.089-.474.199-.771.051zm.019-2.115c-.055.048-.062.132-.014.188.215.252.499.253.729.254h0 0l.071.001h.127 0 0l.144-.002.143-.005h0 0a.49.49 0 0 1 .28.046l.225.099c.4.18.963.432 1.261.387.072-.011.057-.225.047-.298s-.207-.13-.279-.119c-.301.046-.79-.161-1.127-.305l-.023-.01c-.169-.072-.238-.07-.392-.065l-.135.003-.146.002h-.119c-.027-.001-.058.001-.091.003h0 0c-.153.009-.356.02-.516-.167-.047-.055-.131-.061-.186-.013zm.725-1.566c-.023-.069.014-.145.084-.169s.144.012.168.081c.078.233.271.298.416.348l.086.031.111.045c-.001 0 .106.041.136.053l.126.048h0c.144.053.209.078.339.207l.017.017c.259.259.634.635.931.705.071.017.231.144.214.215s-.084.276-.155.259c-.294-.069-.721-.514-1.024-.831h0l-.171-.176a.49.49 0 0 0-.242-.148h0l-.134-.049-.135-.052-.118-.048-.066-.027c-.213-.087-.476-.195-.581-.509zm1.521-1.482c-.073-.005-.137.05-.143.123-.026.33.174.532.336.696l.05.051.09.09c0 0 .081.079.104.101l.104.098a.49.49 0 0 1 .165.231l.089.229c.156.41.375.986.618 1.165.059.043.2-.119.244-.178s-.054-.238-.113-.281c-.246-.18-.444-.672-.582-1.013l-.009-.023c-.069-.17-.119-.217-.231-.323l-.097-.093-.105-.102-.085-.085c-.019-.02-.042-.04-.067-.062-.114-.102-.266-.238-.247-.483.006-.073-.049-.136-.122-.14z" class="B C"/><path d="M15.041 7.188l-.067-.033h0l.067.033zm.051.771l.069-.029h0l-.069.029zm0 0l-.069.029h0l.069-.029zm.027.066l-.07.028h0l.07-.028zm.05.117l-.069.03.137-.06-.069.03zm.058.132l-.069.03h0l.069-.03zm.06.13l-.067.033.067-.033zm.063.522l.075.002h0l-.075-.002zm0 0l-.075-.002h0l.075.002zm.137 1.312l.064-.039h0l-.064.039zm.293-.377l.064-.039h0l-.064.039zm-.16-1.157h.075 0-.075zm0-.025h.075 0-.075zm-.093-.386l.068-.031h0l-.068.031zm-.055-.123l.069-.03-.069.03zm-.059-.134l-.069.03.137-.06-.069.03zm-.047-.11l-.07.028h0l.07-.028zm-.039-.083l-.067.033h0l.067-.033zm-.048-.54l.067.033h0l-.067-.033zm1.705-.111l-.049-.057h0l.049.057zm.188.014l-.056.049h0l.056-.049zm-.442.715h-.075 0 .075zm0 0h.075 0-.075zm-.001.071l-.075-.001h0l.075.001zm0 .127l-.075.001h0l.075-.001zm0 0l-.075.001h0l.075-.001zm0 0l.075-.001h0l-.075.001zm.002.144h.075 0-.075zm.005.143l-.075.004h0l.075-.004zm-.047.28l-.069-.029h0l.069.029zm-.099.225l-.068-.031h0l.068.031zm0 0l.068.031h0l-.068-.031zm-.387 1.261l.074-.011h0l-.074.011zm.298.047l-.01-.074.01.074zm.119-.279l-.074.011h0l.074-.011zm.305-1.127l.069.029v-.001l-.07-.028zm0 0l-.069-.029v.001l.07.028zm0 0l-.069-.029v.001l.069.029zm.01-.023l.069.029h0l-.069-.029zm.065-.392h-.075v.002l.075-.002zm0 0h.075v-.002l-.075.002zm-.003-.134h.075 0-.075zm-.002-.146l-.075.001.15-.002-.075.001zm0-.12l.075.001h0L16.997 8zm-.003-.091l.075-.004-.075.004zm.167-.516l-.049-.057h0l.049.057zm1.764.616l-.071.025.071-.025zm-.169-.084l.024.071h0l-.024-.071zm.087.251l-.024-.071.024.071zm-.348.416l.071.024h0l-.071-.024zm-.031.086l.069.029h0l-.069-.029zm-.098.247l.07.028h0l-.07-.028zm-.048.125l-.07-.026h0l.07.026zm0 0l-.07-.026h0l.07.026zm0 0l.07.027v-.001l-.071-.026zm0 0l-.07-.027-.001.003.071.024zm0 0l.071.024h0l-.071-.024zm0 0l.07.026.001-.002-.071-.024zm0 0l-.07-.026v.001l.071.025zm0 0l.07.026v-.001l-.071-.025zm0 0l.07.026h0l-.07-.026zm-.207.339l.053.053h0l-.053-.053zm-.017.017l.053.053h0l-.053-.053zm-.705.931l.073.017h0l-.073-.017zm-.215.214l.018-.073h0l-.018.073zm-.259-.155l-.073-.017h0l.073.017zm.831-1.025l-.052-.054.052.054zm.324-.413l-.071-.024.071.024zm.049-.134l-.07-.028h0l.07.028zm.053-.135l-.07-.027.14.055-.07-.027zm.048-.118l.069.029h0l-.069-.029zm.027-.066l-.069-.029h0l.069.028zm0 0l-.069-.029h0l.069.029zm0 0l.069.029.001-.004-.07-.026zm0 0l-.07-.028-.001.003.07.026zm1.88.785l.006-.075-.006.075zm.123.143l.075.005h0l-.075-.005zm-.818.193l-.053-.053h0l.053.053zm0 0l-.053-.053h0l.053.053zm0 0l.053.053h0l-.053-.053zm0 0l.053.053h0l-.053-.053zm-.05.049l-.052-.054h0l.052.054zm-.09.09l-.054-.052.107.105-.054-.052zm-.101.104l-.053-.053h0l.053.053zm-.098.104l.056.05h0l-.056-.05zm-.231.165l-.028-.07h0l.028.07zm-.229.089l-.027-.07.027.07zm-1.165.618l-.06-.044h0l.06.044zm.178.244l-.045.06h0l.045-.06zm.281-.113l-.06-.044h0l.06.044zm1.013-.582l.028.069h0l-.028-.069zm.023-.009l.028.069h0l-.028-.069zm.323-.231l.055.051h0l-.055-.051zm.093-.097l.053.053h0l-.053-.053zm.102-.105l-.054-.052.107.105-.054-.052zm.085-.085l-.052-.054h0l.052.054zm.062-.067l-.055-.051-.001.001.056.05zm0 0l.055.052.006-.008-.061-.044zm0 0l-.056-.05-.005.006.061.044zm.483-.247l.006-.075-.006.075zm.747 1.493l-.033.067h0l.033-.067zm-.116.239l.033-.067h0l-.033.067zm-.54.048l-.033-.067h-.001l.034.067zm0 0l.033.067h0l-.034-.067zm-.083.039l-.028-.069h0l.028.069zm-.11.047l-.03-.069.06.137-.03-.069zm-.134.059l.03.069h0l-.03-.069zm-.123.055l-.031-.068-.002.001.034.067zm0 0l.031.068.002-.001-.034-.067zm-.386.093v.075h0v-.075zm-.025 0v.075h0v-.075zm-1.157.16l-.039-.064.039.064zm-.303-.001l.064-.039-.064.039zm-.073-.293l.039.064-.039-.064zm1.312-.137l.002-.075h0l-.002.075zm0 0l-.002.075h0l.002-.075zm.522-.063l.033.068-.033-.068zm.13-.06l-.03-.069h0l.03.069zm.133-.058l-.03-.069.06.137-.03-.069zm.117-.05l-.028-.069h0l.028.069zm.066-.027l-.028-.07-.001.001.029.069zm0 0l.028.07.001-.001-.029-.069zm.766 1.876l.057-.049-.057.049zm-.73-.254v-.075h0v.075zm0 0v.075h0v-.075zm-.071-.001l.001-.075h0l-.001.075zm-.127 0l-.001-.075h0l.001.075zm0 0v.075h.001l-.001-.075zm0 0v-.075h-.001l.001.075zm-.145.002v.075-.075zm-.143.005l-.004-.075h0l.004.075zm-.28-.047l.029-.069-.029.069zm-.225-.099l-.032.068h.001l.031-.068zm0 0l.032-.068h-.001l-.031.068zm-1.261-.387l.011.074-.011-.074zm-.047.298l-.074.01h0l.074-.01zm.279.119l-.011-.074h0l.011.074zm1.127.305l-.029.069h0l.029-.069zm.023.01l-.029.069h0l.029-.069zm.392.065v-.075h-.002l.002.075zm0 0v.075h.002l-.002-.075zm.134-.003v.075h0v-.075zm.146-.002l-.001-.075.002.15-.001-.075zm.12 0l-.001.075h0l.001-.075zm.091-.003l.004.075-.004-.075zm.516.167l.057-.049-.057.049zm-.539 1.579l.071-.024-.071.024zm-.251.087l.071-.024-.071.024zm-.416-.348l-.024.071.024-.071zm-.086-.031l.029-.069-.029.069zm-.111-.045l.027-.07-.055.14.027-.07zm-.136-.053l-.028.07.028-.07zm-.126-.048l.026-.07h0l-.026.07zm0 0l-.026.07h0l.026-.071zm-.339-.207l-.053.053h0l.053-.053zm-.017-.017l-.053.053h0l.053-.053zm-.931-.705l-.017.073.017-.073zm-.059-.474l.017-.073-.017.073zm1.024.831l-.054.052.001.001.053-.053zm0 0l.054-.052-.001-.001-.053.053zm0 0l-.054.052h0l.054-.052zm0 0l.054-.052h0l-.054.052zm.413.324l-.024.071.024-.071zm.134.049l.028-.07h0l-.028.07zm.135.053l.027-.07-.055.139.028-.07zm.118.048l-.029.069h0l.029-.069zm.066.027l.028-.069h0l-.028.069zm-.797 1.868l-.075-.006.075.006zm-.143.123l-.005.075h0l.005-.075zm-.193-.818l.053-.053h0l-.053.053zm-.05-.051l.054-.052h0l-.054.052zm-.09-.09l.052-.054-.105.107.052-.054zm-.104-.101l.053-.053h0l-.053.053zm-.104-.098l-.053.053.003.003.05-.056zm0 0l.053-.053-.003-.003-.05.056zm-.165-.231l.07-.028h0l-.07.028zm-.089-.229l.07-.027-.07.027zm-.618-1.165l.044-.06h0l-.044.06zm-.131.459l-.044.06.044-.06zm.582 1.013l-.07.028h0l.07-.028zm.009.023l-.07.028h0l.07-.028zm.231.323l-.051.055h0l.051-.055zm.097.093l-.053.053h0l.053-.053zm.105.102l.052-.054-.105.107.052-.054zm.084.085l.054-.052-.054.052zm.067.062l-.05.056.003.003.047-.059zm0 0l.05-.056-.003-.003-.047.059zm.247.483l-.075-.006.075.006zm-1.687.8l.033-.067-.033.067zm.178-.06l-.067-.033h0l.067.033zm-.239-.116l.067.033h0l-.067-.033zm-.048-.54l.067-.033h0l-.067.034zm0 0l-.067.033h0l.067-.034zm-.039-.083l.07-.028h0l-.07.028zm-.047-.11l.069-.03-.137.06.069-.03zm-.059-.134l-.069.03h0l.069-.03zm-.055-.123l.068-.031-.068.031zm-.093-.386h-.075 0 .075zm0-.025h-.075 0 .075zm-.16-1.157l.064-.039-.064.039zm.001-.303l.039.064h0l-.039-.064zm.293-.073l-.064.039.064-.039zm.137 1.312l.075.002h0l-.075-.002zm0 0l-.075-.002h0l.075.002zm.063.522l-.067.033.067-.033zm.06.13l-.069.03.069-.03zm.058.133l.069-.03-.137.06.069-.03zm.05.117l.069-.028-.069.028zm.027.066l.07-.028v-.001l-.069.029zm0 0l-.07.028v.001l.069-.029zm-1.893.766l-.049-.057.049.057zm.254-.73h.075 0-.075zm0 0h-.075 0 .075zm.001-.071l.075.001h0l-.075-.001zm0-.127l.075-.001h0l-.075.001zm0 0l.075-.001h0l-.075.001zm-.002-.145h.075-.075zm-.005-.143l.075-.004h0l-.075.005zm0 0l-.075.004v.001l.075-.005zm.046-.28l.069.029-.069-.029zm.099-.225l.069.031.001-.003-.07-.028zm0 0l-.068-.031-.001.003.07.028zm.387-1.261l.074-.011h0l-.074.011zm-.298-.047l-.01-.074h0l.01.074zm-.119.279l-.074.011.074-.011zm-.305 1.127l-.069-.029h0l.069.029zm-.01.023l-.069-.029h0l.069.029zm-.065.392l-.075.002.075-.002zm.003.135h.075 0-.075zm.002.146l.075-.001-.15.002.075-.001zm0 .12l-.075-.001h0l.075.001zm.003.091l.075-.004-.075.004zm-.167.516l-.049-.057.049.057zm-1.764-.616l-.071.025.071-.025zm.169.084l.024.071h0l-.024-.071zm-.087-.251l.024.071h0l-.024-.071zm.348-.416l.071.024h0l-.071-.024zm.031-.086l.069.029h0l-.069-.029zm.045-.111l.07.027-.14-.055.07.027zm.053-.136l.07.028h0l-.07-.028zm.048-.126l-.069-.029-.001.003.07.026zm0 0l.069.029.001-.003-.07-.026zm.207-.339l-.053-.053h0l.053.053zm.017-.017l-.047-.059-.006.006.053.053zm0 0l.047.059.006-.006-.053-.053zm.705-.931l-.073-.017h0l.073.017zm.474-.059l-.073-.017h0l.073.017zm-.831 1.025l.05.056.002-.002-.052-.054zm0 0l-.05-.056-.002.002.052.054zm0 0l.052.054h0l-.052-.054zm0 0l-.052-.054h0l.052.054zm0 0l-.052-.054h0l.052.054zm0 0l.052.054h0l-.052-.054zm-.176.171l.053.053h0l-.053-.053zm-.148.242l.07.026.001-.002-.071-.024zm0 0l-.07-.026-.001.002.071.024zm-.049.134l-.07-.028h0l.07.028zm-.053.135l.07.027-.139-.055.07.028zm-.048.118l-.069-.029.069.029zm-.027.066l.069.028h0l-.069-.028zm-1.865-.763l-.004.075h0l.004-.075zm-.125-.141l-.075-.004.075.004zm.815-.207l-.054-.052.054.052zm.05-.051l.053.053h0l-.053-.053zm.089-.091l.054.051-.109-.104.054.052zm.099-.105l-.054-.052h0l.054.052zm.096-.106l-.056-.049h0l.056.049zm.228-.169l-.029-.069h0l.029.069zm.227-.093l-.028-.07h0l.028.07zm0 0l-.027-.07h-.001l.028.07zm0 0l.027.07h.001l-.028-.07zm1.154-.639l.061.043h0l-.061-.043zm-.182-.241l-.044.061h0l.044-.061zm-.279.118l.061.043-.061-.043zm-1.002.599l-.029-.069h0l.029.069zm-.023.01l-.029-.069h0l.029.069zm-.319.236l-.056-.051h0l.056.051zm-.092.099l.054.052h0l-.054-.052zm-.1.107l.055.051-.109-.103.055.052zm-.083.086l-.053-.053h0l.053.053zm-.061.068l.057.049-.057-.049zm-.478.255l-.005.075h0l.005-.075zm-.818-1.693l.067.033h0l-.067-.033zm.06.178l.033-.067h0l-.033.067zm.116-.239l.033-.067h0l-.033.067zm.54-.048l-.031-.069-.002.001.033.067zm0 0l.031.068.002-.001-.033-.067zm.083-.039l.028.07h0l-.028-.07zm.11-.047l.03.069-.06-.137.03.069zm.134-.059l-.03-.069.03.069zm.123-.055l.031.068h0l-.031-.068zm0 0l.031.068h0l-.032-.068zm0 0l.032.068.002-.001-.034-.067zm0 0l-.031-.068-.002.001.034.067zm.386-.093v-.075h0v.075zm.025 0v-.075h0v.075zm1.157-.16l-.039-.064h0l.039.064zm.303.001l.064-.039h0l-.064.039zm.073.293l-.039-.064h0l.039.064zm-1.312.137l-.002.075h.001l.002-.075zm0 0l.002-.075h0l-.002.075zm-.522.063l.033.067-.033-.067zm-.13.06l-.03-.069h0l.03.069zm-.132.058l.03.069-.06-.137.03.069zm-.117.05l.028.07h0l-.028-.07zm-.066.027l.028.069h.001l-.029-.069zm0 0l-.028-.069h-.001l.029.069zm-.766-1.876l.057-.049h0l-.057.049zm.014-.188l.049.056h0l-.049-.056zm.715.442v.075h0v-.075zm0 0v-.075h0v.075zm.071.001l-.001.075h0l.001-.075zm.127 0l.001.075h0l-.001-.075zm0 0l.001.075h0l-.001-.075zm0 0l.001.075h0l-.001-.075zm.144-.002v-.075h0v.075zm.143-.005v-.075h-.004l.004.075zm0 0v.075h.005l-.005-.075zm0 0l-.004-.075h-.001l.005.075zm.28.046l-.029.069.029-.069zm.225.099l-.031.068h0l.031-.068zm1.261.387l.011.074h0l-.011-.074zm-.232-.417l-.011-.074.011.074zm-1.127-.305l.029-.069h0l-.029.069zm-.023-.01l.029-.069h0l-.029.069zm-.392-.065l-.002-.075.002.075zm-.135.003v.075h0v-.075zm-.146.002l.001.075-.002-.15.001.075zm-.119 0l.001-.075h0l-.001.075zm-.091.003v.075h.004l-.004-.075zm0 0v-.075h-.004l.004.075zm-.516-.167l.057-.049h0l-.057.049zm.623-1.748l-.025-.071h0l.025.071zm-.084.169l.071-.024h0l-.071.024zm.251-.087l.071-.024-.071.024zm.416.348l-.024.071h0l.024-.071zm.086.031l-.029.069h0l.029-.069zm.247.098l-.028.07h0l.028-.07zm.126.048l.028-.07-.002-.001-.026.07zm0 0l-.028.07.002.001.026-.07zm.339.207l.053-.053h0l-.053.053zm.017.017l.053-.053h0l-.053.053zm.931.705l.017-.073-.017.073zm.214.215l-.073-.018h0l.073.018zm-.155.259l-.017.073h0l.017-.073zm-1.024-.831l-.055.051.001.001.054-.052zm0 0l.055-.051-.001-.001-.054.052zm-.171-.176l.053-.053h0l-.053.053zm-.242-.148l.024-.071h-.001l-.024.071zm0 0l-.024.071h.001l.024-.071zm-.134-.049l.028-.07h0l-.028.07zm-.135-.052l-.027.07.055-.14-.027.07zm-.118-.048l-.029.069h0l.029-.069zm-.066-.027l-.028.069h0l.028-.069zm.797-1.868l-.075-.006h0l.075.006zm.143-.123l-.005.075.005-.075zm.193.818l-.053.053h0l.053-.053zm.05.051l.054-.052h0l-.054.052zm.09.09l-.052.054.105-.107-.053.054zm.104.101l-.053.053h0l.053-.053zm.104.098l-.05.056h0l.05-.056zm.165.231l-.069.028h0l.069-.028zm.089.229l-.07.027h0l.07-.027zm.618 1.165l-.044.06.044-.06zm.244-.178l.06.045h0l-.06-.045zm-.113-.281l-.044.06.044-.06zm-.582-1.013l-.07.028h0l.07-.028zm-.009-.023l.069-.028h0l-.069.028zm-.231-.323l-.052.055h0l.052-.055zm-.097-.093l-.053.053h0l.053-.053zm-.105-.102l-.052.054.105-.107-.052.054zm-.085-.085l-.054.052h0l.054-.052zm-.067-.062l.05-.056h0l-.05.056zm-.247-.483l-.075-.006h0l.075.006zm1.576-.707c.014-.028.049-.04.079-.026l.065-.135a.21.21 0 0 0-.278.094l.134.067zm.053.708c-.09-.215-.184-.446-.053-.708l-.134-.067c-.164.331-.039.623.049.833l.138-.058zm0 0h0l-.139.057h0l.139-.057zm.027.066l-.028-.067-.138.058.027.065.139-.056zm.049.115l-.049-.115-.139.056.05.119.137-.06zm.058.133l-.034-.078-.017-.039c-.007-.017-.106-.055-.145.044l.137-.06c-.039.099-.137.06-.137.06l.024.055.034.076.138-.059zm.059.127l-.059-.127-.138.059.061.133.135-.066zm.074.309c0-.073-.005-.125-.018-.174s-.033-.088-.056-.135l-.135.066c.024.049.037.077.046.109s.013.068.013.134h.15zm-.004.247l.004-.247h-.15l-.004.244.15.003zm0 .001h0l-.15-.004h0l.15.004zm.126 1.271c-.033-.054-.06-.131-.08-.228a2.38 2.38 0 0 1-.04-.326c-.015-.237-.01-.498-.005-.718l-.15-.003.006.73c.008.123.021.241.043.347a.87.87 0 0 0 .099.276l.128-.079zm.19-.098a.88.88 0 0 1-.142.068c-.028.01-.049.014-.062.015s.001-.005.014.015l-.128.079c.032.051.088.057.12.056s.073-.012.106-.024c.067-.024.135-.06.169-.081l-.077-.129zm-.024-.199c.003.005.01.021.016.046a.45.45 0 0 1 .011.079.26.26 0 0 1-.004.067l.079.136c.042-.025.059-.07.066-.102s.01-.073.008-.109a.59.59 0 0 0-.014-.106c-.007-.031-.018-.065-.034-.091l-.128.079zm-.171-1.196l.02.626c.02.212.061.425.151.57l.128-.079c-.07-.114-.109-.296-.129-.506s-.02-.428-.02-.612h-.15zm0-.025v.025h.15V8.68h-.15zm-.086-.355l.066.165a.7.7 0 0 1 .02.19h.15c0-.096-.007-.164-.025-.229s-.043-.12-.075-.188l-.136.063zm-.056-.124l.056.124.136-.063-.054-.121-.138.059zm.079-.194c-.032.096-.134.067-.137.061l.024.054.034.078.138-.059-.035-.079-.017-.039c-.011-.023-.112-.052-.145.043l.138-.059zm-.185-.052l.047.112.137-.06-.046-.108-.139.056zm-.036-.078l.036.078.139-.056-.041-.088-.135.066zm-.048-.607c-.127.256-.019.471.048.607l.135-.066c-.068-.139-.139-.29-.048-.474l-.134-.067zm-.026-.075c.029.014.04.048.026.075l.134.067c.051-.103.008-.227-.096-.277l-.065.135zm1.848.054c.024-.02.061-.018.083.007l.113-.099a.21.21 0 0 0-.293-.022l.098.114zm-.228.673c.001-.234.005-.482.228-.673l-.098-.114c-.281.24-.279.558-.28.786h.15zm0 0h0-.15 0 .15zm0 0h0-.15 0 .15zm0 0h0-.15 0 .15zm0 0h0-.15 0 .15zm0 0h0-.15 0 .15zm0 0h0-.15 0 .15zm0 0h0-.15 0 .15zm0 0h0-.15 0 .15zm0 0h0-.15 0 .15zm0 0h0-.15 0 .15zm0 0h0-.15 0 .15zm0 0h0-.15 0 .15zm0 0h0-.15 0 .15zm0 0h0-.15 0 .15zm-.001.072v-.072l-.15-.001v.07l.15.003zm0 .125v-.125l-.15-.003v.129l.15-.002zm0 0h0l-.15.002h0l.15-.002zm0 0h0l-.15.002h0l.15-.002zm.002.145l-.002-.145-.15.002.002.144h.15zm.005.139l-.005-.139h-.15l.005.146.15-.008zm-.052.313c.029-.067.044-.117.051-.167s.004-.094.001-.146l-.15.008a.63.63 0 0 1 0 .118.5.5 0 0 1-.04.129l.138.059zm-.1.226l.1-.226-.138-.059-.099.223.137.061zm0 0h0l-.137-.061h0l.137.061zm-.381 1.219c-.009-.062-.004-.144.015-.241a2.38 2.38 0 0 1 .09-.316c.079-.224.186-.462.276-.663l-.137-.061-.28.675c-.041.116-.075.23-.096.336a.87.87 0 0 0-.016.293l.148-.023zm.213-.016a.88.88 0 0 1-.157.007c-.029-.002-.051-.006-.063-.011s.003-.004.007.02l-.148.023c.009.06.059.087.089.098a.38.38 0 0 0 .107.02c.071.004.148-.003.187-.008l-.021-.149zm.056-.193c.001.006.001.023-.003.048s-.012.051-.021.077-.02.047-.03.06l.02.156c.049-.007.082-.042.101-.068s.038-.063.05-.097a.6.6 0 0 0 .028-.103c.006-.032.009-.067.004-.097l-.148.023zm.31-1.168l-.226.584c-.064.203-.11.415-.084.584l.148-.023c-.02-.132.015-.315.079-.516s.149-.401.221-.571l-.138-.059zm-.001.001h0l.139.056h0l-.139-.056zm0-.001h0l.139.057h0l-.139-.057zm.01-.023l-.01.023.138.059.01-.023-.138-.059zm.059-.36l-.003.178a.7.7 0 0 1-.056.182l.138.059c.037-.088.057-.154.066-.221s.007-.127.005-.202l-.15.004zm0-.002h0 .15 0-.15zm0 0h0 .15 0-.15zm-.003-.134l.003.136.15-.004-.003-.133h-.15zm.148-.148c-.068.076-.15.009-.15.003l.001.059.001.085h.15l-.001-.087-.001-.043c-.001-.025-.082-.091-.15-.017l.15-.001zm-.15-.12v.122l.15-.002v-.117l-.15-.003zm-.003-.086l.003.086.15.003c.001-.031-.001-.064-.003-.097l-.15.008zm.193-.577c-.217.186-.201.426-.193.577l.15-.008c-.009-.155-.015-.322.141-.455l-.098-.114zm.005-.08c.021.024.018.06-.005.08l.098.114c.088-.075.096-.206.02-.292l-.113.099zm1.878.728a.21.21 0 0 0-.263-.13l.048.142c.03-.01.063.006.074.037l.142-.049zm-.128.263c.109-.037.166-.155.128-.263l-.142.049c.011.031-.005.062-.034.072l.048.142zm-.301.369c.05-.147.106-.304.301-.369l-.048-.142c-.271.091-.346.32-.395.463l.142.048zm-.033.091c.012-.028.023-.06.033-.091l-.142-.048-.029.081.138.059zm-.044.109l.044-.109-.138-.059-.046.113.14.055zm-.053.137l.031-.081.015-.04c.009-.024-.042-.116-.133-.072l.139.055c-.091.045-.142-.047-.14-.053l-.021.055-.031.079.139.055zm-.047.124l.047-.124-.139-.055-.048.127.141.052zm0 0h0l-.141-.052h0l.141.052zm0 0h0l-.141-.051h0l.141.051zm-.001.001h0l-.14-.054h0l.14.054zm.001-.003h0l-.142-.048h0l.142.048zm0 0h0l-.142-.049h0l.142.049zm-.001.002h0l-.14-.053h0l.14.053zm.001-.001h0l-.141-.05h0l.141.05zm0 .001h0l-.141-.052h0l.141.052zm-.225.366c.068-.068.111-.122.144-.18s.054-.115.08-.186l-.141-.052-.07.164c-.025.043-.058.086-.12.148l.106.106zm-.017.017l.017-.017-.106-.106-.017.017.106.106zm-.685.895c.031-.13.132-.287.266-.449a6.59 6.59 0 0 1 .419-.446l-.106-.106-.428.457c-.136.164-.257.344-.297.51l.146.034zm-.306.269c.048.012.091-.008.119-.025s.058-.045.083-.071a.59.59 0 0 0 .065-.085c.017-.027.033-.059.04-.088l-.146-.034c-.002.006-.008.021-.021.043a.44.44 0 0 1-.048.063c-.019.02-.036.036-.051.044l-.04.152zm-.314-.245c-.014.059.022.102.046.124a.38.38 0 0 0 .091.058c.064.03.138.053.177.063l.036-.146c-.033-.008-.096-.028-.148-.052-.026-.013-.045-.024-.055-.033s.004-.002-.001.021l-.146-.035zm.852-1.061l-.513.52c-.081.092-.155.185-.215.276s-.105.18-.125.265l.146.035c.014-.061.05-.135.104-.218s.123-.17.202-.259c.157-.179.345-.359.504-.511l-.104-.108zm.175-.17l-.175.17.104.108.178-.172-.106-.106zm.13-.214c-.018.052-.028.081-.044.109s-.039.058-.086.104l.106.106c.051-.052.085-.092.11-.136s.039-.086.056-.135l-.142-.049zm.05-.137l-.05.137.142.049.048-.131-.139-.055zm.192-.08c-.097.043-.14-.054-.14-.054l-.022.056-.03.078.139.055.031-.079.015-.04c.007-.017-.036-.114-.133-.071l.14.055zm-.091-.175l-.049.12.14.055.047-.116-.138-.059zm.027-.065l-.027.065.138.059.028-.066-.139-.057zm0-.001h0l.138.058h0l-.138-.058zm0 0h0l.138.058h0l-.138-.058zm-.001.003h0l.141.051h0l-.141-.051zm.555-.627c-.35.118-.468.413-.554.624l.139.057c.088-.216.185-.445.463-.539l-.048-.142zm1.39 1.512c.031.002.056.03.054.063l.15.01a.21.21 0 0 0-.192-.223l-.012.15zm-.637.315c.166-.164.345-.337.637-.315l.012-.15c-.368-.029-.592.197-.754.358l.106.107zm0 0h0l-.106-.106h0l.106.106zm0 0h0l-.107-.106h0l.107.106zm-.001.001h0l-.106-.107h0l.106.107zm-.051.05l.051-.05-.106-.107-.05.049.104.108zm-.088.088l.088-.088-.104-.108-.091.091.107.105zm-.101.104l.059-.061.03-.03c.013-.013.011-.119-.095-.118l.107.105c-.106.001-.107-.105-.107-.105l-.042.043-.058.06.107.105zm-.095.102l.095-.102-.107-.105-.1.107.111.1zm-.259.184c.068-.027.114-.052.154-.082s.069-.064.104-.102l-.111-.1c-.037.041-.058.063-.084.083a.5.5 0 0 1-.12.063l.056.139zm-.231.089l.231-.089-.056-.139-.228.088.053.14zm-1.131.593c.037-.051.099-.104.181-.159a2.4 2.4 0 0 1 .287-.159c.214-.103.458-.196.663-.274l-.053-.14-.675.279c-.111.053-.216.11-.305.17a.87.87 0 0 0-.219.195l.121.089zm.162.139c-.027-.02-.078-.063-.116-.106-.019-.022-.032-.04-.037-.052s.005-.001-.009.019l-.121-.089c-.036.048-.02.103-.007.132s.038.063.061.089a1.03 1.03 0 0 0 .138.127l.09-.12zm.176-.097c-.004.005-.015.017-.037.032s-.044.028-.069.039-.047.019-.064.021l-.097.125c.039.03.087.028.119.024a.4.4 0 0 0 .104-.033.59.59 0 0 0 .093-.053c.026-.018.053-.041.071-.066l-.121-.089zm1.045-.607l-.573.253c-.189.098-.371.216-.472.354l.121.089c.079-.108.234-.212.421-.309s.389-.178.56-.247l-.056-.139zm.023-.009l-.023.009.056.139.023-.009-.056-.139zm.297-.213l-.128.123c-.039.03-.087.057-.169.089l.056.139a.84.84 0 0 0 .203-.109c.052-.04.095-.085.147-.14l-.109-.103zm.094-.098l-.094.098.109.103.092-.096-.107-.106zm.209 0c-.101.006-.113-.099-.108-.104l-.041.043-.06.061.107.106.06-.062.03-.031c.017-.018.006-.123-.094-.118l.107.106zm-.021-.191l-.086.086.107.105.083-.083-.104-.108zm.059-.063l-.059.063.104.108c.022-.021.044-.046.066-.071l-.112-.1zm.001-.001h0l.109.103h0l-.109-.103zm-.006.007h0l.121.088h0l-.121-.088zm.549-.278c-.285-.022-.444.159-.545.272l.112.1c.103-.115.217-.238.421-.222l.012-.15zm.06-.053c-.002.032-.029.055-.06.053l-.012.15c.115.009.213-.078.221-.192l-.15-.01zm.809 1.831a.21.21 0 0 0-.094-.278l-.067.134c.028.014.04.049.026.079l.135.065zm-.277.095c.103.051.227.008.277-.095l-.135-.065c-.014.029-.048.04-.075.027l-.067.134zm-.474.048c.139-.068.29-.14.474-.048l.067-.134c-.256-.127-.471-.019-.607.048l.066.135zm0 0h0l-.067-.134h0l.067.134zm-.088.041l.088-.041-.066-.135-.078.036.056.139zm-.108.046l.108-.046-.056-.139-.112.047.06.137zm-.134.059l.079-.035.039-.017c.024-.011.051-.113-.043-.145l.059.138c-.095-.032-.068-.133-.061-.137l-.054.024-.078.034.059.138zm-.121.054l.121-.054-.059-.138-.124.056.063.136zm.002-.001h0l-.067-.134h0l.067.134zm-.419.101c.096 0 .164-.008.229-.025s.12-.043.188-.075l-.063-.136-.165.066a.7.7 0 0 1-.19.02v.15zm-.025 0h.025v-.15h-.025v.15zm-1.117.149c.114-.07.296-.109.506-.129s.427-.02.611-.02v-.15c-.183 0-.411 0-.626.02s-.425.061-.57.151l.079.128zm-.407-.026c.025.042.07.059.101.066s.073.01.109.008.073-.007.106-.014.065-.018.091-.034l-.079-.128a.18.18 0 0 1-.046.016.44.44 0 0 1-.079.011c-.028.001-.051 0-.067-.004l-.136.08zm-.049-.395c-.051.032-.057.088-.056.12s.012.073.023.106c.024.067.06.135.081.169l.128-.077c-.017-.029-.049-.088-.068-.142-.01-.028-.014-.049-.015-.062s.005.002-.015.014l-.079-.128zm1.353-.148c-.219-.005-.486-.01-.73.005-.123.008-.241.021-.347.043s-.201.053-.276.099l.079.128c.054-.033.131-.06.228-.08s.207-.033.326-.04a8.73 8.73 0 0 1 .718-.005l.003-.15zm0 0h0l-.004.15h0l.004-.15zm.244.004c-.07 0-.153-.002-.244-.004l-.003.15.247.004v-.15zm.243-.059a.63.63 0 0 1-.109.046c-.031.008-.068.013-.134.013v.15c.073 0 .125-.005.174-.018s.088-.033.135-.056l-.066-.135zm.133-.062l-.133.062.066.135.127-.059-.059-.138zm.192.079c-.099-.038-.061-.137-.061-.137l-.055.024-.076.034.059.138.078-.034.039-.017c.017-.007.055-.106-.044-.145l.06.137zm.059-.188l-.119.05.06.137.115-.049-.056-.139zm.065-.027l-.065.027.056.139.067-.027-.058-.138zm.001-.001h0l.056.139h0l-.056-.139zm.832-.049c-.331-.164-.623-.039-.833.049l.058.138c.215-.09.446-.184.708-.053l.067-.134zm-.095 2.043c.02.024.018.061-.007.083l.099.113a.21.21 0 0 0 .022-.293l-.114.098zm-.673-.228c.233.001.482.005.673.228l.114-.098c-.24-.281-.558-.279-.786-.28l-.001.15zm0 0h0v-.15h0v.15zm0 0h0v-.15h0v.15zm0 0h0v-.15h0v.15zm0 0h0v-.15h0v.15zm-.072-.001l.072.001.001-.15-.07-.001-.003.15zm-.125 0h.125l.003-.15h-.129l.002.15zm0 0h0l-.002-.15h0l.002.15zm-.001 0h0v-.15h0v.15zm-.144.002l.145-.002-.002-.15-.144.002.001.15zm-.139.005l.139-.005-.001-.15-.146.005.008.15zm-.313-.052a.64.64 0 0 0 .167.051c.049.007.094.004.146.002l-.008-.15a.63.63 0 0 1-.118 0 .5.5 0 0 1-.129-.04l-.059.138zm-.226-.1l.226.1.059-.138-.223-.099-.061.137zm-.001 0h0l.063-.136h0l-.063.136zm-1.218-.381c.062-.009.144-.004.241.015a2.38 2.38 0 0 1 .316.09c.224.079.462.185.663.275l.061-.137-.675-.28a2.53 2.53 0 0 0-.336-.096.87.87 0 0 0-.293-.016l.023.148zm.016.213a.87.87 0 0 1-.007-.157c.002-.029.006-.051.01-.063s.004.003-.02.007l-.023-.148c-.059.009-.087.059-.098.089s-.018.072-.02.107a1.02 1.02 0 0 0 .008.187l.149-.021zm.193.056c-.006.001-.023.001-.048-.003a.44.44 0 0 1-.077-.021c-.026-.01-.047-.02-.06-.03l-.157.02c.007.049.042.082.068.101s.063.038.097.05a.59.59 0 0 0 .103.028c.032.006.067.009.097.004l-.023-.148zm1.168.31l-.584-.226c-.203-.064-.415-.11-.584-.084l.023.148c.132-.02.316.015.516.079s.401.149.57.221l.059-.138zm.023.01l-.023-.01-.059.138.023.01.059-.138zm.36.059a1.07 1.07 0 0 1-.178-.004.7.7 0 0 1-.182-.056l-.059.138c.088.037.154.057.221.066s.127.007.202.005l-.004-.15zm.002 0h0v.15h0v-.15zm0 0h0v.15h0v-.15zm0 0h0v.15h0v-.15zm.134-.003l-.136.003.004.15.133-.003-.001-.15zm.148.148c-.076-.068-.009-.15-.003-.15l-.059.001-.085.001.001.15.087-.001h.043c.025-.001.091-.082.017-.15l.001.15zm.12-.15h-.122l.002.15h.117l.003-.15zm.086-.003l-.086.003-.003.15c.031.001.064-.001.097-.003l-.008-.15zm.577.193c-.186-.217-.426-.201-.577-.193l.008.15c.155-.009.322-.015.455.141l.114-.098zm.08.005c-.024.021-.06.018-.08-.005l-.114.098c.075.088.206.096.292.02l-.099-.113zm-.735 1.862a.21.21 0 0 0 .13-.263l-.142.048c.01.03-.006.063-.037.074l.049.142zm-.263-.128c.037.109.155.166.263.128l-.049-.142c-.03.011-.062-.005-.072-.034l-.142.048zm-.369-.301c.147.05.304.106.369.301l.142-.048c-.091-.271-.32-.346-.463-.395l-.048.142zm-.091-.033c.028.012.06.023.091.033l.048-.142-.081-.029-.059.138zm-.109-.044l.109.044.059-.138-.113-.046-.055.14zm-.137-.053l.081.031.04.015c.024.009.116-.042.072-.133l-.055.139c-.045-.091.047-.142.053-.14l-.056-.022-.079-.031-.055.139zm-.124-.047l.124.047.055-.139-.127-.049-.052.141zm0 0h0l.051-.141h0l-.051.141zm-.366-.225c.068.068.122.111.18.144s.115.054.186.08l.052-.141-.163-.07a.7.7 0 0 1-.148-.12l-.106.106zm-.017-.017l.017.017.106-.106-.017-.017-.106.106zm-.895-.685c.13.031.287.132.449.266s.316.289.446.419l.106-.106-.457-.428c-.164-.136-.344-.257-.51-.297l-.035.146zm-.269-.306c-.012.048.008.091.025.119a.4.4 0 0 0 .071.083c.027.024.057.047.085.065s.059.033.088.04l.035-.146c-.006-.001-.021-.008-.044-.021a.45.45 0 0 1-.063-.048c-.02-.019-.036-.036-.044-.051l-.153-.04zm.245-.314c-.059-.014-.102.022-.124.046a.38.38 0 0 0-.058.091c-.03.064-.053.138-.063.177l.146.036c.008-.033.028-.096.052-.148.013-.026.024-.045.033-.055s.002.004-.021-.001l.034-.146zm1.061.852l-.521-.513a2.52 2.52 0 0 0-.276-.215c-.089-.059-.18-.105-.265-.125l-.034.146c.061.014.135.05.218.104s.17.123.259.202c.179.157.359.345.511.504l.108-.104zm-.001-.001h0l-.106.106h0l.106-.106zm.001.001h0l-.109.103h0l.109-.103zm0 0h0l-.108.104h0l.108-.104zm.17.175l-.17-.175-.108.104.172.177.106-.106zm.214.13a.62.62 0 0 1-.109-.044c-.028-.016-.058-.039-.104-.086l-.106.106a.64.64 0 0 0 .136.11c.043.024.086.039.135.056l.049-.142zm.137.051l-.137-.051-.049.142.131.048.055-.139zm.079.192c-.042-.097.055-.14.055-.14l-.056-.022-.078-.03-.055.139.079.031.04.015c.017.007.114-.036.072-.133l-.056.139zm.175-.091l-.12-.049-.055.14.116.047.059-.138zm.065.027l-.065-.027-.059.138.067.028.057-.139zm.624.554c-.117-.35-.413-.468-.624-.554l-.057.139c.216.088.445.185.538.463l.142-.048zm-1.524 1.377c-.002.031-.03.056-.063.054l-.01.15a.21.21 0 0 0 .223-.192l-.149-.012zm-.315-.637c.164.166.337.345.315.637l.149.012c.029-.368-.197-.592-.358-.754l-.107.106zm-.05-.051l.05.051.107-.106-.049-.05-.108.104zm-.088-.088l.088.088.108-.104-.091-.092-.105.107zm-.104-.101l.061.059.03.03c.013.013.119.011.118-.095l-.105.107c-.001-.106.105-.107.105-.107l-.043-.042-.06-.058-.105.107zm-.102-.095l.102.095.105-.107-.107-.1-.101.111zm-.003-.003h0l.106-.106h0l-.106.106zm-.182-.256a.64.64 0 0 0 .082.154c.03.039.064.069.102.104l.101-.111c-.041-.037-.063-.058-.083-.084s-.038-.058-.063-.12l-.139.056zm-.089-.231l.089.231.139-.056-.088-.228-.14.053zm-.593-1.132c.051.037.104.099.159.181s.108.18.159.287c.103.214.196.458.274.664l.14-.053-.279-.675c-.053-.111-.11-.216-.17-.305s-.124-.167-.195-.219l-.089.121zm-.139.162c.02-.027.063-.078.106-.116.022-.019.04-.032.052-.037s0 .005-.019-.009l.089-.121c-.049-.036-.103-.02-.132-.007a.38.38 0 0 0-.089.061c-.053.047-.103.106-.127.138l.12.09zm.097.176c-.005-.004-.017-.015-.032-.037s-.028-.044-.039-.069-.019-.047-.021-.064l-.125-.097c-.03.039-.028.087-.023.119s.018.071.033.104.034.065.053.093.041.053.066.071l.089-.121zm.607 1.045l-.253-.573c-.098-.189-.216-.371-.354-.472l-.089.121c.108.079.212.234.309.421s.178.389.247.56l.139-.056zm.009.023l-.009-.023-.139.056.009.023.139-.056zm.213.297l-.123-.128a.7.7 0 0 1-.089-.168l-.139.056c.036.089.069.15.109.203s.085.095.14.146l.103-.109zm.098.094l-.098-.094-.103.109.096.092.106-.107zm0 .209c-.006-.101.099-.113.104-.108l-.043-.041-.061-.06-.106.107.062.06.031.03c.019.018.123.006.118-.094l-.106.107zm.191-.021l-.086-.086-.105.107.083.083.108-.104zm.063.059l-.063-.059-.108.104c.021.022.046.045.071.066l.1-.112zm-.003-.003h0l-.094.117h0l.094-.117zm.275.547c.022-.285-.159-.444-.272-.545l-.1.112c.116.103.238.217.222.421l.149.012zm.053.06c-.032-.002-.055-.029-.053-.06l-.149-.012c-.009.115.078.213.192.221l.01-.15zm-1.848.802a.21.21 0 0 0 .278-.094l-.134-.067c-.014.028-.049.04-.079.026l-.065.135zm-.095-.277c-.051.103-.008.227.095.277l.065-.135c-.029-.014-.04-.048-.027-.075l-.134-.067zm-.048-.474c.068.139.14.29.048.474l.134.067c.127-.256.019-.471-.048-.607l-.135.066zm0 0h0l.134-.067h0l-.134.067zm0 0h0l.134-.067h0l-.134.067zm-.041-.088c.011.029.026.059.041.088l.135-.066-.036-.078-.139.056zm-.046-.108l.046.108.139-.056-.047-.112-.137.06zm-.059-.134l.035.079.017.039c.011.023.112.052.145-.043l-.138.059c.032-.096.134-.067.137-.061l-.024-.054-.034-.078-.138.059zm-.054-.121l.054.121.138-.059-.056-.124-.136.063zm-.1-.417c0 .096.008.164.025.229s.043.12.075.188l.136-.062-.066-.165a.7.7 0 0 1-.02-.19h-.15zm0-.025v.024h.15v-.025h-.15zm-.149-1.117c.07.114.109.296.129.506s.02.428.02.611h.15l-.02-.626c-.02-.212-.061-.425-.151-.57l-.128.079zm.026-.407c-.042.025-.059.07-.066.102s-.01.073-.008.109a.59.59 0 0 0 .015.106c.007.031.018.065.034.091l.128-.079a.18.18 0 0 1-.016-.046.44.44 0 0 1-.011-.079.26.26 0 0 1 .004-.067l-.079-.136zm.395-.048c-.032-.051-.088-.057-.12-.056s-.073.012-.106.024a1.03 1.03 0 0 0-.169.081l.077.129a.88.88 0 0 1 .142-.068c.028-.01.049-.014.062-.015s-.001.005-.014-.015l.128-.079zm.148 1.353l-.006-.731c-.008-.122-.021-.241-.043-.347a.87.87 0 0 0-.099-.276l-.128.079c.033.054.06.131.08.228a2.38 2.38 0 0 1 .04.326c.015.237.01.498.005.718l.15.003zm0 .001h0l-.15-.004h0l.15.004zm-.004.244l.004-.244-.15-.003-.004.247h.15zm.059.243a.62.62 0 0 1-.046-.109.5.5 0 0 1-.013-.134h-.15c0 .073.005.125.018.174s.033.088.056.135l.135-.066zm.061.133l-.061-.133-.135.066.059.127.138-.059zm-.079.192c.038-.099.137-.061.137-.061l-.024-.055-.034-.077-.138.059.034.078.017.039c.007.017.106.055.145-.044l-.137.06zm.188.059l-.05-.119-.137.06.049.115.139-.056zm.027.065l-.027-.065-.139.056.028.067.138-.058zm0 .001h0l-.139.056h0l.139-.056zm.049.832c.164-.331.039-.623-.049-.833l-.138.058c.09.215.184.446.053.708l.134.067zm-2.061-.095c-.024.02-.061.018-.082-.007l-.113.099a.21.21 0 0 0 .293.022l-.098-.114zm.228-.673c-.001.233-.005.482-.228.673l.098.114c.281-.24.279-.558.28-.786h-.15zm0 0h0 .15 0-.15zm0 0h0 .15 0-.15zm0 0h0 .15 0-.15zm0 0h0 .15 0-.15zm0 0h0 .15 0-.15zm.001-.072l-.001.072.15.001.001-.07-.15-.003zm0-.125v.125l.15.003v-.129l-.15.002zm0 0h0l.15-.002h0l-.15.002zm-.002-.145l.002.145.15-.002-.002-.144h-.15zm-.005-.139l.005.139h.15l-.005-.146-.15.008zm0 .001h0l.15-.009h0l-.15.009zm.052-.314c-.028.067-.044.117-.051.167s-.004.094-.001.146l.15-.008a.63.63 0 0 1 0-.118c.004-.031.015-.068.04-.129l-.138-.059zm.1-.226l-.1.226.138.059.099-.223-.137-.062zm-.001.003h0l.139.056h0l-.139-.056zm.382-1.222c.01.062.004.144-.015.241s-.051.204-.09.316c-.079.224-.185.462-.276.663l.137.062.28-.675c.041-.116.075-.23.096-.336a.87.87 0 0 0 .016-.293l-.148.023zm-.213.016a.87.87 0 0 1 .157-.007c.029.002.051.006.063.01s-.003.004-.007-.02l.148-.023c-.009-.059-.059-.087-.089-.098s-.072-.018-.107-.02a1.02 1.02 0 0 0-.187.008l.021.149zm-.056.193c-.001-.006-.001-.023.004-.048a.45.45 0 0 1 .021-.077c.01-.026.02-.047.03-.06l-.02-.156c-.049.007-.082.042-.101.068a.4.4 0 0 0-.05.097c-.013.034-.022.07-.028.103s-.009.067-.004.097l.148-.023zm-.31 1.168l.226-.584c.064-.203.11-.415.084-.584l-.148.023c.02.132-.015.316-.079.516s-.149.401-.221.571l.138.059zm-.01.023l.01-.023-.138-.059-.01.023.138.059zm-.059.36l.003-.178c.007-.049.022-.102.056-.182l-.138-.059c-.037.088-.057.154-.066.221s-.007.127-.005.202l.15-.004zm.003.136l-.003-.136-.15.004.003.133h.15zm-.148.148c.068-.076.15-.009.15-.003l-.001-.059-.001-.085h-.15l.001.087.001.043c.001.025.082.091.15.017l-.15.001zm.15.12v-.122l-.15.002v.117l.15.003zm.003.086l-.003-.086-.15-.003.003.097.15-.008zm-.193.577c.217-.186.201-.426.193-.577l-.15.008c.008.155.015.322-.141.455l.098.114zm-.005.079c-.021-.024-.018-.06.005-.079l-.098-.114c-.088.075-.096.206-.02.292l.113-.099zm-1.878-.728a.21.21 0 0 0 .263.13l-.048-.142c-.03.01-.063-.006-.074-.037l-.142.049zm.128-.263c-.109.037-.166.155-.128.263l.142-.049c-.011-.03.005-.062.034-.072l-.048-.142zm.301-.369c-.05.147-.106.304-.301.369l.048.142c.271-.091.346-.32.395-.463l-.142-.048zm.033-.091c-.012.028-.023.06-.033.091l.142.048.03-.081-.138-.059zm.044-.109l-.044.109.138.059.046-.113-.14-.055zm.053-.137l-.032.08-.015.04c-.009.024.043.116.133.072l-.139-.055c.091-.045.142.047.14.053l.021-.055.031-.079-.139-.055zm.047-.124l-.047.124.139.055.048-.127-.141-.052zm.001-.003h0l.139.058h0l-.139-.058zm.223-.363c-.068.068-.111.122-.144.18s-.054.115-.08.186l.141.052.07-.163c.024-.043.058-.086.12-.148l-.106-.106zm.017-.017l-.017.017.106.106.017-.017-.106-.106zm.006-.006h0l.094.117h0l-.094-.117zm.679-.89c-.031.13-.132.287-.266.449a6.62 6.62 0 0 1-.419.446l.106.106.428-.457c.136-.164.257-.344.297-.51l-.146-.034zm.306-.269c-.048-.012-.091.008-.119.025s-.059.045-.083.071a.59.59 0 0 0-.065.085c-.017.027-.033.059-.04.088l.146.034c.002-.006.008-.021.021-.043s.03-.043.048-.063.036-.036.051-.044l.04-.153zm.314.245c.014-.059-.022-.102-.046-.124s-.06-.043-.091-.058c-.064-.03-.138-.053-.177-.063l-.036.146c.033.008.096.028.148.052.027.013.045.024.055.033s-.004.002.001-.021l.146.034zm-.852 1.061l.513-.521c.081-.092.155-.185.215-.276s.105-.18.125-.265l-.146-.034c-.014.061-.05.135-.104.218s-.123.17-.202.259c-.157.179-.345.359-.504.511l.104.108zm-.002.002h0l-.1-.112h0l.1.112zm.002-.002h0l-.103-.109h0l.104.108zm0 0h0l-.103-.109h0l.103.109zm0 0h0l-.104-.108h0l.104.108zm0 0h0l-.104-.108h0l.104.108zm-.175.17l.175-.17-.104-.108-.177.172.106.106zm-.13.214c.018-.052.028-.081.044-.109a.5.5 0 0 1 .086-.104l-.106-.106c-.052.052-.085.092-.11.136s-.039.086-.056.135l.142.049zm-.001.002h0l-.14-.053h0l.14.053zm-.05.135l.05-.137-.142-.049-.048.131.139.055zm-.192.079c.097-.042.14.055.14.055l.022-.056.03-.078-.139-.055-.031.079-.015.04c-.007.017.036.114.133.072l-.139-.056zm.091.175l.049-.12-.14-.055-.047.116.138.059zm-.027.065l.027-.065-.138-.059-.028.067.139.057zm-.554.624c.35-.117.468-.413.554-.624l-.139-.057c-.088.216-.185.445-.463.539l.048.142zm-1.375-1.49c-.031-.002-.056-.029-.055-.062l-.15-.007a.21.21 0 0 0 .196.219l.009-.15zm.631-.326c-.163.167-.339.343-.631.326l-.009.15c.369.022.589-.208.748-.371l-.107-.105zm.05-.051l-.05.051.107.105.049-.05-.106-.106zm.087-.09l-.087.09.106.106.09-.093-.109-.103zm.099-.106l-.058.062-.029.031c-.012.013-.009.119.096.117l-.108-.104c.106-.002.109.103.109.103l.041-.044.057-.061-.109-.104zm.094-.103l-.094.103.109.104.098-.108-.113-.099zm.255-.189a.64.64 0 0 0-.153.085c-.039.03-.068.065-.102.104l.113.099c.036-.041.056-.065.082-.085a.5.5 0 0 1 .119-.065l-.059-.138zm.229-.093l-.229.093.059.138.226-.092-.056-.139zm0 0h0l.055.139h0l-.055-.139zm.001 0h0l.054.14h0l-.054-.14zm1.12-.612c-.036.052-.097.106-.178.163s-.178.111-.284.164c-.213.107-.454.204-.659.285l.056.139.67-.291a2.53 2.53 0 0 0 .302-.175c.088-.061.164-.127.215-.199l-.122-.087zm-.165-.137a.88.88 0 0 1 .118.104c.02.022.032.039.038.051s-.005.001.009-.019l.122.087c.035-.049.018-.103.004-.132a.38.38 0 0 0-.063-.088c-.048-.052-.108-.101-.14-.124l-.088.121zm-.174.1c.004-.005.015-.017.036-.032a.45.45 0 0 1 .068-.041c.025-.012.047-.019.063-.022l.094-.127c-.04-.029-.088-.027-.119-.021s-.071.019-.103.035-.065.035-.092.055-.053.042-.07.067l.122.087zm-1.034.625l.568-.263c.188-.101.367-.222.466-.362l-.122-.087c-.077.109-.23.216-.415.317s-.386.185-.555.257l.059.138zm-.023.01l.023-.01-.059-.138-.023.01.059.138zm-.293.218l.126-.125a.7.7 0 0 1 .167-.092l-.059-.138c-.088.037-.148.071-.201.113s-.093.086-.144.142l.111.101zm-.093.1l.093-.1-.111-.101-.09.097.109.104zm-.209.003c.101-.007.114.097.11.102l.041-.043.059-.062-.109-.104-.059.063-.029.031c-.017.019-.004.123.096.116l-.108-.104zm.024.191l.085-.088-.109-.103-.082.084.106.106zm-.058.064l.058-.064-.106-.106-.065.072.114.098zm-.54.281c.285.017.441-.167.54-.281l-.114-.098c-.101.117-.213.242-.417.229l-.009.15zm-.059.054c.002-.032.028-.056.059-.054l.009-.15c-.115-.007-.212.082-.218.196l.15.007zm-.822-1.854a.21.21 0 0 0 .094.278l.067-.134c-.028-.014-.04-.049-.026-.079l-.135-.065zm.277-.095c-.103-.051-.227-.008-.277.095l.135.065c.014-.029.048-.04.075-.026l.067-.134zm.474-.048c-.139.068-.29.139-.474.048l-.067.134c.256.127.471.019.607-.048l-.066-.135zm.002-.001h0l.062.137h0l-.062-.137zm.086-.04l-.088.041.066.135.078-.036-.056-.139zm.108-.046l-.108.046.056.139.112-.047-.06-.137zm.134-.059l-.079.035-.039.017c-.022.01-.052.112.043.145l-.059-.138c.096.033.067.134.061.137l.055-.024.078-.034-.059-.138zm.121-.054l-.121.054.059.138.124-.056-.063-.136zm0 0h0l.063.136h0l-.063-.136zm0 0h0l.063.136h0l-.063-.136zm-.002.001h0l.067.134h0l-.067-.134zm.419-.101c-.096 0-.164.008-.229.025s-.12.043-.188.075l.063.136.165-.066a.7.7 0 0 1 .19-.02v-.15zm.025 0h-.024v.15h.025v-.15zm1.117-.149c-.114.07-.296.109-.506.129s-.428.02-.611.02v.15l.626-.02c.212-.02.425-.061.57-.151l-.079-.128zm.407.026c-.025-.042-.07-.059-.102-.066s-.073-.01-.109-.008a.59.59 0 0 0-.106.014c-.031.007-.065.018-.091.034l.079.128c.005-.003.021-.01.046-.016a.45.45 0 0 1 .079-.011.26.26 0 0 1 .067.004l.136-.079zm.048.395c.051-.032.057-.088.056-.12s-.012-.073-.024-.106c-.024-.067-.06-.135-.081-.169l-.129.077c.017.029.049.088.068.142.01.028.014.049.015.062s-.005-.001.016-.014l.079.128zm-1.353.148l.73-.006c.123-.008.241-.021.347-.043a.87.87 0 0 0 .276-.099l-.079-.128c-.054.033-.131.06-.228.08s-.207.033-.326.04c-.237.015-.498.01-.718.005l-.003.15zm-.001 0h0l.004-.15h0l-.004.15zm-.244-.004l.244.004.003-.15-.247-.004v.15zm-.243.059c.049-.024.077-.037.109-.046s.068-.013.134-.013v-.15c-.073 0-.125.005-.174.018s-.088.033-.135.056l.066.135zm-.133.062l.133-.062-.066-.135-.126.059.059.138zm-.192-.079c.099.038.06.137.06.137l.055-.024.076-.034-.059-.138-.078.034-.039.017c-.017.007-.055.106.044.145l-.06-.137zm-.059.188l.119-.05-.06-.137-.115.049.056.139zm-.065.027l.065-.027-.056-.139-.067.027.058.138zm-.001 0h0l-.057-.139h0l.057.139zm-.832.049c.331.164.623.039.833-.049l-.058-.138c-.215.09-.446.184-.708.053l-.067.134zm.095-2.043c-.02-.024-.018-.061.007-.082l-.099-.113a.21.21 0 0 0-.022.293l.114-.098zm.673.228c-.233-.001-.482-.005-.673-.228l-.114.098c.24.281.558.279.786.28v-.15zm0 0h0v.15h0v-.15zm0 0h0v.15h0v-.15zm.072.001l-.072-.001-.001.15.07.001.003-.15zm.125 0c-.048.001-.087.001-.125 0l-.003.15h.129l-.002-.15zm0 0h0l.002.15h0l-.002-.15zm0 0h0l.002.15h0l-.002-.15zm.145-.002l-.145.002.002.15.144-.002-.001-.15zm.139-.005l-.139.005.001.15.146-.005-.008-.15zm.004 0h0v.15h0v-.15zm-.005 0h0l.01.15h0l-.01-.15zm.314.052c-.067-.029-.117-.044-.167-.051s-.094-.004-.146-.001l.008.15a.63.63 0 0 1 .118 0c.032.004.068.015.129.04l.059-.138zm.226.1l-.226-.1-.059.138.223.099.062-.137zm1.219.381c-.062.01-.144.004-.241-.015s-.203-.051-.316-.09c-.224-.079-.462-.185-.663-.276l-.062.137.675.28c.116.041.23.075.336.096a.87.87 0 0 0 .293.016l-.023-.148zm-.016-.213a.87.87 0 0 1 .007.157c-.002.029-.006.051-.01.063s-.004-.003.02-.007l.023.148c.059-.009.087-.059.098-.089s.018-.072.02-.107a1.02 1.02 0 0 0-.008-.187l-.149.021zm-.193-.056c.006-.001.023-.001.048.003a.45.45 0 0 1 .077.021c.026.01.047.02.06.03l.156-.02c-.007-.049-.041-.082-.067-.101s-.063-.038-.097-.05-.07-.022-.103-.028-.067-.009-.097-.004l.023.148zm-1.168-.31l.584.226c.203.064.415.11.584.084l-.023-.148c-.132.02-.316-.015-.516-.079s-.401-.149-.57-.221l-.059.138zm-.023-.01l.023.01.059-.138-.023-.01-.059.138zm-.36-.059l.178.003c.049.007.102.022.182.056l.059-.138c-.088-.037-.154-.057-.221-.066s-.127-.007-.203-.005l.004.15zm-.136.003l.136-.003-.004-.15-.133.003.001.15zm-.148-.148c.076.068.009.15.003.15l.059-.001.085-.001-.001-.15-.087.001h-.043c-.025.001-.091.082-.017.15l-.001-.15zm-.12.15h.122l-.002-.15h-.117l-.003.15zm-.086.003l.086-.003.003-.15c-.031-.001-.064.001-.097.003l.008.15zm-.004 0h0v-.15h0v.15zm0 0h0v-.15h0v.15zm-.573-.193c.186.217.426.201.577.193l-.008-.15c-.155.008-.322.015-.455-.141l-.114.098zm-.079-.005c.024-.021.06-.018.079.005l.114-.098c-.075-.088-.206-.096-.292-.02l.099.113zm.735-1.862a.21.21 0 0 0-.13.263l.142-.048c-.01-.03.006-.063.037-.074l-.049-.142zm.263.128c-.037-.109-.155-.166-.263-.128l.049.142c.03-.011.062.005.072.034l.142-.048zm.369.301c-.147-.05-.304-.106-.369-.301l-.142.048c.091.271.32.346.463.395l.048-.142zm.091.033l-.091-.033-.048.142.081.029.059-.138zm.109.044l-.109-.044-.059.138.113.046.055-.14zm.137.053l-.081-.031-.04-.015c-.024-.009-.116.042-.072.133l.056-.139c.045.091-.047.142-.053.14l.055.021.079.031.055-.139zm.124.047l-.124-.047-.055.139.127.049.052-.141zm.002.001h0l-.056.139h0l.056-.139zm.364.224c-.068-.068-.121-.111-.18-.144s-.115-.054-.186-.08l-.052.141.164.07a.7.7 0 0 1 .148.12l.106-.106zm.017.017l-.017-.017-.106.106.017.017.106-.106zm.895.685c-.13-.031-.287-.132-.449-.266a6.58 6.58 0 0 1-.446-.419l-.106.106.457.428c.164.136.344.257.51.297l.034-.146zm.269.306c.012-.048-.008-.091-.025-.119s-.044-.059-.071-.083-.057-.047-.085-.065-.059-.033-.088-.04l-.034.146a.18.18 0 0 1 .043.021c.021.013.043.03.063.048s.036.036.044.05l.153.04zm-.245.314c.059.014.102-.022.124-.046s.043-.06.058-.091c.03-.064.053-.138.063-.177l-.146-.036c-.008.033-.028.096-.052.148-.013.026-.024.045-.033.055s-.002-.004.021.001l-.034.146zm-1.061-.852l.521.513c.092.081.185.155.276.215a.87.87 0 0 0 .265.125l.034-.146c-.061-.014-.135-.05-.218-.104s-.17-.123-.259-.202c-.179-.157-.359-.345-.511-.504l-.108.104zm-.001-.001h0l.111-.101h0l-.111.101zm-.169-.174l.17.175.108-.104-.172-.177-.106.106zm-.214-.13c.052.018.081.028.109.044s.058.039.104.086l.106-.106c-.052-.052-.092-.085-.136-.11s-.086-.039-.135-.056l-.049.142zm.001 0h0l.047-.142h0l-.047.142zm-.138-.051l.137.05.049-.142-.131-.048-.056.139zm-.08-.192c.043.097-.054.14-.054.14l.056.022.078.03.056-.139-.079-.031-.04-.015c-.017-.007-.114.036-.071.133l.055-.14zm-.175.091l.12.049.054-.14-.116-.047-.059.138zm-.065-.027l.065.027.059-.138-.066-.028-.057.139zm-.624-.554c.117.35.413.468.624.554l.057-.139c-.216-.088-.445-.185-.539-.463l-.142.048zm1.524-1.378c.002-.031.03-.056.063-.054l.01-.15a.21.21 0 0 0-.223.192l.15.012zm.315.637c-.164-.166-.337-.345-.315-.637l-.15-.012c-.029.368.197.592.358.754l.106-.106zm.051.051l-.051-.051-.106.106.049.05.108-.104zm.088.088l-.088-.088-.108.104.091.092.105-.107zm.104.101l-.061-.059-.03-.03c-.013-.013-.119-.011-.118.095l.105-.107c.001.106-.105.107-.105.107l.043.042.06.058.105-.107zM14 8.89l-.102-.095-.105.107.107.1L14 8.89zm.184.259c-.027-.068-.052-.114-.082-.154s-.064-.069-.102-.104l-.101.111c.041.037.063.058.083.084a.5.5 0 0 1 .063.12l.139-.056zm.089.231l-.089-.231-.139.056.088.228.14-.053zm.593 1.131c-.051-.037-.104-.099-.159-.181s-.108-.18-.159-.287a8.68 8.68 0 0 1-.274-.663l-.14.053.279.675c.053.111.11.216.17.305a.87.87 0 0 0 .195.219l.089-.121zm.139-.162c-.02.027-.063.078-.106.116-.022.019-.04.032-.052.037s0-.005.019.009l-.089.121c.048.036.103.02.132.007a.38.38 0 0 0 .089-.062c.053-.047.103-.106.127-.138l-.12-.09zm-.097-.176a.18.18 0 0 1 .032.037c.014.02.028.044.04.069s.018.047.021.064l.125.097c.03-.039.028-.087.024-.119s-.018-.071-.033-.104a.6.6 0 0 0-.053-.093c-.019-.026-.041-.053-.066-.071l-.089.121zm-.607-1.045l.253.573c.098.189.216.371.354.472l.089-.121c-.108-.079-.213-.234-.309-.421s-.178-.389-.247-.56l-.139.056zm-.009-.023l.009.023.139-.056-.009-.023-.139.056zm-.213-.297l.123.128a.7.7 0 0 1 .089.168l.139-.056a.85.85 0 0 0-.109-.203c-.04-.052-.085-.095-.14-.147l-.103.109zm-.098-.094l.098.094.103-.109-.096-.092-.105.107zm0-.209c.005.101-.099.112-.104.108l.043.041.061.06.105-.107-.062-.06-.031-.03c-.018-.017-.123-.006-.118.094l.105-.107zm-.191.021l.086.086.105-.107-.083-.083-.108.104zm-.063-.059l.063.059.108-.104-.071-.066-.1.112zm-.272-.544c-.022.285.159.444.272.544l.1-.112c-.115-.103-.238-.217-.222-.421l-.149-.012zm-.053-.06c.032.002.055.029.053.06l.149.012c.009-.115-.078-.213-.192-.221l-.01.15z" class="D"/><path d="M16 7c-.062 0-.114.048-.119.111l-.214 3.047h.667l-.214-3.047C16.115 7.048 16.063 7 16 7zm4.979 4.934c0-.063-.048-.115-.111-.119l-3.047-.214v.667l3.047-.214c.062-.004.111-.056.111-.119zm-4.86 4.823c-.004.062-.056.111-.119.111s-.114-.048-.119-.111l-.214-3.047h.667l-.214 3.047zm-5.098-4.823c0 .063.048.114.111.119l3.047.214v-.667l-3.047.214c-.062.004-.111.056-.111.119zm8.398-3.436c.048-.04.119-.036.162.009s.045.116.003.163l-2.043 2.271-.463-.48 2.341-1.962zm.039 6.986c.045-.043.049-.114.009-.162l-1.962-2.341-.479.463 2.271 2.043c.047.042.117.041.163-.003zm-6.878-.113c-.048.04-.119.037-.162-.008s-.045-.116-.003-.163l2.043-2.271.463.479-2.341 1.962zm-.039-6.985c-.045.043-.049.114-.009.162l1.963 2.341.479-.463-2.271-2.043c-.046-.042-.117-.041-.162.003zm1.525-.878c-.019-.06.011-.124.069-.147s.124.002.152.058l1.34 2.745-.618.25-.943-2.906zm6.55 2.579c-.023-.058-.088-.088-.147-.069l-2.905.943.25.618 2.745-1.34c.056-.027.082-.094.058-.152zm-2.682 6.276c.019.06-.011.124-.069.147s-.124-.002-.152-.058l-1.34-2.745.618-.25.943 2.905zm-6.55-2.579c.024.058.088.088.147.069l2.906-.943-.25-.618-2.745 1.34c-.056.027-.082.094-.058.152zm6.409-6.335c.028-.056.095-.08.153-.056s.087.089.066.148l-.993 2.889-.614-.26 1.388-2.721zm2.791 6.414c.024-.058 0-.124-.056-.153l-2.721-1.388-.261.614 2.889.993c.059.02.124-.008.149-.066zm-6.376 2.558c-.028.056-.095.08-.153.056s-.087-.089-.066-.148l.993-2.889.614.261-1.388 2.721zm-2.79-6.414c-.024.058 0 .124.056.153l2.721 1.388.261-.614-2.889-.993c-.059-.02-.124.009-.149.066z" class="B C"/><path d="M15.881 7.111l.075.005h0l-.075-.005zm-.214 3.047l-.075-.005-.006.08h.081v-.075zm.667 0v.075h.08l-.006-.08-.075.005zm-.214-3.047l.075-.005h0l-.075.005zm4.749 4.704l-.005.075h0l.005-.075zm-3.047-.214l.005-.075-.08-.006v.08h.075zm0 .667h-.075v.081l.08-.006-.005-.075zm3.047-.214l.005.075h0l-.005-.075zm-4.749 4.704l-.075-.005h0l.075.005zm-.238 0l-.075.005h0l.075-.005zm-.214-3.047v-.075h-.081l.006.08.075-.005zm.667 0l.075.005.006-.08h-.08v.075zm-5.202-1.657l.005-.075h0l-.005.075zm3.047.214l-.005.075.08.006v-.081h-.075zm0-.667h.075v-.08l-.08.006.005.075zm-3.047.214l-.005-.075h0l.005.075zm8.287-3.317l-.048-.057h0l.048.057zm.165.171l.056.05h0l-.056-.05zm-2.043 2.271l-.054.052.056.058.054-.06-.056-.05zm-.463-.48l-.048-.057-.062.052.056.058.054-.052zm2.389 4.861l.057-.048h0l-.057.048zm-.009.162l.052.054h0l-.052-.054zm-1.954-2.503l.058-.048-.052-.062-.058.056.052.054zm-.479.463l-.052-.054-.058.056.06.054.05-.056zm2.271 2.043l-.05.056h0l.05-.056zm-6.878-.125l-.054.052h0l.054-.052zm.162.008l-.048-.057h0l.048.057zm-.165-.171l-.056-.05h0l.056.05zm2.043-2.271l.054-.052-.056-.058-.054.06.056.05zm.463.479l.048.058.062-.052-.056-.058-.054.052zm-2.389-4.861l.057-.048-.057.048zm.009-.162l-.052-.054h0l.052.054zm1.954 2.503l-.058.048.052.062.058-.056-.052-.054zm.479-.463l.052.054.058-.056-.06-.054-.05.056zm-2.271-2.043l-.05.056h0l.05-.056zm1.431-1.023l-.028-.07h0l.028.07zm-.069.147l.071-.023h0l-.071.023zm.22-.089l.067-.033h0l-.067.033zm1.34 2.745l.028.069.075-.03-.035-.072-.067.033zm-.618.25l-.071.023.025.076.075-.03-.028-.069zm5.46-.395l.023.071h0l-.023-.071zm.147.069l-.069.028h0l.069-.028zm-3.053.874l-.023-.071-.077.025.03.075.07-.028zm.25.618l-.07.028.03.075.072-.035-.033-.067zm2.745-1.34l.033.067-.033-.067zm-2.693 6.272l-.028-.07h0l.028.07zm.069-.147l-.071.023.071-.023zm-.221.089l-.067.033h0l.067-.033zm-1.34-2.745l-.028-.07-.075.03.035.072.067-.033zm.618-.25l.071-.023-.025-.077-.075.03.028.07zm-5.46.395l.023.071h0l-.023-.071zm-.147-.069l.07-.028h0l-.07.028zm3.053-.874l.023.071.076-.025-.03-.075-.069.028zm-.25-.618l.07-.028-.03-.075-.072.035.033.067zm-2.745 1.34l-.033-.067h0l.033.067zm6.504-6.239l.029-.069h0l-.029.069zm-.153.056l-.067-.034h0l.067.034zm.219.093l.071.024-.071-.024zm-.993 2.889l-.029.069.074.031.026-.076-.071-.024zm-.614-.26l-.067-.034-.037.072.074.031.029-.069zm4.123 3.54l.034-.067-.034.067zm.056.153l.069.029h0l-.069-.029zm-2.777-1.541l.034-.067-.072-.037-.031.074.069.029zm-.261.614l-.069-.029-.032.074.076.026.024-.071zm2.889.993l-.024.071.024-.071zm-6.38 2.548l-.029.069h0l.029-.069zm.153-.056l.067.034-.067-.034zm-.219-.093l-.071-.024.071.024zm.993-2.889l.029-.069-.074-.031-.026.076.071.024zm.614.261l.067.034.037-.072-.074-.032-.029.069zm-4.123-3.541l-.034.067h0l.034-.067zm-.056-.153l.069.029-.069-.029zm2.777 1.541l-.034.067.072.037.031-.074-.069-.029zm.261-.614l.069.029.031-.074-.076-.026-.024.071zm-2.889-.993l.024-.071-.024.071zm4.39-2.824c.002-.023.021-.041.044-.041v-.15c-.102 0-.187.079-.194.181l.15.011zm-.214 3.047l.214-3.047-.15-.011-.214 3.047.15.011zm.592-.08h-.667v.15h.667v-.15zm-.289-2.967l.215 3.047.15-.011-.214-3.047-.15.011zM16 7.075c.023 0 .043.018.044.041l.15-.011c-.007-.102-.092-.181-.194-.181v.15zm4.863 4.815c.023.002.041.021.041.044h.15c0-.102-.079-.187-.181-.194l-.011.15zm-3.047-.214l3.047.214.011-.15-3.047-.214-.011.15zm.08.592v-.667h-.15v.667h.15zm2.967-.289l-3.047.214.011.15 3.047-.214-.011-.15zm.041-.044c0 .023-.018.042-.041.044l.011.15c.102-.007.181-.092.181-.194h-.15zM16 16.943c.102 0 .187-.079.194-.181l-.15-.01c-.002.023-.021.041-.044.041v.15zm-.194-.181c.007.102.092.181.194.181v-.15c-.023 0-.042-.018-.044-.041l-.15.01zm-.214-3.047l.214 3.047.15-.01-.214-3.047-.15.011zm.742-.08h-.667v.15h.667v-.15zm-.14 3.127l.214-3.047-.15-.011-.215 3.047.15.01zm-5.057-4.784c-.023-.002-.041-.021-.041-.044h-.15c0 .102.079.187.181.194l.011-.15zm3.047.214l-3.047-.214-.011.15 3.047.214.011-.15zm-.08-.592v.667h.15v-.667h-.15zm-2.967.289l3.047-.214-.011-.15-3.047.214.011.15zm-.041.044c0-.023.018-.043.041-.044l-.011-.15c-.102.007-.181.092-.181.194h.15zm8.539-3.48c-.071-.073-.186-.079-.264-.014l.096.115c.018-.015.044-.014.06.003l.108-.104zm.005.265c.068-.076.066-.191-.005-.265l-.108.104c.016.017.017.043.001.06l.111.1zm-2.043 2.271l2.043-2.271-.111-.1-2.043 2.271.111.1zm-.573-.478l.463.48.108-.104-.463-.48-.108.104zm2.347-2.072l-2.341 1.962.096.115 2.341-1.962-.096-.115zm.039 6.929c.015.018.014.044-.003.06l.104.108c.073-.071.079-.186.014-.264l-.115.096zm-1.962-2.341l1.962 2.341.115-.096-1.962-2.341-.115.096zm-.37.469l.479-.463-.104-.108-.48.463.104.108zm2.269 1.933l-2.271-2.043-.1.111 2.271 2.043.1-.111zm.06-.001c-.017.016-.043.017-.06.001l-.1.111c.076.068.192.066.265-.005l-.104-.108zm-7.042-.016c.071.073.186.079.264.014l-.096-.115c-.018.015-.044.013-.06-.003l-.108.104zm-.005-.265c-.068.076-.066.191.005.265l.108-.104c-.016-.017-.017-.043-.001-.06l-.111-.1zm2.043-2.271l-2.043 2.271.111.1 2.043-2.271-.112-.1zm.573.478l-.463-.479-.108.104.463.48.108-.104zm-2.347 2.072l2.341-1.962-.096-.115-2.341 1.963.096.115zm-.039-6.929c-.015-.018-.013-.044.003-.06l-.104-.108c-.073.071-.079.186-.014.264l.115-.096zm1.962 2.341L12.59 8.499l-.115.096 1.962 2.341.115-.096zm.37-.469l-.479.463.104.108.479-.463-.104-.108zm-2.269-1.933l2.271 2.043.1-.112-2.271-2.043-.1.112zm-.06.001c.017-.016.043-.017.06-.001l.1-.112c-.076-.068-.191-.066-.265.005l.104.108zm1.513-1.149c-.095.038-.143.143-.112.24l.143-.046c-.007-.022.004-.046.026-.055l-.056-.139zm.247.095c-.045-.092-.153-.133-.247-.095l.056.139c.021-.009.046.001.056.022l.135-.066zm1.34 2.745l-1.34-2.745-.135.066 1.34 2.745.135-.066zm-.657.352l.618-.25-.056-.139-.618.25.056.139zM13.995 7.53l.943 2.906.143-.046-.943-2.906-.143.046zm6.498 2.559c.022-.007.046.004.055.025l.139-.056c-.038-.095-.143-.143-.24-.112l.046.143zm-2.905.943l2.906-.943-.046-.143-2.905.943.046.143zm.296.519l-.25-.618-.139.056.25.618.139-.056zm2.642-1.38l-2.745 1.34.066.135 2.745-1.34-.066-.135zm.022-.056c.009.022-.001.046-.022.056l.066.135c.092-.045.133-.153.095-.247l-.139.056zm-2.654 6.465c.095-.038.143-.143.112-.24l-.143.046c.007.022-.004.046-.026.055l.056.139zm-.247-.095c.045.092.153.133.247.095l-.056-.139c-.021.009-.046-.001-.056-.022l-.135.066zm-1.34-2.745l1.34 2.745.135-.066-1.34-2.745-.135.066zm.657-.352l-.618.25.056.139.618-.25-.056-.139zm1.042 2.952l-.943-2.905-.143.046.943 2.906.143-.046zm-6.497-2.559c-.022.007-.046-.004-.055-.025l-.139.056c.038.095.143.143.24.112l-.046-.143zm2.906-.943l-2.905.943.046.143 2.906-.943-.046-.143zm-.296-.519l.25.618.139-.056-.25-.618-.139.056zm-2.642 1.38l2.745-1.34-.066-.135-2.745 1.34.066.135zm-.022.056c-.009-.021.001-.046.022-.056l-.066-.135c-.092.045-.133.153-.095.247l.139-.056zm6.522-6.431c-.094-.04-.203 0-.249.091l.134.068c.011-.021.035-.03.057-.021l.059-.138zm.108.242c.033-.096-.014-.202-.108-.242l-.059.138c.021.009.032.033.024.055l.142.049zm-.993 2.889l.993-2.889-.142-.049-.993 2.889.142.049zm-.714-.216l.614.261.059-.138-.614-.261-.059.138zm1.351-2.824l-1.388 2.721.134.068 1.388-2.721-.134-.068zm2.768 6.362c.021.011.03.035.021.057l.138.059c.04-.094 0-.203-.091-.249l-.068.134zm-2.721-1.388l2.721 1.388.068-.134-2.721-1.388-.068.134zm-.157.576l.261-.614-.138-.059-.26.614.138.059zm2.844.893l-2.889-.993-.049.142 2.889.993.049-.142zm.055-.024c-.009.021-.033.032-.055.024l-.049.142c.096.033.202-.014.242-.108l-.138-.059zm-6.489 2.712c.094.04.203 0 .249-.091l-.134-.068c-.011.021-.035.03-.057.021l-.059.138zm-.108-.242c-.033.096.014.202.108.242l.059-.138c-.021-.009-.032-.033-.024-.055l-.142-.049zm.993-2.889l-.993 2.889.142.049.993-2.889-.142-.049zm.714.216l-.614-.261-.059.138.614.26.059-.138zm-1.35 2.824l1.388-2.721-.134-.068-1.388 2.721.134.068zm-2.768-6.362c-.021-.011-.03-.035-.021-.057l-.138-.059c-.04.094 0 .203.091.249l.068-.134zm2.721 1.388l-2.721-1.388-.068.134 2.721 1.388.068-.134zm.157-.576l-.261.614.138.059.261-.614-.138-.059zm-2.844-.893l2.889.993.049-.142-2.889-.993-.049.142zm-.055.025c.009-.021.033-.032.055-.025l.049-.142c-.097-.033-.202.014-.242.108l.138.059z" class="D"/><path d="M16 13.842c1.068 0 1.933-.854 1.933-1.908s-.866-1.908-1.933-1.908-1.933.854-1.933 1.908.865 1.908 1.933 1.908z" stroke="#984111" stroke-width=".15" class="B C"/><g class="D"><path d="M15.814 11.437l-.125-.081a.81.81 0 0 0-.186-.093c-.03-.009-.057-.014-.081-.014-.118 0-.284.073-.494.223l-.078-.107c.231-.164.42-.248.572-.248.039 0 .08.007.122.02.068.021.135.056.217.108l.124.081.048.027c.159 0 .169.57.056.744a.5.5 0 0 1-.117.124l-.087.064c-.039.03-.052.048-.052.069 0 .004.048.016.155.011l.073-.005.11-.006v.132a1.28 1.28 0 0 0-.1.006l-.077.005c-.188.009-.294-.018-.294-.142 0-.071.035-.12.103-.173l.086-.063c.038-.03.066-.058.087-.091.034-.053.056-.193.053-.34a.93.93 0 0 0-.017-.174c-.003-.013-.006-.024-.009-.032-.025-.006-.053-.02-.09-.043z"/><path d="M16.352 11.39l-.071.046c-.037.023-.064.037-.09.043-.003.008-.006.019-.009.032a.92.92 0 0 0-.017.174c-.003.147.019.287.053.34a.37.37 0 0 0 .087.091l.053.04.032.024c.068.053.103.102.103.173 0 .124-.107.151-.294.142l-.077-.005-.1-.006v-.132a1.27 1.27 0 0 1 .11.006l.073.005c.107.005.155-.007.155-.011 0-.022-.012-.039-.052-.069l-.026-.019-.061-.045a.5.5 0 0 1-.117-.124c-.113-.175-.103-.744.056-.744.006-.003.023-.011.048-.027l.066-.043.058-.038c.082-.052.15-.087.218-.108.042-.013.082-.02.122-.02.152 0 .341.084.572.248l-.078.107c-.21-.15-.376-.223-.494-.223-.025 0-.052.005-.081.014a.81.81 0 0 0-.186.093l-.054.035zm-.157.08l-.002.003.001-.002.001-.001z" class="B"/><path d="M15.665 12.723l.034.067-.034-.067zm.677.001l.039-.064-.039.064zm.069.041l.062.043.046-.066-.069-.041-.039.064zm-.046.066l-.062-.043.062.043zm-.723.008l.057-.049-.057.049zm-.062-.073l-.034-.067-.086.043.063.073.057-.049zm.252.052l-.022-.072-.13.04.103.088.049-.057zm.354-.002l.054.052.082-.085-.111-.038-.024.071zm-.574-.043l-.039-.064-.071.043.05.067.06-.045zm.771 0l.064.039.035-.058-.054-.041-.045.06zm-.859-.122l.04.064-.04-.064zm.957.008l-.046.059h0l.046-.059zm.046.036l.046-.059h0l-.046.059zm.052.041l.064.038.034-.057-.053-.041-.046.059zm-.034.057l-.064-.039h0l.064.039zm-.03.05l.064.038h0l-.064-.038zm-1.031.012l-.06.045h0l.06-.045zm-.043-.057l.06-.045h0l-.06.045zm-.049-.066l-.04-.064-.069.043.049.066.06-.045zm.069-.043l-.04-.064h0l.04.064zm.553-.124a.85.85 0 0 0-.384.091l.067.134a.7.7 0 0 1 .317-.076v-.15zm.365.096a.7.7 0 0 0-.365-.096v.15c.11 0 .205.025.288.074l.077-.129zm.069.041l-.069-.041-.077.129.069.041.077-.128zm-.023.173l.046-.066-.123-.085-.046.066.123.085zm-.411.25c.172 0 .308-.101.411-.25l-.123-.085c-.087.126-.183.185-.288.185v.15zm-.431-.236c.121.141.264.236.431.236v-.15c-.105 0-.211-.059-.317-.184l-.114.098zm-.062-.073l.063.073.114-.098-.062-.073-.114.098zm.109-.159l-.086.043.067.134.086-.043-.067-.134zm.384.168c-.032 0-.077-.013-.136-.064l-.098.114c.078.067.157.1.234.1v-.15zm.115-.06c-.048.049-.085.06-.115.06v.15c.078 0 .153-.033.223-.106l-.108-.104zm-.115.101a.44.44 0 0 1 .145.022l.049-.142c-.059-.021-.124-.03-.194-.03v.15zm-.163.025a.54.54 0 0 1 .163-.025v-.15a.69.69 0 0 0-.207.031l.045.143zm.163.067c-.1 0-.216-.058-.345-.228l-.12.091c.143.189.298.287.464.287v-.15zm.302-.222c-.102.167-.204.222-.302.222v.15c.169 0 .313-.101.431-.294l-.128-.078zm-.302-.001a.52.52 0 0 1 .321.1l.09-.12c-.116-.087-.253-.13-.412-.13v.15zm-.366.105c.117-.07.239-.105.366-.105v-.15c-.156 0-.304.042-.443.126l.078.128zm.366-.405a1 1 0 0 0-.532.155l.079.128c.142-.088.293-.132.453-.132v-.15zm.511.168c-.146-.113-.32-.168-.511-.168v.15c.162 0 .302.045.419.136l.092-.119zm.046.036l-.046-.036-.092.119.046.036.092-.119zm.052.041l-.052-.041-.092.119.053.041.092-.119zm-.016.155l.034-.057-.129-.077-.034.057.129.077zm-.03.05l.03-.05-.129-.077-.03.05.129.077zm-.564.375c.244 0 .431-.152.564-.375l-.129-.077c-.118.198-.264.302-.435.302v.15zm-.591-.356c.159.213.355.356.591.356v-.15c-.169 0-.326-.101-.471-.296l-.12.09zm-.043-.057l.043.057.12-.09-.043-.057-.12.09zm-.049-.066l.049.066.12-.09-.049-.066-.12.09zm.09-.152l-.069.043.079.127.069-.043-.079-.128zm.061-.038l-.061.038.079.128.061-.038-.079-.128zm-.416-1.138l.032.068-.032-.068zm0 .361l-.032.068h0l.032-.068zm.536 0l.033.068h0l-.033-.068zm0-.361l-.032.068h0l.032-.068zm-.526.178l-.069-.029h0l.069.029zm.007-.01l.056.05h0l-.056-.05zm.048-.033l-.032-.068h0l.032.068zm.406 0l.033-.068h0l-.033.068zm.048.033l-.056.05h0l.056-.05zm.007.01l-.069.029h0l.069-.029zm0 .006l-.069-.029h0l.069.029zm-.007.01l-.056-.05h0l.056.05zm-.048.033l.033.068h0l-.033-.068zm-.406 0l-.032.068h0l.032-.068zm-.048-.033l-.056.05h0l.056-.05zm-.007-.01l-.069.029h0l.069-.029zm1.323-.184l-.032-.068h0l.032.068zm0 .361l-.032.068h0l.032-.068zm.536 0l-.032-.068h0l.032.068zm0-.361l-.032.068h0l.032-.068zm-.526.178l-.069-.029h0l.069.029zm.007-.01l-.056-.05h0l.056.05zm.048-.033l.032.068-.032-.068zm.407 0l-.033.068.033-.068zm.048.033l-.056.05h0l.056-.05zm.007.01l-.069.029h0l.069-.029zm0 .006l-.069-.029h0l.069.029zm-.007.01l-.056-.05h0l.056.05zm-.048.033l-.033-.068.033.068zm-.407 0l.032-.068-.032.068zm-.048-.033l-.056.05h0l.056-.05zm-.007-.01l-.069.029h0l.069-.029zm-1.311-.116a.56.56 0 0 1 .236-.047v-.15a.71.71 0 0 0-.301.062l.065.135zm-.098.113c0-.044.037-.084.098-.113l-.065-.135c-.073.035-.183.113-.183.248H15zm.098.113c-.061-.029-.098-.069-.098-.113h-.15c0 .135.11.213.183.248l.065-.135zm.236.047a.56.56 0 0 1-.236-.047l-.065.135c.085.041.191.062.301.062v-.15zm.236-.047a.56.56 0 0 1-.236.047v.15c.109 0 .216-.021.301-.062l-.065-.135zm.098-.113c0 .044-.037.084-.098.113l.065.135c.073-.035.183-.113.183-.248h-.15zm-.098-.113c.061.029.098.069.098.113h.15c0-.135-.109-.213-.183-.248l-.065.135zm-.236-.047a.56.56 0 0 1 .236.047l.065-.135a.71.71 0 0 0-.301-.062v.15zm-.327.128c-.005.011-.007.021-.007.032h.15c-.002.02-.004.024-.005.027l-.138-.059zm.019-.03c-.008.01-.015.02-.019.03l.138.059-.119-.089zm.072-.051c-.03.014-.055.032-.072.051l.113.099s.006-.006.024-.015l-.065-.135zm.236-.047a.56.56 0 0 0-.236.047l.065.135c.036-.017.096-.032.171-.032v-.15zm.236.047a.56.56 0 0 0-.236-.047v.15c.075 0 .135.015.171.032l.065-.135zm.071.051c-.017-.019-.041-.036-.071-.051l-.065.135c.018.009.024.015.024.015l.112-.099zm.019.03a.11.11 0 0 0-.019-.03l-.112.099.132-.069zm.007.032c0-.011-.002-.022-.007-.032l-.138.059-.005-.02.15-.006zm-.007.032c.005-.011.007-.021.007-.032h-.15a.1.1 0 0 1 .005-.027l.138.059zm-.019.03c.008-.01.015-.02.019-.03l-.138-.059.118.089zm-.071.051a.21.21 0 0 0 .071-.051l-.112-.099s-.006.006-.024.015l.065.135zm-.236.047a.56.56 0 0 0 .236-.047l-.065-.135c-.036.017-.096.032-.171.032v.15zm-.236-.047a.56.56 0 0 0 .236.047v-.15c-.075 0-.135-.015-.171-.032l-.065.135zm-.072-.051a.23.23 0 0 0 .072.051l.065-.135c-.018-.009-.024-.015-.024-.015l-.113.099zm-.019-.03c.005.01.011.021.019.03l.113-.099-.132.069zM15 11.634c0 .011.002.022.007.032l.138-.059.005.02-.15.006zm1.431-.113a.56.56 0 0 1 .236-.047v-.15a.71.71 0 0 0-.301.062l.065.135zm-.098.113c0-.044.037-.084.098-.113l-.065-.135c-.073.035-.183.113-.183.248h.15zm.098.113c-.061-.029-.098-.069-.098-.113h-.15c0 .135.109.213.183.248l.065-.135zm.236.047a.56.56 0 0 1-.236-.047l-.065.135c.085.041.191.062.301.062v-.15zm.236-.047a.56.56 0 0 1-.236.047v.15c.11 0 .216-.021.301-.062l-.065-.135zm.098-.113c0 .044-.037.084-.098.113l.065.135c.073-.035.183-.113.183-.248H17zm-.098-.113c.061.029.098.069.098.113h.15c0-.135-.109-.213-.183-.248l-.065.135zm-.236-.047a.56.56 0 0 1 .236.047l.065-.135a.71.71 0 0 0-.301-.062v.15zm-.326.128c-.005.011-.007.021-.007.032h.15a.1.1 0 0 1-.005.027l-.138-.059zm.019-.03a.11.11 0 0 0-.019.03l.138.059-.119-.089zm.071-.051a.21.21 0 0 0-.071.051l.113.099s.006-.006.024-.015l-.065-.135zm.236-.047a.56.56 0 0 0-.236.047l.065.135c.036-.017.096-.032.171-.032v-.15zm.236.047a.56.56 0 0 0-.236-.047v.15c.075 0 .135.015.171.032l.065-.135zm.072.051a.23.23 0 0 0-.072-.051l-.065.135c.018.009.024.015.024.015l.113-.099zm.019.03c-.005-.01-.011-.02-.019-.03l-.113.099.132-.069zm.007.032c0-.011-.002-.022-.007-.032l-.138.059-.005-.02.15-.006zm-.007.032c.005-.011.007-.021.007-.032h-.15a.1.1 0 0 1 .005-.027l.138.059zm-.019.03c.008-.01.015-.02.019-.03l-.138-.059.119.089zm-.072.051c.03-.014.055-.032.072-.051l-.113-.099s-.006.006-.024.015l.065.135zm-.236.047a.56.56 0 0 0 .236-.047l-.065-.135c-.036.017-.096.032-.171.032v.15zm-.236-.047a.56.56 0 0 0 .236.047v-.15c-.075 0-.135-.015-.171-.032l-.065.135zm-.071-.051c.017.019.041.036.071.051l.065-.135c-.018-.009-.024-.015-.024-.015l-.113.099zm-.019-.03c.004.01.011.021.019.03l.113-.099-.132.069zm-.007-.032c0 .011.002.022.007.032l.138-.059.005.02-.15.006z"/></g></g><defs><clipPath id="B"><path fill="#fff" d="M0 0h32v24H0z"/></clipPath></defs></svg>
