<svg xmlns="http://www.w3.org/2000/svg" viewBox="0 0 32 24" fill="none"><g clip-path="url(#A)"><path fill="#fff" d="M0 0h32v24H0z"/><path fill-rule="evenodd" d="M0 0H32V24H0V0Z" fill="#f7fcff"/><path d="M0-1h-1v1 11.307L-2.848 12-1 12.693V24v1h1 32l.351-1.936L2.848 12 32.351.936 32-1H0z" fill="#3547a0" stroke="#e31d1c" stroke-width="2"/><g fill-rule="evenodd"><path d="M29.022 5.11l-2.737.74c-.098.027-.285.074-.272-.193-.461.296-1.203.594-1.507.679-.153.043-.112-.222-.178-.298-.132.195-.473.482-.57.51l-1.909.605s-.449.432-.449.774-.048.635-.357.635-1.022.622-.761.973 1.118.164 1.118 0 .611-.369.611-.184-.162.518-.162.518h.674l-.513.265h.513l-.513.314h.96l-.613.274h.426l-.259.36h.665s.259.262.503.405.785 1.36.514 1.832.061.541.122.334.188-.504.296-.504h.317l.147.387.349.373s.025-.324.09-.373c0 0 .273.028.405-.004l-.054-.535s.423.143.604.14c0 0-.272-.425-.272-.571 0 0 .505.026.505.241l-.056-.537s.479-.203.495-.375l-.314-.038s.163-.207.148-.248l-.463-.059s.506-.176.544-.287c0 0-.114-.178-.218-.249l-.354-.229.923.005s.207-.074.048-.201c0 0-.156-.094-.134-.184 0 0 .106-.203.082-.239 0 0 .113.15.113-.22 0 0 .003-.372-.068-.39 0 0 .208-.153.126-.251s-.958-.358-1.168-.358l1.605-1.017s.111-.42.274-.671c0 0 .427-.383.512-.683l.328-1.04v-.339l-.118-.087z" fill="#9c3900"/><path d="M26.211 12.565l.065.004c.267.022.412.089.437.201l.012.1a.42.42 0 0 0-.012-.1l-.052-.501c.319-.136.484-.261.495-.375l-.239-.029-.023.03-.015-.035-.037-.004.023-.029-.014-.034.037.005c.077-.103.111-.166.103-.189l-.324-.041-.118.042s-.012-.063-.007-.065l-.006-.058.123.016c.254-.096.391-.176.413-.24-.076-.119-.148-.202-.218-.249l-.254-.165-.1-.001s.013-.064.02-.064l.016-.053.083.054.804.004c.138-.05.154-.117.048-.201-.104-.062-.149-.124-.134-.184a1.31 1.31 0 0 0 .072-.157.23.23 0 0 1-.042-.043l.052-.038.054-.035c.014.02.018.044.015.075.03-.018.045-.105.045-.26.001-.166-.009-.279-.03-.339l-.039-.051.016-.062c.014.004.027.01.038.019.095-.083.119-.152.072-.208-.072-.086-.758-.297-1.065-.347l-.068.043s-.029-.054-.019-.064l-.016-.054c.023 0 .053.003.088.008l1.517-.961c.074-.28.165-.504.274-.671.284-.255.455-.483.512-.683l.328-1.04v-.339l-.118-.087-2.737.74c-.098.027-.285.074-.272-.193-.461.296-1.203.594-1.507.679-.098.027-.117-.071-.134-.166-.01-.053-.02-.105-.043-.132-.132.195-.473.482-.57.51l-1.909.605c-.299.288-.449.546-.449.774 0 .342-.048.635-.357.635s-1.022.622-.761.973 1.118.164 1.118 0 .611-.369.611-.184c0 .123-.054.296-.162.518h.535l.109-.056.016.064.014.056h-.123l-.39.201h.39l.088-.054.019.064.016.054h-.104l-.409.25h.803l.13-.058.014.064.013.058h-.143l-.471.21h.346l.026-.037.019.037h.034l-.019.027.019.037h-.046l-.213.297h.665c.172.175.34.309.503.405.244.143.785 1.36.514 1.832s.061.541.122.334.188-.504.296-.504h.317l.147.387.349.373s.025-.324.09-.373c.182.018.317.017.405-.004l-.008-.065-.067-.41.021-.06s.064.014.064.021c.248.081.428.121.54.119-.147-.231-.235-.399-.265-.517-.005-.02-.007-.038-.007-.054zm.294-1.075l-.256.089.654.083a1.7 1.7 0 0 1-.112.155l-.07.088.343.042c-.056.074-.198.165-.43.263l-.043.018.037.356c-.096-.048-.235-.075-.414-.084l-.068-.003v.067c0 .099.071.261.214.496-.113-.018-.267-.06-.46-.126l-.079-.027-.006.083c-.003.046.012.204.047.488a1.58 1.58 0 0 1-.327-.007l-.046.012c-.046.034-.07.107-.091.223l-.009.055-.245-.262-.158-.417h-.362c-.14 0-.268.243-.358.55-.017.058-.059.076-.08.058-.041-.036-.03-.158.076-.343.134-.234.098-.636-.059-1.091-.135-.39-.337-.744-.478-.827-.157-.092-.321-.224-.489-.394l-.019-.019h-.567l.259-.36h-.251l.614-.274h-1.033l.513-.314h-.477l.513-.265h-.836c.083-.187.126-.338.126-.454 0-.084-.064-.129-.155-.136-.065-.005-.148.009-.235.037-.196.062-.35.169-.35.283 0 .005-.033.033-.098.06a1.1 1.1 0 0 1-.304.07c-.268.025-.498-.032-.599-.167-.095-.128-.03-.329.162-.537.175-.19.416-.334.547-.334.172 0 .29-.08.354-.228.05-.114.068-.261.068-.471s.139-.447.421-.72c.316-.125.947-.325 1.891-.598.104-.03.37-.253.533-.418.014.072.024.109.046.144a.14.14 0 0 0 .168.062c.359-.1 1.014-.381 1.432-.63.017.082.062.135.132.157.063.02.12.013.215-.013l2.707-.731.067.049v.297l-.326 1.033c-.053.186-.218.405-.505.666-.11.169-.201.391-.276.666l-1.769 1.121h.22c.2 0 1.053.258 1.118.335.023.027-.002.076-.115.159l-.108.08.12.03c.006.011.011.031.016.058.011.06.016.152.015.272a.86.86 0 0 1-.015.196l-.093.046h0 0c-.001.008-.004.02-.009.035-.012.036-.036.087-.075.167-.022.093.038.176.16.25.059.048.059.056-.022.086l-.911-.005-.218-.001.536.347c.054.036.113.101.176.195a.52.52 0 0 1-.109.072c-.087.046-.214.098-.38.156zm.852-1.302v.002-.002-.001h0z" fill="#212121"/><path d="M27.407 10.792l2.024.254c.115 0 .596-.122.431-.891s-.098-1.234-.569-1.234-.962.205-1.139.205h-.748c-.742 0-5.164-.026-5.482.329s-1.214.855-1.629 1.031-.521.053-.708.56-.325.542-.325.542l.325.363h.966s.665-.835 2.047-.905l4.805-.254z" fill="#fff"/><path d="M22.602 11.046l4.805-.254 2.024.254c.115 0 .596-.122.431-.891l-.086-.481c-.076-.477-.12-.753-.482-.753-.292 0-.592.079-.82.138-.14.037-.252.066-.319.066h-.748c-.038 0-.086 0-.143 0-1.044-.001-5.037-.007-5.339.329-.318.355-1.214.855-1.629 1.031-.106.045-.192.071-.264.092-.21.063-.305.091-.444.468-.124.338-.233.518-.325.542l.325.363h.966c.444-.557 1.126-.858 2.047-.905zm-2.094.809h-.876l-.225-.25c.09-.093.176-.267.272-.526.037-.099.069-.172.101-.226.058-.098.104-.129.227-.167l.026-.008.115-.035.187-.069c.546-.232 1.376-.736 1.663-1.056.054-.06.383-.128.901-.177l1.814-.094 2.513-.026a658.76 658.76 0 0 1 .101 0h.081.748c.051 0 .114-.011.21-.035l.155-.04.118-.031c.226-.057.404-.089.575-.097l.081-.002c.227 0 .293.107.366.547l.018.109.028.172.062.33c.067.315.026.524-.088.651-.074.082-.181.125-.248.125s-.756-.086-2.029-.254l-4.805.254c-.927.047-1.626.348-2.089.904z" fill="#4d4d4d"/><g fill="#ffc221"><path d="M19.507 11.399s-.728.467-.461.781.294.354.347.354c0 0 .014-.336.101-.336s.769.326 1.016-.225-1.003-.573-1.003-.573z"/><path d="M17.922 12.921l1.675-.31.643.696.185-.623.461.113v.314h.17v.431l1.205.252.151-.413s.392.647.995.615.71.139.816-.34.401-.735.401-.735l.703.237s-.773.949-.403 1.247l2.754.637-.109.334h-.316l.085.287-3.009-.208s-.335.425-.335.316-.018-.108-.166-.108-.225-.208-.225-.208l-.196.075s.03.004-.217-.075-.39-.079-.39-.079l-1.016-.075v.154s-.269.014-.176.075 1.995.133 1.995.133l-.116.214s.94.003 1.138-.105.07.24.07.24h.934s-.232.219-.529.219.852.364.852.364-.641.199-.938.067.126.254.314.352-.66.089-.998-.288c0 0 .106.279 0 .358 0 0-.593-.699-.889-.699s.047.461.047.461-.169-.241-.358-.143-.329.209-.329.209-.124-.427-.778-.603-.435-.241-.966-.298-.558-.349-.631-.349-.635-.492-.635-.492-.125-.461.168-.461.757-.138.927 0 .242 0 .242 0h.299l.429.332h.851s.163-.252.422-.332 0-.306 0-.306-.618.035-.868.131-.09-.463-.09-.463l-1.115-.203-.17.203-.369.111v.221l-.389-.086.112-.663-.91.416-1.408-1.152z"/></g><path d="M23.522 15.813l.081-.15-1.965-.122c-.014-.004-.024-.007-.03-.011-.093-.062.176-.075.176-.075v-.095-.059l.065.005.952.07a1.36 1.36 0 0 1 .39.079l.159.052c.002-.006.006-.011.014-.021.017-.011.024-.016.032-.018s.011-.001.02-.001c0 0-.005.064-.009.063l.137-.053.059-.023c.024.064.052.113.086.147l.013.013c.036.032.078.048.126.048.148 0 .166 0 .166.108 0 .072.112-.033.335-.316l3.009.208-.085-.224.014-.018-.014-.046h.048l.014-.018.005.018h.249l.109-.334-2.754-.637c-.246-.199-.112-.614.403-1.247l-.703-.237c-.197.171-.331.416-.401.735-.079.356-.159.353-.442.341l-.374-.001c-.402.021-.733-.184-.995-.615l-.151.413-1.205-.252v-.431h-.17v-.314l-.461-.113-.164.551.026.029-.038.009-.01.034-.024-.026-.038.008.011-.037-.592-.641-1.675.31 1.408 1.152.839-.384.007-.043.033.024.031-.014-.006.033.033.025-.04.018-.099.587.389.086v-.221l.369-.111.17-.203 1.057.192.058.011-.017.062c-.086.328-.05.462.107.402.167-.064.456-.107.868-.131.173.151.173.252 0 .306s-.313.164-.422.332h-.851l-.429-.332h-.299c-.048.092-.129.092-.242 0s-.362-.061-.601-.03l-.326.03c-.195 0-.251.154-.168.461.374.328.586.492.635.492.02 0 .037.023.062.056.065.088.186.251.569.292.288.031.355.064.461.116.089.044.206.101.505.182.436.118.696.319.778.603 0 0 .14-.111.329-.209.122-.063.238-.02.348.128l.033.046-.033-.046c-.055-.079-.3-.446-.036-.446.198 0 .494.233.889.699.053-.04.067-.118.039-.234-.032-.026-.062-.053-.088-.083 0 0 .05-.038.056-.034l.052-.031.036.111c.379.288 1.073.288.901.199-.112-.058-.307-.219-.389-.317-.041-.051-.041-.079.044-.048l.031.013c.198.088.511.065.938-.067l-.865-.309c-.069-.037-.064-.055.014-.055.156-.004.284-.043.401-.119h.051l.056-.073-.002-.008.021-.019h-.026l.005.019c-.034.03-.069.057-.105.081h-.063a.87.87 0 0 0 .092-.1h-.768l-.008.021-.015-.021h-.046l.015-.043.007-.021c.057-.183.027-.242-.092-.177-.127.069-.481.104-1.064.105l-.016.03-.018-.03h-.039l.018-.034-.018-.03h.034zm-4.182-1.815l-1.271-1.039 1.505-.279.696.753.2-.673.351.086v.328h.17v.419l1.311.274.126-.344c.262.376.591.556.982.535.118-.006.21-.005.347 0 .227.009.277.007.351-.038.087-.052.134-.151.178-.352.064-.291.183-.516.354-.676l.58.196c-.489.619-.613 1.042-.325 1.275l2.7.625-.073.224h-.355l.084.281-2.951-.204-.021.027-.229.268c-.02-.071-.079-.085-.222-.085-.067 0-.121-.05-.164-.166l-.023-.061-.252.082-.179-.059c-.169-.054-.304-.082-.408-.083l-1.084-.08v.165l-.043.006c-.046.007-.082.017-.107.032-.063.037-.059.108.003.15.077.051.678.092 1.925.139l-.118.217h.107c.64.002 1.024-.033 1.17-.113l.024-.012a.29.29 0 0 1-.005.039.94.94 0 0 1-.041.136l-.031.085h.837c-.104.061-.217.092-.34.092-.032 0-.056.003-.076.01-.047.018-.066.07-.036.113.021.029.066.054.15.09.118.05.315.12.592.211-.31.076-.541.08-.69.014a.36.36 0 0 0-.099-.032c-.05-.006-.098.021-.095.078.002.041.034.084.096.146.068.068.162.146.245.205-.045-.002-.097-.008-.152-.017-.272-.044-.521-.149-.658-.301l-.232-.258.123.323c.038.101.053.175.049.224-.377-.433-.665-.65-.877-.65-.098 0-.163.044-.181.122-.011.049-.001.106.023.171-.06-.011-.121-.001-.184.032l-.059.032c-.072.04-.139.083-.207.13-.113-.264-.38-.451-.793-.562-.156-.042-.271-.08-.362-.117l-.098-.044-.012-.006-.067-.033c-.109-.051-.211-.076-.436-.1-.196-.021-.329-.075-.423-.155-.026-.022-.067-.07-.101-.111h0l-.06-.067c-.014-.009-.03-.015-.052-.018-.008-.004-.02-.01-.034-.019-.03-.019-.072-.049-.123-.088l-.422-.353c-.067-.259-.027-.363.11-.363.085 0 .157-.007.341-.031l.037-.005c.296-.038.438-.035.508.021.128.104.246.114.319.014h.241l.429.332h.909l.019-.03a.7.7 0 0 1 .387-.305c.229-.071.229-.235.024-.414l-.047-.016c-.418.024-.713.068-.888.135-.048.018-.054.015-.061-.021-.012-.065.006-.189.056-.366l.019-.067-1.222-.222-.182.217-.396.119v.189l-.25-.055.122-.723-.984.45zm4.068 1.534h0zm-1.771.011h0 .001-.001z" fill="#4d4d4d"/></g></g><defs><clipPath id="A"><path fill="#fff" d="M0 0h32v24H0z"/></clipPath></defs></svg>
