<svg xmlns="http://www.w3.org/2000/svg" viewBox="0 0 32 24" fill="none"><g clip-path="url(#A)"><path fill="#fff" d="M0 0h32v24H0z"/><path fill-rule="evenodd" d="M0 0V24H32V0H0Z" fill="#2e42a5"/><g clip-path="url(#B)"><path fill="#2e42a5" d="M0 0h18v14H0z"/><path d="M-2.004 13l3.961 1.737L18.09 1.889l2.089-2.582-4.236-.581-6.58 5.537-5.296 3.73L-2.004 13z" fill="#f7fcff"/><path d="M-1.462 14.217l2.018 1.008L19.429-.933h-2.833l-18.058 15.15z" fill="#f50100"/><path d="M20.004 13l-3.961 1.737L-.09 1.889-2.179-.693l4.236-.581 6.58 5.537 5.296 3.73L20.004 13z" fill="#f7fcff"/><g fill="#f50100"><path d="M19.869 13.873l-2.018 1.008-8.036-6.918-2.383-.773L-2.38-.684H.453l9.807 7.688 2.605.927 7.004 5.943z"/><g fill-rule="evenodd"><path d="M9.985 0h-2v6H0v2h7.985v6h2V8H18V6H9.985V0z"/></g></g><path fill-rule="evenodd" d="M6.485 0h5v4.5H18v5h-6.515L11.5 14h-5l-.015-4.5H0v-5h6.485V0zm1.5 6H0v2h7.985v6h2V8H18V6H9.985V0h-2v6z" fill="#f7fcff"/></g><g clip-path="url(#C)" fill="#f7fcff"><path d="M9 20.5l-1.302 1.203.129-1.768-1.752-.268 1.462-1.001-.883-1.537 1.695.519L9 16l.651 1.648 1.695-.519-.883 1.537 1.462 1.001-1.752.268.129 1.768L9 20.5zM22 13l-.868.802.086-1.178-1.168-.178.975-.668-.589-1.024 1.13.346L22 10l.434 1.099 1.13-.346-.589 1.024.975.668-1.168.178.086 1.178L22 13zm2-8l-.868.802.086-1.178-1.168-.178.975-.668-.589-1.024 1.13.346L24 2l.434 1.099 1.13-.346-.589 1.024.975.668-1.168.178.086 1.178L24 5zm5 4l-.868.802.086-1.178-1.168-.178.975-.668-.589-1.024 1.13.346L29 6l.434 1.099 1.13-.346-.589 1.024.975.668-1.168.178.086 1.178L29 9zm-4 13l-.868.802.086-1.178-1.168-.178.975-.668-.589-1.024 1.13.346L25 19l.434 1.099 1.13-.346-.589 1.024.975.668-1.168.178.086 1.178L25 22zm3.5-7.75l-.882.463.168-.982-.713-.695.986-.143L28.5 12l.441.893.986.143-.713.695.168.982-.882-.463z"/></g></g><defs><clipPath id="A"><path fill="#fff" d="M0 0h32v24H0z"/></clipPath><clipPath id="B"><path fill="#fff" d="M0 0h18v14H0z"/></clipPath><clipPath id="C"><path fill="#fff" transform="translate(6 2)" d="M0 0h25v21H0z"/></clipPath></defs></svg>
