<svg xmlns="http://www.w3.org/2000/svg" viewBox="0 0 32 24" fill="none"><style><![CDATA[.B{fill-rule:evenodd}]]></style><g clip-path="url(#B)"><path fill="#fff" d="M0 0h32v24H0z"/><path d="M0 0V24H32V0H0Z" fill="#af0100" class="B"/><mask id="A" maskUnits="userSpaceOnUse" x="0" y="0" width="32" height="24"><path d="M0 0V24H32V0H0Z" fill="#fff" class="B"/></mask><g mask="url(#A)" class="B"><path d="M0 0V8H32V0H0Z" fill="#3ca5d9"/><path d="M0 16v8h32v-8H0z" fill="#73be4a"/><path d="M17.14 15.024c-1.347-.311-2.53-1.47-2.516-3.024.013-1.455.869-2.632 2.35-2.967s3.018.301 3.018.301c-.408-.908-1.83-1.545-2.996-1.541-2.17.006-4.486 1.663-4.508 4.193-.024 2.623 2.473 4.114 4.67 4.109 1.761-.005 2.598-1.138 2.772-1.62 0 0-1.443.861-2.79.55zm.878-1.603l1.175-.818 1.176.818-.415-1.371 1.141-.865-1.432-.029-.47-1.353-.47 1.353-1.432.029 1.141.865-.415 1.371z" fill="#f7fcff"/></g></g><defs><clipPath id="B"><path fill="#fff" d="M0 0h32v24H0z"/></clipPath></defs></svg>
