<svg xmlns="http://www.w3.org/2000/svg" viewBox="0 0 32 24" fill="none"><g clip-path="url(#A)"><path fill="#fff" d="M0 0h32v24H0z"/><g fill-rule="evenodd"><path d="M0 0H32V24H0V0Z" fill="#2e42a5"/><path d="M9 0H29V24L9 0Z" fill="#feca00"/><g fill="#f7fcff"><path d="M6.108 2.794l-1.176.618.225-1.309-.951-.927L5.52.985l.588-1.191.588 1.191 1.314.191-.951.927.225 1.309-1.176-.618z"/><use href="#B"/><use href="#C"/><path d="M16.065 15.229l-1.176.618.225-1.309-.951-.927 1.314-.191.588-1.191.588 1.191 1.314.191-.951.927.224 1.309-1.176-.618zm3.449 4.108l-1.176.618.225-1.309-.951-.927 1.314-.191.588-1.191.588 1.191 1.314.191-.951.927.225 1.309-1.176-.618zm3.813 3.974l-1.176.618.225-1.309-.951-.927 1.314-.191.588-1.191.588 1.191 1.314.191-.951.927.225 1.309-1.176-.618z"/></g></g></g><defs><clipPath id="A"><path fill="#fff" d="M0 0h32v24H0z"/></clipPath><path id="B" d="M9.595 7.074l-1.176.618.225-1.309-.951-.927 1.314-.191.588-1.191.588 1.191 1.314.191-.951.927.225 1.309-1.176-.618z"/><path id="C" d="M12.863 11.238l-1.176.618.225-1.309-.951-.927 1.314-.191.588-1.191.588 1.191 1.314.191-.951.927.224 1.309-1.176-.618z"/></defs></svg>
