<svg xmlns="http://www.w3.org/2000/svg" viewBox="0 0 32 24" fill="none"><g clip-path="url(#A)"><path fill="#fff" d="M0 0h32v24H0z"/><g fill-rule="evenodd"><path d="M22 0H32V24H22V0Z" fill="#2e42a5"/><path d="M10 0H22V24H10V0Z" fill="#feca00"/><path d="M0 0H10V24H0V0Z" fill="#2e42a5"/><path d="M18.612 15.668c.188-1.29 1.521-4.092 1.521-4.092l.618-1.645-2.45.795.58.302-1.134 3.198-.857-.205V7.853l.678-.05-1.672-2.431-1.633 2.481h.788v6.169l-.965.161-.689-3.235.398-.333-2.665-.491.796 1.468s1.071 2.517 1.472 4.076l1.654-.127v2.397h1.839V15.54l1.722.127z" fill="#000"/></g></g><defs><clipPath id="A"><path fill="#fff" d="M0 0h32v24H0z"/></clipPath></defs></svg>
