<svg xmlns="http://www.w3.org/2000/svg" viewBox="0 0 32 24" fill="none"><g clip-path="url(#B)"><path fill="#fff" d="M0 0h32v24H0z"/><rect width="32" height="24" rx="2" fill="#5eaa22"/><mask id="A" maskUnits="userSpaceOnUse" x="-8" y="-3" width="48" height="30" fill="#000"><path fill="#fff" d="M-8-3h48v30H-8z"/><path fill-rule="evenodd" d="M16 12L32 0H0l16 12zm0 0L0 24h32L16 12z"/></mask><path fill-rule="evenodd" d="M16 12L32 0H0l16 12zm0 0L0 24h32L16 12z" fill="#dd2c2b"/><path d="M32 0l1.5 2 6-4.5H32V0zM0 0v-2.5h-7.5l6 4.5L0 0zm0 24l-1.5-2-6 4.5H0V24zm32 0v2.5h7.5l-6-4.5-1.5 2zM30.5-2l-16 12 3 4 16-12-3-4zM0 2.5h32v-5H0v5zM17.5 10L1.5-2l-3 4 16 12 3-4zm-3 0l-16 12 3 4 16-12-3-4zM0 26.5h32v-5H0v5zM33.5 22l-16-12-3 4 16 12 3-4z" fill="#fff" mask="url(#A)"/><g fill-rule="evenodd"><path d="M16 18a6 6 0 1 0 0-12 6 6 0 1 0 0 12z" fill="#fff"/><g fill="#dd2c2b" stroke="#5eaa22" stroke-width=".25"><path d="M15.43 10.387l-1.162.013.592-1-.592-1 1.162.013L16 7.4l.57 1.013 1.162-.013-.592 1 .592 1-1.162-.013L16 11.4l-.57-1.013z"/><use href="#C"/><path d="M17.93 14.487l-1.162.013.592-1-.592-1 1.162.013.57-1.013.57 1.013 1.162-.013-.592 1 .592 1-1.162-.013-.57 1.013-.57-1.013z"/></g></g></g><defs><clipPath id="B"><path fill="#fff" d="M0 0h32v24H0z"/></clipPath><path id="C" d="M12.93 14.487l-1.162.013.592-1-.592-1 1.162.013.57-1.013.57 1.013 1.162-.013-.592 1 .592 1-1.162-.013-.57 1.013-.57-1.013z"/></defs></svg>
