<svg xmlns="http://www.w3.org/2000/svg" viewBox="0 0 32 24" fill="none"><style><![CDATA[.B{fill-rule:evenodd}.C{fill:#fff}.D{fill:#f7fcff}.E{fill:#f50100}]]></style><g clip-path="url(#D)"><path d="M0 0h32v24H0z" class="C"/><path d="M0 0V24H32V0H0Z" fill="#af0100" class="B"/><mask id="A" maskUnits="userSpaceOnUse" x="0" y="0" width="32" height="24"><path d="M0 0V24H32V0H0Z" class="B C"/></mask><g mask="url(#A)"><path d="M21.03 11.043h8.889v8.99s-.276 1.238-1.987 2.055-2.457.817-2.457.817-2.726-.67-3.289-1.297-1.155-.859-1.155-1.955v-8.61z" class="B C"/><mask id="B" maskUnits="userSpaceOnUse" x="21" y="11" width="9" height="12"><path d="M21.03 11.043h8.889v8.99s-.276 1.238-1.987 2.055-2.457.817-2.457.817-2.726-.67-3.289-1.297-1.155-.859-1.155-1.955v-8.61z" class="B C"/></mask><g mask="url(#B)"><path d="M25.455 11.57c.033-.048.051-.094.051-.094l-.003.15c.032.029.071.052.117.052l.197-.117s-.045.258.014.251c0 0 .184-.121.257-.056 0 0-.214.245.044.247 0 0 .324-.052.296.098 0 0-.243.445-.141.474l.401-.012s-.268.233-.261.332l.134.105s.075-.185.138-.034c0 0 .008.274-.034.274l-.356.114s-.023.134.104.134c0 0 .295-.125.303.002 0 0-.039.146-.056.27l-.022.487s.023-.017.247.247c0 0 .566.357.669.275.029-.023.047-.069.068-.122.056-.138.128-.318.441-.221l.003.001c.43.133.534.166.425.341s-.522.596-.522.596l-.358 1.438h.768c.232 0 .444.09.485.282s.052.565.052.61c0 .006-.001.014-.002.024-.007.062-.022.186.162.186 0 0 .367.047.291.074 0 0-.26-.05-.262.179 0 0-.1.029-.052.312 0 0 .202.62.068.492 0 0-.274-.322-.274-.46 0 0-.196.077-.19.279 0 0-.186.248-.18.006 0 0 .314-.596.139-.461 0 0-.228.492-.257.418l-.844-.228-.322 1.415s.086.265.322.265c.085 0 .161-.033.231-.064.122-.053.223-.098.319.064.151.254.219.278.294.278s.162.097.119.246-.241.261-.326.261c-.032 0-.023.027-.013.061.018.058.043.138-.117.138-.127 0-.191-.015-.254-.03s-.126-.03-.252-.03l-.088.001c-.217.003-.401.005-.401-.139s-.167-.262-.315-.371l-.072-.054c-.159-.122-.506-1.498-.506-1.498l-.656-4.133-.02-.959-.02.959-.656 4.133s-.347 1.376-.506 1.498l-.072.054c-.148.109-.315.232-.315.371s-.184.141-.401.139l-.088-.001c-.126 0-.189.015-.252.03s-.127.03-.254.03c-.16 0-.136-.079-.117-.138.011-.034.019-.061-.013-.061-.086 0-.283-.112-.326-.261s.044-.246.119-.246.142-.024.294-.278c.097-.162.198-.117.32-.064.069.03.145.064.231.064.236 0 .322-.265.322-.265l-.322-1.415-.844.228c-.03.075-.257-.418-.257-.418-.176-.135.139.461.139.461.006.243-.18-.006-.18-.006.006-.202-.19-.279-.19-.279 0 .137-.275.46-.275.46-.134.128.068-.492.068-.492.048-.283-.052-.312-.052-.312-.002-.229-.262-.179-.262-.179-.076-.027.291-.074.291-.074.183 0 .169-.124.162-.186l-.002-.024c0-.045.011-.418.052-.61s.254-.282.485-.282h.768l-.358-1.438s-.413-.42-.522-.596-.004-.208.425-.341l.003-.001c.313-.097.385.083.441.221.021.053.04.099.068.122.104.082.669-.275.669-.275.224-.264.247-.247.247-.247l-.021-.487c-.017-.124-.056-.27-.056-.27.008-.127.303-.002.303-.002.127 0 .104-.134.104-.134l-.356-.114c-.042 0-.034-.274-.034-.274.063-.151.138.034.138.034l.134-.105c.007-.098-.261-.332-.261-.332l.401.012c.102-.028-.141-.474-.141-.474-.028-.15.296-.098.296-.098.258-.002.044-.247.044-.247.073-.066.256.056.256.056.06.007.014-.251.014-.251l.197.117c.046 0 .085-.022.117-.052l-.003-.15s.018.046.051.094z" fill="#cf142b" class="B"/><path d="M21.222 20l-.327-.321v3.643h3.872 1.36H30v-3.643l-.327.321c.049-.384-.025-.261-.114-.113-.042.07-.087.145-.124.174s-.043-.085-.05-.195c-.007-.097-.014-.193-.039-.188 0 0-.099-.158-.16-.098-.012.012-.021.1-.032.199l-.043.282c-.022.062-.093-.061-.093-.061s.004-.467-.068-.537-.079.537-.079.537-.11-.45-.22-.42c-.019.005-.028.123-.039.249s-.021.255-.041.299c-.042.091-.14-.549-.14-.549s-.029.524-.127.549c-.016.004-.031-.081-.048-.174s-.034-.188-.055-.223c-.045-.075-.258.218-.258.218l-.149-.605-.412.334h-1.256-1.36-1.256l-.412-.334-.149.605s-.213-.293-.258-.218c-.021.035-.039.133-.055.223s-.032.178-.048.174c-.098-.024-.127-.549-.127-.549s-.098.64-.14.549c-.02-.045-.031-.176-.041-.299s-.02-.244-.039-.249c-.111-.03-.22.42-.22.42s-.007-.607-.079-.537-.068.537-.068.537-.07.123-.093.061c-.019-.053-.032-.174-.043-.282-.01-.1-.019-.187-.032-.199-.061-.06-.16.098-.16.098-.025-.005-.032.091-.039.188-.008.11-.016.222-.05.195s-.082-.105-.124-.174c-.089-.148-.163-.271-.114.113z" fill="#5dc852" class="B"/><path d="M28.18 14.94s.043.11 0 .219v-.219zm-2.694-.177c.074.011.14.029.196.044.132.036.211.057.211-.055 0-.082.216.024.515.17.388.19.916.447 1.286.447.322 0 .445-.104.487-.21v.425c0 .076.017.166.032.251.029.155.054.293-.032.293-.134 0-.735.422-.735.909s.735.886.735.886-.487 1.712-.912 1.974c-.258.159-.412.029-.492-.04-.052-.044-.074-.063-.074.04 0 .262-.369.631-.809.776-.284.094-.201.166-.107.248.052.045.107.092.107.148 0 .126-.347-.05-.486-.126-.139.076-.486.252-.486.126 0-.056.055-.103.107-.148.094-.082.178-.154-.107-.248-.44-.146-.809-.515-.809-.776 0-.103-.022-.084-.074-.04-.081.069-.234.199-.492.04-.426-.262-.912-1.974-.912-1.974s.735-.4.735-.886-.6-.909-.735-.909c-.087 0-.061-.137-.032-.293.016-.085.032-.175.032-.251v-.425c.042.106.165.21.487.21.37 0 .897-.258 1.286-.447.298-.146.514-.251.514-.17 0 .112.079.09.211.055l.196-.044c.007-.007.014-.011.022-.011l.057.002.057-.002c.008 0 .015.004.022.011zm-2.852.177s-.043.11 0 .219v-.219z" fill="#4abce6" class="B"/><mask id="C" maskUnits="userSpaceOnUse" x="22" y="14" width="7" height="8"><path d="M28.18 14.94s.043.11 0 .219v-.219zm-2.694-.177c.074.011.14.029.196.044.132.036.211.057.211-.055 0-.082.216.024.515.17.388.19.916.447 1.286.447.322 0 .445-.104.487-.21v.425c0 .076.017.166.032.251.029.155.054.293-.032.293-.134 0-.735.422-.735.909s.735.886.735.886-.487 1.712-.912 1.974c-.258.159-.412.029-.492-.04-.052-.044-.074-.063-.074.04 0 .262-.369.631-.809.776-.284.094-.201.166-.107.248.052.045.107.092.107.148 0 .126-.347-.05-.486-.126-.139.076-.486.252-.486.126 0-.056.055-.103.107-.148.094-.082.178-.154-.107-.248-.44-.146-.809-.515-.809-.776 0-.103-.022-.084-.074-.04-.081.069-.234.199-.492.04-.426-.262-.912-1.974-.912-1.974s.735-.4.735-.886-.6-.909-.735-.909c-.087 0-.061-.137-.032-.293.016-.085.032-.175.032-.251v-.425c.042.106.165.21.487.21.37 0 .897-.258 1.286-.447.298-.146.514-.251.514-.17 0 .112.079.09.211.055l.196-.044c.007-.007.014-.011.022-.011l.057.002.057-.002c.008 0 .015.004.022.011zm-2.852.177s-.043.11 0 .219v-.219z" class="B C"/></mask><g mask="url(#C)" class="B"><path d="M22.465 16.893l3.471-.233c1.284 0 .594.079 1.087.134l.989.099v4.393h-5.547v-4.393z" class="C"/><path d="M22.985 16.273s-.179-.35.546-.475.949-.178 1.224.149.833 1.733.417 2.111-.707.776-.872.637.188-.637-.684-.637h-1.169l.538-1.784z" fill="#ffda3a"/><path d="M26.657 16.612l-1.563.479s.142 1.067-.262 1.067-.575-2.309-.575-2.309h-.166l.531 2.54-.364.236 1.116.496 1.892-.962-.61-1.546z" fill="#b35a1f"/></g><path d="M24.406 14.922c-.389.19-.916.447-1.286.447-.258 0-.421-.05-.487-.151v.366c0 .076-.017.166-.032.251-.029.155-.054.293.032.293.134 0 .735.422.735.909 0 .324-.245.62-.735.886.324 1.142.628 1.8.912 1.974.228.14.375.055.465-.017l.027-.023c.052-.044.074-.063.074.04 0 .009.001.019.002.035.03.259.386.602.807.741.285.094.201.166.107.248-.052.045-.107.092-.107.148 0 .099.162.058.486-.125.324.183.486.224.486.125 0-.056-.055-.103-.107-.148-.095-.082-.178-.154.107-.248.421-.139.777-.483.808-.747.001-.01.001-.019.001-.029 0-.103.022-.084.076-.038l.028.024c.087.069.233.155.461.014.284-.174.588-.832.912-1.974-.49-.266-.735-.562-.735-.886 0-.486.601-.909.735-.909.087 0 .061-.137.032-.293-.016-.085-.032-.175-.032-.251v-.366c.045-.069.045-.162 0-.278v.278c-.066.101-.228.151-.487.151-.37 0-.897-.258-1.286-.447-.298-.146-.515-.251-.515-.17 0 .112-.079.09-.211.055l-.192-.044c-.008-.008-.017-.011-.026-.011l-.057.002-.057-.002c-.009 0-.018.004-.026.011-.072.011-.137.029-.192.044-.132.036-.211.057-.211-.055 0-.082-.216.024-.514.17z" fill="#ffd129" class="B"/><path d="M29.919 11.043H21.03v8.61c0 .845.352 1.177.771 1.572l.384.384c.376.418 1.472.85 3.289 1.297.497 0 1.317-.272 2.457-.817s1.803-1.23 1.987-2.055v-8.99zm-8.109 9.897c-.419-.406-.57-.7-.57-1.287v-8.395h8.47v8.751c-.175.742-.79 1.371-1.866 1.885-1.095.523-1.884.788-2.345.797-1.76-.434-2.824-.855-3.159-1.227l-.082-.088-.233-.231a36.78 36.78 0 0 1-.215-.204z" fill="#000" class="B"/></g><g clip-path="url(#E)"><path fill="#2e42a5" d="M0 0h18v14H0z"/><path d="M-2.004 13l3.961 1.737L18.09 1.889l2.089-2.582-4.236-.581-6.58 5.537-5.296 3.73L-2.004 13z" class="D"/><path d="M-1.462 14.217l2.018 1.008L19.429-.933h-2.833l-18.058 15.15z" class="E"/><path d="M20.004 13l-3.961 1.737L-.09 1.889-2.179-.693l4.236-.581 6.58 5.537 5.296 3.73L20.004 13z" class="D"/><path d="M19.869 13.873l-2.018 1.008-8.036-6.918-2.383-.773L-2.38-.684H.453l9.807 7.688 2.605.927 7.004 5.943z" class="E"/><path d="M9.985 0h-2v6H0v2h7.985v6h2V8H18V6H9.985V0z" class="B E"/><path d="M6.485 0h5v4.5H18v5h-6.515L11.5 14h-5l-.015-4.5H0v-5h6.485V0zm1.5 6H0v2h7.985v6h2V8H18V6H9.985V0h-2v6z" class="B D"/></g></g></g><defs><clipPath id="D"><path d="M0 0h32v24H0z" class="C"/></clipPath><clipPath id="E"><path d="M0 0h18v14H0z" class="C"/></clipPath></defs></svg>
