<svg xmlns="http://www.w3.org/2000/svg" viewBox="0 0 32 24" fill="none"><style><![CDATA[.B{fill-rule:evenodd}.C{fill:#cf1225}]]></style><g clip-path="url(#B)"><path fill="#fff" d="M0 0h32v24H0z"/><path d="M0 0V24H32V0H0Z" fill="#ffd221" class="B"/><mask id="A" maskUnits="userSpaceOnUse" x="0" y="0" width="32" height="24"><path d="M0 0V24H32V0H0Z" fill="#fff" class="B"/></mask><g mask="url(#A)"><path d="M-3.067 10.615l2.008-4.579 34.827 15.272-2.008 4.579-34.827-15.272z" fill="#313131"/><path d="M-3.017 5.57L-1.01.99l36.559 16.023-2.007 4.579L-3.017 5.57z" fill="#faf9f9"/><path d="M7.331 12.397C5.912 10.656 6.15 9.479 6.15 9.479s1.452.053 1.436.989c0 .396.521.77.969 1.093.339.244.638.458.638.63 0 .398.3 4.41.3 4.41s-.209.365-1.212.365-.949-.577-.949-.577c.608-.745 0-3.991 0-3.991zm17.339 0c1.419-1.741 1.181-2.918 1.181-2.918s-1.452.053-1.436.989c0 .396-.521.77-.969 1.093-.34.244-.638.458-.638.63 0 .398-.3 4.41-.3 4.41s.209.365 1.212.365.949-.577.949-.577c-.608-.745 0-3.991 0-3.991zm-8.61-9.522l1.127.804-.738.197.738.638-.919-.233v.645h.919l.307 1.511-.356-.252-.356.252-.356-.252-.356.252-.367-.252-.366.252-.367-.252-.366.252.462-1.511h.851V2.875h.142zm5.025 5.077s-.343.304-1.08 0c-.246-.101-.516-.279-.797-.464-.561-.369-1.168-.768-1.727-.657-.839.166-1.212.567-1.212.567v-.922h-.102-.158-.102v.922s-.373-.4-1.212-.567c-.559-.111-1.166.289-1.727.657-.281.185-.551.362-.797.464-.737.304-1.08 0-1.08 0s0 .257.548.653c.238.172.509.159.741.09-.171.129-.255.281.019.403.566.252 1.497-.412 1.599-.487-.114.085-1.238.93-.723.93.543 0 1.422-.711 1.422-.711s-1.067 1.023-.493 1.183c.365.101.801-.431 1.006-.746.007.067.068.108.135.153.086.057.181.121.181.252 0 .169.042.198.079.223.029.02.054.037.054.118v.233l-.133.196a1.3 1.3 0 0 0 .133.547c.101.184.049.338-.04.602l-.093.293c-.133.461.133 1.249.133 1.249h-.133s.133.097.133.485c0 .316-.088.496-.254.835l-.126.261c-.248.525.247 1.192.247 1.192s-.83-.364-.663 0c.128.28.829.552 1.147.663v.052l.079-.026.079.026v-.052c.319-.111 1.02-.383 1.147-.663.166-.364-.663 0-.663 0s.495-.667.247-1.192l-.126-.261h0c-.166-.339-.254-.519-.254-.835 0-.388.133-.485.133-.485h-.133s.266-.787.133-1.249l-.093-.293c-.089-.264-.141-.419-.04-.602.133-.242.133-.547.133-.547l-.133-.196v-.233c0-.08.026-.098.054-.118.037-.025.079-.054.079-.223 0-.132.095-.195.181-.252.067-.045.129-.086.135-.153.205.315.641.848 1.006.746.574-.159-.493-1.183-.493-1.183s.879.711 1.422.711c.515 0-.609-.846-.723-.93.102.075 1.033.739 1.599.487.273-.122.19-.274.019-.403.232.069.503.081.741-.09.548-.396.548-.653.548-.653zm-1.824.466s.234.187.536.277c-.205-.154-.536-.277-.536-.277zm-2.363.68c-.09-.12-.048-.011.069.17.004-.043-.014-.097-.069-.17zm-1.62 0c.09-.12.048-.011-.069.17-.004-.043.014-.097.069-.17zm-1.272-.493zm-1.091-.186s-.234.187-.536.277c.205-.154.536-.277.536-.277z" class="B C"/><path d="M11.229 9.578s-1.194 1.624-1.061 3.358 1.548 5.771 5.747 5.771h.108c4.449 0 5.712-4.45 5.712-6.051 0-1.614-1.007-3.078-1.007-3.078s.118 2.166 0 3.078c-.355 2.75-2.088 4.021-4.735 4.021-2.664 0-4.313-1.318-4.764-4.021-.146-.874 0-3.078 0-3.078z" class="B C"/><path d="M9.066 19.751s.217-.62.483-.62-.51-.538 0-.691 1.294.607 1.294-.152-.663-1.174-.176-1.174.996-.145.996-.145 2.073 2.162 4.149 2.162 4.571-2.017 4.571-2.017.92-.234.92.131-.202.916-.202.916.645-.127.973 0 0 .735 0 .735v.235s.853-.188.853.148-.412.144-1.246.24-1.152.749-1.676.749-.637-.517-.637-.517-1.625.881-3.556.881-3.097-.881-3.097-.881.182.904-.435.71-1.248-1.423-1.989-1.183-1.224.472-1.224.472z" class="B C"/><path d="M12.062 16.165l.121-.124.201-.205a.62.62 0 0 1 .009.123c0 .377.013.661.05.858.026.141.062.232.127.276.094.063.188.008.275-.123.2-.301.577-.338.577-.223 0 .03-.012.062-.085.241l-.032.08c-.051.135-.074.233-.063.318.017.127.11.199.262.199.169 0 .28-.109.402-.324l.058-.104h0 0l.006-.011.054-.088c.045-.062.054-.058.153.176l.126.304.079.192c.065.153.111.243.159.306.11.145.242.144.399.009a1.27 1.27 0 0 1 .106-.081l.118-.077h0l.103-.067c.091-.064.136-.114.136-.188-.001-.094-.079-.152-.235-.21l-.072-.03h0 0l-.028-.012c.004-.001.01-.004.019-.008l.008-.004a1.23 1.23 0 0 1 .471-.084h.001c.02.006.02.015.02.038v.003a1.19 1.19 0 0 1-.056.267l-.015.057c-.049.191-.063.307-.029.407.05.146.191.197.41.154.296-.059.441-.176.478-.357a.67.67 0 0 0 .011-.15c0-.116.001-.117.1-.117.141 0 .197.05.257.189l.021.051c.069.166.133.239.278.239.096 0 .164-.041.152-.134-.003-.024-.011-.045-.026-.074l-.012-.023h0l-.021-.041c-.09-.183-.054-.323.254-.521l.342-.235h0 0 0l.202-.139a1.35 1.35 0 0 1 .008.11l.005.132.002.064c.013.335.083.641.184.766.172.211.338.016.451-.448.108-.444.262-.862.413-1.116.074-.124.143-.202.195-.226.035-.016.059-.005.096.061.136.247.345.476.522.544.262.101.418-.112.418-.585 0-.397.064-.713.171-.957.037-.084.076-.153.114-.207a.48.48 0 0 1 .046-.058l-.113-.122a1.05 1.05 0 0 0-.196.318c-.116.266-.185.606-.185 1.026 0 .374-.074.475-.196.428-.133-.051-.318-.253-.437-.469-.075-.135-.185-.186-.304-.132-.091.041-.18.141-.27.293-.16.27-.32.704-.432 1.162-.049.199-.099.326-.167.38-.072-.088-.134-.364-.146-.664l-.002-.063h0L18.105 17l-.011-.138c-.017-.108-.071-.171-.169-.146-.038.01-.223.139-.39.254h0l-.232.158c-.381.244-.441.479-.314.739l.01.02c-.03-.014-.052-.05-.084-.129l-.022-.053c-.083-.194-.19-.29-.407-.29-.209 0-.264.088-.264.285 0 .059-.002.085-.008.115-.022.107-.112.18-.349.227-.148.029-.206.009-.224-.044s-.008-.15.033-.309l.015-.056c.048-.18.06-.235.062-.308.003-.127-.059-.212-.184-.212-.199 0-.419.04-.542.101-.202.1-.162.27.089.363l.102.043h0c.014.007.022.01.024.01l-.063.047-.092.06h0 0 0 0l-.129.084-.12.091c-.092.078-.117.079-.165.016-.037-.048-.078-.129-.137-.27l-.078-.188-.127-.308c-.141-.333-.293-.408-.436-.209-.02.027-.039.059-.064.105l-.008.014-.056.1c-.095.167-.17.241-.261.241-.075 0-.095-.015-.099-.053-.006-.048.012-.125.053-.235l.03-.076c.091-.224.098-.241.098-.306 0-.341-.604-.282-.876.128-.023.035-.043.058-.058.069a.52.52 0 0 1-.048-.158c-.034-.184-.047-.461-.047-.827 0-.232-.07-.355-.22-.288-.068.03-.07.033-.274.254l-.112.115a.49.49 0 0 1-.111.084c-.047.025-.064.009-.09-.099s-.035-.271-.035-.535v-.111-.114c0-.187-.05-.292-.173-.292-.042 0-.084.014-.137.041l-.064.035-.01.006-.056.032c-.113.064-.188.094-.258.094a.08.08 0 0 0-.024.003h0c.002-.005.01-.014.019-.033.047-.091.172-.239.373-.437l-.113-.121c-.214.21-.348.368-.405.481-.079.155-.018.276.15.276.106 0 .202-.037.338-.115.157-.09.165-.094.188-.094a.42.42 0 0 0 .009.124v.113.111c0 .278.009.445.039.574.046.2.16.296.324.21.046-.024.094-.061.146-.109zm.339-.339h0zm2.663 1.547h0zm2.901-.493h-.002.001.001zm-4.132 2.87c-.073.196-.187.261-.317.163a.75.75 0 0 1-.131-.141l-.012-.016-.125-.163c-.112-.139-.208-.226-.312-.271l-.01-.004h0l-.182-.079-.029-.014c-.153-.075-.241-.152-.325-.297-.066-.113-.13-.267-.238-.564l.154-.059.225.537a.51.51 0 0 0 .254.231l.026.013.178.077h0l.009.004c.135.057.249.161.376.319l.13.169h0l.009.011a.63.63 0 0 0 .1.11c.024.005.044-.027.067-.087.05-.136.006-.241-.116-.35l-.033-.027h0 0 0l-.14-.122c-.047-.069-.007-.14.065-.159a.64.64 0 0 1 .157-.012c.265 0 .338.155.387.553v.007c.039.313.078.399.212.399.151 0 .243-.06.403-.231l.035-.038c.204-.218.348-.291.588-.224.192.053.274.148.294.294l.005.056c.009.123.031.143.27.143a6.2 6.2 0 0 1 .57.029l.027.002.194.017.163.009a.5.5 0 0 0 .066-.004c.006-.048.035-.082.149-.212l.033-.038c.054-.063.077-.106.076-.113 0-.001-.048-.019-.178-.019-.119 0-.179-.015-.19-.099-.009-.07.032-.104.122-.152.103-.055.291-.126.517-.198l.621-.168a1.65 1.65 0 0 1 .227-.035c.107-.006.17.009.17.105 0 .04.113.177.225.24.134.075.229.046.295-.129.096-.255.296-.531.49-.689.105-.085.201-.13.284-.123.112.01.171.107.171.252h-.164c0-.068-.009-.083-.021-.084-.031-.003-.093.027-.168.087a1.6 1.6 0 0 0-.439.617c-.103.275-.309.337-.526.216-.133-.074-.26-.214-.299-.325a1.48 1.48 0 0 0-.212.032 6.34 6.34 0 0 0-.605.164l-.362.128c.117.017.185.06.202.142s-.022.153-.112.259l-.035.041-.108.13c0 .111-.085.142-.228.142-.046 0-.1-.003-.176-.009l-.197-.018-.025-.002-.556-.029c-.323 0-.417-.085-.434-.298l-.004-.046c-.01-.079-.045-.119-.174-.154-.168-.047-.26 0-.428.179l-.035.037c-.189.202-.313.283-.521.283-.235 0-.312-.126-.361-.452l-.017.054zm.014-.149l-.001-.007c-.015-.103-.031-.182-.052-.242.081.102.109.215.069.344l-.016-.095zm2.999-.122l.004.001h-.002l-.002-.001zm-.003.55l-.004.001.003-.001h.001z" fill="#f6e017" class="B"/></g></g><defs><clipPath id="B"><path fill="#fff" d="M0 0h32v24H0z"/></clipPath></defs></svg>
