<svg xmlns="http://www.w3.org/2000/svg" viewBox="0 0 32 24" fill="none"><style><![CDATA[.B{fill-rule:evenodd}.C{fill:#d52c1e}.D{fill:#027934}.E{fill:#864c26}.F{fill:#ffe000}.G{fill:#e7e7e7}.H{fill:#925229}.I{fill:#e8a30c}.J{fill:#e1e5e8}]]></style><g clip-path="url(#B)"><path fill="#fff" d="M0 0h32v24H0z"/><path d="M0 0V24H32V0H0Z" fill="#feca00" class="B"/><mask id="A" maskUnits="userSpaceOnUse" x="0" y="0" width="32" height="24"><path d="M0 0V24H32V0H0Z" fill="#fff" class="B"/></mask><g mask="url(#A)"><path d="M0 0V8H32V0H0Z" fill="#db501c" class="B"/><path d="M0 16v8h32v-8H0z" fill="#5eaa22" class="B"/><path d="M12.446 9.959l.036-.035 7.22 6.945-.036.035-7.22-6.945z" class="E"/><path d="M20.221 16.417l-.031.04-8.399-6.17.031-.04 8.399 6.17z" class="E"/><path d="M20.398 15.802l-.025.043-9.343-5.086.025-.043 9.343 5.086z" fill="#a05a2c"/><path d="M11.602 9.112l.707.468-.04.027.05.03c.02.012.034.027.042.044.014-.042.014-.094-.001-.155l-.037-.149.084.131c.133.208.153.356.05.44s-.261.061-.476-.058l-.088-.048.1.002c.082.001.152-.008.211-.029l-.041-.011c-.035-.009-.06-.033-.078-.071l-.069.047-.414-.668zm-.849.529l.778.338-.035.034.056.021c.022.009.038.021.049.036.007-.044-.003-.094-.028-.152l-.062-.14.105.114c.167.181.213.324.125.425s-.246.105-.479.026l-.095-.032.099-.016a.62.62 0 0 0 .203-.065l-.043-.004c-.036-.003-.066-.023-.09-.059l-.06.059-.524-.586zm.051.812L10 10.184l.573.538.055-.064c.027.034.059.051.095.051h.043c-.052.035-.117.063-.197.083l-.097.024.097.024c.239.059.398.038.475-.068s.021-.246-.162-.412l-.115-.104.075.134c.03.055.044.104.041.149-.012-.014-.03-.025-.052-.032l-.059-.017.033-.038zm-.088.025v-.001l-.515-.172.367.345.03-.035-.016-.034.003-.001-.025-.026.099-.085.012.002.043.009z" class="B G"/><path d="M13.471 16.213l.835-1.489 1.171.315-.843 1.359h-.328v.148l-.835-.334z" class="B H"/><path d="M13.114 10.489l-.553.574-.201 3.794 1.991.29s-.867-.762-.995-1.232-.169-2.225.073-2.492l.189.11.152-.452" class="B F"/><path d="M11.189 10.747l-.214 3.483c0 .52.442 1.759 1.449 1.759s2.389-.554 2.389-.78-.412-.388-.412-.388-1.852.127-1.852-.591.126-2.841.236-3.092.491-.628.491-.628l-.727-.54-.124.54-.466-.159-.142.787-.627-.391z" class="B C"/><path d="M13.777 11.076l-.134.419-.271-.114s-.404 1.896 0 2.691 1.423.852 1.423.852l-.43-3.428-.588-.419z" class="B D"/><path d="M13.717 13.638l-.97.768s-.266.382 0 .67 1.004.583 1.178.235.691-.757.691-.757l-.899-.915z" class="B I"/><path d="M14.479 10.743c.236-.205.354-.456.264-.559s-.355-.021-.591.184-.354.456-.264.559.355.021.591-.184z" class="B J"/><path d="M13.883 9.303l-.138-.026c-.307-.047-.46.016-.46.188 0 .294.196.611.196.833s.01.567.104.394.573-.691.573-.691l-.274-.45s.679.076.381-.085m1.705 5.912l-.509-.005c-.378.374-.413.877-.115 1.484 0 0 .098.141.132.128.048-.018.115-.223.115-.223-.023-.593.355-.986.378-1.384z" class="B C"/><path d="M15.325 15.394l.183-.085c.18.375.09.763-.258 1.148l-.151-.132c.151-.442.151-.625.226-.931z" class="B F"/><path d="M15.091 15.382l.191-.056c.092.314.046.638-.134.966l-.175-.096c.156-.284.194-.554.118-.815z" class="D"/><path d="M19.554 9.959l-.036-.035-7.22 6.945.036.035 7.22-6.945z" class="E"/><path d="M11.779 16.417l.031.04 8.399-6.17-.031-.04-8.399 6.17z" class="E"/><path d="M11.602 15.802l.025.043 9.343-5.086-.025-.043-9.343 5.086z" fill="#a05a2c"/><path d="M20.398 9.112l-.707.468.04.027-.05.03c-.02.012-.034.027-.042.044-.014-.042-.014-.094.001-.155l.037-.149-.084.131c-.133.208-.153.356-.05.44s.261.061.476-.058l.087-.048-.1.002c-.082.001-.152-.008-.211-.029l.041-.011c.035-.009.06-.033.078-.071l.069.047.415-.668zm.849.529l-.778.338.035.034-.056.021c-.022.009-.038.021-.049.036-.007-.044.003-.094.028-.152l.063-.14-.105.114c-.167.181-.213.324-.125.425s.246.105.479.026l.095-.032-.099-.016a.62.62 0 0 1-.203-.065l.043-.004c.036-.003.066-.023.09-.059l.06.059.524-.586zm-.051.812l.805-.269-.573.538-.055-.064c-.027.034-.059.051-.096.051h-.043c.052.035.117.063.197.083l.097.024-.097.024c-.239.059-.398.038-.475-.068s-.021-.246.162-.412l.115-.104-.075.134c-.03.055-.044.104-.041.149.012-.014.03-.025.052-.032l.059-.017-.033-.038zm.088.025v-.001l.515-.172-.367.345-.03-.035.016-.034-.003-.001.024-.026-.099-.085-.012.002-.043.009z" class="B G"/><path d="M18.529 16.213l-.835-1.489-1.171.315.843 1.359h.328v.148l.835-.334z" class="B H"/><path d="M18.887 10.489l.552.574.201 3.794-1.991.29s.867-.762.995-1.232.169-2.225-.073-2.492l-.189.11-.152-.452" class="B F"/><path d="M20.811 10.747l.214 3.483c0 .52-.442 1.759-1.449 1.759s-2.389-.554-2.389-.78.412-.388.412-.388 1.852.127 1.852-.591-.126-2.841-.236-3.092-.491-.628-.491-.628l.727-.54.124.54.466-.159.142.787.627-.391z" class="B C"/><path d="M18.224 11.076l.134.419.271-.114s.404 1.896 0 2.691-1.423.852-1.423.852l.43-3.428.588-.419z" class="B D"/><path d="M18.283 13.638l.97.768s.266.382 0 .67-1.004.583-1.178.235-.691-.757-.691-.757l.899-.915z" class="B I"/><path d="M17.521 10.743c-.236-.205-.355-.456-.264-.559s.355-.021.591.184.355.456.264.559-.355.021-.591-.184z" class="B J"/><path d="M16.03 15.378l.509-.005c.378.374.413.877.115 1.484 0 0-.098.141-.132.128-.048-.018-.114-.223-.114-.223.023-.593-.355-.986-.378-1.384z" class="B C"/><path d="M16.675 15.394l-.183-.085c-.18.375-.09.763.258 1.148l.151-.132c-.151-.442-.151-.625-.226-.931z" class="B F"/><path d="M16.909 15.382l-.191-.056c-.092.314-.046.638.134.966l.174-.096c-.156-.284-.194-.554-.118-.815z" class="D"/><path d="M13.554 12.821c0 1.439 1.063 2.637 2.421 2.637s2.421-1.198 2.421-2.637-1.063-2.637-2.421-2.637-2.421 1.198-2.421 2.637zm4.275 0c0 1.154-.83 2.089-1.854 2.089s-1.854-.935-1.854-2.089.83-2.09 1.854-2.09 1.854.936 1.854 2.09z" fill="#00a6de" class="B"/><path d="M15.974 12.448l-.241.496.006-.548-.44.346.252-.491-.552.128.447-.337-.554-.116.554-.116-.447-.337.552.128-.252-.491.44.346-.006-.548.241.496.241-.496-.006.548.44-.346-.252.491.552-.128-.447.337.554.116-.554.116.447.337-.552-.128.252.491-.44-.346.006.548-.241-.496z" class="B C"/><path d="M14.041 12.941s1.45-1.021 1.806-1.021 1.876 1.027 2.187 1.166 0 2.878 0 2.878h-4.113l.12-3.023z" class="B D"/><path d="M14.03 11.726l.089.05c.489-.825 1.11-1.233 1.868-1.233.849.047 1.485.511 1.909 1.396l.093-.042c-.44-.918-1.108-1.405-2-1.454-.801 0-1.455.43-1.961 1.283zm-.36 1.59l.166-.112.166.112-.059-.187.162-.118-.203-.004-.067-.185-.067.185-.203.004.162.118-.059.188zm.372.634l-.166.112.059-.188-.162-.118.203-.004.067-.185.067.185.203.004-.162.118.059.188-.167-.112zm.245.709l.167-.112.166.112-.059-.187.162-.118-.203-.004-.067-.185-.067.185-.203.004.162.118-.059.188zm.785.386l-.167.112.059-.187-.162-.118.203-.004.067-.185.067.185.203.004-.162.118.059.188-.166-.112zm.709.361l.166-.112.166.112-.059-.188.162-.118-.203-.004-.067-.185-.067.185-.203.004.162.118-.059.188zm2.33-2.201l.166.112-.059-.187.162-.118-.203-.004-.067-.185-.067.185-.203.004.162.118-.059.188.166-.112zm-.04.858l-.166-.112-.166.112.059-.188-.162-.118.203-.004.067-.185.067.185.203.004-.162.118.059.188zm-.578.485l.166.112-.059-.187.162-.118-.203-.004-.067-.185-.067.185-.203.004.162.118-.059.188.166-.112zm-.452.609l-.167-.112-.166.112.059-.187-.162-.118.203-.004.067-.185.067.185.203.004-.162.118.059.188z" fill="#ffc036" class="B"/><path d="M14.683 7.007l.199.145c-.509.457-.605.967-.508 1.405.102.456.553.943 1.375 1.443l-.302.463c-.938-.571-1.478-1.099-1.618-1.727-.144-.647.21-1.149.854-1.727zm2.704 0l-.199.145c.509.457.605.967.508 1.405-.102.456-.553.943-1.375 1.443l.302.463c.938-.571 1.478-1.099 1.618-1.727.144-.647-.21-1.149-.854-1.727z" fill="#036a2d"/><path d="M12.775 8.862s.869-.601 1.282-.601.963-.138 1.05.179.249.225.569.225h.947s-.187-.403.16-.403 1.799.205 2.237.403.46.315.46.315-.405-.234-.854-.117-1.262.632-1.633.632-.667.398-.667.398.024-.204-.313-.102-.33.583-.618.495.083-.791 0-.791-.672-.231-.672-.231-.571-.518-1.42-.401-.528 0-.528 0z" fill="#452c24" class="B"/><path d="M15.871 9.289c.171 0 .309-.123.309-.274s-.138-.274-.309-.274-.309.123-.309.274.138.274.309.274z" class="B G"/><path d="M15.204 9.007s.1-.189.298-.189.569 0 .569.094.03.218-.27.218-.108-.123-.3-.123h-.298z" class="B I"/><path d="M18.736 10.283c.115-.121.18-.413.18-.413s-.514.082-.634 0-.182-.323-.182-.323-.463.212-.287.212.287.157.287.157l.359.132s-.239.236-.119.236.281.121.396 0z" class="B J"/><path d="M17.831 10.384l-.065-.077.452-.354.065.077-.452.354z" class="H"/></g></g><defs><clipPath id="B"><path fill="#fff" d="M0 0h32v24H0z"/></clipPath></defs></svg>
