<svg xmlns="http://www.w3.org/2000/svg" viewBox="0 0 32 24" fill="none"><style><![CDATA[.B{fill-rule:evenodd}]]></style><g clip-path="url(#B)"><g fill="#fff"><path d="M0 0h32v24H0z"/><g class="B"><path d="M0 0H32V24H0V0Z"/></g></g><path d="M0 10.933V0h16L0 10.933z" fill="#feda00" class="B"/><path d="M0 24H32.009V0L0 24Z" fill="#00268d" class="B"/><mask id="A" fill="#fff"><path d="M9.353 5l.527 1.131a4.4 4.4 0 0 1 3.872 4.258l.955.477-1.043.521c-.374 1.823-1.874 3.235-3.742 3.476L9.353 16l-.568-1.136c-1.868-.241-3.369-1.653-3.742-3.476L4 10.867l.955-.477a4.4 4.4 0 0 1 3.836-4.254L9.353 5z" class="B"/></mask><path d="M9.353 5l.527 1.131a4.4 4.4 0 0 1 3.872 4.258l.955.477-1.043.521c-.374 1.823-1.874 3.235-3.742 3.476L9.353 16l-.568-1.136c-1.868-.241-3.369-1.653-3.742-3.476L4 10.867l.955-.477a4.4 4.4 0 0 1 3.836-4.254L9.353 5z" fill="#fff" class="B"/><path d="M9.88 6.131l-.718.334.186.4.438.052.094-.786zM9.353 5l.718-.334-.696-1.494-.732 1.477.71.352zm4.399 5.389l-.792.02.012.476.426.213.354-.708zm.955.477l.354.708 1.417-.708-1.417-.708-.354.708zm-1.043.521l-.354-.708-.344.172-.077.377.776.159zm-3.742 3.476l-.101-.785-.418.054-.189.377.708.354zM9.353 16l-.708.354.708 1.417.708-1.417L9.353 16zm-.568-1.136l.708-.354-.189-.377-.418-.054-.101.785zm-3.742-3.476l.776-.159-.077-.377-.344-.172-.354.708zM4 10.867l-.354-.708-1.417.708 1.417.708.354-.708zm.955-.477l.354.708.426-.213.012-.476-.792-.02zm3.836-4.254l.1.786.421-.054.188-.38-.71-.352zm1.808-.339l-.527-1.131-1.436.669.527 1.131 1.436-.669zm3.945 4.573c-.064-2.599-2.037-4.723-4.57-5.025l-.188 1.573a3.61 3.61 0 0 1 3.174 3.491l1.583-.039zm.517-.211l-.955-.477-.708 1.417.955.477.708-1.417zm-1.043 1.938l1.043-.521-.708-1.417-1.043.521.708 1.417zm-3.995 3.553c2.206-.284 3.976-1.95 4.417-4.102l-1.552-.318c-.306 1.494-1.538 2.652-3.068 2.849l.203 1.571zm-.81-1.14l-.568 1.136 1.417.708.568-1.136-1.417-.708zm.849 1.136l-.568-1.136-1.417.708.568 1.136 1.417-.708zm-5.795-4.099c.441 2.152 2.211 3.818 4.417 4.102l.203-1.571c-1.53-.197-2.761-1.355-3.068-2.849l-1.552.318zm-.621.028l1.043.521.708-1.417-1.043-.521-.708 1.417zm.955-1.894l-.955.477.708 1.417.955-.477-.708-1.417zM8.69 5.35c-2.513.321-4.464 2.435-4.527 5.02l1.584.039a3.61 3.61 0 0 1 3.145-3.488L8.69 5.35zm-.047-.702l-.563 1.136 1.419.703.563-1.136-1.419-.703z" fill="#000" mask="url(#A)"/><path d="M9.376 8.3l-.649 1.089h-1.28l.638 1.144-.638 1.097h1.28l.649 1.12.659-1.12h1.269l-.623-1.097.623-1.144h-1.269L9.376 8.3z" fill="#f00a17" class="B"/></g><defs><clipPath id="B"><path fill="#fff" d="M0 0h32v24H0z"/></clipPath></defs></svg>
