<svg xmlns="http://www.w3.org/2000/svg" viewBox="0 0 32 24" fill="none"><style><![CDATA[.B{fill-rule:evenodd}]]></style><g clip-path="url(#A)"><g fill="#fff"><path d="M0 0h32v24H0z"/><g class="B"><path d="M0 0H32V24H0V0Z"/></g></g><g fill="#f00000" class="B"><path d="M0 11.664V0H16L0 11.664Z"/><path d="M32 11.664V0H16L32 11.664Z"/></g><g fill="#00268d" class="B"><path d="M0 11.664V24H16L0 11.664Z"/><path d="M32 11.664V24.336L16 24L32 11.664Z"/></g><path d="M15.714 14.256l-3.517 2.507 1.291-4.141L10 10.087h4.345L15.714 6l1.452 4.087h4.226l-3.457 2.535 1.314 4.141-3.535-2.507z" fill="#feda00" class="B"/></g><defs><clipPath id="A"><path fill="#fff" d="M0 0h32v24H0z"/></clipPath></defs></svg>
