<svg xmlns="http://www.w3.org/2000/svg" viewBox="0 0 32 24" fill="none"><g clip-path="url(#A)"><path fill="#fff" d="M0 0h32v24H0z"/><g fill="#00268d"><path fill-rule="evenodd" d="M0 0H32V24H0V0Z"/><path d="M1 1H31V23H1V1Z" stroke="#e31d1c" stroke-width="2"/></g><g fill="#e31d1c"><path d="M15 0h2v24h-2z"/><path d="M0 13v-2h32v2z"/></g><path d="M11.609 16H25l-1.416-1.276-3.014-2.639c-.182-.116-.483-.166-.826.202s-.539-.202-.824-.202-.406 0-.82.472l-1.904 2.167h-2.19s-.369-.279-.58-.179-1.396-1.1-1.819-1.189-.7.325-.7.655-.199-.302-.603-.117-.274.651-.274.651S11.34 16 11.609 16z" fill="#059334"/><path fill-rule="evenodd" d="M15.505 11.301l-.926.699.34-1.154-.918-.707h1.144L15.505 9l.382 1.139H17l-.91.707.346 1.154-.931-.699z" fill="#feda00"/></g><defs><clipPath id="A"><path fill="#fff" d="M0 0h32v24H0z"/></clipPath></defs></svg>
