<svg xmlns="http://www.w3.org/2000/svg" viewBox="0 0 32 24" fill="none"><style><![CDATA[.B{fill-rule:evenodd}.C{fill:#f7fcff}]]></style><g clip-path="url(#E)"><path fill="#fff" d="M0 0h32v24H0z"/><path d="M0 0V24H32V0H0Z" fill="#093" class="B"/><mask id="A" maskUnits="userSpaceOnUse" x="0" y="0" width="32" height="24"><path d="M0 0V24H32V0H0Z" fill="#fff" class="B"/></mask><g mask="url(#A)"><g filter="url(#C)" class="B"><use href="#F" fill="#ffd221"/><use href="#F" fill="url(#D)"/></g><path d="M16 17.2a5 5 0 0 0 0-10 5 5 0 0 0 0 10z" fill="#2e42a5" class="B"/><mask id="B" maskUnits="userSpaceOnUse" x="11" y="7" width="10" height="11"><path d="M16 17.2a5 5 0 0 0 0-10 5 5 0 0 0 0 10z" fill="#fff" class="B"/></mask><g mask="url(#B)"><use href="#G" class="B C"/><path d="M16.38 14.57l-.223.117.043-.249-.181-.176.25-.036.112-.226.112.226.25.036-.181.176.043.249-.223-.117zm0 1.2l-.223.117.043-.249-.181-.176.25-.036.112-.226.112.226.25.036-.181.176.043.249-.223-.117zm-1-4.2l-.223.117.043-.249-.181-.176.25-.036.112-.226.112.226.25.036-.181.176.043.249-.223-.117zm0 2l-.223.117.043-.249-.181-.176.25-.036.112-.226.112.226.25.036-.181.176.043.249-.223-.117zm-1.4-1l-.223.117.043-.249-.181-.176.25-.036.112-.226.112.226.25.036-.181.176.043.249-.223-.117zm-1.4.8l-.223.117.043-.249-.181-.176.25-.036.112-.226.112.226.25.036-.181.176.043.249-.223-.117zm4.6-3.4l-.223.117.043-.249-.181-.176.25-.036.112-.226.112.226.25.036-.181.176.043.249-.223-.117z" class="B C"/><path d="M9.925 10.997l.15-1.994c4.798.362 8.585 1.939 11.313 4.746l-1.434 1.394c-2.365-2.432-5.692-3.818-10.029-4.145z" class="C"/><path d="M12.289 10.603l.051-.497c3.093.32 5.746 1.505 7.951 3.552l-.34.366c-2.125-1.972-4.676-3.111-7.662-3.421z" fill="#093"/></g></g></g><defs><filter id="C" x="3.809" y="3.704" width="24.32" height="16.467" filterUnits="userSpaceOnUse" color-interpolation-filters="sRGB"><feFlood flood-opacity="0" result="A"/><feColorMatrix in="SourceAlpha" values="0 0 0 0 0 0 0 0 0 0 0 0 0 0 0 0 0 0 127 0"/><feOffset/><feColorMatrix values="0 0 0 0 0.0313726 0 0 0 0 0.368627 0 0 0 0 0 0 0 0 0.28 0"/><feBlend in2="A"/><feBlend in="SourceGraphic"/></filter><linearGradient id="D" x1="32" y1="24" x2="32" y2="0" gradientUnits="userSpaceOnUse"><stop stop-color="#ffc600"/><stop offset="1" stop-color="#ffde42"/></linearGradient><clipPath id="E"><path fill="#fff" d="M0 0h32v24H0z"/></clipPath><path id="F" d="M15.927 3.704l12.202 8.503-12.368 7.964-11.952-8.129 12.118-8.339z"/><path id="G" d="M14.38 14.57l-.223.117.043-.249-.181-.176.25-.036.112-.226.112.226.25.036-.181.176.043.249-.223-.117z"/></defs></svg>
