<svg xmlns="http://www.w3.org/2000/svg" viewBox="0 0 32 24" fill="none"><style><![CDATA[.B{fill:#fff}.C{fill-rule:evenodd}.D{fill:#979797}]]></style><g clip-path="url(#A)"><path d="M0 0h32v24H0z" class="B"/><g class="C"><path d="M0 0H32V24H0V0Z" fill="#ff6230"/><path d="M0 0V24L32 0H0Z" fill="#feca00"/><path d="M26.327 5.194l.517.317-.477.273c.428 0 1.387-.038 1.628-.238l.043-.035c.179-.147 1.904-.675 1.904-.675h-1.074c-.588 0-.872.093-1.142.314l-.045.037c-.157.13-.251.166-.56.166l-.065.037.052-.101c.23.003.483-.141.768-.402.03-.028.199-.089.41-.165.424-.153 1.019-.369 1.019-.506h-.483 0l.001-.002.01-.014c-.048.014-.12.023-.291.033l-.328.028c-.275.038-.494.12-.67.282l-.107.093.521-1.101a2.48 2.48 0 0 1 .255-.446l.059-.08.284-.396a1.09 1.09 0 0 0 .194-.604l-1.238 1.343c-.086.199-.241.41-.428.664-.227.309-.501.683-.757 1.179zm-3.52-1.143l.204-.321a5.04 5.04 0 0 0-.859-.415l-.59-.196c-.168-.058-.241-.101-.277-.159-.254-.403-.452-.536-.896-.536l.667.743c-.511-.238-.663-.285-.832-.285l1.498 1.21.387.006c.003-.176-.093-.338-.283-.495l.188.065a4.65 4.65 0 0 1 .793.383zm-2.912-1.172c-.27-.174-.465-.232-.646-.11l.747.596c-.075-.02-.158-.03-.248-.03-.128 0-.206-.011-.244-.027h-.001c-.012-.007-.015-.011-.023-.023l-.001-.001-.004-.006c-.104-.15-.235-.209-.532-.209-.473 0-.735.057-.828.249 0 0 .898-.06 1.633.394.306 0 .436.193.404.69l.387.023c.019-.299-.021-.544-.119-.725l.261.197c.199.121.318.225.356.297l.002.004c.005.022-.002.027-.017.038l-.009.006.232.302c.184-.134.239-.328.136-.522-.077-.147-.242-.29-.495-.444l-.317-.21-.15-.11-.525-.378zm-2.04 1.678c.285 0 .686.115 1.195.348l.165-.341c-.556-.255-1.008-.384-1.36-.384-.617 0-1.098.179-1.098.555 0 .269.212.432.564.5l-.176-.5c0-.017.04-.055.148-.096a1.7 1.7 0 0 1 .562-.082zm-.643.976l-.056.373c-.546-.078-1.364-.066-1.536 0 0 0 .982-.46 1.592-.373zm.503 2.026l-.111-.361c-.757.221-1.127.683-1.253.875-.034.03-.052.059-.052.087 0 0 .016-.033.052-.087.143-.128.57-.276 1.12-.441-.538.567-.628 1.148-.641 1.377-.014.043-.015.077-.001.101 0 0-.002-.036.001-.101.069-.208.446-.626.925-1.127l-.273-.253.233-.069zm1.461 3.03l.147-.348c-.722-.317-1.302-.202-1.522-.136-.045.001-.078.012-.096.033 0 0 .033-.015.096-.033.219-.007.74.205 1.375.484zm.133.539l-.205.318c-.577-.385-1.053-.684-1.271-.716.228-.027.82-.04 1.476.398zm-1.576-.382s.035-.009.1-.016c-.045-.006-.078-.002-.1.016zm-1.867-.285l.361-.111c-.221-.757-.682-1.127-.875-1.253-.03-.034-.059-.052-.087-.052 0 0 .033.016.087.052.146.164.319.699.513 1.365zm-1.789-.312l-.302.228c-.411-.559-.756-1.003-.949-1.107.224.053.784.243 1.251.879zm-1.35-.898a.92.92 0 0 0 .099.019c-.04-.021-.073-.028-.099-.019zm11.392 1.488l-.139.264.085-.044c.105.193.16.344.16.473 0 .214-.155.357-.374.357v-.472c-.043 0-.11.062-.11.115 0-.032-.033-.122-.104-.252l.145-.075c-.174-.071-.261-.063-.299-.014-.146.186-.286.333-.423.442 0 0-.086-.57.038-.729.223-.285.586-.285 1.022-.067zm-4.415 3.809v-.472h-.76a.58.58 0 0 0-.122.017c-.071.015-.133.029-.183-.017 0 0-.544-.08-.51-.012.02.042.226.213.441.34a.63.63 0 0 0-.048.055c-.124.159-.038.729-.038.729a2.67 2.67 0 0 0 .423-.442l.015-.021c.025-.037.031-.046.179.026-.005.018-.007.044-.001.085.027.181-.155.464-.155.464h.003c.22 0 .701 0 .701-.213 0-.078-.074-.173-.155-.278l-.146-.207.049-.052h.308z" class="B"/></g><path d="M26.843 5.511l.037.065.11-.063-.108-.066-.039.064zm-.517-.317l-.067-.034-.032.062.059.036.039-.064zm.04.589l-.037-.065-.245.14h.282v-.075zm1.628-.238l-.048-.058h0l.048.058zm.043-.035l-.048-.058h0l.048.058zm1.904-.675l.022.072-.022-.147v.075zm-2.216.314l-.047-.058h0l.048.058zm-.045.037l-.048-.058h0l.048.058zm-.56.166v-.075h-.02l-.017.01.037.065zm-.065.037l-.067-.034-.115.225.219-.125-.037-.065zm.052-.101l.001-.075-.047-.001-.021.041.067.034zm.768-.402l-.051-.055h0l.051.055zm.41-.165l.026.071-.026-.071zm1.019-.506h.075v-.075h-.075v.075zm-.483 0l-.065-.038-.067.113h.132v-.075zm.001-.002l.065.038v-.001l-.065-.037zm.008-.012l-.059-.046h0l.059.046zm.002-.002l-.059-.047h0l.059.046zm-.003-.003l.026.07h0l-.026-.07zm-.288.036l.005.075-.005-.075zm-.328.028l.01.074-.01-.074zm-.67.282l.051.055h0l-.051-.055zm-.107.093l-.067-.033.114.092-.047-.058zm.521-1.101l.069.03h0l-.069-.03zm.255-.446l-.061-.043h0l.061.043zm.059-.08l-.06-.045h0l.06.045zm.284-.396l-.063-.04h0l.063.04zm.194-.604h.075v-.181l-.128.128.053.053zm-1.238 1.343l-.069-.03h0l.069.03zm-.428.664l.06.044h0l-.06-.044zM23.01 3.73l.063.04.041-.065-.066-.04-.039.064zm-.204.321l-.039.064.063.038.039-.062-.063-.04zm-.655-.736l.026-.07h0l-.026.07zm-.867-.355l.064-.04h0l-.064.04zm-.896-.536v-.075h-.159l.102.123.058-.048zm.667.743l-.032.068.085-.121-.053.053zm-.832-.285v-.075h-.228l.184.135.044-.06zm1.498 1.21l-.075-.001-.001.075.075.001.001-.075zm.387.006l-.001.075.075.001.001-.075-.075-.001zm-.283-.495l.024-.071-.072.129.048-.058zm.188.065l.026-.07h0l-.026.07zm-2.765-.899l-.042-.062-.085.057.08.064.047-.059zm.646.11l.041-.063h0l-.041.063zm.101.486l-.019.072.066-.131-.047.059zm-.492-.057l.028-.069h0l-.028.069zm-.001 0l-.029.069h0l.029-.069zm-.008-.004l-.042.062h0l.042-.062zm-.015-.019l-.061.043h0l.061-.043zm-.001-.001l-.061.043h0l.061-.043zm-.004-.006l-.061.043h0l.061-.043zm-1.36.041l-.068-.032-.056.116.128-.009-.005-.075zm1.633.394l-.039.064.018.011h.021v-.075zm.404.69l-.075-.005-.005.075.075.004.005-.075zm.387.023l-.005.075.075.004.005-.075-.075-.005zm-.119-.725l.046-.059-.112.095.066-.036zm.261.197l-.039.064h0l.039-.064zm.356.297l-.066.035h0l.066-.035zm.002.004l-.066.035h0l.066-.035zm.006.016l-.074-.011h0l.074.011zm-.023.022l-.044-.061h0l.044.061zm-.009.006l-.044-.061-.062.045.047.061.059-.046zm.232.302l-.059.046.045.058.059-.043-.044-.061zm.136-.522l-.066.035.066-.035zm-.495-.444l-.039.064.039-.064zm-.317-.21l-.043.061.043-.061zm-.15-.11l-.044.06h0l.044-.06zM19.05 4.905l-.031.068.067.031.032-.066-.067-.033zm.165-.341l.068.033.033-.069-.07-.032-.031.068zm-1.895.67l-.014.074.133.026-.049-.126-.07.027zm-.028-.595l-.026-.07.026.07zm-.137 1.268l-.011.074.074.011.011-.074-.074-.011zm.056-.373l.074.011.011-.075-.075-.011-.011.074zm-1.592.373l-.032-.068.059.138-.027-.07zm1.983 1.291l.072-.022-.022-.071-.071.021.021.072zm.111.361l.021.072.073-.021-.022-.073-.072.022zm-1.417.6h-.075l.142.033-.067-.033zm1.171-.528l.054.052.194-.205-.27.081.021.072zm-.642 1.478l-.065.037.14-.042-.075.005zm.927-1.228l.054.052.053-.055-.056-.052-.051.055zm-.273-.253l-.022-.072-.126.038.096.089.051-.055zm1.842 2.613l.069.029.029-.068-.068-.03-.03.069zm-.147.348l-.03.069.07.031.03-.07-.069-.029zm-1.471-.451l-.057-.048.088.117-.03-.069zm1.398 1.307l-.042.062.063.042.041-.064-.063-.041zm.205-.318l.063.041.04-.062-.061-.041-.042.062zm-1.576-.382l-.048-.057.066.13-.018-.073zm-1.505-.396l.022.072.071-.022-.021-.071-.072.021zm-.361.111l-.072.021.021.073.073-.022-.022-.072zm-.6-1.417V8.97l-.033.142.033-.067zm-1.49 1.333l-.06.044.045.061.061-.046-.045-.06zm.302-.228l.045.06.059-.045-.044-.06-.06.044zm-1.35-.898l-.026-.07.017.145.008-.075zm11.253 1.752l-.066-.035-.112.211.212-.11-.035-.067zm.139-.264l.066.035.036-.068-.069-.034-.034.067zm-.054.22l.066-.036-.035-.064-.065.034.035.067zm-.214.83h-.075v.075h.075v-.075zm0-.472h.075v-.075h-.075v.075zm-.214-.137l-.035-.067-.068.035.037.067.066-.036zm.145-.075l.035.067.144-.074-.15-.062-.029.069zm-.299-.014l.059.046h0l-.059-.046zm-.423.442l-.074.011.02.128.102-.081-.047-.059zm.038-.729l.059.046-.059-.046zm-3.393 3.27h.075v-.075h-.075v.075zm0 .472v.075h.075v-.075h-.075zm-.882-.455l-.016-.073.016.073zm-.183-.017l.05-.056-.017-.015-.023-.003-.011.074zm-.51-.012l-.067.033.067-.033zm.441.34l.053.053.067-.068-.083-.049-.038.065zm-.048.055l.059.046h0l-.059-.046zm-.038.729l-.074.011.019.128.102-.081-.047-.059zm.423-.442l-.059-.046h0l.059.046zm.015-.021l-.063-.041h0l.063.041zm.179.026l.072.021.018-.061-.057-.028-.033.068zm-.001.085l-.074.011h0l.074-.011zm-.155.464l-.063-.041-.074.116h.137V15.3zm.003 0v-.075h0v.075zm.546-.491l-.059.046.059-.046zm-.146-.207l-.055-.051-.038.041.028.048.065-.037zm.049-.052v-.075h-.032l-.022.024.055.051zm7.486-9.102l-.517-.317-.078.128.517.317.078-.128zm-.479.402l.477-.273-.074-.13-.477.273.074.13zm1.543-.361c-.046.038-.137.075-.266.107a3.49 3.49 0 0 1-.438.071c-.32.034-.664.044-.876.044v.15c.216 0 .565-.01.892-.045.163-.017.323-.041.458-.074s.252-.075.326-.137l-.096-.115zm.043-.035l-.043.035.096.116.043-.035-.096-.116zm1.952-.618l-.022-.072-.019.006-.055.017-.198.062-.614.198-.649.226-.244.098c-.063.028-.119.056-.15.082l.095.116c.013-.011.051-.032.116-.061l.236-.095.643-.224.612-.197.198-.062.055-.017.019-.006c0 0 0 0-.022-.072zm-1.074.075h1.074v-.15h-1.074v.15zm-1.095.297c.252-.206.516-.297 1.095-.297v-.15c-.598 0-.901.095-1.189.331l.095.116zm-.045.037l.045-.037-.096-.116-.045.037.096.116zm-.608.183c.156 0 .266-.009.359-.038a.7.7 0 0 0 .249-.146l-.096-.115c-.075.062-.129.097-.197.118s-.162.031-.315.031v.15zm-.028.027l.065-.037-.074-.13-.065.037.075.13zm-.052-.2l-.052.101.133.068.052-.101-.134-.068zm.785-.423c-.283.259-.517.385-.717.383l-.002.15c.261.004.533-.158.82-.422l-.101-.111zm.435-.18l-.274.101-.094.039c-.022.01-.049.024-.066.04l.101.111c-.002.002.003-.003.028-.014l.086-.036.271-.1-.051-.141zm.97-.435a.49.49 0 0 1-.067.053c-.057.038-.14.081-.24.125l-.663.257.051.141.674-.261c.102-.046.194-.092.262-.138a.46.46 0 0 0 .088-.073.16.16 0 0 0 .045-.105h-.15zm-.408.075h.483v-.15h-.483v.15zm0 0h0v-.15h0v.15zm-.063-.115l-.001.002.129.076.001-.002-.129-.076zm.013-.02c-.007.009-.012.017-.014.02l.13.075-.116-.095zm.002-.003l-.002.002.118.093.002-.002-.118-.093zm.082.114c-.02.003-.06.006-.083-.031-.012-.018-.013-.036-.012-.047s.004-.018.005-.022l.125.079c.006-.009.01-.014.014-.022s.005-.012.006-.023 0-.029-.012-.047c-.024-.037-.063-.034-.066-.034l-.029.006.052.141zm-.309.041c.167-.01.251-.019.309-.041l-.052-.141c-.033.012-.093.021-.266.031l.009.15zm-.322.028a3.76 3.76 0 0 1 .322-.028l-.009-.15-.334.029.021.149zm-.629.263c.161-.148.363-.226.629-.263l-.021-.149c-.285.039-.519.126-.71.301l.101.111zm-.11.095l.11-.095-.101-.111-.103.09.095.116zm.404-1.189l-.519 1.097.134.067.522-1.104-.138-.06zm.262-.459c-.109.156-.193.299-.262.459l.138.06a2.41 2.41 0 0 1 .248-.433l-.123-.086zm.06-.082l-.06.082.123.086.058-.079-.121-.089zm.281-.391c-.045.072-.194.274-.281.391l.121.089.287-.4-.127-.08zm.183-.564c0 .196-.059.369-.183.564l.127.08c.134-.212.206-.412.206-.644h-.15zM27.58 3.381a.59.59 0 0 1 .066-.094l.148-.174.42-.451.406-.417.132-.133.037-.037c.013-.013.013-.013-.04-.066l-.053-.053-.05.05-.133.134-.407.419-.424.455-.154.18c-.038.048-.072.094-.087.128l.138.06zm-.436.679c.185-.252.346-.47.436-.679l-.138-.06c-.082.19-.231.393-.419.65l.121.089zm-.751 1.169c.253-.49.524-.859.751-1.169l-.121-.089c-.227.31-.505.687-.763 1.189l.133.069zM22.947 3.69l-.204.321.127.08.204-.321-.127-.08zm-.822-.304c.284.106.557.234.846.409l.077-.129c-.298-.179-.579-.312-.871-.421l-.052.141zm-.539-.337c.01.004.042.036.05.077-.026.051-.084.068-.089.068l.057.019.164.053.356.121.052-.141-.362-.123-.165-.053-.049-.016-.019-.006c-.011-.002-.069.016-.095.066.008.041.04.073.044.074l.055-.139zm-.365-.048c.052.083.15.133.317.19l.049-.142c-.169-.058-.217-.095-.238-.128l-.127.08zm-.833-.501c.215 0 .36.032.48.106s.228.197.353.396l.127-.08c-.129-.205-.25-.351-.401-.444s-.329-.128-.559-.128v.15zm.72.615l-.447-.485-.156-.182-.044-.053-.015-.018c-.001-.001-.001-.001-.059.047l-.058.048.016.019.045.053.157.183.453.492.106-.106zm-.885-.157c.15 0 .286.039.8.278l.063-.136c-.509-.237-.675-.292-.863-.292v.15zm1.573 1.136c0-.023-.009-.041-.013-.049s-.013-.02-.02-.029a.65.65 0 0 0-.054-.058l-.174-.155-.517-.413-.516-.392-.17-.127-.048-.035-.017-.012c0 0 0 0-.045.06l-.044.06.017.012.047.035.17.126.514.39.512.409.165.147.041.044.151-.014zm.314-.07l-.387-.006-.002.15.387.006.002-.15zm-.332-.362c.18.149.258.291.256.436l.15.002c.003-.208-.112-.39-.31-.554l-.096.116zm.261-.063l-.19-.066-.047.142.185.064.052-.141zm.806.389a4.73 4.73 0 0 0-.806-.389l-.052.141c.262.097.513.216.781.377l.077-.129zM19.29 2.831a.29.29 0 0 1 .234-.045c.091.018.198.07.33.156l.081-.126c-.137-.089-.263-.153-.383-.177a.44.44 0 0 0-.347.067l.084.124zm.752.475l-.512-.408-.17-.136-.048-.038-.016-.013c-.001-.001-.001-.001-.048.058l-.047.059.017.014.048.038.171.136.512.408.093-.118zm-.294.104a.89.89 0 0 1 .229.028l.038-.145a1.04 1.04 0 0 0-.267-.033v.15zm-.273-.032c.053.022.144.032.273.032v-.15c-.128 0-.192-.011-.216-.021l-.057.139zm-.001 0h.001l.057-.139h-.001l-.057.139zm-.022-.011c.01.007.02.01.022.011l.057-.139-.079.128zm-.035-.038l.012.016c.005.006.012.014.023.021l.084-.124-.118.087zm-.001-.001l.001.001.123-.086v-.001l-.123.086zm-.004-.006l.004.006.123-.086-.004-.006-.123.086zm-.471-.177a.84.84 0 0 1 .31.043c.067.027.115.069.161.134l.123-.086c-.059-.084-.128-.147-.227-.187s-.214-.054-.367-.054v.15zm-.76.207c.034-.07.1-.123.224-.157s.301-.05.536-.05v-.15c-.238 0-.43.014-.577.055s-.26.114-.319.237l.135.065zm1.605.297a2.87 2.87 0 0 0-1.122-.377 3.48 3.48 0 0 0-.398-.03c-.049-.001-.088 0-.115.001l-.031.001c-.012.001-.012.001-.007.075l.005.075.037-.002h.108a3.33 3.33 0 0 1 .38.028c.31.041.707.137 1.063.356l.079-.128zm.44.758c.016-.252-.007-.444-.087-.575-.084-.139-.222-.195-.393-.195v.15c.136 0 .215.041.264.122.054.09.081.242.065.487l.15.009zm.316-.057l-.387-.023-.009.15.387.023.009-.15zm-.189-.615c.088.164.128.394.11.685l.15.009c.019-.307-.021-.567-.127-.765l-.132.071zm.366.098a5.98 5.98 0 0 1-.254-.192l-.092.118.268.202.078-.128zm.383.326c-.026-.049-.074-.1-.135-.152a2.02 2.02 0 0 0-.248-.173l-.078.128a1.88 1.88 0 0 1 .229.16c.057.048.087.084.099.107l.133-.07zm.002.004l-.002-.004-.133.07.002.004.132-.07zm.014.063c.003-.021-.003-.038-.006-.046l-.141.054c0-.001-.005-.013-.002-.03l.148.022zm-.053.072l.023-.018c.007-.006.026-.024.03-.054l-.148-.022c.002-.012.006-.021.011-.028l.084.121zm-.008.006l.009-.006-.088-.121-.009.006.088.121zm.248.195l-.232-.302-.119.091.232.302.119-.091zm.01-.442c.043.082.052.16.033.229s-.066.138-.147.198l.088.121c.103-.075.175-.171.204-.28a.46.46 0 0 0-.045-.338l-.133.07zm-.468-.415c.251.153.4.287.468.415l.133-.07c-.087-.166-.267-.318-.522-.473l-.078.128zm-.321-.213l.321.213.078-.128-.313-.207-.087.122zm-.152-.111l.152.111.087-.122-.149-.109-.089.121zm-.521-.376c.083.053.346.247.521.376l.089-.121-.528-.381-.081.126zm-.773 1.895c-.512-.235-.925-.355-1.227-.355v.15c.268 0 .657.109 1.164.342l.063-.136zm.066-.306l-.165.341.135.065.165-.341-.135-.065zm-1.293-.277c.337 0 .776.124 1.329.378l.063-.136c-.56-.257-1.023-.391-1.392-.391v.15zm-1.023.48c0-.148.092-.266.274-.35s.446-.13.749-.13v-.15c-.314 0-.601.045-.812.144s-.361.259-.361.486h.15zm.503.426a.82.82 0 0 1-.379-.158c-.081-.069-.124-.157-.124-.268h-.15c0 .157.063.286.176.382s.266.156.449.191l.028-.147zm-.266-.426c0 .012.002.023.004.029l.007.026.021.066.061.172.061.162.02.052.007.019c0 0 0 0 .07-.027l.07-.027-.008-.019-.02-.052-.06-.16-.06-.168-.019-.06c-.006-.022-.005-.02-.005-.014h-.15zm.197-.166a.58.58 0 0 0-.132.066c-.015.011-.029.023-.04.036s-.025.034-.025.064h.15c0 .012-.003.021-.005.025a.59.59 0 0 1 .105-.05l-.052-.141zm.588-.087c-.226 0-.438.03-.588.087l.052.141c.128-.048.321-.077.536-.077v-.15zm-.625 1.436l.056-.373-.148-.022-.056.373.148.022zm-1.583.059c.032-.012.105-.025.215-.034l.386-.015a6.58 6.58 0 0 1 .897.053l.021-.148c-.277-.04-.622-.056-.919-.055l-.398.015c-.109.009-.202.023-.256.044l.054.14zm1.575-.518c-.323-.046-.736.053-1.058.157l-.41.151-.122.052-.033.015c-.012.005-.012.005.02.073l.032.068.042-.019.118-.05.399-.147c.321-.104.704-.192.991-.151l.021-.148zm.309 1.76l.111.361.143-.044-.111-.361-.143.044zm-1.119.894c.12-.182.477-.629 1.212-.844l-.042-.144c-.779.228-1.162.703-1.295.906l.125.082zm-.113-.097c-.039.034-.077.082-.077.143h.15a.13.13 0 0 1 .027-.031l-.1-.112zm-.002.143l.067.033.01-.019.037-.06-.125-.082-.042.068-.011.019c-.004.008-.004.008.063.041zm1.15-.599l-.717.236c-.192.073-.347.146-.43.22l.1.112c.06-.053.19-.118.384-.192l.707-.233-.043-.144zm-.544 1.453c.012-.217.098-.778.62-1.329l-.109-.103c-.554.584-.647 1.184-.661 1.424l.15.009zm-.146-.028c-.016.049-.025.11.005.162l.13-.075a.13.13 0 0 1 .008-.04l-.142-.047zm.07.125l.075-.005-.001-.022.002-.07-.15-.009-.002.08v.022c0 .009 0 .009.075.004zm.872-1.28l-.62.677-.207.266a.9.9 0 0 0-.116.212l.142.047a.76.76 0 0 1 .097-.174c.051-.073.117-.159.198-.254l.613-.67-.108-.104zm-.27-.146l.273.253.102-.11-.273-.253-.102.11zm.264-.196l-.234.069.043.144.233-.069-.042-.144zm1.56 2.725l-.147.349.138.058.147-.348-.138-.058zm-1.432-.035c.209-.063.77-.175 1.471.133l.06-.137c-.743-.326-1.343-.208-1.574-.139l.043.144zm-.024-.147c-.052.002-.112.014-.151.06l.115.097c.011-.004.023-.006.04-.007l-.005-.15zm-.093.108l.03.069.021-.008.066-.022-.043-.144-.076.025-.02.008c-.008.003-.008.003.022.072zm1.501.382l-.848-.351-.321-.104c-.092-.024-.174-.038-.239-.036l.005.15a.76.76 0 0 1 .197.031c.086.022.189.056.307.099l.839.347.06-.137zm-.04.966l.205-.318-.126-.081-.205.318.126.081zm-1.344-.682c.044.006.106.027.189.065a3.4 3.4 0 0 1 .285.151l.766.488.083-.125-.774-.493-.298-.158c-.086-.039-.164-.068-.229-.077l-.022.148zm1.528.261c-.675-.45-1.286-.438-1.526-.41l.018.149c.216-.025.789-.039 1.425.386l.083-.125zm-1.617-.319l.018.073.022-.004.069-.01-.018-.149-.079.012-.021.004c-.009.002-.009.002.009.075zm.111-.09c-.051-.008-.112-.006-.159.033l.096.115a.13.13 0 0 1 .041.001l.022-.148zm-1.638-.377l-.361.111.044.143.361-.111-.044-.143zm-.894-1.119c.182.12.629.477.844 1.212l.144-.042c-.227-.779-.703-1.162-.905-1.295l-.082.125zm.097-.113c-.034-.039-.082-.077-.143-.077v.15a.13.13 0 0 1 .031.027l.112-.1zm-.143-.002l-.033.067.019.011.06.037.082-.125-.068-.042-.019-.011c-.008-.004-.008-.004-.041.063zm.672 1.396l-.276-.875-.127-.312a.9.9 0 0 0-.126-.206l-.112.1c.029.033.064.089.103.171s.079.181.121.299l.273.866.144-.042zm-2.117-.003l.302-.228-.091-.12-.301.228.09.12zm-1.03-1.101a.76.76 0 0 1 .155.126 3.43 3.43 0 0 1 .216.239l.553.72.121-.089-.559-.728-.226-.25c-.067-.066-.131-.12-.189-.151l-.071.132zm1.347.768c-.48-.654-1.059-.852-1.294-.907l-.034.146c.212.05.754.233 1.207.85l.121-.089zm-1.411-.853l-.008.075.022.003.069.014.034-.146-.078-.016-.021-.003c-.009-.001-.009-.001-.017.073zm.135-.047c-.046-.025-.104-.044-.16-.023l.051.141c.011.002.023.006.038.014l.071-.132zm11.184 1.835l.139-.264-.133-.07-.139.264.133.07zm-.016-.146l-.085.044.069.133.085-.044-.069-.133zm.27.54c0-.149-.063-.314-.169-.509l-.132.072c.104.19.151.328.151.437h.15zm-.449.432a.46.46 0 0 0 .32-.118.42.42 0 0 0 .129-.313h-.15c0 .088-.032.157-.082.204a.31.31 0 0 1-.218.078v.15zm-.075-.547v.472h.15v-.472h-.15zm.04.115c.006-.011.011-.018.017-.024s.013-.011.019-.014v-.152c-.027 0-.052.01-.071.019s-.038.024-.053.04c-.029.028-.061.075-.061.131h.15zm-.244-.216c.034.063.059.115.075.154l.016.047.154.014c0-.018-.004-.038-.009-.055a.62.62 0 0 0-.022-.062c-.018-.046-.046-.104-.082-.171l-.132.072zm.176-.178l-.145.075.069.133.145-.075-.069-.133zm-.206.099c.001-.001.007-.01.039-.01a.51.51 0 0 1 .173.046l.057-.139c-.09-.037-.166-.057-.228-.058s-.121.019-.159.067l.118.093zm-.435.455c.143-.114.287-.266.435-.455l-.118-.093c-.143.183-.279.325-.411.43l.094.117zm-.068-.833a.45.45 0 0 0-.074.218 1.64 1.64 0 0 0-.008.255l.017.219.008.068.003.024c0 .002 0 .002.074-.009l.074-.011-.003-.024-.008-.065-.016-.208a1.49 1.49 0 0 1 .007-.231c.009-.074.025-.121.043-.144l-.118-.093zm1.114-.088c-.224-.112-.437-.172-.628-.163s-.361.09-.486.251l.118.093c.098-.125.224-.186.376-.193s.342.041.553.147l.067-.134zm-4.523 3.404v.472h.15v-.472h-.15zm-.685.075h.76v-.15h-.76v.15zm-.107.015c.04-.009.073-.015.107-.015v-.15c-.052 0-.101.011-.138.019l.032.147zm-.25-.035c.084.076.189.048.25.035l-.032-.147c-.037.008-.062.013-.082.013s-.026-.004-.035-.012l-.101.111zm-.393-.101c.007.015.011.041-.005.064a.06.06 0 0 1-.016.016c-.008.004.001.002.023.001.041-.002.102.001.167.007l.18.02.06.008.021.003c.001 0 .001 0 .012-.074l.011-.074-.024-.003-.062-.008-.186-.021-.187-.008c-.024.001-.053.004-.076.012-.011.004-.033.014-.048.036-.02.03-.017.063-.006.086l.135-.066zm.412.308c-.104-.062-.206-.134-.285-.196l-.096-.081-.027-.027-.139.062a.18.18 0 0 0 .028.039c.01.011.022.023.036.036l.105.089c.083.066.191.142.302.208l.076-.129zm-.027.166c.014-.018.028-.034.043-.049l-.107-.105c-.019.019-.037.04-.054.061l.118.093zm-.097.682l.074-.011-.003-.024-.008-.065-.016-.208a1.49 1.49 0 0 1 .007-.231c.009-.073.025-.121.043-.144l-.118-.093a.45.45 0 0 0-.074.218 1.64 1.64 0 0 0-.008.255l.017.219.008.068.003.024c0 .002 0 .002.074-.009zm.364-.489a2.6 2.6 0 0 1-.411.43l.094.117a2.75 2.75 0 0 0 .435-.455l-.118-.092zm.011-.016l.107.109.019-.026-.125-.083zm.275 0l-.092-.042c-.023-.009-.047-.017-.07-.019s-.055.003-.079.022c-.018.014-.03.034-.034.04l.125.083c-.01.005-.022.006-.026.005a.21.21 0 0 1 .028.009l.082.038.066-.135zm.04.142c-.005-.035-.002-.05-.001-.053l-.144-.043c-.01.033-.01.071-.003.118l.148-.022zm-.229.474l.063.04.03-.051.063-.123a1.02 1.02 0 0 0 .059-.163c.014-.057.023-.119.014-.178l-.148.022c.005.032.001.072-.011.12s-.03.094-.05.138l-.056.111-.019.032c-.007.011-.007.011.056.052zm.003-.075h-.003v.15h.003v-.15zm.626-.138c0 .019-.008.038-.043.059a.49.49 0 0 1-.163.053c-.14.025-.308.025-.42.025v.15c.109 0 .291 0 .446-.028.077-.014.155-.036.215-.073s.114-.099.114-.187h-.15zm-.14-.232l.104.143c.027.044.036.072.036.089h.15c0-.06-.028-.118-.058-.168s-.073-.104-.113-.156l-.119.092zm-.152-.216c.044.077.101.151.152.216l.119-.092-.14-.199-.13.074zm.059-.141l-.049.052.109.103.049-.052-.109-.103zm.363-.024h-.308v.15h.308v-.15z" class="D"/><path d="M26.248 6.01l.51-.002c.008.453-.046.829-.091 1.141-.037.256-.067.469-.052.644.014.163-.383 1.461-.383 1.461-.086-.148-.112-.306-.098-.502.005-.072.035-.279.053-.396l.012-.081c.018-.151.023-.283.011-.418l-.054-.986-.042.11c-.066.187-.195.338-.385.482l-.232.16a1.06 1.06 0 0 0-.199.148l-.003-.003.001-.013-.359.207c-.055-.095.302-.5.555-.787h0l.238-.29c.107-.304.238-.512.41-.608l-.002-.092-.034.054c-.229.132-.285.198-.349.355l-.019.045c-.112.269-.286.455-.723.707l-.798.461 1.144-1.285.018-.043c.099-.242.796-.68 1.114-.863l-.245.393z" class="B C"/><path d="M26.248 6.01l-.064-.04-.072.115.136-.001V6.01zm.51-.002l.075-.001-.001-.074h-.074v.075zm-.091 1.141l-.074-.011.074.011zm-.052.644l-.075.007.075-.007zm-.383 1.461l-.065.037.086.149.05-.165-.072-.022zm-.098-.502l.075.005-.075-.005zm.053-.396l.074.011h0l-.074-.011zm.012-.081l.074.009h0l-.074-.009zm.011-.418l.075-.007-.075.007zm-.054-.986l.075-.003-.144-.026.069.029zm-.042.11l-.071-.025.071.025zm-.385.482l.045.06-.045-.06zm-.232.16l.041.063h0l-.041-.063zm-.199.148l.057.049h0l-.057-.049zm-.003-.001l.074.014h0l-.074-.013zm0-.002l.074.013h0l-.074-.013zm.001-.011l-.075-.003v.001l.075.002zm0-.002l.075.003.006-.136-.118.068.038.065zm-.359.207L24.873 8l.037.065.065-.037-.038-.065zm.555-.787l-.056-.05h0l.056.05zm0 0l.056.05h0l-.056-.05zm.238-.29l-.071-.025h0l.071.025zm.41-.608l.037.065.039-.022-.001-.045-.075.002zm-.002-.092l.075-.002-.005-.252-.133.214.064.04zm-.034.054l.038.065.016-.009.01-.016-.064-.04zm-.349.355l.069.028h0l-.069-.028zm-.019.045l.069.029h0l-.069-.028zm-.723.707l.037.065-.037-.065zm-.798.461l-.054-.052.091.117-.038-.065zm1.144-1.285l.069.029h0l-.069-.028zm.018-.043l.069.028h0l-.069-.028zm1.114-.863l.064.04-.101-.105.037.065zm-.245.468l.51-.002-.001-.15-.51.002v.15zm.435-.076c.008.446-.045.817-.09 1.129l.149.021c.045-.312.1-.694.091-1.153l-.15.003zm-.09 1.129c-.036.253-.069.475-.052.661l.149-.013c-.015-.165.014-.367.051-.626l-.149-.021zm-.052.661c.001.009-.002.037-.011.089l-.04.184-.131.492-.135.463-.045.149-.012.041c-.005.014-.005.014.067.036l.072.022.017-.056.045-.15.135-.465.133-.497.042-.192a.55.55 0 0 0 .013-.13l-.149.013zm-.243 1.417c-.076-.132-.101-.273-.088-.459l-.15-.011c-.015.206.012.38.107.545l.13-.075zm-.088-.459c.005-.068.035-.271.052-.391l-.148-.022-.053.402.15.011zm.052-.391l.012-.083-.149-.018-.011.079.148.022zm.012-.083c.019-.155.024-.292.011-.434l-.149.013a1.88 1.88 0 0 1-.011.403l.149.018zm.011-.434l-.053-.982-.15.005.054.99.149-.013zm-.1-.844l.041-.106-.138-.058-.044.114.141.05zm-.41.517c.196-.15.337-.311.41-.517l-.141-.05c-.06.169-.177.309-.36.448l.091.119zm-.237.163l.237-.163-.091-.119-.228.157.082.125zm-.184.135c.019-.022.059-.053.184-.135l-.082-.125c-.12.078-.18.121-.215.162l.113.098zm-.134-.064c-.001.01-.002.017-.001.025s.002.013.006.024.016.027.036.037.039.008.05.005.018-.007.022-.009l.02-.018-.113-.098c.017-.013.025-.018.035-.02s.03-.005.05.005.031.025.036.036.006.019.006.023v.018l-.148-.027zm0-.002v.002l.148.027v-.002l-.148-.027zm0 0v.001l.148.026c.002-.01.002-.019.002-.022l-.15-.005zm0-.003v.002l.15.006v-.002l-.15-.006zm-.247.275l.359-.207-.075-.13-.359.207.075.13zm.461-.902l-.396.47c-.058.075-.108.148-.141.209-.016.03-.03.061-.037.091s-.011.068.01.104l.13-.075c.008.013.002.02.006.006s.01-.03.024-.056a1.49 1.49 0 0 1 .127-.188l.39-.462-.113-.099zm0 0h0l.112.1h0l-.112-.1zm.224-.265c.002-.004 0 0-.014.019l-.049.061-.161.185.113.099.163-.188.055-.068c.012-.016.028-.038.035-.059l-.142-.05zm.444-.649c-.197.11-.335.341-.444.649l.142.05c.106-.3.229-.485.376-.568l-.073-.131zm.112.064l-.002-.092-.15.003.002.092.15-.003zm-.047.003l.034-.054-.127-.079-.034.054.127.079zm-.344.344c.03-.075.056-.12.098-.163s.107-.09.22-.155l-.075-.13c-.116.067-.195.121-.253.181s-.094.128-.128.21l.139.057zm-.019.045l.019-.045-.139-.057-.019.045.139.057zm-.754.744c.445-.257.633-.454.754-.743l-.138-.058c-.104.248-.262.424-.691.671l.075.13zm-.798.461l.798-.461-.075-.13-.798.461.075.13zm1.038-1.378a.57.57 0 0 1-.061.09l-.137.166-.388.431-.375.399-.122.127-.034.035c-.012.012-.012.012.042.065l.054.052.046-.048.122-.128.377-.4.392-.435.142-.173c.036-.046.067-.091.08-.123l-.138-.058zm.017-.042l-.018.043.139.057.018-.043-.139-.057zm1.146-.9l-.645.414-.311.248c-.085.079-.158.161-.19.238l.139.057c.018-.044.069-.107.153-.185s.185-.156.297-.237a8.13 8.13 0 0 1 .633-.406l-.075-.13zm-.144.498l.245-.393-.127-.079-.245.393.127.079z" class="D"/><g class="B C"><path d="M12.051 17.285v.472h-.308l-.049.052c.041.072.095.142.146.207.082.105.155.2.155.278 0 .213-.481.213-.701.213h-.003s.181-.282.155-.463c-.006-.041-.004-.067.001-.085-.149-.072-.155-.063-.179-.026h0l-.015.021c-.146.186-.286.333-.423.442 0 0-.086-.57.038-.729a.63.63 0 0 1 .048-.055c-.214-.127-.42-.298-.441-.34-.034-.068.51.012.51.012.05.046.113.032.183.017a.58.58 0 0 1 .122-.017h.76zm17.258-9.301l-.17-.091c.08-.142.024-.224-.231-.292-.297-.078-.809-.098-1.54-.058a4.45 4.45 0 0 0-.719.049c.009-.001-.226.035-.282.042a1.06 1.06 0 0 1-.25.004c-.218-.028-.425-.152-.788-.471-.334-.293-.564-.446-.789-.524s-.39-.09-.994-.081l-.387.004v-.189l.384-.004c.63-.01.803.001 1.063.092.253.089.502.254.853.562.336.295.514.402.683.424l.033.005.02.003c.036.004.074-.001.327-.038l.098-.014a4.58 4.58 0 0 1 .697-.051c.027-.102.076-.336-.013-.389-.115-.068-.199-.175-.199-.175s.578-.111.63.07 0 .464 0 .464l-.1.018.409-.008c.02-.11.049-.319-.014-.369-.087-.068-.15-.175-.15-.175s.436-.111.475.07 0 .464 0 .464l-.061.015a3.14 3.14 0 0 1 .664.08c.363.096.501.299.35.565z"/></g><g class="D"><path d="M29.139 7.893l-.043-.025-.025.044.045.024.024-.044zm.17.091l-.024.044.043.023.024-.043-.044-.025zm-.401-.383l-.013.048.013-.048zm-1.54-.058v.05h.003l-.003-.05zm-1.001.091l.006.05-.006-.05zm-.25.004l-.006.05.006-.05zm-.788-.471l.033-.038-.033.038zm-.789-.524l.017-.047-.017.047zm-.994-.081v.05-.05zm-.387.004h-.05v.05h.05v-.05zm0-.189v-.05h-.05v.05h.05zm.384-.004l-.001-.05.001.05zm1.063.092l-.017.047.017-.047zm.853.562l.033-.038-.033.038zm.683.424l.006-.05-.006.05zm.033.005l.008-.049h0l-.008.049zm.02.003l-.006.05.006-.05zm.327-.038l.007.049h0l-.007-.049zm.098-.014l-.007-.049.007.049zm.697-.051v.05h.039l.01-.037-.048-.013zm-.013-.389l-.026.043h0l.026-.043zm-.199-.175l-.009-.049-.081.016.051.065.039-.031zm.63.07l.048-.014-.048.014zm0 .464l.009.049.034-.006.006-.034-.049-.009zm-.1.018l-.009-.049.011.099-.002-.05zm.409-.008v.05h.042l.008-.041-.049-.009zm-.014-.369l-.031.039h0l.031-.039zm-.15-.175l-.012-.048-.065.017.034.058.043-.026zm.475.07l.049-.011h0l-.049.011zm0 .464l.012.049.033-.008.005-.034-.05-.007zm-.061.015l-.012-.049.01.099.002-.05zm.664.08l-.013.048.013-.048zm.157.518l.17.091.047-.088-.17-.091-.047.088zm-.22-.287c.062.016.11.033.146.051a.19.19 0 0 1 .069.049c.01.014.014.027.013.044s-.009.043-.027.075l.087.049c.022-.039.037-.078.04-.117a.16.16 0 0 0-.034-.112c-.024-.032-.06-.057-.104-.078a.91.91 0 0 0-.164-.057l-.026.097zm-1.524-.056c.73-.041 1.236-.02 1.524.056l.026-.097c-.305-.08-.825-.1-1.555-.059l.006.1zm-.714.049a4.4 4.4 0 0 1 .711-.049v-.1a4.5 4.5 0 0 0-.726.05l.015.099zm-.284.042l.168-.024.084-.013.025-.004c.014-.003.05-.047.023-.095-.012-.005-.026-.006-.028-.006l.011.099c-.004 0-.019-.001-.031-.005-.026-.048.009-.092.012-.093l-.028.004-.084.013-.165.024.012.099zm-.262.004c.081.01.162.008.262-.004l-.012-.099c-.095.011-.167.013-.237.004l-.013.099zm-.814-.483c.363.319.58.453.814.483l.013-.099c-.202-.026-.398-.141-.761-.459l-.066.075zm-.773-.515c.216.076.44.223.773.515l.066-.075c-.336-.294-.572-.452-.805-.534l-.033.094zm-.977-.078c.605-.009.758.001.977.078l.033-.094c-.239-.084-.409-.093-1.012-.084l.002.1zm-.388.004l.388-.004-.002-.1-.387.004v.1zm-.05-.239v.189h.1v-.189h-.1zm.434-.054l-.384.004v.1l.385-.004-.002-.1zm1.08.095c-.269-.094-.451-.104-1.08-.095l.002.1c.63-.01.796.001 1.046.089l.033-.094zm.869.571c-.353-.31-.608-.48-.869-.571l-.033.094c.244.086.487.246.837.552l.066-.075zm.656.412c-.152-.019-.32-.117-.656-.412l-.066.075c.335.294.524.412.71.436l.013-.099zm.035.005l-.035-.005-.013.099.031.005.016-.099zm.018.003l-.034.096.022.003.012-.099zm.314-.038l-.243.035c-.045.005-.058.005-.07.004l-.012.099c.024.003.047.002.094-.004l.246-.035-.015-.099zm.098-.014l-.098.014.015.099.098-.014-.015-.099zm.704-.052a4.63 4.63 0 0 0-.704.052l.015.099a4.53 4.53 0 0 1 .69-.051v-.1zm-.039-.296c.006.003.014.013.02.038s.007.056.005.093c-.004.073-.022.153-.035.203l.097.025a1.22 1.22 0 0 0 .038-.223c.002-.041.001-.084-.008-.122s-.028-.077-.066-.1l-.051.086zm-.173-.218l-.039.031.017.02.044.047a.81.81 0 0 0 .152.121l.051-.086c-.053-.031-.099-.072-.133-.106l-.039-.042-.013-.016c0 0 0 0-.039.031zm.678.056c-.021-.073-.092-.106-.157-.122s-.151-.02-.228-.017a2.09 2.09 0 0 0-.209.019l-.068.01-.024.004c-.002 0-.002 0 .008.049l.009.049.024-.004.065-.01.199-.018c.074-.003.146.001.2.014s.079.035.084.052l.096-.028zm-.048.477l.049.009.008-.049.013-.12c.007-.095.007-.218-.021-.317l-.096.028c.024.082.024.19.018.282l-.012.114-.005.033c-.002.012-.002.012.047.021zm-.091.067l.1-.018-.018-.098-.1.018.018.098zm.4-.107a10.71 10.71 0 0 0-.411.008l.004.1.407-.008v-.1zm.049.059c.01-.056.023-.139.025-.215a.49.49 0 0 0-.008-.11c-.007-.032-.02-.069-.05-.092l-.062.079c.002.001.008.009.014.034a.4.4 0 0 1 .006.087c-.002.068-.014.145-.023.199l.098.018zm-.032-.417a.59.59 0 0 1-.099-.104l-.029-.041c-.01-.016-.01-.016-.053.01l-.043.026.013.02.033.047c.028.037.068.084.116.122l.062-.079zm-.181-.136l.012.048.065-.014c.04-.007.094-.015.147-.018a.43.43 0 0 1 .144.013c.037.012.053.029.057.05l.098-.021c-.015-.069-.069-.106-.124-.124s-.12-.021-.179-.018-.118.011-.161.019l-.052.01-.02.005c-.001 0-.001 0 .012.049zm.426.08a1.17 1.17 0 0 1 .014.286l-.009.114-.004.034c-.002.012-.002.012.048.019l.05.007.006-.049.01-.12c.005-.094.005-.216-.016-.313l-.098.021zm.037.404l-.061.015.024.097.061-.015-.023-.097zm.628.095c-.171-.045-.396-.072-.675-.082l-.004.1c.275.01.492.036.653.079l.025-.097zm.381.638c.082-.144.09-.282.016-.398s-.211-.191-.397-.24l-.025.097c.177.047.287.117.338.197s.05.173-.019.295l.087.049z"/><g class="C"><path d="M27.367 5.091c0 .062-.019.123-.055.189a1.11 1.11 0 0 1-.075.116l-.077.103V5.5h0 0l-.01.014c-.145.197-.209.334-.209.514 0 .19-.106.303-.306.355-.147.039-.292.044-.64.038l-.191-.002a1.27 1.27 0 0 1-.442-.076l-.093-.032-.061-.021a2.42 2.42 0 0 0-.855-.126c-.395 0-.491.166-.3.428.198.272.653.571 1.191.76.53.187.67.468.481.784-.144.24-.487.485-.776.583-.239.081-.407-.049-.51-.331-.074-.203-.109-.479-.109-.727 0-.192-.42-.269-1.21-.271a24.23 24.23 0 0 0-.451.004l-.362.004c-.427 0-.55-.061-.65-.278l-.012-.028h0v-.001h0l-.057-.127a1.46 1.46 0 0 0-.108-.191c-.116-.173-.317-.146-.54.038-.198.164-.359.416-.359.563a.33.33 0 0 0 .024.121c.046.119.16.243.374.414l.354.267a153.12 153.12 0 0 1 .46.334l.358.277h0l.257.199c.154.103.308.154.627.207l.591.08c.657.079 1.032.052 1.45-.056l.121-.032.116-.029a1.39 1.39 0 0 1 .328-.041.51.51 0 0 0 .518-.329l.033-.07c-.005.011.024-.053.031-.068a.64.64 0 0 1 .077-.134c.038-.048.123-.035.27.025l.209.094.043.02.199.095.246.11c.462.193.747.209.862-.009.096-.183.181-.238.258-.165.051.049.085.136.143.338.074.255.11.348.158.399.089.093.044.227-.1.428l-.071.095c-.182.237-.205.27-.205.319 0 .15-.1.212-1.085.744-.13.07-.276.073-.435.018-.196-.069-.405-.224-.615-.439a3.93 3.93 0 0 1-.283-.325l-.081-.107c-.055.029-.089.061-.126.095l-.008.008a3.54 3.54 0 0 1-.39.31c-.461.316-.949.489-1.437.445-.316-.029-.619-.107-.957-.23l-.12-.046h0 0 0l-.48-.179c-.125-.033-.153-.011-.122.109.052.197-.117.737-.545 1.874l-.034.091-.584 1.752c0 .404.312.47 1.876.47.396 0 .589-.012.676-.043.062-.021.065-.035.049-.131-.031-.182.014-.316.239-.502a1.04 1.04 0 0 1 .488-.224c.271-.048.56-.003.843.101l.163.068-.002.001-.057.024-.121-.049c-.275-.102-.556-.146-.817-.099a.99.99 0 0 0-.465.214c-.211.175-.251.292-.222.459.02.115.011.151-.081.183s-.29.045-.692.045c-.854 0-1.197-.013-1.466-.07-.319-.067-.459-.201-.459-.447 0-.19.098-.469.587-1.768l.034-.091c.42-1.115.591-1.663.543-1.846-.041-.158.023-.208.181-.166.063.017.332.121.491.183l.114.044c.334.122.634.199.944.227.475.043.952-.126 1.405-.436.142-.097.271-.201.384-.305l.104-.101.057-.061.046.065.08.106a3.84 3.84 0 0 0 .28.322c.206.211.409.362.597.428.146.051.278.048.395-.015.929-.502 1.06-.583 1.06-.703 0-.066.017-.09.215-.347l.07-.094c.131-.183.17-.3.104-.368-.056-.059-.092-.153-.156-.372-.069-.237-.102-.322-.144-.363s-.098-.006-.181.153c-.131.25-.439.233-.924.031l-.248-.111c-.6-.281-.627-.292-.662-.248a.6.6 0 0 0-.071.125l-.031.068-.034.072c-.118.237-.272.355-.562.355-.106 0-.202.013-.316.039l-.114.029-.121.032c-.424.11-.806.137-1.469.057l-.593-.08c-.325-.054-.485-.107-.646-.215-.034-.023-.142-.108-.264-.204l-.353-.274-.46-.334-.356-.268c-.219-.176-.338-.305-.388-.434-.018-.046-.027-.091-.027-.138 0-.163.167-.426.376-.599.242-.201.476-.232.612-.028a1.5 1.5 0 0 1 .111.197l.058.13.011.026c.09.198.195.25.605.25l.361-.004.452-.004c.831.002 1.258.08 1.258.318s.035.513.107.711c.094.26.24.373.448.302.279-.095.613-.333.75-.562.173-.288.048-.538-.455-.716-.546-.193-1.01-.497-1.214-.777-.214-.294-.094-.503.34-.503a2.47 2.47 0 0 1 .871.129l.062.021.092.032a1.22 1.22 0 0 0 .426.073l.19.002c.344.006.486 0 .627-.037.18-.047.27-.142.27-.309 0-.192.067-.338.218-.542l.087-.118a1.06 1.06 0 0 0 .072-.111c.033-.06.05-.114.05-.167 0-.175-.037-.257-.102-.257-.372-.172-.839-.258-1.411-.258-.334 0-.45-.087-.573-.334l-.027-.054c-.14-.271-.334-.381-.851-.381a1.9 1.9 0 0 1-.853-.173l-.04-.018-.133-.06c-.374-.161-.712-.126-1.54.249-1.137.514-1.809.632-2.021.341-.838-.277-1.25-.276-1.25-.02a.56.56 0 0 0 .054.216l.07.145c.13.254.157.335.11.435-.061.13-.277.192-.703.192-1.221 0-1.593 1.047-.791 2.248l.37.614c.253.463.473.959.661 1.455l.17.479.043.134c.017.047.022.053.028.06h0l.049.058.149.198a1.77 1.77 0 0 1 .15.259c.071.155.09.285.045.384-.054.118-.195.18-.431.18-.424 0-.764-.184-1.133-.538l-.194-.195-.169-.17c-.116-.109-.197-.159-.267-.159h-1.896c-.105 0-.215-.002-.333-.005l-.563-.022c-.887-.04-1.216-.04-1.555.028-.436.088-.652.29-.652.66 0 .323-.102.711-.296 1.196l-.239.554-.53 1.281-.001.092c0 .525-.036.89-.175 1.26-.205.546-.593.859-1.209.859-.709 0-1.026.177-1.467.667-.274.305-.405.422-.611.525-.819.41-1.6.978-1.6 1.207 0 .355.418.536 1.156.282.246-.085.354-.113.831-.225.321-.076.499-.127.692-.209.244-.103.466-.243.693-.443.365-.322.975-.765 1.504-1.096.272-.17.505-.299.672-.37.09-.039.161-.06.212-.064.062-.004.101.02.101.072v.036c-.001.052-.008.104-.06.482l-.025.189c-.028.229-.04.399-.033.527.008.146.04.219.093.219.159 0 .657.304.978.613.425.41.519.775.132.991-.358.2-.599.171-.756-.005-.019-.021-.042-.055-.061-.083v.067V20.6h2.041c.259 0 .303-.147.303-.741 0-.204.057-.338.155-.413.059-.046.119-.061.161-.061.025.022.032.037.04.057h0l.049.113.16.343.094.18c.089.161.163.266.214.298.04.025.063-.016.063-.18 0-.195.029-.376.094-.652.095-.403.106-.465.088-.579-.023-.145-.127-.213-.359-.213a.84.84 0 0 1-.588-.201l-.056-.05-.107-.095c-.088-.066-.163-.062-.297.036-.212.156-.309.178-.405.078a4.06 4.06 0 0 1-.212-.33l-.207-.33a1.13 1.13 0 0 1-.162-.357c-.076-.291-.042-.602.06-.902l.069-.176.032-.066c.04-.005.053.002.07.012h0l.097.057.315.173.159.079c.225.108.399.17.498.17h.916l.322-1.717-.712-.288-.247-.1h0l-.059-.037-.129-.087-.069-.052c-.064-.051-.106-.094-.121-.129-.023-.055.017-.087.1-.087.128 0 .401-.22.507-.402.109-.188-.023-.227-.497-.026-.271.115-.463.251-.596.408s-.159.223-.256.546c-.058.192-.118.263-.274.263-.254 0-.674-.66-.783-1.256-.14-.765.21-1.265 1.127-1.265.867 0 1.666.119 2.881.384l2.285.383c.333 0 .522.094.601.279.059.138.058.271.019.6-.059.508-.017.711.245.829 1.038.47 2.381.878 3.154.878.062.043.106.111.154.215.031.067.116.294.185.476l.089.233c.249.609.52.923.926.923.218 0 .299-.075.287-.232-.009-.125-.045-.217-.207-.587l-.073-.17c-.169-.413-.196-.671-.026-.85.331-.347.979-.35 1.941-.014.191-.557.009-.826-.554-.826-.184 0-.417-.027-.597-.071-.216-.052-.335-.12-.308-.208.032-.105.315-.338.642-.546a2.83 2.83 0 0 1 .312-.176l.042.019-.084.05-.243.147c-.314.2-.594.431-.622.52-.014.046.087.103.274.148.176.043.405.07.585.07.605 0 .806.31.591.911-.99-.324-1.627-.324-1.943.008-.152.16-.127.404.035.8l.072.169c.165.376.201.469.21.602.014.186-.091.283-.335.283-.433 0-.716-.327-.971-.953l-.09-.237h0 0 0l-.182-.469c-.042-.092-.081-.153-.118-.187-.783-.003-2.126-.412-3.166-.882-.289-.131-.334-.35-.278-.837.043-.361.044-.49-.011-.617-.07-.165-.241-.25-.557-.25-.51 0-.675-.031-2.295-.384-1.212-.264-2.008-.383-2.871-.383-.884 0-1.214.471-1.08 1.209.105.576.514 1.217.736 1.217.129 0 .175-.054.228-.229.099-.329.127-.399.265-.562s.337-.304.614-.422c.508-.215.704-.157.559.092-.113.195-.4.426-.549.426-.044.047-.007.085.052.132l.068.051.127.085.041.026.014.009.992.401-.336 1.793H14.1c-.108 0-.287-.063-.519-.175l-.16-.08-.317-.174-.098-.057a.78.78 0 0 0-.1.203c-.099.293-.132.595-.059.876a1.08 1.08 0 0 0 .155.342l.216.344h0l.197.309c.074.076.147.06.341-.083.15-.111.249-.116.356-.036a2.72 2.72 0 0 1 .114.1l.051.046c.149.125.31.189.557.189.254 0 .38.083.407.253.019.124.008.185-.089.597a2.69 2.69 0 0 0-.093.641c0 .195-.047.277-.138.219-.06-.038-.137-.147-.23-.316l-.095-.182-.161-.345-.049-.114c-.066-.014-.097 0-.126.023-.085.066-.136.186-.136.376 0 .622-.051.788-.352.788h-2.089v-1.239l.002-.116c.043-.026.09.033.124.076l.02.025c.141.158.356.185.695-.005.348-.195.264-.525-.142-.917-.312-.301-.801-.599-.944-.599-.091 0-.133-.094-.142-.264-.007-.131.005-.303.033-.535l.025-.19.003-.023h0l.056-.455v-.034c-.092-.022-.159-.002-.245.035-.164.07-.395.198-.665.367-.527.33-1.135.772-1.498 1.092-.231.203-.457.346-.706.451-.196.083-.376.135-.7.211l-.826.223c-.766.263-1.221.067-1.221-.327 0-.257.786-.828 1.626-1.249.199-.1.326-.214.558-.472.488-.541.817-.726 1.542-.726.594 0 .965-.299 1.163-.828.136-.363.172-.723.172-1.243v-.027l.001-.073c.008-.138.07-.273.5-1.217l.034-.075.238-.552c.192-.48.293-.864.293-1.179 0-.395.234-.614.69-.706.344-.069.675-.069 1.567-.029l.562.022.332.005h1.896c.087 0 .177.056.301.173l.171.173h0 0l.191.193c.36.346.69.524 1.099.524.218 0 .342-.054.386-.152.038-.084.02-.202-.045-.346-.036-.08-.086-.165-.146-.252l-.147-.195-.048-.057a.33.33 0 0 1-.038-.077h0l-.043-.134-.17-.477a11.64 11.64 0 0 0-.658-1.449l-.368-.61c-.821-1.228-.433-2.321.831-2.321.408 0 .609-.058.659-.165.038-.08.012-.157-.11-.394l-.071-.148c-.038-.089-.058-.164-.058-.234 0-.312.446-.312 1.322-.022.199.279.856.166 1.978-.342.839-.38 1.191-.416 1.579-.249l.134.06.039.018c.261.116.484.169.833.169.535 0 .747.12.89.398l.005.01.027.055c.115.232.215.308.529.308.577 0 1.049.086 1.417.258.099.004.145.109.145.304zm-2.04 9.072l.048-.029-.031-.015c.051-.019.086-.025.109-.014.034.016.031.052.003.099l-.012.021-.021-.012-.07-.036-.027-.013zm.1-.003l.005-.013h0 0 0 0 0c-.004-.002-.013-.001-.026.002l.02.011zm.005-.013h0 0 0z"/></g></g><path d="M12.056 11.198l-.387.015c.001.028.014.054.031.068l-.021-.006c-.061-.018-.167-.029-.313-.029-.123 0-.364-.014-.533-.024l-.184-.009s-.413.222-.413.146c0-.05.384-.342.384-.342l.029-.011.059-.023.083-.03c.163-.055.341-.085.575-.085.435 0 .681.073.691.33zm-1.919 5.787l-.359-.141-.763 1.288c-.055.038-.116.073-.189.109l-.144.066-.073.032-.073.032-.196.083h0 0c-.39.162-1.035.431-1.035.636l1.17-.208c0-.047.047-.089.223-.168l.068-.03c-.004.002.057-.024.074-.032l.16-.073a1.8 1.8 0 0 0 .241-.139c.285-.198.576-.678.897-1.453zm-2.71 1.091l.388.003c-.004.555-1.021 1.031-1.49 1.164l.667-.47.435-.697zm-1.432.369l-.127-.337-.987.258c-.047 0-.091-.014-.2-.062l-.01-.005c-.321-.14-.536-.136-.813.118l-.061.057-.436.465a.96.96 0 0 1-.139.126c-.026.018-.04.023-.045.023l-.447.382c.165 0 .739-.092.914-.274a15.6 15.6 0 0 1 .426-.454l.054-.051c.142-.131.196-.131.388-.047l.01.005c.158.069.239.095.359.095.221 0 .569-.087 1.061-.259l-.377.274c-.661 0-.783.04-.982.388a.86.86 0 0 1-.063.098c-.035.045-.064.065-.136.094l-.148.052h0l-.33.116c-.173.065-.315.146-.484.265l-.088.063h0 0 0l-.108.078c-.085.059-.118.128-.145.185-.033.069-.058.121-.157.121l-.844.241c.275 0 1.125-.068 1.372-.241l.118-.085h0 .001 0l.079-.057c.143-.101.258-.166.395-.218l.298-.105h0 .001 0 0 0l.187-.066c.133-.053.219-.113.299-.216.03-.039.06-.085.093-.142l.001-.001c.037-.064.061-.107.097-.136.072-.057.189-.057.543-.057h.003c.457 0 .765-.226.881-.648l-.375-.097-.076.056zm5.193-5.723l.387-.015c-.01-.257-.256-.33-.691-.33a1.74 1.74 0 0 0-.575.085l-.083.03a7.02 7.02 0 0 1-.059.023l-.024.009c-.005.002.55.231.741.231.146 0 .253.011.313.029l.021.006c-.017-.014-.03-.04-.031-.068zm.193.646l-.387.015c.001.028.014.054.031.068l-.021-.006c-.061-.018-.167-.029-.313-.029a1.35 1.35 0 0 0-.448.064l-.066.024c.009-.004-.049.019-.064.025-.064.024-.111.036-.168.036l-.451.135c-.002 0 .592-.478.619-.487.046-.015.093-.036.143-.057.126-.055.267-.116.435-.116.435 0 .681.073.691.33zm-.678.675l.387-.015c-.01-.257-.256-.33-.691-.33-.234 0-.906.49-.906.49.015 0 .041.002.072.004h0 0c.085.006.209.014.256-.004l.064-.025.066-.024a1.35 1.35 0 0 1 .448-.064c.146 0 .252.011.313.029l.021.006c-.017-.014-.03-.04-.031-.068zm.29.834l-.387.015c.001.028.014.054.031.068l-.021-.006c-.061-.018-.167-.029-.313-.029-.191 0-.746-.229-.746-.229l.029-.011.059-.023.083-.03c.163-.055.341-.085.575-.085.435 0 .681.073.691.33zm-.872.675l.387-.015c-.01-.257-.256-.33-.691-.33-.234 0-.413.03-.575.085l-.083.03c.006-.002-.048.019-.059.023s.129.034.219.053c.109.023.144.031-.248-.043l1.059.258.017.005c-.012-.014-.025-.039-.026-.067zm1.162-3.689c-.439 0-.49.021-.527.106l-.001.002-.019.042-.006.012a.59.59 0 0 1-.042.073s.017-.612.594-.612h.394.115 0v.377h-.115-.394z" class="B C"/><path d="M11.669 11.212l-.003-.075-.075.003.003.075.075-.003zm.387-.015l.003.075.075-.003-.003-.075-.075.003zm-.356.083l.049-.056h0l-.049.056zm-.005-.001l-.025.071h0l.025-.071zm-.017-.005l-.021.072h0l.021-.072zm-.846-.052l-.004.075.004-.075zm-.184-.009v-.075h-.019l-.017.009.035.066zm-.029-.196l.045.06.177-.135h-.222v.075zm.005-.002l.024.071h0l-.024-.071zm.024-.009l-.026-.07h0l.026.07zm.059-.023l-.027-.07.054.14-.027-.07zm.083-.03l-.024-.071h0l.024.071zm-1.012 5.891l.027-.07-.059-.023-.033.055.065.038zm.359.141l.069.029.029-.071-.071-.028-.027.07zm-1.122 1.146l.043.062.013-.009.008-.014-.065-.038zm-.189.109l.033.067h0l-.033-.067zm-.144.066l.03.069h0l-.03-.069zm-.073.032l.03.069-.06-.138.03.069zm-.073.032l-.031-.068h0l.031.068zm-.196.083l-.029-.069H8.31l.03.069zm0 0l.028.069.001-.001-.03-.069zm0 0l-.028-.07h-.001l.029.069zm-1.035.636h-.075v.089l.088-.016-.013-.074zm1.17-.208l.013.074.062-.011v-.063h-.075zm.223-.168l-.031-.068h0l.031.068zm.068-.03l.03.069-.06-.138.03.069zm.074-.032l-.03-.069h0l.03.069zm.16-.073l-.033-.067h0l.033.067zm.241-.139l.043.062-.043-.062zm-1.425-.359h.075v-.075h-.075v.075zm-.388-.003v-.075h-.042l-.022.035.064.04zm-1.102 1.167l-.043-.061.064.134-.021-.072zm.667-.47l.043.061.012-.009.008-.013-.064-.04zm-1.123-.665l.07-.026-.024-.063-.065.017.019.073zm.127.337l-.07.026.035.092.08-.058-.044-.061zm-1.114-.079v.075h.01l.009-.002-.019-.073zm-.2-.062l.03-.069h0l-.03.069zm-.01-.005l.03-.069h0l-.03.069zm-.813.118l-.051-.055.051.055zm-.061.057l-.052-.054h0l.052.054zm-.575.591l.042.062h0l-.042-.062zm-.045.023v-.075H3.15l-.021.018.049.057zm-.447.382l-.049-.057-.155.132h.204v-.075zm1.339-.728l.052.054h0l-.052-.054zm.054-.051l.051.055h0l-.051-.055zm.388-.047l.03-.069h0l-.03.069zm.01.005l.03-.069h0l-.03.069zm1.419-.165l.044.061-.069-.131.025.071zm-.377.274v.075h.024l.02-.014-.044-.061zm-.982.388l-.065-.037h0l.065.037zm-.063.098l-.059-.046h0l.059.046zm-.136.094l-.028-.07h0l.028.07zm-.148.052l-.025-.071-.006.003.03.069zm0 0l.025.071.006-.003-.03-.069zm-.33.116l-.026-.07h0l.026.07zm-.484.265l.043.061h0l-.043-.061zm-.088.063l-.044-.061h0l.044.061zm0 0l-.044-.061-.001.001.045.06zm0 0l.044.061.001-.001-.045-.06zm0 0l-.044-.061h0l.044.061zm-.108.078l.043.061h0l-.043-.061zm-.145.185l.068.032-.068-.032zm-.157.121v-.075h-.011l-.01.003.021.072zm-.844.241l-.021-.072.021.147v-.075zm1.372-.241l-.043-.061h0l.043.061zm.118-.085l-.044-.061h0l.044.061zm0 0l.044.061h0l-.044-.061zm.001 0l.044.061h0l-.044-.061zm0 0l-.044-.061h0l.044.061zm.079-.057l-.043-.061h0l.043.061zm.395-.218l-.026-.07h0l.026.07zm.298-.105l.025.071h0l-.025-.071zm0 0l-.024-.071h0l.025.071zm.001 0l-.024-.071H4.32l.024.071zm0 0l.024.071h.001l-.024-.071zm0 0l.024.071h0l-.025-.071zm0 0l-.025-.071h0l.025.071zm.187-.066l.028.07h0l-.028-.07zm.299-.216l-.059-.046h0l.059.046zm.093-.142l.065.037h0l-.065-.037zm.001-.001l-.065-.037h0l.065.037zm.097-.136l.047.059h0l-.047-.059zm.543-.057v.075h0v-.075zm.884-.648l.072.02.02-.073-.074-.019-.019.073zm-.375-.097l.019-.073-.034-.009-.029.021.044.061zm5.503-5.682l.003.075.075-.003-.003-.075-.075.003zm-.387.015l-.003-.075-.075.003.003.075.075-.003zm-.879-.26l.024.071h0l-.024-.071zm-.083.03l-.027-.07.054.14-.027-.07zm-.059.023l-.026-.07h0l.026.07zm-.024.009l-.024-.071h0l.024.071zm-.005.002l.029-.069-.014-.006h-.015v.075zm1.059.258l.021-.072h0l-.021.072zm.017.005l-.025.071h0l.025-.071zm.005.001l.049-.056h0l-.049.056zm-.225.592l-.003-.075-.075.003.003.075.075-.003zm.387-.015l.003.075.075-.003-.003-.075-.075.003zm-.356.083l-.049.056h0l.049-.056zm-.005-.001l-.025.071.025-.071zm-.017-.005l-.021.072h0l.021-.072zm-.762.035l-.024-.071h0l.024.071zm-.066.024l-.027-.07.054.14-.027-.07zm-.064.025l-.026-.07h0l.026.07zm-.168.036v-.075h-.011l-.011.003.021.072zm-.451.135v.075h.011l.01-.003-.021-.072zm.619-.487l-.024-.071h0l.024.071zm.143-.057l.03.069h0l-.03-.069zm.836.874l.003.075.075-.003-.003-.075-.075.003zm-.387.015l-.003-.075-.075.003.003.075.075-.003zm-1.21.146l-.044-.061-.186.136h.23v-.075zm.072.004l-.005.075h0l.005-.075zm0 0l-.005.075h.005v-.075zm0 0l.005-.075h-.005v.075zm.256-.004l-.026-.07h0l.026.07zm.064-.025l-.027-.07.054.14-.027-.07zm.066-.024l.024.071h0l-.024-.071zm.762-.035l-.021.072h0l.021-.072zm.017.005l-.025.071.025-.071zm.005.001l-.049.056h0l.049-.056zm-.128.781l-.003-.075-.075.003.003.075.075-.003zm.387-.015l.003.075.075-.003-.003-.075-.075.003zm-.356.083l.049-.056h0l-.049.056zm-.005-.001l.025-.071h0l-.025.071zm-.017-.005l.021-.072h0l-.021.072zm-1.059-.258l.029-.069-.014-.006h-.015v.075zm.005-.002l-.024-.071h0l.024.071zm.024-.009l-.026-.07h0l.026.07zm.059-.023l-.027-.07.054.14-.027-.07zm.083-.03l-.024-.071h0l.024.071zm.782.906l.003.075.075-.003-.003-.075-.075.003zm-.387.015l-.003-.075-.075.003.003.075.075-.003zm-.879-.26l-.024-.071h0l.024.071zm-.142.053l.026.07h0l-.026-.07zm.219.053l.016-.073-.016.073zm-.248-.043l.014-.074-.031.147.018-.073zm1.059.258l.021-.072h0l-.021.072zm.017.005l.026-.07-.002-.001-.025.071zm0 0l-.026.07.002.001.025-.071zm.005.001l.049-.057h0l-.049.057zm.604-3.651l-.069-.03h0l.069.03zm-.001.002l.069.03h0l-.069-.03zm-.019.042l.068.033v-.001l-.068-.032zm-.006.012l.068.033h0l-.068-.033zm-.042.073l-.075-.002-.007.257.144-.213-.062-.042zm1.103-.612h.075v-.075h-.075v.075zm0 .377v.075h.075v-.075h-.075zm-.122-.576l.387-.015-.006-.15-.387.015.006.15zm.077-.063l-.155-.009c.002.048.024.093.056.122l.099-.113zm-.079.126c.013.004.019.005.027.006s.014 0 .026-.004.037-.016.047-.046.001-.048-.002-.056-.008-.015-.01-.017l-.108.103c-.011-.011-.015-.017-.019-.026s-.011-.029-.002-.055.035-.042.047-.046.022-.004.025-.004l.018.003-.049.142zm-.014-.004l.063-.137-.02-.007-.043.144zm-.292-.026c.145 0 .242.011.292.026l.043-.144c-.072-.021-.187-.032-.335-.032v.15zm-.537-.024l.537.024v-.15c-.121 0-.358-.014-.529-.023l-.009.15zm-.18-.009c.017 0 .085.004.18.009l.009-.15-.188-.01v.15zm-.488.071c0 .024.009.05.031.068s.04.021.053.022c.026.003.053-.003.074-.008a1.09 1.09 0 0 0 .154-.058l.145-.069.048-.025.018-.009c0 0 0 0-.035-.066l-.035-.066-.063.033-.139.066a.96.96 0 0 1-.13.05l-.02.004c.002 0 .014.002.027.013s.022.032.022.046h-.15zm.459-.342l-.045-.06-.017.013-.044.034-.133.107-.136.119-.05.052a.21.21 0 0 0-.019.027.1.1 0 0 0-.014.05h.15c0 .01-.002.017-.003.02l.04-.04.128-.111.13-.105.043-.033.016-.012c0 0 0 0-.045-.06zm-.019-.073l-.021.01c-.002.001-.01.006-.017.015s-.029.037-.012.078c.014.033.043.042.046.043l.024.004v-.15c.008.001.015.001.023.004s.032.01.046.043c.017.04-.007.071-.012.077s-.015.013-.017.014l-.059-.136zm.022-.008l-.022.008.048.142.026-.009-.053-.141zm.112.117c-.005.002-.015.004-.023.005-.074-.05-.043-.139-.038-.142l-.052.02.053.141.037-.014.023-.009c.013-.006.044-.095-.031-.145l-.021.004.052.141zm.032-.171l-.086.031.054.14.08-.029-.048-.142zm.599-.089c-.241 0-.428.031-.599.089l.048.142c.154-.052.324-.081.551-.081v-.15zm.766.402c-.003-.076-.024-.144-.065-.201a.39.39 0 0 0-.166-.126c-.132-.057-.316-.075-.535-.075v.15c.217 0 .373.019.475.063.05.021.083.047.104.077s.035.067.037.119l.15-.006zM9.75 16.913l.359.141.055-.14-.359-.141-.055.14zm-.671 1.256l.763-1.287-.129-.076-.763 1.288.129.076zm-.221.138c.075-.037.141-.074.199-.115l-.086-.123c-.051.035-.109.068-.179.103l.066.135zm-.147.067l.147-.067-.066-.135-.141.064.06.138zm-.133-.106c-.002.001-.039.099.056.139l.032-.014.044-.019-.06-.138-.044.019-.021.009c.091.043.053.14.052.141l-.06-.137zm-.012.169l.072-.032-.06-.138-.074.032.061.137zm-.198.084l.198-.084-.061-.137-.194.082.058.139zm.001 0h0l-.059-.138h0l.059.138zm-.001.001h0l-.057-.139h0l.057.139zm-.989.566c0-.006.002-.018.016-.038s.034-.043.065-.068c.061-.052.148-.106.251-.162.206-.111.461-.217.657-.299l-.058-.139-.671.305c-.107.057-.205.118-.277.18a.5.5 0 0 0-.092.099c-.023.035-.041.076-.041.122h.15zm1.082-.282l-1.17.208.026.148 1.17-.208-.026-.148zm.206-.163c-.089.04-.152.073-.193.105s-.075.075-.075.131h.15c0 .009-.008.006.017-.013a.87.87 0 0 1 .163-.087l-.061-.137zm.069-.03l-.069.03.061.137.067-.03-.06-.138zm.074-.032l-.044.019-.021.009c.007-.001.095.056.053.14l-.061-.137c-.044.085.044.142.058.138l.031-.013.045-.019-.06-.138zm.157-.072l-.157.072.06.138.163-.074-.066-.135zm.231-.133c-.069.048-.144.091-.231.133l.066.135c.092-.045.174-.092.25-.145l-.086-.123zm.87-1.421c-.16.386-.311.695-.457.932s-.284.398-.414.488l.086.123c.155-.108.305-.287.456-.533s.306-.564.467-.953l-.139-.057zm-2.252 1.048l-.388-.003-.001.15.388.003.001-.15zm-1.469 1.311a3.75 3.75 0 0 0 .939-.433c.16-.105.309-.225.419-.358s.185-.282.186-.445l-.15-.001c-.001.115-.054.233-.151.35a1.74 1.74 0 0 1-.385.328c-.306.2-.671.35-.898.415l.041.144zm.603-.603l-.667.47.086.123.667-.47-.086-.123zm.414-.676l-.435.697.127.079.435-.697-.127-.079zm-1.565.098l.127.337.14-.053-.127-.337-.14.053zm-.898.304l.987-.258-.038-.145-.987.258.038.145zm-.249-.065c.108.047.165.068.23.068v-.15c-.029 0-.06-.007-.17-.055l-.06.137zm-.01-.005l.01.005.06-.137-.01-.005-.06.137zm-.732.104c.131-.121.24-.175.348-.187s.229.015.384.083l.06-.137c-.165-.072-.314-.112-.462-.095s-.287.092-.432.226l.102.11zm-.059.056l.059-.056-.102-.11-.062.058.104.108zm-.543.359c.021-.015.056-.022.084-.016a.13.13 0 0 1 .038.098l-.011.018.042-.047.122-.132.267-.28-.104-.108-.273.286-.122.133-.035.039-.017.02c-.01.023-.001.079.032.109.028.006.064-.001.07-.005l-.093-.116zm-.042.24c.043-.029.091-.074.151-.136l-.108-.104a.9.9 0 0 1-.127.116l.085.124zm-.087.037c.013 0 .024-.004.029-.005.03-.013.043-.021.058-.031l-.085-.124c-.011.007-.018.011-.021.013l.019.148zm-.398.364l.447-.382-.098-.114-.447.382.098.114zm.811-.383a.52.52 0 0 1-.168.102 1.75 1.75 0 0 1-.256.082c-.182.045-.361.067-.436.067v.15a2.38 2.38 0 0 0 .471-.071 1.9 1.9 0 0 0 .278-.089c.084-.036.164-.08.218-.137l-.108-.104zm.428-.456l-.261.274-.121.132-.036.04-.014.015a.12.12 0 0 0-.015.03c.016.066.097.088.114.08l-.095-.115c.03-.019.111.004.127.069-.003.011-.01.023-.011.025l.041-.044.12-.131.255-.268-.104-.108zm.055-.052l-.055.052.104.108.053-.05-.102-.11zm.469-.061c-.094-.041-.173-.071-.251-.062s-.146.058-.218.123l.102.11c.071-.065.104-.082.133-.085s.076.008.175.051l.06-.137zm.01.005l-.01-.004-.06.137.01.005.06-.137zm.329.088c-.104 0-.173-.02-.329-.088l-.06.137c.161.07.253.101.389.101v-.15zm1.036-.255c-.492.173-.829.255-1.036.255v.15c.235 0 .595-.091 1.086-.264l-.05-.142zm-.308.405l.377-.274-.088-.121-.377.274.088.121zm-.961.364c.097-.17.167-.248.28-.292.123-.047.303-.058.637-.058v-.15c-.327 0-.538.009-.691.068-.163.063-.254.179-.356.357l.13.075zm-.069.107a.93.93 0 0 0 .069-.107l-.13-.075c-.024.042-.042.07-.058.09l.119.092zm-.168.118a.48.48 0 0 0 .097-.049c.029-.02.05-.042.071-.069l-.119-.092c-.014.018-.025.029-.038.037a.34.34 0 0 1-.067.033l.056.139zm-.152.053l.152-.053-.056-.139-.145.051.049.142zm.006-.002h0l-.061-.137h0l.061.137zm-.334.118l.328-.116-.049-.142-.332.117.053.14zm-.467.256a1.97 1.97 0 0 1 .467-.256l-.053-.14a2.12 2.12 0 0 0-.501.274l.087.122zm-.087.063l.087-.063-.087-.122-.088.064.088.122zm0 0h0l-.088-.122h0l.088.121zm.001-.001h0l-.091-.12h0l.091.12zm-.002.001h0l-.088-.122h0l.088.122zm-.109.078l.109-.078-.088-.122-.107.077.086.123zm-.12.156c.027-.056.052-.108.12-.156l-.086-.123c-.102.071-.142.155-.17.214l.135.065zm-.225.164c.064 0 .115-.018.155-.056s.055-.077.07-.108l-.135-.065c-.018.038-.027.054-.038.065s-.017.014-.051.014v.15zm-.824.238l.844-.241-.041-.144-.844.241.041.144zm1.309-.375c-.05.035-.139.069-.256.099a3.53 3.53 0 0 1-.387.073 5.74 5.74 0 0 1-.686.055v.15a5.88 5.88 0 0 0 .707-.056l.404-.077c.12-.031.231-.07.304-.122l-.086-.123zm.117-.084l-.117.084.086.123.119-.086-.088-.122zm0 0h0l.088.122h0l-.088-.122zm0 0h-.001l.088.122h.001l-.088-.122zm0 0h0l.088.121h0l-.088-.121zm.08-.058l-.08.057.088.122.078-.056-.087-.123zm.412-.227c-.145.054-.266.123-.412.227l.087.123c.14-.099.249-.16.378-.209l-.053-.141zm.3-.106l-.3.106.053.141.296-.105-.049-.142zm0 0h0l.049.142h0l-.049-.142zm.001 0h-.001l.049.142h.001l-.049-.142zm.001 0h0l.047.142h0l-.047-.142zm-.001 0h0l.049.142h0l-.049-.142zm0 0h0l.049.142h0l-.049-.142zm.183-.065l-.183.064.049.142.19-.067-.056-.139zm.267-.192a.57.57 0 0 1-.267.192l.056.139a.72.72 0 0 0 .33-.24l-.119-.092zm.087-.133a1.13 1.13 0 0 1-.087.133l.119.092c.033-.043.065-.091.098-.151l-.13-.075zm.001-.001l-.001.001.13.075.001-.001-.13-.075zm.115-.157c-.05.04-.081.097-.115.157l.13.075c.039-.069.057-.096.079-.114l-.093-.117zm.589-.074c-.175 0-.297 0-.383.007s-.153.024-.206.066l.093.117c.018-.015.048-.027.126-.034a5.07 5.07 0 0 1 .37-.007v-.15zm.003 0h-.003v.15h.003v-.15zm.808-.593c-.054.198-.151.344-.284.442s-.308.151-.524.151v.15c.241 0 .449-.06.613-.18s.279-.299.34-.523l-.145-.04zm-.321-.005l.375.097.038-.145-.375-.097-.038.145zm-.013.044l.076-.056-.088-.121-.076.056.088.121zm5.533-5.873l-.387.015.006.15.387-.015-.006-.15zm-.688-.18c.217 0 .373.019.475.063.05.021.083.047.104.077s.035.067.037.119l.15-.006c-.003-.076-.024-.144-.065-.201a.39.39 0 0 0-.166-.126c-.132-.057-.316-.075-.535-.075v.15zm-.551.081c.154-.052.324-.081.551-.081v-.15c-.241 0-.428.031-.599.088l.048.142zm-.08.029l.08-.029-.048-.142-.086.031.054.14zm-.06.023l.037-.014.023-.009c.013-.006.044-.095-.031-.145l-.021.004.052.141c-.005.002-.015.004-.023.005-.075-.05-.043-.139-.038-.142l-.052.02.053.14zm-.026.009l.026-.009-.053-.14-.022.008.048.142zm-.029-.144c.009.001.015.001.023.004.003.001.032.01.046.043.017.04-.007.071-.012.078s-.015.013-.017.014l-.059-.136-.021.009c-.002.001-.01.006-.017.015s-.029.037-.012.078c.014.033.043.042.046.042l.024.004v-.15zm.746.229a.79.79 0 0 1-.177-.033l-.242-.077-.209-.078-.065-.026-.022-.009c-.002-.001-.002-.001-.03.069l-.029.069.025.01.066.026.214.08.253.08a.91.91 0 0 0 .217.038v-.15zm.335.032a1.29 1.29 0 0 0-.335-.032v.15a1.17 1.17 0 0 1 .292.026l.043-.144zm.02.006l-.02-.006-.043.144.063-.137zm-.069.128c-.011-.011-.015-.017-.019-.026s-.011-.029-.002-.055.034-.042.047-.046.022-.004.025-.004l.018.003-.049.142c.013.004.019.005.027.006s.014 0 .026-.004.037-.017.047-.046.001-.048-.002-.055-.008-.015-.011-.017l-.108.103zm-.056-.122c.002.048.024.093.056.122l.099-.113-.155-.009zm-.116.732l.387-.014-.006-.15-.387.015.006.15zm.077-.063l-.155-.009c.002.048.024.093.056.122l.099-.113zm-.079.126c.013.004.019.005.027.006s.014 0 .026-.004.037-.017.047-.046.001-.048-.002-.055-.008-.015-.011-.017l-.108.103c-.011-.011-.015-.017-.019-.026s-.011-.029-.002-.055.034-.042.047-.046.022-.004.025-.004l.018.003-.049.142zm-.013-.004l.063-.137-.02-.007-.043.144zm-.292-.026c.145 0 .242.011.292.026l.043-.144c-.072-.021-.187-.032-.335-.032v.15zm-.425.06c.113-.038.24-.06.425-.06v-.15c-.197 0-.341.023-.473.068l.048.142zm-.063.023l.063-.023-.048-.142-.069.025.054.14zm-.064.025l.042-.016.019-.007c.011-.005.018-.009.023-.012.027-.077-.048-.134-.063-.132l.043.143c-.024.005-.099-.052-.072-.13l.017-.01-.023.009-.04.015.053.141zm-.194.04c.069 0 .126-.015.194-.04l-.053-.141a.38.38 0 0 1-.142.031v.15zm-.43.131l.451-.135-.043-.144-.451.135.043.144zm.574-.63c-.01.003-.018.008-.019.009l-.036.025-.075.057-.213.168-.207.165-.067.055-.019.015c-.013.011-.017.016-.021.022s-.01.022-.012.035c.005.033.047.076.075.081v-.15c.027.005.07.048.075.081-.002.013-.009.031-.012.035.026-.017.049-.035.076-.058l.206-.165.211-.166.073-.055.021-.015-.055-.14zm.137-.055l-.137.055.048.142c.049-.017.1-.038.149-.06l-.06-.138zm.465-.122c-.186 0-.34.068-.465.122l.06.138c.127-.055.255-.11.406-.11v-.15zm.766.402c-.003-.076-.024-.144-.065-.201a.39.39 0 0 0-.166-.126c-.132-.057-.316-.075-.535-.075v.15c.217 0 .373.019.475.063.05.021.083.047.104.077s.035.067.037.119l.15-.006zm-.368.588l-.387.015.006.15.387-.015-.006-.15zm-.688-.18c.217 0 .373.019.475.063.049.021.083.047.104.077s.035.067.037.119l.15-.006c-.003-.076-.024-.144-.065-.201a.39.39 0 0 0-.166-.126c-.132-.057-.316-.075-.535-.075v.15zm-.906.415l.044.061.029-.021.078-.055.254-.166.293-.165c.096-.046.168-.069.208-.069v-.15c-.077 0-.177.038-.273.084a3.37 3.37 0 0 0-.308.172l-.26.17-.08.056-.022.016c-.008.006-.008.006.036.066zm.077-.071l-.077-.004v.15c.012 0 .035.002.067.004l.01-.15zm0 0h0l-.009.15h0l.009-.15zm-.005 0h0v.15h0v-.15zm.23.001a.19.19 0 0 1-.028.004.65.65 0 0 1-.059.002l-.139-.007-.01.15.147.007.073-.002a.26.26 0 0 0 .068-.013l-.053-.14zm.117.115c-.024.005-.099-.052-.072-.13l.018-.01-.023.009-.04.015.053.14.042-.016.019-.007c.011-.005.018-.009.024-.012.027-.078-.048-.134-.063-.132l.043.143zm.015-.165l-.069.025.054.14.063-.023-.048-.142zm.472-.068c-.197 0-.341.023-.472.068l.048.142c.113-.038.24-.06.424-.06v-.15zm.335.032a1.29 1.29 0 0 0-.335-.032v.15a1.17 1.17 0 0 1 .292.026l.043-.144zm.02.006l-.02-.006-.043.144.063-.137zm-.069.128c-.011-.011-.015-.017-.019-.026s-.011-.029-.002-.055.034-.042.047-.046.022-.004.025-.004l.018.003-.049.142c.013.004.019.005.027.006s.014 0 .026-.004.037-.016.047-.046.001-.048-.002-.055-.009-.015-.01-.017l-.108.103zm-.056-.122c.002.048.024.093.056.122l.099-.113-.155-.009zm-.019.921l.387-.015-.006-.15-.387.015.006.15zm.077-.063l-.155-.009c.002.048.024.093.056.122l.099-.113zm-.079.126c.013.004.019.005.027.006s.014 0 .026-.004.037-.016.047-.046.001-.048-.002-.056-.008-.015-.01-.017l-.108.103c-.011-.011-.015-.017-.019-.026s-.011-.029-.002-.055.034-.042.047-.046.022-.004.025-.004l.018.003-.049.142zm-.013-.004l.063-.137-.02-.006-.043.144zM10.303 15a1.17 1.17 0 0 1 .292.026l.043-.144a1.29 1.29 0 0 0-.335-.032V15zm-.746-.304l-.029.069.025.01.066.026.214.08.253.08a.91.91 0 0 0 .217.038v-.15c-.037 0-.099-.012-.177-.033l-.242-.077-.209-.078-.065-.026-.022-.009c-.001-.001-.001-.001-.03.069zm-.019-.073l-.021.009c-.002.001-.01.006-.017.015s-.029.037-.012.078c.014.033.043.042.046.043l.024.004v-.15c.009 0 .015.001.023.004s.032.01.046.043c.017.04-.007.071-.012.078s-.015.013-.017.014l-.059-.136zm.022-.008l-.022.008.048.142.026-.009-.053-.141zm.112.117c-.005.002-.015.004-.023.005-.074-.05-.043-.139-.038-.142l-.052.02.053.141.037-.014.023-.009c.013-.006.044-.095-.03-.145l-.021.004.052.141zm.032-.171l-.086.031.054.14.08-.029-.048-.142zm.599-.088c-.241 0-.428.031-.599.088l.048.142a1.67 1.67 0 0 1 .551-.081v-.15zm.766.402c-.003-.077-.024-.144-.065-.201a.39.39 0 0 0-.166-.126c-.132-.057-.316-.075-.535-.075v.15c.217 0 .373.019.475.063.05.021.083.047.104.077s.035.067.037.119l.15-.006zm-.562.588l-.387.015.006.15.387-.015-.006-.15zm-.688-.18c.217 0 .373.019.475.063.049.021.082.047.104.077s.035.067.037.119l.15-.006c-.003-.076-.024-.144-.065-.201a.39.39 0 0 0-.166-.126c-.132-.057-.316-.075-.535-.075v.15zm-.551.081c.154-.052.324-.081.551-.081v-.15c-.241 0-.428.031-.599.089l.048.142zm-.08.029l.08-.029-.048-.142-.086.031.054.14zm-.06.023l.037-.014.023-.009c.013-.006.044-.095-.03-.145l-.021.004.052.141a.12.12 0 0 1-.023.005c-.074-.05-.043-.139-.038-.142l-.052.02.053.14zm.208-.09l-.146-.032-.051-.013c.015.013.044.039.035.081s-.044.053-.047.054l-.053-.14c-.003.001-.039.014-.048.055s.02.069.023.072c.012.011.025.016.025.016.007.003.016.006.023.007l.058.014.148.033.032-.147zm-.277.104l.313.058.027.002c.001 0 .012-.001.024-.006.006-.003.022-.01.034-.029.015-.024.014-.05.006-.069s-.016-.024-.02-.027a.12.12 0 0 0-.025-.014l-.081-.019-.032.147.061.013c-.014-.008-.018-.01-.022-.014s-.013-.012-.02-.027-.009-.046.006-.069c.012-.018.028-.026.034-.028.012-.005.023-.006.024-.006-.016-.005-.104-.021-.301-.058l-.028.147zm1.095.112l-.556-.137-.35-.084-.114-.027-.032-.008c-.011-.003-.011-.003-.029.07l-.017.073.043.01.114.027.35.084.549.135.043-.144zm.02.006l-.02-.006-.043.144.063-.137zm.002.001h0l-.053.14h0l.053-.14zm-.071.128c-.01-.011-.015-.017-.019-.026s-.011-.029-.002-.055.034-.042.047-.046.022-.004.025-.004l.018.003-.049.142c.013.004.019.005.027.006s.014 0 .026-.004.037-.017.047-.046.001-.048-.002-.055-.008-.015-.01-.017l-.108.103zm-.056-.122c.002.048.024.093.056.122l.099-.113-.155-.009zm.779-3.556c.007-.017.011-.021.015-.024s.015-.011.045-.017c.063-.014.177-.02.398-.02v-.15c-.218 0-.349.005-.431.023a.25.25 0 0 0-.108.048c-.03.025-.046.054-.057.08l.137.06zm-.001.002l.001-.002-.137-.06-.001.002.137.06zm-.019.044l.019-.044-.137-.06-.018.04.136.064zm-.006.012l.006-.012-.135-.065-.006.012.135.065zm-.048.083a.66.66 0 0 0 .047-.083l-.135-.066c-.011.023-.023.044-.037.064l.124.084zm.532-.729a.65.65 0 0 0-.379.109c-.096.066-.159.154-.201.239a.88.88 0 0 0-.076.23l-.011.076-.002.022c0 .009 0 .009.075.011l.075.002.002-.021.009-.063a.73.73 0 0 1 .062-.191c.034-.068.083-.134.153-.182a.5.5 0 0 1 .294-.082v-.15zm.394 0h-.394v.15h.394v-.15zm0 .15h.115v-.15h-.115v.15zm.115 0h0v-.15h0v.15zm-.075-.075v.377h.15v-.377h-.15zm.075.302h-.115v.15h.115v-.15zm-.509.15h.394v-.15h-.394v.15z" class="D"/><g class="C"><path d="M27.216 4.81s-.548-.258-1.412-.258-.207-.77-1.451-.77-.874-.77-2.575 0-1.996.343-1.996.343-1.29-.427-1.29 0 .798.965-.445.965-1.622 1.07-.811 2.284 1.256 2.724 1.256 2.724.968 1.063 0 1.063-1.419-1.062-1.762-1.062h-1.896c-1.499 0-2.298-.661-3.396.888s-.797 2.376-.797 2.92-.009 2.095-1.359 2.095-1.805.9-2.514 1.255-1.188.898-1.188 1.168.301.609 1.188.305 1.484-.229 2.223-.881 2.448-1.774 2.448-1.476-.269 1.476 0 1.476 1.927 1.096 1.098 1.56-.829-.464-.829 0v1.216h2.065c.328 0 .328-.314.328-.765s.291-.451.291-.451.645 1.553.645.788.534-1.468-.201-1.468-.649-.609-1.062-.305-.343.075-.789-.576 0-1.476 0-1.476.826.505 1.117.505h.936l.329-1.755-.973-.394s-.582-.348-.291-.348 1.117-.946 0-.473-.67 1.215-1.117 1.215-1.693-2.474.344-2.474 3.91.768 5.166.768.088 1.359.855 1.706 2.253.88 3.164.88c.294.237.45 1.846 1.353 1.846s-.488-1.335 0-1.846 1.938 0 1.938 0 .314-.88-.569-.88c-.355 0-.926-.104-.882-.248.066-.213 1.258-.982 1.081-.681 0 0-.923-.535-1.569 0s.381.681-.979.681-1.386-.208-1.386-.681.767-3.079.65-3.523.646.221 1.704.318 1.95-.888 1.95-.888.823 1.205 1.412.888 1.072-.559 1.072-.723.57-.63.383-.826-.217-1.153-.52-.577-1.691-.508-1.832-.331-.158.61-.678.61-.709.316-2.017.158-1.052-.187-1.844-.768-1.221-.842-1.221-1.155.665-1.031.943-.614.102.614.806.614 2.047-.081 2.047.287.092 1.203.587 1.035 1.442-.918.295-1.323-1.764-1.234-.882-1.234.936.255 1.451.255 1.112.071 1.112-.368.426-.657.426-.938-.126-.28-.126-.28z" stroke="#979797" stroke-width=".15" class="B"/><path d="M25.446 4.563a.29.29 0 0 0-.29-.299c-.16 0-.291.127-.291.283 0 .123.081.228.194.267.008-.149.135-.267.29-.267.034 0 .066.006.096.016zm-1.089.832c-.046-.05-.073-.116-.073-.188 0-.156.13-.283.291-.283h.024c-.053-.058-.131-.095-.217-.095-.161 0-.291.127-.291.283 0 .149.117.27.267.282z" fill="#000"/><g stroke="#979797" stroke-width=".15" class="B"><path d="M12.851 21.906c.589 0 1.066-.444 1.066-.991s-.477-.991-1.066-.991-1.066.444-1.066.991.477.991 1.066.991zm2.132-5.095c.589 0 1.066-.444 1.066-.99s-.477-.991-1.066-.991-1.066.444-1.066.991.477.99 1.066.99zm9.931 1.038a1.22 1.22 0 0 0 1.211-1.226 1.22 1.22 0 0 0-1.211-1.226 1.22 1.22 0 0 0-1.211 1.226 1.22 1.22 0 0 0 1.211 1.226z"/></g></g></g><defs><clipPath id="A"><path d="M0 0h32v24H0z" class="B"/></clipPath></defs></svg>
