<svg xmlns="http://www.w3.org/2000/svg" viewBox="0 0 32 24" fill="none"><style><![CDATA[.B{fill:#b20000}.C{fill-rule:evenodd}]]></style><g clip-path="url(#A)"><path fill="#fff" d="M0 0h32v24H0z"/><g class="C"><path d="M0 0H32V24H0V0Z" fill="#73be4a"/><path d="M0 0V16H32V0H0Z" fill="#af0100"/></g><path fill="#f7fcff" d="M0 0h6v24H0z"/><g class="B C"><path d="M.444 2.236L1.897.057l1.415 2.179-1.415 2.079L.444 2.236zm1.447 1.189l.814-1.196L1.891.975l-.836 1.254.836 1.196zM2 2.065h-.25v.516H2v-.516z"/><use href="#B"/><path d="M2.637 4.186l-.693.991.693.945.675-.945-.675-.991zm.324 1.007l-.312.424-.316-.449.315-.465.313.49z"/><path d="M3.637 4.186l-.693.991.693.945.675-.945-.675-.991zm.324 1.007l-.312.424-.316-.449.315-.465.313.49zm1.176-1.007l-.693.991.693.945.675-.945-.675-.991zm.324 1.007l-.312.424-.316-.449.315-.465.313.49zM2.944 2.236L4.397.057l1.415 2.179-1.415 2.079-1.453-2.079zm1.447 1.189l.814-1.196L4.391.975l-.836 1.254.836 1.196zm.109-1.36h-.25v.516h.25v-.516z"/></g><path d="M1.656 12.406L.037 9.687l.426-.27 1.174 1.971 1.432-2.632 1.468 2.638 1.037-1.721.425.273L4.52 12.4 3.074 9.801l-1.418 2.605z" class="B"/><g class="C B"><path d="M.75.516h.269v.516H.75V.516zM3 0h.269v.516H3V0zm2.25.516h.269v.516H5.25V.516z"/><use href="#C"/><path d="M.75 6.194H1v.516H.75v-.516zm2.25 0h.25v.516H3v-.516zm2.5 0h-.25v.516h.25v-.516zM2.208 8.955l-.664.968L.496 8.036l1.38-2.156 1.187 1.879L4.249 5.88l1.38 2.156-1.048 1.887-.664-.968.524-1.09-.192-.443-1.12 1.817v.215l-.066-.108-.066.108v-.215l-1.12-1.817-.192.443.524 1.09zM3 10.581h.25v.516H3v-.516zm0 2.581h.25v.516H3v-.516zm0-1.807h-.25v.516H3v.258h-.25v.516H3v-.258h.25v.258h.25v-.516h-.25v-.258h.25v-.516h-.25v.516H3v-.516zm-.75.516h.25v.516h-.25v-.516zm1.75 0h-.25v.516H4v-.516zm-3.5 0h.25v.516H.5v-.516zm5.25 0H5.5v.516h.25v-.516zM.444 21.764l1.453 2.179 1.415-2.179-1.415-2.079-1.453 2.079zm1.447-1.189l.814 1.196-.814 1.254-.836-1.254.836-1.196zM2 21.936h-.25v-.516H2v.516z"/><use href="#D"/><path d="M2.637 19.814l-.693-.991.693-.945.675.945-.675.991zm.324-1.007l-.312-.424-.316.449.315.465.313-.49z"/><path d="M3.637 19.814l-.693-.991.693-.945.675.945-.675.991zm.324-1.007l-.312-.424-.316.449.315.465.313-.49zm1.176 1.007l-.693-.991.693-.945.675.945-.675.991zm.324-1.007l-.312-.424-.316.449.315.465.313-.49zm-2.517 2.957l1.453 2.179 1.415-2.179-1.415-2.079-1.453 2.079zm1.447-1.189l.814 1.196-.814 1.254-.836-1.254.836-1.196zm.109 1.361h-.25v-.516h.25v.516z"/></g><path d="M1.656 11.594L.037 14.313l.426.27 1.174-1.971 1.432 2.632 1.468-2.638 1.037 1.721.425-.272L4.52 11.6l-1.446 2.599-1.418-2.605z" class="B"/><g class="C B"><path d="M.75 23.484h.269v-.516H.75v.516zM3 24h.269v-.516H3V24zm2.25-.516h.269v-.516H5.25v.516z"/><use href="#E"/><path d="M.75 17.807H1v-.516H.75v.516zm2.25 0h.25v-.516H3v.516zm2.5 0h-.25v-.516h.25v.516zm-3.292-2.614l-.664-.968-1.048 1.887 1.38 2.156 1.187-1.879 1.187 1.879 1.38-2.156-1.048-1.887-.664.968.524 1.09-.192.443-1.12-1.817v-.215l-.066.108-.066-.108v.215l-1.12 1.817-.192-.443.524-1.09z"/></g></g><defs><clipPath id="A"><path fill="#fff" d="M0 0h32v24H0z"/></clipPath><path id="B" d="M1.137 4.186l-.693.991.693.945.675-.945-.675-.991zm.324 1.007l-.312.424-.316-.449.315-.465.313.49z"/><path id="C" d="M.75 3.613H1v.516H.75v-.516zm2.25 0h.25v.516H3v-.516zm2.5 0h-.25v.516h.25v-.516z"/><path id="D" d="M1.137 19.814l-.693-.991.693-.945.675.945-.675.991zm.324-1.007l-.312-.424-.316.449.315.465.313-.49z"/><path id="E" d="M.75 20.387H1v-.516H.75v.516zm2.25 0h.25v-.516H3v.516zm2.5 0h-.25v-.516h.25v.516z"/></defs></svg>
