<svg xmlns="http://www.w3.org/2000/svg" viewBox="0 0 32 24" fill="none"><style><![CDATA[.B{fill-rule:evenodd}.C{fill:#fff}.D{stroke-width:.5}]]></style><g clip-path="url(#C)"><path d="M0 0h32v24H0z" class="C"/><path d="M0 0V24H32V0H0Z" fill="#0168b4" class="B"/><mask id="A" maskUnits="userSpaceOnUse" x="0" y="0" width="32" height="24"><path d="M0 0V24H32V0H0Z" class="B C"/></mask><g mask="url(#A)"><path d="M0 0v3h32V0H0zm0 21v3h32v-3H0z" fill="#e93c43" class="B"/><path d="M16 18a6 6 0 1 1 0-12 6 6 0 1 1 0 12z" fill="#f7fcff"/><path d="M16 20a8 8 0 1 1 0-16 8 8 0 1 1 0 16z" class="C"/><path d="M16 19a7 7 0 1 0 0-14 7 7 0 1 0 0 14z" stroke="#9c4c17" class="D"/><path d="M15.573 4.083l-.155.335c.256.139.353.454.353.645s-.1.333-.353.465l.155.346.31-.146c.356-.158.638-.283.638-.665 0-.466-.428-.698-.889-.948l-.059-.032zm2.24.21l-.242.279c.208.204.215.534.162.717s-.188.292-.468.349l.054.376.338-.055c.385-.054.691-.097.796-.463.129-.448-.219-.789-.593-1.156l-.048-.047zm1.795 1.03l.313-.196.032.059c.251.461.484.888.23 1.279-.208.32-.513.271-.897.21l-.34-.046.058-.375c.284.027.447-.039.549-.197s.194-.477.055-.733zm2.084 1.193l-.355.103c.063.285-.111.564-.255.689s-.317.143-.583.038l-.159.344.314.138h0c.352.165.632.296.92.045.352-.306.246-.78.132-1.293l-.014-.065zm.94 1.831l.369-.001-.004.067c-.031.524-.06 1.009-.483 1.206-.346.161-.579-.042-.872-.297l-.264-.219.248-.287c.227.174.399.203.571.124s.417-.302.435-.593zm1.12 2.137l-.353-.107c-.102.273-.4.413-.589.439s-.343-.053-.51-.285l-.321.202.188.287c.206.33.369.592.747.539.462-.065.631-.52.815-1.012l.023-.063zm-.2 2.048l.31.2-.04.054c-.312.422-.6.813-1.062.749-.378-.053-.463-.35-.57-.724l-.102-.327.364-.106c.096.269.224.388.411.415s.514-.026.688-.26zm-.216 2.405l-.238-.282c-.234.173-.561.128-.733.048s-.259-.231-.272-.517l-.379-.006.001.343c-.007.389-.013.698.333.859.423.197.813-.093 1.235-.405l.054-.04zm-1.275 1.614l.151.337-.063.023c-.491.184-.947.355-1.299.049-.288-.25-.198-.546-.083-.918l.093-.33.363.11c-.066.278-.023.448.119.572s.445.258.718.156zm-1.475 1.892l-.052-.365c-.291.023-.543-.188-.647-.348s-.097-.334.043-.582l-.319-.206-.181.291c-.212.326-.381.585-.173.905.254.391.739.352 1.262.31l.067-.005zm-1.953.682l-.057.365-.065-.014c-.513-.113-.987-.218-1.116-.666-.105-.367.131-.565.43-.815l.258-.226.245.29c-.207.197-.264.363-.212.544s.233.459.517.522zm-2.267.793l.155-.335c-.256-.139-.353-.454-.353-.645s.1-.333.353-.465l-.155-.346-.31.146c-.356.158-.638.283-.638.665 0 .466.428.698.889.948l.059.032zm-1.999-.489l-.242.279-.048-.047c-.375-.367-.722-.708-.594-1.156.105-.367.411-.41.797-.463h0l.338-.055.054.376c-.28.057-.416.168-.468.35s-.046.513.162.717zm-2.349-.554l.313-.196c-.139-.256-.049-.573.055-.733s.265-.225.55-.198l.058-.375-.34-.046c-.384-.061-.689-.11-.897.21-.254.391-.021.818.23 1.279l.032.059zm-1.416-1.492l-.355.103-.015-.065c-.114-.512-.22-.987.132-1.293.288-.25.568-.12.92.045l.314.138-.159.344c-.266-.104-.44-.085-.583.038s-.318.405-.255.69zm-1.663-1.728l.369-.001c.018-.291.262-.512.435-.593s.344-.05.571.124l.248-.287-.263-.219c-.293-.255-.526-.458-.872-.297-.423.197-.452.682-.483 1.206l-.004.067zm-.397-2.031l-.353-.107.023-.063c.183-.492.353-.947.815-1.012.378-.053.541.209.747.539l.188.287-.321.202c-.166-.232-.323-.311-.51-.285s-.487.167-.589.44zm-.464-2.355l.31.2c.173-.234.499-.287.687-.26s.316.146.411.415l.364-.106-.101-.327h0c-.107-.374-.192-.671-.57-.724-.462-.065-.75.326-1.062.749l-.04.054zm.764-1.922l-.238-.282.054-.04c.422-.313.812-.602 1.235-.405.346.161.34.47.333.859l.001.343-.379-.006c-.013-.285-.101-.437-.272-.517s-.499-.126-.733.048zm.886-2.233l.151.337c.273-.102.574.031.718.156s.185.294.119.572l.363.11.093-.33c.114-.372.205-.667-.083-.918-.352-.306-.807-.135-1.298.049l-.063.024zm1.678-1.19l-.052-.365.067-.005c.523-.042 1.008-.081 1.262.31.208.32.039.579-.173.905l-.181.291-.319-.206c.14-.249.146-.424.043-.582s-.357-.371-.647-.348zm1.958-1.412l-.057.365c.284.063.465.339.517.522s-.005.347-.211.544l.245.29.258-.226c.298-.25.535-.448.43-.815-.129-.448-.603-.553-1.116-.666l-.065-.014z" fill="#5b8c39" class="B"/><path d="M12.279 13.987s-1.1-.024-1.1.481 0 1.065.55.785 1.222-.39 1.578-.195 1.184.592 2.352.592 1.09-.397 2.166-.397 2.996-.086 2.552-.435-.968-.571-1.368-.571-.706 0-1.547-.412-1.778-.449-2.724-.316-1.07.468-1.629.468h-.83z" fill="#247805" class="B"/><path d="M16.1 15.65l.071.24h0 .001l.002-.001.006-.002.02-.006.072-.025.247-.1a3.89 3.89 0 0 0 .745-.437c.545-.411 1.113-1.091 1.113-2.127v-.008-.008-.008-.008-.008-.008-.008-.008-.008-.008-.008-.008-.008-.008-.008-.008-.008-.008-.008-.008-.008-.008-.008-.008-.008-.008-.008-.008-.008-.008-.008-.008-.008-.008-.008-.008-.008-.008-.008-.008-.008-.008-.008-.008-.008-.008-.008-.008-.008-.008-.008-.008-.008-.008-.008-.008-.008-.008-.008-.008-.008-.008-.008-.008-.008-.008-.008-.008-.007-.008-.008-.008-.008-.007-.008-.008-.007-.008-.007-.007-.007-.007-.007-.007-.007-.007-.007-.007-.007-.007-.007-.007-.007-.007-.007-.007-.007-.007-.007-.007-.007-.007-.007-.007-.007-.007-.007-.007-.007-.007-.007-.007-.007-.007-.007-.007-.007-.007-.007-.007-.007-.007-.007-.007-.007-.007-.007-.007-.007-.007-.007-.007-.007-.007-.007-.007-.007-.007-.007-.007-.007-.007-.007-.007-.007-.007-.007-.007-.007-.007-.007-.007-.007-.007-.007-.007-.007-.007-.007-.007-.007-.007-.007-.007-.006-.007-.006-.007-.007-.006-.007-.006-.007-.006-.006-.006-.006-.006-.006-.006-.006-.006-.006-.006-.006-.006-.006-.006-.006-.006-.006-.006-.006-.006-.006-.006-.006-.006-.006-.006-.006-.006-.006-.006-.006-.006-.006-.006-.006-.006-.006-.006-.006-.006-.006-.006-.006-.006-.006-.006-.006-.006-.006-.006-.006-.006-.006-.006-.006-.006-.006-.006-.006-.006-.006-.006-.006-.006-.006-.006-.005-.005-.006-.005-.005-.005-.005-.005-.005-.005-.005-.005-.005-.005-.005-.005-.005-.005-.005-.005-.005-.005-.005-.005-.005-.005-.005-.005-.005-.005-.005-.005-.005-.005-.005-.005-.005-.005-.005-.005-.005-.005-.005-.005-.005-.005-.005-.005-.005-.005-.005-.005-.005-.005-.005-.005-.005-.005-.005-.005-.005-.005-.005-.005-.005-.005-.004-.004-.005-.004-.004-.004-.004-.004-.004-.004-.004-.004-.004-.004-.004-.004-.004-.004-.004-.004-.004-.004-.004-.004-.004-.004-.004-.004-.004-.004-.004-.004-.004-.004-.004-.004-.004-.004-.004-.004-.004-.004-.004-.004-.004-.004-.004-.004-.004-.004-.003-.004-.003-.004-.003-.003-.003-.003-.003-.003-.003-.003-.003-.003-.003-.003-.003-.003-.003-.003-.003-.003-.003-.003-.003-.003-.003-.003-.003-.003-.003-.003-.003-.003-.003-.003-.003-.003-.003-.003-.003-.003-.003-.003-.003-.003-.003-.003-.002-.002-.002-.003-.002-.002-.002-.002-.002-.002-.002-.002-.002-.002-.002-.002-.002-.002-.002-.002-.002-.002-.002-.002-.002-.002-.002-.002-.002-.002-.002-.002-.002-.002-.002-.002-.002-.002-.002-.002-.002-.002-.002-.002-.002-.002-.002-.002-.002-.001-.001-.001-.001-.001-.001-.001-.001-.001-.001-.001-.001-.001-.001-.001-.001-.001-.001-.001-.001-.001-.001h0v-.001-.001-.001-.001-.001h0v-.001-.001-.001h0v-.001-.001h0v-.001h0v-.001h0 0 0 0 0 0 0 0 0 0 0 0 0 0 0 0 0 0 0-.25.25v-.25h-.25-4.053-.25v.25h.25-.25 0 0 0 0 0 0 0 0 0 0 0 0 0 0v.001h0v.001.001h0v.001h0v.001.001.001h0v.001.001.001.001.001h0v.001.001.001.001.001.001.001.001.001.001.001.001.001.001.001.001.001.001.002.002.002.002.002.002.002.002.002.002.002.002.002.002.002.002.002.002.002.002.002.002.002.002.002.002.002.002.002.002.002.002.002.002.002.002.002.002.002.002.003.002.003.002.003.003.003.003.003.003.003.003.003.003.003.003.003.003.003.003.003.003.003.003.003.003.003.003.003.003.003.003.003.003.003.003.003.003.003.003.003.004.003.004.004.003.004.004.004.004.004.004.004.004.004.004.004V11v.004.004.004.004.004.004.004.004.004.004.004.004.004.004.004.004.004.004.004.004.004.004.004.004.004.004.004.004.004.004.004.004.004.004.005.005.005.005.005.005.005.005.005.005.005.005.005.005.005.005.005.005.005.005.005.005.005.005.005.005.005.005.005.005.005.005.005.005.005.005.005.005.005.005.005.005.005.005.005.005.005.005.005.005.005.005.005.005.005.005.005.005.005.005.005.006.005.005.005.006.006.005.006.005.006.006.006.006.006.006.006.006.006.006.006.006.006.006.006.006.006.006.006.006.006.006.006.006.006.006.006.006.006.006.006.006.006.006.006.006.006.006.006.006.006.006.006.006.006.006.006.006.006.006.006.006.006.006.006.006.006.006.006.006.006.006.006.006.006.006.006.006.006.006.006.006.006.006.006.006.006.006.006.007.006.006.006.006.006.006.007.006.006.006.007.006.007.007.007.006.007.007.007.007.007.006.007.007.007.007.007.007.007.007.007.007.007.007.007.007.007.007.007.007.007.007.007.007.007.007.007.007.007.007.007.007.007.007.007.007.007.007.007.007.007.007.007.007.007.007.007.007.007.007.007.007.007.007.007.007.007.007.007.007.007.007.007.007.007.007.007.007.007.007.007.007.007.007.007.007.007.007.007.007.007.007.007.007.007.007.007.007.007.007.007.007.027.055.027.014.014.027.027.027.027.055.054.027.027.054c0 1.01.57 1.69 1.111 2.105a4.09 4.09 0 0 0 .742.449l.246.106.071.026.02.007.006.002.002.001h.001 0c0 0 0 0 .077-.238zm0 0l.071.24-.074.022-.073-.024.076-.238z" stroke="#565656" class="C D"/><mask id="B" maskUnits="userSpaceOnUse" x="13" y="10" width="6" height="7"><path d="M16.1 15.65l.071.24h0 .001l.002-.001.006-.002.02-.006.072-.025.247-.1a3.89 3.89 0 0 0 .745-.437c.545-.411 1.113-1.091 1.113-2.127v-.008-.008-.008-.008-.008-.008-.008-.008-.008-.008-.008-.008-.008-.008-.008-.008-.008-.008-.008-.008-.008-.008-.008-.008-.008-.008-.008-.008-.008-.008-.008-.008-.008-.008-.008-.008-.008-.008-.008-.008-.008-.008-.008-.008-.008-.008-.008-.008-.008-.008-.008-.008-.008-.008-.008-.008-.008-.008-.008-.008-.008-.008-.008-.008-.008-.008-.008-.008-.007-.008-.008-.008-.008-.007-.008-.008-.007-.008-.007-.007-.007-.007-.007-.007-.007-.007-.007-.007-.007-.007-.007-.007-.007-.007-.007-.007-.007-.007-.007-.007-.007-.007-.007-.007-.007-.007-.007-.007-.007-.007-.007-.007-.007-.007-.007-.007-.007-.007-.007-.007-.007-.007-.007-.007-.007-.007-.007-.007-.007-.007-.007-.007-.007-.007-.007-.007-.007-.007-.007-.007-.007-.007-.007-.007-.007-.007-.007-.007-.007-.007-.007-.007-.007-.007-.007-.007-.007-.007-.007-.007-.007-.007-.007-.007-.006-.007-.006-.007-.007-.006-.007-.006-.007-.006-.006-.006-.006-.006-.006-.006-.006-.006-.006-.006-.006-.006-.006-.006-.006-.006-.006-.006-.006-.006-.006-.006-.006-.006-.006-.006-.006-.006-.006-.006-.006-.006-.006-.006-.006-.006-.006-.006-.006-.006-.006-.006-.006-.006-.006-.006-.006-.006-.006-.006-.006-.006-.006-.006-.006-.006-.006-.006-.006-.006-.006-.006-.006-.006-.006-.006-.005-.005-.006-.005-.005-.005-.005-.005-.005-.005-.005-.005-.005-.005-.005-.005-.005-.005-.005-.005-.005-.005-.005-.005-.005-.005-.005-.005-.005-.005-.005-.005-.005-.005-.005-.005-.005-.005-.005-.005-.005-.005-.005-.005-.005-.005-.005-.005-.005-.005-.005-.005-.005-.005-.005-.005-.005-.005-.005-.005-.005-.005-.005-.005-.005-.005-.004-.004-.005-.004-.004-.004-.004-.004-.004-.004-.004-.004-.004-.004-.004-.004-.004-.004-.004-.004-.004-.004-.004-.004-.004-.004-.004-.004-.004-.004-.004-.004-.004-.004-.004-.004-.004-.004-.004-.004-.004-.004-.004-.004-.004-.004-.004-.004-.004-.004-.003-.004-.003-.004-.003-.003-.003-.003-.003-.003-.003-.003-.003-.003-.003-.003-.003-.003-.003-.003-.003-.003-.003-.003-.003-.003-.003-.003-.003-.003-.003-.003-.003-.003-.003-.003-.003-.003-.003-.003-.003-.003-.003-.003-.003-.003-.003-.003-.002-.002-.002-.003-.002-.002-.002-.002-.002-.002-.002-.002-.002-.002-.002-.002-.002-.002-.002-.002-.002-.002-.002-.002-.002-.002-.002-.002-.002-.002-.002-.002-.002-.002-.002-.002-.002-.002-.002-.002-.002-.002-.002-.002-.002-.002-.002-.002-.002-.001-.001-.001-.001-.001-.001-.001-.001-.001-.001-.001-.001-.001-.001-.001-.001-.001-.001-.001-.001-.001-.001h0v-.001-.001-.001-.001-.001h0v-.001-.001-.001h0v-.001-.001h0v-.001h0v-.001h0 0 0 0 0 0 0 0 0 0 0 0 0 0 0 0 0 0 0-.25.25v-.25h-.25-4.053-.25v.25h.25-.25 0 0 0 0 0 0 0 0 0 0 0 0 0 0v.001h0v.001.001h0v.001h0v.001.001.001h0v.001.001.001.001.001h0v.001.001.001.001.001.001.001.001.001.001.001.001.001.001.001.001.001.001.002.002.002.002.002.002.002.002.002.002.002.002.002.002.002.002.002.002.002.002.002.002.002.002.002.002.002.002.002.002.002.002.002.002.002.002.002.002.002.002.003.002.003.002.003.003.003.003.003.003.003.003.003.003.003.003.003.003.003.003.003.003.003.003.003.003.003.003.003.003.003.003.003.003.003.003.003.003.003.003.003.004.003.004.004.003.004.004.004.004.004.004.004.004.004.004.004V11v.004.004.004.004.004.004.004.004.004.004.004.004.004.004.004.004.004.004.004.004.004.004.004.004.004.004.004.004.004.004.004.004.004.004.005.005.005.005.005.005.005.005.005.005.005.005.005.005.005.005.005.005.005.005.005.005.005.005.005.005.005.005.005.005.005.005.005.005.005.005.005.005.005.005.005.005.005.005.005.005.005.005.005.005.005.005.005.005.005.005.005.005.005.005.005.006.005.005.005.006.006.005.006.005.006.006.006.006.006.006.006.006.006.006.006.006.006.006.006.006.006.006.006.006.006.006.006.006.006.006.006.006.006.006.006.006.006.006.006.006.006.006.006.006.006.006.006.006.006.006.006.006.006.006.006.006.006.006.006.006.006.006.006.006.006.006.006.006.006.006.006.006.006.006.006.006.006.006.006.006.006.006.006.007.006.006.006.006.006.006.007.006.006.006.007.006.007.007.007.006.007.007.007.007.007.006.007.007.007.007.007.007.007.007.007.007.007.007.007.007.007.007.007.007.007.007.007.007.007.007.007.007.007.007.007.007.007.007.007.007.007.007.007.007.007.007.007.007.007.007.007.007.007.007.007.007.007.007.007.007.007.007.007.007.007.007.007.007.007.007.007.007.007.007.007.007.007.007.007.007.007.007.007.007.007.007.007.007.007.007.007.007.007.007.007.007.027.055.027.014.014.027.027.027.027.055.054.027.027.054c0 1.01.57 1.69 1.111 2.105a4.09 4.09 0 0 0 .742.449l.246.106.071.026.02.007.006.002.002.001h.001 0c0 0 0 0 .077-.238zm0 0l.071.24-.074.022-.073-.024.076-.238z" stroke="#fff" class="C D"/></mask><g mask="url(#B)"><path opacity=".4" d="M14.197 13.909l1.933-1.424 2.033 1.586v2.257h-3.966v-2.418z" fill="#84ceff" class="B"/><path d="M14.258 14.413h3.592v.5h-3.592v-.5z" fill="#006ac9" class="B"/><path d="M14.442 14.908h3.316v.265h-3.316v-.265z" fill="#59c800" class="B"/><path d="M14.442 15.238h3.316v.5h-3.316v-.5z" fill="#ffd800" class="B"/><path d="M18.727 14.511l-2.59-1.978v-2.67h2.59v4.648z" fill="#f7d85d" class="B"/><path d="M15.547 13.423s.082.425.145.425.176-.425.176-.425.013.425.076.425.055-.356.156-.425c.036-.025.082.423.138.425.047.002.162-.425.162-.425s.035.425.089.425.163-.425.163-.425v1.072h-1.105v-1.072z" fill="#f5f6f6" class="B"/><path d="M16.1 14.84c.559 0 1.013-.096 1.013-.214s-.454-.214-1.013-.214-1.013.096-1.013.214.454.214 1.013.214z" fill="#892e2e" class="B"/><path d="M14.289 11.104l.208-.163 1.401 1.44-.208.163-1.401-1.439z" fill="#a46031"/><path d="M14.515 12.767l-.221-.148 1.362-1.631.221.148-1.362 1.631z" fill="#892e2e"/><path d="M16.408 11.318l.208-.129 1.401 1.143-.208.129-1.401-1.143z" fill="#a46031"/><path d="M16.701 12.486l-.259-.176 1.332-1.074.284.234-1.357 1.017z" fill="#f5f6f6"/></g><path d="M14.567 16.535l.65.204v.561h-.65v-.765zm-.465-1.148l.366.204v.561h-.366v-.765zm3.438 1.148l-.65.204v.561h.65v-.765zm.465-1.148l-.366.204v.561h.366v-.765z" fill="#69f" class="B"/><path d="M13.748 16.576l-.332.008c-.275.013-.292.013-.368-.018-.046-.019-.091-.049-.156-.103-.155-.127-.322-.42-.504-.879v-.019c.224-.484.684-.544 1.369-.185l.702.378.572.276c.342.138.664.2 1.077.2.248 0 .536-.07.871-.204.194-.077.395-.171.641-.296l.674-.345c.223-.107.37-.159.471-.159h.102.19c.494.006.737.088.737.345 0 .243-.158.573-.473.991l-.015.009c-.623.084-.985.084-1.096-.005-.03-.024-.113-.013-.266.036l-.554.193c-.477.158-.885.243-1.301.243-.633 0-1.327-.246-2.08-.736.136.173.05.27-.264.27z" class="C"/><path d="M13.416 16.584l.332-.008c.315 0 .401-.097.264-.27.753.491 1.447.736 2.08.736.416 0 .824-.085 1.301-.243l.3-.104.254-.088c.153-.049.236-.06.266-.036.111.089.473.089 1.096.005l.015-.009c.315-.419.473-.748.473-.991 0-.257-.244-.339-.737-.345a9.78 9.78 0 0 0-.19 0h-.102c-.101 0-.248.052-.471.159l-.599.306-.076.039-.641.296c-.335.133-.623.204-.871.204-.413 0-.736-.062-1.077-.2-.165-.066-.333-.148-.572-.276a86.83 86.83 0 0 0-.702-.378c-.685-.359-1.145-.299-1.369.185v.019c.181.459.348.751.504.879.065.054.111.084.156.103.076.031.093.032.368.018zm-.35-.063c-.041-.017-.083-.045-.145-.096-.146-.12-.309-.403-.486-.85.212-.446.642-.499 1.302-.154l.702.378.576.279c.347.14.675.203 1.094.203.255 0 .548-.072.888-.207.195-.078.398-.172.645-.298l.077-.04.597-.305c.216-.104.359-.155.451-.155h.103.189c.468.006.692.081.692.298 0 .228-.152.547-.457.954-.602.08-.956.08-1.052.003-.048-.038-.139-.027-.308.028l-.257.089-.298.104c-.472.157-.876.241-1.287.241-.7 0-1.477-.306-2.331-.918l-.027.039c.39.293.39.413.014.413l-.334.008c-.265.013-.282.012-.348-.015z" fill="#666" class="B"/><path d="M13.028 15.809l-.067-.066c.152-.163.352-.204.594-.124.094.031.707.385.87.468.598.303 1.167.473 1.771.473.869 0 1.709-.274 2.516-.822.305-.247.496-.247.496.038h-.093c0-.17-.09-.17-.349.04-.825.559-1.683.84-2.57.84-.621 0-1.203-.174-1.813-.483l-.857-.463c-.21-.069-.373-.036-.498.099z" fill="#565757"/><path d="M16.49 6.944l-.181.001c.004.743-.162 1.212-.486 1.413l-.093.055-.121-.307-.016-.04c-.192-.473-.235-.691-.136-.749l-.098-.14c-.218.129-.171.368.065.947l.016.04.133.339-.02.011h0 0l-.029.016a.71.71 0 0 0-.327-.072c-.576 0-.975-.151-1.206-.449l-.147.096c.27.347.724.519 1.354.519a.54.54 0 0 1 .145.019c-.092.078-.104.16-.104.442 0 .176.038.41.114.702-.059-.075-.113-.11-.168-.11v.166l-.016-.002-.001-.001-.001-.001.002.002h0a.15.15 0 0 1 .022.022.86.86 0 0 1 .091.142 5.64 5.64 0 0 1 .27.614l.056-.018.004.012.03-.009v.005h.057l.001.046.181-.004-.001-.052.034.004.064-.738c.063-.176.157-.303.28-.382.309-.199.49-.391.54-.581l-.176-.039c-.037.142-.192.305-.468.483a.78.78 0 0 0-.181.163c-.017-.273-.067-.493-.149-.661V8.8a.76.76 0 0 0-.036-.223l.138-.082c.386-.24.57-.759.565-1.551zm-.977 1.788a.57.57 0 0 1 .129.16v1.247c-.149-.47-.223-.823-.223-1.055 0-.26.007-.293.068-.337.004-.003.013-.008.026-.016z" fill="#984800" class="B"/><path d="M16.983 7.085c-.137.04-.312.05-.499.021-.206-.033-.385-.107-.504-.2.007.023.011.047.011.071-.004.229-.372.409-.821.401s-.811-.2-.807-.429.372-.409.821-.401c.27.005.509.076.655.182a.21.21 0 0 1-.011-.106c.032-.204.379-.318.773-.256s.689.278.656.482c-.006.037-.022.071-.047.102.194-.056.462-.043.736.051.472.163.783.505.693.765s-.545.339-1.017.176c-.057-.02-.111-.042-.163-.066-.127.198-.485.302-.881.24-.469-.074-.814-.355-.771-.626s.458-.432.927-.358c.068.011.133.026.195.045.012-.035.03-.066.054-.094zm-2.71-.101c.1.18-.102.484-.452.678s-.714.205-.814.024.102-.484.452-.678.714-.205.814-.024zm1.093 1.134c-.004.252-.453.449-1.003.439s-.991-.222-.987-.474.453-.449 1.003-.439.991.222.987.474zm-.633 1.764c.496-.061.875-.295.847-.522s-.453-.363-.948-.302-.875.295-.847.522.453.363.948.302zm1.829.304c.438.101.839-.016.896-.262s-.252-.527-.691-.628-.839.016-.896.262.252.527.691.628zm.387-.933c.662.129 1.238.032 1.286-.215s-.45-.553-1.112-.681-1.238-.032-1.286.215.45.553 1.112.681z" fill="#247805" class="B"/><path d="M12.245 10.939l-.313 3.373c0 .402.576 0 .576 0s.084-1.418.281-1.945.289.052.289.36v1.747s.716.098.716-.161-.298-3.373-.298-3.373h-1.084-.167z" class="B C"/><path d="M12.205 10.898l-.004.038-.313 3.377c0 .319.239.319.646.034l.017-.012.001-.02c.056-.942.149-1.587.278-1.934.078-.209.1-.218.135-.132a1.53 1.53 0 0 1 .068.478v1.783l.038.005c.503.069.767.009.767-.202 0-.111-.052-.723-.14-1.681l-.01-.105-.103-1.099-.034-.356-.01-.099-.003-.035-.004-.038h-1.331zm.26 3.392c-.348.24-.489.237-.489.022 0-.264.103-1.377.309-3.331h1.171l.009.096.034.356.103 1.099.01.106.139 1.674c0 .13-.202.179-.629.125v-1.71c0-.181-.028-.396-.074-.508-.075-.185-.201-.133-.301.134-.132.354-.225.999-.282 1.937z" fill="#979797" class="B"/><path d="M11.207 9.918s.246.885.354.885.769-.543.769-.543v.737h1.23v-.326l.158.326.215-.101.372-.439h-.372l-.108-.816c0-.111.004-.332-.265-.412s-.401-.221-.401-.221.58-.83.138-.83-.641.106-.641.106v.608c0 .115-.633-.021-.633.336s-.295.688-.295.688l-.075-.24-.446.24z" fill="#ff863b" class="B"/><path d="M13.067 8.383c.243 0 .441-.097.441-.216s-.197-.216-.441-.216-.441.097-.441.216.197.216.441.216z" fill="#000" class="B"/><path d="M10.847 10.26l-.199-.165c.383-.415.809-.716 1.278-.904.444-.177 1.024-.46 1.74-.849l.131.218-1.769.862c-.431.172-.824.451-1.182.838z" fill="#740000"/><path d="M13.658 8.433l.167.784.741-.392-.584-.649-.325.257z" fill="#f9fcff" stroke="#6c6c6c" class="B D"/><path d="M19.859 11.307l.31 3.52c0 .42-.571 0-.571 0s-.084-1.48-.278-2.03-.286.054-.286.375v1.823s-.711.102-.711-.168.296-3.52.296-3.52h1.075.166z" class="B C"/><path d="M19.899 11.263l.004.039.311 3.524c0 .332-.237.332-.641.035l-.017-.012-.001-.021c-.056-.983-.148-1.657-.276-2.018-.077-.218-.099-.228-.134-.138-.041.105-.067.319-.067.499v1.861l-.038.005c-.498.071-.761.009-.761-.211 0-.116.051-.754.139-1.755l.01-.11.102-1.147.034-.372.009-.104.003-.037.004-.04h1.32zm-.258 3.541c.345.251.485.247.485.023 0-.276-.102-1.437-.306-3.476h-1.161l-.009.101-.034.372-.102 1.147-.01.11-.138 1.747c0 .135.2.186.623.13v-1.785c0-.189.028-.413.073-.53.075-.193.199-.139.298.14.131.369.223 1.042.28 2.022z" fill="#979797" class="B"/><path d="M20.911 10.178s-.244.923-.352.923-.763-.567-.763-.567v.769h-1.22v-.341l-.157.341-.213-.105-.369-.458h.369l.107-.851c0-.116-.004-.346.263-.43s.398-.231.398-.231-.575-.867-.137-.867.636.111.636.111v.635c0 .12.628-.022.628.351s.293.718.293.718l.075-.25.442.25z" fill="#824028" class="B"/><path d="M19.066 8.576c-.241 0-.437-.101-.437-.226s.196-.226.437-.226.437.101.437.226-.196.226-.437.226z" fill="#000" class="B"/><path d="M21.525 10.346l-2.673-1.393s-.049-.468-.566-.609-.928-.359-.928-.359l-.235.359s-.419-.11 1.163.609-.06-.39.39 0l2.848 1.393z" fill="#ba611f"/></g></g><defs><clipPath id="C"><path d="M0 0h32v24H0z" class="C"/></clipPath></defs></svg>
