<svg xmlns="http://www.w3.org/2000/svg" viewBox="0 0 32 24" fill="none"><g clip-path="url(#A)"><path fill="#fff" d="M0 0h32v24H0z"/><g fill-rule="evenodd"><path d="M8 0H24V24H8V0Z" fill="#f7fcff"/><g fill="#e31d1c"><path d="M15.976 7L16 19h-.6l.368-2.97c-2.69.484-3.924.604-3.702.36s.398-.59.526-1.038L9 12.955c.378-.005.72-.098 1.028-.281s.154-.816-.461-1.9l1.814.264.686-.746 1.368 1.432h.615l-.615-3.281 1.103.616L15.976 7zm0 0l1.486 2.059 1.103-.616-.615 3.281h.615l1.368-1.432.686.746 1.814-.264c-.615 1.084-.768 1.717-.461 1.9s.65.277 1.028.281l-3.593 2.397c.128.448.303.794.526 1.038s-1.011.124-3.702-.36L16.6 19H16l-.024-12zM24 0h8v24h-8V0zM0 0h8v24H0V0z"/></g></g></g><defs><clipPath id="A"><path fill="#fff" d="M0 0h32v24H0z"/></clipPath></defs></svg>
