<svg xmlns="http://www.w3.org/2000/svg" viewBox="0 0 32 24" fill="none"><g clip-path="url(#A)"><path fill="#fff" d="M0 0h32v24H0z"/><g fill-rule="evenodd"><path d="M0 0H32V24H0V0Z" fill="#5eaa22"/><g fill="#feca00"><path d="M24 7l-1 .732.134-1.232L22 6l1.134-.5L23 4.268 24 5l1-.732-.134 1.232L26 6l-1.134.5L25 7.732 24 7zm-1.037 6.679l-1 .732.134-1.232-1.134-.5 1.134-.5-.134-1.232 1 .732 1-.732-.134 1.232 1.134.5-1.134.5.134 1.232-1-.732zM26 19l-1 .732.134-1.232L24 18l1.134-.5L25 16.268 26 17l1-.732-.134 1.232L28 18l-1.134.5.134 1.232L26 19zm1-9.5l-.5.366.067-.616L26 9l.567-.25-.067-.616.5.366.5-.366-.067.616L28 9l-.567.25.067.616L27 9.5zM7 14A5 5 0 1 0 7 4a5 5 0 1 0 0 10zm12.898.945c-.658 1.13-1.704 1.642-3.104 1.642-2.095 0-3.794-1.698-3.794-3.794S14.698 9 16.794 9c1.598 0 2.874.559 3.459 2.083-.463-.459-1.18-.774-2.253-.734-1.657 0-2.735 1.291-2.735 2.395S16.343 15.35 18 15.35c.833-.013 1.449-.165 1.898-.405z"/></g></g><path d="M7.582 8.694s-.978 3.581-1.381 3.92c-.179.079 1.619 0 1.619 0s-.674-.295-.436-.687.547-2.917.436-3.777-.237.544-.237.544z" fill="#915e2b"/><path fill-rule="evenodd" d="M7.79 8.827s1.048.315 1.048.851.872 1.289.872.576-.163-1.426-.518-1.426.173-.479.477-.081 1.366-.037 1.15-.317-.982-.628-1.109-.628.872-.681 0-.681-.372.581-.963-.036S9 7.386 9 6.349s-.239-1.46-1.029-.878-.638.213-.919-.007-.528.803-.218 1.012.652.726.343.726a.56.56 0 0 1-.528-.512c0-.214-.841-.591-1.64-.591s-.282.591 0 .591 1.544.43.913.43.049-.318-.747-.318-1.72-.362-1.72.318.795.982 1.043.681.535-.81.535-.302-.633.3-1.579.615-.675 1.145.454.942 1.006-.192 1.459-.506 1.014-.227.554.277-.92 1.426-.46 1.426.757.125.757-.362.267-1.436.267-.835.348 1.054.657.835-.072-.902.281-.902.367-.162.367-.162z" fill="#5eaa22"/></g><defs><clipPath id="A"><path fill="#fff" d="M0 0h32v24H0z"/></clipPath></defs></svg>
