<svg xmlns="http://www.w3.org/2000/svg" viewBox="0 0 32 24" fill="none"><g clip-path="url(#B)"><path fill="#fff" d="M0 0h32v24H0z"/><path fill-rule="evenodd" d="M0 0V24H32V0H0Z" fill="#3195f9"/><mask id="A" maskUnits="userSpaceOnUse" x="0" y="0" width="32" height="24"><path fill-rule="evenodd" d="M0 0V24H32V0H0Z" fill="#fff"/></mask><g mask="url(#A)"><path d="M-1.822 25.439l.694 1.04 1.04-.694L36.173 1.581l1.04-.694-.694-1.04-2.221-3.327-.694-1.04-1.04.694-36.261 24.203-1.04.694.694 1.04 2.221 3.327z" fill="#e31d1c" stroke="#feca00" stroke-width="2.5"/><path fill-rule="evenodd" d="M4.931 8.606l-3.486 2.418 1.114-4.141L0 4.238l3.465-.143L4.931 0l1.466 4.095h3.459L7.303 6.883l1.279 3.897-3.65-2.173z" fill="#feca00"/></g></g><defs><clipPath id="B"><path fill="#fff" d="M0 0h32v24H0z"/></clipPath></defs></svg>
