<svg xmlns="http://www.w3.org/2000/svg" viewBox="0 0 32 24" fill="none"><g clip-path="url(#A)"><path fill="#fff" d="M0 0h32v24H0z"/><g fill-rule="evenodd"><path d="M0 0H32V6H0V0Z" fill="#3d58db"/><path d="M0 6h32v6H0V6z" fill="#f7fcff"/><path d="M0 12h32v6H0v-6z" fill="#73be4a"/><path d="M0 18h32v6H0v-6z" fill="#ffd018"/><path d="M4.529 5.416L2.105 7.098l.775-2.88-1.78-1.84 2.41-.099L4.529-.57l1.02 2.848h2.406L6.179 4.217l.889 2.71-2.539-1.512z" fill="#feca00"/><path d="M12 0h8v24h-8V0z" fill="#e11c1b"/></g></g><defs><clipPath id="A"><path fill="#fff" d="M0 0h32v24H0z"/></clipPath></defs></svg>
