<svg xmlns="http://www.w3.org/2000/svg" viewBox="0 0 32 24" fill="none"><g clip-path="url(#A)"><path fill="#fff" d="M0 0h32v24H0z"/><g fill-rule="evenodd"><path d="M0 0H32V24H0V0Z" fill="#e31d1c"/><g fill="#feca00"><use href="#B"/><path d="M7.018 9.607l-2.881 1.551.657-3.027-2.399-2.265 3.248-.122 1.374-2.826 1.374 2.826h3.243L9.241 8.132l.721 3.027-2.944-1.551zm9.998-1.059l-1.01.61.23-1.19-.841-.891 1.139-.048.482-1.111.482 1.111h1.137l-.839.939.253 1.19-1.033-.61zm-1 4l-1.01.61.23-1.19-.841-.891 1.139-.048.482-1.111.482 1.111h1.137l-.839.939.253 1.19-1.033-.61zm-3 3l-1.01.61.23-1.19-.841-.891 1.139-.048.482-1.111.482 1.111h1.137l-.839.939.253 1.19-1.032-.61z"/></g></g></g><defs><clipPath id="A"><path fill="#fff" d="M0 0h32v24H0z"/></clipPath><path id="B" d="M15.016 4.548l-1.01.61.23-1.19-.841-.891 1.139-.048.482-1.111.482 1.111h1.137l-.839.939.253 1.19-1.033-.61z"/></defs></svg>
