<svg xmlns="http://www.w3.org/2000/svg" viewBox="0 0 32 24" fill="none"><style><![CDATA[.B{fill-rule:evenodd}]]></style><g clip-path="url(#C)"><path fill="#fff" d="M0 0h32v24H0z"/><path d="M0 0V24H32V0H0Z" fill="#3d58db" class="B"/><mask id="A" maskUnits="userSpaceOnUse" x="0" y="0" width="32" height="24"><path d="M0 0V24H32V0H0Z" fill="#fff" class="B"/></mask><g mask="url(#A)"><path d="M0 8h-2v2 4 2h2 32 2v-2-4-2h-2H0z" fill="#3d58db" stroke="#f7fcff" stroke-width="4"/></g><path d="M0 0V24L18 12L0 0Z" fill="#e31d1c" class="B"/><mask id="B" maskUnits="userSpaceOnUse" x="0" y="0" width="18" height="24"><path d="M0 0V24L18 12L0 0Z" fill="#fff" class="B"/></mask><g mask="url(#B)" class="B"><path d="M6.688 14.217l-3.672 1.938 1.788-3.894-2.278-2.08 2.812-.104 1.35-3.521 1.03 3.521h2.808l-1.871 2.184 1.489 3.894-3.455-1.938z" fill="#f7fcff"/></g></g><defs><clipPath id="C"><path fill="#fff" d="M0 0h32v24H0z"/></clipPath></defs></svg>
