<svg xmlns="http://www.w3.org/2000/svg" viewBox="0 0 32 24" fill="none"><g clip-path="url(#C)"><path fill="#fff" d="M0 0h32v24H0z"/><path fill-rule="evenodd" d="M0 0V24H32V0H0Z" fill="#4141db"/><mask id="A" maskUnits="userSpaceOnUse" x="0" y="0" width="32" height="24"><path fill-rule="evenodd" d="M0 0V24H32V0H0Z" fill="#fff"/></mask><g mask="url(#A)"><path d="M0 13h-1v1 2 1h1 32 1v-1-2-1h-1H0z" fill="#f90000" stroke="#f7fcff" stroke-width="2"/><g filter="url(#B)"><path fill-rule="evenodd" d="M9.796 10.26l.726-.509.702.509-.218-.906.564-.574h-.718l-.331-.739-.282.739h-.842l.645.574-.245.906zm3 1.6l.726-.509.702.509-.218-.906.564-.574h-.718l-.331-.739-.282.739h-.842l.645.574-.245.906zm3.126 1.891l-.726.509.245-.906-.645-.574h.842l.282-.739.331.739h.718l-.564.574.218.906-.702-.509zm-.726 4.509l.726-.509.702.509-.218-.906.564-.574h-.718l-.331-.739-.282.739h-.842l.645.574-.245.906zm-1.674 1.891l-.726.509.245-.906-.645-.574h.842l.282-.739.331.739h.718l-.564.574.218.906-.702-.509zM9.796 22.26l.726-.509.702.509-.218-.906.564-.574h-.718l-.331-.739-.282.739h-.842l.645.574-.245.906zm-2.274-2.109l-.726.509.245-.906-.645-.574h.842l.282-.739.331.739h.718l-.564.574.218.906-.702-.509zM4.396 18.26l.726-.509.702.509-.218-.906.564-.574h-.718l-.331-.739-.282.739h-.842l.645.574-.245.906zm.726-4.509l-.726.509.245-.906-.645-.574h.842l.282-.739.331.739h.718l-.564.574.218.906-.702-.509zm1.674-1.891l.726-.509.702.509-.218-.906.564-.574h-.718l-.331-.739-.282.739h-.842l.645.574-.245.906z" fill="#ffde00"/></g></g></g><defs><filter id="B" x="-.004" y="4.041" width="20.974" height="22.219" filterUnits="userSpaceOnUse" color-interpolation-filters="sRGB"><feFlood flood-opacity="0" result="A"/><feColorMatrix in="SourceAlpha" values="0 0 0 0 0 0 0 0 0 0 0 0 0 0 0 0 0 0 127 0"/><feOffset/><feGaussianBlur stdDeviation="2"/><feColorMatrix values="0 0 0 0 0 0 0 0 0 0 0 0 0 0 0 0 0 0 0.24 0"/><feBlend in2="A"/><feBlend in="SourceGraphic"/></filter><clipPath id="C"><path fill="#fff" d="M0 0h32v24H0z"/></clipPath></defs></svg>
