<svg xmlns="http://www.w3.org/2000/svg" viewBox="0 0 32 24" fill="none"><g clip-path="url(#B)"><path fill="#fff" d="M0 0h32v24H0z"/><path fill-rule="evenodd" d="M0 0V24H32V0H0Z" fill="#2e42a5"/><mask id="A" maskUnits="userSpaceOnUse" x="0" y="0" width="32" height="24"><path fill-rule="evenodd" d="M0 0V24H32V0H0Z" fill="#fff"/></mask><g mask="url(#A)"><path fill-rule="evenodd" d="M4.254 6.149l-1.989 1.05.96-1.868L2 3.963l1.523-.056L4.254 2l.558 1.907 1.783.056L5.312 5.33l.814 1.868-1.871-1.05zm7.098 4.928l-2.455 1.028.963-2.577-2.134-1.729h2.557l1.069-2.787.815 2.787h2.561l-1.82 1.729.904 2.577-2.46-1.028z" fill="#f7fcff"/><path fill-rule="evenodd" d="M0 14v4h32v-4H0z" fill="#f9e813"/></g></g><defs><clipPath id="B"><path fill="#fff" d="M0 0h32v24H0z"/></clipPath></defs></svg>
