<svg xmlns="http://www.w3.org/2000/svg" viewBox="0 0 32 24" fill="none"><g clip-path="url(#A)"><path fill="#fff" d="M0 0h32v24H0z"/><g fill-rule="evenodd"><path d="M0 0H32V24H0V0Z" fill="#5eaa22"/><path d="M0 0L32 24H0V0Z" fill="#4141db"/><g fill="#fff"><path d="M6 9l-1 .732.134-1.232L4 8l1.134-.5L5 6.268 6 7l1-.732L6.866 7.5 8 8l-1.134.5L7 9.732 6 9zm-2 6l-1 .732.134-1.232L2 14l1.134-.5L3 12.268 4 13l1-.732-.134 1.232L6 14l-1.134.5L5 15.732 4 15zm4 6l-1 .732.134-1.232L6 20l1.134-.5L7 18.268 8 19l1-.732-.134 1.232L10 20l-1.134.5L9 21.732 8 21zm1-9.5l-.5.366.067-.616L8 11l.567-.25-.067-.616.5.366.5-.366-.067.616L10 11l-.567.25.067.616L9 11.5z"/></g><g fill="#feca00"><path d="M21.561 12.224c-.374-.39 2.99-1.306 3.339-2.488.462-1.029.153-1.862-1.593-2.594s-3.511-2.148-1.482-2.148 2.029.289 2.574 1.143 1.724 1.036 1.749 0c0-1.766.167-2.003-1.259-3.538s3.574.63 3.161 3.262-.911 1.783-.595 2.224 2.216-.93 1.979.897c-.665 1.051-1.983 2.614-7.874 3.241zM16 17a5 5 0 1 0 0-10 5 5 0 1 0 0 10z"/></g><path d="M12.953 10.162c.567-.126 1.343 1.392 2.742.823s1.692-1.657 2.357-1.259.752 1.356.309 1.838-1.195.596-1.195 1.204-.147 2.78-.435 2.151c-.862-.699-.336-1.812-1.397-2.151s-1.706-.327-2.489-.184.526-.392.804-.899c.565-.544-.956-1.342-.697-1.523z" fill="#548650"/></g></g><defs><clipPath id="A"><path fill="#fff" d="M0 0h32v24H0z"/></clipPath></defs></svg>
