<svg xmlns="http://www.w3.org/2000/svg" viewBox="0 0 32 24" fill="none"><g clip-path="url(#B)"><path fill="#fff" d="M0 0h32v24H0z"/><path fill-rule="evenodd" d="M0 0V24H32V0H0Z" fill="#f7fcff"/><mask id="A" maskUnits="userSpaceOnUse" x="0" y="0" width="32" height="24"><path fill-rule="evenodd" d="M0 0V24H32V0H0Z" fill="#fff"/></mask><g mask="url(#A)"><path fill-rule="evenodd" d="M7.6 14.321c-.428-.298-.236-.95-.236-.95l.858.529c.223.168.383.859.383.859s-.578-.14-1.006-.437zm1.144.933c-.022-.189.031-.357.031-.357l.725.42c.188.133.324.682.324.682s-.488-.111-.849-.347c-.131-.086-.194-.209-.219-.331-.108.033-.383.105-.667.078-.365-.035-.628-.547-.628-.547l.694.025c.153.021.461.269.59.378zm1.692.976s.039.537.428.647.843.063.843.063-.304-.474-.509-.54-.761-.169-.761-.169zm2.306 1.439c-.402-.041-.534-.563-.534-.563l.779.035c.214.03.596.444.596.444s-.439.125-.841.085zm.714-.967s-.054.627.35.837a2.79 2.79 0 0 0 .907.254s-.245-.611-.458-.732-.799-.359-.799-.359zm.283 1.601c-.446.091-.798-.431-.798-.431l.847-.224c.241-.04.816.281.816.281s-.418.283-.865.374zm-3.227-1.125s.211.496.615.473.818-.215.818-.215-.441-.349-.658-.345-.775.088-.775.088zm1.172-.567c-.361-.182-.296-.717-.296-.717l.715.312c.189.105.397.628.397.628s-.455-.04-.816-.222zM9.65 14.653s.001.661.273.919a1.58 1.58 0 0 0 .598.348s-.193-.67-.336-.817-.534-.451-.534-.451zm-.996 1.46s.406.528.824.501.785-.236.785-.236-.594-.37-.822-.365-.787.099-.787.099zm.098-.12c-.222.02-.43-.256-.43-.256l.419-.064c.121-.006.431.183.431.183s-.198.117-.42.137zm.185-2.138s-.237.253-.178.468.208.39.208.39.133-.339.106-.456-.136-.402-.136-.402zm1.959 2.229c-.138-.052-.106-.218-.106-.218l.273.087c.072.03.146.189.146.189s-.176-.007-.313-.058zm-.714.641s-.032.166.106.218a1.18 1.18 0 0 0 .313.058s-.074-.159-.146-.189-.273-.087-.273-.087zm2.642.218c-.138-.052-.106-.218-.106-.218l.273.087c.072.03.146.189.146.189s-.176-.007-.313-.058zm-.613.832s-.032.166.106.218.313.058.313.058-.074-.159-.146-.189-.273-.087-.273-.087zm2.721 1.138l-.446-.371a6.03 6.03 0 0 1 .808-.384.8.8 0 0 0-.177-.098v-.122a5.74 5.74 0 0 0 .416.131l.416-.131v.122a.8.8 0 0 0-.177.098c.245.096.531.224.808.384l-.446.371-.601-.57c-.295.251-.601.57-.601.57zm8.769-5.542s.193.653-.236.95-1.006.438-1.006.438.161-.692.384-.859.858-.529.858-.529zm-1.38 1.884c.022-.189-.031-.357-.031-.357l-.725.42c-.188.133-.324.682-.324.682s.488-.111.849-.347c.131-.086.194-.209.219-.331.108.033.383.105.667.078.365-.035.628-.547.628-.547s-.497-.002-.694.025c-.153.021-.461.269-.59.378zm-1.692.976s-.039.537-.428.647-.843.063-.843.063.303-.474.509-.54.762-.169.762-.169zm-2.306 1.439c.402-.041.534-.563.534-.563l-.779.035c-.214.03-.595.444-.595.444a2.61 2.61 0 0 0 .841.085zm-.714-.967s.055.627-.349.837-.907.254-.907.254.245-.611.458-.732.799-.359.799-.359zm-.282 1.601c.446.091.798-.431.798-.431l-.847-.224c-.241-.04-.816.281-.816.281s.419.283.865.374zm3.227-1.125s-.212.496-.615.473-.818-.215-.818-.215.441-.349.658-.345.775.088.775.088zm-1.172-.567c.361-.182.296-.717.296-.717l-.715.312c-.189.105-.397.628-.397.628s.455-.04.816-.222zm2.033-1.957s-.001.661-.273.919-.598.348-.598.348.193-.67.336-.817.534-.451.534-.451zm.996 1.46s-.406.528-.824.501-.785-.236-.785-.236.595-.37.822-.365a8.85 8.85 0 0 1 .787.099zm-.098-.12c.222.02.43-.256.43-.256l-.419-.064c-.121-.006-.431.183-.431.183s.198.117.42.137zm-.185-2.138s.237.253.178.468-.208.39-.208.39-.133-.339-.106-.456.136-.402.136-.402zm-1.959 2.229c.138-.052.106-.218.106-.218l-.273.087c-.072.03-.146.189-.146.189s.176-.007.313-.058zm.714.641s.032.166-.106.218-.313.058-.313.058.074-.159.146-.189.273-.087.273-.087zm-2.642.218c.138-.052.106-.218.106-.218l-.273.087c-.072.03-.146.189-.146.189s.176-.007.313-.058zm.613.832s.032.166-.106.218-.313.058-.313.058.074-.159.146-.189.273-.087.273-.087z" fill="#006b49"/><path fill-rule="evenodd" d="M27.806 3.017s.346.445 0 .445-1.226.481-1.226.481-.419.625-.926.766-.678.666-1.421.885-.818.279-.818.5.127.597-.38.597-.865-.71-1.14 0-.552.918-.172 1.352.883.85 1.098 1.101 1.643.985.595.985-.521-.664-1.328-.422-.344.601-.96.422-1.028-.342-1.219-.261-.499-.454-.499.261.576.425-.659 1.214-.989.571-1.555.571-.765.357-1.143.357h-.757c-.425 0 .03-.452-.695 0s-.985.542-.985.715v.634s-.665.38-.665 0-.205-.478-.48-.634-.826-.044-1.414 0-1.253-.593-1.763-.593-.605-.479-.745-.479.146-.41-.449-.777-.802-.413-.802-1.007-.273-.756-.273-1.117.291.133.907.133.657-.382 1.362-.741.944-.556 1.531-.359 1.166.929 1.646.226.48-1.508.48-1.914-.284-.522.483-.261 1.213.261 2.488.261 2.798.417 3.268 0 .972-.761 2.19-.761 1.617-.599 2.436-.885-.389.319 1.449-.464l2.543-1.228z" fill="#f57a01"/></g></g><defs><clipPath id="B"><path fill="#fff" d="M0 0h32v24H0z"/></clipPath></defs></svg>
