<svg xmlns="http://www.w3.org/2000/svg" viewBox="0 0 32 24" fill="none"><style><![CDATA[.B{fill-rule:evenodd}]]></style><g clip-path="url(#C)"><path fill="#fff" d="M0 0h32v24H0z"/><path d="M0 0V24H32V0H0Z" fill="#73be4a" class="B"/><mask id="A" maskUnits="userSpaceOnUse" x="0" y="0" width="32" height="24"><path d="M0 0V24H32V0H0Z" fill="#fff" class="B"/></mask><g mask="url(#A)" class="B"><path d="M0-2v14h32V-2H0z" fill="#69f"/></g><path d="M0 0V24L18 12L0 0Z" fill="#fff" class="B"/><mask id="B" maskUnits="userSpaceOnUse" x="0" y="0" width="18" height="24"><path d="M0 0V24L18 12L0 0Z" fill="#fff" class="B"/></mask><g mask="url(#B)" class="B"><path d="M7.002 14.071L5.131 15.2l.427-2.204L4 11.347l2.109-.089.892-2.058.892 2.058H10l-1.554 1.739.468 2.204-1.912-1.129z" fill="#e31d1c"/></g></g><defs><clipPath id="C"><path fill="#fff" d="M0 0h32v24H0z"/></clipPath></defs></svg>
