<svg xmlns="http://www.w3.org/2000/svg" viewBox="0 0 32 24" fill="none"><style><![CDATA[.B{fill-rule:evenodd}.C{fill:#279e19}.D{fill:#feca00}]]></style><g clip-path="url(#C)"><path fill="#fff" d="M0 0h32v24H0z"/><path d="M0 0V24H32V0H0Z" class="B C"/><mask id="A" maskUnits="userSpaceOnUse" x="0" y="0" width="32" height="24"><path d="M0 0V24H32V0H0Z" fill="#fff" class="B"/></mask><g mask="url(#A)"><path d="M17 0h2v13h13v2H19v9h-2v-9H0v-2h17V0z" fill="#f7fcff" class="B"/><path d="M15 0h2v11h15v2H17v11h-2V13H0v-2h15V0z" fill="#272727" class="B"/><path d="M13 0h2v9h17v2H15v13h-2V11H0V9h13V0z" class="B D"/><path d="M16 20a8 8 0 1 0 0-16 8 8 0 1 0 0 16z" fill="#c51918" class="B"/><path d="M14.726 8.413s.38-1.233 1.263-.596c1.384.682 1.841 1.465 2.375 2.352s-1.31.237-1.654-.262-2.253-.661-1.983-1.078 0-.416 0-.416z" fill="#804bff" class="B"/><path d="M14.413 14.726s-.94 1.285 0 1.285 4.749-.277 4.293-.643-3.841 0-3.841 0l-.451-.643z" fill="#a95601" class="B"/><path d="M15.818 14.685c-.058-.065-.915-.628-1.25-1.916-.231-.89-.089-2.556.236-2.886.796-.807 1.262-.333 1.262.878s.048 4.224-.249 3.925z" fill="#804bff" class="B"/><path d="M15.717 14.055s-.099.944.387 2.047 1.467 1.081 1.467.179.716-.056.991.547-.437-5.348-1.447-6.679-1.985-1.417-1.691-.556.294 4.463.294 4.463z" class="B C"/><path d="M15.127 7.6s-.427.274-.427 1.029 1.012-.234 1.012-.234l-.585-.795z" class="B D"/><mask id="B" fill="#fff"><path d="M15.218 7.314l.882-.629.882.629-.325-1.033.87-.644-1.083-.01L16.1 4.6l-.344 1.027-1.083.01.87.644-.325 1.033zm2.923.377l1.083.01.344 1.027.344-1.027 1.083-.01-.87-.644.325-1.033-.882.629-.882-.629.325 1.033-.87.644zm3.014 2.667l-.87-.644 1.083-.01.344-1.027.344 1.027 1.083.01-.87.644.325 1.033-.882-.629-.882.629.325-1.033zm-.325 2.252l.325 1.033-.87.644 1.083.01.344 1.027.344-1.027 1.083-.01-.87-.644.325-1.033-.882.629-.882-.629zm-1.605 3.69l.344-1.027.344 1.027 1.083.01-.87.644.325 1.033-.882-.628-.882.628.325-1.033-.87-.644 1.083-.01zm-2.242.387l-.882.629-.882-.629.325 1.033-.87.644 1.083.01.344 1.027.344-1.027 1.083-.01-.87-.644.325-1.033zm-4.006-.387l1.083.01-.87.644.325 1.033-.882-.628-.882.628.325-1.033-.87-.644 1.083-.01.344-1.027.344 1.027zm-1.061-2.013l-.87-.644.325-1.033-.882.629-.882-.629.325 1.033-.87.644 1.083.01.344 1.027.344-1.027 1.083-.01zm-.87-3.929l.325 1.033-.882-.629-.882.629.325-1.033-.87-.644 1.083-.01.344-1.027.344 1.027 1.083.01-.87.644zm1.587-1.631l.344-1.027 1.083-.01-.87-.644.325-1.033-.882.629-.882-.629.325 1.033-.87.644 1.083.01.344 1.027z" class="B"/></mask><path d="M15.218 7.314l.882-.629.882.629-.325-1.033.87-.644-1.083-.01L16.1 4.6l-.344 1.027-1.083.01.87.644-.325 1.033zm2.923.377l1.083.01.344 1.027.344-1.027 1.083-.01-.87-.644.325-1.033-.882.629-.882-.629.325 1.033-.87.644zm3.014 2.667l-.87-.644 1.083-.01.344-1.027.344 1.027 1.083.01-.87.644.325 1.033-.882-.629-.882.629.325-1.033zm-.325 2.252l.325 1.033-.87.644 1.083.01.344 1.027.344-1.027 1.083-.01-.87-.644.325-1.033-.882.629-.882-.629zm-1.605 3.69l.344-1.027.344 1.027 1.083.01-.87.644.325 1.033-.882-.628-.882.628.325-1.033-.87-.644 1.083-.01zm-2.242.387l-.882.629-.882-.629.325 1.033-.87.644 1.083.01.344 1.027.344-1.027 1.083-.01-.87-.644.325-1.033zm-4.006-.387l1.083.01-.87.644.325 1.033-.882-.628-.882.628.325-1.033-.87-.644 1.083-.01.344-1.027.344 1.027zm-1.061-2.013l-.87-.644.325-1.033-.882.629-.882-.629.325 1.033-.87.644 1.083.01.344 1.027.344-1.027 1.083-.01zm-.87-3.929l.325 1.033-.882-.629-.882.629.325-1.033-.87-.644 1.083-.01.344-1.027.344 1.027 1.083.01-.87.644zm1.587-1.631l.344-1.027 1.083-.01-.87-.644.325-1.033-.882.629-.882-.629.325 1.033-.87.644 1.083.01.344 1.027z" class="B C"/><path d="M16.1 6.685l.058-.081-.058-.041-.058.041.058.081zm-.882.629l-.095-.03-.09.285.243-.173-.058-.081zm1.763 0l-.058.081.243.173-.09-.285-.095.03zm-.325-1.033l-.059-.08-.057.042.021.068.095-.03zm.87-.644l.059.08.24-.178-.299-.003v.1zm-1.083-.01l-.095.032.023.068.071.001.001-.1zM16.1 4.6l.095-.032-.095-.283-.095.283.095.032zm-.344 1.027l.001.1.071-.001.023-.068-.095-.032zm-1.083.01v-.1l-.299.003.24.178.06-.08zm.87.644l.095.03.021-.068-.057-.042-.059.08zm3.68 1.419l.095-.032-.023-.068-.071-.001-.001.1zm-1.083-.01l-.059-.08-.24.178.299.003.001-.1zm1.427 1.036l-.095.032.095.283.095-.283-.095-.032zm.344-1.027l-.001-.1-.071.001-.023.068.095.032zm1.083-.01v.1l.299-.003-.24-.178-.059.08zm-.87-.644l-.095-.03-.021.068.057.042.059-.08zm.325-1.033l.095.03.09-.285-.243.173.058.081zm-.882.629l-.058.081.058.041.058-.041-.058-.081zm-.882-.629l.058-.081-.243-.173.09.285.095-.03zm.325 1.033l.059.08.057-.042-.021-.068-.095.03zm1.273 2.667l-.001-.1-.299.003.24.178.059-.08zm.87.644l.095.03.021-.068-.057-.042-.059.08zm.212-.654l.001.1.071-.001.023-.068-.095-.032zm.344-1.027l.095-.032-.095-.283-.095.283.095.032zm.344 1.027l-.095.032.023.068.071.001.001-.1zm1.083.01l.059.08.24-.178-.299-.003-.001.1zm-.87.644l-.059-.08-.057.042.021.068.095-.03zm.325 1.033l-.058.082.243.173-.09-.285-.095.03zm-.882-.629l.058-.081-.058-.041-.058.041.058.081zm-.882.629l-.095-.03-.09.285.243-.173-.058-.082zm.325 2.252l.059.08.057-.042-.021-.068-.095.03zm-.325-1.033l.058-.082-.243-.173.09.285.095-.03zm-.545 1.677l-.059-.08-.24.178.299.003.001-.1zm1.083.01l.095-.032-.023-.068h-.071l-.001.1zm.344 1.027l-.095.032.095.283.095-.283-.095-.032zm.344-1.027l-.001-.1h-.071l-.023.068.095.032zm1.083-.01l.001.1.299-.003-.24-.178-.059.08zm-.87-.644l-.095-.03-.021.068.057.042.059-.08zm.325-1.033l.095.03.09-.285-.243.173.058.082zm-.882.629l-.058.081.058.041.058-.041-.058-.081zm-2.143 2.035l.095-.032-.095-.283-.095.283.095.032zm-.344 1.027l.001.1.071-.001.023-.068-.095-.032zm.688 0l-.095.032.023.068.071.001.001-.1zm1.083.01l.059.08.24-.178-.299-.003v.1zm-.87.644l-.059-.08-.057.042.021.068.095-.03zm.325 1.033l-.058.081.243.173-.09-.285-.095.03zm-.882-.628l.058-.081-.058-.041-.058.041.058.081zm-.882.628l-.095-.03-.09.285.243-.173-.058-.081zm.325-1.033l.095.03.021-.068-.057-.042-.059.08zm-.87-.644l-.001-.1-.299.003.24.178.059-.08zM16.1 17.315l-.058.081.058.041.058-.041-.058-.081zm.882-.629l.095.03.09-.285-.243.173.058.081zm-1.763 0l.058-.081-.243-.173.09.285.095-.03zm.325 1.033l.059.08.057-.042-.021-.068-.095.03zm-.87.644l-.06-.08-.24.178.299.003v-.1zm1.083.01l.095-.032-.023-.068-.071-.001-.001.1zM16.1 19.4l-.095.032.095.283.095-.283-.095-.032zm.344-1.027l-.001-.1-.071.001-.023.068.095.032zm1.083-.01v.1l.299-.003-.24-.178-.059.08zm-.87-.644l-.095-.03-.021.068.057.042.059-.08zm-2.598-1.41l.059.08.24-.178-.299-.003-.001.1zm-1.083-.01l-.095.032.023.068.071.001.001-.1zm.213.654l-.059-.08-.057.042.021.068.095-.03zm.325 1.033l-.058.081.243.173-.09-.285-.095.03zm-.882-.628l.058-.081-.058-.041-.058.041.058.081zm-.882.628l-.095-.03-.09.285.243-.173-.058-.081zm.325-1.033l.095.03.021-.068-.057-.042-.06.08zm-.87-.644v-.1l-.298.003.24.178.059-.08zm1.083-.01l.001.1.071-.001.023-.068-.095-.032zm.344-1.027l.095-.032-.095-.283-.095.283.095.032zm-1.587-1.631l-.095-.03-.021.068.057.042.059-.08zm.87.644l.001.1.299-.003-.24-.178-.059.08zm-.545-1.677l.095.03.09-.285-.243.173.058.082zm-.882.629l-.058.081.058.041.058-.041-.058-.081zm-.882-.629l.058-.082-.243-.173.09.285.095-.03zm.325 1.033l.06.08.057-.042-.021-.068-.095.03zm-.87.644l-.059-.08-.24.178.299.003.001-.1zm1.083.01l.095-.032-.023-.068h-.071l-.001.1zm.344 1.027l-.095.032.095.283.095-.283-.095-.032zm.344-1.027l-.001-.1h-.071l-.023.068.095.032zm.538-2.906l-.058.082.243.173-.09-.285-.095.03zm-.325-1.033l-.059-.08-.057.042.021.068.095-.03zm-.556.404l.058-.081-.058-.041-.058.041.058.081zm-.882.629l-.095-.03-.09.285.243-.173-.058-.082zm.325-1.033l.095.03.021-.068-.057-.042-.06.08zm-.87-.644l-.001-.1-.299.003.24.178.059-.08zm1.083-.01l.001.1.071-.001.023-.068-.095-.032zm.344-1.027l.095-.032-.095-.283-.095.283.095.032zm.344 1.027l-.095.032.023.068.071.001.001-.1zm1.083.01l.059.08.24-.178-.299-.003-.001.1zM12.976 7.7l-.001-.1-.071.001-.023.068.095.032zm-.344 1.027l-.095.032.095.283.095-.283-.095-.032zm1.427-1.036l.001.1.299-.003-.24-.178-.059.08zm-.87-.644l-.095-.03-.021.068.057.042.059-.08zm.325-1.033l.095.03.09-.285-.243.173.058.081zm-.882.629l-.058.081.058.041.058-.041-.058-.081zm-.882-.629l.058-.081-.243-.173.09.285.095-.03zm.325 1.033l.06.08.057-.042-.021-.068-.095.03zm-.87.644l-.059-.08-.24.178.298.003v-.1zm1.083.01l.095-.032-.023-.068-.071-.001-.001.1zm3.754-1.096l-.882.629.116.163.882-.629-.116-.163zm.998.629l-.882-.629-.116.163.882.629.116-.163zm-.479-.921l.325 1.033.191-.06-.325-1.033-.191.06zm.906-.755l-.87.644.119.161.87-.644-.119-.161zm-1.024.171l1.083.01.002-.2-1.083-.01-.002.2zm-.438-1.095l.344 1.027.19-.064-.344-1.027-.19.064zm-.154 1.027l.344-1.027-.19-.064-.344 1.027.19.064zm-1.177.078l1.083-.01-.002-.2-1.083.01.002.2zm.929.464l-.87-.644-.119.161.87.644.119-.161zm-.29 1.143l.325-1.033-.191-.06-.325 1.033.191.06zm3.911.256l-1.083-.01-.002.2 1.083.01.002-.2zm.438 1.095l-.344-1.027-.19.064.344 1.027.19-.064zm.154-1.027l-.344 1.027.19.064.344-1.027-.19-.064zm1.177-.078l-1.083.01.002.2 1.083-.01-.002-.2zm-.929-.464l.87.644.119-.161-.87-.644-.119.161zm.29-1.143l-.325 1.033.191.06.325-1.033-.191-.06zm-.728.74l.882-.629-.116-.163-.882.629.116.163zm-.998-.629l.882.629.116-.163-.882-.629-.116.163zm.479.921l-.325-1.033-.191.06.325 1.033.191-.06zm-.906.755l.87-.644-.119-.161-.87.644.119.161zm2.024 2.023l.87.644.119-.161-.87-.644-.119.161zm1.141-.19l-1.083.01.002.2 1.083-.01-.002-.2zm.25-.958l-.344 1.027.19.064.344-1.027-.19-.064zm.534 1.027l-.344-1.027-.19.064.344 1.027.19-.064zm.989-.058l-1.083-.01-.002.2 1.083.01.002-.2zm-.812.825l.87-.644-.119-.161-.87.644.119.161zm.361.922l-.325-1.033-.191.06.325 1.033.191-.06zm-1.035-.517l.882.629.116-.163-.882-.628-.116.163zm-.766.629l.882-.629-.116-.163-.882.628.116.163zm.172-1.144l-.325 1.033.191.06.325-1.033-.191-.06zm.191 3.285l-.325-1.033-.191.06.325 1.033.191-.06zm-.906.755l.87-.644-.119-.161-.87.644.119.161zm1.024-.171l-1.083-.01-.002.2 1.083.01.002-.2zm.438 1.095l-.344-1.027-.19.064.344 1.027.19-.064zm.154-1.027l-.344 1.027.19.064.344-1.027-.19-.064zm1.177-.078l-1.083.01.002.2 1.083-.01-.002-.2zm-.929-.464l.87.644.119-.161-.87-.644-.119.161zm.29-1.143l-.325 1.033.191.06.325-1.033-.191-.06zm-.728.74l.882-.628-.116-.163-.882.629.116.163zm-.998-.628l.882.628.116-.163-.882-.629-.116.163zm-1.298 2.55l-.344 1.027.19.064.344-1.027-.19-.064zm.534 1.027l-.344-1.027-.19.064.344 1.027.19-.064zm.989-.058l-1.083-.01-.002.2 1.083.01.002-.2zm-.812.825l.87-.644-.119-.161-.87.644.119.161zm.361.922l-.325-1.033-.191.06.325 1.033.191-.06zm-1.035-.517l.882.629.116-.163-.882-.628-.116.163zm-.766.629l.882-.629-.116-.163-.882.628.116.163zm.172-1.144l-.325 1.033.191.06.325-1.033-.191-.06zm-.834-.534l.87.644.119-.161-.87-.644-.119.161zm1.141-.19l-1.083.01.002.2 1.083-.01-.002-.2zm-3.065 1.197l.882-.628-.116-.163-.882.629.116.163zm-.998-.628l.882.628.116-.163-.882-.629-.116.163zm.479.921l-.325-1.033-.191.06.325 1.033.191-.06zm-.906.755l.87-.644-.119-.161-.87.644.119.161zm1.024-.171l-1.083-.01-.002.2 1.083.01.002-.2zm.438 1.095l-.344-1.027-.19.064.344 1.027.19-.064zm.154-1.027l-.344 1.027.19.064.344-1.027-.19-.064zm1.177-.078l-1.083.01.002.2 1.083-.01-.002-.2zm-.929-.464l.87.644.119-.161-.87-.644-.119.161zm.289-1.143l-.325 1.033.191.06.325-1.033-.191-.06zm-2.827-.447l-1.083-.01-.002.2 1.083.01.002-.2zm-.812.825l.87-.644-.119-.161-.87.644.119.161zm.361.922l-.325-1.033-.191.06.325 1.033.191-.06zm-1.035-.517l.882.629.116-.163-.882-.628-.116.163zm-.766.629l.882-.629-.116-.163-.882.628.116.163zm.172-1.144l-.325 1.033.191.06.325-1.033-.191-.06zm-.834-.534l.87.644.119-.161-.87-.644-.119.161zm1.141-.19l-1.083.01.002.2 1.083-.01-.002-.2zm.25-.958l-.344 1.027.19.064.344-1.027-.19-.064zm.534 1.027l-.344-1.027-.19.064.344 1.027.19-.064zm-2.085-2.545l.87.644.119-.161-.87-.644-.119.161zm.289-1.143l-.325 1.033.191.06.325-1.033-.191-.06zm-.728.74l.882-.628-.116-.163-.882.629.116.163zm-.998-.628l.882.628.116-.163-.882-.629-.116.163zm.479.921l-.325-1.033-.191.06.325 1.033.191-.06zm-.906.755l.87-.644-.119-.161-.87.644.119.161zm1.024-.171l-1.083-.01-.002.2 1.083.01.002-.2zm.438 1.095l-.344-1.027-.19.064.344 1.027.19-.064zm.154-1.027l-.344 1.027.19.064.344-1.027-.19-.064zm1.177-.078l-1.083.01.002.2 1.083-.01-.002-.2zm-.449-2.826l-.325-1.033-.191.06.325 1.033.191-.06zm-1.035-.517l.882.629.116-.163-.882-.628-.116.163zm-.766.629l.882-.629-.116-.163-.882.628.116.163zm.172-1.144l-.325 1.033.191.06.325-1.033-.191-.06zm-.834-.534l.87.644.119-.161-.87-.644-.119.161zm1.141-.19l-1.083.01.002.2 1.083-.01-.002-.2zm.25-.958l-.344 1.027.19.064.344-1.027-.19-.064zm.534 1.027l-.344-1.027-.19.064.344 1.027.19-.064zm.989-.058l-1.083-.01-.002.2 1.083.01.002-.2zm-.812.825l.87-.644-.119-.161-.87.644.119.161zm1.776-2.77l-.344 1.027.19.064.344-1.027-.19-.064zm1.177-.078l-1.083.01.002.2 1.083-.01-.002-.2zm-.929-.464l.87.644.119-.161-.87-.644-.119.161zm.289-1.143l-.325 1.033.191.06.325-1.033-.191-.06zm-.728.74l.882-.629-.116-.163-.882.629.116.163zm-.998-.629l.882.629.116-.163-.882-.629-.116.163zm.479.921l-.325-1.033-.191.06.325 1.033.191-.06zm-.906.755l.87-.644-.119-.161-.87.644.119.161zm1.024-.171l-1.083-.01-.002.2 1.083.01.002-.2zm.438 1.095l-.344-1.027-.19.064.344 1.027.19-.064z" mask="url(#B)" class="D"/></g></g><defs><clipPath id="C"><path fill="#fff" d="M0 0h32v24H0z"/></clipPath></defs></svg>
