<svg xmlns="http://www.w3.org/2000/svg" viewBox="0 0 32 24" fill="none"><style><![CDATA[.B{fill-rule:evenodd}.C{fill:#d62818}.D{fill:#003994}.E{fill:#ebca5e}]]></style><g clip-path="url(#B)"><path fill="#fff" d="M0 0h32v24H0z"/><path d="M0 0V24H32V0H0Z" fill="#c51918" class="B"/><mask id="A" maskUnits="userSpaceOnUse" x="0" y="0" width="32" height="24"><path d="M0 0V24H32V0H0Z" fill="#fff" class="B"/></mask><g mask="url(#A)"><path fill="#4257bf" d="M0 0h14v10H0zm18 14h14v10H18z"/><path d="M13 0h6v9h13v6H19v9h-6v-9H0V9h13V0z" fill="#f7fcff" class="B"/><path d="M13.865 10.525l-.08-.391c-.095.23-.125.44-.086.628l-.109.166c-.102-.143-.229-.412-.229-.412a3.07 3.07 0 0 1 0 .235c-.005.182-.009.351.071.457l-.001.002-.045.105-.293-.329c.014.254.08.454.2.597l-.054.222-.182-.203c.013.232.049.385.144.513l-.003.109-.197-.22a.84.84 0 0 0 .221.539 2.14 2.14 0 0 0 .048.23l.011.042-.285-.152a.84.84 0 0 0 .363.415l.1.284-.4-.129a.85.85 0 0 0 .499.369l.117.24-.332-.108c.14.214.306.308.483.364a1.96 1.96 0 0 0 .374.433l-.344.139a.84.84 0 0 0 .539-.007l.011.005c.063.032.134.063.214.093l-.244.098c.21.063.378.047.53-.004l.007.002.24.066a20.48 20.48 0 0 1 .218.058c.152.041.239.07.28.095l.127-.084c-.013-.02-.032-.036-.056-.05-.057-.034-.15-.065-.315-.11l-.222-.059-.233-.064-.054-.016c.013-.16-.012-.327-.124-.516l-.065.455a2.02 2.02 0 0 1-.24-.101l-.059-.034c-.014-.164-.066-.328-.213-.499l.012.34c-.098-.096-.193-.215-.283-.356l.085.047a.86.86 0 0 0-.217-.61l.013.358-.152-.319c.045-.161.054-.335-.027-.549l-.084.261-.037-.109a.85.85 0 0 0 .104-.614l-.185.347-.016-.06a1.97 1.97 0 0 1-.042-.197.84.84 0 0 0 .284-.52l-.307.276.002-.168a.84.84 0 0 0 .349-.45l-.321.2.035-.165a.86.86 0 0 0 .416-.491l-.322.201.059-.14c.025-.055.061-.122.108-.198.155-.056.3-.149.426-.335l-.26.08.261-.361-.112-.096-.116.158zm4.048 0l.08-.391c.095.23.125.44.087.628l.109.166c.102-.143.229-.412.229-.412a2.84 2.84 0 0 0 0 .235c.005.182.009.351-.071.457l.001.002.045.105.294-.329c-.014.254-.08.454-.2.597l.054.222.182-.203c-.013.232-.05.385-.144.513l.003.109.197-.22a.84.84 0 0 1-.221.539 2.14 2.14 0 0 1-.048.23l-.011.042.285-.152a.84.84 0 0 1-.363.415l-.1.284.4-.129a.85.85 0 0 1-.499.369l-.117.24.332-.108c-.14.214-.306.308-.483.364-.117.178-.243.324-.374.433l.344.139a.84.84 0 0 1-.539-.007l-.011.005c-.063.032-.134.063-.214.093l.244.098c-.21.063-.378.047-.53-.004l-.007.002-.24.066a20.48 20.48 0 0 0-.218.058c-.152.041-.239.07-.28.095L16 14.99a.17.17 0 0 1 .056-.05c.057-.034.15-.065.315-.11l.222-.059.233-.064.054-.016c-.013-.16.012-.327.124-.516l.065.455a2 2 0 0 0 .24-.101l.059-.034c.014-.164.066-.328.213-.499l-.012.34c.098-.096.193-.215.283-.356l-.085.047a.86.86 0 0 1 .217-.61l-.013.358.152-.319c-.045-.161-.054-.335.027-.549l.084.261.037-.109a.85.85 0 0 1-.104-.614l.185.347.016-.06.042-.197a.84.84 0 0 1-.284-.52l.307.276-.002-.168a.84.84 0 0 1-.349-.45l.321.2-.035-.165a.86.86 0 0 1-.416-.491l.323.201-.059-.14a2.01 2.01 0 0 0-.108-.198.84.84 0 0 1-.426-.335l.261.08-.261-.361.112-.096.116.158z" fill="#5ab92d" class="B"/><path d="M13.252 9.316c.4-.281 1.132-.524 1.509-.524.048-.018.254-.146.267-.154.266-.152.545-.233.925-.233v.667c-.273 0-.451.051-.629.154.031-.018-.235.147-.32.182-.079.033-.158.05-.242.05-.252 0-.866.203-1.165.414-.107.076-.098.053-.094.098.012.164 0 .264-.101.392-.013.017-.034.108-.036.269l-.625-.008c.003-.262.043-.47.137-.625-.014-.269.081-.476.375-.682z" class="D"/><path d="M13.586 9.565l-.069-.111c.321-.226.62-.341.898-.341.092 0 .197-.024.319-.072.082-.032.165-.071.278-.128.407-.207.419-.212.526-.212h.369v.133h-.369c-.078 0-.103.011-.473.199l-.289.133c-.134.052-.253.08-.361.08-.25 0-.527.105-.829.319z" class="E"/><path d="M18.498 9.316c-.4-.281-1.132-.524-1.509-.524-.048-.018-.254-.146-.267-.154-.266-.152-.545-.233-.925-.233v.667c.273 0 .451.051.629.154-.031-.018.235.147.32.182.079.033.158.05.242.05.252 0 .866.203 1.165.414.108.076.098.053.094.098-.012.164 0 .264.101.392.013.017.034.108.036.269l.625-.008c-.003-.262-.043-.47-.137-.625.014-.269-.081-.476-.375-.682z" class="D"/><path d="M18.114 9.565l.069-.111c-.321-.226-.62-.341-.898-.341-.092 0-.197-.024-.319-.072-.082-.032-.165-.071-.278-.128-.407-.207-.419-.212-.526-.212h-.369v.133h.369c.078 0 .103.011.473.199l.289.133c.134.052.253.08.361.08.251 0 .527.105.829.319z" class="E"/><path d="M13.822 10.019l.326.355v1.473h.329v.094l.482.232s.073-.974-.154-1.231.154-.32.154-.32l.579.579v-1.181h-1.716z" class="D"/><path d="M17.738 10.019l-.326.355v1.473h-.329v.094l-.482.232s-.073-.974.154-1.231-.154-.32-.154-.32l-.579.579v-1.181h1.716z" class="C"/><path d="M14.877 10.597l-.049.06.962.889.052-.003.795-.889-.054-.055-.771.861-.935-.864zm-.137.373l-.063.06 1.228.889.066-.003 1.015-.889-.069-.055-.984.861-1.193-.864z" fill="#ffc300"/><path d="M14.177 12.422h.422l.288.088s.093.661.555.661l.076.846-.359-.194s-.233.103-.273.103-.372.187-.372 0-.338-.488-.338-.488v-1.016z" class="C"/><path d="M17.518 12.422h-.422l-.288.088s-.093.661-.555.661l-.076.846.359-.194s.233.103.273.103.372.187.372 0 .338-.488.338-.488v-1.016z" class="D"/><path d="M16.614 12.502h.5c0 .374-.132.677-.392.882l-.297-.429c.128-.1.189-.243.189-.453zm-1.31-1.029v.701h.581l-.055.858c0 .332.055.762.055.762s.142-.071.142-.52v-1.149l.459.049-.049-.632h-.194s.298.394 0 .394-.64.077-.705.077-.236-.54-.236-.54z" class="C"/><path d="M15.81 12.321s-.327.192-.327.505.163.67.163.67-.078-.705.043-.892.12-.283.12-.283zm-.532.232s-.018.226.116.226-.116-.226-.116-.226z" class="D"/><path d="M16.428 11.944l.051.178-.855.28-.191-.796.169-.046.146.606.679-.222z" fill="#373737"/><path d="M14.036 15.409l-.075.064a.78.78 0 0 1-.065-.101c-.075-.026-.146-.061-.205-.102-.081-.057-.165-.057-.271.005l-.121-.233a.46.46 0 0 1 .529.005c.029-.128.115-.245.263-.329.255-.145 1.37-.298 1.709-.298v.427c-.275 0-1.342.146-1.521.248-.038.021-.051.028-.053.038s.003.018.016.035l.196.183c-.074.079-.237.092-.404.06zm-1.195.008s.37.325.636.246.349-.167.349-.167l-.549-.079c-.283-.043-.437 0-.437 0z" class="B C"/><path d="M14.065 15.179l.045-.064c-.132-.106-.098-.165.155-.221l.067-.015h0l.741-.122c.279-.034.559-.053.807-.053a6.91 6.91 0 0 0-.807.053l-.741.122-.015-.079.748-.123c.282-.034.564-.054.815-.054-.251 0-.533.02-.815.054l-.816.138c-.305.069-.384.204-.185.364z" class="B E"/><path d="M17.464 15.409l.075.064c.025-.034.046-.067.064-.101a.83.83 0 0 0 .205-.102c.081-.057.165-.057.271.005l.121-.233a.46.46 0 0 0-.529.005c-.029-.128-.115-.245-.263-.329-.255-.145-1.37-.298-1.709-.298v.427c.275 0 1.342.146 1.521.248.038.021.051.028.053.038s-.003.018-.016.035l-.196.183c.074.079.237.092.404.06zm1.195.008s-.37.325-.637.246-.349-.167-.349-.167l.549-.079a1.14 1.14 0 0 1 .437 0z" class="B C"/><path d="M17.435 15.179l-.045-.064c.132-.106.098-.165-.155-.221l-.067-.015h0l-.741-.122c-.279-.034-.559-.053-.807-.053.249 0 .527.02.807.053l.741.122.015-.079-.748-.123c-.282-.034-.564-.054-.815-.054.251 0 .533.02.815.054l.816.138c.305.069.384.204.185.364z" class="B E"/><path d="M15.366 15.511l-.194-.342c.177-.114.404-.169.68-.169s.502.055.673.172l-.202.337c-.103-.07-.259-.108-.47-.108s-.374.039-.486.111z" class="C"/></g></g><defs><clipPath id="B"><path fill="#fff" d="M0 0h32v24H0z"/></clipPath></defs></svg>
