<svg xmlns="http://www.w3.org/2000/svg" viewBox="0 0 32 24" fill="none"><g clip-path="url(#A)"><path fill="#fff" d="M0 0h32v24H0z"/><g fill-rule="evenodd"><path d="M16 0H32V24H16V0Z" fill="#f7fcff"/><path d="M0 0H16V24H0V0Z" fill="#36a400"/><path d="M17.791 6.795a6.03 6.03 0 0 1 3.976 1.49A7.34 7.34 0 0 0 16 5.493c-4.061 0-7.353 3.292-7.353 7.353s3.292 7.353 7.353 7.353a7.34 7.34 0 0 0 5.767-2.792c-1.063.928-2.454 1.49-3.976 1.49-3.342 0-6.051-2.709-6.051-6.051s2.709-6.051 6.051-6.051zm2.82 2.749l-1.702 1.929-2.445-.674 1.356 2.12-1.356 2.257 2.565-.923 1.402 2.189v-2.54l2.291-.982-2.291-.821.18-2.555z" fill="red"/></g></g><defs><clipPath id="A"><path fill="#fff" d="M0 0h32v24H0z"/></clipPath></defs></svg>
