<svg xmlns="http://www.w3.org/2000/svg" viewBox="0 0 32 24" fill="none"><style><![CDATA[.B{fill-rule:evenodd}.C{fill:#171401}.D{fill:#cececc}.E{fill:#2e42a5}.F{fill:#feca00}.G{fill:#e31d1c}.H{fill:#6fae21}]]></style><g clip-path="url(#C)"><path fill="#fff" d="M0 0h32v24H0z"/><path d="M0 0V24H32V0H0Z" class="B E"/><mask id="A" maskUnits="userSpaceOnUse" x="0" y="0" width="32" height="24"><path d="M0 0V24H32V0H0Z" fill="#fff" class="B"/></mask><g mask="url(#A)"><path d="M0 0V12H32V0H0Z" class="B F"/><path d="M0 18v6h32v-6H0z" class="B G"/><path d="M9.717 5.714s4.156-1.878 4.534-1.664.469.821.795.821.983-.192 1.257-.192.545.192.545.192h1.171V4.22l5.308 1.494-3.329.404c-.233 0 0 .334 0 .334s-.441-.334-1.114-.334-2.036.695-2.036.695l.496 1.066-.496.314-.545-.314s.035-.877-.199-.877-.406.563-.406.877-.651.314-.651.314l.291-.587s.289-.973-.291-.973-3.225-.514-3.225-.514l-.676.334.242-.738h-1.67z" fill="#7b2900" class="B"/><path d="M11.501 15.774c-.649-1.458 0-4.688 0-4.688l1.261.661c-.15.754-.173 2.178.299 3.343s2.255 2.083 2.255 2.083.9.201-.467.345-2.698-.286-3.347-1.744zm3.232 5.743c-.406 0 .812-2.709.812-2.709l.376-.753s.046 3.189-.211 3.462c-.165.175-.353.125-.574.068-.123-.032-.257-.068-.403-.068z" class="B G"/><path d="M10.327 15.298c-.544-2.177.304-5.133.304-5.133l.853.61c-.125 1.126-.125 4.037.596 5.298s3.887 1.791 3.887 1.791-.624.462-1.77.678-3.328-1.066-3.872-3.243zm3.629 5.919l.502-1.792.708-.866h.509s-.716 3.081-1.216 3.081c-.325 0-.228-.178-.12-.376.058-.107.12-.219.12-.313 0-.267-.502.267-.502.267z" class="B E"/><path d="M9.498 15.671c-.27-1.874.27-6.351.27-6.351l.853.61c-.386 1.084-.266 4.196 0 5.741s2.786 2.477 2.786 2.477-.624.462-1.77.677-1.869-1.28-2.139-3.154zm4.189 3.745c-.486 0 .212-.697.212-.697h1.163s-.398.984-.889.984c-.246 0-.246-.072-.245-.144s.001-.143-.241-.143z" class="B F"/><path d="M20.365 15.774c.649-1.458 0-4.688 0-4.688l-1.261.661c.15.754.173 2.178-.299 3.343s-2.255 2.083-2.255 2.083-.9.201.467.345 2.698-.286 3.347-1.744zm-3.232 5.743c.406 0-.812-2.709-.812-2.709l-.376-.753s-.046 3.189.212 3.462c.165.175.353.125.574.068.123-.032.257-.068.403-.068z" class="B G"/><path d="M21.54 15.298c.544-2.177-.304-5.133-.304-5.133l-.853.61c.125 1.126.125 4.037-.596 5.298s-3.887 1.791-3.887 1.791.624.462 1.77.678 3.328-1.066 3.872-3.243zm-3.629 5.919l-.502-1.792-.708-.866h-.509s.716 3.081 1.216 3.081c.325 0 .228-.178.12-.376-.058-.107-.12-.219-.12-.313 0-.267.502.267.502.267z" class="B E"/><path d="M22.369 15.671c.27-1.874-.27-6.351-.27-6.351l-.853.61c.386 1.084.266 4.196 0 5.741s-2.786 2.477-2.786 2.477.625.462 1.77.677 1.869-1.28 2.139-3.154zm-4.189 3.745c.486 0-.212-.697-.212-.697h-1.163s.398.984.889.984c.246 0 .246-.072.245-.144s-.001-.143.241-.143z" class="B F"/><path d="M10.203 10.446l.091-.552 1.601.104-1.214-1.258.409-.389 1.642 1.701-1.404-2.64.485-.289 1.278 1.88-.61-1.955.524-.209 1.966 3.92-.754-.049.074.237.642.17-.146.543-.298-.079.278.891-.483-.71.841 1.581-2.066-2.141-2.857-.758zm11.723 0l-.092-.552-1.601.104 1.214-1.258-.409-.389-1.642 1.701 1.404-2.64-.485-.289-1.278 1.88.61-1.955-.524-.209-1.966 3.92.754-.049-.074.237-.642.17.146.543.298-.079-.278.891.483-.71-.841 1.581 2.066-2.141 2.857-.758z" class="H"/><use href="#D" class="C"/><path d="M22.535 8.189l.625.589.352-.974-.977.385zm-11.159 13.12l-.718-.472-.232.967.95-.495z" class="B D"/><path d="M10.16 19.399l-.412-.386 12.19-12.835.412.386-12.19 12.835z" class="C"/><path d="M21.628 6.277l.625.589.352-.974-.977.385zM10.47 19.396l-.718-.472-.233.968.95-.495z" class="B D"/><path d="M21.253 21.311l.412-.386L9.475 8.091l-.412.386 12.19 12.835z" class="C"/><path d="M9.785 8.189l-.625.589-.352-.974.977.385zm11.159 13.12l.718-.472.233.967-.95-.495z" class="B D"/><path d="M22.387 19.849l.412-.386-12.19-12.835-.412.386 12.19 12.835z" class="C"/><path d="M10.918 6.727l-.625.589-.352-.974.977.385zm11.159 13.119l.718-.472.233.968-.95-.495z" class="B D"/><path fill="#b74e01" d="M13.667 16.375H18.2v2.25h-4.533z"/><path d="M15.948 17.287c.899 0 1.676-.578 2.215-1.435s.868-2.033.868-3.315-.327-2.455-.868-3.315-1.316-1.435-2.215-1.435-1.676.578-2.215 1.435-.868 2.033-.868 3.315.327 2.455.868 3.315 1.316 1.435 2.215 1.435z" fill="#7db8ff" stroke="#feca00" stroke-width=".5"/><mask id="B" maskUnits="userSpaceOnUse" x="12" y="7" width="8" height="11"><path d="M15.948 17.287c.899 0 1.676-.578 2.215-1.435s.868-2.033.868-3.315-.327-2.455-.868-3.315-1.316-1.435-2.215-1.435-1.676.578-2.215 1.435-.868 2.033-.868 3.315.327 2.455.868 3.315 1.316 1.435 2.215 1.435z" fill="#fff" stroke="#fff" stroke-width=".5"/></mask><g mask="url(#B)" class="B"><path d="M12.879 12.61h1.612s1.108.245.554.439-.554.257-.554.533v1.499c0 .215.394.676-.437.676s-1.547-3.416-1.547-3.416l.371.269z" class="H"/><path d="M19.179 12.796s-1.498.296-2.524.197l-1.476-.197s.715.372.969.684.774.851 1.305.851 1.344.503 1.344.503l.382-2.037z" class="H"/><path d="M13.319 10.136s1.235.239 1.532.596-.393.714 1.406.357 3.227-.981 3.227 0-.157 1.884-.931 1.884h-3.444c-2.361 0-3.648.722-3.483-.44s1.693-2.397 1.693-2.397z" fill="#f7fcff"/></g></g></g><defs><clipPath id="C"><path fill="#fff" d="M0 0h32v24H0z"/></clipPath><path id="D" d="M11.067 21.311l-.412-.386 12.19-12.835.412.386-12.19 12.835z"/></defs></svg>
