<svg xmlns="http://www.w3.org/2000/svg" viewBox="0 0 32 24" fill="none"><style><![CDATA[.B{fill:#c09302}.C{fill-rule:evenodd}]]></style><g clip-path="url(#B)"><path fill="#fff" d="M0 0h32v24H0z"/><path d="M0 0V24H32V0H0Z" fill="#f7fcff" class="C"/><mask id="A" maskUnits="userSpaceOnUse" x="0" y="0" width="32" height="24"><path d="M0 0V24H32V0H0Z" fill="#fff" class="C"/></mask><g mask="url(#A)"><path d="M0 0V8H32V0H0Z" fill="#bf2714" class="C"/><path d="M0 16v8h32v-8H0z" fill="#272727" class="C"/><path d="M12.26 10.22l.999.046-.251 5.47-.999-.046.251-5.47zm1.044.34l.998.056-.251 4.435-.998-.056.251-4.435z" class="B"/><path d="M14.348 10.892l.997.082-.251 3.056-.997-.082.251-3.056zm5.392-.672l-.999.046.251 5.47.999-.046-.251-5.47zm-1.044.34l-.998.056.251 4.435.999-.056-.251-4.435z" class="B"/><path d="M17.652 10.892l-.997.082.251 3.056.997-.082-.251-3.056zm-1.679 4.435l-.975-.223.413-1.801.975.223-.413 1.801z" class="B"/><path d="M16.72 15.327l.975-.223-.413-1.801-.975.223.413 1.801z" class="B"/><path d="M16.472 15.31h-1v-1.768h1v1.768z" class="B"/><use href="#C" class="B"/><path d="M16.374 10.913l1 .024-.058 2.381-1-.024.058-2.381zm-3.036 5.01l.26-.966c1.061.285 1.876.426 2.431.426s1.37-.141 2.431-.426l.26.966c-1.138.306-2.031.461-2.691.461s-1.553-.155-2.691-.461z" class="B"/><path d="M12.282 10.223c-.067-.661.32-1.108.975-1.051.215.019.457.082.78.192l.186.065.588.203c-.098-.022.191-.545.257-.633.008.056-.025.048-.105.032l-.902-.181.642-.659a1.17 1.17 0 0 1 .864-.344l.177-.008.17-.009c.624-.02 1.071.156 1.071.798 0 .23.029.599.077.879.016.094.047.182-.045.221.004-.033.222-.12.562-.262l.041-.017c.987-.412 1.103-.45 1.421-.257.212.129.414.361.64.706l-.837.548c-.146-.223-.262-.358-.317-.396.126.087-.298.228-.522.322l-.04.017c-.769.322-.87.36-1.09.36-.598 0-.813-.613-.872-1.49-.185.608-.735 1.374-1.189 1.374-.199 0-.103.031-.928-.262l-.172-.06c-.25-.085-.43-.132-.544-.143a.45.45 0 0 1 .04-.039l-.93.094z" class="B"/></g></g><defs><clipPath id="B"><path fill="#fff" d="M0 0h32v24H0z"/></clipPath><path id="C" d="M14.635 10.913l1 .024-.058 2.381-1-.024.058-2.381z"/></defs></svg>
