<svg xmlns="http://www.w3.org/2000/svg" viewBox="0 0 32 24" fill="none"><g clip-path="url(#A)"><path fill="#fff" d="M0 0h32v24H0z"/><g fill-rule="evenodd"><path d="M0 0H32V24H0V0Z" fill="#f7fcff"/><path d="M0 0V8H32V0H0Z" fill="#272727"/><path d="M0 16v8h32v-8H0z" fill="#5eaa22"/><g fill="#e31d1c"><path d="M0 0l16 12L0 24V0zm21.688 15.477s-2.275-1.375-2.275-3.647 2.275-3.467 2.275-3.467c-1.018-.646-4.549.276-4.549 3.541s3.497 3.868 4.549 3.573zm1.841-4.165l-1.324-1.24.457 1.584-1.281.607 1.573.512.683 1.714.299-1.587 1.554.343-1.176-1.148.398-1.225-1.184.441z"/></g></g></g><defs><clipPath id="A"><path fill="#fff" d="M0 0h32v24H0z"/></clipPath></defs></svg>
