<svg xmlns="http://www.w3.org/2000/svg" viewBox="0 0 32 24" fill="none"><g clip-path="url(#A)"><path fill="#fff" d="M0 0h32v24H0z"/><g fill-rule="evenodd"><path d="M0 0V12H32V0H0Z" fill="#43b764"/><path d="M0 12V24H32V12H0Z" fill="#b4d7f4"/><path d="M0 0L33 12L0 24V0Z" fill="#be0027"/><path d="M8.101 18.516a1.25 1.25 0 0 1 .486-.309l-.035-1.992c-.053-.079-.145-.145-.305-.145-.4 0-1.278-.342-1.278-.834 0 0 .655.296.838.148.078-.063-.125-.258-.371-.495-.331-.318-.738-.71-.64-.953 0 0 .642.569.779.569.063 0 .02-.184-.023-.37-.051-.221-.102-.443.023-.357.231.158.872 1.246.872 1.605 0 .196.051.503.098.744v-.007l-.116-1.105c-.288-1.8-.298-3.645.102-4.626-.2-.124-.346-.282-.346-.462 0 0 .655.266.838.133.078-.057-.125-.232-.371-.445-.331-.286-.738-.639-.639-.857 0 0 .642.511.779.511.063 0 .02-.166-.023-.332-.051-.198-.102-.398.023-.321.231.142.872 1.12.872 1.444v.008c.248-.308.538-.595.69-.667.163-.077.096.123.03.321-.056.167-.111.332-.03.332.178 0 1.014-.512 1.014-.512.129.218-.402.571-.832.857-.319.213-.583.388-.482.445.238.133 1.09-.133 1.09-.133 0 .443-1.142.75-1.662.75-.193 0-.31.051-.381.116-.035.307-.05.654-.049 1.026.26-.335.584-.663.749-.741s.096.123.03.321c-.056.167-.111.332-.03.332.178 0 1.014-.511 1.014-.511.129.218-.402.571-.832.857-.319.212-.583.388-.482.445.238.133 1.09-.133 1.09-.133 0 .393-.903.68-1.468.739l.126.976c.055.346.096.743.124 1.181l.029.57c.025-.159.043-.317.043-.434 0-.36.641-1.447.872-1.605.125-.086.074.136.023.357-.043.185-.086.369-.023.369.137 0 .779-.569.779-.569.099.242-.309.635-.639.953-.246.236-.449.432-.371.495.183.148.838-.148.838-.148 0 .492-.878.834-1.278.834-.104 0-.18.028-.234.07l.004 1.242c.218.071.388.195.519.332.257-.018.509-.057.758-.117.48-.264 1.543-1.115 1.812-1.45.204-.253.282-.752.355-1.224h0l.145-.731c.171-.551.473.67.473.86s.249-.705.249-1.334c0-.315-.062-.517-.125-.718s-.124-.401-.124-.712c0-.368.215-.302.414-.112a2.61 2.61 0 0 1-.165-.877c0-.408-.051-.53-.073-.56.02.009.073.014.185-.047.193-.104.282.024.357.131.066.094.12.172.222.065.112-.117-.13-.25-.488-.448-.344-.19-.796-.439-1.148-.791-.717-.719.223-.966.384-.715s1.116.532.561-.302c-.338-.507-.754-.501-1.133-.495-.244.004-.473.007-.655-.128-.314-.233.123-.473.362-.604.114-.062.182-.1.102-.1-.102 0-.231-.036-.384-.079-.219-.061-.485-.135-.784-.135-.508 0-1.512-.454-1.165-.454.123 0 .306-.044.508-.092.221-.053.463-.111.673-.122a11.6 11.6 0 0 0-2.092-.713L9.293 6a12.29 12.29 0 0 1 2.096.705l-.319-.511c-.332-.58.705.321 1.116.917l.001.002c.668.388 1.22.84 1.653 1.357V7.296c.388.133.609 1.386.725 2.331a4.99 4.99 0 0 1 .219.588c.151-.403.436-.83.692-.46.305.441-.234 2.941-.433 3.805l-.03.27c.473-.301.718-.996.844-1.353.108-.307.128-.362.128.305 0 .863-.672 1.718-1.223 2.274-.079.273-.172.539-.28.798.379-.12.704-.33.956-.493.441-.286.658-.426.547.322-.121.815-1.303 1.116-2.046 1.225l-.168.257-.031.038-.349.333.218-.097c.29-.132.554-.252.889-.252.202 0-.074.105-.465.255h0 0 0c-.462.176-1.083.414-1.266.611-.076.082-.126.149-.167.203-.119.159-.155.206-.529.216a5.21 5.21 0 0 1-1.802.579 1.34 1.34 0 0 1 .056.156H7.693s.02-.076.07-.187c-.547-.093-1.076-.275-1.586-.546h-.042c-.571 0-.597-.035-.735-.219h0 0l-.167-.203c-.182-.197-.804-.434-1.266-.611h0c-.391-.149-.666-.255-.465-.255.334 0 .599.12.889.252l.287.125.361.133-.534-.495-.031-.038-.148-.225c-.688-.075-2.161-.342-2.297-1.257-.111-.747.105-.607.547-.322.266.172.613.397 1.019.512l.197.052-.213-.558c-.561-.503-1.551-1.538-1.551-2.586 0-.668.019-.612.128-.305.129.366.384 1.09.883 1.376 0 0-.872-3.564-.502-4.099s.8.593.8.911c0 .056.005-.004.018-.142h0 0 0c.059-.651.274-3.041.818-3.227v1.292c0 .06.027.084.074.078a5.74 5.74 0 0 1 1.37-1.278l.21-.277c.411-.596 1.448-1.497 1.116-.917l-.329.527h0 0l-.091.141c.7-.349 1.51-.636 2.429-.862l.134.531c-.804.198-1.516.442-2.135.733.159.024.328.064.485.102h0c.201.048.384.092.508.092.347 0-.657.454-1.165.454-.299 0-.565.074-.784.135-.153.043-.282.079-.384.079-.08 0-.011.038.102.1.238.131.676.372.362.604-.182.135-.411.131-.655.128-.271-.004-.56-.008-.827.174-.18.257-.329.53-.449.818.121.159.595-.025.704-.195.16-.251 1.101-.004.384.715-.351.352-.803.602-1.148.791l-.295.168-.031.293c.02-.021.039-.049.06-.078.075-.107.165-.236.357-.131.112.061.165.056.185.047-.022.03-.073.153-.073.56a2.61 2.61 0 0 1-.165.877c.199-.191.414-.256.414.112a2.17 2.17 0 0 1-.124.712c-.062.202-.125.404-.125.718 0 .628.249 1.524.249 1.334s.302-1.412.473-.86c.062.201.103.461.145.731.074.472.151.97.355 1.224.233.29 1.064.969 1.594 1.316.326.115.659.192 1 .231zm-3.731-6.964zm9.285.008zm.179 4.393l.066-.142c-.056.054-.098.112-.066.142zm-4.617-5.004a3.23 3.23 0 0 1-.091.45c.024-.165.054-.316.091-.45z" fill="#f3e294"/></g></g><defs><clipPath id="A"><path fill="#fff" d="M0 0h32v24H0z"/></clipPath></defs></svg>
