<svg xmlns="http://www.w3.org/2000/svg" viewBox="0 0 32 24" fill="none"><style><![CDATA[.B{fill-rule:evenodd}.C{fill:#fff}.D{fill:#c88a02}.E{fill:#ad1619}.F{fill:#f1f9ff}.G{fill:#005bbf}.H{fill:#ffc034}]]></style><g clip-path="url(#E)"><path d="M0 0h32v24H0z" class="C"/><path d="M0 0V24H32V0H0Z" fill="#ffb400" class="B"/><mask id="A" maskUnits="userSpaceOnUse" x="0" y="0" width="32" height="24"><path d="M0 0V24H32V0H0Z" class="B C"/></mask><g mask="url(#A)"><path d="M0 0v6h32V0H0zm0 18v6h32v-6H0z" fill="#c51918" class="B"/><path d="M5.008 10.272h1.12v5.824h-1.12z" class="F"/><path d="M6.576 9.264H4.56v.56h.336v.448H6.24v-.448h.336v-.56zm-.336 7.168h.336v.56H4.56v-.56h.336v-.448H6.24v.448z" class="B D"/><path d="M5.568 9.376c.244 0 .269-.092.412-.229.112-.106.372-.238.372-.387 0-.34-.351-.616-.784-.616s-.784.276-.784.616c0 .166.179.276.314.387.143.117.247.229.47.229z" class="B E"/><use href="#F" class="B G"/><mask id="B" maskUnits="userSpaceOnUse" x="4" y="16" width="3" height="2"><path d="M4.56 16.992h2.016v.896s-.252-.112-.504-.112-.504.112-.504.112-.252-.112-.504-.112-.504.112-.504.112v-.896z" class="B C"/></mask><g mask="url(#B)" class="C"><path d="M4.542 17.712l-.044-.107c.182-.081.364-.121.546-.121.118 0 .179.016.284.063a.49.49 0 0 0 .24.054.49.49 0 0 0 .24-.054c.105-.047.166-.063.284-.063.183 0 .365.041.546.121l-.044.107c-.168-.075-.335-.112-.502-.112a.49.49 0 0 0-.24.054c-.105.047-.166.063-.284.063s-.179-.016-.284-.063a.49.49 0 0 0-.24-.054c-.167 0-.334.037-.502.112z"/><path d="M4.542 17.376l-.044-.107c.182-.081.364-.121.546-.121.118 0 .179.016.284.063a.49.49 0 0 0 .24.054.49.49 0 0 0 .24-.054c.105-.047.166-.063.284-.063.183 0 .365.04.546.121l-.044.107c-.168-.075-.335-.112-.502-.112a.49.49 0 0 0-.24.054c-.105.047-.166.063-.284.063s-.179-.016-.284-.063a.49.49 0 0 0-.24-.054c-.167 0-.334.037-.502.112z"/></g><path d="M15.984 10.272h1.12v5.824h-1.12z" class="F"/><path d="M17.552 9.264h-2.016v.56h.336v.448h1.344v-.448h.336v-.56zm-.336 7.168h.336v.56h-2.016v-.56h.336v-.448h1.344v.448z" class="B D"/><path d="M16.544 9.376c.244 0 .268-.092.412-.229.112-.106.372-.238.372-.387 0-.34-.351-.616-.784-.616s-.784.276-.784.616c0 .166.179.276.315.387.143.117.247.229.47.229z" class="B E"/><path d="M15.536 16.992h2.016v.896s-.252-.112-.504-.112-.504.112-.504.112-.252-.112-.504-.112-.504.112-.504.112v-.896z" class="B G"/><mask id="C" maskUnits="userSpaceOnUse" x="15" y="16" width="3" height="2"><path d="M15.536 16.992h2.016v.896s-.252-.112-.504-.112-.504.112-.504.112-.252-.112-.504-.112-.504.112-.504.112v-.896z" class="B C"/></mask><g mask="url(#C)" class="C"><path d="M15.518 17.712l-.044-.107c.181-.081.364-.121.546-.121a.59.59 0 0 1 .284.063.49.49 0 0 0 .24.054.49.49 0 0 0 .24-.054c.105-.047.166-.063.284-.063.183 0 .365.041.546.121l-.044.107c-.168-.075-.335-.112-.502-.112a.49.49 0 0 0-.24.054.59.59 0 0 1-.284.063c-.118 0-.18-.016-.284-.063a.49.49 0 0 0-.24-.054c-.167 0-.334.037-.502.112z"/><path d="M15.518 17.376l-.044-.107c.181-.081.364-.121.546-.121a.59.59 0 0 1 .284.063.49.49 0 0 0 .24.054.49.49 0 0 0 .24-.054c.105-.047.166-.063.284-.063.183 0 .365.04.546.121l-.044.107c-.168-.075-.335-.112-.502-.112a.49.49 0 0 0-.24.054.59.59 0 0 1-.284.063c-.118 0-.18-.016-.284-.063a.49.49 0 0 0-.24-.054c-.167 0-.334.037-.502.112z"/></g><path d="M4.988 15.68c.202-.245.315-.467.315-.704 0-.149-.044-.278-.122-.383l.013-.006c-.001.001.222-.097.299-.134.144-.069.271-.142.395-.232.079-.058.185-.12.346-.207l.152-.081.041-.022.191-.105c.169-.098.281-.179.366-.288.203-.257.16-.605-.123-.798-.139-.095-.327-.149-.602-.192l-.057-.009-.336-.052-.354-.058c.689-.115 1.672-.072 2.104.151l.411-.796c-.881-.455-2.889-.409-3.64.108-.55.379-.476.952.096 1.198.239.103.551.172 1.128.264l-.252.162c-.076.055-.157.102-.255.149l-.25.112h0 0l-.032.014c-.466.212-.693.505-.625 1.035l.037.287.066.02.688.567zm-.576-.741l-.001.004.001-.003v-.001zm12.294.037c0 .237.113.459.315.704l.688-.567.066-.02.037-.287c.068-.529-.159-.823-.625-1.035l-.032-.014-.25-.112c-.098-.047-.18-.094-.255-.149a2.87 2.87 0 0 0-.252-.162c.577-.093.889-.161 1.128-.264.572-.247.646-.819.096-1.198-.75-.517-2.758-.563-3.64-.108l.411.796c.433-.223 1.416-.265 2.104-.151l-.354.058-.336.052h0l-.057.009c-.275.043-.463.097-.602.192-.284.193-.326.541-.123.798.085.108.197.19.366.288l.191.105.041.022.152.081.346.207c.124.09.251.163.395.232l.299.134.013.006c-.078.105-.122.234-.122.383z" class="B E"/><path d="M5.923 12.4l.331.068v.493c-.352.281-1.246.754-1.246.754V12.4h.915zm10.392 0l-.331.068v.493c.352.281 1.246.754 1.246.754V12.4h-.915z" class="F"/><path d="M14.776 7.206v-.164c-.576-.413-1.179-.62-1.81-.62-.604-.267-1.216-.371-1.835-.311-.931-.094-1.869.311-1.869.311-.946 0-1.81.62-1.81.62v.164l1.13 1.135s.318 1.092 2.545.835v.003l1.578-.075.127-.039c.289-.084.619-.181.815-.725l1.13-1.135zm-3.649-1.045c-.032.378-.216 2.655 0 3.008V6.161z" class="B E"/><path d="M8.314 8.15v-.003l-.795-.748.077-.082.746.702.019-.088a.95.95 0 0 0 .263.031v-.152l.165.089c.081.044.198.056.351.031.113-.018.189-.149.213-.428l.05-.563.168.539c.076.244.192.352.358.352s.226-.059.234-.209l.02-.423.191.378c.069.136.164.198.299.198.194 0 .323-.161.323-.414h.004.22.004c0 .253.129.414.323.414.135 0 .23-.062.299-.198l.191-.378.02.423c.007.149.072.209.234.209s.282-.108.358-.352l.168-.539.05.563c.025.279.101.41.213.428.153.025.27.013.351-.031l.165-.089v.152a.95.95 0 0 0 .263-.031l.035.163.825-.777.077.082-1.027.967c-.15.276-.225.458-.225.534 0 .115-.3.184-.887.254a14.44 14.44 0 0 1-1.445.098v.001h-.056-.056v-.001a14.44 14.44 0 0 1-1.445-.098c-.586-.07-.887-.139-.887-.254 0-.014-.003-.032-.008-.054-.059-.075-.101-.198-.128-.31l-.089-.17-.228-.214-.006-.001zm5.505.018c-.183.032-.316.029-.386-.028a.88.88 0 0 1-.386.011c-.157-.026-.267-.13-.333-.304-.086.11-.195.177-.325.199a10.1 10.1 0 0 1 1.219.245s-.012.106-.042.231l.113-.218.011-.014.13-.122zm-1.768-.164a.36.36 0 0 1-.148-.134.5.5 0 0 1-.182.103l.33.031zm-.725-.053c-.087-.04-.16-.105-.214-.188-.054.082-.126.146-.212.187l.154-.003h0 .045.045 0l.182.004zm-2.704.331l-.104-.098c.125.012.218.001.273-.044a.88.88 0 0 0 .386.011c.157-.026.267-.13.333-.304.084.106.188.173.314.197-.618.087-1.079.205-1.201.238zm1.875-.311L10.18 8a.36.36 0 0 0 .141-.13.5.5 0 0 0 .177.101zm2.755.93c.078.037.141 0 .191-.07-.004.019-.007.037-.008.053-.007.004-.017.009-.03.015-.037.016-.093.032-.167.049a6.13 6.13 0 0 1-.592.095c-.475.057-1.039.094-1.488.097a14.19 14.19 0 0 1-1.488-.097l-.592-.095-.147-.041c.257-.12 1.875-.227 2.166-.246l2.154.24zm.308-.02l-.001.001.001-.001h.001-.001z" class="B D"/><path d="M11.112 5.347c.186 0 .336-.15.336-.336s-.15-.336-.336-.336-.336.15-.336.336.15.336.336.336z" class="B G"/><path d="M10.894 6.997a.44.44 0 0 0 .032.102c-.043-.017-.095-.026-.15-.026-.155 0-.28.075-.28.168s.125.168.28.168.28-.075.28-.168c0 .093.125.168.28.168s.28-.075.28-.168-.125-.168-.28-.168a.48.48 0 0 0-.11.013c.008-.046.008-.099-.003-.153-.029-.152-.127-.261-.218-.243s-.141.155-.111.307zm.162.244v-.005h0v.005zm-1.81-.03a.51.51 0 0 1-.033-.102c-.029-.152.02-.289.111-.307s.189.091.218.243c.011.055.011.107.003.153a.43.43 0 0 1 .11-.013c.155 0 .28.075.28.168s-.125.168-.28.168-.28-.075-.28-.168v-.005h0v.005c0 .093-.125.168-.28.168s-.28-.075-.28-.168.125-.168.28-.168c.055 0 .107.01.15.026zm3.508.102c-.013.092-.147.149-.301.127s-.267-.113-.254-.205.147-.149.301-.127a.42.42 0 0 1 .145.047.44.44 0 0 1-.018-.105c-.008-.154.06-.284.153-.288s.174.116.182.271c.003.055-.004.108-.018.152a.46.46 0 0 1 .111.002c.153.022.267.113.254.205s-.148.149-.301.127-.267-.113-.254-.205zm0 0l.001-.005h0l-.001.005zm1.066.444c.137.073.283.065.326-.017l.002-.005c.014.014.029.025.048.03.089.027.197-.071.242-.219s.01-.29-.079-.317-.197.071-.242.219c-.011.036-.017.072-.019.105a.43.43 0 0 0-.12-.094c-.137-.073-.283-.065-.326.017s.032.207.168.28zm-5.495.034c-.137.073-.283.065-.326-.017-.016.01-.032.02-.05.026-.089.027-.197-.071-.243-.219s-.01-.29.079-.317.197.071.243.219c.011.036.017.072.019.105.031-.035.072-.068.12-.094.137-.073.283-.065.326.017s-.032.207-.168.28zm2.662-3.714h.233v.147h.152v.233h-.152v.467h.152v.233h-.541v-.233h.155v-.467h-.155v-.233h.155v-.147z" class="B D"/><path d="M10.944 5.344h.448V6.8h-.448z" class="D"/><path d="M9.141 5.588l-.002.112c-.993-.017-1.563.128-1.707.416-.149.299-.122.662.088 1.093l-.101.049c-.224-.46-.254-.859-.087-1.192.172-.343.774-.496 1.809-.478z" class="C"/><path d="M9.333 6.581l-.057.096c-.216-.129-.325-.35-.325-.653 0-.436.225-.692.722-.868.317-.112.751-.066 1.302.134l-.038.105c-.529-.192-.938-.235-1.227-.133-.456.161-.647.378-.647.762 0 .267.09.45.27.557z" class="C"/><path d="M7.66 7.037l-.211.074c-.219-.624-.157-1.048.218-1.231.33-.161.811-.227 1.446-.201l-.009.224c-.601-.024-1.048.037-1.339.179-.246.12-.291.425-.105.956z" class="D"/><path d="M10.129 5.439c-.512 0-.722.125-.843.493-.077.235-.002.435.238.622l-.137.177c-.312-.242-.422-.539-.314-.868.153-.469.454-.648 1.056-.648.395 0 .702.104.916.315l.033.033v1.08h-.224v-.984c-.167-.145-.407-.219-.725-.219z" class="D"/><path d="M13.049 5.7l.002.112c.993-.017 1.563.128 1.707.416.149.299.122.662-.088 1.093l.101.049c.223-.46.254-.859.087-1.192-.172-.343-.774-.496-1.809-.478z" class="C"/><path d="M12.698 6.604l.057.096c.216-.129.324-.35.324-.653 0-.436-.225-.692-.722-.868-.317-.112-.751-.066-1.302.134l.038.105c.529-.192.938-.235 1.227-.133.456.161.647.378.647.762 0 .267-.09.45-.27.557z" class="C"/><path d="M14.599 7.149l.211.074c.219-.624.157-1.048-.218-1.231-.33-.161-.811-.227-1.446-.201l.009.224c.601-.024 1.048.037 1.339.179.246.12.291.425.105.956z" class="D"/><path d="M12.117 5.456c.512 0 .723.125.843.493.077.235.002.435-.239.622l.137.177c.312-.242.422-.539.314-.868-.153-.469-.454-.648-1.056-.648-.395 0-.702.104-.916.315l-.033.033v1.08h.224v-.984c.167-.145.407-.219.725-.219z" class="D"/><path opacity=".3" d="M7.472 9.264h7.28v6.541S14.211 18 11.112 18s-3.64-2.253-3.64-2.253V9.264z" fill="#e1e5e8" class="B"/><mask id="D" maskUnits="userSpaceOnUse" x="7" y="9" width="8" height="9"><path d="M7.472 9.264h7.28v6.541S14.211 18 11.112 18s-3.64-2.253-3.64-2.253V9.264z" class="B C"/></mask><g mask="url(#D)"><path d="M7.472 13.296h3.696v4.368H7.472z" class="H"/><path d="M7.92 13.52h.448v4.144H7.92z" class="E"/><use href="#G" class="E"/><path d="M8.704 13.52h.448v4.144h-.448zm1.568 0h.448v4.144h-.448zm-2.8-4.368h3.696v4.256H7.472z" class="E"/><path d="M11.056 13.184h3.696v4.256h-3.696z" class="E"/><path d="M11.056 9.264h3.92v4.144h-3.92z" class="F"/><path d="M9.04 9.6h.336v.929H9.6v-.465h.336v.465h.336v.581h-.336v1.045h.336v.581H8.256v-.581h.336V11.11h-.336v-.581h.224v-.465h.336v.465h.224V9.6z" class="B D"/><path d="M12.979 9.795l.229-.246.482.45-.229.246-.482-.45z" class="D"/><path d="M14.36 16.14v-2.452h-2.8v2.432l.004.019c.142.604.624.909 1.396.909s1.253-.298 1.395-.888l.005-.019zm-1.4.572c-.619 0-.957-.208-1.064-.632v-2.056h2.128v2.075c-.107.41-.445.613-1.064.613z" class="B H"/><path d="M13.076 13.893h-.233v1.112l-.92-1-.165.152.832.905h-.754v.336h.579.193l-.85.925.165.152.92-1v1.299h.233v-1.182l.812.883.165-.152-.85-.925h.949v-.336h-.931l.832-.905-.165-.152-.812.883v-.995z" class="B H"/><path d="M13.483 17.443s-2.372.187-2.372-1.343c0 0-.023 1.343-2.5 1.343v1.208h4.872v-1.208z" class="B F"/><path d="M11.112 14.192c.464 0 .84-.401.84-.896s-.376-.896-.84-.896-.84.401-.84.896.376.896.84.896z" stroke="#ad1619" stroke-width="1.167" class="B G"/></g></g></g><defs><clipPath id="E"><path d="M0 0h32v24H0z" class="C"/></clipPath><path id="F" d="M4.56 16.992h2.016v.896s-.252-.112-.504-.112-.504.112-.504.112-.252-.112-.504-.112-.504.112-.504.112v-.896z"/><path id="G" d="M9.488 13.52h.448v4.144h-.448z"/></defs></svg>
