<svg xmlns="http://www.w3.org/2000/svg" viewBox="0 0 32 24" fill="none"><style><![CDATA[.B{fill-rule:evenodd}]]></style><g clip-path="url(#B)"><path fill="#fff" d="M0 0h32v24H0z"/><path d="M0 0V24H32V0H0Z" fill="#feca00" class="B"/><mask id="A" maskUnits="userSpaceOnUse" x="0" y="0" width="32" height="24"><path d="M0 0V24H32V0H0Z" fill="#fff" class="B"/></mask><g mask="url(#A)"><path d="M0 0V8H32V0H0Z" fill="#5eaa22" class="B"/><path d="M0 16v8h32v-8H0z" fill="#e31d1c" class="B"/><path d="M16 18a6 6 0 1 0 0-12 6 6 0 1 0 0 12z" fill="#2b77b8" class="B"/><path d="M16 14l-2.762.927.86-2.309-1.873-2.236h2.6L16 8l1.176 2.382h2.657l-1.931 2.236.685 2.309L16 14z" stroke="#feca00" stroke-width="1.5"/><path d="M15.696 12.035l-2.085 4.36m1.757-4.915h-4m4.754 1.358l3.909 1.804m-3.064-2.768l2.83-3.097" stroke="#2b77b8"/></g></g><defs><clipPath id="B"><path fill="#fff" d="M0 0h32v24H0z"/></clipPath></defs></svg>
