<svg xmlns="http://www.w3.org/2000/svg" viewBox="0 0 32 24" fill="none"><style><![CDATA[.B{fill-rule:evenodd}.C{fill:#f7fcff}.D{stroke:#964c36}.E{fill:#c3352c}.F{stroke:#2a8e51}]]></style><g clip-path="url(#B)"><path fill="#fff" d="M0 0h32v24H0z"/><path d="M0 0V24H32V0H0Z" fill="#67bfe5" class="B"/><g clip-path="url(#C)"><path fill="#2e42a5" d="M0 0h18v14H0z"/><path d="M-2.004 13l3.961 1.737L18.09 1.889l2.089-2.582-4.236-.581-6.58 5.537-5.296 3.73L-2.004 13z" class="C"/><path d="M-1.462 14.217l2.018 1.008L19.429-.933h-2.833l-18.058 15.15z" fill="#f50100"/><path d="M20.004 13l-3.961 1.737L-.09 1.889-2.179-.693l4.236-.581 6.58 5.537 5.296 3.73L20.004 13z" class="C"/><g fill="#f50100"><path d="M19.869 13.873l-2.018 1.008-8.036-6.918-2.383-.773L-2.38-.684H.453l9.807 7.688 2.605.927 7.004 5.943z"/><g class="B"><path d="M9.985 0h-2v6H0v2h7.985v6h2V8H18V6H9.985V0z"/></g></g><path d="M6.485 0h5v4.5H18v5h-6.515L11.5 14h-5l-.015-4.5H0v-5h6.485V0zm1.5 6H0v2h7.985v6h2V8H18V6H9.985V0h-2v6z" class="B C"/></g><path d="M20 10h9.655v8.333S28.846 22 24.828 22 20 18.333 20 18.333V10z" class="B C"/><mask id="A" maskUnits="userSpaceOnUse" x="20" y="10" width="10" height="12"><path d="M20 10h9.655v8.333S28.846 22 24.828 22 20 18.333 20 18.333V10z" fill="#fff" class="B"/></mask><g mask="url(#A)"><path d="M20 10h9.655v3H20z" class="E"/><path d="M24.138 12.667h1.379V22h-1.379z" class="E"/><path d="M20 16.333h9.655v1.333H20z" class="E"/><path d="M22.541 20.737c.58.821 1.054 1.141 1.388.657.235-.34.259-.68-.076-.746l-.41-.574.011-.011c.094-.091.097-.213.079-.258-.007-.062.04-.146.341-.377.273-.209.395-.406.215-.622-.094-.114-.179-.137-.446-.178l-.082-.013-.173-.036-.186-.356a2.29 2.29 0 0 0-1.022.196l-.303.129-.122.05c.012-.01.025-.021.006-.021a2.97 2.97 0 0 1-.355-.034l-.041-.005c-.604-.076-.755-.073-.852.208-.149.427.732 1.211 1.2 1.305.234.047.515.271.826.686zm.656-.589a.54.54 0 0 0 .139-.013l.012-.026c-.031.021-.079.038-.151.038zm-2.203-1.18c-.012-.014-.016-.033-.007-.058-.002.005.004.016.016.032a.67.67 0 0 0 .051.058c-.027-.008-.048-.018-.06-.032zm.819.593c-.168-.034-.594-.389-.76-.561.043.012.103.018.166.025l.085.009.041.005.418.038c.058 0 .046.02.039.032 0 .014.046-.005.274-.102h0 0l.301-.127c.177-.075.339-.123.516-.145a.39.39 0 0 0 .148.221c.106.082.227.117.434.151-.257.212-.386.389-.427.561-.231.073-.21.334-.071.594.097.182.28.439.552.779l.195.094c-.058 0-.09-.026-.114-.046-.031-.025-.049-.041-.091.02-.003.004-.185-.119-.573-.668-.382-.509-.753-.805-1.131-.882zm1.219.3l.003-.011-.003.011zm.16-.212h-.015.007zm.004 0h0z" fill="#979797" class="B"/><path d="M21.655 16.11s-.477-.66-.477-.895" class="D"/><path d="M21.359 15.543s-.61-.261-.61 0m.6-.274s-.429-.546-.752-.546-.315.273-.315.273m.822-.274s-.191-.893-.498-.893-.307.446-.307.446m.882.445s-.085-.765.309-.765" class="F"/><path d="M22.261 15.981s-.223-.783-.142-1.005" class="D"/><path d="M22.177 15.347s-.484-.453-.573-.209m.657-.052s-.216-.66-.52-.77-.389.149-.389.149m.866.023s.125-.904-.163-1.009-.441.315-.441.315m.677.719s.181-.748.552-.613" class="F"/><path d="M22.752 16.26s.316-.75.263-.98" stroke-width=".7" class="D"/><path d="M22.913 15.641s.536-.391.594-.137m-.646-.132s.295-.628.61-.701.368.195.368.195m-.862-.082s-.014-.913.284-.982.399.366.399.366m-.759.631s-.089-.765-.474-.676m4.271 1.679s.242-1.113.931-1.113.997 1.176.997 1.176m-2.497-.823s.371-.658 1.595-.604 1.447.604 1.447.604m-3.289-.837s.672-.833 1.614-.127l.319.127s.32-.944 1.866 0" stroke-width=".7" class="F"/><path d="M27.738 16.037s.049-1.039.214-1.325m1.147 3.602s-.618-.291-.803 0-2.413 2.962-2.413 2.962" class="D"/><path d="M26.964 18.595l1.381.965s.636-.453.318-.709-1.184-.707-1.184-.707l-.515.451z" fill="#fff203" class="B"/><path d="M26.917 18.645s-.32.335-.32.591-.298.942-.298.942.832.512 1.005.186 1.295-.131 1.098-.63-1.485-1.089-1.485-1.089z" fill="#00a651" class="B"/><path d="M21.056 11.182s.737-.378 1.102 0 .664-.031.664-.26.579-1.012.579-.376-.18.995.329.995 2.803-.878 3.353-.618.971.195.831-.177-.499-.605-1.191-.402-.529.402-1.127.402-1.264-.199-1.264-.199.187-.334.87-.096 1.624-.294 1.881-.294.961-.016 1.031.187.495.39.171.579-.859.308-.491.551 1.215.196 1.255.449.442.63.281.63-.452.356-.723.247-.303-.203-.043-.291.257-.457.043-.457-.11.129-.598 0-1.134-.273-1.095 0 .357.692-.23.748-.86.28-.975.099-.522-.421-.201-.498.627.262.742.207.377-.086.158-.321-.581-.373-.245-.549.071-.179-.568.185-.994.673-1.554.63-.771.015-.951-.044-1.058.652-1.31.472-1.068-.25-.921-.472.344-.336.564-.222.438.229.586.114.576-.506.468-.585-.003-.342-.613-.342-.823.294-.968.109.158-.4.158-.4z" fill="#ffd100" class="B"/></g></g><defs><clipPath id="B"><path fill="#fff" d="M0 0h32v24H0z"/></clipPath><clipPath id="C"><path fill="#fff" d="M0 0h18v14H0z"/></clipPath></defs></svg>
