<svg xmlns="http://www.w3.org/2000/svg" viewBox="0 0 32 24" fill="none"><g clip-path="url(#B)"><path fill="#fff" d="M0 0h32v24H0z"/><path fill-rule="evenodd" d="M0 0V24H32V0H0Z" fill="#63b3e1"/><mask id="A" maskUnits="userSpaceOnUse" x="0" y="0" width="32" height="24"><path fill-rule="evenodd" d="M0 0V24H32V0H0Z" fill="#fff"/></mask><g mask="url(#A)"><path fill-rule="evenodd" d="M16 7.3l-1.763.927.337-1.964-1.427-1.391 1.971-.286L16 2.8l.882 1.786 1.972.286-1.427 1.391.337 1.964L16 7.3zm0 12l-1.763.927.337-1.963-1.426-1.391 1.971-.286L16 14.8l.882 1.787 1.972.286-1.427 1.391.337 1.963L16 19.3zm-6.2-5.8l-1.763.927.337-1.964-1.427-1.391 1.971-.286L9.8 9l.882 1.787 1.972.286-1.427 1.391.337 1.964L9.8 13.5zm12.2 0l-1.763.927.337-1.964-1.427-1.391 1.972-.286L22 9l.882 1.787 1.972.286-1.427 1.391.337 1.964L22 13.5z" fill="#f7fcff"/></g></g><defs><clipPath id="B"><path fill="#fff" d="M0 0h32v24H0z"/></clipPath></defs></svg>
