<svg xmlns="http://www.w3.org/2000/svg" viewBox="0 0 32 24" fill="none"><g clip-path="url(#C)"><path fill="#fff" d="M0 0h32v24H0z"/><path fill-rule="evenodd" d="M0 0V24H32V0H0Z" fill="#2e42a5"/><mask id="A" maskUnits="userSpaceOnUse" x="0" y="0" width="32" height="24"><path fill-rule="evenodd" d="M0 0V24H32V0H0Z" fill="#fff"/></mask><g mask="url(#A)"><path d="M-3.563 22.285l7.042 2.978L32.16 3.238l3.714-4.425-7.53-.995-11.698 9.491-9.416 6.395-10.793 8.582z" fill="#fff"/><path d="M-2.599 24.372L.988 26.1 34.54-1.599h-5.037L-2.599 24.372z" fill="#f50100"/><path d="M35.563 22.285l-7.042 2.978L-.16 3.238-3.874-1.188l7.53-.995 11.698 9.491 9.416 6.395 10.793 8.582z" fill="#fff"/><path d="M35.323 23.783l-3.587 1.728-14.287-11.859-4.236-1.325L-4.232-1.172H.806L18.24 12.006l4.631 1.589 12.452 10.188z" fill="#f50100"/><mask id="B" fill="#fff"><path fill-rule="evenodd" d="M19.778-2h-7.555V8H-1.973v8h14.195v10h7.555V16h14.25V8h-14.25V-2z"/></mask><path fill-rule="evenodd" d="M19.778-2h-7.555V8H-1.973v8h14.195v10h7.555V16h14.25V8h-14.25V-2z" fill="#f50100"/><path d="M12.222-2v-2h-2v2h2zm7.555 0h2v-2h-2v2zM12.222 8v2h2V8h-2zM-1.973 8V6h-2v2h2zm0 8h-2v2h2v-2zm14.195 0h2v-2h-2v2zm0 10h-2v2h2v-2zm7.555 0v2h2v-2h-2zm0-10v-2h-2v2h2zm14.25 0v2h2v-2h-2zm0-8h2V6h-2v2zm-14.25 0h-2v2h2V8zm-7.555-8h7.555v-4h-7.555v4zm2 8V-2h-4V8h4zm-16.195 2h14.195V6H-1.973v4zm2 6V8h-4v8h4zm12.195-2H-1.973v4h14.195v-4zm2 12V16h-4v10h4zm5.555-2h-7.555v4h7.555v-4zm-2-8v10h4V16h-4zm16.25-2h-14.25v4h14.25v-4zm-2-6v8h4V8h-4zm-12.25 2h14.25V6h-14.25v4zm-2-12V8h4V-2h-4z" fill="#fff" mask="url(#B)"/></g></g><defs><clipPath id="C"><path fill="#fff" d="M0 0h32v24H0z"/></clipPath></defs></svg>
