<svg xmlns="http://www.w3.org/2000/svg" viewBox="0 0 32 24" fill="none"><style><![CDATA[.B{fill-rule:evenodd}]]></style><g clip-path="url(#C)"><path fill="#fff" d="M0 0h32v24H0z"/><path d="M0 0V24H32V0H0Z" fill="#5daa22" class="B"/><mask id="A" maskUnits="userSpaceOnUse" x="0" y="0" width="32" height="24"><path d="M0 0V24H32V0H0Z" fill="#fff" class="B"/></mask><g mask="url(#A)"><path d="M0 0V12H32V0H0Z" fill="#f7fcff" class="B"/><mask id="B" maskUnits="userSpaceOnUse" x="2" y="2" width="28" height="20" fill="#000"><path fill="#fff" d="M2 2h28v20H2z"/><path d="M14.692 8.907c-.018-.569-.035-1.118.668-1.773C17.193 5.506 19.057 4.228 21.14 3c-.422.752-.724 2.15.384 2.239.355.006 4.25-1.742 4.25-1.742-1.354 1.054-2.912 2.524-1.103 3.161-1.66.551-3.037 2.341-1.831 3.783-.861-.262-1.992.331-2.196.999.212-.002.587.031 1.045.072 1.659.146 4.418.389 4.556-.565-.894.465-2.443.276-2.49-1.06.012-1.146 1.626-1.79 3.001-.931l.21-.463.213-.469-.181.025c-.433.06-.84.117-1.297.003 1.058-1.07 2.053-2.124 2.955-3.311-.198 1.48-.001 3.625.344 4.326-.418-.16-.884-.537-1.114-1.031l-.244.81-.244.81c.788 1.706-.056 4.237-.501 5.572l-.239.839c-.362.145-.627-.081-.892-.307-.132-.113-.265-.226-.409-.292.228.631.066 1.629-.075 2.501l-.129.904c-.037.385.122.655.2.787l.037.068c.215.089.714.333.749.367 0 0 .453.022.578.699-.302-.391-.714-.267-.714-.267l-.076.054-.08.057-.364-.232c-.402-.285-.811-.271-1.249-.068a.63.63 0 0 1-.667.023c-.223-.258-.682-.076-.774-.039-.027.006-.588.406-.588.406l-.146-.033h-.001c-.022 0-.372-.004-.832.31.123-.678.583-.666.583-.666-.028-.095.005-.115.039-.136.017-.01.034-.021.043-.041.101-.119.277-.145.453-.171l.255-.051c-.187-.067-.542-.163-.793-.138a.48.48 0 0 0-.233.083c-.078.049-.133.083-.326-.011l.009-.029.011-.038c-.296-.027-.528-.04-.697.255-.015-.434.284-.558.527-.657l.098-.041c.113-.187.609-.18.593-.166-.044-.071-.153-.194-.227-.278l-.075-.088c0-.011-.384-.259-.655.023.053-.589.923-.597 1.009-.51l.255.266.255.266.235.159.243.164c.263.124.944.024 1.288-.367.201-.229.206-.657.208-.874l.002-.09c.016-.3-.001-.64-.015-.926-.016-.326-.029-.582.015-.627-.23-.087-.353-.297-.407-.389-.016-.027-.026-.044-.031-.044-.125.027-1.119.243-2.101-.044-.776-.227-1.559-.682-2.034-.958l-.442-.228c-.134.234-.198.288-.324.394l-.207.183c-.296.328-.191.882.041 1.143l1.093.444c.832.051 1.031.56 1.019 1.054l-1.017-.37-.106-.04c-.672 1.155-1.626 1.965-2.987 2.34.151.076.451.144.695.2l.366.1c.405.091.69.227.687.632-.271-.322-.535-.314-.749-.155-.288.129-.494-.016-.7-.161-.103-.072-.206-.145-.32-.183-.288-.221-.57-.128-.822.011-.235-.164-.499-.122-.768-.079l-.168.025c-.406.043-.869.153-1.072.399-.103.087-.159.006-.184-.029-.007-.01-.012-.017-.014-.014-.468-.161-.675.276-.675.276-.111-.507.129-.615.384-.687l-.52-.322c-.003-.015-.007-.027-.01-.037-.011-.032-.015-.043.063-.062-.205-.14-.41-.033-.636.187.021-.462.556-.751.781-.598.162-.128.457-.151.675.044.246.198.618.224.864.145a.82.82 0 0 0-.634-.51c-.268-.07-.579-.169-.488-.344-.166-.252-.403-.173-.667.033.095-.572 1.04-.605 1.186-.421.154.044.219.134.285.225.033.045.066.091.11.13.256.279.652.423.978.477.599-.072 1.204-.575 1.587-.894l.327-.249s-.398-.037-.426-.311c-.127-.001-.255-.187-.418-.425-.242-.352-.562-.818-1.07-.962-.891-.252-2.965.535-3.271.651l-.038.014c-.053.503-.428.966-.428.966-.061-.163-.139-.314-.214-.46-.149-.288-.289-.559-.274-.875-.403.558-.694.857-.985 1.154l-.46.49c-.391.428-.591.931-.728 1.487.291.178 1.103.333 1.103.333.355.007.617.216.613.61-.317-.349-.634-.133-.634-.133-.26.23-.59.126-.906 0-.274-.312-.672-.489-1.008-.222-.195.169-.338.133-.504.091-.18-.045-.386-.097-.713.098-.447.434-1.07.474-1.239.21 0 0-.28-.011-.77.166.125-.809.614-.531.614-.531l-.011-.134-.01-.122-.177-.066c-.316-.149-.707-.112-.884.044.121-.53.582-.533.926-.477.045-.053.075-.149.103-.237l.031-.095-.024-.026c-.18-.194-.34-.365-.569-.162.098-.999 1.246-.258 1.588-.037l.057.037c.739.264 2.664-2.757 2.758-2.968-.548-.026-1.163.035-1.593.194-.122.397-.338.605-.593.85l-.129.125c.007-1.141-.5-1.717-1.227-2.543l-.123-.14c-.908-.634-1.31-1.913-1.383-2.33-.139.389-.242.508-.272.543-.211.246-.83.742-.747.423-.279-.07-.036-.318.103-.411.036-.007.094-.113.161-.233.094-.169.203-.367.287-.356l.177-1.74c-.107-.047-.155-.216-.218-.441l-.157-.473c-.194-.462-.555-.963-.706-1.006.482-.089.668.105.797.241.054.057.098.103.15.114.111.071.202.326.303.605.082.229.17.474.279.649-.185-.636-.091-1.065.093-1.62.001-.3-.117-.592-.395-.765.518-.013.763.492.826.623l.016.03c.222.308.13.56.057.761-.049.134-.089.246-.026.337a.62.62 0 0 0 .102-.119c.064-.088.128-.176.242-.159.142-.166.25-.346.239-.72.358.218.271.539.156.853.021.47-.041.599-.333.765-.292.186-.348.34-.313.566.355.405.427 1.653.427 1.653.357.115.487.444.467.711a.69.69 0 0 1 .698.498c.2-.2.48-.013.675.201.069-.111.216-.164.375-.101 0-.196.103-.318.27-.477-.404-.334.02-2.783.313-2.85-.095-.663.973-2.788 1.237-2.829 0-.011-.177-.444-.177-.444s-.847.135-.998.965c-.104-.172-.208-.432-.208-.432l-.748.942c-.292-.189-.161-.654-.161-.654-.141-.165-.171-.36-.202-.555l-.059-.288-.993-.055-.991-.055.27.521c-.282.006-1.658-1.25-1.924-2.318.696.583 1.436.743 2.223.913l.033.007-.315.166-.319.168c2.193.2 4.463-.233 4.453-.244-.245-.545-1.051-.543-1.051-.543l-.034.334-.553.164h-.453c-.102-.555-.593-.565-.593-.565-.385-.053-.713-.012-1.041.028l-.498.049c.638-.853 1.478-.917 2.32-.981l.458-.04c.072-.448.441-.579.874-.643l2.039.11c.261-.367 1.072-.521 1.072-.521.284-.152.729-.176 1.155-.176-.066.504-.695 1.056-.931 1.219-.239.386-.218.426-.127.599l.029.055.239.444c.404.133.699.316.79.599-.438-.056-.756.03-.749.233.006.101.16.164.3.221.067.028.132.054.175.083a1.05 1.05 0 0 1 .347.784c-.107-.006-.226-.067-.345-.129-.237-.122-.474-.245-.624.073-.107.233.012.548.292.654.514.15.561.899.551.899-.134-.062-.853-.398-.801.288-.003.052-.035.09-.073.135-.068.08-.155.182-.126.431l.167 1.088.966-.209.99-.214c.285-.277.413-.736.385-1.23.007-.148.002-.292-.002-.436zm11.478 1.146c-.299-.338-.604-.453-.86-.449-.373.005-.638.266-.613.464.084.653 1.329.426 1.473-.015z" class="B"/></mask><path d="M14.692 8.907c-.018-.569-.035-1.118.668-1.773C17.193 5.506 19.057 4.228 21.14 3c-.422.752-.724 2.15.384 2.239.355.006 4.25-1.742 4.25-1.742-1.354 1.054-2.912 2.524-1.103 3.161-1.66.551-3.037 2.341-1.831 3.783-.861-.262-1.992.331-2.196.999.212-.002.587.031 1.045.072 1.659.146 4.418.389 4.556-.565-.894.465-2.443.276-2.49-1.06.012-1.146 1.626-1.79 3.001-.931l.21-.463.213-.469-.181.025c-.433.06-.84.117-1.297.003 1.058-1.07 2.053-2.124 2.955-3.311-.198 1.48-.001 3.625.344 4.326-.418-.16-.884-.537-1.114-1.031l-.244.81-.244.81c.788 1.706-.056 4.237-.501 5.572l-.239.839c-.362.145-.627-.081-.892-.307-.132-.113-.265-.226-.409-.292.228.631.066 1.629-.075 2.501l-.129.904c-.037.385.122.655.2.787l.037.068c.215.089.714.333.749.367 0 0 .453.022.578.699-.302-.391-.714-.267-.714-.267l-.076.054-.08.057-.364-.232c-.402-.285-.811-.271-1.249-.068a.63.63 0 0 1-.667.023c-.223-.258-.682-.076-.774-.039-.027.006-.588.406-.588.406l-.146-.033h-.001c-.022 0-.372-.004-.832.31.123-.678.583-.666.583-.666-.028-.095.005-.115.039-.136.017-.01.034-.021.043-.041.101-.119.277-.145.453-.171l.255-.051c-.187-.067-.542-.163-.793-.138a.48.48 0 0 0-.233.083c-.078.049-.133.083-.326-.011l.009-.029.011-.038c-.296-.027-.528-.04-.697.255-.015-.434.284-.558.527-.657l.098-.041c.113-.187.609-.18.593-.166-.044-.071-.153-.194-.227-.278l-.075-.088c0-.011-.384-.259-.655.023.053-.589.923-.597 1.009-.51l.255.266.255.266.235.159.243.164c.263.124.944.024 1.288-.367.201-.229.206-.657.208-.874l.002-.09c.016-.3-.001-.64-.015-.926-.016-.326-.029-.582.015-.627-.23-.087-.353-.297-.407-.389-.016-.027-.026-.044-.031-.044-.125.027-1.119.243-2.101-.044-.776-.227-1.559-.682-2.034-.958l-.442-.228c-.134.234-.198.288-.324.394l-.207.183c-.296.328-.191.882.041 1.143l1.093.444c.832.051 1.031.56 1.019 1.054l-1.017-.37-.106-.04c-.672 1.155-1.626 1.965-2.987 2.34.151.076.451.144.695.2l.366.1c.405.091.69.227.687.632-.271-.322-.535-.314-.749-.155-.288.129-.494-.016-.7-.161-.103-.072-.206-.145-.32-.183-.288-.221-.57-.128-.822.011-.235-.164-.499-.122-.768-.079l-.168.025c-.406.043-.869.153-1.072.399-.103.087-.159.006-.184-.029-.007-.01-.012-.017-.014-.014-.468-.161-.675.276-.675.276-.111-.507.129-.615.384-.687l-.52-.322c-.003-.015-.007-.027-.01-.037-.011-.032-.015-.043.063-.062-.205-.14-.41-.033-.636.187.021-.462.556-.751.781-.598.162-.128.457-.151.675.044.246.198.618.224.864.145a.82.82 0 0 0-.634-.51c-.268-.07-.579-.169-.488-.344-.166-.252-.403-.173-.667.033.095-.572 1.04-.605 1.186-.421.154.044.219.134.285.225.033.045.066.091.11.13.256.279.652.423.978.477.599-.072 1.204-.575 1.587-.894l.327-.249s-.398-.037-.426-.311c-.127-.001-.255-.187-.418-.425-.242-.352-.562-.818-1.07-.962-.891-.252-2.965.535-3.271.651l-.038.014c-.053.503-.428.966-.428.966-.061-.163-.139-.314-.214-.46-.149-.288-.289-.559-.274-.875-.403.558-.694.857-.985 1.154l-.46.49c-.391.428-.591.931-.728 1.487.291.178 1.103.333 1.103.333.355.007.617.216.613.61-.317-.349-.634-.133-.634-.133-.26.23-.59.126-.906 0-.274-.312-.672-.489-1.008-.222-.195.169-.338.133-.504.091-.18-.045-.386-.097-.713.098-.447.434-1.07.474-1.239.21 0 0-.28-.011-.77.166.125-.809.614-.531.614-.531l-.011-.134-.01-.122-.177-.066c-.316-.149-.707-.112-.884.044.121-.53.582-.533.926-.477.045-.053.075-.149.103-.237l.031-.095-.024-.026c-.18-.194-.34-.365-.569-.162.098-.999 1.246-.258 1.588-.037l.057.037c.739.264 2.664-2.757 2.758-2.968-.548-.026-1.163.035-1.593.194-.122.397-.338.605-.593.85l-.129.125c.007-1.141-.5-1.717-1.227-2.543l-.123-.14c-.908-.634-1.31-1.913-1.383-2.33-.139.389-.242.508-.272.543-.211.246-.83.742-.747.423-.279-.07-.036-.318.103-.411.036-.007.094-.113.161-.233.094-.169.203-.367.287-.356l.177-1.74c-.107-.047-.155-.216-.218-.441l-.157-.473c-.194-.462-.555-.963-.706-1.006.482-.089.668.105.797.241.054.057.098.103.15.114.111.071.202.326.303.605.082.229.17.474.279.649-.185-.636-.091-1.065.093-1.62.001-.3-.117-.592-.395-.765.518-.013.763.492.826.623l.016.03c.222.308.13.56.057.761-.049.134-.089.246-.026.337a.62.62 0 0 0 .102-.119c.064-.088.128-.176.242-.159.142-.166.25-.346.239-.72.358.218.271.539.156.853.021.47-.041.599-.333.765-.292.186-.348.34-.313.566.355.405.427 1.653.427 1.653.357.115.487.444.467.711a.69.69 0 0 1 .698.498c.2-.2.48-.013.675.201.069-.111.216-.164.375-.101 0-.196.103-.318.27-.477-.404-.334.02-2.783.313-2.85-.095-.663.973-2.788 1.237-2.829 0-.011-.177-.444-.177-.444s-.847.135-.998.965c-.104-.172-.208-.432-.208-.432l-.748.942c-.292-.189-.161-.654-.161-.654-.141-.165-.171-.36-.202-.555l-.059-.288-.993-.055-.991-.055.27.521c-.282.006-1.658-1.25-1.924-2.318.696.583 1.436.743 2.223.913l.033.007-.315.166-.319.168c2.193.2 4.463-.233 4.453-.244-.245-.545-1.051-.543-1.051-.543l-.034.334-.553.164h-.453c-.102-.555-.593-.565-.593-.565-.385-.053-.713-.012-1.041.028l-.498.049c.638-.853 1.478-.917 2.32-.981l.458-.04c.072-.448.441-.579.874-.643l2.039.11c.261-.367 1.072-.521 1.072-.521.284-.152.729-.176 1.155-.176-.066.504-.695 1.056-.931 1.219-.239.386-.218.426-.127.599l.029.055.239.444c.404.133.699.316.79.599-.438-.056-.756.03-.749.233.006.101.16.164.3.221.067.028.132.054.175.083a1.05 1.05 0 0 1 .347.784c-.107-.006-.226-.067-.345-.129-.237-.122-.474-.245-.624.073-.107.233.012.548.292.654.514.15.561.899.551.899-.134-.062-.853-.398-.801.288-.003.052-.035.09-.073.135-.068.08-.155.182-.126.431l.167 1.088.966-.209.99-.214c.285-.277.413-.736.385-1.23.007-.148.002-.292-.002-.436zm11.478 1.146c-.299-.338-.604-.453-.86-.449-.373.005-.638.266-.613.464.084.653 1.329.426 1.473-.015z" fill="#d21034" class="B"/><path d="M15.36 7.135l-.166-.187-.004.004.17.183zm-.668 1.773l-.25.008h0l.25-.008zM21.14 3l.218.122.454-.809-.799.471.127.215zm.384 2.239l-.02.249.008.001h.008l.004-.25zm4.25-1.742l.153.197-.256-.425.102.228zm-1.103 3.161l.079.237.694-.23-.69-.243-.083.236zM22.84 10.44l-.073.239.802.244-.538-.643-.192.16zm-2.196.999l-.239-.073-.099.326.34-.003-.002-.25zm1.045.072l-.022.249.022-.249zm4.556-.565l.247.036.07-.483-.433.226.115.222zm-2.49-1.06l-.25-.003v.011l.25-.009zm3.001-.931l-.132.212.241.151.118-.259-.227-.104zm.21-.463l-.228-.103.228.103zm.213-.469l.227.104.188-.411-.448.059.033.248zm-.181.025l.035.248-.035-.248zm-1.297.003l-.178-.176-.309.312.426.106.061-.243zm2.955-3.311l.248.033.126-.939-.573.754.199.151zM29 9.065l-.089.233.595.228-.281-.571-.224.11zm-1.114-1.031l.227-.106-.277-.594-.189.627.239.072zm-.488 1.62l-.239-.072-.027.091.04.086.227-.105zm-.501 5.572l.237.079-.237-.079zm-.239.839l.093.232.157-.063v-.169h-.25zm-.892-.307l.162-.19-.162.19zm-.409-.292l.105-.227-.542-.25.203.562.235-.085zm-.075 2.501l-.247-.04h0l.247.04zm-.129.904l.249.024-.249-.024zm.2.787l.215-.127h0l-.215.127zm.037.068l-.234.089.038.101.1.041.095-.231zm.749.367l-.173.18.068.065.093.005.012-.25zm.578.699l-.198.153.444-.198-.246.045zm-.714-.267l-.072-.239-.039.012-.034.024.145.204zm-.076.054l.146.203h0l-.146-.203zm-.08.057l-.135.211.142.091.137-.098-.145-.204zm-.364-.232l-.145.204.01.006.135-.211zm-1.249-.068l-.105-.227-.015.007-.014.009.135.21zm-.667.023l-.189.163.031.036.042.022.116-.221zm-.774-.039l-.092-.232h0l.092.232zm-.588.406l-.059.243.111.027.093-.066-.145-.204zm-.146-.033l-.002.25h.002v-.25zm-.001 0l-.003.25h0l.002-.25zm-.832.31l-.246-.045-.107.588.494-.337-.141-.206zm.583-.666l-.007.25.346.01-.1-.331-.239.072zm.039-.136l.131.213h0l-.131-.213zm.043-.041l-.191-.161-.021.025-.014.03.226.106zm.453-.171l-.037-.247h0l.037.247zm.255-.051l.075.238.711-.223-.701-.251-.084.235zm-.793-.138l-.024-.249h0l.024.249zm-.233.083l.132.212h0l-.132-.212zm-.326-.011l-.239-.075-.064.206.194.094.109-.225zm.009-.029l.24.071h0l-.24-.071zm.011-.038l.239.075.092-.295-.308-.029-.023.249zm-.697.255l-.25.009.03.878.437-.762-.217-.124zm.527-.657l-.095-.231.095.231zm.098-.041l.103.228.071-.032.04-.066-.214-.13zm.593-.166l-.212.133.157.251.221-.197-.166-.187zm-.227-.278l-.188.165.188-.165zm-.73-.066l-.249-.022-.063.707.492-.511-.18-.173zm1.009-.51l.181-.173-.004-.004-.177.177zm.51.531l-.181.173.019.02.022.015.14-.207zm.235.159l.14-.207h0l-.14.207zm.243.164l-.139.207.016.011.017.008.106-.226zm1.288-.367l-.188-.165h0l.188.165zm.208-.874l.25.003h0l-.25-.003zm.002-.09l-.25-.013h0l.25.013zm-.015-.926l-.25.012.25-.012zm.015-.627l.18.174.264-.274-.356-.134-.088.234zm-.407-.389l-.216.126h0l.216-.126zm-.031-.044v-.25h-.027l-.027.006.053.244zm-2.101-.044l.07-.24-.07.24zm-2.034-.958l.126-.216h0l-.126.216zm-.442-.228l-.024-.249-.129.012-.064.113.217.124zm-.324.394l.161.192h0l-.161-.192zm-.207.183l-.172-.181-.007.007-.007.007.186.167zm.041 1.143l-.187.166.039.044.054.022.094-.232zm1.093.444l-.094.232.038.015.041.003.015-.25zm1.019 1.054l-.076.238.318.102.008-.334-.25-.006zm-1.017-.37l.089-.234h0l-.089.234zm-.106-.04l.088-.234-.198-.075-.107.183.216.126zm-2.987 2.34l-.066-.241-.626.173.581.292.112-.223zm.695.2l-.056.244h0l.056-.244zm.366.1l-.134.211.037.023.042.009.055-.244zm.687.632l-.191.161.436.518.006-.677-.25-.002zm-.749-.155l.102.228.025-.011.022-.016-.148-.201zm-.7-.161l-.144.205h0l.144-.205zm-.32-.183l-.152.198.033.025.039.013.08-.237zm-.822.011l-.143.205.127.089.136-.075-.12-.219zm-.768-.079l-.039-.247h0l.039.247zm-.168.025l.026.249.005-.001-.032-.248zm-1.072.399l.161.191.017-.015.014-.018-.193-.159zm-.184-.029l-.206.142h0l.206-.142zm-.014-.014l-.082.236.153.053.111-.118-.182-.171zm-.675.276l-.244.053.156.715.314-.661-.226-.107zm.384-.687l.068.241.547-.154-.484-.299-.132.213zm-.52-.322l-.246.042.019.111.096.059.131-.213zm-.01-.037l.236-.082h0l-.236.082zm.063-.062l.061.242.538-.136-.458-.313-.141.206zm-.636.187l-.25-.011-.029.633.453-.442-.175-.179zm.781-.598l-.141.207.152.103.144-.113-.155-.196zm.675.044l-.167.187.01.008.157-.195zm.864.145l.077.238.241-.078-.082-.24-.237.08zm-.634-.51l-.063.242.023.006.024.002.016-.25zm-.488-.344l.222.115.067-.13-.081-.122-.209.137zm-.667.033l-.247-.041-.104.632.505-.394-.154-.197zm1.186-.421l-.196.155.05.063.077.022.069-.24zm.285.225l.202-.147-.202.147zm.11.13l.184-.169-.008-.009-.009-.008-.167.186zm.978.477l-.041.247.035.006.035-.004-.03-.248zm1.587-.894l-.16-.192h0l.16.192zm.327-.249l.111.224.787-.391-.875-.082-.023.249zm-.426-.311l.249-.026-.023-.223-.224-.001-.001.25zm-.418-.425l-.206.142.206-.142zm-1.07-.962l.068-.241-.068.241zm-3.271.651l.089.234h0l-.089-.234zm-.038.014v-.25h-.225l-.024.224.249.026zm-.428.966l-.234.087.153.41.275-.34-.194-.157zm-.214-.46l-.222.115.222-.115zm-.274-.875l.25.012.042-.843-.494.684.203.146zm-.985 1.154l.179.175h0l-.179-.175zm-.46.49l.185.169.003-.004-.188-.165zm-.728 1.487l-.243-.06-.044.178.156.096.13-.213zm1.103.333l-.047.246.021.004h.021l.005-.25zm.613.61l-.185.168.429.473.006-.639-.25-.002zm-.634-.133l-.141-.207-.013.009-.012.011.166.187zm-.906 0l-.188.165.039.045.056.022.093-.232zm-1.008-.222l-.156-.196-.008.007.164.189zm-.504.091l.061-.242h0l-.061.242zm-.713.098l-.128-.215-.025.015-.021.02.174.18zm-1.239.21l.211-.135-.07-.11-.131-.005-.009.25zm-.77.166l-.247-.038-.065.416.396-.143-.085-.235zm.614-.531l-.123.217.411.233-.038-.471-.249.02zm-.011-.134l-.249.021h0l.249-.021zm-.01-.122l.249-.02-.013-.158-.148-.056-.088.234zm-.177-.066l-.106.226.009.004.009.003.088-.234zm-.884.044l-.244-.055-.172.756.581-.514-.165-.187zm.926-.477l-.04.247.14.023.091-.108-.191-.161zm.103-.237l-.238-.075h0l.238.075zm.031-.095l.234.087.054-.145-.105-.113-.183.171zm-.024-.026l.183-.17h0l-.183.17zm-.569-.162l-.249-.024-.062.633.477-.421-.166-.187zm1.588-.037l.136-.21h0l-.136.21zm.057.037l-.133.212.023.014.025.009.084-.235zm2.758-2.968l.228.102.149-.334-.365-.018-.012.25zm-1.593.194l-.087-.234-.116.043-.036.118.239.073zm-.593.85l-.173-.18h0l.173.18zm-.129.125l-.25-.002-.004.605.43-.426-.176-.177zm-1.227-2.543l-.188.165h0l.188-.165zm-.123-.14l.188-.165-.02-.023-.025-.017-.143.205zm-1.383-2.33l.246-.043-.163-.933-.318.892.235.084zm-.272.543l-.189-.164h0l.189.164zm-.009.012l.189.163.061-.07v-.093h-.25zm-.738.411l.242.063.063-.244-.244-.061-.061.242zm.103-.411l-.05-.245-.047.01-.04.027.138.208zm.161-.233l.219.121h0l-.219-.121zm.287-.356l-.034.248.256.035.026-.257-.249-.025zm.177-1.74l.249.025.018-.181-.166-.073-.101.229zm-.218-.441l-.241.068.241-.068zm-.157-.473l.23-.097h0l-.23.097zM3 8.499l-.045-.246-.023.486.069-.24zm.797.241l.181-.172h0l-.181.172zm.15.114l.134-.211-.039-.025-.045-.009-.051.245zm.303.605l-.235.084.235-.084zm.279.649l-.212.133.452-.202-.24.07zm.093-1.62l.237.079.013-.038v-.04h-.25zm-.395-.765l-.006-.25-.832.021.706.441.132-.212zm.826.623l.225-.109h0l-.225.109zm.016.03l.203-.146-.009-.013-.011-.012-.183.171zm.057.761l-.235-.086h0l.235.086zm-.026.337l-.205.143.153.22.209-.169-.157-.194zm.102-.119l.202.147h0l-.202-.147zm.242-.159l-.038.247.138.021.091-.106-.19-.163zm.239-.72l.13-.214-.393-.239.013.46.25-.007zm.156.853l-.235-.086-.017.047.002.05.25-.011zm-.333.765l-.124-.218-.01.006.134.211zm-.313.566l-.247.038.011.072.048.055.188-.165zm.427 1.653l-.25.014.01.171.163.052.076-.238zm.467.711l-.249-.019-.022.296.295-.028-.024-.249zm.698.498l-.245.05.093.455.329-.329-.177-.177zm.675.201l-.184.169.223.244.174-.281-.213-.131zm.375-.101l-.092.232.343.136v-.369h-.25zm.27-.477l.172.181.205-.194-.217-.18-.159.193zm.313-2.85l.056.244.224-.051-.032-.228-.248.035zm1.237-2.829l.038.247.212-.033v-.214h-.25zm-.177-.444l.231-.095-.075-.183-.196.031.039.247zm-.998.965l-.214.129.341.564.118-.648-.246-.045zm-.208-.432l.232-.093-.163-.409-.267.35.199.152zm-.748.942l.226-.107-.03-.064-.06-.039-.136.21zm-.161-.654l.241.068.037-.129-.087-.102-.19.163zm-.202-.555l-.247.038.247-.038zm-.059-.288l.239-.074-.052-.168-.175-.008-.012.25zm-.993-.055l.015-.25h0l-.015.25zm-.991-.055l.012-.25-.429-.02.195.383.223-.113zm.27.521h.25v-.255l-.255.005.005.25zM3.469 5.094l.16-.192-.589-.493.186.745.243-.06zm2.223.913l-.053.244h0l.053-.244zm.033.007l.116.221.61-.32-.673-.146-.053.244zm-.315.166l-.116-.221h0l.116.221zm-.319.168l-.116-.221-.75.393.844.077.023-.249zm4.453-.244l-.228.103.017.038.029.031.182-.171zM8.493 5.56l-.001-.25-.225.001-.023.224.249.026zm-.034.334l.071.24.161-.048.017-.167-.249-.026zm-.553.164l.006.25h.033l.032-.009-.071-.24zm-.453 0l-.246.045.006.032.014.029.226-.106zm-.593-.565l-.034.248.014.002h.015l.005-.25zm-1.041.028l.031.248h0l-.031-.248zm-.498.049l-.2-.15-.319.426.531-.027-.013-.25zm2.32-.981l-.019-.249.019.249zm.458-.04l.027.249.19-.02.03-.188-.247-.04zm.874-.643l.014-.25-.025-.001-.025.004.037.247zm2.039.11v.25h.129l.075-.105-.204-.145zm1.072-.521l.046.246.037-.007.034-.018-.118-.221zm1.155-.176l.248.033.037-.283h-.285v.25zm-.931 1.219l-.142-.206-.043.03-.028.044.213.132zm-.127.599l.221-.117h0l-.221.117zm.029.055l-.223.113.003.006.22-.119zm.239.444l-.22.119.047.088.095.031.078-.238zm.79.599l-.032.248.39.05-.121-.375-.238.077zm-.749.233l-.25.009v.006l.25-.014zm.3.221l-.095.231.095-.231zm.175.083l.177-.177-.018-.018-.021-.014-.137.209zm.347.784l-.014.25.275.016-.011-.275-.25.01zm-.345-.129l-.115.222h0l.115-.222zm-.624.073l-.226-.106-.001.002.227.104zm.292.654l-.088.234.009.003.009.003.07-.24zm.535.892l-.106.227h0l.106-.227zm-.785.295l.25.014.001-.017-.001-.017-.249.019zm-.073.135l.19.162h0l-.19-.162zm-.126.431l.248-.03h0l-.248.03zm.167 1.088l-.238.077.07.215.221-.048-.053-.244zm.966-.209l.053.244-.053-.244zm.99-.214l.053.244.07-.015.051-.05-.174-.179zm.385-1.23l-.25-.012v.013.013l.25-.014zm10.616.262l.004.25h0l-.004-.25zm.86.449l.238.077.044-.136-.095-.107-.187.166zm-1.473.015l-.248.032h0l.248-.032zm-9.508-3.117c-.38.354-.579.693-.675 1.034-.093.333-.082.65-.073.93l.5-.016c-.009-.29-.015-.531.054-.779.067-.24.211-.502.534-.803l-.341-.366zm5.824-4.167c-2.093 1.234-3.972 2.521-5.82 4.163l.332.374c1.818-1.615 3.668-2.884 5.742-4.106l-.254-.431zm.531 2.205c-.22-.018-.339-.095-.409-.186-.076-.098-.122-.245-.126-.441-.009-.396.153-.889.35-1.24l-.436-.245c-.225.401-.425.983-.414 1.496.006.259.066.525.232.737.171.22.43.35.764.377l.04-.498zm4.23-1.493l-.102-.228-.043.019-.124.055-.445.198-1.375.599-1.437.596-.518.192-.162.05c-.048.012-.054.01-.039.011l-.008.5a.68.68 0 0 0 .173-.027l.195-.06.541-.201 1.451-.602 1.38-.601.447-.198.125-.056.033-.015c.011-.005.011-.005-.091-.233zm-1.02 2.925c-.421-.148-.579-.322-.629-.462s-.023-.338.128-.601c.305-.53.993-1.134 1.675-1.664L25.62 3.3c-.673.524-1.441 1.182-1.801 1.81-.181.316-.289.673-.165 1.018s.451.596.934.766l.166-.472zm-1.722 3.858c-.523-.626-.493-1.317-.134-1.94.366-.637 1.072-1.186 1.852-1.445l-.158-.475c-.88.292-1.693.913-2.128 1.67-.443.77-.498 1.694.184 2.51l.384-.321zm-2.148 1.232c.073-.24.337-.512.72-.695.377-.18.809-.245 1.164-.137l.145-.478c-.507-.154-1.07-.053-1.525.165-.449.215-.852.573-.982 1.001l.478.146zm.828-.25l-1.069-.073.004.5c.197-.002.556.03 1.021.071l.044-.498zm4.287-.352c-.014.099-.099.213-.374.312-.268.096-.648.149-1.097.169-.895.039-1.982-.056-2.815-.13l-.044.498 2.881.131c.465-.02.905-.076 1.244-.198.333-.119.645-.332.7-.711l-.495-.072zm-2.492-1.015c.014.385.137.702.341.946s.473.4.762.489c.571.177 1.249.099 1.752-.162l-.231-.443c-.391.204-.934.264-1.373.128-.216-.067-.397-.178-.526-.332s-.215-.36-.225-.643l-.5.018zm3.383-1.152c-.749-.467-1.574-.532-2.224-.31s-1.151.745-1.159 1.451l.5.005c.005-.439.315-.811.82-.983s1.172-.13 1.798.261l.265-.424zm-.15-.354l-.209.462.455.208.21-.465-.456-.205zm.213-.471l-.213.471.456.205.212-.468-.455-.208zm.081.376l.179-.024-.065-.496-.182.025.069.495zm-1.393-.002c.511.127.964.062 1.393.002l-.069-.495c-.438.061-.799.109-1.203.008l-.121.485zm2.816-3.705c-.891 1.174-1.877 2.218-2.933 3.286l.356.352c1.06-1.072 2.064-2.135 2.976-3.335l-.398-.302zm.767 4.367c-.072-.146-.144-.386-.206-.702s-.111-.682-.145-1.08c-.067-.796-.066-1.684.03-2.401l-.495-.066c-.102.763-.102 1.688-.033 2.509a10.45 10.45 0 0 0 .152 1.135c.065.329.147.62.248.825l.449-.22zm-1.565-.815c.261.56.78.979 1.251 1.159l.179-.467a1.88 1.88 0 0 1-.977-.903l-.453.211zm.222.776l.244-.81-.479-.145-.244.81.479.144zm-.244.81l.244-.81-.479-.144-.244.81.479.145zm-.503 5.579c.222-.666.55-1.65.722-2.685.171-1.029.194-2.149-.232-3.071l-.454.21c.362.785.358 1.783.192 2.779-.164.991-.48 1.94-.703 2.609l.474.158zm-.226.759l.012-.07.045-.168.169-.521-.474-.158-.174.537c-.04.135-.078.277-.078.381h.5zm-1.304-.117c.126.108.285.246.467.33.197.091.426.121.68.019l-.186-.464a.33.33 0 0 1-.285-.009c-.107-.049-.213-.137-.352-.256l-.325.38zm-.351-.255c.107.049.213.137.351.255l.325-.38c-.126-.108-.285-.246-.467-.329l-.209.454zm.276 2.314l.178-1.364c.03-.447.017-.896-.115-1.262l-.47.17c.096.265.115.63.086 1.058s-.102.88-.173 1.318l.494.08zm-.127.888l.127-.888-.494-.08-.131.92.498.048zm.166.635c-.073-.124-.195-.335-.166-.635l-.498-.048c-.045.469.152.799.233.937l.431-.254zm.055.106c-.015-.04-.044-.087-.055-.106l-.431.254.02.034.466-.181zm.688.275c-.021-.02-.043-.034-.049-.038l-.033-.02-.077-.042-.212-.107-.457-.211-.191.462.428.198.199.1.06.033c.004.002-.004-.004-.015-.014l.346-.361zm.651.834c-.073-.396-.251-.631-.439-.763a.82.82 0 0 0-.244-.117.67.67 0 0 0-.084-.018l-.028-.004c-.017-.001-.017-.001-.029.248l-.013.25a.35.35 0 0 1 .112.051c.07.049.182.163.233.444l.492-.091zm-.96-.222l.072.239.029-.005a.45.45 0 0 1 .112 0c.085.011.2.05.304.185l.396-.306c-.198-.256-.441-.35-.637-.375a.95.95 0 0 0-.238 0l-.073.013-.023.006c-.013.004-.013.004.059.243zm.07.257l.075-.054-.29-.407-.077.055.292.406zm-.081.058l.081-.058-.292-.406-.079.056.29.408zm-.643-.226l.364.233.269-.421-.364-.232-.269.421zm-1.009-.052c.195-.09.367-.131.524-.126a.85.85 0 0 1 .475.171l.289-.408a1.35 1.35 0 0 0-.748-.262c-.257-.008-.508.059-.751.172l.21.454zm-.888.017a.88.88 0 0 0 .918-.034l-.27-.421a.38.38 0 0 1-.416.012l-.232.443zm-.565-.028c.044-.018.156-.061.274-.075.127-.015.189.011.218.045l.378-.327c-.194-.224-.472-.236-.654-.215-.189.022-.354.088-.401.107l.185.465zm-.109.024c.035 0 .062-.008.063-.008l.031-.01-.17-.471.033-.008c.007-.001.023-.004.043-.004v.5zm-.572.15l.145.204.024-.017.064-.045.194-.137.194-.136.063-.043-.034.013c-.006.002-.037.012-.078.012v-.5c-.041 0-.072.011-.078.013a.24.24 0 0 0-.025.01l-.02.01-.043.027-.07.048-.198.139-.195.138-.064.045-.018.013c-.006.005-.006.005.139.208zm-.146.217c-.013 0-.024-.001-.026-.001l.046.011.046.011.02.005c0 0 0 0 .06-.243l.06-.243-.022-.005-.049-.012-.053-.012-.024-.005c-.015-.003-.034-.006-.057-.006v.5zm-.003 0h.001l.004-.5h-.001l-.004.5zm-.688.266c.204-.139.38-.205.501-.237a.96.96 0 0 1 .14-.026l.035-.003.016-.5c-.058-.001-.463.003-.975.353l.282.413zm.442-.872l.006-.25-.046.001a.66.66 0 0 0-.086.012.78.78 0 0 0-.253.103c-.198.124-.379.355-.451.754l.492.089c.051-.279.161-.38.224-.42.036-.022.068-.033.09-.037a.2.2 0 0 1 .022-.003c-.006 0-.006 0 .001-.25zm-.092-.349c-.008.005-.093.05-.138.148s-.03.202-.009.273l.479-.144c-.007-.023.012.02-.016.082-.014.031-.034.051-.046.062s-.018.013-.006.006l-.263-.426zm-.052.066a.18.18 0 0 1 .046-.061l.269.42c.008-.005.093-.05.138-.147l-.453-.212zm.643-.312c-.084.012-.192.028-.293.059a.66.66 0 0 0-.314.198l.382.323c.009-.01.029-.027.082-.043s.124-.028.216-.042l-.073-.495zm.216-.042c-.056.018-.124.028-.216.042l.073.495c.084-.012.192-.028.293-.059l-.15-.477zm-.693.349c.089-.009.212.004.346.031a2.59 2.59 0 0 1 .338.094l.168-.471c-.104-.037-.251-.081-.407-.113s-.332-.054-.494-.039l.049.498zm-.126.046c.026-.016.039-.024.054-.03s.035-.012.072-.016l-.049-.498a.73.73 0 0 0-.341.119l.264.425zm-.567.002a.67.67 0 0 0 .331.084c.119-.007.202-.064.237-.085l-.264-.425c-.044.027-.027.012-.003.011-.017-.006-.042-.015-.081-.034l-.218.45zm-.122-.324l-.008.025.477.149.01-.033-.48-.141zm.012-.042l-.012.042.48.141.01-.034-.477-.149zm-.241.454c.055-.095.102-.119.147-.131.066-.017.154-.014.309 0l.046-.498c-.14-.013-.316-.03-.482.014-.187.049-.34.167-.455.366l.434.248zm.214-1.013c-.114.047-.294.118-.436.253-.158.149-.255.359-.245.645l.5-.017c-.005-.149.04-.218.089-.264.064-.06.154-.101.283-.154l-.19-.462zm.09-.038l-.09.038.19.462.105-.045-.206-.456zm.862.249a.25.25 0 0 0-.001-.376c-.047-.042-.099-.054-.101-.054-.025-.007-.048-.009-.057-.01-.024-.002-.052-.003-.079-.003a1.59 1.59 0 0 0-.213.017c-.079.012-.173.032-.261.068s-.193.095-.262.209l.428.259c-.012.02-.018.012.024-.005.037-.015.087-.027.144-.036a1.1 1.1 0 0 1 .144-.011h.021c-.002-.001-.011-.002-.023-.006-.006-.002-.017-.005-.03-.011s-.037-.017-.065-.041a.25.25 0 0 1-.001-.373l.332.374zm-.581-.3l.203.245.424-.265c-.058-.093-.185-.236-.252-.311l-.375.331zm-.137-.254c0 .062.024.107.025.11.006.014.013.024.016.029l.016.023.023.028.056.064.375-.331-.051-.058c.002.006.008.015.014.027.003.006.008.017.013.032.002.007.005.017.007.029s.005.028.005.047h-.5zm-.225.196c.056-.058.119-.067.196-.05.04.009.076.023.102.036l.022.013c-.01-.008-.019-.015-.029-.026-.005-.005-.015-.017-.026-.034-.006-.009-.014-.023-.022-.042a.25.25 0 0 1-.018-.094h.5c0-.077-.035-.129-.041-.137-.011-.017-.023-.03-.028-.036-.012-.012-.022-.021-.027-.026-.012-.01-.024-.018-.033-.024-.02-.013-.044-.027-.072-.041a.94.94 0 0 0-.222-.079c-.182-.04-.447-.032-.662.192l.36.347zm1.006-.86c-.039-.039-.082-.059-.107-.07a.49.49 0 0 0-.083-.025c-.051-.011-.109-.017-.167-.018-.117-.003-.26.011-.403.05-.277.076-.634.279-.674.727l.498.045c.013-.141.116-.236.309-.29.092-.025.186-.034.258-.033.036.001.061.004.074.007-.004-.002-.03-.012-.058-.041l.354-.353zm.258.269l-.255-.265-.361.346.255.266.361-.346zm.255.266l-.255-.266-.361.346.255.265.361-.346zm.195.125l-.236-.159-.279.415.235.158.28-.414zm.243.164l-.243-.164-.28.414.244.165.279-.415zm.961-.324c-.127.145-.331.248-.544.298a1.18 1.18 0 0 1-.288.034.44.44 0 0 1-.162-.026l-.213.452c.11.052.241.071.366.074a1.68 1.68 0 0 0 .412-.047c.279-.066.588-.208.804-.455l-.375-.33zm.146-.712c-.001.11-.003.253-.026.395-.024.147-.066.255-.12.317l.375.33c.147-.167.209-.388.238-.566.03-.184.031-.363.032-.47l-.5-.005zm.002-.101l-.002.101.5.005.002-.08-.499-.027zm-.015-.901l.015.901.499.027c.017-.315-.001-.669-.015-.952l-.499.025zm.085-.813c-.044.046-.064.098-.072.124a.52.52 0 0 0-.019.087 1.35 1.35 0 0 0-.009.169l.015.432.499-.025-.015-.406.005-.105c-.001.001-.011.035-.045.07l-.36-.347zm-.443-.089c.052.088.212.375.535.497l.176-.468c-.138-.052-.223-.185-.279-.281l-.432.252zm.185.079c-.071 0-.12-.03-.139-.043s-.035-.029-.041-.035-.011-.013-.013-.016l.44-.238-.027-.045c-.004-.007-.015-.023-.031-.04a.26.26 0 0 0-.046-.04c-.02-.014-.07-.044-.143-.044v.5zm-2.171-.054c1.046.306 2.094.077 2.225.048l-.107-.488c-.12.026-1.06.229-1.977-.04l-.14.48zm-2.089-.982c.471.274 1.279.745 2.089.982l.14-.48c-.743-.217-1.5-.656-1.979-.934l-.251.432zm-.292-.196c-.04.004-.068-.005-.069-.005l.074.037.287.163.251-.432-.303-.172-.115-.056c-.018-.007-.039-.016-.063-.022s-.061-.015-.111-.011l.048.498zm-.188.337c.061-.051.124-.103.188-.176s.123-.161.193-.285l-.434-.248a1.26 1.26 0 0 1-.137.205c-.034.039-.066.067-.131.121l.321.383zm-.195.172l.195-.172-.321-.383-.218.193.344.363zm.056.795c-.075-.084-.142-.235-.156-.401s.025-.309.114-.408l-.372-.335c-.207.229-.263.525-.241.785s.124.514.281.691l.374-.332zm1 .378l-1.093-.444-.188.463 1.093.444.188-.463zm1.175 1.291c.007-.277-.044-.594-.246-.852-.207-.266-.541-.428-1.008-.457l-.031.499c.365.022.547.14.644.265.103.132.145.317.14.533l.5.012zm-1.355-.142l1.029.375.152-.476-1.004-.366-.178.467zm-.106-.04l.106.04.178-.467-.107-.041-.177.468zm-2.832 2.347c1.43-.394 2.435-1.249 3.137-2.455l-.432-.251c-.642 1.104-1.545 1.868-2.837 2.224l.133.482zm.685-.284l-.374-.09a1.61 1.61 0 0 1-.265-.09l-.225.447c.1.05.234.092.359.126l.392.095.112-.487zm.444.132c-.038-.024-.081-.039-.104-.046l-.098-.028-.242-.058-.112.487.228.054.067.019c.021.007.012.006-.006-.006l.267-.423zm.803.846c.002-.273-.098-.485-.285-.633-.169-.133-.389-.2-.597-.246l-.109.488c.197.044.322.091.396.15.056.044.097.104.095.236l.5.004zm-.851.044c.07-.051.124-.063.169-.056s.13.04.24.171l.383-.322c-.16-.191-.345-.314-.551-.344s-.393.042-.538.149l.297.402zm-.992-.158c.097.068.23.163.383.215.169.057.357.061.562-.031l-.204-.456c-.082.037-.141.033-.198.013-.073-.025-.146-.074-.256-.151l-.287.409zm-.256-.151c.073.025.146.074.256.151l.287-.409c-.097-.068-.23-.163-.383-.215l-.16.474zm-.622-.007c.117-.064.214-.102.301-.111.076-.007.155.007.249.079l.305-.396c-.195-.15-.4-.199-.6-.18-.189.018-.359.095-.495.17l.24.438zm-.849-.052c.288-.046.446-.06.585.037l.286-.41c-.331-.231-.7-.161-.951-.121l.079.494zm-.176.026l.176-.026-.079-.494-.16.024.063.496zm-.91.31c.057-.069.171-.139.345-.197.169-.056.367-.092.56-.112l-.053-.497a3.25 3.25 0 0 0-.665.135c-.209.069-.428.177-.574.354l.386.318zm-.582-.046c.006.009.062.099.164.146.06.027.131.039.207.023s.132-.05.18-.091l-.322-.383c-.004.003.01-.01.042-.017s.072-.002.102.012.039.026.042.029l-.414.28zm.373.015c-.035.037-.088.07-.155.077-.062.006-.109-.012-.135-.024-.045-.022-.071-.053-.073-.056l-.009-.011.411-.285-.027-.035c-.004-.005-.032-.038-.079-.061-.027-.013-.076-.031-.138-.025-.068.007-.122.04-.157.078l.364.343zm-.857.105l.226.107.019-.03c.017-.025.043-.055.075-.081.055-.044.135-.084.274-.036l.163-.473c-.329-.113-.586-.014-.752.12-.078.063-.134.132-.171.184l-.042.067-.012.022c-.006.012-.006.012.22.12zm.316-.927c-.127.036-.325.097-.458.267-.143.183-.165.425-.102.714l.488-.107c-.048-.218-.005-.283.007-.299.023-.029.072-.058.2-.094l-.135-.481zm-.583.132l.52.322.263-.425-.52-.322-.263.425zm-.115-.168l.493-.086c-.006-.037-.017-.067-.02-.077l-.473.163zm.238-.386c-.023.006-.051.014-.078.025s-.076.033-.12.087a.27.27 0 0 0-.057.202.31.31 0 0 0 .011.051l.007.021.473-.163c-.006-.017.003.005.006.032.002.018.003.046-.005.079a.23.23 0 0 1-.045.092c-.036.045-.077.06-.079.061l-.113-.487zm-.4.609c.105-.103.181-.153.234-.172.023-.008.036-.008.044-.007s.021.004.043.019l.282-.413c-.171-.117-.357-.132-.533-.071-.158.055-.297.168-.418.286l.349.358zm.747-.983c-.125-.085-.272-.095-.393-.076a.89.89 0 0 0-.354.144c-.213.144-.409.397-.424.726l.499.022c.006-.134.088-.255.204-.333.057-.038.111-.058.152-.065s.048.005.035-.004l.281-.414zm.701.064c-.312-.278-.742-.254-.997-.054l.309.393c.07-.055.229-.077.354.034l.333-.373zm.62.094c-.182.059-.463.033-.63-.102l-.314.389c.324.261.789.288 1.097.188l-.154-.476zm-.574-.023a.5.5 0 0 1 .22.096c.091.065.162.15.194.245l.473-.161c-.074-.218-.225-.382-.377-.491s-.324-.178-.478-.189l-.033.499zm-.694-.708c-.06.117-.059.247.007.359.054.092.139.15.203.185.132.073.306.122.438.156l.126-.484c-.137-.035-.252-.071-.32-.109-.036-.02-.028-.024-.015-.002.009.015.018.038.018.067s-.007.048-.012.058l-.444-.23zm-.291.345c.125-.097.205-.132.247-.137.019.002.034.009.057.045l.418-.275a.61.61 0 0 0-.234-.216c-.099-.05-.203-.062-.302-.05-.183.023-.354.13-.493.239l.308.394zm1.228-.774c-.057-.072-.134-.112-.194-.136s-.134-.04-.204-.049c-.14-.017-.303-.011-.462.023-.302.064-.696.257-.768.698l.493.082c.022-.132.148-.241.379-.29.107-.023.214-.026.296-.016.041.005.069.013.085.019s.005.007-.016-.019l.392-.311zm.291.233c-.069-.095-.178-.249-.419-.318l-.137.481c.039.011.06.026.077.04s.04.043.075.091l.404-.294zm.075.091c-.021-.019-.04-.043-.075-.091l-.404.294c.031.042.079.109.145.169l.334-.372zm.852.416c-.299-.049-.632-.178-.835-.399l-.369.338c.309.337.768.496 1.122.555l.082-.493zm1.386-.839l-.687.521c-.261.166-.525.287-.77.317l.06.496c.354-.043.692-.209.979-.392s.548-.399.738-.558l-.32-.384zm.376-.281c-.059.029-.122.076-.178.119l-.198.162.32.384.186-.152.093-.066-.223-.448zm-.564-.061c.028.275.244.407.375.463a1 1 0 0 0 .187.057l.061.011.025.003c.004 0 .004 0 .027-.248l.023-.249-.036-.006c-.027-.006-.061-.015-.093-.028s-.054-.028-.064-.039l-.505.037zm-.376-.309l.243.327c.07.079.199.206.38.207l.003-.5c.032 0 .047.012.04.008s-.024-.018-.05-.048c-.055-.062-.118-.153-.203-.277l-.412.283zm-.932-.863c.406.115.679.495.932.863l.412-.283c-.231-.337-.599-.889-1.208-1.061l-.136.481zm-3.114.645l1.392-.456c.328-.088.668-.164.977-.202.314-.039.571-.036.745.013l.136-.481c-.271-.077-.608-.07-.943-.028-.34.042-.705.124-1.045.215-.681.183-1.285.413-1.44.472l.178.467zm-.127.03c.026 0 .047-.004.05-.005l.028-.007.02-.007.029-.011-.178-.467-.026.01.028-.007a.29.29 0 0 1 .05-.005v.5zm-.428.716l.194.157.021-.027.049-.067.148-.235c.108-.192.233-.468.265-.768l-.497-.052c-.021.203-.11.41-.203.575l-.122.193-.038.052c-.011.015-.011.015.183.172zm-.436-.345l.202.433.469-.175c-.067-.179-.152-.343-.226-.487l-.444.23zM11 16.514c-.019.394.158.726.301 1.002l.444-.23c-.155-.299-.258-.511-.246-.748L11 16.514zm-.557 1.341a9.23 9.23 0 0 0 1.009-1.183l-.405-.293c-.392.543-.673.831-.962 1.126l.358.349zm-.451.48l.451-.48-.358-.349-.469.5.376.329zm-.673 1.382c.132-.535.319-.993.67-1.378l-.369-.337c-.43.471-.644 1.02-.786 1.595l.485.12zm.86.273l.047-.246-.033-.006-.093-.019-.302-.071c-.245-.062-.484-.138-.592-.204l-.261.427c.183.112.495.203.729.262l.32.075.099.021.027.005c.01.002.01.002.057-.244zm.863.612c.002-.256-.083-.477-.251-.634s-.383-.223-.607-.228l-.011.5c.131.003.221.042.275.093s.094.127.093.265l.5.004zm-.884-.135l.14.207c.029-.012.052-.02.08-.022.042-.004.124.001.229.116l.37-.336c-.212-.233-.447-.295-.643-.278-.092.008-.167.033-.22.055a.67.67 0 0 0-.065.032l-.02.012c-.012.008-.012.008.129.215zm-.999.232c.158.063.35.134.546.151a.8.8 0 0 0 .619-.196l-.331-.374c-.068.06-.143.08-.245.072-.114-.01-.245-.054-.402-.117l-.186.464zm-.76-.258c.1-.079.199-.091.304-.061.116.033.245.121.361.253l.376-.33a1.3 1.3 0 0 0-.6-.404c-.246-.07-.515-.037-.752.151l.311.391zm-.721.138c.076.019.194.051.324.04a.7.7 0 0 0 .406-.185l-.328-.378c-.065.056-.101.063-.12.064-.032.003-.069-.004-.159-.027l-.122.485zm-.524.07c.133-.079.227-.1.296-.104a.75.75 0 0 1 .228.034l.122-.485c-.088-.022-.218-.056-.375-.049s-.334.058-.527.174l.256.429zm-1.577.13c.164.256.492.305.759.27.287-.039.603-.182.865-.435l-.348-.359a1.07 1.07 0 0 1-.583.298c-.199.027-.266-.036-.271-.044l-.421.27zm-.475.266a2.73 2.73 0 0 1 .52-.137l.126-.013.027-.001c.002 0 .002 0 .011-.25l.009-.25h-.024l-.05.002a1.86 1.86 0 0 0-.174.018 3.22 3.22 0 0 0-.617.162l.17.47zm.529-.767l.123-.218-.043-.021c-.022-.01-.053-.022-.091-.032a.62.62 0 0 0-.305-.01c-.281.065-.475.322-.545.774l.494.077a.74.74 0 0 1 .104-.316c.029-.04.05-.046.059-.048.015-.003.035-.002.058.004a.18.18 0 0 1 .024.008c-.001-.001-.001-.001.122-.218zm-.26-.113l.011.133.498-.04-.011-.134-.498.042zm-.01-.122l.01.122.498-.042-.01-.121-.498.041zm-.016.147l.177.066.176-.468-.177-.066-.176.468zm-.63-.003c.032-.028.113-.066.24-.074.121-.008.255.014.372.069l.213-.452a1.28 1.28 0 0 0-.616-.116c-.192.012-.395.071-.539.198l.331.375zm.801-.911c-.182-.03-.435-.052-.669.029-.257.089-.462.292-.541.639l.488.111c.042-.183.127-.247.217-.278.113-.039.263-.035.424-.008l.081-.493zm-.176-.066l-.039.114-.017.037.382.323c.049-.058.079-.125.099-.174s.038-.107.051-.149l-.477-.15zm.035-.107l-.035.107.477.15.027-.083-.469-.174zm.027.231l.025.027.365-.341-.024-.026-.366.341zm-.22-.145c.034-.03.047-.03.041-.029.004.007.025.021.061.053a2.18 2.18 0 0 1 .118.122l.366-.341c-.078-.084-.199-.22-.345-.287a.48.48 0 0 0-.293-.038.59.59 0 0 0-.279.146l.331.375zm1.558-.434c-.164-.106-.571-.372-.959-.472-.192-.05-.432-.073-.641.039-.226.121-.343.356-.373.655l.498.049c.02-.201.083-.248.11-.262.044-.024.132-.035.281.004.296.076.634.292.812.407l.271-.42zm.054.035l-.054-.035-.271.42.06.038.265-.424zm2.397-2.858c0 0-.007.013-.026.048l-.073.122-.247.384-.759 1.057c-.289.37-.591.715-.859.949-.135.117-.251.198-.344.241s-.134.035-.137.034l-.168.471c.182.065.367.018.517-.052s.31-.186.461-.318c.304-.265.628-.639.924-1.018l.782-1.088.256-.398.131-.228-.457-.204zm-1.277.53c.387-.143.965-.204 1.494-.179l.024-.499c-.567-.027-1.219.034-1.691.209l.174.469zm-.506.796c.255-.245.516-.492.658-.957l-.478-.147c-.101.329-.273.499-.527.743l.347.36zm-.126.123l.126-.123-.347-.36-.132.128.352.355zm-1.59-2.555c.728.828 1.17 1.339 1.164 2.376l.5.003c.007-1.245-.564-1.885-1.289-2.709l-.375.33zm-.123-.14l.123.14.375-.33-.123-.14-.376.329zm-1.441-2.452c.041.233.167.68.401 1.152s.584.99 1.086 1.341l.286-.41c-.406-.284-.711-.721-.924-1.152s-.324-.832-.356-1.016l-.493.086zm.163.664c.054-.062.171-.208.319-.623l-.471-.168c-.13.365-.218.455-.226.463l.377.328zm.052-.151c0 .035-.007.063-.013.08s-.013.031-.017.039c-.009.016-.017.026-.019.029l-.38-.325-.016.02c-.004.005-.013.017-.022.034-.006.011-.032.058-.032.123h.5zm-1.23.348a.36.36 0 0 0 .024.27c.081.142.227.152.296.145s.131-.034.176-.056a1.31 1.31 0 0 0 .147-.086c.187-.125.409-.322.526-.457l-.378-.327c-.085.098-.273.266-.425.368-.037.025-.067.042-.09.053s-.027.009-.008.007.129-.004.192.105c.042.074.018.132.025.103l-.484-.126zm.207-.556c-.086.057-.22.17-.291.306-.035.067-.082.192-.026.328.058.141.188.202.291.228l.122-.485c-.036-.009.02-.005.049.066.027.067-.002.111.006.095.005-.009.02-.031.048-.058s.056-.049.077-.063l-.276-.417zm.08-.146l-.083.144-.014.02c.001-.001.008-.009.02-.018s.04-.028.084-.037l.101.49c.094-.02.152-.084.166-.1.025-.027.046-.058.062-.083l.101-.173-.437-.242zm.539-.482c-.126-.017-.22.049-.261.083-.047.04-.086.088-.116.129-.06.083-.118.189-.163.27l.437.242.132-.221c.02-.028.03-.037.03-.037s-.011.009-.03.017-.055.018-.098.012l.067-.495zm-.105-1.518l-.177 1.74.497.051.177-1.74-.497-.051zm-.21-.347l.104.319c.04.091.111.219.253.282l.202-.457c.036.016.029.037.003-.025a2.21 2.21 0 0 1-.081-.255l-.481.136zm-.147-.445c.064.153.107.302.147.445l.481-.136-.167-.502-.461.194zm-.545-.863c-.024-.007-.03-.015-.016-.004s.029.024.052.048a1.83 1.83 0 0 1 .166.206c.124.175.253.4.343.612l.461-.194c-.105-.25-.253-.506-.396-.707a2.32 2.32 0 0 0-.214-.265.97.97 0 0 0-.11-.099.46.46 0 0 0-.148-.078l-.138.481zm1.047-.172c-.064-.067-.173-.184-.346-.261s-.397-.105-.678-.053l.091.492c.202-.037.316-.011.384.019s.121.08.186.148l.362-.345zm.02.042c.03.006.043.02.034.012-.004-.003-.01-.009-.02-.018l-.034-.035-.362.345.098.095c.039.033.1.075.183.092l.102-.49zm.487.766l-.155-.401a1.24 1.24 0 0 0-.095-.175.54.54 0 0 0-.153-.156l-.269.422a1.08 1.08 0 0 1 .062.118 4.94 4.94 0 0 1 .139.362l.471-.169zm.256.601c-.092-.147-.171-.363-.256-.601l-.471.169c.079.221.176.495.303.697l.424-.265zM4.385 8.41c-.192.576-.301 1.062-.096 1.768l.48-.139c-.164-.566-.087-.938.091-1.471l-.474-.158zm-.29-.474c.188.117.278.318.277.553l.5.001c.001-.365-.145-.748-.513-.978l-.265.424zm1.184.302c-.033-.068-.124-.258-.287-.429s-.42-.344-.771-.335l.013.5c.167-.004.293.072.396.18s.169.239.199.303l.45-.218zm-.026-.031l.015.018.016.023-.454.208.013.026.01.018c.001.002.014.025.036.048l.365-.341zm.109 1.018c.035-.097.091-.246.097-.418a.91.91 0 0 0-.186-.575l-.406.292c.079.11.095.195.092.266-.003.081-.029.159-.067.264l.47.171zm-.055.109c.006.008.01.019.011.028l.014-.051.03-.086-.47-.171c-.022.06-.055.147-.067.233-.014.096-.008.218.072.332l.41-.286zm-.305-.123l-.057.071.314.389c.069-.056.12-.129.147-.166l-.404-.294zm.482-.259a.42.42 0 0 0-.335.092c-.069.056-.12.129-.148.167l.404.294.04-.053a.15.15 0 0 1 .018-.019c.001 0-.006.005-.02.009s-.028.005-.036.003l.077-.494zm-.049-.466c.005.161-.017.266-.046.341s-.072.137-.134.209l.38.325c.08-.094.163-.205.221-.355s.085-.322.079-.535l-.5.014zm.64.932c.056-.154.126-.358.114-.563-.014-.233-.129-.44-.375-.589l-.26.427c.112.068.132.13.136.191.005.088-.026.202-.085.362l.47.172zm-.444.897c.16-.091.307-.198.389-.385.075-.171.081-.374.07-.609l-.499.023c.011.235-.004.332-.028.384-.016.037-.047.077-.179.152l.247.435zm-.189.311c-.013-.085-.004-.121.009-.147.017-.032.061-.088.19-.17l-.268-.422c-.163.103-.292.218-.368.365-.079.154-.08.308-.058.45l.494-.076zm.18 1.691l.25-.014-.004-.059-.014-.153-.066-.491a4.26 4.26 0 0 0-.139-.584c-.06-.184-.144-.377-.266-.516l-.376.33c.055.063.113.178.167.342a3.76 3.76 0 0 1 .122.514l.061.456.013.141.003.038c.001.012.001.012.25-.002zm.717.729c.026-.35-.145-.808-.64-.967l-.153.476c.22.071.308.271.294.454l.499.037zm.693.43c-.04-.198-.172-.379-.334-.504s-.388-.217-.633-.193l.047.498c.093-.009.193.024.28.091s.138.153.149.208l.49-.1zm.615.082a1.25 1.25 0 0 0-.427-.318c-.087-.035-.191-.059-.302-.045s-.221.067-.308.154l.354.353c.014-.011.015-.011.017-.012s.02-.001.052.012a.77.77 0 0 1 .246.192l.369-.338zm.283-.165c-.258-.102-.54-.024-.68.202l.425.263c.019-.01.038-.013.07 0l.184-.465zm.006-.426c-.17.162-.349.349-.348.659l.5-.001c0-.082.028-.139.192-.295l-.344-.363zm.429-2.912a.36.36 0 0 0-.188.118c-.037.042-.067.091-.092.138a2.05 2.05 0 0 0-.133.342c-.079.26-.15.596-.197.937a5.7 5.7 0 0 0-.06.994c.007.149.023.292.056.415.031.115.086.252.197.344l.319-.385c.01.008-.01-.005-.032-.088a1.5 1.5 0 0 1-.04-.308c-.012-.257.011-.581.056-.903a5.87 5.87 0 0 1 .18-.86c.035-.116.069-.201.097-.256l.017-.03c-.019.011-.039.023-.069.029l-.111-.487zM9.62 7.221a.38.38 0 0 0-.177.083c-.039.031-.075.069-.107.107a2.53 2.53 0 0 0-.207.289c-.143.226-.303.526-.45.843a7.96 7.96 0 0 0-.38.963c-.091.294-.157.599-.125.825l.495-.071c-.015-.105.017-.314.108-.607.087-.279.215-.598.356-.9a7.39 7.39 0 0 1 .42-.787c.065-.103.12-.18.164-.23.022-.025.036-.038.041-.043.012-.009-.011.013-.06.021l-.076-.494zm-.139-.197l-.231.095.028.067.061.149.06.15.019.048c-.003-.012-.008-.036-.008-.066h.5c0-.03-.006-.054-.006-.056l-.009-.032-.008-.022-.021-.056-.062-.154-.061-.151-.02-.049-.008-.019c0 0 0 0-.231.095zm-.752 1.009c.059-.325.251-.512.438-.623a1.21 1.21 0 0 1 .254-.113l.078-.021.022-.005c-.001 0-.001 0-.041-.247l-.04-.247-.052.01-.118.032a1.71 1.71 0 0 0-.361.161c-.274.164-.582.459-.674.963l.492.09zm-.454-.477l-.232.093.019.047.05.114.157.307.428-.259c-.044-.073-.091-.17-.129-.254l-.044-.102-.012-.03c-.004-.01-.004-.01-.236.083zm-.974 1.049a.25.25 0 0 0 .288.136c.046-.012.077-.034.083-.038.02-.014.035-.029.04-.033l.039-.041.092-.111.259-.328.255-.33.084-.109.024-.031c.008-.011.008-.011-.19-.163l-.199-.152-.031.041-.083.109-.254.328-.254.321-.08.097c.019-.011.049-.032.094-.044a.25.25 0 0 1 .286.136l-.452.213zm.065-.76l-.241-.068-.008.032-.014.07a1.21 1.21 0 0 0-.017.228c.004.171.055.44.304.601l.272-.42c-.043-.028-.073-.086-.076-.194a.71.71 0 0 1 .01-.133l.008-.04c.002-.009.002-.009-.238-.077zm-.449-.517c.029.186.064.453.259.68l.38-.325c-.088-.103-.113-.227-.144-.431l-.494.076zm-.051-.253c.023.073.035.152.051.253l.494-.076c-.015-.094-.032-.21-.067-.324l-.478.147zm-.769.121l.996.055.023-.499-.989-.055-.031.499zm-.987-.055l.987.055.031-.499-.995-.055-.023.499zm.032.271a.25.25 0 0 1 .115-.211.25.25 0 0 1 .274.003c.026.017.042.035.046.04l.014.017.012.018-.032-.06-.092-.178-.093-.181-.031-.06-.011-.021c-.001-.001-.001-.001-.224.112l-.223.113.012.023.031.06.093.182.094.181.033.062.014.024c.001.002.008.013.017.025l.014.017c.004.005.021.023.046.04a.25.25 0 0 0 .275.003.25.25 0 0 0 .115-.211h-.5zM3.226 5.154c.148.596.594 1.215 1.015 1.671.214.232.431.431.617.575a2.1 2.1 0 0 0 .262.177.58.58 0 0 0 .278.085l-.01-.5c.037-.001.036.011-.027-.023a1.62 1.62 0 0 1-.197-.134 4.73 4.73 0 0 1-.555-.519c-.403-.437-.779-.98-.897-1.453l-.485.121zm2.519.609c-.791-.171-1.473-.323-2.116-.861l-.321.383c.749.627 1.548.797 2.331.966l.106-.489zm.033.007l-.033-.007-.106.489.033.007.106-.489zm-.251.631l.315-.165-.232-.443-.315.166.233.442zm-.32.168l.32-.168-.233-.442-.319.168.232.443zm4.154-.295a.44.44 0 0 1-.066-.141.44.44 0 0 1 .025-.144c.029-.056.07-.085.079-.091.025-.018.048-.026.05-.027l.021-.007-.072.015-.277.048-1.003.129c-.832.084-1.93.141-3.005.043l-.045.498c1.118.102 2.251.042 3.1-.043L9.2 6.422l.292-.051.082-.017.031-.008c.004-.001.016-.004.029-.01.003-.001.027-.01.052-.028.008-.006.05-.035.079-.091a.44.44 0 0 0 .025-.144.44.44 0 0 0-.066-.141l-.364.343zm-.869-.715v.25l.023.001.08.006c.069.007.162.022.26.05.204.06.381.165.459.339l.456-.205c-.167-.371-.516-.538-.775-.614a2 2 0 0 0-.348-.068l-.109-.008-.032-.001c-.015 0-.015 0-.014.25zm.214.36l.034-.334-.497-.051-.034.334.497.051zm-.731.378l.553-.164-.142-.479-.553.164.142.479zm-.75-.134a.25.25 0 0 0 .108.114c.022.012.04.018.049.02.018.005.034.008.04.009l.036.003.063.002.161-.001.156-.003.051-.001c.02 0 .02 0 .014-.25l-.006-.25-.069.001-.152.002h-.149l-.04-.001c.009.001.021.003.037.008.008.002.026.008.047.019.011.006.028.016.045.032a.25.25 0 0 1 .061.082l-.453.212zm-.367-.671l-.005.25.034.005a.42.42 0 0 1 .112.04c.075.04.17.12.206.315l.492-.09c-.066-.36-.267-.562-.464-.666a.92.92 0 0 0-.248-.088l-.082-.012-.026-.002c-.015-.001-.015-.001-.02.249zm-1.01.276c.33-.041.628-.076.976-.029l.068-.495c-.421-.058-.779-.013-1.105.028l.061.496zm-.516.051l.516-.051-.061-.496-.48.047.025.499zm2.288-1.48c-.834.063-1.788.127-2.501 1.08l.4.299c.563-.753 1.288-.817 2.138-.881l-.038-.499zm.45-.039l-.45.039.038.499.466-.04-.053-.497zm.864-.642c-.224.033-.467.088-.667.213-.214.134-.368.34-.416.638l.494.079c.024-.15.091-.233.187-.293.11-.068.268-.111.476-.142l-.073-.495zm2.075.108c.004 0-.493-.027-1.01-.055l-.698-.038-.23-.012-.064-.003-.021-.001c-.001 0-.001 0-.015.25l-.014.25.023.001.064.003.23.012.698.038 1.037.055v-.5zm1.072-.271l-.047-.246-.042.009-.103.024-.331.1c-.127.045-.268.105-.398.181s-.261.175-.355.307l.408.29c.037-.052.103-.109.2-.165s.205-.103.314-.142l.284-.086.087-.021.023-.005c.006-.001.006-.001-.04-.247zm1.155-.426l-.662.033c-.213.027-.43.076-.611.172l.235.441a1.3 1.3 0 0 1 .438-.117c.184-.023.39-.029.6-.029v-.5zm-.789 1.674a3.47 3.47 0 0 0 .575-.522c.202-.23.419-.541.462-.87l-.496-.065c-.023.175-.154.391-.341.604-.181.206-.382.371-.483.441l.284.412zm-.048.276l-.036-.073c.002.006.006-.015.032-.066s.064-.117.122-.212l-.425-.263c-.114.183-.199.333-.222.47-.029.175.046.301.086.377l.442-.233zm.03.059l-.03-.059-.442.233.027.051.446-.226zm.236.438l-.239-.444-.44.237.239.444.44-.237zm.808.641c-.131-.408-.536-.624-.95-.76l-.156.475c.396.13.579.28.63.438l.476-.153zm-.737.301c.001.024-.011.047-.021.056-.004.004.007-.008.05-.021.087-.026.237-.037.438-.011l.063-.496c-.237-.03-.465-.026-.644.028-.17.051-.396.185-.386.461l.5-.017zm.146-.001l-.097-.041-.066-.034c-.016-.01-.016-.013-.01-.006s.025.036.028.077l-.499.029c.011.181.149.282.216.324.079.049.174.088.239.114l.19-.463zm.218.105c-.069-.045-.159-.081-.218-.105l-.19.463.133.061.274-.418zm.459.983a1.39 1.39 0 0 0-.103-.503c-.069-.162-.174-.306-.316-.448l-.354.354c.109.109.172.201.21.291s.058.191.064.326l.5-.019zm-.709.103c.102.053.273.146.445.156l.029-.499c-.043-.002-.109-.032-.244-.101l-.229.444zm-.283-.043c.024-.052.042-.062.04-.061.013.004.04.009.087.028s.095.044.157.076l.229-.444c-.102-.053-.273-.146-.445-.156a.49.49 0 0 0-.305.08.63.63 0 0 0-.215.264l.453.213zm.154.313c-.149-.056-.197-.219-.153-.316l-.454-.208c-.169.369.02.837.431.992l.177-.468zm.463 1.383a.25.25 0 0 0 .194-.092c.025-.031.037-.06.041-.072.009-.026.012-.047.013-.053.002-.017.003-.031.003-.037l-.001-.044-.012-.109c-.013-.085-.037-.2-.082-.322-.085-.234-.266-.552-.637-.661l-.14.48c.142.042.242.173.307.351.031.084.048.166.057.226l.008.065c0 .003 0-.006.002-.02.001-.005.003-.025.013-.05a.25.25 0 0 1 .234-.163v.5zm-.122-.031l.027.012.037.012c.006.001.028.007.057.007v-.5a.25.25 0 0 1 .037.003l.02.004.02.006.02.007-.218.45zm-.43.05c-.01-.135.022-.159.015-.151s-.001-.008.058-.006c.128.003.292.076.357.107l.211-.453c-.053-.025-.307-.147-.555-.154-.129-.003-.301.023-.431.159s-.169.328-.154.536l.498-.038zm-.132.316c.026-.031.124-.132.132-.282l-.499-.028c.001-.011.003-.022.006-.031-.011.007-.015.012-.02.018l.381.324zm-.068.239c-.011-.09.001-.135.01-.156s.023-.042.058-.083l-.381-.324c-.034.04-.098.113-.141.222s-.061.242-.042.401l.497-.059zm.157 1.04l-.008-.034-.016-.081-.041-.249-.091-.676-.497.059.093.692.085.443.476-.154zm.676-.376l-.966.209.105.489.966-.209-.106-.489zm.99-.214l-.99.214.106.489.99-.214-.105-.489zm.188-.972c.026.452-.095.828-.31 1.037l.348.359c.355-.345.491-.888.46-1.424l-.499.029zm-.002-.442l.002.416.499.023c.007-.159.002-.313-.002-.455l-.5.016zm10.872.939c.17-.002.41.072.669.365l.374-.331c-.338-.382-.71-.538-1.051-.533l.007.5zm-.369.182c.003.021-.008-.016.068-.079.066-.054.171-.101.3-.103l-.007-.5c-.244.004-.458.09-.611.217-.143.118-.274.31-.246.528l.496-.063zm.987-.06c-.007.02-.044.076-.158.136a1.05 1.05 0 0 1-.385.109c-.142.013-.261-.006-.337-.043-.066-.032-.098-.073-.107-.142l-.496.063c.033.258.188.433.384.528.185.09.403.11.6.092a1.55 1.55 0 0 0 .575-.165c.162-.086.335-.223.4-.424l-.475-.155z" fill="#000" mask="url(#B)"/><path d="M9.391 4.656l-.333.084.308.15c.173.084.327.136.458.141.138.006.262-.041.335-.163.027-.046.067-.141-.001-.226a.2.2 0 0 0-.097-.063.38.38 0 0 0-.097-.015c-.125-.005-.321.029-.574.093z" fill="#d21034" stroke="#000" stroke-width=".25"/></g></g><defs><clipPath id="C"><path fill="#fff" d="M0 0h32v24H0z"/></clipPath></defs></svg>
