<svg xmlns="http://www.w3.org/2000/svg" viewBox="0 0 32 24" fill="none"><style><![CDATA[.B{fill-rule:evenodd}.C{fill:#feca00}.D{fill:#c51918}]]></style><g clip-path="url(#B)"><path fill="#fff" d="M0 0h32v24H0z"/><g class="B"><path d="M0 0H32V24H0V0Z" class="D"/><path d="M6 6H26V18H6V6Z" class="C"/></g><mask id="A" maskUnits="userSpaceOnUse" x="6" y="6" width="20" height="12"><path d="M6 6H26V18H6V6Z" fill="#fff" class="B"/></mask><g mask="url(#A)" class="B"><path d="M6 6l10 6-10 6V6z" fill="#23875f"/><path d="M26 6l-10 6 10 6V6z" fill="#23875f"/><path d="M16 16a4 4 0 1 0 0-8 4 4 0 1 0 0 8z" class="D"/><path d="M15.93 13.313l-2.071 1.436.662-2.46L13 10.718l2.059-.085.871-2.433.871 2.433h2.055l-1.517 1.657.76 2.315-2.169-1.291z" class="C"/></g><g class="B"><path d="M8.777 4.442l1.132-.702 1.185.631-.415-1.131.829-.809h-1.123l-.476-1.189-.476 1.189-1.125.042.831.768-.362 1.202zm6 0l1.132-.702 1.185.631-.415-1.131.829-.809h-1.123l-.476-1.189-.476 1.189-1.125.042.831.768-.362 1.202zm7.132-.702l-1.132.702.362-1.202-.831-.768 1.125-.042.476-1.189.476 1.189h1.123l-.829.809.415 1.131-1.185-.631zM8.776 22.167l1.132-.702 1.185.631-.415-1.131.829-.809h-1.123l-.476-1.189-.476 1.189-1.125.041.831.768-.362 1.202zm7.132-.702l-1.132.702.362-1.202-.831-.768 1.125-.041.476-1.189.476 1.189h1.123l-.829.809.415 1.131-1.185-.631zm4.868.702l1.132-.702 1.185.631-.415-1.131.829-.809h-1.123l-.476-1.189-.476 1.189-1.125.041.831.768-.362 1.202z" class="C"/><path d="M8.635 12.772s.539.479.832.643c.101-.383-.125-1.252-.125-1.252-.063-.208-.758-.58-.758-.58s-.195.655.05 1.189z" class="D"/><path d="M9.196 13.93s-1.383-.646-1.524-1.56S7.83 10 7.83 10s2.246.511 2.399 1.606-.355 1.783-.355 1.783-.52-1.335-1.01-1.483c0 0 0 1.323.332 2.024z" class="C"/></g></g><defs><clipPath id="B"><path fill="#fff" d="M0 0h32v24H0z"/></clipPath></defs></svg>
