<svg xmlns="http://www.w3.org/2000/svg" viewBox="0 0 32 24" fill="none"><g clip-path="url(#B)"><path fill="#fff" d="M0 0h32v24H0z"/><path fill-rule="evenodd" d="M0 0V24H32V0H0Z" fill="#f7fcff"/><mask id="A" maskUnits="userSpaceOnUse" x="0" y="0" width="32" height="24"><path fill-rule="evenodd" d="M0 0V24H32V0H0Z" fill="#fff"/></mask><g mask="url(#A)"><path fill-rule="evenodd" d="M14 0h4v10h14v4H18v10h-4V14H0v-4h14V0zM9.999 17.222L12.2 17v2l-2.201-.098A389.34 389.34 0 0 0 10.2 21h-2l.16-2H6.2v-2l2.16.222L8.2 15h2l-.201 2.222z" fill="#e31d1c"/><path fill-rule="evenodd" d="M9.999 5.222L12.2 5v2l-2.201-.098A389.46 389.46 0 0 0 10.2 9h-2l.16-2H6.2V5l2.16.222L8.2 3h2l-.201 2.222zm14 0L26.2 5v2l-2.201-.098c0 .04.201 2.098.201 2.098h-2l.16-2H20.2V5l2.16.222L22.2 3h2l-.201 2.222zm0 12L26.2 17v2l-2.201-.098c0 .04.201 2.098.201 2.098h-2l.16-2H20.2v-2l2.16.222L22.2 15h2l-.201 2.222z" fill="#e31d1c"/></g></g><defs><clipPath id="B"><path fill="#fff" d="M0 0h32v24H0z"/></clipPath></defs></svg>
