<svg xmlns="http://www.w3.org/2000/svg" viewBox="0 0 32 24" fill="none"><style><![CDATA[.B{fill-rule:evenodd}]]></style><g clip-path="url(#A)"><path fill="#fff" d="M0 0h32v24H0z"/><path fill="#f7fcff" d="M0 0h32v24H0z"/><g class="B"><path d="M0 16h32v8H0v-8z" fill="#c51918"/><path d="M17.389 5h-3.778v4.615h-.944V6.846H8.889v2.769H7v.923h.944v4.615H7v.923h17v-.923h-.944v-4.615H24v-.923h-1.889V6.846h-3.778v2.769h-.944V5z" fill="#db000b"/></g><g fill="#272727"><use href="#B"/><path d="M19.278 8.589a.82.82 0 1 1 1.64 0V9.8h-1.64V8.589z"/><path d="M9.567 13.471c0-.6.486-1.086 1.086-1.086s1.086.486 1.086 1.086v1.868H9.567v-1.868z" class="B"/><path d="M19.012 13.471c0-.6.486-1.086 1.086-1.086s1.086.486 1.086 1.086v1.868h-2.172v-1.868z"/><path d="M13.895 13.64a1.39 1.39 0 1 1 2.784 0v2.67h-2.784v-2.67z" class="B"/><path d="M14.556 7.666a.82.82 0 1 1 1.64 0V9.8h-1.64V7.666z"/></g><g fill="#de1a23"><path d="M7 8.692h.944v.923H7z"/><g class="B"><path d="M8.5 6h1v1h-1V6zm3.818 0h1v1h-1V6zm-.568 0h-1.5v1h1.5V6zm6.341 0h1v1h-1V6zm3.728 0h1v1h-1V6zm-.614 0h-1.5v1h1.5V6zM13.8 4.023h-1v1h1v-1zm1.5 0h-1v1h1v-1zm.5 0h1v1h-1v-1zm2.5 0h-1v1h1v-1z"/></g><path d="M22.999 8.775h1v.839h-1z"/></g><g fill="#e8aa00" class="B"><path d="M15.44 18.453l2.713-1.774-2.894-1.354-2.894 1.664 3.076 1.464zm-1.059-1.612l.887-.595.938.511-.843.551-.982-.467zm-.905 4.166h1.474v1.107-.374h-.916v.374h-.558v-1.107z"/><path d="M14.816 18.114h1.251v4h-1.251v-4z"/></g></g><defs><clipPath id="A"><path fill="#fff" d="M0 0h32v24H0z"/></clipPath><path id="B" d="M9.833 8.589a.82.82 0 1 1 1.64 0V9.8h-1.64V8.589z"/></defs></svg>
