<svg xmlns="http://www.w3.org/2000/svg" viewBox="0 0 32 24" fill="none"><style><![CDATA[.B{fill-rule:evenodd}]]></style><g clip-path="url(#B)"><path fill="#fff" d="M0 0h32v24H0z"/><path d="M0 0V24H32V0H0Z" fill="#f7fcff" class="B"/><mask id="A" maskUnits="userSpaceOnUse" x="0" y="0" width="32" height="24"><path d="M0 0V24H32V0H0Z" fill="#fff" class="B"/></mask><g mask="url(#A)" class="B"><path d="M0 0V8H32V0H0Z" fill="#009d00"/><path d="M0 8v8h32V8H0z" fill="#fff"/><path d="M0 16v8h32v-8H0z" fill="#f80000"/></g><path d="M0 0V24L8 12.152L0 0Z" fill="#0075d5" class="B"/><g fill="#ffd500" stroke="#000" stroke-width=".05"><use href="#C"/><path d="M15.57 8.883l-.013.003-.01-.009-.207-.191-.026.28-.001.013-.011.006-.245.138.258.111.012.005.003.013.055.276.186-.211.009-.01.013.002.279.033-.144-.242-.007-.011.006-.012.118-.256-.274.062z"/><use href="#D"/><path d="M17.57 8.883l-.013.003-.01-.009-.207-.191-.026.28-.001.013-.012.006-.245.138.259.111.012.005.003.013.055.276.185-.211.009-.01.013.002.279.033-.144-.242-.007-.011.006-.012.118-.256-.274.062zm1 0l-.013.003-.01-.009-.207-.191-.026.28-.001.013-.012.006-.245.138.259.111.012.005.003.013.055.276.185-.211.009-.01.013.002.279.033-.144-.242-.007-.011.006-.012.118-.256-.274.062zm1 0l-.013.003-.01-.009-.207-.191-.026.28-.001.013-.012.006-.245.138.259.111.012.005.003.013.055.276.185-.211.009-.01.013.002.279.033-.144-.242-.007-.011.006-.012.118-.256-.274.062z"/></g><path d="M15.05 10.05h3.9V13a1.95 1.95 0 0 1-3.9 0v-2.95z" stroke="#373737" stroke-width=".1"/><g class="B"><path d="M16.726 11.96s-.202 2.365-.403 2.509.965.215 1.076.107-.509-2.035-.295-2.616.557-.628.557-.628-.433-.091-.557.083-.493-.083-.493-.083l.115.628z" fill="#6f3e1d"/><path d="M16.682 11.826h-.155s-.105.411-.346.205-.581-.133-.581-.133.03-.246.4-.344.527-.891.527-.891.524-.195.842.204.767.229.767.229.328.187.164.458-.444.469-.688.271-.931 0-.931 0z" fill="#009d29"/></g></g><defs><clipPath id="B"><path fill="#fff" d="M0 0h32v24H0z"/></clipPath><path id="C" d="M14.57 8.883l-.013.003-.01-.009-.207-.191-.026.28-.001.013-.011.006-.245.138.258.111.012.005.003.013.055.276.186-.211.009-.01.013.002.279.033-.144-.242-.007-.011.006-.012.118-.256-.274.062z"/><path id="D" d="M16.57 8.883l-.013.003-.01-.009-.207-.191-.026.28-.001.013-.012.006-.245.138.259.111.012.005.003.013.055.276.185-.211.009-.01.013.002.279.033-.144-.242-.007-.011.006-.012.118-.256-.274.062z"/></defs></svg>
