<svg xmlns="http://www.w3.org/2000/svg" viewBox="0 0 32 24" fill="none"><g clip-path="url(#A)"><path fill="#fff" d="M0 0h32v24H0z"/><g fill-rule="evenodd"><path d="M0 0H32V24H0V0Z" fill="#f7fcff"/><g fill="#4564f9"><path d="M0 5.5h32v2.957H0V5.5zm0 5.315h32v2.957H0v-2.957zm32 5.128H0V18.9h32v-2.957zM0 0h32v3H0V0z"/></g></g><path fill="#4564f9" d="M0 21h32v3H0z"/><g fill-rule="evenodd"><path d="M0 0H15V13.8H0V0Z" fill="#4564f9"/><path d="M6 0h3v5.504h6v2.935H9V14.5H6V8.439H0V5.504h6V0z" fill="#f7fcff"/></g></g><defs><clipPath id="A"><path fill="#fff" d="M0 0h32v24H0z"/></clipPath></defs></svg>
