<svg xmlns="http://www.w3.org/2000/svg" viewBox="0 0 32 24" fill="none"><style><![CDATA[.B{fill:#f7fcff}.C{fill-rule:evenodd}.D{stroke-linejoin:round}]]></style><g clip-path="url(#B)"><path fill="#fff" d="M0 0h32v24H0z"/><path d="M0 .1h32v24H0V.1z" fill="#2b409a" class="C"/><g clip-path="url(#C)"><path fill="#2e42a5" d="M0 0h18v14H0z"/><path d="M-2.004 13l3.961 1.737L18.09 1.889l2.089-2.582-4.236-.581-6.58 5.537-5.296 3.73L-2.004 13z" class="B"/><path d="M-1.462 14.217l2.018 1.008L19.429-.933h-2.833l-18.058 15.15z" fill="#f50100"/><path d="M20.004 13l-3.961 1.737L-.09 1.889-2.179-.693l4.236-.581 6.58 5.537 5.296 3.73L20.004 13z" class="B"/><g fill="#f50100"><path d="M19.869 13.873l-2.018 1.008-8.036-6.918-2.383-.773L-2.38-.684H.453l9.807 7.688 2.605.927 7.004 5.943z"/><g class="C"><path d="M9.985 0h-2v6H0v2h7.985v6h2V8H18V6H9.985V0z"/></g></g><path d="M6.485 0h5v4.5H18v5h-6.515L11.5 14h-5l-.015-4.5H0v-5h6.485V0zm1.5 6H0v2h7.985v6h2V8H18V6H9.985V0h-2v6z" class="B C"/></g><path d="M24.318 18.551c-.062 0-.285-.12-.285-.12s-.162.256-.246.27-.523-.157-.523-.157-.308.24-.377.225l-.777-.165-.384-.241-.223.338c-.008-.008-.646-.128-.646-.128l.192-.27c0-.008-.092-.038-.092-.038l-.138.113-.569.053.138-.391.223-.331 2.73-2.592 1.346 2.427-.2.729s-.108.278-.169.278z" fill="#6a4c2d"/><path d="M21.711 18.061c.095.115 1.348 1.395 1.55 2.001s-1.647-.168-1.647-.168 2.33-1.513 3.493-1.513 3.451 1.513 3.451 1.513-1.535 1.081-1.519.399.72-2.024 1.561-2.232" stroke="#fb0" stroke-width=".5" stroke-linecap="round" class="D"/><path d="M29.542 18.16l-.383-.143-.339-.449-1.403-.103-1.279-.349-.539.36.29.379.71.261 2.943.043z" class="B"/><g fill="#656263"><path d="M23.939 9.866c.013.033.299-.025.36.146.308-.455.669-.021.669-.021l.304-.36.343.325.315-.025.329.773-2.598-.049.277-.789zm2.693 3.288c-.021-.245-.238-.273-.359-.265s-.23.11-.23.11l-.401-.249s.201-1.236.413-1.313c.202-.143.238-.204.238-.237s-.075-.165-.075-.165l-1.306-.151-1.235.143s-.096.193-.083.251.017.118.238.285c.245.184.413 1.24.413 1.24s-.346.167-.367.146-.125-.041-.18-.032-.234.098-.234.33a.49.49 0 0 0 .18.367s1.181.865 1.356 1.183c.171-.383 1.293-1.249 1.427-1.314.054-.032.226-.085.205-.33z"/></g><path d="M27.81 12.002c.098-.064.752-.096.909 0s.216.569.216.569.098.166.105.287l.02.204s.523.664.529 1.265c.059.409.046 1.501-.117 1.916-.007.517-.229.856-.229.856a.37.37 0 0 0 .046.185c-.007.096-.059.185-.059.185l-.49.211-.542-.089-.615-1.795.144-3.034.039-.153-.065-.409s.013-.134.111-.198z" fill="#000"/><path d="M24.262 13.594s.661 0 .733.21c.125-.28.697-.262.697-.262l1.036-.035.018 2.445c-.202.949-.905 1.618-1.68 1.903-.923-.291-1.507-1.054-1.698-1.921l-.108-2.323 1.001-.018z" class="B"/><path d="M23.618 13.603l1.458 3.797 1.317-3.879c-.409.026-1.285-.063-1.394.301-.169-.326-1.091-.194-1.381-.219h0z" fill="#006b00"/><path d="M25.308 14.198s.133.346 0 .517.011.312.091.312.355.272.132.272-.349-.085-.349.154.308 1.315.217 1.573-.068.456.062.39.212-.234.141-.559-.141-.248-.141-.529.07-.593.07-.593.117.088.034.408.103.762.103.882.006.451-.066.484-.137.233-.203.08-.108-.403-.193-.23-.069.57-.157.589-.221.207-.221.132-.125-.212-.087-.339.071-.142.102-.02.16.121.16.02-.045-.052 0-.28.096-.532 0-.514-.242.167-.262-.108-.098-.404-.035-.457.148-.245.175-.094-.092.294-.072.348.03.177.113.074.131-.273.192-.115.063.033-.065-.266-.236-.466-.221-.729l.015-.446c.021-.084-.229-.496-.165-.615s.088-.501.165-.432.118.161.078.264-.08.205-.04.275.177.27.205.22.12-.002.12-.287-.103-.386-.038-.454.14.074.14.074z" fill="#ffd100" class="C"/><g fill="#1e5aa6"><path d="M26.401 13.521l.197-.005-.351.434.421.48-.829 1.02.782.919a2.38 2.38 0 0 1-.319.563l-.449-.485.814-.992-.669-.741.402-1.194zm-3.02.091l.393.416-.416.508.866.92-.716.938a2.75 2.75 0 0 0 .342.604l.426-.526-.875-.952.641-.796-.45-1.116-.211.005z"/><path d="M24.566 16.078l-.309.402 1.105 1.249c.195-.096.348-.206.515-.338l-.576-.65.234-.673.337.38-1.053 1.313c-.176-.073-.371-.188-.548-.329l.557-.691-.262-.663z"/></g><path d="M28.386 12.851l.146 3.796c.189-.09.233.106.233.106s.065.62-.098.703c-.294.153-.423.187-.423.187l-.283-.206s-.288-.402-.353-.581-.144-.977-.118-1.149.046-1.182.033-1.233-.065-.894-.033-1.022.235-.69.229-.69c0 0 .667.026.667.09z" fill="url(#A)"/><path d="M27.732 12.206c.137 0 .242.115.274.217.006.045-.013.077-.007.16s-.993.019-1 .013c0 0 .464-.441.732-.39z" fill="#ff7000"/><path d="M28.83 17.667s.314-.07.399-.179c.052-.038.327.402-.399.179z" fill="#fff" stroke="#000" stroke-width=".5" class="D"/><path d="M28.309 12.46a.05.05 0 0 1-.1 0 .05.05 0 0 1 .1 0z" fill="#000"/><g class="B"><path d="M25.821 11.909s.521.551.858.545c.061.162-.153.312-.239.384-.171-.054-.327.01-.725-.469.025-.305.112-.447.106-.459zm2.07-2.771c.049.353-.003.435-.026.583s.904.203 1.143-.09c-.024.132-.303.668-1.564.662.478.443-.153.796-.422.688.496-.371-.141-.592-.496-.353.067-.203.563-1.227 1.366-1.49z"/></g><path d="M27.05 11.617c-.095-.389-.14-.836.069-1.006-.276-.186-.576.006-.576.006s-.008.012-.016.024c-.064.089-.278.385.016.917-.784-.203-.456.508-.398.562.03-.114.447-.221.551.359.035.118-.176.287-.244.342l-.02.017s.663.135.749-.742c.113-.068.664-.434.647-1.191-.506.01-.729.567-.779.713z" fill="#00f" class="C"/><path d="M24.088 12.064s-.508.431-.796.293c-.214.126-.465-.096-.465-.096s.294 1.059 1.347.293c-.018-.233-.074-.473-.086-.491z" class="B"/><path d="M23.285 12.34c.043-.221.221-.329.361-.12.19.036.38-.724-.294-.598.19-.993-.38-1.364-.38-1.364s-.202 1.101-.11 1.305-.135-.377-.863-.539c-.012.832.814 1.221.814 1.221s.233.209.471.096z" fill="#00f"/><path d="M22.597 11.139c-.214.066-.735-.248-.405-.656-1.084-.024-1.674-.94-1.313-.765s.619-.197.889 0c-.331-.299.115-.538.115-.538s.925.269 1.09 1.071c-.055.156-.08.431-.092.419 0-.006-.573-.01-.285.469z" class="B"/><g fill="#cdad56"><path d="M24.327 7.431c.005-.027.697-.265.744-.659s-.009-.128-.009-.128.192-.178.122-.274-.047.124-.159.119-.051-.238-.051-.238-.009-.027-.042-.041c-.047.005-.154-.096-.154-.096s-.07-.091-.131.197c.033.307.234.247.234.448s-.178.357-.229.361-.033-.169-.033-.169-.028-.082-.047-.082.103-.018.084-.247c-.042-.274-.075.064-.15.05s-.019-.252.009-.279-.033-.142-.197.151c-.014.142-.033-.037-.066-.027a.25.25 0 0 0 .033.302c.117.105.192.21.187.265s-.066.178-.15.178.005-.151 0-.201-.145-.233-.145-.233-.098-.156-.089-.16-.225.224-.084.343c-.108-.014-.117.027-.117.027 0 .055.145.078.164.174s-.15.151-.15.151.07.096.267-.091c.005.119-.075.201-.075.201.065.029.117.026.126.101 0 0 .103-.114.108-.142zm-.75.142s-.088-.127-.091-.152-.431.032-.632-.477c-.131-.241 0-.1 0-.1l.008-.117s-.14-.167-.08-.254.035.112.112.113c.095-.004.044-.216.044-.216s.008-.025.036-.037c.04.004.056.129.092.138s.11-.147.133-.179c.033-.005.032-.129.083.133-.028.279-.264.225-.264.408s.151.325.195.329.028-.154.028-.154.024-.075.04-.075-.139.029-.123-.179c.036-.195.115.013.179 0s-.007-.206.011-.236c.004-.03.098-.156.134.124.012.129.084-.111.112-.103.048.104-.021.243-.088.339-.099.096-.145.201-.14.251s.027.112.099.112.024-.087.028-.133.123-.194.123-.194c.023-.037.004-.105.029-.137.039 0 .055-.052.095.093s.087-.096.087-.096.056.179-.064.287c.091-.012.099.025.099.025 0 .05-.043.071-.059.158s.048.137.048.137-.059.087-.227-.083a.28.28 0 0 0 .064.183c-.056.026-.099.024-.107.092z"/></g><path d="M24.676 7.475c-.102.299-.471.186-.471.186s.012.15-.024.221c.03.022.248.19.477.233.329.062 1.004-.108 1.231.144s.215.455.215.455-.295.034-.213.137c.053.067.2.117.213.187.041.222-.138.621-.074.771-.102.009-.11.114-.11.114-.006.118-.3.048-.3.048l.196-.568c.012-.108-.129-.299-.239-.299s-.19.341-.19.341-.055.257-.037.281-.074-.084-.074-.084-.029.104-.076.168c-.053.071-.126.102-.126.102s-.055-.156-.037-.215.3-.293.276-.461c-.011-.074-.021-.203-.113-.246-.117-.054-.332-.015-.462-.041-.071.122-.104.79-.055.832s-.122.131-.122.131l-.202.006c-.003-.091.119-.338.119-.547l.016-.434s-.136.034-.208.168c-.061.112-.061.323-.055.353.012.066.073.251.055.305s-.337.125-.337.125l-.012-.174s.135-.084.135-.293l.006-.527c-.004-.011-.11-.469-.25-.778-.094-.206-.238-.3-.245-.317-.018-.042-.018-.09-.018-.09s-.202.144-.441-.162c.219-.182.453-.048.453-.048s.061-.168.343-.156.337.168.325.15c0 0 .208-.18.435-.018z" fill="#923f00"/><path d="M25.781 10.588c.005 0 .52.015.525.284s-.158.199-.163.199-.377-.045-.377-.045l.015-.439z" fill="#00f"/><path d="M25.281 10.513s.642-.005.607.269-.199.22-.199.22l-.311-.025-.097-.463z" class="B"/><path d="M24.92 10.483l.372.03s.224.03.214.239-.23.214-.23.214l-.362-.02.005-.463z" fill="#00f"/><path d="M24.047 10.588c-.005 0-.52.015-.525.284s.158.199.163.199.377-.045.377-.045l-.015-.439z" class="B"/><path d="M24.547 10.513s-.643-.005-.607.269.199.22.199.22l.311-.025.097-.463z" fill="#00f"/><path d="M24.909 10.483l-.372.03s-.224.03-.214.239.229.214.229.214l.362-.02-.005-.463z" class="B"/><g fill="#5e0043"><path d="M26.287 13.165c.099.032.024.331-.023.358l-.357-.014s.268-.386.381-.344zm-2.216.413c-.084-.115-.207-.431-.319-.344-.099.032-.023.331.023.358l.296-.014z"/></g><path d="M23.628 11.364l1.288.824 1.16-.763s.242-.13.221-.224-.104-.057-.146-.041-1.214.828-1.214.828l-1.248-.771s-.092-.028-.108.029.035.09.047.118z" fill="#b4b6b9"/><g fill="#ff7000"><path d="M27.947 17.427s-.563.17-.406.175h.675l-.269-.175z"/><path d="M28.175 17.614l-.5.014s-.126.112-.134.138.083.035.083.035.516.131.906.046c.197-.067.231-.148.093-.197s-.444-.034-.448-.036z"/></g><path d="M22.391 12.99s-.065.2 0 .3a30.39 30.39 0 0 1 .474.909s.279-.337.381-.346.056.873.056.873-.167.154-.27.145.251.346.242.646-.465 1.791-.632 1.818-.312-.281-.312-.547.172-.689.163-.807-.832 1.267-.882 1.483c-.009.041.045.189.045.189s-.322.026-.251.436c-.949-.327-1.414-.891-1.404-1.463.004-.22-.206-.736 0-1.306.331-.918 1.138-1.965 1.144-2.066.009-.164.074-.236.084-.327s-.028-.555.065-.636.577-.282.698-.273.223.091.223.091.456 0 .484.173-.093.236-.093.236.065.246-.214.473z" fill="#8a9396"/><path d="M22.662 18.146c.154.106.509.169.509.169s-.872.235-1.758-.221c-.081-.355.19-.434.257-.437.157-.041.838.382.992.489z" fill="#2b2b2b"/><path d="M23.729 18.108c.954.504 1.056.165 1.713-.315.046-.033.263.77 1.184.315 1.303-.644-1.117-1.718-1.46-1.695s-2.391 1.191-1.437 1.695z" fill="#00713d"/></g><defs><linearGradient id="A" x1="28.275" y1="15.607" x2="29.018" y2="15.599" gradientUnits="userSpaceOnUse"><stop stop-color="#d5dfff"/><stop offset="1" stop-color="#fff"/></linearGradient><clipPath id="B"><path fill="#fff" d="M0 0h32v24H0z"/></clipPath><clipPath id="C"><path fill="#fff" d="M0 0h18v14H0z"/></clipPath></defs></svg>
