<svg xmlns="http://www.w3.org/2000/svg" viewBox="0 0 32 24" fill="none"><g clip-path="url(#A)"><path fill="#fff" d="M0 0h32v24H0z"/><g fill-rule="evenodd"><g fill="#58a5ff"><path d="M22 0h10v24H22V0zM0 0h12v24H0V0z"/></g><path d="M10 0H22V24H10V0Z" fill="#fff"/><path d="M11.768 15.718l.522.683 2.369-3.212v-.569l-2.891 3.097z" fill="#6c301f"/></g><g fill="#979797"><path d="M13.404 12.136l.173-.239c2.244 1.687 3.834 2.982 4.722 4.062l-.555.457c-.845-1.026-2.138-2.624-4.341-4.28zm3.617-1.41l-.258-.25 1.415-1.459.31.301 1.469-1.368.245.263-1.719 1.601-.297-.289-1.164 1.201z"/></g><g fill-rule="evenodd"><g fill="#5ab92d"><path d="M12.506 8.445l-.161-.734c-.189.432-.249.825-.173 1.177l-.219.311c-.204-.269-.458-.772-.458-.772.009.147.005.296.001.441-.009.341-.018.658.143.857l-.002.004-.091.197-.587-.617c.029.476.16.851.4 1.119l-.107.416-.364-.381c.026.434.099.721.288.962l-.006.205-.394-.412c.028.458.206.76.442 1.011a3.77 3.77 0 0 0 .096.431l.021.075-.557-.275c.174.401.427.621.716.776l.195.52-.779-.224c.277.419.616.585.98.681l.232.445-.643-.187c.268.407.596.575.949.672.232.331.482.602.741.806l-.647.285a1.51 1.51 0 0 0 1.029-.04l.035.017a4.2 4.2 0 0 0 .434.176l-.458.201a1.51 1.51 0 0 0 1.009-.032l.032.009.48.124c-.127-.031.341.084.436.108.304.077.477.132.561.179l.017.01.237-.167a.34.34 0 0 0-.113-.094c-.114-.064-.299-.122-.631-.207l-.445-.11-.467-.12-.121-.034c.033-.306-.005-.623-.214-.976l-.152.864a4.19 4.19 0 0 1-.479-.189l-.138-.074a1.51 1.51 0 0 0-.381-.939l.003.655a3.79 3.79 0 0 1-.548-.639l.123.065c.014-.389-.046-.773-.383-1.166l.002.691c-.109-.191-.214-.397-.313-.617a1.51 1.51 0 0 0-.034-1.024l-.18.504-.08-.219c.189-.317.31-.667.22-1.15l-.378.658-.033-.114c-.034-.121-.062-.244-.083-.367.269-.228.486-.511.563-.975l-.61.513.004-.311c.289-.176.538-.415.689-.841l-.631.367.073-.316v.01c.344-.183.646-.427.818-.915l-.633.368.117-.259c.05-.103.121-.226.213-.369.307-.097.592-.266.835-.62l-.5.137.519-.674-.225-.18-.233.296z"/><path d="M19.634 8.445l.161-.734c.189.432.249.825.173 1.177l.219.311c.204-.269.458-.772.458-.772-.009.147-.005.296-.001.441.009.341.018.658-.143.857l.002.004.091.197.587-.617c-.029.476-.16.851-.4 1.119l.107.416.364-.381c-.026.434-.099.721-.288.962l.006.205.394-.412c-.028.458-.206.76-.442 1.011a3.79 3.79 0 0 1-.095.431l-.022.075.557-.275c-.174.401-.427.621-.716.776l-.195.52.778-.224c-.276.419-.616.585-.98.681l-.232.445.643-.187c-.269.407-.596.575-.949.672-.233.331-.482.602-.741.806l.647.285a1.51 1.51 0 0 1-1.029-.04l-.035.017a4.2 4.2 0 0 1-.434.176l.458.201a1.51 1.51 0 0 1-1.009-.032l-.032.009-.48.124c.127-.031-.341.084-.436.108-.304.077-.477.132-.561.179l-.017.01-.237-.167a.34.34 0 0 1 .113-.094c.114-.064.299-.122.631-.207l.445-.11.467-.12.121-.034c-.033-.306.005-.623.214-.976l.152.864a4.18 4.18 0 0 0 .479-.189l.138-.074a1.51 1.51 0 0 1 .381-.939l-.003.655c.189-.173.373-.387.548-.639l-.123.065c-.014-.389.047-.773.383-1.166l-.002.691c.109-.191.214-.397.313-.617a1.51 1.51 0 0 1 .034-1.024l.18.504.079-.219c-.189-.317-.31-.667-.22-1.15l.378.658.033-.114a3.52 3.52 0 0 0 .083-.367c-.269-.228-.486-.511-.563-.975l.61.513-.003-.311c-.289-.176-.539-.415-.689-.841l.631.367-.073-.316v.01c-.344-.183-.646-.427-.818-.915l.633.368-.117-.259a3.66 3.66 0 0 0-.213-.369c-.307-.097-.593-.266-.835-.62l.5.137-.519-.674.225-.18.233.296z"/></g><path d="M13.417 9.323l1.207 3.199h-.887s-.32 1.01.284 1.01h3.714s.404-.253.202-1.01-1.224-2.845-1.224-2.845.437-.347.437-.603-.437-.285-.437-.285h-2.755c-.352.057-.54.534-.54.534z" fill="#efe298"/></g><path d="M14.444 10.501l1.875-.117-1.875.117z" fill="#c5a042"/><path d="M14.444 10.501l1.875-.117" stroke="#b47d00" stroke-width=".5"/><path d="M14.9 11.521l1.875-.116-1.875.116z" fill="#c5a042"/><path d="M14.9 11.521l1.875-.116" stroke="#b47d00" stroke-width=".5"/><path d="M15.257 12.541l1.875-.116-1.875.116z" fill="#c5a042"/><path d="M15.257 12.541l1.875-.116" stroke="#b47d00" stroke-width=".5"/><path fill-rule="evenodd" d="M15.881 7.588s-.289.059-.289.241-.078.338-.078.338.088.832.746 1.025 1.044.239 1.322.627 1.127 1.481.786 2.424-.609 1.424-.609 1.424 1.244-1.171 1.244-1.727-.184-1.093-.735-1.799-.807-1.117-1.218-1.435-.999-.611-.999-.611.209-.224.105-.329-.276-.178-.276-.178z" fill="#5ab92d"/></g><defs><clipPath id="A"><path fill="#fff" d="M0 0h32v24H0z"/></clipPath></defs></svg>
