<svg xmlns="http://www.w3.org/2000/svg" viewBox="0 0 32 24" fill="none"><style><![CDATA[.B{fill-rule:evenodd}.C{stroke-width:2.9}]]></style><g clip-path="url(#C)"><path fill="#fff" d="M0 0h32v24H0z"/><g class="B"><path d="M0 0H32V24H0V0Z" fill="#c51918"/><path d="M4 4H28V20H4V4Z" fill="#4564f9"/></g><path d="M5 5H27V19H5V5Z" stroke="#cbdaff" stroke-opacity=".1" stroke-width="2"/><mask id="A" maskUnits="userSpaceOnUse" x="4" y="4" width="24" height="16"><path d="M4 4H28V20H4V4Z" fill="#fff" class="B"/><path d="M5 5H27V19H5V5Z" stroke="#fff" stroke-width="2"/></mask><g mask="url(#A)"><path d="M16.5 5l.607-1.317-.621-.286-.616.297L16.5 5zm0 0l.608-1.317h.001l.002.001.006.003.019.009.06.029.205.103.694.384a15.34 15.34 0 0 1 2.091 1.474c1.48 1.249 3.265 3.307 3.265 6.067 0 2.731-1.755 4.906-3.21 6.265-.757.707-1.507 1.263-2.066 1.643l-.686.441-.202.119-.058.033-.018.01-.006.003-.002.001H17.2c0 0-.001 0-.7-1.27m0-14l-.631-1.306h-.001l-.002.001-.006.003-.018.009-.059.03-.203.106-.691.395a16.04 16.04 0 0 0-2.081 1.498c-1.465 1.252-3.258 3.31-3.258 6.016 0 2.677 1.762 4.853 3.204 6.215.754.712 1.501 1.278 2.058 1.666l.683.452.2.122.058.034.018.01.006.003.002.001h.001c0 0 .001.001.721-1.258m0 0l.699 1.27-.713.392-.706-.404L16.5 19z" stroke="#c1c9f1" stroke-opacity=".118" class="C"/><use href="#D" fill="#cce0e5"/><use href="#D" stroke="#c1c9f1" stroke-opacity=".748" class="C"/><use href="#D" stroke="#c51918" class="C"/><mask id="B" maskUnits="userSpaceOnUse" x="12" y="6" width="9" height="12"><path d="M17.332 15.205c-.319.348-.64.645-.92.883a11.05 11.05 0 0 1-.938-.914c-.917-1.011-1.624-2.207-1.624-3.406 0-1.174.684-2.256 1.574-3.144a9.27 9.27 0 0 1 .989-.852 8.71 8.71 0 0 1 .97.821c.876.863 1.568 1.945 1.568 3.175 0 1.254-.714 2.452-1.618 3.438zm-1.622-7.893h.001-.001z" fill="#fff"/><path d="M17.332 15.205c-.319.348-.64.645-.92.883a11.05 11.05 0 0 1-.938-.914c-.917-1.011-1.624-2.207-1.624-3.406 0-1.174.684-2.256 1.574-3.144a9.27 9.27 0 0 1 .989-.852 8.71 8.71 0 0 1 .97.821c.876.863 1.568 1.945 1.568 3.175 0 1.254-.714 2.452-1.618 3.438zm-1.622-7.893h.001-.001z" stroke="#fff" class="C"/></mask><g mask="url(#B)"><path fill="#91cbcb" d="M12.933 14H20.4v1.5h-7.467z"/><path d="M13.602 15.198l5.781-.181c.487-.183-.913 3.508-2.702 3.508s-3.078-3.327-3.078-3.327z" fill="#fdf9a1" class="B"/><path d="M18.594 14.755l-.951.732c-1.499-1.948-2.128-3.963-1.859-6.019l1.19.155c-.225 1.722.306 3.425 1.62 5.132z" fill="#a68861"/><path d="M16.394 9.637l-.907 1.063c-.034.04-.099.007-.087-.044l.312-1.326h-1.419c-.054 0-.07-.074-.02-.096l1.213-.532-.861-1.135c-.03-.04.011-.095.058-.077l1.354.528.309-1.243c.013-.051.085-.051.097 0l.307 1.243 1.342-.522c.048-.019.09.039.057.078l-.93 1.128 1.283.531c.05.021.035.096-.019.096h-1.264l.192 1.356a.05.05 0 0 1-.087.039l-.93-1.089zM15.6 13h4.8v1.05h-4.8V13z" fill="#239e46" class="B"/><path d="M14.872 12.393h-.005a.22.22 0 0 1-.102.128c-.054.034-.123.051-.209.051a.47.47 0 0 1-.188-.037c-.057-.025-.106-.061-.146-.109s-.072-.107-.095-.178-.034-.152-.034-.245.011-.173.034-.243.054-.13.096-.178.092-.084.15-.11a.49.49 0 0 1 .195-.038c.1 0 .184.022.251.066a.44.44 0 0 1 .155.175l-.11.066a.31.31 0 0 0-.114-.139.32.32 0 0 0-.182-.05.34.34 0 0 0-.134.026c-.041.017-.075.042-.105.073s-.052.069-.068.113-.024.093-.024.148v.178a.44.44 0 0 0 .024.149c.016.045.039.083.068.114s.065.056.108.073.091.026.144.026c.038 0 .075-.005.11-.015s.065-.025.091-.045.047-.045.062-.075.022-.065.022-.106v-.109h-.246v-.117h.378v.565h-.125v-.161zm.835-.939v.68c0 .105.02.184.059.239s.109.081.208.081.169-.027.208-.081.059-.134.059-.239v-.68h.134v.649a.88.88 0 0 1-.022.208c-.014.059-.038.108-.07.146s-.074.068-.126.087-.115.028-.19.028a.54.54 0 0 1-.188-.028c-.051-.019-.091-.048-.122-.087s-.053-.088-.066-.146-.02-.128-.02-.208v-.649h.134zm1.957 1.099l-.112-.324h-.451l-.112.324h-.136l.39-1.099h.171l.39 1.099h-.141zm-.334-.976h-.008l-.189.535h.386l-.189-.535zm1.851.05h-.008l-.094.184-.267.479-.267-.479-.094-.184h-.008v.926h-.131v-1.099h.179l.32.592h.008l.322-.592h.173v1.099h-.131v-.926z" fill="#c51918" class="B"/></g></g></g><defs><clipPath id="C"><path fill="#fff" d="M0 0h32v24H0z"/></clipPath><path id="D" d="M16.4 6.037l.687-1.277-.703-.378-.695.391.711 1.264zm0 0l.688-1.277.001.001.002.001.006.003.016.009.048.027.159.093.527.34a11.7 11.7 0 0 1 1.572 1.293c1.124 1.107 2.432 2.891 2.432 5.241 0 2.327-1.286 4.204-2.382 5.398-.564.615-1.125 1.1-1.544 1.431l-.517.387-.155.107-.046.031-.015.01-.005.003-.002.001h-.001a212.63 212.63 0 0 1-.785-1.219m0-11.881l-.712-1.263h-.001l-.002.001-.005.003-.015.009-.047.028-.157.096-.522.349a12.27 12.27 0 0 0-1.562 1.311c-1.11 1.107-2.426 2.891-2.426 5.197 0 2.282 1.293 4.16 2.376 5.354.561.619 1.118 1.111 1.535 1.45l.513.396.153.109.045.032.014.01.005.003.002.001h.001c0 0 .001 0 .806-1.206m0 0l.784 1.22-.799.513-.79-.527.805-1.206z"/></defs></svg>
