<svg xmlns="http://www.w3.org/2000/svg" viewBox="0 0 32 24" fill="none"><style><![CDATA[.B{fill:#ea1a1a}.C{fill-rule:evenodd}]]></style><g clip-path="url(#B)"><path fill="#fff" d="M0 0h32v24H0z"/><path d="M0 0V24H32V0H0Z" class="B C"/><mask id="A" maskUnits="userSpaceOnUse" x="0" y="0" width="32" height="24"><path d="M0 0V24H32V0H0Z" fill="#fff" class="C"/></mask><g mask="url(#A)"><path d="M15.87 11.575s-5.79-5.163 1.119-8.172c0 0 2.009 2.217.502 4.705l-1.225 1.837c-.642.897-.849 1.187-.396 1.63zM7.325 7.868c-.398 7.525 6.809 4.655 6.809 4.655-.598.207-.765-.107-1.28-1.083h0l-1.096-1.917c-1.552-2.461-4.433-1.655-4.433-1.655zm10.913 3.96s7.432 2.225 2.448 7.877c0 0-2.759-1.157-2.448-4.05l.331-2.182c.202-1.085.267-1.435-.331-1.645zm-1.953 1.735s1.332 7.642-5.951 5.711c0 0-.198-2.985 2.528-4l2.101-.68h0 0 0c1.06-.305 1.402-.403 1.322-1.031zm9.194-3.286c-4.555-6.002-8.205.843-8.205.843.323-.545.653-.412 1.676 0l2.075.757c2.774.877 4.453-1.599 4.453-1.599z" fill="#fff" class="C"/><path d="M9.95 10.342l.422-.268c.926 1.458 2.129 2.175 3.629 2.175v.5c-1.679 0-3.036-.81-4.051-2.407z" class="B"/><use href="#C" class="B C"/><path d="M19.959 15.728a.75.75 0 1 0 0-1.5.75.75 0 1 0 0 1.5zm-6 2a.75.75 0 1 0 0-1.5.75.75 0 1 0 0 1.5zm-4-7a.75.75 0 1 0 0-1.5.75.75 0 1 0 0 1.5zm6-3a.75.75 0 1 0 0-1.5.75.75 0 1 0 0 1.5z" class="B C"/><path d="M15.635 7.053l.44.238c-.833 1.536-.891 2.953-.186 4.279l-.441.235c-.787-1.481-.721-3.074.188-4.752zm6.38 2.633l-.075.494c-1.956-.297-3.42.116-4.422 1.229l-.372-.335c1.125-1.249 2.758-1.709 4.869-1.389z" class="B"/><path d="M20.351 15.365l-.49.099c-.39-1.939-1.279-3.174-2.668-3.735l.187-.464c1.558.63 2.549 2.007 2.971 4.1zm-6.444 1.785l-.26-.427c1.689-1.03 2.545-2.287 2.597-3.784l.5.018c-.059 1.68-1.014 3.082-2.837 4.194z" class="B"/></g></g><defs><clipPath id="B"><path fill="#fff" d="M0 0h32v24H0z"/></clipPath><path id="C" d="M21.75 10.75a.75.75 0 1 0 0-1.5.75.75 0 1 0 0 1.5z"/></defs></svg>
