<svg xmlns="http://www.w3.org/2000/svg" viewBox="0 0 32 24" fill="none"><style><![CDATA[.B{fill-rule:evenodd}.C{fill:#4564f9}]]></style><g clip-path="url(#B)"><path fill="#fff" d="M0 0h32v24H0z"/><path d="M0 0V24H32V0H0Z" fill="#f7fcff" class="B"/><mask id="A" maskUnits="userSpaceOnUse" x="0" y="0" width="32" height="24"><path d="M0 0V24H32V0H0Z" fill="#fff" class="B"/></mask><g mask="url(#A)" class="B C"><path d="M0 0v8h32V0H0zm0 16v8h32v-8H0z"/><use href="#C"/><path d="M10.318 10.503l-.867.447.165-.947-.701-.74h.969l.433-.931.433.931h.969l-.701.74.165.947-.867-.447zm0 4.2l-.867.447.165-.947-.701-.74h.969l.433-.931.433.931h.969l-.701.74.165.947-.867-.447z"/><use href="#D"/><path d="M22.318 14.703l-.867.447.166-.947-.701-.74h.969l.433-.931.433.931h.969l-.701.74.165.947-.867-.447z"/></g></g><defs><clipPath id="B"><path fill="#fff" d="M0 0h32v24H0z"/></clipPath><path id="C" d="M16.402 12.671l-.867.447.165-.947-.701-.74h.969l.433-.931.433.931h.969l-.701.74.165.947-.867-.447z"/><path id="D" d="M22.318 10.503l-.867.447.166-.947-.701-.74h.969l.433-.931.433.931h.969l-.701.74.165.947-.867-.447z"/></defs></svg>
