<svg xmlns="http://www.w3.org/2000/svg" viewBox="0 0 32 24" fill="none"><style><![CDATA[.B{fill-rule:evenodd}.C{fill:#fff}.D{stroke:#fff}.E{stroke-width:.5}.F{fill:#feca00}.G{fill:#e31d1c}.H{fill:#56c6f5}.I{stroke-width:1.125}]]></style><g clip-path="url(#F)"><path d="M0 0h32v24H0z" class="C"/><path d="M0 0V24H32V0H0Z" fill="#f7fcff" class="B"/><mask id="A" maskUnits="userSpaceOnUse" x="0" y="0" width="32" height="24"><path d="M0 0V24H32V0H0Z" class="B C"/></mask><g mask="url(#A)"><path d="M0 0V8H32V0H0Z" class="B G"/><path d="M0 16v8h32v-8H0z" fill="#3d58db" class="B"/><path d="M10.076 6.397h11.4v4h-11.4z" class="G"/><path d="M10.652 8.96h10.128l.022 3.402-.005 2.231-.003.713v.197.029l-.024.127c-.023.11-.062.272-.123.468-.124.393-.337.915-.692 1.433-.695 1.014-1.955 2.056-4.306 2.056s-3.547-1.041-4.185-2.045c-.328-.516-.515-1.035-.62-1.428l-.101-.467-.018-.123-.002-.061-.002-.196-.008-.708-.026-2.221-.034-3.405zm.07 6.559h0z" fill="#f7fcff" stroke="#e31d1c" class="I"/><mask id="B" maskUnits="userSpaceOnUse" x="10" y="8" width="12" height="13"><path d="M10.652 8.96h10.128l.022 3.402-.005 2.231-.003.713v.197.029l-.024.127c-.023.11-.062.272-.123.468-.124.393-.337.915-.692 1.433-.695 1.014-1.955 2.056-4.306 2.056s-3.547-1.041-4.185-2.045c-.328-.516-.515-1.035-.62-1.428l-.101-.467-.018-.123-.002-.061-.002-.196-.008-.708-.026-2.221-.034-3.405zm.07 6.559h0z" class="C D I"/></mask><g mask="url(#B)" class="B"><path d="M10.498 9.04h2.109v2.142h-2.109V9.04zm4.219 2.142h-2.109v2.142h-2.109v2.142h2.109v2.142h-2.109v2.142h2.109v-2.142h2.109v2.142h2.109v-2.142h2.109v2.142h2.109v-2.142h-2.109v-2.142h2.109v-2.142h-2.109v-2.142h2.109V9.04h-2.109v2.142h-2.109V9.04h-2.109v2.142zm0 2.142v-2.142h2.109v2.142h-2.109zm0 2.142v-2.142h-2.109v2.142h2.109zm2.109 0v2.142h-2.109v-2.142h2.109zm0 0v-2.142h2.109v2.142h-2.109z" fill="#f50100"/></g><path d="M10.453 8.163s.652-.348 1.209-.528l.996-.278-.828-3.052-1.658-.62-.939 1.548 1.22 2.929z" class="B D E H"/><path d="M10.181 6.491l.191-.092c.197.421.456.551.812.418.363-.136.511-.392.459-.798l.209-.028c.065.504-.139.856-.595 1.027-.464.173-.834-.012-1.075-.527z" class="C"/><path d="M10.632 5.542l-.182.11c-.04.024-.09-.011-.081-.057l.041-.209-.187-.103c-.041-.023-.036-.084.009-.099l.202-.069-.005-.213c-.001-.047.054-.073.09-.042l.16.14.182-.11c.04-.024.09.011.081.057l-.041.209.187.103c.041.023.036.084-.009.099l-.202.069.005.213c.001.047-.055.073-.09.042l-.16-.14z" class="B F"/><path d="M14.541 7.076s.556-.05 1.141-.038l1.079.016.286-3.009-1.252-1.131-1.392 1.158.139 3.006z" class="B D E H"/><path d="M15.75 6.585c.482 0 .529-.521.529-.876-.123-.197-.099-.338-.494-.338s-.44.119-.556.338c0 .355.039.876.521.876zm.543-1.472c.482 0 .529-.521.529-.876-.123-.197-.099-.338-.494-.338s-.441.119-.556.338c0 .355.039.876.521.876z" class="B F"/><path d="M15.238 5.113c.482 0 .528-.521.528-.876-.123-.197-.098-.338-.494-.338s-.441.119-.556.338c0 .355.039.876.521.876z" class="B F"/><path d="M12.445 7.605l-.072-.245-.867-2.944-.041-.139.101-.105 1.239-1.284.149-.155.175.125 1.363.968.094.067.01.115.252 2.924.023.261-.261.011h0 0 0-.001-.005l-.018.001-.068.003-.233.014-.604.057c-.177.025-.422.085-.631.143l-.259.075-.076.023-.02.006-.005.002h-.001 0 0l-.243.077zm0 0l.243-.077-.243.077z" fill="#2e42a5" class="D E"/><mask id="C" maskUnits="userSpaceOnUse" x="11" y="2" width="5" height="6"><path d="M12.445 7.605l-.072-.245-.867-2.944-.041-.139.101-.105 1.239-1.284.149-.155.175.125 1.363.968.094.067.01.115.252 2.924.023.261-.261.011h0 0 0-.001-.005l-.018.001-.068.003-.233.014-.604.057c-.177.025-.422.085-.631.143l-.259.075-.076.023-.02.006-.005.002h-.001 0 0l-.243.077zm0 0l.243-.077-.243.077z" class="C D E"/></mask><g mask="url(#C)"><path d="M12.436 6.638l-.251-.59c.538-.235 1.447-.38 2.403-.436l.037.641c-.889.053-1.73.184-2.189.385zm-.422-1.428l-.251-.59c.538-.236 1.694-.426 2.651-.483l.037.641c-.889.053-1.978.23-2.437.431z" fill="#c51918"/></g><path d="M18.969 7.607l.068-.252.796-2.949.036-.132-.093-.101-1.168-1.279-.149-.163-.18.128-1.363.968-.094.067-.01.115-.252 2.924-.023.261.261.011h0 0 0 .001.005l.018.001.068.003.233.014.604.057c.177.025.422.085.631.143l.259.075.077.023.02.006.005.002h.001 0 0l.249.079zm0 0l-.249-.079.249.079z" fill="#2e42a5" class="D E"/><mask id="D" maskUnits="userSpaceOnUse" x="16" y="2" width="5" height="6"><path d="M18.969 7.607l.068-.252.796-2.949.036-.132-.093-.101-1.168-1.279-.149-.163-.18.128-1.363.968-.094.067-.01.115-.252 2.924-.023.261.261.011h0 0 0 .001.005l.018.001.068.003.233.014.604.057c.177.025.422.085.631.143l.259.075.077.023.02.006.005.002h.001 0 0l.249.079zm0 0l-.249-.079.249.079z" class="C D E"/></mask><g mask="url(#D)" class="B"><path d="M18.398 6.466s.294-.164.336-.44.497-.616.27-.575-.097.072-.427 0-.755-.12-.755-.322.212-.363.039-.363-.543-.192-.468-.045-.171-.019-.048.285-.026.61.048.691-.048.476-.048.476.045.147.124-.073.251-.374.165-.187-.196.632-.098.554.195-.294.195-.367.247-.359.247-.143-.233.386-.116.386.181.046.255-.17.25-.359.323-.216.057.135-.041.322 0 .187 0 .187z" class="F"/><path d="M17.707 4.867l-.109-.183c.196-.121.377-.153.535-.086.072.031.126.066.268.165l.018.013c.147.103.225.145.273.145v.214c-.11 0-.205-.051-.393-.183l-.019-.013c-.127-.09-.176-.121-.229-.144-.088-.037-.2-.017-.344.071zm-.346 1.397c.062 0 .113-.05.113-.111s-.05-.111-.113-.111-.113.05-.113.111.05.111.113.111zm.323.103c0 .061-.05.111-.113.111s-.113-.05-.113-.111.05-.111.113-.111.113.05.113.111zm.266.103c.062 0 .113-.05.113-.111s-.05-.111-.113-.111-.113.05-.113.111.05.111.113.111zm.465.067c0 .061-.05.111-.113.111s-.113-.05-.113-.111.05-.111.113-.111.113.05.113.111z" fill="#c51918"/></g><path d="M21.352 8.186l-.108.249-.239-.128h0 0 0l-.001-.001-.005-.003-.021-.011-.079-.041-.279-.136c-.229-.108-.52-.235-.783-.32l-.693-.202-.207-.052-.055-.013-.014-.003-.003-.001h-.001 0 0 0 0l-.258-.058.072-.255.846-2.976.035-.122.118-.044 1.658-.62.194-.072.107.177.939 1.548.067.111-.051.119-1.238 2.853z" class="D E H"/><mask id="E" maskUnits="userSpaceOnUse" x="18" y="3" width="5" height="6"><path d="M21.352 8.186l-.108.249-.239-.128h0 0 0l-.001-.001-.005-.003-.021-.011-.079-.041-.279-.136c-.229-.108-.52-.235-.783-.32l-.693-.202-.207-.052-.055-.013-.014-.003-.003-.001h-.001 0 0 0 0l-.258-.058.072-.255.846-2.976.035-.122.118-.044 1.658-.62.194-.072.107.177.939 1.548.067.111-.051.119-1.238 2.853z" class="C D E"/></mask><g mask="url(#E)"><path d="M21.127 5.089l-.142.159c-.031.035-.09.016-.094-.031l-.022-.212-.208-.044c-.046-.01-.059-.069-.021-.097l.173-.125-.066-.202c-.015-.045.031-.086.074-.066l.194.087.142-.159c.031-.035.09-.016.094.031l.021.212.209.044c.046.01.059.069.021.097l-.173.125.066.202c.015.045-.031.086-.074.066l-.194-.087z" class="B F"/><path d="M18.995 6.488l.212-.829c.941.248 1.922.567 2.641.875l-.328.789c-.68-.291-1.622-.597-2.526-.835z" class="G"/><path d="M19.283 5.722l.05-.208c.902.224 1.86.581 2.557.914l-.09.194a14.13 14.13 0 0 0-2.517-.899zm-.267.855l.05-.208c.902.224 1.736.528 2.432.86l-.09.194c-.683-.326-1.504-.625-2.393-.846z" class="C"/><path d="M19.423 6.175l.193-.087c.081.19.182.232.35.151.397-.193 1.38.077 1.38.44 0 .142-.082.228-.207.223a.66.66 0 0 1-.257-.086l-.044-.022-.164-.079.07-.205a1.37 1.37 0 0 1 .188.089l.042.021c.085.042.142.063.174.064-.012-.166-.812-.385-1.091-.249s-.505.04-.633-.26z" fill="#272727"/></g></g></g><defs><clipPath id="F"><path d="M0 0h32v24H0z" class="C"/></clipPath></defs></svg>
