<svg xmlns="http://www.w3.org/2000/svg" viewBox="0 0 32 24" fill="none"><style><![CDATA[.B{fill-rule:evenodd}.C{stroke-width:.5}.D{fill:#feca00}]]></style><g clip-path="url(#C)"><path fill="#fff" d="M0 0h32v24H0z"/><path d="M0 0V24H32V0H0Z" fill="#2e42a5" class="B"/><mask id="A" maskUnits="userSpaceOnUse" x="0" y="0" width="32" height="24"><path d="M0 0V24H32V0H0Z" fill="#fff" class="B"/></mask><g mask="url(#A)"><path d="M0 12V24H32V12H0Z" fill="#e31d1c" class="B"/><path fill="#fff" d="M10 8h12v8H10z"/><mask id="B" maskUnits="userSpaceOnUse" x="10" y="8" width="12" height="8"><path fill="#fff" d="M10 8h12v8H10z"/></mask><g mask="url(#B)"><path d="M10 14.578s2.88-.757 6-.711a25.55 25.55 0 0 1 6 .889V16H10v-1.422z" fill="#279e19" class="B"/><path d="M16.074 8.901s-.931-.419-1.581-.419-1.011.64-1.011.64m2.799.2s-.857-.306-1.455-.306-.93.468-.93.468m2.384.193s-.634-.306-1.076-.306-.688.468-.688.468m1.504.194s-.392-.306-.665-.306-.425.468-.425.468m1.056.08s-.157-.193-.266-.193-.17.295-.17.295" stroke="#026a16" class="C"/><path d="M15.926 8.901s.931-.419 1.581-.419 1.011.64 1.011.64m-2.799.2s.857-.306 1.455-.306.93.468.93.468m-2.384.193s.634-.306 1.076-.306.688.468.688.468m-1.504.194s.392-.306.665-.306.425.468.425.468m-1.056.08s.157-.193.266-.193.17.295.17.295" stroke="#026a16" class="C"/><path d="M15.888 10.398l-.114 1.882a25.86 25.86 0 0 0 .114 1.719h.294V12.28c0-.454-.172-1.882-.172-1.882h-.121z" class="B D"/><path d="M14.732 11.919s-.724.388-.724 1.535l.724 1.386h1.307v-2.282l-1.307-.639z" fill="#c51918" class="B"/><path d="M13.659 10.826s-1.691.501-1.691 2.349l2.191.187s-.12-1.074.554-1.57l-1.054-.965z" fill="#0a328c" class="B"/><path d="M12.961 10.121l2.9 2.658m-3.907-2.056L16 13.35m-4.743-1.61l4.56 2.085" stroke="#ffd018" class="C"/><path d="M11.98 13.16l3.026.338-.17.422h-.48l.327.239.737.172v-.411h.645v.873h-1.382l-.53-.635s-.445.439-.88.439-.863-.143-.863-.621v-.333l-.43-.146v-.338z" class="B D"/><path d="M16.854 11.919s.724.388.724 1.535l-.724 1.386h-1.307v-2.282l1.307-.639z" fill="#c51918" class="B"/><path d="M17.927 10.826s1.691.501 1.691 2.349l-2.191.187s.12-1.074-.555-1.57l1.054-.965z" fill="#0a328c" class="B"/><path d="M18.625 10.121l-2.9 2.658m3.908-2.056l-4.046 2.627m4.742-1.61l-4.56 2.085" stroke="#ffd018" class="C"/><path d="M19.606 13.16l-3.026.338.17.422h.48l-.327.239-.737.172v-.411h-.645v.873h1.382l.53-.635s.445.439.88.439.863-.143.863-.621v-.333l.43-.146v-.338z" class="B D"/></g></g></g><defs><clipPath id="C"><path fill="#fff" d="M0 0h32v24H0z"/></clipPath></defs></svg>
