<svg xmlns="http://www.w3.org/2000/svg" viewBox="0 0 32 24" fill="none"><g clip-path="url(#B)"><path fill="#fff" d="M0 0h32v24H0z"/><path fill-rule="evenodd" d="M0 0V24H32V0H0Z" fill="#f7fcff"/><mask id="A" maskUnits="userSpaceOnUse" x="0" y="0" width="32" height="24"><path fill-rule="evenodd" d="M0 0V24H32V0H0Z" fill="#fff"/></mask><g mask="url(#A)"><path fill-rule="evenodd" d="M0 3v3h32V3H0zm0 15v3h32v-3H0zm11.381-3.061h9.377L16.116 6.62l-4.735 8.319zm7.772-1.009H13.02l3.086-5.47 3.047 5.47z" fill="#3d58db"/><path fill-rule="evenodd" d="M11.264 9.076h9.417l-4.545 8.085-4.872-8.085zm7.781.974h-5.994l3.058 5.481 2.936-5.481z" fill="#3d58db"/></g></g><defs><clipPath id="B"><path fill="#fff" d="M0 0h32v24H0z"/></clipPath></defs></svg>
