<svg xmlns="http://www.w3.org/2000/svg" viewBox="0 0 32 24" fill="none"><style><![CDATA[.B{fill-rule:evenodd}.C{fill:#feca00}.D{fill:#f7fcff}]]></style><g clip-path="url(#B)"><path fill="#fff" d="M0 0h32v24H0z"/><path d="M0 0V24H32V0H0Z" fill="#e31d1c" class="B"/><mask id="A" maskUnits="userSpaceOnUse" x="0" y="0" width="32" height="24"><path d="M0 0V24H32V0H0Z" fill="#fff" class="B"/></mask><g mask="url(#A)"><path d="M6.094 4.141c-.008-.093.103-.137.166-.069.449.492 1.636 1.716 2.323 1.716.859 0 4.233-2.843 5.23-2.38s3.016 5.305 3.016 5.305l-1.316 1.65-1.7-.928-.321-3.648S10.217 7.471 8.582 6.86l-.919.772-1.234-2.289c-.231-.355-.309-.885-.335-1.202z" class="B D"/><path d="M8.262 8.124l-.56.339.107-.718-.453-.509.626-.105.28-.654.28.654.626.105-.453.509.107.718-.56-.339zm4.751-4.332c0-.2.162-.363.363-.363s.363.162.363.363v1.714c0 .2-.162.363-.363.363s-.363-.162-.363-.363V3.792z" class="B C"/><path d="M25.22 5.103c.083.043.062.16-.029.177-.655.12-2.322.478-2.686 1.061-.455.728.168 5.096-.753 5.696s-6.097-.253-6.097-.253l-.702-1.99 1.688-.95 3.264 1.66s.307-3.668 1.692-4.731l-.168-1.189 2.595.167c.423-.008.914.207 1.197.353z" class="B D"/><path d="M20.693 4.831l.009-.654.553.471.671-.114-.243.586.406.584-.703-.109-.421.475-.191-.654-.666-.29.584-.295zm1.221 6.374a.39.39 0 0 1 .133.528.39.39 0 0 1-.557.13l-1.549-1.034a.36.36 0 1 1 .39-.606l1.582.982z" class="B C"/><path d="M14.863 20.984c-.078.05-.17-.026-.139-.114.223-.627.747-2.25.424-2.856-.403-.759-4.497-2.403-4.556-3.501S13.86 9.36 13.86 9.36l2.075.387-.021 1.937-3.07 1.996s3.023 2.1 3.251 3.83l1.114.449-1.442 2.164c-.205.37-.636.688-.904.86z" class="B D"/><path d="M17.362 17.199l.562.335-.684.243-.237.639-.386-.503-.708.06.446-.554-.201-.602.662.161.584-.432-.037.654zm-6.259-2.242c-.223.085-.471-.039-.536-.269-.057-.201.048-.413.243-.489l1.668-.651c.185-.072.396-.002.501.167.137.221.039.512-.203.604l-1.673.639z" class="B C"/><path d="M13.663 9.765c-.124-.043-.191-.182-.149-.31s.242-.34.366-.297l1.736.607c.09.031.153.114.16.211l.155 1.904c.011.134-.185.243-.316.254a.24.24 0 0 1-.257-.223l-.144-1.637-1.553-.508z" class="C"/><path d="M16.681 8.768c.104-.083.289.013.37.119s.062.26-.042.342l-1.202 1.232c-.104.083-.337-.079-.418-.185s-.104-.396 0-.479l1.292-1.031z" class="C"/></g></g><defs><clipPath id="B"><path fill="#fff" d="M0 0h32v24H0z"/></clipPath></defs></svg>
