<svg xmlns="http://www.w3.org/2000/svg" viewBox="0 0 32 24" fill="none"><style><![CDATA[.B{fill-rule:evenodd}]]></style><g clip-path="url(#B)"><path fill="#fff" d="M0 0h32v24H0z"/><path d="M0 0V24H32V0H0Z" fill="#f7fcff" class="B"/><mask id="A" maskUnits="userSpaceOnUse" x="0" y="0" width="32" height="24"><path d="M0 0V24H32V0H0Z" fill="#fff" class="B"/></mask><g mask="url(#A)" class="B"><path d="M0 0V8H32V0H0Z" fill="#ff8c1a"/><path d="M0 16v8h32v-8H0z" fill="#5eaa22"/><path d="M12 12a4 4 0 1 0 8 0 4 4 0 1 0-8 0zm7 0a3 3 0 1 1-6 0 3 3 0 1 1 6 0z" fill="#3d58db"/><path d="M15.995 12.861l-.571 3.121.331-3.155-1.427 2.833 1.207-2.934-2.167 2.317 1.985-2.475-2.732 1.612 2.601-1.816-3.076.777 3.008-1.009-3.17-.121 3.17-.121-3.008-1.009 3.076.777-2.601-1.816 2.732 1.612-1.985-2.475 2.167 2.317-1.207-2.934 1.427 2.833-.331-3.155.571 3.121.571-3.121-.331 3.155 1.427-2.833-1.207 2.934 2.167-2.317-1.985 2.475 2.732-1.612-2.601 1.816 3.076-.777-3.008 1.009 3.17.121-3.17.121 3.008 1.009-3.076-.777 2.601 1.816-2.732-1.612 1.985 2.475-2.167-2.317 1.207 2.934-1.427-2.833.331 3.155-.571-3.121z" fill="#3d58db"/></g></g><defs><clipPath id="B"><path fill="#fff" d="M0 0h32v24H0z"/></clipPath></defs></svg>
