<svg xmlns="http://www.w3.org/2000/svg" viewBox="0 0 32 24" fill="none"><style><![CDATA[.B{fill:#fff}.C{fill-rule:evenodd}.D{fill:#f7fcff}.E{fill:#f50100}.F{fill:#2e42a5}]]></style><g clip-path="url(#C)"><path d="M0 0h32v24H0z" class="B"/><path d="M0 0V24H32V0H0Z" class="C D"/><mask id="A" maskUnits="userSpaceOnUse" x="0" y="0" width="32" height="24"><path d="M0 0V24H32V0H0Z" class="B C"/></mask><g mask="url(#A)"><path d="M-1.506 3.291l1.487 1.417C1.209 3.548 2.368 3 3.469 3c.532 0 .759.128 1.372.709C5.815 4.629 6.47 5 7.701 5s1.886-.372 2.859-1.291c.614-.58.84-.709 1.372-.709s.759.128 1.372.709C14.278 4.629 14.933 5 16.164 5s1.886-.372 2.859-1.291c.614-.58.84-.709 1.372-.709s.759.128 1.372.709C22.741 4.629 23.396 5 24.627 5s1.886-.372 2.859-1.291c.614-.58.84-.709 1.372-.709 1.101 0 2.26.548 3.488 1.709l1.487-1.417C32.24 1.786 30.578 1 28.858 1c-1.231 0-1.886.371-2.859 1.291-.614.58-.84.709-1.372.709s-.759-.128-1.372-.709C22.281 1.372 21.626 1 20.395 1s-1.886.371-2.859 1.291c-.614.58-.84.709-1.372.709s-.759-.128-1.372-.709C13.818 1.372 13.163 1 11.932 1s-1.886.371-2.859 1.291c-.614.58-.84.709-1.372.709s-.759-.128-1.372-.709C5.355 1.372 4.7 1 3.469 1c-1.72 0-3.382.786-4.975 2.291zm1.487 5.417l-1.487-1.417C.087 5.786 1.75 5 3.469 5c1.231 0 1.886.372 2.859 1.291.614.58.84.709 1.372.709s.759-.128 1.372-.709C10.046 5.372 10.701 5 11.932 5s1.886.372 2.859 1.291c.614.58.84.709 1.372.709s.759-.128 1.372-.709C18.509 5.372 19.164 5 20.395 5s1.886.372 2.859 1.291c.613.58.84.709 1.372.709s.759-.128 1.372-.709C26.972 5.372 27.627 5 28.858 5c1.72 0 3.382.786 4.975 2.291l-1.487 1.417C31.118 7.548 29.959 7 28.858 7c-.532 0-.759.128-1.372.709C26.513 8.629 25.858 9 24.627 9s-1.886-.371-2.859-1.291c-.614-.58-.84-.709-1.372-.709s-.759.128-1.372.709C18.05 8.629 17.395 9 16.164 9s-1.886-.371-2.859-1.291c-.614-.58-.84-.709-1.372-.709s-.759.128-1.372.709C9.587 8.629 8.932 9 7.701 9s-1.886-.371-2.859-1.291C4.228 7.129 4.001 7 3.469 7c-1.101 0-2.26.548-3.488 1.709zm0 4l-1.487-1.417C.087 9.786 1.75 9 3.469 9c1.231 0 1.886.371 2.859 1.291.614.58.84.709 1.372.709s.759-.129 1.372-.709C10.046 9.372 10.701 9 11.932 9s1.886.371 2.859 1.291c.614.58.84.709 1.372.709s.759-.129 1.372-.709C18.509 9.372 19.164 9 20.395 9s1.886.371 2.859 1.291c.613.58.84.709 1.372.709s.759-.129 1.372-.709C26.972 9.372 27.627 9 28.858 9c1.72 0 3.382.786 4.975 2.291l-1.487 1.417C31.118 11.548 29.959 11 28.858 11c-.532 0-.759.129-1.372.709-.973.92-1.628 1.291-2.859 1.291s-1.886-.371-2.859-1.291c-.614-.58-.84-.709-1.372-.709s-.759.129-1.372.709c-.973.92-1.628 1.291-2.859 1.291s-1.886-.371-2.859-1.291c-.614-.58-.84-.709-1.372-.709s-.759.129-1.372.709C9.587 12.629 8.932 13 7.701 13s-1.886-.371-2.859-1.291c-.614-.58-.84-.709-1.372-.709-1.101 0-2.26.548-3.488 1.709zm0 4l-1.487-1.417C.087 13.786 1.75 13 3.469 13c1.231 0 1.886.371 2.859 1.291.614.58.84.709 1.372.709s.759-.129 1.372-.709c.973-.92 1.628-1.291 2.859-1.291s1.886.371 2.859 1.291c.614.58.84.709 1.372.709s.759-.129 1.372-.709c.973-.92 1.628-1.291 2.859-1.291s1.886.371 2.859 1.291c.613.58.84.709 1.372.709s.759-.129 1.372-.709c.973-.92 1.628-1.291 2.859-1.291 1.72 0 3.382.786 4.975 2.291l-1.487 1.417C31.118 15.548 29.959 15 28.858 15c-.532 0-.759.129-1.372.709-.973.92-1.628 1.291-2.859 1.291s-1.886-.372-2.859-1.291c-.614-.58-.84-.709-1.372-.709s-.759.129-1.372.709c-.973.92-1.628 1.291-2.859 1.291s-1.886-.372-2.859-1.291c-.614-.58-.84-.709-1.372-.709s-.759.129-1.372.709C9.587 16.629 8.932 17 7.701 17s-1.886-.372-2.859-1.291c-.614-.58-.84-.709-1.372-.709-1.101 0-2.26.548-3.488 1.709zm0 4l-1.487-1.417C.087 17.786 1.75 17 3.469 17c1.231 0 1.886.372 2.859 1.291.614.58.84.709 1.372.709s.759-.128 1.372-.709c.973-.92 1.628-1.291 2.859-1.291s1.886.372 2.859 1.291c.614.58.84.709 1.372.709s.759-.128 1.372-.709c.973-.92 1.628-1.291 2.859-1.291s1.886.372 2.859 1.291c.613.58.84.709 1.372.709s.759-.128 1.372-.709c.973-.92 1.628-1.291 2.859-1.291 1.72 0 3.382.786 4.975 2.291l-1.487 1.417C31.118 19.548 29.959 19 28.858 19c-.532 0-.759.128-1.372.709-.973.92-1.628 1.291-2.859 1.291s-1.886-.372-2.859-1.291c-.614-.58-.84-.709-1.372-.709s-.759.128-1.372.709c-.973.92-1.628 1.291-2.859 1.291s-1.886-.372-2.859-1.291c-.614-.58-.84-.709-1.372-.709s-.759.128-1.372.709C9.587 20.629 8.932 21 7.701 21s-1.886-.372-2.859-1.291c-.614-.58-.84-.709-1.372-.709-1.101 0-2.26.548-3.488 1.709zm0 4l-1.487-1.417C.087 21.786 1.75 21 3.469 21c1.231 0 1.886.372 2.859 1.291.614.58.84.709 1.372.709s.759-.128 1.372-.709c.973-.92 1.628-1.291 2.859-1.291s1.886.372 2.859 1.291c.614.58.84.709 1.372.709s.759-.128 1.372-.709c.973-.92 1.628-1.291 2.859-1.291s1.886.372 2.859 1.291c.613.58.84.709 1.372.709s.759-.128 1.372-.709c.973-.92 1.628-1.291 2.859-1.291 1.72 0 3.382.786 4.975 2.291l-1.487 1.417C31.118 23.548 29.959 23 28.858 23c-.532 0-.759.128-1.372.709-.973.92-1.628 1.291-2.859 1.291s-1.886-.372-2.859-1.291c-.614-.58-.84-.709-1.372-.709s-.759.128-1.372.709c-.973.92-1.628 1.291-2.859 1.291s-1.886-.372-2.859-1.291c-.614-.58-.84-.709-1.372-.709s-.759.128-1.372.709C9.587 24.629 8.932 25 7.701 25s-1.886-.372-2.859-1.291c-.614-.58-.84-.709-1.372-.709-1.101 0-2.26.548-3.488 1.709z" class="C F"/><path d="M0 0h14v12H0z" class="F"/><g clip-path="url(#D)"><path d="M0 0h14v10H0z" class="F"/><path d="M-1.559 10.111l3.081 1.351L14.07 1.469l1.625-2.008-3.294-.452-5.118 4.306-4.119 2.901-4.722 3.894z" class="D"/><path d="M-1.137 11.058l1.569.784L15.111-.725h-2.204L-1.137 11.058z" class="E"/><path d="M15.559 10.111l-3.081 1.351L-.07 1.469-1.695-.539 1.599-.99l5.118 4.306 4.12 2.901 4.722 3.894z" class="D"/><path d="M15.454 10.79l-1.569.784-6.25-5.381-1.853-.601-7.632-6.125H.352L7.98 5.447l2.026.721 5.448 4.622z" class="E"/><path d="M7.766-.444H6.21v4.667H0v1.556h6.21v4.667h1.556V5.778H14V4.222H7.766V-.444z" class="C E"/><path d="M5.044-.444h3.889v3.5H14v3.889H8.932l.012 3.5H5.056l-.012-3.5H0V3.056h5.044v-3.5zM6.21 4.222H0v1.556h6.21v4.667h1.556V5.778H14V4.222H7.766V-.444H6.21v4.667z" class="C D"/></g><rect x="20.4" y="9.379" width="1" height="12.621" rx=".5" fill="#d86d00"/><mask id="B" maskUnits="userSpaceOnUse" x="14.513" y=".058" width="12" height="12" fill="#000"><path d="M14.512.058h12v12h-12z" class="B"/><path d="M20.404 2.058c.827 1.135 1.166 2.475 1.197 3.839.934-1.265 2.492-2.299 3.22-2.741-.668.467-1.016 1.16-1.406 1.94l-.65 1.194c1.592-.572 3.172-.719 3.172-.719-1.061.301-2.039.915-2.99 1.512h0 0 0 0l-1.032.63c3.072 1.157 3.544 2.83 3.544 2.83-.377-.332-1.189-.688-2.723-1.36h0l-.963-.423c.229.844.507 1.504.772 2.134l.079.188s-2.126-.574-2.529-2.222c-1.192.958-2.481 1.503-3.085 1.719l2.496-2.599-3.994-.285.185-.044c1.048-.25 2.67-.636 4.155-.616a9.5 9.5 0 0 1-2.874-2.508c.254.224.96.505 1.924.888l1.343.543.158-3.902zm-3.525 2.332c.01.044.044.091.099.14l-.099-.14zm8.34-1.465c-.145.069-.277.147-.398.232l.398-.232zm-4.53 4.093a.5.5 0 0 1 .313-.031l.033-.088-.331.023-.014.096z" class="C"/></mask><path d="M20.404 2.058c.827 1.135 1.166 2.475 1.197 3.839.934-1.265 2.492-2.299 3.22-2.741-.668.467-1.016 1.16-1.406 1.94l-.65 1.194c1.592-.572 3.172-.719 3.172-.719-1.061.301-2.039.915-2.99 1.512h0 0 0 0l-1.032.63c3.072 1.157 3.544 2.83 3.544 2.83-.377-.332-1.189-.688-2.723-1.36h0l-.963-.423c.229.844.507 1.504.772 2.134l.079.188s-2.126-.574-2.529-2.222c-1.192.958-2.481 1.503-3.085 1.719l2.496-2.599-3.994-.285.185-.044c1.048-.25 2.67-.636 4.155-.616a9.5 9.5 0 0 1-2.874-2.508c.254.224.96.505 1.924.888l1.343.543.158-3.902zm-3.525 2.332c.01.044.044.091.099.14l-.099-.14zm8.34-1.465c-.145.069-.277.147-.398.232l.398-.232zm-4.53 4.093a.5.5 0 0 1 .313-.031l.033-.088-.331.023-.014.096z" fill="#449a01" class="C"/><path d="M21.601 5.897l-.35.008.023 1.025.609-.825-.282-.208zm-1.197-3.839l.283-.206-.602-.826-.03 1.022.35.01zm3.011 3.038l-.313-.157h0l.313.157zm-.65 1.194l-.297-.186-.537.857.952-.342-.118-.329zm3.172-.719l.096.337-.128-.685.032.349zm-2.99 1.512l-.186-.296-.007.005-.007.005.201.287zm0 0l.188.296.007-.004.007-.005-.201-.287zm0 0l.187.296h0l-.187-.296zm0 0l.186.297.002-.001-.187-.296zm0 0l-.186-.297h0l.186.296zm-1.032.63l-.175-.303-.642.37.693.261.123-.328zm3.544 2.83l-.232.262.892.787-.323-1.145-.337.095zm-2.723-1.36l.14-.321h0l-.14.321zm0 0l-.14.321h0l.14-.321zm-.963-.423l.141-.32-.671-.296.192.708.338-.092zm.772 2.134l.323-.136h0l-.323.136zm.079.188l-.091.338.692.187-.278-.66-.323.136zm-2.529-2.222l.34-.083-.131-.534-.428.344.219.273zM17.01 10.58l-.257-.237.375.567-.118-.33zm2.496-2.599l.245.25.525-.515-.731-.082-.039.348zm-3.994-.285l-.081-.34.064.69.017-.35zm.185-.044l.081.341h0l-.081-.34zm4.155-.616l-.005.35.176-.655-.171.305zm-.95-1.62l.129-.325h0l-.129.325zm1.343.543l-.135.323.457.19.027-.494-.349-.019zm-3.367-1.571l.292-.193-.633.271.341-.078zm8.34-1.465l.166.308-.317-.624.151.316zm-4.53 4.093l-.346-.052-.094.63.582-.258-.142-.32zm.313-.031l-.077.341.304.068.103-.294-.33-.116zm.033-.088l.326.126.198-.513-.548.038.024.349zm-.331.023l-.024-.349-.281.019-.041.278.346.052zm1.247-1.031c-.032-1.416-.384-2.831-1.264-4.038l-.566.412c.775 1.063 1.101 2.329 1.13 3.641l.7-.016zm2.689-3.033c-.733.445-2.343 1.508-3.32 2.833l.563.416c.89-1.206 2.396-2.211 3.12-2.65l-.363-.598zm-.912 2.396c.398-.795.71-1.402 1.294-1.81l-.401-.574c-.753.527-1.135 1.305-1.518 2.07l.626.314zm-.666 1.223c.266-.424.475-.842.666-1.223l-.626-.314-.633 1.165.593.372zm2.876-.904l-.032-.348-.021.002-.056.006-.208.025-.735.116a14.36 14.36 0 0 0-2.239.589l.237.659c.772-.277 1.545-.453 2.127-.559l.7-.11.194-.024.05-.005c.015-.002.015-.001-.017-.35zM23.134 7.38c.959-.602 1.895-1.187 2.899-1.472l-.191-.673c-1.117.317-2.138.961-3.08 1.553l.372.593zm.015-.01h0l-.401-.573h0l.401.573zm-.013.009h0l-.375-.591h0l.375.591zm0 0h0l-.375-.591h0l.375.591zm-.002.001h0l-.372-.593h0l.372.593zm-1.043.637l1.043-.637-.372-.593-1.021.624.349.607zm3.37 2.527l.337-.096-.011-.035-.027-.072a2.41 2.41 0 0 0-.112-.24c-.105-.199-.276-.468-.547-.771-.543-.609-1.478-1.347-3.062-1.944l-.247.655c1.488.56 2.325 1.237 2.786 1.754a3.22 3.22 0 0 1 .45.632l.079.17.014.038c.001.003.001.003.338-.092zm-2.863-1.039l1.783.801c.44.214.699.368.849.5l.463-.525c-.227-.201-.563-.39-1.006-.605l-1.808-.813-.281.641zm0 0h0l.28-.641h0l-.28.641zm-.964-.423l.964.423.281-.641-.962-.422-.282.64zm1.236 1.678c-.265-.63-.535-1.271-.757-2.09l-.675.183c.236.869.522 1.548.788 2.178l.645-.272zm.079.188l-.079-.188-.645.271.079.188.645-.271zm-3.192-2.003c.234.956.96 1.576 1.576 1.946.312.188.61.319.829.404l.266.094.076.024.022.006c.01.003.01.003.101-.335l.091-.338-.077-.023-.227-.081a4.74 4.74 0 0 1-.721-.351c-.548-.329-1.087-.82-1.256-1.512l-.68.167zm-2.628 1.965a11.52 11.52 0 0 0 3.187-1.775l-.438-.546a10.82 10.82 0 0 1-2.984 1.662l.236.659zm2.133-3.179l-1.654 1.698-.612.652-.178.192-.048.052-.016.017c-.001.001-.001.001.256.238l.257.237.016-.018.047-.051.177-.19.608-.648 1.635-1.679-.49-.5zm-3.749-.035l-.017.35.029.001.085.004.313.017 1.045.061 2.5.199.078-.696-2.535-.202-1.05-.061-.315-.017-.085-.004-.022-.001c-.008 0-.008 0-.025.349zm.104-.385l-.185.044.162.681.185-.044-.162-.681zm4.241-.625c-1.537-.021-3.2.377-4.241.625l.162.681c1.055-.251 2.634-.626 4.069-.606l.01-.7zm-3.16-1.949c.316.427 1.331 1.678 2.984 2.605l.342-.611A9.15 9.15 0 0 1 17.26 4.32l-.562.417zm2.334.354l-1.215-.498c-.334-.148-.525-.256-.606-.327l-.463.525c.173.153.462.298.785.442l1.241.509.259-.651zm1.349.545l-1.349-.545-.259.651 1.338.541.269-.646zm.024-3.579l-.35-.01v.025l-.002.073-.009.274-.033.945-.113 2.576.699.038.114-2.589.033-.948.009-.275.002-.074.001-.024c0-.002 0-.002-.35-.012zm-3.866 2.409a.63.63 0 0 0 .209.324l.463-.525-.014-.013c.003.004.016.023.024.058l-.683.156zm.722-.147l-.069-.095-.016-.023c-.004-.006-.004-.006-.296.187l-.292.193.03.044.08.111.562-.417zm7.809-1.712c-.162.077-.311.165-.448.261l.401.574a2.45 2.45 0 0 1 .349-.203l-.302-.632zm-.066.847l.283-.167.075-.042.019-.01c.005-.003.005-.003-.161-.311l-.166-.308-.031.017-.083.047-.3.177.363.598zm-4.111 3.169a.85.85 0 0 0-.345.073l.284.64c.018-.008.038-.013.061-.013v-.7zm.187.021a.85.85 0 0 0-.187-.021v.7c.012 0 .023.001.033.004l.154-.683zm.253.458l.029-.079-.653-.252-.036.098.66.232zm-.322-.554l-.331.023.048.698.331-.023-.048-.698zm-.653.32l-.014.096.692.103.014-.096-.692-.103z" mask="url(#B)" class="B"/><path d="M24.285 15.819v-.18c-.527-.455-1.078-.682-1.655-.682-.553-.294-1.112-.409-1.678-.343-.851-.103-1.709.343-1.709.343-.865 0-1.655.682-1.655.682v.18l1.033 1.248s.291 1.202 2.327.919v.003l1.443-.082.116-.043c.264-.093.566-.199.745-.797l1.033-1.248zm-3.337-1.15c-.029.416-.197 2.921 0 3.309v-3.309z" class="C E"/><path d="M19.266 14.417c.11-.405.302-.543.77-.543.291 0 .51.082.663.241v1.083h.082v.128c-.065.048-.098.151-.077.262.007.038.02.073.037.103-.034-.012-.073-.019-.114-.019-.141 0-.256.083-.256.185s.115.185.256.185.256-.083.256-.185c0 .051.029.098.076.131h-.126-.003c0 .278-.118.456-.295.456-.124 0-.211-.068-.274-.218l-.175-.416-.019.466c-.006.164-.066.229-.214.229s-.246-.107-.316-.347c.021.004.042.006.065.006.141 0 .256-.083.256-.185s-.115-.185-.256-.185c-.028 0-.055.003-.081.009.016-.048.02-.104.009-.163-.027-.139-.13-.236-.23-.216s-.16.148-.133.287c.007.038.02.073.037.103-.034-.013-.073-.019-.114-.019-.141 0-.256.083-.256.185s.115.185.256.185c.115 0 .212-.054.244-.129l-.008.109c-.023.307-.092.451-.195.471-.14.027-.247.014-.321-.034l-.151-.098v.167c-.047.006-.129-.005-.241-.034l-.017.097-.188-.213c.057.008.124-.004.187-.037.125-.066.187-.193.139-.283s-.188-.109-.313-.043c-.026.014-.05.03-.07.049-.002-.02-.007-.041-.013-.062-.041-.135-.154-.221-.252-.191-.044.013-.077.048-.097.093l-.076-.086-.07.09.128.146a.34.34 0 0 0 .012.056c.036.117.125.196.211.197l.375.424v.004l.005.001.208.236.081.187c.025.122.063.258.117.341.005.024.007.044.007.06 0 .127.275.202.811.28.42.061.915.101 1.321.107v.001h.051.051v-.001c.405-.006.901-.047 1.321-.107.536-.078.811-.153.811-.28 0-.083.069-.284.206-.587l.939-1.064-.07-.09-.234.265.004-.011c.041-.135-.004-.269-.102-.299s-.21.056-.252.191c-.006.021-.011.041-.013.062-.02-.018-.044-.035-.07-.049-.125-.066-.265-.047-.313.043s.014.217.139.283.265.047.313-.043c.019-.008.032-.002.046.003.03.009.062.007.093-.004l-.366.414-.032-.179c-.112.029-.193.04-.241.034v-.167l-.151.098c-.074.048-.181.061-.321.034-.103-.02-.173-.164-.195-.471l-.002-.024c.035.021.078.036.124.043.14.02.265-.046.279-.147s-.088-.199-.228-.219c-.032-.005-.064-.005-.093-.001.025-.046.039-.105.036-.169-.007-.141-.096-.251-.198-.246s-.179.124-.171.265c.002.033.008.065.018.094a.34.34 0 0 0-.098-.029c-.14-.02-.265.046-.279.147s.088.199.228.219c.079.011.154-.005.206-.04l-.021.082c-.07.268-.176.387-.327.387s-.207-.065-.214-.229l-.019-.466-.175.416c-.063.15-.15.218-.274.218-.168 0-.284-.161-.294-.417.031.009.065.015.1.015.141 0 .256-.083.256-.185s-.115-.185-.256-.185c-.028 0-.056.003-.081.009.016-.047.02-.104.009-.163s-.036-.108-.067-.146h.191v-.155-1.083c.153-.16.372-.241.663-.241.468 0 .661.137.77.543.07.258.002.479-.218.684l.126.195c.246-.23.355-.504.317-.808.527-.021.92.047 1.179.198.225.132.266.468.096 1.052l.193.082c.2-.687.143-1.154-.199-1.355-.302-.177-.742-.249-1.322-.221l.001.018c-.146-.457-.421-.633-.942-.633-.265 0-.486.061-.663.186v-.063h-.41v.109c-.188-.168-.438-.251-.745-.251-.511 0-.784.169-.933.605l.003-.094c-.58-.028-1.02.044-1.322.221-.343.201-.4.668-.199 1.355l.193-.082c-.17-.584-.129-.919.096-1.052.26-.152.656-.22 1.186-.198-.079.346.024.657.298.912l.126-.195c-.22-.206-.288-.426-.218-.684zm1.618 1.44c0-.018.003-.034.01-.05a.15.15 0 0 1-.021-.004c.007.017.011.035.011.054zm-1.541.087l.001-.016-.001.016zm4.067.933c-.168.036-.289.032-.353-.031-.101.035-.218.039-.353.012-.144-.028-.244-.143-.304-.334-.079.121-.178.195-.297.219.655.112 1.114.269 1.114.269s-.011.117-.039.254l.104-.24.01-.015.119-.134zm-1.617-.181a.36.36 0 0 1-.135-.147c-.049.052-.104.09-.166.113l.302.034zm-.663-.058c-.08-.044-.146-.115-.196-.206a.51.51 0 0 1-.194.205l.141-.003h0 .041.041 0l.166.004zm-2.472.364l-.095-.108c.115.014.199.001.25-.049.101.035.218.039.353.012.144-.028.244-.143.304-.334.076.117.172.191.287.217-.565.096-.987.226-1.098.262zm1.715-.342l-.291.032a.36.36 0 0 0 .129-.143c.048.051.102.088.162.112zm2.519 1.023c.072.04.129 0 .175-.077a.48.48 0 0 0-.007.058c-.006.005-.015.01-.027.017-.034.017-.085.035-.152.054-.132.036-.319.072-.542.104-.434.063-.95.104-1.36.107-.41-.003-.926-.044-1.36-.107l-.541-.104c-.056-.015-.102-.031-.134-.045.235-.132 1.714-.25 1.98-.27.266.02 1.746.139 1.969.265zm.297-.023l-.001.001.001-.001z" fill="#feca00" class="C"/><path d="M19.133 14.038l-.002.123c-.908-.019-1.429.14-1.561.458-.137.329-.111.728.08 1.203l-.092.054c-.204-.506-.232-.945-.08-1.312.157-.377.708-.546 1.654-.526z" class="B"/><path d="M19.308 15.131l-.052.106c-.198-.142-.297-.385-.297-.719 0-.48.206-.762.66-.955.29-.123.687-.073 1.191.147l-.035.116c-.484-.211-.858-.259-1.122-.147-.417.177-.592.416-.592.838 0 .293.082.495.247.613zm3.398-.969l.002.123c.908-.019 1.429.14 1.561.458.137.329.111.728-.08 1.203l.092.054c.204-.506.232-.945.08-1.311-.157-.378-.708-.546-1.654-.526z" class="B"/><path d="M22.386 15.157l.052.106c.198-.142.297-.385.297-.719 0-.48-.206-.762-.66-.955-.29-.123-.687-.072-1.19.147l.035.116c.484-.211.858-.259 1.122-.147.417.177.592.416.592.838 0 .293-.082.495-.247.613z" class="B"/></g></g><defs><clipPath id="C"><path d="M0 0h32v24H0z" class="B"/></clipPath><clipPath id="D"><path d="M0 0h14v10H0z" class="B"/></clipPath></defs></svg>
