<svg xmlns="http://www.w3.org/2000/svg" viewBox="0 0 32 24" fill="none"><style><![CDATA[.B{fill-rule:evenodd}]]></style><g clip-path="url(#B)"><path fill="#fff" d="M0 0h32v24H0z"/><path d="M0 0V24H32V0H0Z" fill="#f7fcff" class="B"/><mask id="A" maskUnits="userSpaceOnUse" x="0" y="0" width="32" height="24"><path d="M0 0V24H32V0H0Z" fill="#fff" class="B"/></mask><g mask="url(#A)" class="B"><path d="M0 0V8H32V0H0Z" fill="#bf2714"/><path d="M0 16v8h32v-8H0z" fill="#272727"/><path d="M5.337 12.811C6.246 14.117 5 15 5 15s1.089 0 1.507-.874h8.917V12.2s-.186-.925-.98-.925-.973.925-.973.925h-3.136l3.035-2.679-.59-.521-3.371 2.976v.631h4.785v-.371s.027-.215.251-.215.169.215.169.215v.793h-6.03v-1.085l-.653.291v.793s-.8-.217-1.305-.217-.535-.576-.535-.576l-.753.576zm12.11.074l.489 1.218H15.99V9.214l.821.263v3.408h.636zm9.064 0L27 14.103h-1.946V9.214l.821.263v3.408h.636zm-2.409-3.62l-.507.343v3.274h-.517v-2.626l-.851.491v2.135h-.571V11.4l-.647.416v.402s-1.244.086-1.244 1.845h4.331l.005-4.798zm-16.61 5.701c.156 0 .283-.112.283-.25s-.127-.25-.283-.25-.283.112-.283.25.127.25.283.25zm14.423-5.324c-.22.29-.887 0-.887 0l1.893-.219c-.195.382-1.005.219-1.005.219z" fill="#009c4e"/></g></g><defs><clipPath id="B"><path fill="#fff" d="M0 0h32v24H0z"/></clipPath></defs></svg>
