<svg xmlns="http://www.w3.org/2000/svg" viewBox="0 0 32 24" fill="none"><style><![CDATA[.B{fill-rule:evenodd}.C{fill:#f7fcff}]]></style><g clip-path="url(#B)"><path fill="#fff" d="M0 0h32v24H0z"/><path d="M0 0V24H32V0H0Z" class="B C"/><mask id="A" maskUnits="userSpaceOnUse" x="0" y="0" width="32" height="24"><path d="M0 0V24H32V0H0Z" fill="#fff" class="B"/></mask><g mask="url(#A)" class="B"><path d="M0 0V8H32V0H0Z" fill="#5eaa22"/><path d="M0 16v8h32v-8H0z" fill="#e31d1c"/><path d="M4.601 16.392v.634H2.27v-.634h2.331zM.566 17.984H.359v-.253h.455v.887h.579v.007h.561v-1.841h-.359v1.208H1.54v-1.304h-.359v1.297h-.009v-.253-1.044H.813v.41H0v1.521h.179.386v-.634zm1.501.355h.359v-.629h.4v.914h1.125v-1.547h-.577v.634h.218v.279h-.408v-.914H2.067v1.262zm2.292-.355h.207v.634h-.386H4v-1.521h.813v-.41h.359v1.044.253h.009v-1.297h.359v1.304h.055v-1.208h.359v1.842h-.561v-.007h-.58v-.887h-.455v.253zM8.6 16.392v.634H6.27v-.634H8.6zM6.066 18.34h.359v-.629h.4v.914H7.95v-1.547h-.577v.634h.218v.279h-.408v-.914H6.066v1.262zm2.363-.355h.207v.634H8.25h-.179v-1.521h.813v-.41h.359v1.044.253h.009v-1.297h.359v1.304h.055v-1.208h.359v1.842h-.561v-.007h-.579v-.887H8.43v.253zm4.242-1.592v.634h-2.331v-.634h2.331zm-2.534 1.948h.359v-.629h.4v.914h1.125v-1.547h-.577v.634h.218v.279h-.408v-.914h-1.117v1.262zm2.292-.355h.207v.634h-.386-.179v-1.521h.813v-.41h.359v1.044.253h.009v-1.297h.359v1.304h.055v-1.208h.359v1.842h-.562v-.007h-.579v-.887h-.455v.253zm4.242-1.592v.634h-2.331v-.634h2.331zm-2.534 1.948h.359v-.629h.4v.914h1.125v-1.547h-.577v.634h.218v.279h-.408v-.914h-1.117v1.262zm2.292-.355h.207v.634h-.386-.179v-1.521h.813v-.41h.359v1.044.253h.009v-1.297h.359v1.304h.055v-1.208h.359v1.842h-.561v-.007h-.579v-.887h-.455v.253zm4.242-1.592v.634H18.34v-.634h2.331zm-2.534 1.948h.359v-.629h.4v.914h1.125v-1.547h-.577v.634h.218v.279h-.408v-.914h-1.117v1.262zm2.363-.355h.207v.634h-.386-.179v-1.521h.813v-.41h.359v1.044.253h.009v-1.297h.359v1.304h.055v-1.208h.359v1.842h-.561v-.007h-.579v-.887H20.5v.253zm4.242-1.592v.634h-2.331v-.634h2.331zm-2.534 1.948h.359v-.629h.4v.914h1.125v-1.547h-.577v.634h.218v.279h-.408v-.914h-1.117v1.262zm2.363-.355h.207v.634h-.386-.179v-1.521h.813v-.41h.359v1.044.253h.009v-1.297h.359v1.304h.055v-1.208h.359v1.842h-.561v-.007h-.579v-.887h-.455v.253zm4.242-1.592v.634h-2.331v-.634h2.331zm-2.534 1.948h.359v-.629h.4v.914h1.125v-1.547h-.577v.634h.218v.279h-.408v-.914h-1.117v1.262zm2.363-.355h.207v.634h-.386-.179v-1.521h.813v-.41h.359v1.044.253h.009v-1.297h.359v1.304h.055v-1.208h.359v1.842h-.561v-.007h-.579v-.887h-.455v.253zm4.242-1.592v.634h-2.331v-.634h2.331zm-2.534 1.948h.359v-.629h.4v.914h1.125v-1.547h-.577v.634h.218v.279h-.408v-.914h-1.117v1.262zm2.292-.355h.207v.634h-.386-.179v-1.521h.813v-.41h.359v1.044.253h.009v-1.297h.359v1.304h.055v-1.208h.359v1.842h-.561v-.007h-.579v-.887h-.455v.253zm4.242-1.592v.634h-2.331v-.634h2.331zM34.35 18.34h.359v-.629h.4v.914h1.125v-1.547h-.577v.634h.218v.279h-.408v-.914H34.35v1.262zm2.506-.355h.207v.634h-.386-.179v-1.521h.813v-.41h.359v1.044.253h.009v-1.297h.359v1.304h.055v-1.208h.359v1.842h-.561v-.007h-.58v-.887h-.455v.253zm4.242-1.592v.634h-2.331v-.634h2.331zm-2.534 1.948h.359v-.629h.4v.914h1.125v-1.547h-.577v.634h.218v.279h-.408v-.914h-1.117v1.262z" class="C"/><path d="M.485 5.392v.634h-2.331v-.634H.485zM-3.55 6.984h-.207v-.253h.455v.887h.579v.007h.561V5.783h-.359v1.208h-.055V5.687h-.359v1.297h-.009v-.253-1.044h-.359v.41h-.813v1.521h.179.386v-.634zm1.501.355h.359v-.628h.4v.914h1.125V6.078h-.577v.634h.218v.279h-.408v-.914H-2.05v1.262zm2.292-.355h.207v.634H.063-.116V6.097h.813v-.41h.359v1.044.253h.009V5.687h.359v1.304h.055V5.783h.359v1.842h-.561v-.007H.697v-.887H.242v.253zm4.242-1.592v.634H2.154v-.634h2.331zM1.95 7.339h.359v-.628h.4v.914h1.125V6.078h-.577v.634h.218v.279h-.408v-.914H1.95v1.262zm2.363-.355h.207v.634h-.386-.179V6.097h.813v-.41h.359v1.044.253h.009V5.687h.359v1.304h.055V5.783h.359v1.842h-.561v-.007h-.579v-.887h-.455v.253zm4.242-1.592v.634H6.225v-.634h2.331zM6.021 7.339h.359v-.628h.4v.914h1.125V6.078h-.577v.634h.218v.279h-.408v-.914H6.021v1.262zm2.292-.355h.207v.634h-.386-.179V6.097h.813v-.41h.359v1.044.253h.009V5.687h.359v1.304h.055V5.783h.359v1.842h-.561v-.007h-.579v-.887h-.455v.253zm4.242-1.592v.634h-2.331v-.634h2.331zm-2.534 1.948h.359v-.628h.4v.914h1.125V6.078h-.577v.634h.218v.279h-.408v-.914h-1.117v1.262zm2.292-.355h.207v.634h-.386-.179V6.097h.813v-.41h.359v1.044.253h.009V5.687h.359v1.304h.055V5.783h.359v1.842h-.561v-.007h-.58v-.887h-.455v.253zm4.242-1.592v.634h-2.331v-.634h2.331zm-2.534 1.948h.359v-.628h.4v.914h1.125V6.078h-.577v.634h.218v.279h-.408v-.914h-1.118v1.262zm2.363-.355h.207v.634h-.386-.179V6.097h.813v-.41h.359v1.044.253h.009V5.687h.359v1.304h.055V5.783h.359v1.842h-.561v-.007h-.58v-.887h-.455v.253zm4.242-1.592v.634h-2.331v-.634h2.331zm-2.534 1.948h.359v-.628h.4v.914h1.125V6.078h-.577v.634h.218v.279h-.408v-.914h-1.117v1.262zm2.363-.355h.207v.634h-.386-.179V6.097h.814v-.41h.359v1.044.253h.009V5.687h.359v1.304h.055V5.783h.359v1.842h-.561v-.007h-.579v-.887h-.455v.253zm4.242-1.592v.634h-2.331v-.634h2.331zm-2.534 1.948h.359v-.628h.4v.914h1.125V6.078h-.577v.634h.218v.279h-.408v-.914h-1.117v1.262zm2.363-.355h.207v.634h-.386-.179V6.097h.814v-.41h.359v1.044.253h.009V5.687h.359v1.304h.055V5.783h.359v1.842h-.561v-.007h-.579v-.887h-.455v.253zm4.242-1.592v.634h-2.331v-.634h2.331zm-2.534 1.948h.359v-.628h.4v.914h1.125V6.078h-.577v.634h.218v.279h-.408v-.914h-1.117v1.262zm2.292-.355h.207v.634h-.386-.179V6.097h.813v-.41h.359v1.044.253h.009V5.687h.359v1.304h.055V5.783h.359v1.842h-.561v-.007h-.579v-.887h-.455v.253zm4.242-1.592v.634h-2.331v-.634h2.331zm-2.534 1.948h.359v-.628h.4v.914h1.126V6.078h-.577v.634h.218v.279h-.408v-.914h-1.117v1.262zm2.506-.355h.207v.634h-.386-.179V6.097h.813v-.41h.359v1.044.253h.009V5.687h.359v1.304h.055V5.783h.359v1.842h-.562v-.007h-.58v-.887h-.455v.253zm4.242-1.592v.634h-2.331v-.634h2.331zm-2.534 1.948h.359v-.628h.4v.914h1.125V6.078h-.577v.634h.218v.279h-.408v-.914h-1.117v1.262z" class="C"/><path d="M14.606 8.25s.427.225.865.225.878-.225.878-.225v.3s-.481.225-.906.225-.836-.225-.836-.225v-.3zm-3.15 3.541c0-1.778 2.442-2.941 2.442-2.941s-1.411.756-1.411 2.866.733 3.024.733 3.024-1.763-1.171-1.763-2.949zm8.238-.098c0-1.778-2.44-2.843-2.44-2.843s1.411.756 1.411 2.866-.733 3.024-.733 3.024 1.761-1.269 1.761-3.047zm-6.571.485c-.093-1.776 1.384-3.367 1.384-3.367s-.538.731-.427 2.838a6.46 6.46 0 0 0 .682 2.434V8.925h1.5v5.203c.36-.593.637-1.603.675-2.337.11-2.107-.401-2.98-.401-2.98s1.477 1.591 1.384 3.367c-.055 1.057-.869 2.176-1.518 2.908l1.319.271c.012.064-.117.061-.374.055-.284-.007-.724-.017-1.301.056l-.45.433-.074-.094-.074.094-.45-.433c-.577-.073-1.017-.063-1.301-.056-.257.006-.387.009-.374-.055l1.319-.271c-.649-.732-1.463-1.85-1.518-2.908z" fill="#e31d1c"/></g></g><defs><clipPath id="B"><path fill="#fff" d="M0 0h32v24H0z"/></clipPath></defs></svg>
