<svg xmlns="http://www.w3.org/2000/svg" viewBox="0 0 32 24" fill="none"><g clip-path="url(#A)"><path fill="#fff" d="M0 0h32v24H0z"/><g fill="#f7fcff"><path fill-rule="evenodd" d="M0 0H32V24H0V0Z"/><g stroke="#e31d1c" stroke-width="2.7"><path d="M-2.701 1.245L-4.75.006V2.4v20 2.394l2.049-1.239 16.538-10 1.911-1.155-1.911-1.155-16.538-10z"/><path d="M34.921 1.233L36.949.055V2.4v20 2.345l-2.028-1.178-17.219-10-2.01-1.167 2.01-1.167 17.219-10z"/></g></g><g fill-rule="evenodd"><path d="M13.675 4.703s-.859 3.798 2.106 5.257c0 0 2.846-1.551 2.207-5.257 0 0-1.222-.409-2.194-.409s-2.119.409-2.119.409z" fill="#e31d1c"/><g fill="#ffd100"><path d="M13.982 5.499s.317-.14.474 0 .286-.012.286-.096.249-.375.249-.14-.078.369.142.369 1.206-.326 1.442-.229.418.072.357-.066-.215-.225-.512-.149-.227.149-.485.149-.543-.074-.543-.074.081-.124.374-.036.699-.109.809-.109.413-.006.443.07.213.145.074.215-.37.114-.211.204.522.073.54.166.19.234.121.234-.194.132-.311.092-.13-.075-.018-.108.111-.169.018-.169-.047.048-.257 0-.488-.101-.471 0 .153.257-.099.277-.37.104-.419.037-.225-.156-.087-.185.27.097.319.077.162-.032.068-.119-.25-.138-.106-.204.03-.067-.244.069-.427.25-.668.234-.331.006-.409-.016-.455.242-.563.175-.459-.093-.396-.175.148-.125.242-.082.188.085.252.042.248-.188.201-.217-.002-.127-.263-.127-.354.109-.416.04.068-.149.068-.149zm.262 1.248s.279-.123.417 0 .251-.01.251-.085.219-.33.219-.123-.068.324.124.324 1.06-.286 1.268-.202.367.064.314-.058-.189-.197-.45-.131-.2.131-.426.131-.478-.065-.478-.065.071-.109.329-.031.614-.096.711-.096.363-.005.39.061.187.127.065.189-.325.101-.186.18.459.064.475.146.167.205.106.205-.171.116-.273.081-.114-.066-.016-.095.097-.149.016-.149-.041.042-.226 0-.429-.089-.414 0 .135.226-.087.244-.325.091-.368.032-.197-.137-.076-.163.237.086.281.067.143-.028.06-.105-.22-.122-.093-.179.027-.058-.215.06-.376.22-.588.205-.291.005-.36-.014-.4.213-.495.154-.404-.081-.348-.154.13-.11.213-.072.165.075.221.037.218-.165.177-.191-.001-.112-.232-.112-.311.096-.366.035.06-.131.06-.131zm.37 1.266s.211-.094.316 0 .19-.008.19-.064.166-.25.166-.093-.052.246.094.246.804-.217.961-.153.278.048.238-.044-.143-.15-.341-.099-.152.099-.323.099-.362-.049-.362-.049.054-.083.249-.024.466-.073.539-.073.275-.004.296.046.142.096.049.143-.246.076-.141.136.348.048.36.111.127.156.081.156-.13.088-.207.061-.087-.05-.012-.072.074-.113.012-.113-.031.032-.171 0-.325-.068-.314 0 .102.171-.066.185-.247.069-.28.025-.15-.104-.058-.123.18.065.213.051.108-.021.045-.079-.166-.092-.07-.136.02-.044-.163.046-.285.167-.445.156-.221.004-.273-.011-.303.161-.376.117-.306-.062-.264-.117.099-.083.162-.055.126.057.168.028.165-.125.134-.145-.001-.085-.176-.085-.236.073-.277.027.045-.099.045-.099z"/></g></g></g><defs><clipPath id="A"><path fill="#fff" d="M0 0h32v24H0z"/></clipPath></defs></svg>
