<svg xmlns="http://www.w3.org/2000/svg" viewBox="0 0 32 24" fill="none"><style><![CDATA[.B{fill-rule:evenodd}]]></style><g clip-path="url(#C)"><path fill="#fff" d="M0 0h32v24H0z"/><path d="M0 0V24H32V0H0Z" fill="#f7fcff" class="B"/><mask id="A" maskUnits="userSpaceOnUse" x="0" y="0" width="32" height="24"><path d="M0 0V24H32V0H0Z" fill="#fff" class="B"/></mask><g mask="url(#A)" class="B"><path d="M0 0V8H32V0H0Z" fill="#272727"/><path d="M0 16v8h32v-8H0z" fill="#093"/></g><path d="M0 0V24L20 12L0 0Z" fill="#e31d1c" class="B"/><mask id="B" maskUnits="userSpaceOnUse" x="0" y="0" width="20" height="24"><path d="M0 0V24L20 12L0 0Z" fill="#fff" class="B"/></mask><g mask="url(#B)" class="B"><path d="M9.002 13.871L7.131 15l.427-2.204L6 11.147l2.109-.089L9.002 9l.892 2.058H12l-1.554 1.738.468 2.204-1.912-1.129z" fill="#f7fcff"/></g></g><defs><clipPath id="C"><path fill="#fff" d="M0 0h32v24H0z"/></clipPath></defs></svg>
