<svg xmlns="http://www.w3.org/2000/svg" viewBox="0 0 32 24" fill="none"><g clip-path="url(#A)"><path fill="#fff" d="M0 0h32v24H0z"/><g fill-rule="evenodd"><path d="M0 0H32V24H0V0Z" fill="#0067c3"/><path d="M0 0V8H32V0H0Z" fill="#272727"/><path d="M0 16v8h32v-8H0z" fill="#4e8b1d"/></g><path d="M0 7h-1v1 8 1h1 32 1v-1-8-1h-1H0z" fill="#e31d1c" stroke="#f7fcff" stroke-width="2"/><ellipse cx="16" cy="12" rx="4" ry="8" fill="#ac2317"/><g fill="#fff"><path d="M19.623 4.031c.228-.411.842-.859 1.842-1.346.034-.017.076-.018.111-.003.06.026.085.089.055.141L11.274 21.452l-.539-.231L19.865 4.8c-.413-.059-.494-.316-.241-.77z"/><path d="M12.366 4.031c.252.454.172.711-.241.77l9.13 16.421-.539.231L10.357 2.823c-.03-.052-.005-.115.055-.141.035-.015.077-.014.111.003 1 .486 1.614.935 1.842 1.346z"/></g><g fill-rule="evenodd"><g fill="#000"><path d="M19.385 16.266c.39-1.235.615-2.697.615-4.265s-.226-3.031-.615-4.265C18.508 8.969 18 10.432 18 12s.508 3.031 1.385 4.265zm-6.77-8.531C12.226 8.969 12 10.432 12 12s.226 3.031.615 4.265C13.492 15.031 14 13.568 14 12s-.508-3.031-1.385-4.265z"/></g><g fill="#f7fcff"><path d="M16.24 11.4c.548-.341.96-1.828.96-3.611s-.412-3.269-.96-3.611V11.4zm-.6-.095c-.487-.469-.84-1.866-.84-3.516s.353-3.046.84-3.516v7.031zm0 1.495v7.031c-.487-.469-.84-1.866-.84-3.516s.353-3.046.84-3.516zm.358 7.2h0zm.242-.074v-7.221c.548.341.96 1.828.96 3.611s-.412 3.269-.96 3.611z"/></g></g><path d="M16 11.474c.663 0 1.2.471 1.2 1.053s-.537 1.053-1.2 1.053-1.2-.471-1.2-1.053.537-1.053 1.2-1.053z" fill="#f7fcff"/></g><defs><clipPath id="A"><path fill="#fff" d="M0 0h32v24H0z"/></clipPath></defs></svg>
