<svg xmlns="http://www.w3.org/2000/svg" viewBox="0 0 32 24" fill="none"><g clip-path="url(#B)"><path fill="#fff" d="M0 0h32v24H0z"/><path fill-rule="evenodd" d="M0 0V24H32V0H0Z" fill="#c51918"/><mask id="A" maskUnits="userSpaceOnUse" x="0" y="0" width="32" height="24"><path fill-rule="evenodd" d="M0 0V24H32V0H0Z" fill="#fff"/></mask><g mask="url(#A)"><path fill-rule="evenodd" d="M15.982 17.867l.32-.008.617 1.968.143-2.056a6 6 0 0 0 .608-.143l1.058 1.774-.339-2.034a5.99 5.99 0 0 0 .557-.278l1.443 1.485-.804-1.903c.166-.124.325-.257.477-.398l1.751 1.116-1.225-1.668c.133-.158.257-.324.373-.495l1.962.685-1.578-1.342c.092-.184.175-.374.248-.568l2.067.217-1.847-.945c.047-.2.083-.403.108-.61l2.061-.261-2.017-.497a5.96 5.96 0 0 0-.035-.619l1.944-.725-2.075-.022a5.85 5.85 0 0 0-.179-.596l1.72-1.148-2.022.453a5.93 5.93 0 0 0-.313-.539l1.406-1.51-1.861.903a6 6 0 0 0-.43-.454l1.016-1.79-1.599 1.302c-.169-.124-.344-.239-.525-.345l.572-1.971-1.251 1.63c-.193-.082-.391-.154-.593-.215l.098-2.046-.838 1.871a6.04 6.04 0 0 0-.628-.073L15.989 4l-.38 2.011c-.213.013-.423.037-.63.072l-.837-1.869.098 2.041c-.204.061-.403.133-.597.215l-1.248-1.626.57 1.963c-.183.106-.36.222-.53.346l-1.592-1.297 1.011 1.781a6 6 0 0 0-.436.458l-1.851-.898L10.966 8.7a5.89 5.89 0 0 0-.318.545l-2.009-.45 1.709 1.141c-.071.197-.132.398-.181.604l-2.06.022 1.93.72c-.023.206-.035.415-.036.627l-2.002.493 2.047.259a5.88 5.88 0 0 0 .11.618l-1.834.938 2.053-.216a5.88 5.88 0 0 0 .251.575L9.057 15.91l1.95-.681c.117.173.243.34.377.5l-1.218 1.659 1.742-1.11a6 6 0 0 0 .482.4l-.8 1.895 1.438-1.48a5.98 5.98 0 0 0 .561.279l-.338 2.028 1.056-1.77a6 6 0 0 0 .61.142l.143 2.053.617-1.967.305.008zm4.5-5.951c0 2.485-2.031 4.499-4.536 4.499s-4.536-2.014-4.536-4.499 2.031-4.499 4.536-4.499 4.536 2.014 4.536 4.499zm-1.372 1.466c.189-.425.294-.897.294-1.392a3.42 3.42 0 0 0-.281-1.363c-.783.056-1.446.262-1.985.525 1.195.523 1.735 1.383 1.972 2.23zm-.386.658c-.098.131-.205.255-.32.37-.064-1.181-.569-2.081-1.475-3.052 1.121.537 1.754 1.821 1.794 2.682zm-.858.811l-.194.12c-.269-1.326-.779-2.373-1.489-3.21l.172-.13.07-.052c.908 1.044 1.481 1.94 1.441 3.271zm-1.891.568c.402 0 .789-.069 1.147-.197-.261-1.262-.715-2.438-1.372-3.286-.785.935-1.185 1.991-1.2 3.174.434.198.916.309 1.424.309zm-.66-3.889l.078.064c-.836.951-1.294 2.024-1.372 3.214-.103-.071-.201-.148-.296-.23.315-1.258.838-2.297 1.589-3.048zm-2.498-.88c.786.088 1.407.28 1.871.501-1.185.504-1.652 1.315-1.887 2.142a3.42 3.42 0 0 1 .015-2.643zm.43 3.419l-.077-.105c.059-.869.613-2.102 1.731-2.61-.75.728-1.311 1.556-1.653 2.716zm.254-4.454a3.42 3.42 0 0 1 4.918-.03c-.979.114-1.809.359-2.483.741-.601-.345-1.413-.578-2.435-.71z" fill="#ffdc17"/></g></g><defs><clipPath id="B"><path fill="#fff" d="M0 0h32v24H0z"/></clipPath></defs></svg>
