<svg xmlns="http://www.w3.org/2000/svg" viewBox="0 0 32 24" fill="none"><style><![CDATA[.B{fill:#fff}.C{fill:#000}.D{fill-rule:evenodd}.E{stroke:#000}.F{stroke-width:.06}.G{stroke-linejoin:bevel}]]></style><g clip-path="url(#A)"><path d="M0 0h32v24H0z" class="B"/><path d="M0 0H32V24H0V0Z" fill="#032ea1"/><path d="M0 6H32V18H0V6Z" fill="#e00025"/><g class="B"><path d="M12.62 11.31h6.828v2.628H12.62V11.31z" class="E F G"/><path d="M19.448 11.85H12.62v.276h6.828v-.276zm-6.828.42h6.828v.3H12.62v-.3zm6.48.486h.21v.99h-.21v-.99z" class="D"/></g><path d="M12.62 11.85v-.03l-.03.03h.03zm6.828 0h.03l-.03-.03v.03zm-6.828.276h-.03l.03.03v-.03zm6.828 0v.03l.03-.03h-.03zm0 .144h.03l-.03-.03v.03zm-6.828 0v-.03l-.03.03h.03zm6.828.3v.03l.03-.03h-.03zm-6.828 0h-.03l.03.03v-.03zm6.69.186h.03l-.03-.03v.03zm-.21 0v-.03l-.03.03h.03zm.21.99v.03l.03-.03h-.03zm-.21 0h-.03l.03.03v-.03zm-6.48-1.866h6.828v-.06H12.62v.06zm.03.246v-.276h-.06v.276h.06zm6.798-.03H12.62v.06h6.828v-.06zm-.03-.246v.276h.06v-.276h-.06zm.03.39H12.62v.06h6.828v-.06zm.03.33v-.3h-.06v.3h.06zm-6.858.03h6.828v-.06H12.62v.06zm-.03-.33v.3h.06v-.3h-.06zm6.72.456h-.21v.06h.21v-.06zm.03 1.02v-.99h-.06v.99h.06zm-.24.03h.21v-.06h-.21v.06zm-.03-1.02v.99h.06v-.99h-.06z" class="C"/><g class="B"><path d="M12.62 11.442h6.828v.258H12.62v-.258z" class="E F G"/><path d="M12.89 12.756h-.21v.99h.21v-.99zm1.53 0h.216v.99h-.216v-.99zm2.94 0h.216v.99h-.216v-.99zm-4.26 0h.21v.99h-.21v-.99zm.66 0h-.21v.99h.21v-.99zm.24 0h.21v.99H14v-.99zm3.984 0h-.216v.99h.216v-.99zm.234 0h.216v.99h-.216v-.99zm.666 0h-.216v.99h.216v-.99z" class="D"/></g><path d="M12.68 12.756v-.03l-.03.03h.03zm.21 0h.03l-.03-.03v.03zm-.21.99h-.03l.03.03v-.03zm.21 0v.03l.03-.03h-.03zm1.746-.99h.03l-.03-.03v.03zm-.216 0v-.03l-.03.03h.03zm.216.99v.03l.03-.03h-.03zm-.216 0h-.03l.03.03v-.03zm3.156-.99h.03l-.03-.03v.03zm-.216 0v-.03l-.03.03h.03zm.216.99v.03l.03-.03h-.03zm-.216 0h-.03l.03.03v-.03zm-4.05-.99h.03l-.03-.03v.03zm-.21 0v-.03l-.03.03h.03zm.21.99v.03l.03-.03h-.03zm-.21 0h-.03l.03.03v-.03zm.45-.99v-.03l-.03.03h.03zm.21 0h.03l-.03-.03v.03zm-.21.99h-.03l.03.03v-.03zm.21 0v.03l.03-.03h-.03zm.45-.99h.03l-.03-.03v.03zm-.21 0v-.03l-.03.03H14zm.21.99v.03l.03-.03h-.03zm-.21 0h-.03l.03.03v-.03zm3.768-.99v-.03l-.03.03h.03zm.216 0h.03l-.03-.03v.03zm-.216.99h-.03l.03.03v-.03zm.216 0v.03l.03-.03h-.03zm.45-.99h.03l-.03-.03v.03zm-.216 0v-.03l-.03.03h.03zm.216.99v.03l.03-.03h-.03zm-.216 0h-.03l.03.03v-.03zm.45-.99v-.03l-.03.03h.03zm.216 0h.03l-.03-.03v.03zm-.216.99h-.03l.03.03v-.03zm.216 0v.03l.03-.03h-.03zm-6.204-.96h.21v-.06h-.21v.06zm.03.96v-.99h-.06v.99h.06zm.18-.03h-.21v.06h.21v-.06zm-.03-.96v.99h.06v-.99h-.06zm1.776-.03h-.216v.06h.216v-.06zm.03 1.02v-.99h-.06v.99h.06zm-.246.03h.216v-.06h-.216v.06zm-.03-1.02v.99h.06v-.99h-.06zm3.186-.03h-.216v.06h.216v-.06zm.03 1.02v-.99h-.06v.99h.06zm-.246.03h.216v-.06h-.216v.06zm-.03-1.02v.99h.06v-.99h-.06zm-4.02-.03h-.21v.06h.21v-.06zm.03 1.02v-.99h-.06v.99h.06zm-.24.03h.21v-.06h-.21v.06zm-.03-1.02v.99h.06v-.99h-.06zm.48.03h.21v-.06h-.21v.06zm.03.96v-.99h-.06v.99h.06zm.18-.03h-.21v.06h.21v-.06zm-.03-.96v.99h.06v-.99h-.06zm.48-.03H14v.06h.21v-.06zm.03 1.02v-.99h-.06v.99h.06zm-.24.03h.21v-.06H14v.06zm-.03-1.02v.99h.06v-.99h-.06zm3.798.03h.216v-.06h-.216v.06zm.03.96v-.99h-.06v.99h.06zm.186-.03h-.216v.06h.216v-.06zm-.03-.96v.99h.06v-.99h-.06zm.48-.03h-.216v.06h.216v-.06zm.03 1.02v-.99h-.06v.99h.06zm-.246.03h.216v-.06h-.216v.06zm-.03-1.02v.99h.06v-.99h-.06zm.48.03h.216v-.06h-.216v.06zm.03.96v-.99h-.06v.99h.06zm.186-.03h-.216v.06h.216v-.06zm-.03-.96v.99h.06v-.99h-.06z" class="C"/><g class="B"><path d="M9.95 14.07a.56.56 0 0 0 .264-.318H21.8a.56.56 0 0 0 .264.318H9.95z" class="E F"/><path d="M15.998 7.056c-.144.006-.138.252-.138.252h.27s.006-.252-.132-.252zm-.888 3.192v.33h1.776v-.33c.003-.09.052-.136.096-.177.038-.035.072-.068.072-.123 0 0 .024-.18-.03-.264-.06.24-.18.198-.18.096 0-.073.05-.146.153-.298l.051-.074c.048-.072.018-.282-.042-.36-.024.186-.054.27-.132.27-.048 0-.09-.03-.09-.12 0-.073.031-.124.064-.177.021-.034.042-.069.056-.111a.3.3 0 0 0-.06-.318l-.013.085h0c-.017.118-.024.167-.089.167-.151-.045-.021-.256.027-.333l.009-.015c.03-.114-.06-.204-.06-.204-.048.156-.06.174-.12.156-.072-.018-.06-.12.024-.204.054-.054.048-.138-.012-.198-.06.12-.156.102-.144.03l.054-.258h-.072l.024-.186h-.954l.024.186h-.066l.048.264c-.006.072-.078.078-.138-.036-.06.06-.066.138-.012.198.084.084.096.186.024.204-.06.018-.072.006-.12-.156 0 0-.096.138-.06.204l.01.017c.049.078.175.281.026.331-.064 0-.072-.049-.089-.167l-.013-.085a.3.3 0 0 0-.066.318c.015.039.035.072.054.104.034.056.066.108.066.184 0 .09-.036.12-.084.12-.078 0-.108-.09-.132-.27-.06.078-.09.288-.042.354l.031.047c.116.176.167.254.167.331 0 .102-.114.144-.18-.096-.048.084-.024.264-.024.264 0 .055.035.087.073.122.045.041.095.087.095.178zm.48-2.772l.012.15h.78l.018-.15h-.81zm.15-.006l-.018-.156h.54l-.006.156h-.516zm1.68 6.3c0 .126.18.258.3.3h-3.39c.12-.042.24-.174.24-.3v-1.458l-.15-.204h3.156l-.156.204v1.458z" class="D"/></g><path d="M15.86 7.308l-.03.001.001.029h.029v-.03zm.138-.252v-.03h-.001l.001.03zm.132.252v.03h.029l.001-.029-.03-.001zm-1.02 3.27h-.03v.03h.03v-.03zm1.776 0v.03h.03v-.03h-.03zm0-.33l-.03-.001v.001h.03zm.096-.177l.02.022-.02-.022zm.072-.123l-.03-.004v.004h.03zm-.03-.264l.025-.016-.037-.058-.017.067.029.007zm-.027-.202l.025.017h0l-.025-.017zm.051-.074l.025.017h0l-.025-.017zm-.042-.36l.024-.018-.044-.058-.009.072.03.004zm-.158-.027l.026.016-.026-.016zm.056-.111l-.028-.011v.002l.029.009zm-.06-.318l.022-.021-.041-.044-.01.06.03.005zm-.013.085l.03.005v-.001l-.03-.004zm0 0l-.029-.005v.001l.03.004zm-.089.167l-.009.03h.009v-.03zm.027-.333l.026.016h0l-.026-.016zm.009-.015l.027.016.002-.009-.029-.008zm-.06-.204l.021-.021-.035-.035-.015.048.029.009zm-.12.156l.009-.029h-.001l-.007.029zm.012-.402l.021-.021-.029-.029-.019.037.027.013zm-.144.03l-.029-.006v.001l.03.005zm.054-.258l.029.006.008-.036h-.037v.03zm-.072 0l-.03-.004-.004.034h.034v-.03zm.024-.186l.03.004.004-.034h-.034v.03zm-.954 0v-.03h-.034l.004.034.03-.004zm.024.186v.03h.034l-.004-.034-.03.004zm-.066 0v-.03h-.036l.006.035.03-.005zm.048.264l.031.003-.001-.008-.03.005zm-.138-.036l.027-.014-.019-.036-.029.029.021.021zm-.012.198l-.022.02.001.001.021-.021zm.024.204l-.007-.029h-.001l.009.029zm-.12-.156l.029-.009-.018-.06-.036.051.025.017zm-.06.204l-.026.014v.001l.026-.016zm.01.017l-.026.016h0l.026-.016zm.026.331v.032l.009-.003-.009-.028zm-.089-.167l.03-.004-.03.004zm-.013-.085l.03-.005-.01-.058-.041.042.021.021zm-.066.318l-.028.011h0l.028-.011zm.054.104l.026-.016h0l-.026.016zm-.15.034l.03-.004-.01-.071-.044.057.024.018zm-.042.354l.025-.017-.001-.001-.024.018zm.031.047l-.025.016h0l.025-.016zm-.013.235l.029-.008-.019-.07-.036.063.026.015zm-.024.264h.03v-.004l-.03.004zm.073.122l.02-.022-.02.022zm.587-2.444l-.03.002.002.028h.028v-.03zm-.012-.15v-.03h-.033l.003.032.03-.002zm.792.15v.03h.027l.003-.026-.03-.004zm.018-.15l.03.004.004-.034H16.4v.03zm-.678-.162v-.03h-.034l.004.033.03-.003zm.018.156l-.03.003.003.027h.027v-.03zm.522-.156l.03.001.001-.031h-.031v.03zm-.006.156v.03h.029l.001-.029-.03-.001zm1.464 6.6v.03l.01-.058-.01.028zm-3.39 0l-.01-.028.01.058v-.03zm.24-1.758h.03v-.01l-.006-.008-.024.018zm-.15-.204v-.03h-.059l.035.048.024-.018zm3.156 0l.024.018.037-.048h-.061v.03zm-.156.204l-.024-.018-.006.008v.01h.03zm-1.56-5.004l.03-.001.001-.036c.002-.022.005-.051.013-.08a.2.2 0 0 1 .035-.075c.015-.018.034-.03.06-.031l-.002-.06c-.046.002-.08.023-.104.053s-.038.065-.046.098-.013.066-.015.091l-.001.03c0 .012 0 .012.03.011zm.27-.03h-.27v.06h.27v-.06zm-.132-.192c.024 0 .041.01.055.028s.026.046.033.075.011.059.012.081l.001.027c0 .01 0 .01.03.01l.03.001-.001-.042c-.002-.025-.005-.058-.014-.092a.26.26 0 0 0-.044-.098c-.024-.029-.057-.051-.102-.051v.06zm-.858 3.492v-.33h-.06v.33h.06zm1.746-.03H15.11v.06h1.776v-.06zm-.03-.3v.33h.06v-.33h-.06zm.105-.199c-.044.041-.101.094-.105.197l.06.002c.003-.077.042-.115.086-.156l-.041-.044zm.063-.101c0 .041-.024.065-.063.101l.041.044c.036-.034.082-.075.082-.145h-.06zm-.025-.248c.022.034.03.092.03.148l-.002.068-.002.021c-.001.007-.001.007.029.011l.03.004.003-.031.002-.074a.36.36 0 0 0-.04-.179l-.05.032zm-.185.08c0 .031.009.06.027.081s.045.034.076.029.056-.026.078-.058a.43.43 0 0 0 .058-.14l-.058-.015c-.015.058-.032.096-.049.121s-.032.032-.04.033-.013-.001-.019-.008-.013-.023-.013-.043h-.06zm.159-.315l-.117.181c-.026.048-.041.09-.041.134h.06c0-.029.01-.06.034-.105s.062-.1.114-.176l-.05-.034zm.05-.074l-.051.074.05.034.051-.074-.05-.034zm-.041-.325c.025.033.047.098.056.168.004.034.005.067.002.095s-.009.05-.017.062l.05.033c.016-.024.024-.056.027-.089a.5.5 0 0 0-.003-.109c-.009-.073-.033-.152-.068-.197l-.047.037zm-.108.282a.11.11 0 0 0 .068-.022c.019-.015.034-.036.045-.061.022-.049.036-.121.048-.213l-.059-.008a.74.74 0 0 1-.043.196c-.009.019-.018.031-.027.038s-.018.01-.032.01v.06zm-.12-.15c0 .049.011.087.034.114s.055.036.086.036v-.06c-.018 0-.031-.005-.04-.016s-.02-.033-.02-.074h-.06zm.068-.193c-.032.053-.068.11-.068.193h.06c0-.064.026-.108.059-.161l-.051-.031zm.053-.105c-.013.038-.032.071-.053.105l.051.031c.021-.034.044-.071.059-.117l-.057-.019zm-.053-.288a.27.27 0 0 1 .054.286l.056.022a.33.33 0 0 0-.066-.35l-.044.041zm.038.069l.013-.084-.059-.01-.013.085.059.009zm0 .001h0l-.059-.011h0l.059.011zm-.118.192c.02 0 .038-.004.055-.014s.027-.026.035-.043c.014-.032.021-.079.029-.136l-.059-.009c-.009.061-.015.098-.025.12-.005.01-.009.014-.012.017s-.01.005-.022.005v.06zm.002-.379c-.023.038-.07.114-.091.186-.011.036-.016.076-.005.111s.04.066.086.08l.017-.058c-.029-.009-.041-.023-.046-.04s-.004-.046.005-.077a.76.76 0 0 1 .085-.171l-.051-.031zm.009-.014l-.009.015.051.031.009-.015-.051-.031zm-.034-.188l-.021.021c.018.022.027.035.036.052.017.033.029.076.016.123l.058.015c.018-.067 0-.125-.021-.166-.01-.02-.022-.037-.031-.048l-.014-.017c-.002-.002-.002-.002-.023.02zm-.129.185c.016.005.033.009.051.006s.035-.014.046-.029a.24.24 0 0 0 .029-.058l.031-.094-.057-.018-.03.091c-.009.023-.015.036-.021.043-.011.007-.018.006-.032.002l-.017.057zm.011-.254c-.045.045-.073.098-.079.144a.11.11 0 0 0 .012.068c.012.021.032.036.057.042l.015-.058c-.011-.003-.016-.008-.02-.013s-.006-.017-.004-.031a.2.2 0 0 1 .062-.109l-.043-.042zm-.012-.156c.051.051.052.116.012.156l.043.042c.068-.068.057-.171-.012-.24l-.043.042zm-.152.004c-.004.025.001.049.015.067s.038.026.061.025c.045-.002.092-.039.124-.104l-.054-.027c-.028.055-.059.07-.074.07-.013-.005-.016-.011-.014-.022l-.059-.01zm.054-.259l-.054.258.059.012.054-.258-.059-.012zm-.043.036h.072v-.06h-.072v.06zm-.006-.22l-.024.186.059.008.024-.186-.059-.008zm-.924.034h.954v-.06h-.954v.06zm.054.152l-.024-.186-.059.008.024.186.059-.008zm-.096.034h.066v-.06h-.066v.06zm.077.229l-.048-.264-.059.011.048.264.059-.011zm-.194-.017c.031.059.07.098.112.103.022.003.043-.004.059-.02s.022-.037.024-.059l-.06-.005c-.001.014-.005.02-.008.023-.018 0-.045-.015-.074-.07l-.053.028zm.037.164c-.022-.025-.031-.051-.029-.077s.014-.054.04-.08l-.043-.042c-.034.034-.055.075-.057.118s.012.086.044.121l.045-.04zm.009.253c.025-.006.045-.021.057-.042s.015-.044.012-.068a.26.26 0 0 0-.079-.144l-.043.042c.039.039.058.079.062.109.002.015-.001.025-.004.031s-.009.011-.02.013l.014.058zm-.156-.177l.031.097c.009.024.018.044.03.058s.028.026.047.028.034-.003.049-.007l-.017-.057c-.015.005-.022.005-.025.005-.012-.012-.019-.024-.027-.047l-.03-.093-.057.017zm-.005.181c-.004-.008-.006-.021-.003-.04s.011-.04.02-.06.019-.038.027-.052l.013-.02c.001-.001.001-.001-.024-.018l-.025-.017-.015.024a.57.57 0 0 0-.031.058.32.32 0 0 0-.025.074c-.005.025-.005.054.009.079l.053-.029zm.009.015l-.01-.017-.051.031.01.017.051-.031zm.01.375c.045-.015.074-.044.085-.081s.006-.075-.004-.11c-.02-.072-.067-.145-.091-.184l-.051.032c.025.04.066.107.084.169.009.031.011.057.005.076s-.018.032-.047.042l.019.057zm-.128-.191c.008.057.015.104.029.136.008.017.018.032.035.043s.035.014.055.014v-.06c-.012 0-.019-.002-.022-.005s-.008-.007-.012-.017c-.01-.022-.016-.059-.025-.12l-.059.009zm-.013-.084l.013.084.059-.009-.013-.085-.059.01zm-.008.302a.27.27 0 0 1 .059-.286l-.043-.042a.33.33 0 0 0-.073.35l.056-.022zm.052.099c-.019-.032-.038-.063-.052-.099l-.056.022c.016.042.038.077.057.108l.051-.031zm.07.2c0-.086-.036-.144-.07-.2l-.051.031c.034.056.061.102.061.169h.06zm-.114.15c.031 0 .061-.01.083-.038s.031-.064.031-.112h-.06c0 .042-.008.064-.018.075s-.019.015-.037.015v.06zm-.162-.296c.012.09.026.161.048.211.011.025.026.047.045.062s.043.023.069.023v-.06c-.013 0-.023-.004-.031-.01s-.019-.02-.027-.039c-.018-.041-.031-.104-.043-.194l-.059.008zm.012.332c-.007-.01-.014-.029-.017-.057s-.002-.06.002-.094c.009-.069.03-.134.056-.167l-.047-.037c-.035.045-.058.124-.068.196-.005.037-.006.074-.003.107a.18.18 0 0 0 .028.087l.049-.035zm.031.048l-.031-.047-.05.033.031.047.05-.033zm.172.348a.3.3 0 0 0-.044-.143c-.028-.053-.071-.117-.129-.205l-.05.033.126.2c.026.049.037.083.037.114h.06zm-.239-.088c.017.062.038.108.06.14s.049.053.078.058.058-.007.075-.029.026-.05.026-.081h-.06c0 .02-.006.035-.012.043-.025.006-.04-.001-.057-.026s-.036-.063-.052-.121l-.058.016zm.005.256l.03-.004-.003-.028-.003-.069a.54.54 0 0 1 .006-.082.2.2 0 0 1 .02-.066l-.052-.03c-.015.025-.023.057-.028.087s-.006.063-.006.091l.003.074.002.022c.001.009.001.009.031.005zm.094.1c-.04-.037-.064-.06-.064-.1h-.06c0 .07.046.111.083.144l.041-.044zm.104.2c0-.105-.059-.158-.104-.2l-.041.044c.045.041.085.079.085.156h.06zm.492-2.624l-.012-.15-.06.005.012.15.06-.005zm.75-.028h-.78v.06h.78v-.06zm-.012-.124l-.018.15.059.007.018-.15-.059-.007zm-.78.034h.81v-.06h-.81v.06zm.102-.189l.018.156.06-.007-.018-.156-.06.007zm.57-.033h-.54v.06h.54v-.06zm.024.187l.006-.156-.06-.002-.006.156.06.002zm-.546.029h.516v-.06h-.516v.06zm1.99 6.542a.59.59 0 0 1-.185-.113c-.058-.053-.095-.11-.095-.159h-.06c0 .076.053.148.115.204a.65.65 0 0 0 .205.124l.02-.057zm-3.4.058h3.39v-.06h-3.39v.06zm.21-.33c0 .054-.026.112-.068.162s-.098.09-.152.109l.02.057c.066-.023.13-.07.178-.128s.082-.129.082-.201h-.06zm0-1.458v1.458h.06v-1.458h-.06zm-.144-.186l.15.204.048-.036-.15-.204-.048.036zm3.18-.048H14.42v.06h3.156v-.06zm-.132.252l.156-.204-.048-.036-.156.204.048.036zm.006 1.44v-1.458h-.06v1.458h.06z" class="C"/><path d="M15.188 12.756h-.216v.99h.216v-.99zm1.824 0h-.216v.99h.216v-.99z" class="B D"/><path d="M14.972 12.756v-.03l-.03.03h.03zm.216 0h.03l-.03-.03v.03zm-.216.99h-.03l.03.03v-.03zm.216 0v.03l.03-.03h-.03zm1.608-.99v-.03l-.03.03h.03zm.216 0h.03l-.03-.03v.03zm-.216.99h-.03l.03.03v-.03zm.216 0v.03l.03-.03h-.03zm-2.04-.96h.216v-.06h-.216v.06zm.03.96v-.99h-.06v.99h.06zm.186-.03h-.216v.06h.216v-.06zm-.03-.96v.99h.06v-.99h-.06zm1.638.03h.216v-.06h-.216v.06zm.03.96v-.99h-.06v.99h.06zm.186-.03h-.216v.06h.216v-.06zm-.03-.96v.99h.06v-.99h-.06z" class="C"/><g class="B"><g class="E F"><path d="M14.36 10.452v1.656h3.24v-1.656c-.076.028-.134.09-.156.168v.708h-2.922v-.708s-.036-.12-.168-.168h.006z"/><path d="M17.156 14.07c-.108-.042-.336-.174-.336-.3v-1.632c.024-.09.144-.144.222-.204H14.9c.102.06.216.102.258.204v1.632c0 .126-.18.258-.288.3h2.286z"/></g><path d="M17.444 10.776v1.176h-2.922v-1.17h.3v-.12h2.328v.114h.294zm-1.002 2.994c0 .126.15.258.258.3h-1.404c.102-.042.258-.174.258-.3v-1.398l-.09-.12h1.062l-.084.126v1.392z" class="D"/></g><path d="M17.444 11.952v.03h.03v-.03h-.03zm0-1.176h.03v-.03h-.03v.03zm-2.922 1.176h-.03v.03h.03v-.03zm0-1.17v-.03h-.03v.03h.03zm.3 0v.03h.03v-.03h-.03zm0-.12v-.03h-.03v.03h.03zm2.328 0h.03v-.03h-.03v.03zm0 .114h-.03v.03h.03v-.03zm-.45 3.294v.03l.011-.058-.011.028zm-1.404 0l-.011-.028.011.058v-.03zm.258-1.698h.03v-.01l-.006-.008-.024.018zm-.09-.12v-.03h-.06l.036.048.024-.018zm1.062 0l.025.017.031-.047h-.056v.03zm-.084.126l-.025-.017-.005.008v.009h.03zm1.032-.426v-1.176h-.06v1.176h.06zm-2.952.03h2.922v-.06h-2.922v.06zm-.03-1.2v1.17h.06v-1.17h-.06zm.33-.03h-.3v.06h.3v-.06zm-.03-.09v.12h.06v-.12h-.06zm2.358-.03h-2.328v.06h2.328v-.06zm.03.144v-.114h-.06v.114h.06zm.264-.03h-.294v.06h.294v-.06zm-.733 3.296a.47.47 0 0 1-.159-.111c-.049-.052-.08-.109-.08-.161h-.06c0 .074.044.146.097.202a.53.53 0 0 0 .18.126l.022-.056zm-1.415.058H16.7v-.06h-1.404v.06zm.228-.33c0 .051-.033.109-.082.161a.5.5 0 0 1-.157.112l.023.055a.56.56 0 0 0 .178-.125c.054-.056.099-.128.099-.202h-.06zm0-1.398v1.398h.06v-1.398h-.06zm-.084-.102l.09.12.048-.036-.09-.12-.048.036zm1.086-.048h-1.062v.06h1.062v-.06zm-.059.173l.084-.126-.05-.033-.084.126.05.033zm.005 1.375v-1.392h-.06v1.392h.06z" class="C"/><g class="B"><g class="E F"><path d="M15.722 12.252h.54v1.818h-.54v-1.818z"/><path d="M16.544 11.85c0-.12.348-.126.528-.228h-2.16c.18.102.522.108.522.228l.072.234.9.036.138-.27z" class="G"/></g><path d="M17.36 10.086s-.294.036-.294.372v-.282c-.09 0-.102.108-.102.402l-1.938-.006c0-.282 0-.402-.108-.402v.93c.222.084.378.36.378.36h1.392s.156-.276.378-.36v.528h.216v-.852s-.09 0-.09-.15c0-.144.054-.246.168-.24v-.3z" class="D"/></g><path d="M17.36 10.086h.03v-.034l-.034.004.004.03zm-.294.09h.03v-.03h-.03v.03zm-.102.402v.03h.03v-.03h-.03zm-1.938-.006h-.03v.03h.03v-.03zm-.108-.402v-.03h-.03v.03h.03zm0 .93h-.03v.021l.019.007.011-.028zm.378.36l-.026.015.009.015h.018v-.03zm1.392 0v.03h.018l.009-.015-.026-.015zm.378-.36h.03v-.043l-.041.015.011.028zm0 .528h-.03v.03h.03v-.03zm.216 0v.03h.03v-.03h-.03zm0-.852h.03v-.03h-.03v.03zm.078-.39l-.002.03.032.002v-.032h-.03zm-.264.072c0-.157.068-.242.134-.287.034-.023.067-.037.093-.045l.03-.008c.01-.002.01-.002.007-.032l-.004-.03-.051.012c-.03.009-.069.026-.109.053-.081.056-.16.158-.16.337h.06zm-.06-.282v.282h.06v-.282h-.06zm-.042.402c0-.148.003-.245.017-.305.007-.03.015-.046.023-.055s.016-.012.032-.012v-.06c-.029 0-.055.009-.076.031s-.031.049-.038.083c-.015.068-.018.172-.018.318h.06zm-1.968.024l1.938.006v-.06l-1.938-.006v.06zm-.108-.402c.021 0 .033.006.041.014s.018.027.024.057c.013.062.013.158.013.301h.06l-.014-.313c-.007-.035-.019-.065-.04-.087s-.051-.032-.084-.032v.06zm.03.9v-.93h-.06v.93h.06zm.348.36l.026-.015-.029-.046c-.019-.028-.046-.066-.08-.107-.068-.081-.166-.175-.285-.22l-.021.056c.104.039.194.125.26.203a1.17 1.17 0 0 1 .076.101l.02.031c.007.011.007.011.033-.004zm1.392-.03h-1.392v.06h1.392v-.06zm.367-.358a.74.74 0 0 0-.285.22c-.034.041-.061.079-.08.107l-.021.034c-.008.013-.008.013.018.028l.026.015.027-.043c.018-.027.043-.063.076-.101.066-.078.156-.164.26-.203l-.021-.056zm.041.556V11.1h-.06v.528h.06zm.186-.03h-.216v.06h.216v-.06zm-.03-.822v.852h.06v-.852h-.06zm-.09-.15c0 .081.025.128.056.154.015.013.03.019.042.022l.021.003c.001 0 .001 0 .001-.03v-.03c-.011-.003-.018-.006-.026-.012-.014-.011-.034-.039-.034-.108h-.06zm.2-.27c-.068-.004-.12.026-.153.077s-.046.118-.046.193h.06c0-.069.013-.124.036-.16s.054-.053.1-.05l.003-.06zm-.032-.27v.3h.06v-.3h-.06z" class="C"/><path d="M14.918 10.458c0-.336-.294-.372-.294-.372v.3c.114-.006.168.096.168.24 0 .15-.09.15-.09.15v.852h.216v-1.17z" class="B E F"/><g class="C"><path d="M15.488 8.186h1.032v-.06h-1.032v.06zm-.12.324h1.26v-.06h-1.26v.06zm-.12.39h1.494v-.06h-1.494v.06zm-.126.474h1.77v-.06h-1.77v.06zm-.042.54h1.824v-.06H15.08v.06zm.372 1.726v-.03h-.03v.03h.03zm1.08 0h.03v-.03h-.03v.03zm0 .396v.03h.03v-.03h-.03zm-1.08 0h-.03v.03h.03v-.03zm-.924-.346h2.916v-.06h-2.916v.06zm2.916-.06h-2.916v.06h2.916v-.06zm-1.992.04h1.08v-.06h-1.08v.06zm1.05-.03v.396h.06v-.396h-.06zm.03.366h-1.08v.06h1.08v-.06zm-1.05.03v-.396h-.06v.396h.06z"/></g><path d="M15.758 8.214l.144.078.204-.006.138-.072v-.21l-.023.007c-.049.014-.104.03-.104.113-.019-.107-.041-.124-.078-.152l-.036-.028c-.014.014-.027.023-.039.032-.035.026-.062.045-.075.148-.011-.086-.06-.1-.113-.115l-.019.205zm-.281 3.267c.002-.219.006-.535-.156-.729h1.356c-.162.194-.159.51-.156.729v.069h-1.044v-.069z" class="B D"/><path d="M15.902 8.292l-.014.026.007.004h.008l-.001-.03zm-.144-.078h-.03v.018l.016.009.014-.026zm.348.072l.001.033.013-.007-.014-.027zm.138-.072l.014.027.016-.008v-.018h-.03zm0-.21h.03v-.042l-.039.013.009.028zm-.023.007l.008.029h0l-.008-.029zm-.104.113l-.029.005.059-.005h-.03zm-.078-.152l-.018.024h0l.018-.024zm-.036-.028l.02-.022-.021-.019-.02.02.021.021zm-.039.032l.018.024h0l-.018-.024zm-.075.148l-.03.004h.059l-.03-.004zm-.113-.115l-.008.029h0l.008-.029zm-.019-.005l.009-.029-.039-.012v.04h.03zm-.438 2.748v-.03h-.064l.041.049.023-.019zm.156.729h.03-.03zm1.199-.729l.023.019.041-.049h-.064v.03zm-.156.729h.03-.03zm0 .069v.03h.03v-.03h-.03zm-1.044 0h-.03v.03h.03v-.03zm.44-3.284l-.144-.078-.028.053.144.078.028-.053zm.189-.01l-.204.006.002.06.204-.006-.002-.06zm.125-.069l-.138.072.028.053.138-.072-.028-.053zm-.016-.183v.21h.06v-.21h-.06zm.016.036l.024-.007-.019-.057-.021.007.017.058zm-.082.084c0-.034.011-.05.022-.059s.034-.018.06-.025l-.017-.058c-.023.007-.056.016-.081.036s-.044.056-.044.106h.06zm-.126-.127c.019.014.029.022.038.037s.019.043.028.095l.059-.01c-.009-.055-.021-.09-.036-.116s-.036-.041-.054-.055l-.036.048zm-.038-.03c.014.013.027.022.038.03l.036-.048-.033-.027-.04.045zM15.983 8c.012-.009.027-.019.042-.035l-.043-.042c-.012.012-.023.02-.035.029l.035.048zm-.063.128c.006-.05.016-.075.025-.091s.02-.024.038-.036l-.035-.048c-.017.013-.037.027-.054.054s-.027.061-.034.115l.059.008zm-.151-.09c.028.008.047.014.062.025s.025.027.03.064l.059-.007c-.006-.049-.024-.082-.052-.104s-.058-.029-.083-.036l-.016.058zm-.019-.005l.035-.052-.035.052zm.039.181v-.21h-.06v.21h.06zm-.491 2.557a.68.68 0 0 1 .133.341c.019.128.018.259.016.369l.06.001c.001-.109.003-.245-.017-.378s-.06-.267-.146-.37l-.046.038zm1.379-.049H15.32v.06h1.356v-.06zm-.126.759c-.001-.11-.002-.241.016-.369a.68.68 0 0 1 .133-.341l-.046-.038c-.086.103-.127.237-.146.37s-.018.269-.017.378l.06-.001zm0 .069v-.069l-.06.001v.069h.06zm-1.074.03h1.044v-.06h-1.044v.06zm-.029-.099v.069h.06v-.069l-.06-.001z" class="C"/><g class="B"><path d="M15.89 8.634l-.24-.168V8.28c.09.018.18.03.192.132.024-.15.078-.222.162-.282.078.06.132.132.162.282.006-.102.102-.114.18-.132v.192l-.234.162h-.222z" class="E F"/><path d="M15.872 9.168l-.27-.24v-.282l.024.006c.089.021.181.043.191.18.03-.21.09-.324.18-.408.096.084.156.198.192.408.011-.137.102-.159.191-.18l.024-.006v.282l-.276.24h-.258zm.504.318l-.24.342h-.282l-.246-.342h.768zm-.732 1.026c-.012-.252-.06-.39-.18-.456h1.056c-.12.066-.168.204-.18.456h-.696z" class="D"/></g><path d="M15.602 8.928h-.03v.013l.01.009.02-.022zm.27.24l-.02.022.008.008h.011v-.03zm-.27-.522l.007-.029-.037-.009v.038h.03zm.024.006l-.007.029h0l.007-.029zm.191.18l-.03.002.06.002-.03-.004zm.18-.408l.02-.023-.02-.018-.02.018.021.022zm.192.408l-.03.005.059-.003-.03-.002zm.191-.18l.007.029h0l-.007-.029zm.024-.006h.03v-.038l-.037.009.007.029zm0 .282l.02.023.01-.009v-.014h-.03zm-.276.24v.03h.011l.008-.007-.02-.023zm.006.66v.03h.016l.009-.013-.024-.017zm.24-.342l.024.017.033-.047h-.058v.03zm-.522.342l-.024.018.009.012h.015v-.03zm-.246-.342v-.03h-.059l.034.048.024-.018zm-.144.57v-.03l-.014.056.014-.026zm.18.456l-.03.001.001.029h.029v-.03zm.876-.456l.014.026-.014-.056v.03zm-.18.456v.03h.029l.001-.029-.03-.001zm-.758-1.562l.27.24.04-.045-.27-.24-.04.045zm-.01-.304v.282h.06v-.282h-.06zm.062-.023l-.025-.006-.014.058.024.006.014-.058zm.214.207c-.006-.076-.035-.125-.079-.156s-.092-.041-.136-.051l-.014.058c.046.011.085.021.114.042s.049.051.054.112l.06-.005zm.13-.428c-.096.09-.159.211-.189.426l.059.008c.029-.205.087-.312.171-.39l-.041-.044zm.242.425c-.037-.214-.099-.335-.202-.426l-.04.045c.089.078.147.184.182.39l.059-.01zm.155-.204c-.043.01-.094.022-.136.051s-.073.079-.079.156l.06.005c.005-.061.027-.092.054-.112s.069-.031.114-.042l-.014-.058zm.024-.006l-.025.006.014.058.024-.006-.014-.058zm.037.311v-.282h-.06v.282h.06zm-.286.263l.276-.24-.039-.045-.276.24.039.045zm-.278.007h.258v-.06h-.258v.06zm.288.647l.24-.342-.049-.034-.24.342.049.034zm-.306.013h.282v-.06h-.282v.06zm-.27-.354l.246.342.049-.035-.246-.342-.049.035zm.792-.048h-.768v.06h.768v-.06zm-.927.626c.105.057.152.179.165.431l.06-.003c-.012-.252-.06-.406-.196-.481l-.029.053zm1.07-.056h-1.056v.06h1.056v-.06zm-.15.487c.012-.252.06-.374.164-.431l-.029-.053c-.135.075-.184.229-.196.481l.06.003zm-.726.029h.696v-.06h-.696v.06z" class="C"/><g class="B"><g class="E F"><g class="G"><path d="M16.532 9.48v-.336c-.105.022-.191.097-.228.198 0-.12-.15-.378-.312-.51-.162.144-.318.384-.312.504-.03-.09-.108-.162-.228-.192v.342l1.08-.006z"/><path d="M16.58 10.056V9.72c-.126.036-.21.102-.246.198 0-.12-.162-.378-.342-.51-.18.15-.348.384-.342.51-.03-.09-.12-.162-.246-.198v.342l1.176-.006z"/><path d="M16.724 10.758v-.396c-.125.039-.233.119-.306.228 0-.21-.24-.54-.426-.642-.192.108-.426.444-.426.642a.58.58 0 0 0-.312-.228v.396h1.47z"/><path d="M16.64 11.64v-.408c-.144.054-.18.186-.228.282.018-.414-.228-.852-.42-.966-.192.114-.444.564-.42.96-.048-.084-.09-.222-.228-.276v.402l1.296.006z"/></g><path d="M16.544 12.252v-.408c-.15.036-.156.09-.204.18.018-.246-.156-.528-.348-.636a.76.76 0 0 0-.348.636c-.048-.09-.054-.144-.204-.18v.408h1.104zm-6.324 1.5v-1.224c-.042-.156-.18-.3-.276-.324v-1.08l.222.12.258 1.134v1.38l-.204-.006z"/><path d="M10.22 13.758v-1.23c-.042-.156-.18-.3-.276-.324v-1.152c.15 0 .222.192.222.192l.258 1.134v1.374l-.204.006z"/><path d="M10.058 14.07c.102-.042.252-.174.252-.3v-1.536l-.072-.12h2.622l-.102.12v1.536a.36.36 0 0 0 .204.3h-2.904z"/><path d="M12.428 14.07c-.102-.042-.252-.174-.252-.3v-1.458l.216-.204h-1.776l.216.204v1.458c0 .126-.15.258-.252.3h1.848z"/><path d="M12.182 14.07c-.102-.042-.258-.174-.258-.3v-1.32l.144-.198H10.94l.144.198v1.32c0 .126-.15.258-.258.3h1.356z"/><path d="M11.24 12.252h.534v1.824h-.54l.006-1.824z"/></g><path d="M10.316 10.896h.258v.192h.006v1.02h-.264v-1.02-.192zm.186 1.86h.216v.99h-.216v-.99zm1.848 0h.21v.99h-.216l.006-.99zm.468-1.446h-.366v.78h.366v-.78z" class="D"/></g><path d="M10.574 10.896h.03l-.03-.03v.03zm-.258 0v-.03l-.03.03h.03zm.258.192h-.03l.03.03v-.03zm.006 0h.03l-.03-.03v.03zm0 1.02v.03l.03-.03h-.03zm-.264 0h-.03l.03.03v-.03zm.402.648h.03l-.03-.03v.03zm-.216 0v-.03l-.03.03h.03zm.216.99v.03l.03-.03h-.03zm-.216 0h-.03l.03.03v-.03zm2.058-.99h.03l-.03-.03v.03zm-.21 0v-.03l-.03.03h.03zm.21.99v.03l.03-.03h-.03zm-.216 0h-.03l.03.03v-.03zm.108-2.436v-.03l-.03.03h.03zm.366 0h.03l-.03-.03v.03zm-.366.78h-.03l.03.03v-.03zm.366 0v.03l.03-.03h-.03zm-2.244-1.224h-.258v.06h.258v-.06zm.03.222v-.192h-.06v.192h.06zm-.024-.03h-.006v.06h.006v-.06zm.03 1.05v-1.02h-.06v1.02h.06zm-.294.03h.264v-.06h-.264v.06zm-.03-1.05v1.02h.06v-1.02h-.06zm0-.192v.192h.06v-.192h-.06zm.432 1.83h-.216v.06h.216v-.06zm.03 1.02v-.99h-.06v.99h.06zm-.246.03h.216v-.06h-.216v.06zm-.03-1.02v.99h.06v-.99h-.06zm2.088-.03h-.21v.06h.21v-.06zm.03 1.02v-.99h-.06v.99h.06zm-.246.03h.216v-.06h-.216v.06zm-.024-1.02l-.006.99h.06l.006-.99h-.06zm.132-1.416h.366v-.06h-.366v.06zm.03.75v-.78h-.06v.78h.06zm.336-.03h-.366v.06h.366v-.06zm-.03-.75v.78h.06v-.78h-.06z" class="C"/><path d="M10.574 10.356v1.74h1.89v-1.734c-.029 0-.048.039-.071.087-.035.073-.08.165-.181.165-.09 0-.078-.108-.03-.192.042-.078.096-.18.024-.378-.054.15-.186.198-.162.108a.49.49 0 0 1 .055-.125c.044-.078.082-.145.017-.313-.03.204-.162.198-.132.078a.81.81 0 0 1 .031-.09c.033-.085.06-.155-.013-.3-.054.222-.12.21-.12.072 0-.208 0-.422-.252-.498 0 0-.018-.18-.108-.18-.096 0-.114.18-.114.18-.252.078-.252.294-.252.498 0 .138-.066.15-.12-.072-.073.145-.046.215-.013.3l.031.09c.03.12-.102.126-.132-.078-.066.168-.027.236.017.313.02.036.042.074.055.125.024.09-.108.042-.162-.108-.072.198-.018.3.024.378.054.084.06.192-.03.192-.102 0-.146-.094-.181-.169-.023-.049-.042-.089-.071-.089zm-.414 1.752v-1.326c.048-.03.096-.03.15 0v1.326h-.15z" class="B D"/><path d="M10.574 12.096h-.03v.03h.03v-.03zm0-1.74v-.03h-.03v.03h.03zm1.89 1.74v.03h.03v-.03h-.03zm0-1.734h.03v-.03h-.03v.03zm-.071.087l.027.013-.027-.013zm-.211-.027l.026.015v-.001l-.026-.014zm.024-.378l.028-.01-.028-.078-.028.078.028.01zm-.162.108l.029.008h0l-.029-.008zm.055-.125l-.026-.015.026.015zm.017-.313l.028-.011-.041-.105-.017.112.03.004zm-.132.078l-.029-.008h0l.029.007zm.031-.09l.028.011-.028-.011zm-.013-.3l.027-.013-.037-.073-.019.08.029.007zm-.12.059h.03 0-.03zm-.252-.485l-.03.003.002.02.019.006.009-.029zm-.222 0l.009.029.019-.006.002-.02-.03-.003zm-.372.426l.029-.007-.019-.08-.037.073.027.013zm-.013.3l.028-.011h0l-.028.011zm.031.09l.029-.007h0l-.029.008zm-.132-.078l.03-.004-.016-.112-.041.105.028.011zm.017.313l.026-.015-.026.015zm.055.125l-.029.008h0l.029-.008zm-.162-.108l.028-.01-.028-.078-.028.078.028.01zm.024.378l-.027.014.001.002.025-.016zm-.211.023l.027-.013h0l-.027.013zm-.485.337l-.016-.025-.014.009v.017h.03zm0 1.326h-.03v.03h.03v-.03zm.15-1.326h.03v-.018l-.015-.008-.015.026zm0 1.326v.03h.03v-.03h-.03zm.294-.012v-1.74h-.06v1.74h.06zm1.86-.03h-1.89v.06h1.89v-.06zm-.03-1.704v1.734h.06v-1.734h-.06zm-.014.1l.031-.057.013-.073c-.03 0-.049.021-.062.038s-.025.043-.036.066l.054.026zm-.208.182c.062 0 .106-.028.138-.065s.053-.081.07-.117l-.054-.026c-.018.037-.036.075-.061.103s-.053.045-.093.045v.06zm-.056-.237c-.026.045-.043.099-.041.144.001.023.008.047.026.065s.042.028.071.028v-.06c-.016 0-.024-.005-.028-.009s-.008-.013-.009-.027c-.002-.03.011-.072.033-.111l-.052-.03zm.022-.353a.43.43 0 0 1 .029.219c-.009.055-.031.096-.052.135l.053.028a.47.47 0 0 0 .058-.153.49.49 0 0 0-.032-.249l-.056.021zm-.163.09c-.007.025-.007.059.021.076.013.007.026.008.038.007s.024-.006.035-.012c.045-.024.095-.08.124-.16l-.056-.02c-.025.069-.067.112-.096.128-.006.012-.014.018-.009-.002l-.058-.015zm.058-.132c-.02.036-.044.077-.058.132l.058.015a.46.46 0 0 1 .052-.118l-.052-.03zm.015-.287c.032.081.037.135.031.175s-.024.073-.046.112l.052.03c.022-.038.045-.079.053-.133s-.001-.119-.034-.206l-.056.022zm-.133.06c-.008.034-.007.066.007.09.007.012.018.022.032.027s.028.005.041.002c.027-.007.05-.029.069-.059s.034-.072.042-.126l-.059-.009c-.007.048-.02.082-.033.104s-.027.03-.033.032c-.009-.007-.013-.02-.007-.046l-.058-.015zm.032-.093l-.032.093.058.015a.77.77 0 0 1 .03-.086l-.056-.022zm-.011-.276c.035.07.044.118.043.158s-.015.075-.031.118l.056.022c.016-.042.033-.085.035-.137a.38.38 0 0 0-.049-.187l-.054.027zm-.123.059c0 .036.004.067.013.09.005.011.012.023.023.031s.028.012.043.007.024-.014.032-.023.017-.023.024-.038c.015-.031.03-.074.044-.13l-.058-.014c-.013.054-.027.093-.039.118-.006.013-.012.021-.016.026-.001-.01-.005-.032-.005-.065h-.06zm0-.013l.06.013-.06-.013zm-.231-.456c.117.035.173.101.201.179s.03.178.03.277h.06c0-.096.001-.204-.033-.297a.34.34 0 0 0-.24-.217l-.017.057zm-.099-.179c.011 0 .021.005.032.018s.02.031.027.052a.39.39 0 0 1 .015.057l.004.024c0 .002 0 .002.03-.001l.03-.003-.005-.031c-.003-.018-.009-.042-.017-.066s-.021-.051-.038-.071-.044-.039-.078-.039v.06zm-.114.15l.03.003.004-.026a.37.37 0 0 1 .015-.057c.008-.021.017-.039.029-.052s.023-.018.036-.018v-.06c-.035 0-.061.017-.081.038s-.032.047-.041.072a.43.43 0 0 0-.018.067l-.003.022c-.001.009-.001.009.029.012zm-.222.498c0-.103 0-.203.03-.286s.084-.147.201-.183l-.018-.057c-.135.042-.205.122-.24.22s-.033.206-.033.306h.06zm-.179-.065a.65.65 0 0 0 .044.13c.008.015.016.028.024.038s.019.019.032.023.03.002.043-.007.018-.02.023-.031c.009-.022.013-.054.013-.09h-.06c0 .033-.004.055-.009.067-.001-.007-.006-.015-.013-.028a.6.6 0 0 1-.039-.118l-.058.014zm.044.282c-.017-.043-.03-.077-.031-.118s.008-.089.043-.158l-.054-.027a.38.38 0 0 0-.049.187c.002.052.019.095.035.137l.056-.022zm.032.093a.81.81 0 0 0-.032-.093l-.056.022.03.086.058-.015zm-.191-.066c.008.054.023.096.042.126s.042.051.069.059c.014.004.028.004.042-.002s.024-.015.032-.027c.014-.024.016-.056.007-.09l-.058.015c.006.026.003.04 0 .044-.013 0-.026-.008-.04-.03s-.026-.056-.033-.104l-.059.009zm.072.294c-.022-.039-.04-.071-.046-.112s-.001-.094.031-.175l-.056-.022c-.034.087-.043.151-.035.206s.031.095.053.133l.052-.03zm.058.132c-.014-.055-.038-.097-.058-.132l-.052.03c.02.036.04.071.052.118l.058-.015zm-.219-.09c.029.081.08.137.124.16.011.006.023.011.035.012s.026.001.038-.007c.028-.017.028-.051.021-.076l-.058.015c.005.02-.003.014.006.009-.044-.022-.086-.065-.111-.135l-.056.02zm.079.354c-.021-.039-.043-.08-.052-.135a.43.43 0 0 1 .029-.219l-.056-.021a.49.49 0 0 0-.032.249.47.47 0 0 0 .058.153l.053-.028zm-.056.236c.029 0 .054-.009.072-.027s.025-.042.027-.065a.25.25 0 0 0-.044-.146l-.05.032c.025.038.037.08.034.109-.001.014-.005.023-.01.028s-.013.009-.029.009v.06zm-.208-.186c.017.037.039.083.07.119s.077.067.138.067v-.06c-.04 0-.069-.018-.093-.046s-.043-.068-.061-.106l-.054.026zm-.044-.072c.022.027.032.047.044.072l.054-.026c-.011-.024-.023-.048-.036-.067s-.032-.039-.062-.039v.06zm-.444.396v1.326h.06v-1.326h-.06zm.195-.026c-.03-.017-.061-.026-.092-.026s-.061.01-.089.027l.032.051c.02-.012.039-.018.057-.018a.13.13 0 0 1 .063.019l.029-.052zm.015 1.352v-1.326h-.06v1.326h.06zm-.18.03h.15v-.06h-.15v.06z" class="C"/><path d="M12.764 12.108v-.864c.03-.024.084-.018.12 0v.864h-.12zm-2.172 0c-.048-.258-.234-.372-.42-.468v.468h.42z" class="B D"/><path d="M12.764 11.244l-.019-.023-.011.009v.014h.03zm0 .864h-.03v.03h.03v-.03zm.12-.864h.03v-.018l-.017-.008-.013.027zm0 .864v.03h.03v-.03h-.03zm-2.712-.468l.014-.027-.044-.023v.049h.03zm.42.468v.03h.036l-.007-.036-.029.006zm-.42 0h-.03v.03h.03v-.03zm2.562-.864v.864h.06v-.864h-.06zm.163-.027c-.022-.011-.048-.018-.075-.019s-.055.004-.078.022l.037.047c.007-.006.02-.01.038-.009s.036.005.05.013l.027-.054zm.017.891v-.864h-.06v.864h.06zm-.15.03h.12v-.06h-.12v.06zm-2.606-.471c.185.096.359.204.404.447l.059-.011c-.051-.273-.249-.393-.436-.489l-.028.053zm.044.441v-.468h-.06v.468h.06zm.39-.03h-.42v.06h.42v-.06z" class="C"/><path d="M11.756 9.528l-.108.09h-.27l-.108-.096v-.12c.042.012.06.018.09.06a.3.3 0 0 1 .156-.174.3.3 0 0 1 .15.18c.03-.042.054-.06.09-.06v.12zm.708 2.574c.048-.264.234-.372.42-.462v.462h-.42z" class="B D"/><path d="M11.648 9.618v.03h.011l.008-.007-.019-.023zm.108-.09l.019.023.011-.009v-.014h-.03zm-.378.09l-.02.022.008.008h.011v-.03zm-.108-.096h-.03v.013l.01.009.02-.022zm0-.12l.008-.029-.038-.011v.04h.03zm.09.06l-.024.017.034.047.019-.055-.028-.01zm.156-.174l.014-.027-.013-.007-.013.006.013.027zm.15.18l-.029.009.018.058.036-.05-.024-.017zm.09-.06h.03v-.03h-.03v.03zm1.128 2.232h.03v-.048l-.043.021.013.027zm-.42.462l-.03-.005-.006.035h.036v-.03zm.42 0v.03h.03v-.03h-.03zm-1.217-2.461l.108-.09-.038-.046-.108.09.038.046zm-.289.007h.27v-.06h-.27v.06zm-.128-.104l.108.096.04-.045-.108-.096-.04.045zm-.01-.142v.12h.06v-.12h-.06zm.144.043a.17.17 0 0 0-.049-.049c-.018-.011-.037-.016-.057-.022l-.016.058c.022.006.033.01.042.016s.018.014.032.033l.049-.035zm.119-.184a.33.33 0 0 0-.172.191l.057.019a.27.27 0 0 1 .14-.157l-.026-.054zm.191.198a.33.33 0 0 0-.165-.198l-.027.053a.27.27 0 0 1 .135.162l.057-.017zm.061-.081a.11.11 0 0 0-.064.019c-.019.013-.035.031-.05.053l.049.035c.014-.02.025-.032.035-.038a.05.05 0 0 1 .03-.009v-.06zm.03.15v-.12h-.06v.12h.06zm1.085 2.085c-.187.09-.386.204-.436.484l.059.011c.045-.248.218-.351.404-.44l-.026-.054zm.043.489v-.462h-.06v.462h.06zm-.45.03h.42v-.06h-.42v.06z" class="C"/><g class="B"><g class="E F"><path d="M11.708 9.912l.048-.114v-.15c-.036 0-.06.018-.09.06a.3.3 0 0 0-.15-.18.3.3 0 0 0-.156.174c-.03-.042-.048-.048-.09-.054v.15l.048.114h.39z"/><path d="M11.72 10.308l.156-.198v-.192c-.06 0-.09.03-.132.096-.042-.138-.12-.162-.228-.228-.114.06-.192.09-.228.222-.048-.066-.078-.084-.138-.09v.192l.162.198h.408z"/><path d="M11.762 10.698s.192-.162.198-.252v-.21c-.072.006-.138.024-.192.114-.048-.174-.12-.222-.252-.3-.138.078-.21.126-.252.3-.06-.09-.12-.108-.198-.12v.216a.9.9 0 0 0 .198.252h.498z"/><path d="M11.84 11.418s.264-.282.27-.396v-.324c-.096.012-.192.078-.264.216-.06-.27-.156-.456-.33-.588-.18.132-.276.318-.336.588-.072-.138-.162-.204-.258-.216v.324c.018.114.264.396.264.396h.654z"/><path d="M11.84 11.844s.222-.222.27-.318v-.324c-.096.012-.192.078-.264.21a.84.84 0 0 0-.33-.552c-.18.132-.276.282-.336.552-.072-.132-.162-.198-.258-.21v.324c.06.096.264.318.264.318h.654z"/><path d="M11.93 12.096c-.06-.282-.12-.492-.426-.702-.312.21-.366.42-.432.702h.858z"/><path d="M12.092 12.252v-.408c-.144.06-.27.138-.318.228-.048-.228-.15-.324-.276-.462-.126.138-.21.24-.264.462-.048-.09-.174-.174-.312-.228v.408h1.17zm9.69 1.5v-1.224c.042-.156.18-.3.276-.324v-1.08l-.222.12-.258 1.134v1.38l.204-.006z"/><path d="M21.782 13.758v-1.23c.042-.156.18-.3.276-.324v-1.152c-.15 0-.222.192-.222.192l-.258 1.134v1.374l.204.006z"/><path d="M21.944 14.07c-.102-.042-.252-.174-.252-.3v-1.536l.072-.12h-2.622l.102.12v1.536a.36.36 0 0 1-.204.3h2.904z"/><path d="M19.574 14.07c.102-.042.252-.174.252-.3v-1.458l-.216-.204h1.776l-.216.204v1.458c0 .126.15.258.252.3h-1.848z"/><path d="M19.82 14.07c.102-.042.258-.174.258-.3v-1.32l-.144-.198h1.128l-.144.198v1.32c0 .126.15.258.258.3H19.82z"/><path d="M20.762 12.252h-.534v1.824h.54l-.006-1.824z"/></g><path d="M21.686 10.896h-.258v.192h-.006v1.02h.264v-1.02-.192zm-.186 1.86h-.216v.99h.216v-.99zm-1.848 0h-.21v.99h.216l-.006-.99zm-.468-1.446h.366v.78h-.366v-.78z" class="D"/></g><path d="M21.428 10.896h-.03l.03-.03v.03zm.258 0v-.03l.03.03h-.03zm-.258.192h.03l-.03.03v-.03zm-.006 0h-.03l.03-.03v.03zm0 1.02v.03l-.03-.03h.03zm.264 0h.03l-.03.03v-.03zm-.402.648h-.03l.03-.03v.03zm.216 0v-.03l.03.03h-.03zm-.216.99v.03l-.03-.03h.03zm.216 0h.03l-.03.03v-.03zm-2.058-.99h-.03l.03-.03v.03zm.21 0v-.03l.03.03h-.03zm-.21.99v.03l-.03-.03h.03zm.216 0h.03l-.03.03v-.03zm-.108-2.436v-.03l.03.03h-.03zm-.366 0h-.03l.03-.03v.03zm.366.78h.03l-.03.03v-.03zm-.366 0v.03l-.03-.03h.03zm2.244-1.224h.258v.06h-.258v-.06zm-.03.222v-.192h.06v.192h-.06zm.024-.03h.006v.06h-.006v-.06zm-.03 1.05v-1.02h.06v1.02h-.06zm.294.03h-.264v-.06h.264v.06zm.03-1.05v1.02h-.06v-1.02h.06zm0-.192v.192h-.06v-.192h.06zm-.432 1.83h.216v.06h-.216v-.06zm-.03 1.02v-.99h.06v.99h-.06zm.246.03h-.216v-.06h.216v.06zm.03-1.02v.99h-.06v-.99h.06zm-2.088-.03h.21v.06h-.21v-.06zm-.03 1.02v-.99h.06v.99h-.06zm.246.03h-.216v-.06h.216v.06zm.024-1.02l.006.99h-.06l-.006-.99h.06zm-.132-1.416h-.366v-.06h.366v.06zm-.03.75v-.78h.06v.78h-.06zm-.336-.03h.366v.06h-.366v-.06zm.03-.75v.78h-.06v-.78h.06z" class="C"/><path d="M21.428 10.356v1.74h-1.89v-1.734c.029 0 .048.039.071.087.035.073.08.165.181.165.09 0 .078-.108.03-.192-.042-.078-.096-.18-.024-.378.054.15.186.198.162.108-.013-.051-.035-.089-.055-.125-.044-.078-.082-.145-.017-.313.03.204.162.198.132.078-.009-.034-.02-.062-.031-.09-.033-.085-.06-.155.013-.3.054.222.12.21.12.072 0-.208 0-.422.252-.498 0 0 .018-.18.108-.18.096 0 .114.18.114.18.252.078.252.294.252.498 0 .138.066.15.12-.072.073.145.046.215.013.3l-.031.09c-.03.12.102.126.132-.078.066.168.027.236-.017.313a.49.49 0 0 0-.055.125c-.024.09.108.042.162-.108.072.198.018.3-.024.378-.054.084-.06.192.03.192.102 0 .146-.094.181-.169.023-.049.042-.089.071-.089zm.414 1.752v-1.326c-.048-.03-.096-.03-.15 0v1.326h.15z" class="B D"/><path d="M21.428 12.096h.03v.03h-.03v-.03zm0-1.74v-.03h.03v.03h-.03zm-1.89 1.74v.03h-.03v-.03h.03zm0-1.734h-.03v-.03h.03v.03zm.071.087l-.027.013.027-.013zm.211-.027l-.026.015v-.001l.026-.014zm-.024-.378l-.028-.01.028-.078.028.078-.028.01zm.162.108l-.029.008h0l.029-.008zm-.055-.125l.026-.015-.026.015zm-.017-.313l-.028-.011.041-.105.017.112-.03.004zm.132.078l.029-.008h0l-.029.007zm-.031-.09l-.028.011.028-.011zm.013-.3l-.027-.013.037-.073.019.08-.029.007zm.12.059h-.03 0 .03zm.252-.485l.03.003-.002.02-.019.006-.009-.029zm.222 0l-.009.029-.019-.006-.002-.02.03-.003zm.372.426l-.029-.007.019-.08.037.073-.027.013zm.013.3l-.028-.011h0l.028.011zm-.031.09l-.029-.007h0l.029.008zm.132-.078l-.03-.004.017-.112.041.105-.028.011zm-.017.313l-.026-.015.026.015zm-.055.125l.029.008h0l-.029-.008zm.162-.108l-.028-.01.028-.078.028.078-.028.01zm-.024.378l.026.014-.001.002-.025-.016zm.211.023l-.027-.013h0l.027.013zm.485.337l.016-.025.014.009v.017h-.03zm0 1.326h.03v.03h-.03v-.03zm-.15-1.326h-.03v-.018l.015-.008.015.026zm0 1.326v.03h-.03v-.03h.03zm-.294-.012v-1.74h.06v1.74h-.06zm-1.86-.03h1.89v.06h-1.89v-.06zm.03-1.704v1.734h-.06v-1.734h.06zm.014.1l-.031-.057-.013-.073c.03 0 .049.021.062.038s.025.043.036.066l-.054.026zm.208.182c-.061 0-.106-.028-.138-.065s-.053-.081-.07-.117l.054-.026a.46.46 0 0 0 .061.103c.024.027.053.045.093.045v.06zm.056-.237c.026.045.043.099.041.144-.001.023-.008.047-.025.065s-.043.028-.071.028v-.06c.016 0 .024-.005.028-.009s.008-.013.009-.027c.002-.03-.01-.072-.033-.111l.052-.03zm-.022-.353a.43.43 0 0 0-.029.219c.009.055.031.096.052.135l-.053.028a.47.47 0 0 1-.058-.153.49.49 0 0 1 .032-.249l.056.021zm.163.09c.007.025.007.059-.021.076-.013.007-.026.008-.038.007s-.024-.006-.035-.012c-.044-.024-.095-.08-.124-.16l.056-.02c.025.069.067.112.096.128.006.012.014.018.009-.002l.058-.015zm-.058-.132c.02.036.044.077.058.132l-.058.015c-.012-.047-.032-.082-.052-.118l.052-.03zm-.015-.287c-.032.081-.037.135-.031.175s.024.073.046.112l-.052.03c-.022-.038-.045-.079-.053-.133s0-.119.035-.206l.056.022zm.133.06c.009.034.007.066-.007.09-.007.012-.018.022-.032.027s-.028.005-.042.002c-.026-.007-.05-.029-.069-.059s-.034-.072-.042-.126l.059-.009c.007.048.02.082.033.104s.027.03.033.032c.009-.007.013-.02.007-.046l.058-.015zm-.032-.093l.032.093-.058.015c-.008-.032-.019-.059-.03-.086l.056-.022zm.012-.276c-.035.07-.044.118-.043.158s.015.075.031.118l-.056.022c-.016-.042-.033-.085-.035-.137a.38.38 0 0 1 .049-.187l.054.027zm.123.059c0 .036-.004.067-.013.09-.005.011-.012.023-.023.031s-.028.012-.043.007-.024-.014-.032-.023-.017-.023-.024-.038a.65.65 0 0 1-.044-.13l.058-.014a.59.59 0 0 0 .039.118c.006.013.012.021.016.026.001-.01.005-.032.005-.065h.06zm0-.013l-.06.013.06-.013zm.231-.456c-.117.035-.173.101-.201.179s-.03.178-.03.277h-.06c0-.096 0-.204.033-.297a.34.34 0 0 1 .24-.217l.017.057zm.099-.179c-.011 0-.021.005-.032.018s-.02.031-.027.052a.4.4 0 0 0-.015.057l-.004.024c0 .002 0 .002-.03-.001l-.03-.003.005-.031a.45.45 0 0 1 .017-.066c.008-.024.021-.051.038-.071s.044-.039.078-.039v.06zm.114.15l-.03.003-.004-.026c-.003-.016-.008-.037-.015-.057s-.017-.039-.029-.052-.023-.018-.036-.018v-.06c.035 0 .061.017.081.038s.032.047.041.072a.43.43 0 0 1 .018.067l.004.022c.001.009.001.009-.029.012zm.222.498c0-.103 0-.203-.03-.286s-.084-.147-.201-.183l.018-.057c.135.042.205.122.24.22s.033.206.033.306h-.06zm.179-.065c-.014.057-.029.1-.044.13-.008.015-.016.028-.024.038s-.019.019-.032.023-.03.002-.043-.007-.018-.02-.023-.031c-.009-.022-.013-.054-.013-.09h.06c0 .033.004.055.009.067.001-.007.007-.015.013-.028.012-.025.026-.064.039-.118l.058.014zm-.045.282c.017-.043.03-.077.031-.118s-.008-.089-.043-.158l.054-.027c.038.076.051.135.049.187s-.019.095-.035.137l-.056-.022zm-.032.093c.009-.035.021-.066.032-.093l.056.022-.03.086-.058-.015zm.191-.066c-.008.054-.023.096-.042.126s-.042.051-.069.059c-.014.004-.028.004-.042-.002s-.024-.015-.032-.027c-.014-.024-.016-.056-.007-.09l.058.015c-.006.026-.003.04 0 .044.013 0 .026-.008.04-.03s.026-.056.033-.104l.059.009zm-.073.294a.31.31 0 0 0 .046-.112c.006-.041 0-.094-.031-.175l.056-.022c.034.087.042.151.034.206s-.031.095-.053.133l-.052-.03zm-.058.132c.014-.055.038-.097.058-.132l.052.03a.46.46 0 0 0-.052.118l-.058-.015zm.219-.09c-.029.081-.08.137-.124.16-.011.006-.023.011-.035.012s-.026.001-.038-.007c-.029-.017-.028-.051-.021-.076l.058.015c-.005.02.003.014-.006.009.044-.022.086-.065.111-.135l.056.02zm-.079.354c.021-.039.043-.08.052-.135a.43.43 0 0 0-.029-.219l.056-.021a.49.49 0 0 1 .032.249.47.47 0 0 1-.058.153l-.053-.028zm.056.236c-.029 0-.054-.009-.072-.027s-.025-.042-.027-.065a.25.25 0 0 1 .044-.146l.05.032c-.025.038-.037.08-.034.109.001.014.005.023.01.028s.013.009.029.009v.06zm.209-.186c-.017.037-.039.083-.07.119s-.076.067-.138.067v-.06c.04 0 .069-.018.093-.046a.47.47 0 0 0 .061-.106l.054.026zm.044-.072c-.022.027-.032.047-.044.072l-.054-.026.036-.067c.012-.018.032-.039.062-.039v.06zm.444.396v1.326h-.06v-1.326h.06zm-.195-.026c.03-.017.061-.026.092-.026s.061.01.089.027l-.032.051c-.02-.012-.039-.018-.057-.018a.13.13 0 0 0-.063.019l-.029-.052zm-.015 1.352v-1.326h.06v1.326h-.06zm.18.03h-.15v-.06h.15v.06z" class="C"/><path d="M19.238 12.108v-.864c-.03-.024-.084-.018-.12 0v.864h.12zm2.172 0c.048-.258.234-.372.42-.468v.468h-.42z" class="B D"/><path d="M19.238 11.244l.019-.023.011.009v.014h-.03zm0 .864h.03v.03h-.03v-.03zm-.12-.864h-.03v-.018l.017-.008.013.027zm0 .864v.03h-.03v-.03h.03zm2.712-.468l-.014-.027.044-.023v.049h-.03zm-.42.468v.03h-.036l.007-.036.029.006zm.42 0h.03v.03h-.03v-.03zm-2.562-.864v.864h-.06v-.864h.06zm-.163-.027c.022-.011.048-.018.075-.019s.055.004.077.022l-.037.047c-.007-.006-.02-.01-.038-.009s-.036.005-.05.013l-.027-.054zm-.017.891v-.864h.06v.864h-.06zm.15.03h-.12v-.06h.12v.06zm2.606-.471c-.185.096-.359.204-.404.447l-.059-.011c.051-.273.249-.393.436-.489l.027.053zm-.044.441v-.468h.06v.468h-.06zm-.39-.03h.42v.06h-.42v-.06z" class="C"/><path d="M20.246 9.528l.108.09h.27l.108-.096v-.12c-.042.012-.06.018-.09.06a.3.3 0 0 0-.156-.174.3.3 0 0 0-.15.18c-.03-.042-.054-.06-.09-.06v.12zm-.708 2.574c-.048-.264-.234-.372-.42-.462v.462h.42z" class="B D"/><path d="M20.354 9.618v.03h-.011l-.008-.007.019-.023zm-.108-.09l-.019.023-.011-.009v-.014h.03zm.378.09l.02.022-.009.008h-.011v-.03zm.108-.096h.03v.013l-.01.009-.02-.022zm0-.12l-.008-.029.038-.011v.04h-.03zm-.09.06l.024.017-.034.047-.019-.055.028-.01zm-.156-.174l-.014-.027.013-.007.013.006-.013.027zm-.15.18l.029.009-.018.058-.036-.05.024-.017zm-.09-.06h-.03v-.03h.03v.03zm-1.128 2.232h-.03v-.048l.043.021-.013.027zm.42.462l.029-.005.006.035h-.036v-.03zm-.42 0v.03h-.03v-.03h.03zm1.217-2.461l-.108-.09.038-.046.108.09-.038.046zm.289.007h-.27v-.06h.27v.06zm.128-.104l-.108.096-.04-.045.108-.096.04.045zm.01-.142v.12h-.06v-.12h.06zm-.144.043a.17.17 0 0 1 .049-.049c.018-.011.037-.016.057-.022l.017.058c-.022.006-.033.01-.042.016s-.018.014-.032.033l-.049-.035zm-.119-.184a.33.33 0 0 1 .172.191l-.057.019a.27.27 0 0 0-.14-.157l.026-.054zm-.191.198a.33.33 0 0 1 .165-.198l.027.053a.27.27 0 0 0-.135.162l-.057-.017zm-.061-.081a.11.11 0 0 1 .064.019.21.21 0 0 1 .05.053l-.049.035c-.014-.02-.025-.032-.035-.038a.05.05 0 0 0-.03-.009v-.06zm-.03.15v-.12h.06v.12h-.06zm-1.085 2.085c.187.09.386.204.436.484l-.059.011c-.045-.248-.218-.351-.404-.44l.026-.054zm-.043.489v-.462h.06v.462h-.06zm.45.03h-.42v-.06h.42v.06z" class="C"/><g class="B"><g class="E F"><path d="M20.294 9.912l-.048-.114v-.15c.036 0 .06.018.09.06a.3.3 0 0 1 .15-.18.3.3 0 0 1 .156.174c.03-.042.048-.048.09-.054v.15l-.048.114h-.39z"/><path d="M20.282 10.308l-.156-.198v-.192c.06 0 .09.03.132.096.042-.138.12-.162.228-.228.114.06.192.09.228.222.048-.066.078-.084.138-.09v.192l-.162.198h-.408z"/><path d="M20.24 10.698s-.192-.162-.198-.252v-.21c.072.006.138.024.192.114.048-.174.12-.222.252-.3.138.078.21.126.252.3.06-.09.12-.108.198-.12v.216a.9.9 0 0 1-.198.252h-.498z"/><path d="M20.162 11.418s-.264-.282-.27-.396v-.324c.096.012.192.078.264.216.06-.27.156-.456.33-.588.18.132.276.318.336.588.072-.138.162-.204.258-.216v.324c-.018.114-.264.396-.264.396h-.654z"/><path d="M20.162 11.844s-.222-.222-.27-.318v-.324c.096.012.192.078.264.21a.84.84 0 0 1 .33-.552c.18.132.276.282.336.552.072-.132.162-.198.258-.21v.324c-.06.096-.264.318-.264.318h-.654z"/><path d="M20.072 12.096c.06-.282.12-.492.426-.702.312.21.366.42.432.702h-.858z"/><path d="M19.91 12.252v-.408c.144.06.27.138.318.228.048-.228.15-.324.276-.462.126.138.21.24.264.462.048-.09.174-.174.312-.228v.408h-1.17z"/></g><path d="M22.58 14.43H9.416v.486H22.58v-.486zM8.642 15.558H23.36v.75h.39v.75H8.252v-.75h.39v-.75z" class="D"/></g><path d="M9.416 14.43v-.03h-.03v.03h.03zm13.164 0h.03v-.03h-.03v.03zm-13.164.486h-.03v.03h.03v-.03zm13.164 0v.03h.03v-.03h-.03zm.78.642h.03v-.03h-.03v.03zm-14.718 0v-.03h-.03v.03h.03zm14.718.75h-.03v.03h.03v-.03zm.39 0h.03v-.03h-.03v.03zm0 .75v.03h.03v-.03h-.03zm-15.498 0h-.03v.03h.03v-.03zm0-.75v-.03h-.03v.03h.03zm.39 0v.03h.03v-.03h-.03zm.774-1.848H22.58v-.06H9.416v.06zm.03.456v-.486h-.06v.486h.06zm13.134-.03H9.416v.06H22.58v-.06zm-.03-.456v.486h.06v-.486h-.06zm.81 1.098H8.642v.06H23.36v-.06zm.03.78v-.75h-.06v.75h.06zm.36-.03h-.39v.06h.39v-.06zm.03.78v-.75h-.06v.75h.06zm-15.528.03H23.75v-.06H8.252v.06zm-.03-.78v.75h.06v-.75h-.06zm.42-.03h-.39v.06h.39v-.06zm-.03-.72v.75h.06v-.75h-.06z" class="C"/><path d="M22.364 14.058H9.644v.372h12.72v-.372zm.612.858H9.032v.636h13.944v-.636z" class="B D"/><path d="M9.644 14.058v-.03h-.03v.03h.03zm12.72 0h.03v-.03h-.03v.03zm-12.72.372h-.03v.03h.03v-.03zm12.72 0v.03h.03v-.03h-.03zm-13.332.486v-.03h-.03v.03h.03zm13.944 0h.03v-.03h-.03v.03zm-13.944.636h-.03v.03h.03v-.03zm13.944 0v.03h.03v-.03h-.03zM9.644 14.088h12.72v-.06H9.644v.06zm.03.342v-.372h-.06v.372h.06zm12.69-.03H9.644v.06h12.72v-.06zm-.03-.342v.372h.06v-.372h-.06zm-13.302.888h13.944v-.06H9.032v.06zm.03.606v-.636h-.06v.636h.06zm13.914-.03H9.032v.06h13.944v-.06zm-.03-.606v.636h.06v-.636h-.06z" class="C"/><g class="B"><path d="M11.024 14.058h.96v3h-.96v-3z" class="E F"/><path d="M11.774 14.058h-.534l-.006 3h.54v-3zm4.686 0h-.96v3h.96v-3z" class="D"/></g><path d="M11.24 14.058v-.03h-.03v.03h.03zm.534 0h.03v-.03h-.03v.03zm-.54 3h-.03v.03h.03v-.03zm.54 0v.03h.03v-.03h-.03zm3.726-3v-.03h-.03v.03h.03zm.96 0h.03v-.03h-.03v.03zm-.96 3h-.03v.03h.03v-.03zm.96 0v.03h.03v-.03h-.03zm-5.22-2.97h.534v-.06h-.534v.06zm.024 2.97l.006-3h-.06l-.006 3h.06zm.51-.03h-.54v.06h.54v-.06zm-.03-2.97v3h.06v-3h-.06zm3.756.03h.96v-.06h-.96v.06zm.03 2.97v-3h-.06v3h.06zm.93-.03h-.96v.06h.96v-.06zm-.03-2.97v3h.06v-3h-.06z" class="C"/><path d="M16.262 14.058h-.54v3h.54v-3zm4.71 0h-.96v3h.96v-3z" class="B D"/><path d="M15.722 14.058v-.03h-.03v.03h.03zm.54 0h.03v-.03h-.03v.03zm-.54 3h-.03v.03h.03v-.03zm.54 0v.03h.03v-.03h-.03zm3.75-3v-.03h-.03v.03h.03zm.96 0h.03v-.03h-.03v.03zm-.96 3h-.03v.03h.03v-.03zm.96 0v.03h.03v-.03h-.03zm-5.25-2.97h.54v-.06h-.54v.06zm.03 2.97v-3h-.06v3h.06zm.51-.03h-.54v.06h.54v-.06zm-.03-2.97v3h.06v-3h-.06zm3.78.03h.96v-.06h-.96v.06zm.03 2.97v-3h-.06v3h.06zm.93-.03h-.96v.06h.96v-.06zm-.03-2.97v3h.06v-3h-.06z" class="C"/><path d="M20.222 14.058h.54v3h-.54v-3z" class="B E F"/><path d="M10.22 13.802H21.8v-.06H10.22v.06zm1.008 2.928h.552v-.06h-.552v.06zm0-.378h.552v-.06h-.552v.06zm0-.372h.552v-.06h-.552v.06zm0-.378h.552v-.06h-.552v.06zm0-.372h.552v-.06h-.552v.06zm0-.378h.552v-.06h-.552v.06zm0-.372h.552v-.06h-.552v.06zm4.5 2.25h.516v-.06h-.516v.06zm0-.378h.516v-.06h-.516v.06zm0-.372h.516v-.06h-.516v.06zm0-.378h.516v-.06h-.516v.06zm0-.372h.516v-.06h-.516v.06zm0-.378h.516v-.06h-.516v.06zm0-.372h.516v-.06h-.516v.06zm4.488 2.25h.552v-.06h-.552v.06zm0-.378h.552v-.06h-.552v.06zm0-.372h.552v-.06h-.552v.06zm0-.378h.552v-.06h-.552v.06zm0-.372h.552v-.06h-.552v.06zm0-.378h.552v-.06h-.552v.06zm0-.372h.552v-.06h-.552v.06z" class="C"/></g><defs><clipPath id="A"><path d="M0 0h32v24H0z" class="B"/></clipPath></defs></svg>
