<svg xmlns="http://www.w3.org/2000/svg" viewBox="0 0 32 24" fill="none"><style><![CDATA[.B{fill-rule:evenodd}]]></style><g clip-path="url(#C)"><path fill="#fff" d="M0 0h32v24H0z"/><path d="M0 0V24H32V0H0Z" fill="#e31d1c" class="B"/><mask id="A" maskUnits="userSpaceOnUse" x="0" y="0" width="32" height="24"><path d="M0 0V24H32V0H0Z" fill="#fff" class="B"/></mask><g mask="url(#A)"><path d="M16.009 9.961l.05.005a7.6 7.6 0 0 1 .288-.821c.206-.482.8-.753.8-.753s-.294.331-.371.857c-.047.321-.064.647-.07.852l.041.013c.104-.177.277-.459.473-.717.316-.418.959-.537.959-.537s-.365.25-.567.741c-.117.285-.209.581-.265.78l.061.036a7.49 7.49 0 0 1 .601-.571c.402-.336 1.055-.307 1.055-.307s-.412.162-.719.595a7.44 7.44 0 0 0-.417.67l.065.061.68-.399c.468-.237 1.097-.062 1.097-.062s-.438.065-.835.418c-.203.18-.392.377-.528.527l.055.081.718-.209c.511-.117 1.079.205 1.079.205s-.441-.043-.911.203a7.17 7.17 0 0 0-.595.354l.048.126.693-.037c.524.001 1.006.443 1.006.443s-.42-.141-.934-.007a7.01 7.01 0 0 0-.614.194l.021.158.631.113c.511.119.88.657.88.657s-.377-.232-.908-.217l-.595.046-.018.172.544.246c.467.239.695.851.695.851s-.31-.316-.829-.43l-.54-.093-.069.191.437.336c.401.338.486.986.486.986s-.231-.378-.711-.605l-.473-.2-.123.183.326.397c.315.419.252 1.069.252 1.069s-.14-.42-.556-.75l-.393-.286-.167.152.21.444c.204.483-.015 1.099-.015 1.099s-.034-.442-.358-.862l-.296-.355-.214.116.099.46c.09.516-.261 1.067-.261 1.067s.066-.438-.155-.921l-.204-.403-.241.061-.007.46c-.029.523-.495.981-.495.981s.163-.412.056-.932l-.108-.438-.144.003a3.16 3.16 0 0 1-.098-.001l-.119.449c-.154.501-.717.832-.717.832s.258-.36.279-.891l.002-.454-.239-.057-.22.416c-.263.453-.886.649-.886.649s.332-.293.473-.805l.107-.458-.211-.11-.317.368c-.358.383-1.01.434-1.01.434s.389-.211.642-.678l.218-.446-.164-.144-.421.298c-.44.284-1.085.176-1.085.176s.429-.11.787-.503l.336-.402-.12-.173-.505.209c-.493.178-1.096-.072-1.096-.072s.443-.011.88-.313l.449-.341-.069-.18-.575.097c-.52.063-1.052-.317-1.052-.317s.434.089.927-.107l.557-.253-.02-.159-.631-.046c-.52-.065-.944-.562-.944-.562s.4.191.926.12a7.04 7.04 0 0 0 .646-.121l.016-.147-.649-.199c-.492-.18-.793-.76-.793-.76s.346.276.875.326c.254.024.511.029.709.027l.042-.117-.628-.36c-.439-.286-.602-.919-.602-.919s.275.347.779.514c.264.088.536.154.735.197l.048-.074-.56-.535c-.357-.384-.362-1.037-.362-1.037s.183.403.632.687a7.45 7.45 0 0 0 .701.386l.058-.056c-.123-.166-.298-.417-.448-.678-.261-.454-.119-1.092-.119-1.092s.088.434.461.812a7.54 7.54 0 0 0 .625.557l.055-.034c-.082-.189-.204-.486-.296-.789-.152-.502.129-1.091.129-1.091s-.012.443.267.895c.172.279.372.543.499.704l.037-.013a7.58 7.58 0 0 1-.101-.863c-.026-.524.389-1.027.389-1.027s-.119.427.042.933c.101.316.232.623.317.809l.049-.006c.011-.203.038-.542.096-.871.092-.516.611-.913.611-.913s-.212.389-.169.918a7.62 7.62 0 0 0 .127.86z" fill="#ffc84a" class="B"/><path d="M-.792 13.92l2.615-1.061a1.56 1.56 0 0 1 1.188.005l3.631 1.511a1.56 1.56 0 0 0 1.276-.034l2.929-1.405a1.56 1.56 0 0 1 1.331-.01l3.068 1.417a1.56 1.56 0 0 0 1.303.003l3.139-1.431a1.56 1.56 0 0 1 1.303.003l3.099 1.431a1.56 1.56 0 0 0 1.284.011l3.386-1.491a1.56 1.56 0 0 1 1.158-.04l3.036 1.092v10.014H-.881l.089-10.014z" fill="#f7fcff" class="B"/><mask id="B" maskUnits="userSpaceOnUse" x="-1" y="12" width="34" height="12"><path d="M-.792 13.92l2.615-1.061a1.56 1.56 0 0 1 1.188.005l3.631 1.511a1.56 1.56 0 0 0 1.276-.034l2.929-1.405a1.56 1.56 0 0 1 1.331-.01l3.068 1.417a1.56 1.56 0 0 0 1.303.003l3.139-1.431a1.56 1.56 0 0 1 1.303.003l3.099 1.431a1.56 1.56 0 0 0 1.284.011l3.386-1.491a1.56 1.56 0 0 1 1.158-.04l3.036 1.092v10.014H-.881l.089-10.014z" fill="#fff" class="B"/></mask><g mask="url(#B)"><path d="M-.792 16.246l2.615-1.061a1.56 1.56 0 0 1 1.188.005l3.631 1.511a1.56 1.56 0 0 0 1.276-.034l2.929-1.405a1.56 1.56 0 0 1 1.331-.01l3.068 1.417a1.56 1.56 0 0 0 1.303.003l3.139-1.431a1.56 1.56 0 0 1 1.303.003l3.099 1.43a1.56 1.56 0 0 0 1.284.011l3.386-1.491a1.56 1.56 0 0 1 1.158-.04l3.036 1.092M-.792 19.575l2.615-1.061a1.56 1.56 0 0 1 1.188.005l3.631 1.511a1.56 1.56 0 0 0 1.276-.034l2.929-1.405c.42-.201.908-.205 1.331-.01l3.068 1.417a1.56 1.56 0 0 0 1.303.003l3.139-1.431a1.56 1.56 0 0 1 1.303.003l3.099 1.431a1.56 1.56 0 0 0 1.284.011l3.386-1.491a1.56 1.56 0 0 1 1.158-.04l3.036 1.092" stroke="#015989" stroke-width="2"/><path d="M-.792 22.227L.3 21.784a5.56 5.56 0 0 1 4.229.019l2.113.879a1.56 1.56 0 0 0 1.276-.034l1.231-.59a5.56 5.56 0 0 1 4.739-.035l1.358.627c.413.191.889.192 1.303.003l1.469-.67a5.56 5.56 0 0 1 4.639.011l1.433.661a1.56 1.56 0 0 0 1.284.011l1.924-.847a5.56 5.56 0 0 1 4.123-.144l1.533.551v3.315H-.608l-.184-3.315z" fill="#015989" class="B"/></g><path d="M9.78 3.418h1.861c.469 0 1.526-.717 2.137-.478s1.641 1.01 1.641 1.01 1.7-1.342 2.713-1.342 2.842-.149 2.842-.149-.429 1.113-1.636 1.302-2.65 1.112-2.65 1.112h1.961c.299 0 .689.451.689.451s-.805.547-1.207.547h-.845s-.854.733-1.909.577-1.902-1.124-1.902-1.124-.923-.132-.923-.292c0 0-.109-.05-.159-.049-.29.008-.484.06-.581.049.531-.207.74-.39.74-.39s.365-.343.644-.343 1.21.574 1.21.574l.222-.231-1.154-.881c-2.353.247-3.695-.344-3.695-.344z" fill="#ffc84a" class="B"/></g></g><defs><clipPath id="C"><path fill="#fff" d="M0 0h32v24H0z"/></clipPath></defs></svg>
