<svg xmlns="http://www.w3.org/2000/svg" viewBox="0 0 32 24" fill="none"><style><![CDATA[.B{fill-rule:evenodd}]]></style><g clip-path="url(#B)"><path fill="#fff" d="M0 0h32v24H0z"/><path d="M0 0V24H32V0H0Z" fill="#5196ed" class="B"/><mask id="A" maskUnits="userSpaceOnUse" x="0" y="0" width="32" height="24"><path d="M0 0V24H32V0H0Z" fill="#fff" class="B"/></mask><g mask="url(#A)" class="B"><path d="M0 12v6h32v-6H0z" fill="#af0100"/><path d="M0 6v6h32V6H0z" fill="#f7fcff"/><path d="M0 0V6H32V0H0Z" fill="#feca00"/><path d="M0 0L19 12L0 24V0Z" fill="#5eaa22"/><path d="M7.305 16.501s-3.583-1.223-3.457-5.052S7.623 6.87 7.623 6.87c-1.278-.923-5.85.159-5.996 4.579s4.315 5.403 5.678 5.052zm.108-6.692l.112-.655-.476-.464.657-.095L8 8l.294.595.657.095-.476.464.112.655L8 9.5l-.588.309zm.112 1.345l-.112.654L8 11.5l.588.309-.112-.654.476-.463-.657-.096L8 10l-.294.595-.657.096.476.463zm-.112 2.654l.112-.654-.476-.463.657-.096L8 12l.294.595.657.096-.476.463.112.654L8 13.5l-.588.309zm0 2l.112-.654-.476-.463.657-.096L8 14l.294.595.657.096-.476.463.112.654L8 15.5l-.588.309z" fill="#f7fcff"/></g></g><defs><clipPath id="B"><path fill="#fff" d="M0 0h32v24H0z"/></clipPath></defs></svg>
