<svg xmlns="http://www.w3.org/2000/svg" viewBox="0 0 32 24" fill="none"><g clip-path="url(#A)"><path fill="#fff" d="M0 0h32v24H0z"/><g fill-rule="evenodd"><path d="M0 0V24H32V0H0Z" fill="#c51918"/><path d="M0 0V24L32 0H0Z" fill="#5eaa22"/></g><path d="M.636 27.952l.723.807.901-.602L38.522 3.954l1.199-.8-.962-1.074-5.321-5.936-.723-.807-.901.602-36.261 24.203-1.199.8.962 1.074 5.321 5.936z" fill="#272727" stroke="#ffd018" stroke-width="2.5"/><g fill-rule="evenodd" fill="#f7fcff"><path d="M12.089 16.918L11 18.813l-.695-2.134-2.162-.687 1.802-1.101-.217-2.232 1.778 1.367 1.842-1.021-.516 2.274 1.478 1.701-2.22-.061zm10-6.553L21 12.26l-.695-2.134-2.162-.687 1.802-1.101-.217-2.232 1.778 1.367 1.842-1.021-.517 2.274 1.478 1.701-2.22-.061z"/></g></g><defs><clipPath id="A"><path fill="#fff" d="M0 0h32v24H0z"/></clipPath></defs></svg>
