<svg xmlns="http://www.w3.org/2000/svg" viewBox="0 0 32 24" fill="none"><g clip-path="url(#B)"><path fill="#fff" d="M0 0h32v24H0z"/><path fill-rule="evenodd" d="M0 0V24H32V0H0Z" fill="#3d58db"/><mask id="A" maskUnits="userSpaceOnUse" x="0" y="0" width="32" height="24"><path fill-rule="evenodd" d="M0 0V24H32V0H0Z" fill="#fff"/></mask><g mask="url(#A)"><path d="M0 5h-1v1 12 1h1 32 1v-1V6 5h-1H0z" fill="#c51918" stroke="#f7fcff" stroke-width="2"/><path fill-rule="evenodd" d="M10 17a5 5 0 1 0 0-10 5 5 0 1 0 0 10z" fill="#f7fcff"/><path fill-rule="evenodd" d="M9.995 13.87l-2.716 1.89.958-3.168L5.6 10.593l3.309-.067L9.995 7.4l1.087 3.126 3.309.067-2.637 1.999.958 3.168-2.716-1.89z" fill="#c51918"/></g></g><defs><clipPath id="B"><path fill="#fff" d="M0 0h32v24H0z"/></clipPath></defs></svg>
