<svg xmlns="http://www.w3.org/2000/svg" viewBox="0 0 32 24" fill="none"><style><![CDATA[.B{fill-rule:evenodd}]]></style><g clip-path="url(#C)"><path fill="#fff" d="M0 0h32v24H0z"/><path d="M0 0V24H32V0H0Z" fill="#f7fcff" class="B"/><mask id="A" maskUnits="userSpaceOnUse" x="0" y="0" width="32" height="24"><path d="M0 0V24H32V0H0Z" fill="#fff" class="B"/></mask><g mask="url(#A)"><path d="M16 18.22c3.203 0 5.799-2.757 5.799-6.158S19.203 5.902 16 5.902s-5.799 2.757-5.799 6.159S12.797 18.22 16 18.22z" fill="#3d58db" class="B"/><mask id="B" maskUnits="userSpaceOnUse" x="10" y="5" width="12" height="14"><path d="M16 18.22c3.203 0 5.799-2.757 5.799-6.158S19.203 5.902 16 5.902s-5.799 2.757-5.799 6.159S12.797 18.22 16 18.22z" fill="#fff" class="B"/></mask><g mask="url(#B)" class="B"><path d="M22.002 12.533s-.325-2.904-2.736-3.062-3.061 2.13-3.2 2.736-.491 2.223-3.029 2.223-2.767-4.11-2.767-4.11V5.472h11.732v7.061z" fill="#e31d1c"/></g><path d="M7.299 2.052l.915.828-4.24 4.952-.915-.828 4.24-4.952zm1.509 1.339l.915.828-4.088 4.88-.915-.828 4.088-4.88zm2.417 2.183l-.915-.828-4.1 4.917.915.828 4.1-4.917zm14.139-3.869l-.915.824 1.587 1.863.915-.824-1.587-1.863zm2.822 3.427l-.915.824 1.588 1.863.915-.824-1.587-1.863zm-6.757.081l.915-.824 1.587 1.863-.915.824-1.587-1.863zm3.737 2.602l-.915.824 1.587 1.863.915-.824-1.587-1.863zm-2.169-3.984l.915-.824 4.419 5.381-.915.824-4.419-5.381zm3.058 10.412l-.923-.828-1.601 1.87.923.828 1.601-1.87zm-2.691 3.291l-.923-.828-1.601 1.87.923.828 1.601-1.87zm4.683-1.501l.923.828-1.601 1.87-.923-.828 1.601-1.87zm-1.637 4.195l-.923-.828-1.601 1.87.923.828 1.601-1.87zm-2.443-2.25l.923.828-1.671 1.997-.923-.828 1.671-1.997zm3.664-2.5l-.923-.828-1.671 1.997.923.828 1.671-1.997zM6.407 14.89l.915-.825 4.085 4.681-.915.825-4.085-4.68zm.953 4.094l.915-.825L10 20.054l-.915.825-1.725-1.896zm-3.05-2.293l-.915.825L7.5 22.26l.915-.825-4.106-4.743zm.651-.539l.915-.825 1.496 1.754-.915.825-1.496-1.754z" fill="#272727" class="B"/></g></g><defs><clipPath id="C"><path fill="#fff" d="M0 0h32v24H0z"/></clipPath></defs></svg>
