<svg xmlns="http://www.w3.org/2000/svg" viewBox="0 0 32 24" fill="none"><style><![CDATA[.B{fill:#fff}.C{fill:#f50100}.D{fill-rule:evenodd}.E{fill:#f7fcff}.F{stroke-width:.1}.G{fill:#ffd100}.H{fill:#059334}]]></style><g clip-path="url(#D)"><path d="M0 0h32v24H0z" class="B"/><g clip-path="url(#E)"><path d="M0 0V24H32V0H0Z" fill="#2e42a5" class="D"/><mask id="A" maskUnits="userSpaceOnUse" x="0" y="0" width="32" height="24"><path d="M0 0V24H32V0H0Z" class="B D"/></mask><g mask="url(#A)"><path d="M-2.004 13l3.961 1.737L18.09 1.889l2.089-2.582-4.236-.581-6.58 5.537-5.296 3.73L-2.004 13z" class="E"/><path d="M-1.462 14.217l2.018 1.008L19.429-.933h-2.833l-18.058 15.15z" class="C"/><path d="M20.004 13l-3.961 1.737L-.09 1.889-2.179-.693l4.236-.581 6.58 5.537 5.296 3.73L20.004 13z" class="E"/><path d="M19.869 13.873l-2.018 1.008-8.036-6.918-2.383-.773L-2.38-.684H.453l9.807 7.688 2.605.927 7.004 5.943z" class="C"/><mask id="B" maskUnits="userSpaceOnUse" x="-2" y="-2" width="22" height="18" fill="#000"><path d="M-2-2h22v18H-2z" class="B"/><path d="M9.985 0h-2v6H0v2h7.985v6h2V8H18V6H9.985V0z" class="D"/></mask><path d="M9.985 0h-2v6H0v2h7.985v6h2V8H18V6H9.985V0z" class="C D"/><path d="M7.985 0v-1.5h-1.5V0h1.5zm2 0h1.5v-1.5h-1.5V0zm-2 6v1.5h1.5V6h-1.5zM0 6V4.5h-1.5V6H0zm0 2h-1.5v1.5H0V8zm7.985 0h1.5V6.5h-1.5V8zm0 6h-1.5v1.5h1.5V14zm2 0v1.5h1.5V14h-1.5zm0-6V6.5h-1.5V8h1.5zM18 8v1.5h1.5V8H18zm0-2h1.5V4.5H18V6zM9.985 6h-1.5v1.5h1.5V6zm-2-4.5h2v-3h-2v3zm1.5 4.5V0h-3v6h3zM0 7.5h7.985v-3H0v3zm1.5.5V6h-3v2h3zm6.485-1.5H0v3h7.985v-3zm1.5 7.5V8h-3v6h3zm.5-1.5h-2v3h2v-3zM8.485 8v6h3V8h-3zM18 6.5H9.985v3H18v-3zM16.5 6v2h3V6h-3zM9.985 7.5H18v-3H9.985v3zM8.485 0v6h3V0h-3z" mask="url(#B)" class="E"/><g clip-path="url(#F)"><use href="#G" class="B"/><use href="#G" stroke="#0b50a0" class="F"/><use href="#G" stroke="#f7fcff" class="F"/><mask id="C" maskUnits="userSpaceOnUse" x="21" y="11" width="8" height="10"><path d="M21.058 14.722V11.05h7.802 0v.006.006.006.006.006.006.006.007.006.007.006.007.007.007.007.007.007.007.007.007.007.007.007.007.007.007.007.007.007.007.007.007.007.007.007.007.007.007.007.007.007.007.007.007.007.007.007.007.007.007.007.007.007.007.007.007.007.007.007.007.007.007.007.007.007.007.007.007.007.007.007.007.007.007.007.007.007.007.007.007.007.007.007.008.007.008.007.008.008.007.008.007.008.008.008.008.008.008.008.008.008.008.008.008.008.008.008.008.008.008.008.008.008.008.008.008.008.008.008.008.008.008.008.008.008.008.008.008.008.008.008V12v.008.008.008.008.008.008.008.008.008.008.008.008.008.008.008.008.008.008.008.008.008.008.008.008.008.008.008.008.008.008.008.008.008.008.008.008.008.008.008.008.008.008.008.008.008.008.008.008.008.008.008.008.008.008.008.008.008.008.008.008.008.008.008.008.008.008.008.008.008.008.008.008.008.008.008.008.008.008.008.008.008.008.008.008.008.008.008.008.008.008.008.008.008.008.008.008.008.008.008.008.008.008.008.008.008.008.008.008.008.008.008.008.008.008.008.008.008.008.008.008.008.008.008.008.008.008.008.008.008.008.008.008.008.008.008.008.008.008.008.008.008.008.008.008.008.008.008.008.008.008.008.008.008.008.008.008.008.008.008.008.008.008.008.008.008.008.008.008.008.008.008.008.008.008.008.008.008.008.008.008.008.008.008.008.008.008.008.008.008.008.008.008.008.008.008.008.008.008.008.008.008.008.008.008.008.008.008.007.008.008.008.008.008.008.008.007.008.008.007.008.007.008.007.007.007.007.007.007.007.007.007.007.007.007.007.007.007.007.007.007.007.007.007.007.007.007.007.007.007.007.007.007.007.007.007.007.007.007.007.007.007.007.007.007.007.007.007.007.007.007.007.007.007.007.007.007.007.007.007.007.007.007.007.007.007.007.007.007.007.007.007.006.007.007.007.007.006.007.006.007.006.006.006.006.006.006.006.006.006.006.006.006.006.006.006.006.006.006.006.006.006.006.006.006.006.006.006.006.006.006.006.006.006.006.006.006.006.006.006.006.006.006.006.006.006.006.006.006.006.006.006.006.005.005.006.005.005.005.005.005.005.005.005.005.005.005.005.005.005.005.005.005c0 2.352-.909 3.909-1.835 4.879-.463.485-.931.824-1.292 1.041-.181.108-.334.186-.447.237l-.136.056-.04.013c-.013.002-.016.002-.022 0l-.042-.013-.144-.056c-.12-.051-.284-.129-.478-.237-.387-.217-.891-.556-1.39-1.041-.997-.97-1.978-2.527-1.978-4.878z" class="B"/><path d="M21.058 14.722V11.05h7.802 0v.006.006.006.006.006.006.006.007.006.007.006.007.007.007.007.007.007.007.007.007.007.007.007.007.007.007.007.007.007.007.007.007.007.007.007.007.007.007.007.007.007.007.007.007.007.007.007.007.007.007.007.007.007.007.007.007.007.007.007.007.007.007.007.007.007.007.007.007.007.007.007.007.007.007.007.007.007.007.007.007.007.007.007.008.007.008.007.008.008.007.008.007.008.008.008.008.008.008.008.008.008.008.008.008.008.008.008.008.008.008.008.008.008.008.008.008.008.008.008.008.008.008.008.008.008.008.008.008.008.008.008V12v.008.008.008.008.008.008.008.008.008.008.008.008.008.008.008.008.008.008.008.008.008.008.008.008.008.008.008.008.008.008.008.008.008.008.008.008.008.008.008.008.008.008.008.008.008.008.008.008.008.008.008.008.008.008.008.008.008.008.008.008.008.008.008.008.008.008.008.008.008.008.008.008.008.008.008.008.008.008.008.008.008.008.008.008.008.008.008.008.008.008.008.008.008.008.008.008.008.008.008.008.008.008.008.008.008.008.008.008.008.008.008.008.008.008.008.008.008.008.008.008.008.008.008.008.008.008.008.008.008.008.008.008.008.008.008.008.008.008.008.008.008.008.008.008.008.008.008.008.008.008.008.008.008.008.008.008.008.008.008.008.008.008.008.008.008.008.008.008.008.008.008.008.008.008.008.008.008.008.008.008.008.008.008.008.008.008.008.008.008.008.008.008.008.008.008.008.008.008.008.008.008.008.008.008.008.008.008.007.008.008.008.008.008.008.008.007.008.008.007.008.007.008.007.007.007.007.007.007.007.007.007.007.007.007.007.007.007.007.007.007.007.007.007.007.007.007.007.007.007.007.007.007.007.007.007.007.007.007.007.007.007.007.007.007.007.007.007.007.007.007.007.007.007.007.007.007.007.007.007.007.007.007.007.007.007.007.007.007.007.007.007.006.007.007.007.007.006.007.006.007.006.006.006.006.006.006.006.006.006.006.006.006.006.006.006.006.006.006.006.006.006.006.006.006.006.006.006.006.006.006.006.006.006.006.006.006.006.006.006.006.006.006.006.006.006.006.006.006.006.006.006.006.005.005.006.005.005.005.005.005.005.005.005.005.005.005.005.005.005.005.005.005c0 2.352-.909 3.909-1.835 4.879-.463.485-.931.824-1.292 1.041-.181.108-.334.186-.447.237l-.136.056-.04.013c-.013.002-.016.002-.022 0l-.042-.013-.144-.056c-.12-.051-.284-.129-.478-.237-.387-.217-.891-.556-1.39-1.041-.997-.97-1.978-2.527-1.978-4.878z" stroke="#fff" class="F"/></mask><g mask="url(#C)"><path d="M20.5 10.5h9v3.4h-9z" class="C"/><path d="M24.512 14.6c.288 0 .864-.313 1.008-.386.528-.313.912-.024 1.224.121.336.145.96.313 1.344 0s.6-.289.864-.289c.048-.362.048-.723.048-1.133v-.289c-.336-.072-.504.024-.864.338s-.768.241-1.296.048c-.504-.217-1.008-.603-1.512 0-.144.169-.48.41-.816.41-.36 0-.672-.241-.816-.41-.528-.603-1.008-.217-1.512 0-.528.193-.96.265-1.32-.048-.336-.313-.504-.41-.864-.338v.289c0 .41.024.772.072 1.133.264 0 .456-.024.84.289s1.032.145 1.344 0c.336-.145.72-.434 1.248-.121.144.072.696.386 1.008.386h0z" class="C"/><path d="M22.084 12.049s.217.01.474.275 1.202.096 1.202-.064-.573-.255-.353-.529.594-.274.894-.132c.086 0 .076.936.273.884.622-.163 1.625-.485 1.919-.347.387.182.683.137.585-.124s-.351-.424-.838-.282-.372.282-.793.282-1.143.228-.822-.282c.287-.456.63-.465.761-.274.067.098-.479.315-.479.416 0 .139 1.406-.274 1.587-.274s.676-.011.726.131.349.273.12.406-.605.216-.346.386.915.248.944.425.311.441.198.441-.318.249-.509.173-.213-.143-.03-.204.181-.32.03-.32-.138-.02-.481-.11-.798-.191-.771 0 .26.602-.153.641-.606.196-.686.07-.367-.295-.142-.349.441.184.523.145.256-.177.102-.342-.454-.17-.218-.293.095-.217-.354.038-.699.472-1.094.441-.572.11-.698.068-.744.457-.922.331-.752-.175-.648-.331.242-.236.397-.155.308.16.412.08.434-.454.359-.509-.342-.149-.771-.149-.439-.285-.54-.415.144-.151.144-.151z" class="D G"/><use href="#H" fill="#0b50a0"/><path d="M24.512 19.3c.288 0 .864-.314 1.008-.386.528-.314.912-.024 1.224.121.336.145.96.313 1.344 0s.6-.289.864-.289c.048-.362.048-.723.048-1.133v-.289c-.336-.072-.504.024-.864.338s-.768.241-1.296.048c-.504-.217-1.008-.603-1.512 0-.144.169-.48.41-.816.41-.36 0-.672-.241-.816-.41-.528-.603-1.008-.217-1.512 0-.528.193-.96.265-1.32-.048-.336-.313-.504-.41-.864-.338v.289c0 .41.024.772.072 1.133.264 0 .456-.024.84.289s1.032.145 1.344 0c.336-.145.72-.434 1.248-.121.144.072.696.386 1.008.386h0zm0 2.3c.288 0 .864-.314 1.008-.386.528-.314.912-.024 1.224.121.336.145.96.313 1.344 0s.6-.289.864-.289c.048-.362.048-.723.048-1.133v-.289c-.336-.072-.504.024-.864.338s-.768.241-1.296.048c-.504-.217-1.008-.603-1.512 0-.144.169-.48.41-.816.41-.36 0-.672-.241-.816-.41-.528-.603-1.008-.217-1.512 0-.528.193-.96.265-1.32-.048-.336-.314-.504-.41-.864-.338v.289c0 .41.024.772.072 1.133.264 0 .456-.024.84.289s1.032.145 1.344 0c.336-.145.72-.434 1.248-.121.144.072.696.386 1.008.386h0z" fill="#0b50a0"/><use href="#I" stroke="#ffd100" stroke-width=".2" class="H"/><path d="M23.082 16.545l-.049-.026-.048.029-.417.247.122-.517.014-.057-.043-.04-.405-.375h.519.07l.024-.066.173-.471.205.476.026.06h.066.428l-.359.379-.041.044.019.057.17.509-.474-.251zm4 0l-.049-.026-.048.029-.417.247.122-.517.014-.057-.043-.04-.405-.375h.519.07l.024-.066.173-.471.205.476.026.06h.066.428l-.359.379-.041.044.019.057.17.509-.474-.251z" stroke="#ffd100" stroke-width=".2" class="H"/></g></g><path d="M20.337 20.634c.092.197.75.455 1.516.123.521-.233.857-.565 1.179-1.155.092-.148.138-.332-.076-.442-.168-.098-.444-.209-.567-.307l-.168-.123c.031.025.061.049.092.086.306.295-.015.725-.352.983-.245.184-.689.639-1.332.209-.138-.098-.459.307-.291.627h0zm9.309 0c-.107.197-.765.455-1.516.123-.52-.233-.857-.565-1.194-1.155-.077-.148-.122-.332.092-.442.168-.098.444-.209.567-.307l.168-.123a.59.59 0 0 0-.092.086c-.306.295.015.725.337.983.245.184.704.639 1.347.209.138-.098.444.307.291.627h0z" class="G"/><path d="M24.992 21.691c1.225 0 3.108-.442 4.119-1.991.168-.258 0-.393-.199-.479a2.39 2.39 0 0 1-.612-.356c.245.197.199.332.031.553-.781 1.044-1.853 1.573-3.338 1.573s-2.557-.528-3.338-1.573c-.168-.221-.214-.356.015-.553-.122.111-.398.283-.612.356-.199.086-.367.221-.199.479 1.011 1.548 2.909 1.991 4.134 1.991h0z" class="G"/><path d="M22.159 19.615c-.031-.123-.23-.074-.291.074-.076-.086-.153-.172-.214-.27-.184-.221-.214-.369.046-.578.122-.098.367-.209.536-.086.352.233.168.614-.077.86h0zm5.65 0c.031-.123.245-.074.306.074.077-.086.153-.172.214-.27.184-.221.214-.369-.061-.578-.107-.098-.352-.209-.536-.086-.337.233-.168.614.077.86h0z" class="C"/><path d="M23.424 9.364c-.12-.164-.447-.237-.584-.091-.052.037-.12.037-.172.055-.086 0-.196.046-.161.228.093 0 .093.045.144.045.034-.018.124.317.296.298a.67.67 0 0 1 .392.121c.052.055.12.201.034.274-.12.11-.206.365 0 .566.223.182.791.456 1.427-.073.619-.511 1.581-.219 1.65-.037.086.183.12.292.137.383.017.073.481.183.55.237.086.055.206.037.172-.128-.069-.511-.361-.584-.395-.821.172.018.292.018.361-.055.052-.073.12-.201.189-.237.052-.037.052-.073-.017-.055-.086.018-.138.055-.292.037-.366-.042-.276-1.427-1.486-1.696-.748-.166-1.68.975-1.936 1.088a.35.35 0 0 1-.308-.14z" class="H"/></g></g></g><defs><clipPath id="D"><path d="M0 0h32v24H0z" class="B"/></clipPath><clipPath id="E"><path d="M0 0h32v24H0z" class="B"/></clipPath><clipPath id="F"><path transform="translate(21 11)" d="M0 0h8v10H0z" class="B"/></clipPath><path id="G" d="M21.058 14.722V11.05h7.802 0v.006.006.006.006.006.006.006.007.006.007.006.007.007.007.007.007.007.007.007.007.007.007.007.007.007.007.007.007.007.007.007.007.007.007.007.007.007.007.007.007.007.007.007.007.007.007.007.007.007.007.007.007.007.007.007.007.007.007.007.007.007.007.007.007.007.007.007.007.007.007.007.007.007.007.007.007.007.007.007.007.007.007.007.008.007.008.007.008.008.007.008.007.008.008.008.008.008.008.008.008.008.008.008.008.008.008.008.008.008.008.008.008.008.008.008.008.008.008.008.008.008.008.008.008.008.008.008.008.008.008.008V12v.008.008.008.008.008.008.008.008.008.008.008.008.008.008.008.008.008.008.008.008.008.008.008.008.008.008.008.008.008.008.008.008.008.008.008.008.008.008.008.008.008.008.008.008.008.008.008.008.008.008.008.008.008.008.008.008.008.008.008.008.008.008.008.008.008.008.008.008.008.008.008.008.008.008.008.008.008.008.008.008.008.008.008.008.008.008.008.008.008.008.008.008.008.008.008.008.008.008.008.008.008.008.008.008.008.008.008.008.008.008.008.008.008.008.008.008.008.008.008.008.008.008.008.008.008.008.008.008.008.008.008.008.008.008.008.008.008.008.008.008.008.008.008.008.008.008.008.008.008.008.008.008.008.008.008.008.008.008.008.008.008.008.008.008.008.008.008.008.008.008.008.008.008.008.008.008.008.008.008.008.008.008.008.008.008.008.008.008.008.008.008.008.008.008.008.008.008.008.008.008.008.008.008.008.008.008.008.007.008.008.008.008.008.008.008.007.008.008.007.008.007.008.007.007.007.007.007.007.007.007.007.007.007.007.007.007.007.007.007.007.007.007.007.007.007.007.007.007.007.007.007.007.007.007.007.007.007.007.007.007.007.007.007.007.007.007.007.007.007.007.007.007.007.007.007.007.007.007.007.007.007.007.007.007.007.007.007.007.007.007.007.006.007.007.007.007.006.007.006.007.006.006.006.006.006.006.006.006.006.006.006.006.006.006.006.006.006.006.006.006.006.006.006.006.006.006.006.006.006.006.006.006.006.006.006.006.006.006.006.006.006.006.006.006.006.006.006.006.006.006.006.006.005.005.006.005.005.005.005.005.005.005.005.005.005.005.005.005.005.005.005.005c0 2.352-.909 3.909-1.835 4.879-.463.485-.931.824-1.292 1.041-.181.108-.334.186-.447.237l-.136.056-.04.013c-.013.002-.016.002-.022 0l-.042-.013-.144-.056c-.12-.051-.284-.129-.478-.237-.387-.217-.891-.556-1.39-1.041-.997-.97-1.978-2.527-1.978-4.878z"/><path id="H" d="M24.512 17c.288 0 .864-.314 1.008-.386.528-.314.912-.024 1.224.121.336.145.96.313 1.344 0s.6-.289.864-.289c.048-.362.048-.723.048-1.133v-.289c-.336-.072-.504.024-.864.338s-.768.241-1.296.048c-.504-.217-1.008-.603-1.512 0-.144.169-.48.41-.816.41-.36 0-.672-.241-.816-.41-.528-.603-1.008-.217-1.512 0-.528.193-.96.265-1.32-.048-.336-.313-.504-.41-.864-.338v.289c0 .41.024.772.072 1.133.264 0 .456-.024.84.289s1.032.145 1.344 0c.336-.145.72-.434 1.248-.121.144.072.696.386 1.008.386h0z"/><path id="I" d="M25.082 18.545l-.049-.026-.048.029-.417.247.122-.517.014-.057-.043-.04-.405-.375h.519.07l.024-.066.173-.471.205.476.026.06h.066.428l-.359.379-.041.044.019.057.17.509-.474-.251z"/></defs></svg>
