<svg xmlns="http://www.w3.org/2000/svg" viewBox="0 0 32 24" fill="none"><style><![CDATA[.B{fill:#ffe402}.C{fill-rule:evenodd}]]></style><g clip-path="url(#B)"><path fill="#fff" d="M0 0h32v24H0z"/><path d="M0 0V24H32V0H0Z" fill="#4ec7ee" class="C"/><mask id="A" maskUnits="userSpaceOnUse" x="0" y="0" width="32" height="24"><path d="M0 0V24H32V0H0Z" fill="#fff" class="C"/></mask><g mask="url(#A)"><path d="M4.09 23.237c-.063.47.238.805.743 1.02.679.29 1.364.018 1.994-.68l-.817-.737c-.28.31-.482.43-.638.428l1.175-.808.229-.332c.184-.789-.388-1.216-1.26-1.216-.514 0-.925.102-1.185.32-.428.359-.355.932.096 1.23a1.14 1.14 0 0 0 .109.064c-.253.213-.407.434-.444.711z" class="B"/><path d="M4.565 22.495s.125-.276.062-.42" stroke="#ffe402" stroke-width="1.1"/><path d="M8.569 23.237c.063.47-.238.805-.743 1.02-.679.29-1.364.018-1.994-.68l.817-.737c.28.31.482.43.638.428l-1.175-.808-.229-.332c-.184-.789.388-1.216 1.26-1.216.514 0 .925.102 1.185.32.428.359.355.932-.096 1.23a1.14 1.14 0 0 1-.109.064c.253.213.407.434.444.711z" class="B"/><path d="M8.596 22.269l-1.003.452c-.141-.312-.183-.595-.066-.865l1.009.438c.034-.078.033-.081.059-.025zM4.09.763c-.063-.47.238-.805.743-1.02.679-.29 1.364-.018 1.994.68l-.817.737C5.73.85 5.528.73 5.372.732l1.175.808.229.332c.184.789-.388 1.217-1.26 1.217-.514 0-.925-.102-1.185-.32-.428-.359-.355-.932.096-1.23.036-.024.072-.045.109-.064-.253-.213-.407-.434-.444-.711z" class="B"/><path d="M8.569.763c.063-.47-.238-.805-.743-1.02-.679-.29-1.364-.018-1.994.68l.817.737c.28-.31.482-.43.638-.428l-1.175.808-.229.332c-.184.789.388 1.217 1.26 1.217.514 0 .925-.102 1.185-.32.428-.359.355-.932-.096-1.23-.036-.024-.072-.045-.109-.064.253-.213.407-.434.444-.711z" class="B"/><path d="M5.094 20.063c-.631.018-1.024.148-1.024.757 0 .671.652.881 1.345.881.628 0 1.336-.39 1.336-1.088 0-.425-.54-1.282-1.9-3.139-.047-.044-.073-.066-.094-.066.082-.046.228-.1.419-.1.067 0 .153.034.239.077v.729h1.439v-.55c0-.621-.919-1.355-1.678-1.355-.663 0-1.196.316-1.466.77-.267.449-.063.879.32 1.222l1.289 1.863a5.65 5.65 0 0 0-.227.001zm.068.507l-.057-.014c.013.014.066.077.066.264a1.77 1.77 0 0 1-.011.224.53.53 0 0 1-.102-.669l.003-.006-.021-.041c.04-.021.066-.034.021.041l.101.201zm-.057-.014l-.019-.006.019.006zm.546.057c0-.019-.006-.03-.017-.036l.006.007c.007.015.011.025.011.029z" class="B C"/><path d="M7.566 20.063c.631.018 1.024.148 1.024.757 0 .671-.652.881-1.345.881-.628 0-1.336-.39-1.336-1.088 0-.425.54-1.282 1.9-3.139.047-.044.073-.066.094-.066-.082-.046-.228-.1-.419-.1-.067 0-.153.034-.239.077v.729H5.805v-.55c0-.621.919-1.355 1.678-1.355.663 0 1.196.316 1.466.77.267.449.063.879-.32 1.222l-1.289 1.863.227.001zm-.068.507l.057-.014c-.013.014-.066.077-.066.264a1.77 1.77 0 0 0 .011.224.53.53 0 0 0 .102-.669l-.003-.006.021-.041c-.04-.021-.066-.034-.021.041l-.101.201zm.057-.014l.019-.006-.019.006zm-.546.057c0-.019.006-.03.017-.036l-.006.007c-.007.015-.011.025-.011.029z" class="B C"/><path d="M5.094 13.355c-.631-.018-1.024-.148-1.024-.757 0-.671.652-.881 1.345-.881.628 0 1.336.39 1.336 1.088 0 .425-.54 1.282-1.9 3.139-.047.044-.073.066-.094.066.082.046.228.1.419.1.067 0 .153-.034.239-.077v-.729h1.439v.55c0 .621-.919 1.355-1.678 1.355-.663 0-1.196-.316-1.466-.77-.267-.449-.063-.879.32-1.222l1.289-1.863a5.65 5.65 0 0 1-.227-.001zm.068-.507l-.057.014c.013-.014.066-.077.066-.264a1.77 1.77 0 0 0-.011-.224.53.53 0 0 0-.102.669l.003.005-.021.041c.04.021.066.034.021-.041l.101-.201zm-.057.014l-.019.006.019-.006zm.546-.057c0 .019-.006.03-.017.036l.006-.007c.007-.015.011-.025.011-.029z" class="B C"/><path d="M7.566 13.355c.631-.018 1.024-.148 1.024-.757 0-.671-.652-.881-1.345-.881-.628 0-1.336.39-1.336 1.088 0 .425.54 1.282 1.9 3.139.047.044.073.066.094.066-.082.046-.228.1-.419.1a.6.6 0 0 1-.239-.077v-.729h-1.44v.55c0 .621.919 1.355 1.678 1.355.663 0 1.196-.316 1.466-.77.267-.449.063-.879-.32-1.222L7.34 13.354l.227-.001zm-.068-.507l.057.014c-.013-.014-.066-.077-.066-.264a1.77 1.77 0 0 1 .011-.224.53.53 0 0 1 .102.669l-.003.005.021.041c-.04.021-.066.034-.021-.041l-.101-.201zm.057.014l.019.006-.019-.006zm-.546-.057c0 .019.006.03.017.036l-.006-.007c-.007-.015-.011-.025-.011-.029zm-1.915-2.16c-.631.018-1.024.148-1.024.757 0 .671.652.881 1.345.881.628 0 1.336-.39 1.336-1.088 0-.425-.54-1.282-1.9-3.139-.047-.044-.073-.066-.094-.066.082-.046.228-.1.419-.1a.6.6 0 0 1 .239.077v.729h1.439v-.55c0-.621-.919-1.355-1.678-1.355-.663 0-1.196.316-1.466.77s-.063.879.32 1.222l1.289 1.863a5.65 5.65 0 0 0-.227.001zm.068.507l-.057-.014c.013.014.066.077.066.264a1.77 1.77 0 0 1-.011.224.53.53 0 0 1-.102-.669l.003-.005-.021-.041c.04-.021.066-.034.021.041l.101.201zm-.057-.014l-.019-.006.019.006zm.546.057c0-.019-.006-.03-.017-.036l.006.007c.007.015.011.025.011.029z" class="B C"/><path d="M7.566 10.645c.631.018 1.024.148 1.024.757 0 .671-.652.881-1.345.881-.628 0-1.336-.39-1.336-1.088 0-.425.54-1.282 1.9-3.139.047-.044.073-.066.094-.066-.082-.046-.228-.1-.419-.1-.067 0-.153.034-.239.077v.729H5.805v-.55c0-.621.919-1.355 1.678-1.355.663 0 1.196.316 1.466.77.267.449.063.879-.32 1.222l-1.289 1.863.227.001zm-.068.507l.057-.014c-.013.014-.066.077-.066.264a1.77 1.77 0 0 0 .011.224.53.53 0 0 0 .102-.669l-.003-.005.021-.041c-.04-.021-.066-.034-.021.041l-.101.201zm.057-.014l.019-.006-.019.006zm-.546.057c0-.019.006-.03.017-.036l-.006.007c-.007.015-.011.025-.011.029z" class="B C"/><path d="M5.094 3.937c-.631-.018-1.024-.148-1.024-.757 0-.671.652-.881 1.345-.881.628 0 1.336.39 1.336 1.088 0 .425-.54 1.282-1.9 3.139-.047.044-.073.066-.094.066.082.046.228.1.419.1.067 0 .153-.034.239-.077v-.729h1.439v.55c0 .621-.919 1.355-1.678 1.355-.663 0-1.196-.316-1.466-.77-.267-.449-.063-.879.32-1.222L5.32 3.938c-.102.001-.158.001-.227-.001zm.068-.507l-.057.015c.013-.014.066-.077.066-.264a1.77 1.77 0 0 0-.011-.224.53.53 0 0 0-.102.669l.003.005-.021.041c.04.021.066.034.021-.041l.101-.201zm-.057.015l-.019.006.019-.006zm.546-.057c0 .019-.006.03-.017.036l.006-.007c.007-.015.011-.025.011-.029z" class="B C"/><path d="M7.566 3.937c.631-.018 1.024-.148 1.024-.757 0-.671-.652-.881-1.345-.881-.628 0-1.336.39-1.336 1.088 0 .425.54 1.282 1.9 3.139.047.044.073.066.094.066-.082.046-.228.1-.419.1a.6.6 0 0 1-.239-.077v-.729h-1.44v.55c0 .621.919 1.355 1.678 1.355.663 0 1.196-.316 1.466-.77s.063-.879-.32-1.222l-1.29-1.861.227-.001zm-.068-.507l.057.015c-.013-.014-.066-.077-.066-.264a1.77 1.77 0 0 1 .011-.224.53.53 0 0 1 .102.669l-.003.005.021.041c-.04.021-.066.034-.021-.041l-.101-.201zm.057.015l.019.006-.019-.006zm-.546-.057c0 .019.006.03.017.036l-.006-.007c-.007-.015-.011-.025-.011-.029zm11.978-.603l.409 1.528s.005.347-.387.347-.412-.347-.412-.347l.39-1.528zM22.45 8.62c0 1.988-1.518 3.6-3.39 3.6s-3.39-1.612-3.39-3.6 1.518-3.6 3.39-3.6 3.39 1.612 3.39 3.6zm-1.869-3.999l.055-1.581-.819 1.347s-.083.338.292.452.472-.219.472-.219zm1.559-.832l-.515 1.495s-.19.29-.515.071-.147-.518-.147-.518l1.177-1.049zm.296 2.455l.93-1.28-1.432.659s-.257.234-.011.539.513.083.513.083zm1.774.234l-1.279.93s-.322.129-.463-.237.176-.509.176-.509l1.566-.184zm-1.123 2.205l1.495-.515-1.551-.282s-.345.044-.317.435.373.362.373.362zm1.373 1.214l-1.581.055s-.339-.073-.251-.455.431-.323.431-.323l1.401.723zm-2.135 1.205l1.528.409-1.128-1.101s-.311-.157-.507.183a.35.35 0 0 0 .107.509zm.49 1.766l-1.341-.838s-.24-.251.047-.518.538-.027.538-.027l.757 1.383zm-2.413-.214l1.038 1.194-.319-1.544s-.17-.303-.522-.131-.196.482-.196.482zm-.555 1.709l-.643-1.445s-.059-.342.328-.403a.38.38 0 0 1 .461.278l-.146 1.57zm-1.849-1.57l.165 1.573.624-1.448s.035-.346-.353-.407-.437.282-.437.282zm-1.429 1.063l.302-1.553s.148-.314.5-.142.218.492.218.492l-1.02 1.202zm-.637-2.371l-.742 1.397 1.327-.852s.222-.267-.064-.535-.52-.01-.52-.01zm-1.784.043l1.118-1.118s.298-.178.494.162-.095.53-.095.53l-1.518.426zm.784-2.355l-1.396.743 1.576.036s.334-.097.246-.479-.425-.299-.425-.299zm-1.525-.986l1.553-.302a.35.35 0 0 0 .319.411c-.027.391-.375.387-.375.387l-1.497-.495zm1.94-1.526l-1.573-.165 1.287.911s.331.106.472-.26-.185-.486-.185-.486zm-.734-1.682l1.445.643a.35.35 0 0 0 .026.519c-.247.305-.529.102-.529.102l-.942-1.264zm2.415-.142l-1.194-1.038.531 1.484a.38.38 0 0 0 .536.057c.325-.219.127-.504.127-.504zm.308-1.791l.838 1.341s.106.331-.269.445-.495-.211-.495-.211l-.074-1.575z" class="B C"/><path d="M12.221 10.672l-.037-.154.07.141-.032.013zm.096.33l-.096-.33-.428.171.063.159h-.046l-.018.009c-.026-.131-.039-.254-.039-.372v-.987l.43.866c-.055-.241-.082-.452-.082-.637V8.651l.498 1.247-.473.148.186.593h-.009l-.05.02.176.355.17.543c-.159-.292-.24-.486-.24-.555h-.043zm.547 1.387l-.547-1.387h-.461l.469 1.173-.174-.185c-.182-.364-.302-.688-.359-.979l-.381.189-.076-.081v.119l-.017.009.017.035v.134c-.05-.156-.075-.293-.075-.414V8.658l.493.994V7.778l.348.872V6.283l1.391 4.444-.098.032c-.129-.385-.193-.68-.193-.877h-.55l-.052.016.396.991-.095.031c-.031-.11-.046-.204-.046-.28h-.541l.117.375.614 1.236-.026.01-.419-.703.241.771.178-.068.025.039-.179.09zm.191-.072l-.19.072h0l-.231.116-.308-.329.147.368-.034-.03-.287-.524-.741-.79-.076.038v.044l.61 1.229h-.06l-.004.004c-.271-.448-.453-.807-.546-1.098v.803L9.15 10.663l2.782 3.311c.889 1.058 1.985 1.871 3.281 2.436l-2.519-.053 2.561.723-1.325.975 2.288-.703.624.176c.84.237 1.307.475 1.338.547l.118.279.298.05c.654.109 1.86-.061 3.414-.405l1.468-.358.382-.11.071-.026h0c.026-.01.026-.01.085-.042h0 0c.05-.007.087-.012.112-.032.068-.056.043-.226-.051-.87h0l-.51-.112c-.154.043-.386.04-.695 0 2.586-1.272 4.284-2.546 5.098-3.856l1.489-2.398-.902.658.325-1.045-1.285.826a3 3 0 0 0 .384-.656l.968-2.34-1.528 1.425.829-2.731-1.966 2.634-8.05 5.924-.125-.029c-1.982-.459-3.373-1.859-4.201-4.267l-.413.135.005.017-.098.032-.006-.017-.4.13.007.017-.097.032-.005-.017-.04.013.438 1.222-.254.096.019.039-.02.01.011.018zm.019-.007l-.019.007.039.061-.394.198-.067-.071-.129.065-.033-.026.014.035.018-.009.087.061-.063.032-.089-.148-.003-.003h-.49l.111.223-.072-.051-.103-.168-.057.054-.489-.348v.291c0 .521.366.914.995 1.237l-.296.321 3.291 2.345-.112-.002.328.136.286.113-.572.421.963.272.768-.236 2.733 1.077-.882-.628.314-.004c-.043-.079-.098-.154-.164-.225-.081-.002-.151-.008-.211-.018l-.03.181-.921-.656 1.027-.382c1.364-.015 2.182-.088 2.303-.178l.211-.156.254.065.675.157.174.293.402-.195-.101-.014 5.056-3.688-.423-.393c.535-.276.884-.637 1.029-1.103l.124-.399-.545.397-.104-.162-.525-.163c-.049.156-.207.312-.487.456.281-.251.515-.499.701-.746l-.794.51 1.045-.975-.652-.452c.057-.128.104-.255.142-.38l.083-.275-.368.343-.547-.277.253-.514-.475.35-1.125 1.507-.383-.321c-1.028 2.085-2.877 3.741-5.568 4.963l-.974-.226-.278.205.028-.248c-1.834 0-3.186-1.36-4.071-4.236l-.413.135.393 1.256-.393.149-.024-.061.394-.15-.467-1.162-.399.13.472 1.182-.034.013.025-.013c-.293-.477-.478-.866-.561-1.15l-.039.013c.144.42.306.815.484 1.185l-.052.02.006.014-.241.121.01.021zm.25-.095l-.25.095.031.063-.011.005.038.058-.367.21-.066-.07-.109.055.097.06-.384.22-.248-.177.123.248.125-.071.058.041-.151.086-.227-.355-.16-.114-.34.319.706.753.401-.376.056-.109 1.793 1.277.663.707c-.902-.474-1.677-1.098-2.327-1.871l-.444.481.01.005 2.806 1.432-.044-.047c.269.142.55.27.842.385l-.485.893-.134-.003.098.07.036-.067.678.014-.311.229 1.159.457.041-.012.799-.26-.2-.142.324-.239.902-.001 1.173-.516h2.028l.241.404.135.027.127.214.214-.156-.341-.058-.256-.431h.617l-.716-.166-.078-.13c2.128-1.011 3.632-2.004 4.512-2.957.34-.095.638-.207.894-.339l-.184-.171.985-.633-.193-.3-1.66 1.211-.207-.485.751-.597c-.157.08-.353.156-.589.226l.496-.462-1.505.967c.938-.866 1.573-1.658 1.898-2.394l-.066-.046.123-.165-.199-.101-1.266 1.181.718-1.457-.22-.111c-.135.443-.469.966-1.006 1.556l-.121-.101-.678.909.169.152-5.004 3.682-.438-.101-1.316.538.064-.559-.842.62c-1.614-.577-2.857-1.748-3.718-3.485l.112-.056-.009-.023-.12.046-.025-.051.086-.043-.091.034.004.009-.05.025.02.047zm.017.04l-.236.118.059.119-.353.202-.045-.048-.078.044.065.037-.392.224.285.203.194-.381-.087-.046.058-.033 1.628 1.737 2.243 1.598-.545.401.765.016.289.574.434-.32-.347-.247.671.008.703-.517h1.373l.857-.442 1.053.244.118.198h.119l-.099-.166-.138-.032-.027-.046 3.88-2.831.489-.119.231-.06.111-.124.6-.385-.185-.171c-.114.184-.252.369-.415.557l-.175.112-.094-.22-.562.41-1.992.484.633-.686.638-.41.217.286.859-.568-.067-.156.23-.214-.288.077.059.137-.705.657-.212-.279.132-.085.001.001.004-.004-.005.003-.26-.234.058-.085.271.244 1.768-2.368-.165-.115c-.179.432-.651.937-1.418 1.494l.216-.413.025-.052-.233.218-.275-.23-.732.732.185.166-.083.061.063.056-.089.083.289.379-.481.616-1.332.856.699-.17c-.812.808-1.784 1.524-2.914 2.149l-1.239-.287-.991.73h-.67c-.26 0-.512-.02-.756-.061l.201-.068.43.114.032-.278-.462.164-.316-.104-.16.117c-1.549-.362-2.755-1.572-3.613-3.575zm0 0l.055-.027-.016-.033-.055.021.017.04zm3.371 3.795l-.029-.02.271-.199.274.055-.516.165zm8.266-4.091l.055-.079-.311-.28.09-.056.279.252.456-.744-.735.493-.025-.023.445-.415.363-.267-.04-.034-.323.301-.499.367.054.048-.074.069.01.009-.012.007.268.352zm0 0l.183.24-.093.06-.157-.206.067-.094zm-8.266 4.091l.568.404-.276-.005-.101-.002-.199-.395.008-.002zm2.035 1.45l-.011.066.102-.001-.092-.065zm3.064-.333l-.16-.216-.238.051-.066.256.189.048a1.06 1.06 0 0 0 .275-.139z" class="B C"/></g></g><defs><clipPath id="B"><path fill="#fff" d="M0 0h32v24H0z"/></clipPath></defs></svg>
