<svg xmlns="http://www.w3.org/2000/svg" viewBox="0 0 32 24" fill="none"><g clip-path="url(#A)"><path fill="#fff" d="M0 0h32v24H0z"/><g fill-rule="evenodd"><path d="M32 0H0v6h32V0zm0 18H0v6h32v-6z" fill="#f50101"/><path d="M0 6H32V18H0V6Z" fill="#f7fcff"/><path d="M21.515 12.513c.075.867-3.126-.36-3.126-.013s3.429.957 3.423 1.734-4.066-.222-3.155.128 2.865 1.187 2.643 1.708c-.475 1.114-3.626-.772-3.888-.401-.423.6 2.326 1.999 2.302 2.132-.045.256-1.877-.403-2.302.129-.344-.097-.503-.56-.61-.622l-.676-8.723s.607 8.213-.169 8.45-2.931.954-2.994.596c-.023-.134 2.595-1.362 2.172-1.962-.312-.442-3.472 1.125-3.673.218-.898-.647 2.909-1.208 2.909-1.87s-3.483.784-3.066-.138 3.205-1.252 3.257-1.38c.095-.233-3.1.364-3.1 0 0-.688 1.912-.823 3.1-1.442.07-.706-2.88.695-3.1.129s3.771-2.033 3.673-2.147c-.154-.18-3.37.634-2.84.206 1.029-.83 3.039-1.958 3.501-2.259 0 0 .056-.114.115-.075l.125-.081s0 .71-.01.156 4.71 1.871 4.763 2.486c.062.718-2.916-.541-2.846.165.605.375 2.327 1.101 3.039 1.42.323.145-2.378-.306-2.321-.085.145.565 2.776.635 2.854 1.539z" fill="#52ab0b"/></g></g><defs><clipPath id="A"><path fill="#fff" d="M0 0h32v24H0z"/></clipPath></defs></svg>
