<svg xmlns="http://www.w3.org/2000/svg" viewBox="0 0 32 24" fill="none"><style><![CDATA[.B{fill-rule:evenodd}.C{fill:#ffd83d}]]></style><g clip-path="url(#C)"><path fill="#fff" d="M0 0h32v24H0z"/><path d="M0 0V24H32V0H0Z" fill="#e31d1c" class="B"/><mask id="A" maskUnits="userSpaceOnUse" x="0" y="0" width="32" height="24"><path d="M0 0V24H32V0H0Z" fill="#fff" class="B"/></mask><g mask="url(#A)"><path d="M0 0V12H32V0H0Z" fill="#2e42a5" class="B"/><path d="M4.798 11.053s1.207.751 4.003.751 4.28-.751 4.28-.751-2.193-1.275-4.154-1.275-4.13 1.275-4.13 1.275z" fill="#000" class="B"/><path d="M4.871 6.742l-.216.126.072.124h.144 8.325.183l.055-.175-.238-.075.238.075h0 0v-.002l.002-.006.006-.02.02-.072.061-.257a5.19 5.19 0 0 0 .108-.845c.027-.648-.08-1.493-.709-2.04-.641-.557-1.455-.471-2.156-.295l-.71.205-.311.094c-.321.094-.589.157-.805.157s-.451-.058-.729-.145l-.267-.087-.633-.196c-.659-.173-1.419-.239-2.262.238-.439.249-.69.595-.809.974-.117.372-.102.761-.04 1.102a4.11 4.11 0 0 0 .271.875l.125.266.04.075.011.021.003.006.001.002v.001h0c0 0 0 0 .216-.126z" stroke="#000" stroke-width=".5" class="C"/><path d="M3.886 6.906l.117.221-.116-.221h0 .001.002l.005-.003.017-.009.064-.03.243-.103a8.43 8.43 0 0 1 .955-.305c.846-.22 2.11-.438 3.802-.438s2.957.218 3.802.438a8.5 8.5 0 0 1 .955.305l.243.103.064.03.017.009.005.003h.002.001 0l-.116.221.117-.221.195.103-.077.206-1.185 3.168-.083.221-9.028-3.698zm0 0l-.193.102.075.205 1.153 3.168.081.221.226-.067-1.341-3.629zm8.803 3.628h0l-7.462.001h0 .001l.004-.001.015-.004.062-.017.238-.063.854-.192c.71-.14 1.652-.279 2.594-.279s1.866.139 2.558.279l.83.192.229.063.059.017.015.004.003.001h.001 0zM8.874 4.265c.56 0 .922-.547.922-1.095s-.363-1.095-.922-1.095-.922.547-.922 1.095.363 1.095.922 1.095z" stroke="#000" stroke-width=".5" class="C"/><mask id="B" maskUnits="userSpaceOnUse" x="7.118" y="-1" width="4" height="5" fill="#000"><path fill="#fff" d="M7.118-1h4v5h-4z"/><path d="M9.126 0h-.504l.065.923-.569-.077v.634l.578-.08-.074 1.453h.504l-.075-1.456.579.082V.845l-.568.082L9.126 0z" class="B"/></mask><path d="M9.126 0h-.504l.065.923-.569-.077v.634l.578-.08-.074 1.453h.504l-.075-1.456.579.082V.845l-.568.082L9.126 0z" class="B C"/><path d="M8.622 0v-.5h-.536l.038.535L8.622 0zm.504 0l.499.035.037-.535h-.536V0zm-.439.923l-.067.495.609.083-.043-.613-.499.035zM8.118.845L8.185.35 7.618.273v.573h.5zm0 .634h-.5v.574l.568-.078-.068-.495zm.578-.08l.499.025.031-.603-.598.082.068.495zm-.074 1.453l-.499-.025-.027.525h.526v-.5zm.504 0v.5h.526l-.027-.526-.499.026zm-.075-1.456l.07-.495-.601-.085.031.606.499-.026zm.579.082l-.07.495.57.081v-.576h-.5zm0-.634h.5V.268L9.559.35l.071.495zm-.568.082L8.563.892l-.043.617.613-.088-.071-.495zM8.622.5h.504v-1h-.504v1zm.564.388l-.065-.923-.998.07.065.923.998-.07zm-1.135.453l.569.077.135-.991L8.185.35l-.135.991zm.567.139V.845h-1v.634h1zm.01-.575l-.578.08.136.991.578-.08-.136-.991zm.494 1.974l.074-1.453-.999-.051-.074 1.453.999.051zm.005-.525h-.504v1h.504v-1zm-.574-.93l.075 1.456.999-.051-.075-1.456-.999.051zM9.7.984L9.121.902l-.14.99.579.082.14-.99zM9.13.845v.634h1V.845h-1zm.003.577l.568-.082-.142-.99-.568.082.142.99zM8.627-.035l-.064.927.998.069.064-.927-.998-.069z" fill="#000" mask="url(#B)"/></g></g><defs><clipPath id="C"><path fill="#fff" d="M0 0h32v24H0z"/></clipPath></defs></svg>
