<svg xmlns="http://www.w3.org/2000/svg" viewBox="0 0 32 24" fill="none"><g clip-path="url(#A)"><path fill="#fff" d="M0 0h32v24H0z"/><path fill-rule="evenodd" d="M0 0H32V24H0V0Z" fill="#feca00"/><path fill="#1f8a6e" d="M2 2h6v20H2z"/><path fill="#f56800" d="M8 2h6v20H8z"/><path fill="#b01d00" d="M14 2h16v20H14z"/><path fill="#e8aa00" d="M12 2h2v20h-2z"/><g fill-rule="evenodd" fill="#feca00"><path d="M17.101 6.173s-1.274-.004-1.274 2.214v3.252s-.606.108-.606.485.129.706.367.706.478 1.105.239 1.105-.478.474-.239.474c.057 0 .101-.008.134-.014s.058-.01.074-.001c.032.018.032.091.032.31 0 .431-.239.605-.239.605s-.225-.063-.225.191.225.318.225.318.129.056-.119.176-.248.178-.248.178h.606l.304.556.29-.556h.598l-.337-.233c-.035-.04-.078-.099 0-.167a.39.39 0 0 1 .092-.051c.087-.039.188-.085.188-.22 0-.191-.382-.191-.382-.191s-.233-.421-.16-.605c.02-.051.032-.097.042-.136.026-.101.04-.159.166-.159.174 0 .274-.22.054-.474 0 0 .252.271.178.622s.077.511.159.511.212-.121.212-.121.68.607.978.607.727-.487.727-.487l.615.345s.45.63.384 1.064-.323.675-.625.608-.793.07-.83.257l-.023.101c-.052.212-.129.53.108.451.279-.092.333-.163.333-.163s-.037.163.188.163.289-.163.289-.163.233.163.396.163.347-.126.347-.126.12.187.387.126.468-.757.274-.912c0 0 .643-.093.808-.652 0 0-.622-.009-.558-.392s.393-.629.393-.629l1.353-.605c.407-.147 1.083-.295 1.251-.295.068 0 .117.159.183.375.096.314.229.749.513.986.478.4.152 1.314.152 1.314s-1.064.107-1.064.395.017.414.216.414.195-.163.195-.163a.42.42 0 0 0 .309.163c.191 0 .343-.163.343-.163s.051.163.301.163.248-.163.248-.163.045.163.266.163.673-.163.673-.163.071.163.3.163.235-.163.235-.163.122.163.321.163.315-.163.315-.163.285.163.482.163.126-.294 0-.552c-.032-.065-.069-.121-.103-.172-.1-.15-.171-.258-.003-.444l.158-.16h0c.205-.199.41-.399.26-.574-.045-.052-.097-.088-.15-.125-.172-.12-.348-.242-.267-.92a6.64 6.64 0 0 1 .225-1.044h0c.101-.362.192-.691.192-1.073 0-.706-.417-1.514-.417-1.514s.562-.392.562-1.189-1.253-.884-1.253-.884-1.245.32-1.794.16l-.314-.084h0c-.296-.074-.388-.097-.388-.302 0-.265-.4.226-.4.226s-.314-.126-.1-.386l.309-.363s-.188-.214-.505-.107-.373.285-.373.285-.361-.37-.136-.638.51 0 .51 0 .324.169.35-.053 0-.399 0-.399.812.233.582.595-.084.495-.084.495.558.034.659-.351a.81.81 0 0 0 .004-.398c.161.076.343.165.292.314-.093.274-.296.619-.296.619s.558-.033.724-.47.106.107.106.107.214-.008.535.177 0-.285 0-.285.666.826 1.296.728.595-.621.595-.621-.149-.257-.461-.257-.134.257-.134.257.304.173-.178 0c-.14-.05-.348-.212-.606-.413-.634-.493-1.57-1.22-2.534-1.109-1.357.157-1.831.763-1.831.763v-.505s-.228.351-.441.351-.803-.351-.803-.351l-.376.351s-.143-.351-.393-.351-.25.351-.25.351-.315-.155-.661-.155c-.142 0-.263-.052-.356-.092-.134-.058-.211-.091-.211.092l.002.106h0c.006.247.01.401-.349.447-.408.053-.723.053-.723.053s-.244-.297-.434-.297-.41.231-.41.441.246.81.41.938c.043.034.035.03 0 .014-.099-.045-.41-.189-.41.114 0 .209.052.261.09.3s.061.061.011.201l-.079.197c-.115.274-.249.592-.022.592a1.41 1.41 0 0 0 .321-.046h0c.11-.025.16-.037.089.046l-.105.114c-.131.137-.265.279-.032.171.122-.056.226-.138.311-.206.125-.099.211-.167.261-.08.032.055.006.128-.015.191-.036.105-.062.181.2.094.092-.03.146-.054.176-.071.001.017.015.041.057.071.088.065.071.126.058.173-.015.053-.024.088.13.088.147 0 .355-.114.478-.182s.159-.087-.012.08c-.108.105-.264.176-.437.254-.385.174-.855.385-1.069 1.108-.288.976-.159 1.177-.14 1.2l-.886-.97s.212-.166.212-.444-.549-.485-.549-.485l.178-4.212.241-1.254zm.804 7.365l.002.002zm.963-2.824c-.01 0-.029.011-.028.033.038-.022.038-.033.028-.033zm6.667-2.791l-.012-.006c-.13-.061-.241-.114-.198-.182.06-.096.164.005.21.187zm.586 7.482s-.42.412-.153.502c.081.027.179.043.271.057.21.033.384.06.224.215-.229.223-.422.525-.422.8s.006.506.08.39c.04-.064.206-.13.385-.202.147-.059.302-.121.404-.188.192-.127.189-.264.184-.511l-.002-.138c0-.337-.971-.925-.971-.925zM22.863 9.89c.098-.078.104-1.038.104-1.038s.343.114.343.264a.46.46 0 0 1-.065.227l-.083.191c-.075.206.13.335.321.456l.043.027c.129.082.166-.096.194-.234.016-.077.029-.141.053-.141.07 0 .59.118.982.317.342.174.677.088 1.445-.107l.366-.092c1.036-.257 1.172.129 1.278.433s-.698.725-1.278.801c-.255.034-.476.023-.679.013-.259-.013-.489-.024-.725.06-.369.131-1.525.118-1.976.113l-.143-.001c-.207 0-.246-.065-.325-.197l-.071-.113c-.141-.207.03-.341.141-.341s.075-.242 0-.335-.022-.226.075-.304zm-8.692-7.768v.361c0 .044-.019.105-.041.173-.068.215-.16.505.263.586.556.107.965.35 1.089.579.08.147.057-.098.031-.386h0l-.031-.464c0-.354-.397-1.044-.678-.85s-.634 0-.634 0zm0 19.385v.361s.353-.194.634 0 .678-.495.678-.85a5.69 5.69 0 0 1 .031-.464c.027-.288.049-.533-.031-.386-.124.229-.534.472-1.089.579-.422.081-.331.37-.263.586.021.068.041.129.041.173zm15.664 0v.361s-.352-.194-.633 0-.678-.495-.678-.85a5.64 5.64 0 0 0-.031-.463h0c-.026-.288-.049-.533.031-.386.124.229.534.472 1.089.579.422.081.331.37.263.586-.021.068-.041.129-.041.173zm0-19.024v-.361s-.352.194-.633 0-.678.496-.678.85a5.69 5.69 0 0 1-.031.464c-.026.288-.049.533.031.386.124-.229.534-.472 1.089-.579.422-.081.331-.37.263-.586-.021-.068-.041-.129-.041-.173z"/></g></g><defs><clipPath id="A"><path fill="#fff" d="M0 0h32v24H0z"/></clipPath></defs></svg>
