<svg xmlns="http://www.w3.org/2000/svg" viewBox="0 0 32 24" fill="none"><g clip-path="url(#A)"><path fill="#fff" d="M0 0h32v24H0z"/><path fill-rule="evenodd" d="M0 0H32V24H0V0Z" fill="#f7fcff"/><g fill="#e31d1c"><path d="M.027 5.5h32v3h-32z"/><path fill-rule="evenodd" d="M0 0H32V3H0V0Z"/><path d="M-.059 11h32v3h-32zm.171 5.4h32v3h-32zm-.01 5.1h32v3h-32z"/></g><g fill-rule="evenodd"><path d="M0 0H16V14H0V0Z" fill="#3d58db"/><path d="M8.132 9.213l-2.921 2.026.933-3.471L4 5.552l2.904-.12L8.132 2l1.229 3.432h2.899l-2.14 2.337 1.072 3.266-3.059-1.822z" fill="#f7fcff"/></g></g><defs><clipPath id="A"><path fill="#fff" d="M0 0h32v24H0z"/></clipPath></defs></svg>
