<svg xmlns="http://www.w3.org/2000/svg" viewBox="0 0 32 24" fill="none"><g clip-path="url(#A)"><path fill="#fff" d="M0 0h32v24H0z"/><g fill-rule="evenodd"><path d="M0 16h32v8H0v-8z" fill="#55ba07"/><path d="M0 8h32v8H0V8z" fill="#f7fcff"/><path d="M0 0H32V8H0V0Z" fill="#3d58db"/><path d="M15.25 8.24c-.523.14-.799.502-.799 1.141 0 .73.359 1.416.799 1.77V8.24zm1.25 2.891c.428-.358.772-1.031.772-1.748 0-.621-.272-.98-.772-1.13v2.878zm-.042-3.399c.818.182 1.411.739 1.411 1.645 0 .659-.313 1.459-.799 2.009l2.434 2.387.6-.198.896 1.36S18.734 16 15.933 16 11 14.935 11 14.935l.763-1.162.616.202 2.258-2.548c-.507-.55-.836-1.375-.836-2.05 0-.938.635-1.502 1.498-1.663.095-.224.317-.381.576-.381.265 0 .492.165.583.399zm-4.456 6.564l-.254.352h.493l-.24-.352zm.289.492l-.436.088.436.152v-.24zm.222-.508l.223.52.553-.151-.11-.209-.667-.16zm1.204 1.038l-.813-.16-.093-.156.613-.133.293.45zm.047-.745l.253.455.556-.169-.155-.204-.654-.082zm.455.835l-.099-.188.615-.164.354.432-.869-.08zm1.148-.312l.792-.21-.098-.18h-1.028l.333.389zm.284.4l-.126-.195.761-.249.404.444h-1.039zm.963-.776l.243.298.659-.228-.083-.156-.82.086zm1.43.62l-.886.098-.13-.22.67-.22.346.341zm-.056-.764l.248.305.595-.305-.165-.092-.678.092zm.515.682l-.108-.165.566-.34.288.34-.746.165zm.562-.949l.359.343.35-.343-.111-.139-.598.139zm.57.461l.293-.29.211.29-.504.162v-.162z" fill="#1d1d1d"/></g></g><defs><clipPath id="A"><path fill="#fff" d="M0 0h32v24H0z"/></clipPath></defs></svg>
