<svg xmlns="http://www.w3.org/2000/svg" viewBox="0 0 32 24" fill="none"><g clip-path="url(#A)"><path fill="#fff" d="M0 0h32v24H0z"/><g fill-rule="evenodd"><path d="M0 18h32v6H0v-6z" fill="#55ba07"/><path d="M0 6H32V18H0V6Z" fill="#1d1d1d"/><path d="M0 0H32V6H0V0Z" fill="#e11c1b"/><path d="M15.798 15.066c-1.792-.37-2.257-1.308-2.238-2.754 0-1.531.806-3.08 2.22-3.249s2.572.358 3.178 1.094c-.508-1.997-2.189-2.216-3.48-2.216-1.944-.017-3.937 1.46-3.937 4.239 0 2.421 1.757 4.241 3.994 4.286 2.796 0 3.233-1.931 3.314-2.588-.162.116-.312.254-.466.397-.562.518-1.177 1.084-2.583.793zm4.466-3.775l-1.324.417 1.483.58-.206 1.554 1.005-1.069 1.458.3-.985-1.152.872-1.177-1.218.257-.86-.972-.224 1.262z" fill="#fff"/></g></g><defs><clipPath id="A"><path fill="#fff" d="M0 0h32v24H0z"/></clipPath></defs></svg>
