<svg xmlns="http://www.w3.org/2000/svg" viewBox="0 0 32 24" fill="none"><g clip-path="url(#A)"><path fill="#fff" d="M0 0h32v24H0z"/><g fill-rule="evenodd"><path d="M0 0h32v22a2 2 0 0 1-2 2H2a2 2 0 0 1-2-2V0z" fill="#c51918"/><path d="M0 0H32V24H0V0Z" fill="#e31d1c"/><g fill="#579d20"><path d="M22.482 19.626L16.166 2.701h-.274L9.795 19.626l6.331-3.805 6.355 3.805zM15.467 8.222l.677-2.638.703 2.714 2.019 5.657 1.185 2.738-2.559-1.803-1.366-.818-1.344.808-2.499 1.813 1.156-2.795 2.03-5.676z"/><path d="M12.663 13.473l3.496 2.324 3.262-2.324 6.196-5.237H6.385l6.277 5.237zm.073-1.999l-2.378-1.455h2.901 5.764 2.559l-2.041 1.293-3.396 2.577-3.408-2.415z"/></g></g></g><defs><clipPath id="A"><path fill="#fff" d="M0 0h32v24H0z"/></clipPath></defs></svg>
