<svg xmlns="http://www.w3.org/2000/svg" viewBox="0 0 32 24" fill="none"><style><![CDATA[.B{fill-rule:evenodd}.C{fill:#fdff00}]]></style><g clip-path="url(#B)"><path fill="#fff" d="M0 0h32v24H0z"/><g class="B"><path d="M22 0H32V24H22V0Z" fill="#d9071e"/><path d="M0 0H12V24H0V0Z" fill="#3d58db"/><path d="M10 0H22V24H10V0Z" fill="#fbcd17"/><path d="M21.719 19.614l-1.053.575-3.491-6.389 1.053-.575 3.491 6.389zm-11.205.154l1.053.575 3.491-6.389-1.053-.575-3.491 6.389z" fill="#fd1900"/><path d="M11.378 9.389v5.551c0 1.233-1.062 2.84-1.597 3.438l-1.599 1.968V5.408c0-1.676 1.599-2.251 1.599-2.251s1.328.263 1.597 2.251v1.938c.411.324 1.783 1.316 2.67.897 1.053-.498 1.416-1.924 1.416-1.924s-.098-1.44-.53-1.44-.467-2.028 1.188-2.028 1.848.782 1.848 1.405c0 .327-.262.851-.511 1.35-.226.453-.442.885-.442 1.129 0 .513.387 1.509.953 1.509.397 0 2.307-.742 3.412-1.185v-1.65c.27-1.988 1.597-2.251 1.597-2.251s1.599.576 1.599 2.251v14.938l-1.599-1.968c-.535-.598-1.597-2.205-1.597-3.438V9.389H11.378zm1.772 10.443c1.082-.704 2.664-3.862 2.664-3.862l.525.122s.802 2.092 3.16 3.74c-2.514.671-3.16 2.018-3.16 2.018 0-1.078-3.189-2.018-3.189-2.018zm-.174-1.999c.729 0 1.32-.56 1.32-1.25s-.591-1.25-1.32-1.25-1.32.56-1.32 1.25.591 1.25 1.32 1.25zm7.744-1.25c0 .69-.591 1.25-1.32 1.25s-1.32-.56-1.32-1.25.591-1.25 1.32-1.25 1.32.56 1.32 1.25z" fill="#a77b3b"/></g><path d="M25.14 10.408l.918.397-3.74 8.652-.918-.397 3.74-8.652z" class="C"/><path opacity=".3" d="M11.04 7.833H21.6v7.639s-2.687.809-5.28 2.137c-1.914-1.42-5.28-2.137-5.28-2.137V7.833z" fill="#e1e5e8" class="B"/><mask id="A" maskUnits="userSpaceOnUse" x="11" y="7" width="11" height="11"><path d="M11.04 7.833H21.6v7.639s-2.687.809-5.28 2.137c-1.914-1.42-5.28-2.137-5.28-2.137V7.833z" fill="#fff" class="B"/></mask><g mask="url(#A)"><path fill="#3d58db" d="M11.04 12.833H21.6v5H11.04z"/><path fill="#fd1900" d="M11.04 7.833H21.6v5H11.04z"/><path d="M15.787 10.082l-.8.066.462-.623-.492-.645.805.104.308-.711.343.726.8-.066-.462.623.492.645-.804-.104-.308.711-.343-.726zm-1.437-1.41s-2.15 1.308-1.433 2.247 1.619 1.059 1.619 1.059-2.199 3.299 1.671 5.184c4.144-1.82 1.965-5.184 1.965-5.184s1.276-.282 1.531-1.297-1.667-2.18-1.667-2.18 1.2 1.739.926 2.18-1.741.89-2.754.89-2.578-.284-2.83-1.055.973-1.844.973-1.844z" class="B C"/><path d="M12.36 12l1.32.833-1.32.833-1.32-.833L12.36 12zm7.92 0l1.32.833-1.32.833-1.32-.833L20.28 12zm-7.96 3.3a.4.4 0 1 0 0-.8.4.4 0 1 0 0 .8zm8.51-.757c-.343-.278-.87-.197-1.175.18s-.275.909.068 1.187c.187.151.089-.449.372-.831.237-.321.893-.409.736-.536z" class="B C"/></g><g class="B"><path d="M4.737 11.529s1.054 1.246 2.047.839.752-1.868.752-1.868l-.752.682h-.64v.347l-.5-.347v.347h-.907zm.713 1.915s1.285 1.121 2.15.804.648-1.833.648-1.833l-.752.682h-.64v.347l-.5-.347v.347H5.45zm3.46 2.543c-.866.317-2.15-.804-2.15-.804h.907v-.347l.5.347v-.347h.64l.752-.682s.217 1.517-.648 1.833z" fill="#048f02"/><path d="M13.979 2.248h-1v.596h-.471v1h.471v1.745h1V3.844h.572v-1h-.572v-.596z" class="C"/><path d="M15.158 3.385l-2.316.597 2.316.732V3.385z" fill="#db4400"/></g></g><defs><clipPath id="B"><path fill="#fff" d="M0 0h32v24H0z"/></clipPath></defs></svg>
