<svg xmlns="http://www.w3.org/2000/svg" viewBox="0 0 32 24" fill="none"><style><![CDATA[.B{fill-rule:evenodd}.C{fill:#f6c540}]]></style><g clip-path="url(#C)"><path fill="#fff" d="M0 0h32v24H0z"/><g class="B"><path d="M0 0H32V24H0V0Z" fill="#e8aa00"/><path d="M4 4H28V20H4V4Z" fill="#c51918"/></g><mask id="A" maskUnits="userSpaceOnUse" x="4" y="4" width="24" height="16"><path d="M4 4H28V20H4V4Z" fill="#fff" class="B"/></mask><g mask="url(#A)"><path d="M20.231 15.751c.408 0 .738-.339.738-.757s-.331-.757-.738-.757-.738.339-.738.757.331.757.738.757z" fill="#1e5e91" class="B"/><path d="M10.628 12.332c-1.937-2.251.839-6.159.839-6.159s.415 2.334 1.952 3.904c0 .111-.145.276-.292.443-.103.116-.206.234-.262.335-.135.245.329.385.554.385.101 0 .157.146.207.279.062.162.115.303.234.125.216-.323-.216-1.034-.216-1.034l.684-.721.231-.466h-.231v-.48l-.162.133s-.178-.429-.522-.429-.45-.196-.45-.196h.45c.226 0-.036-.299-.226-.455-.085-.07-.214-.046-.33-.024-.143.027-.268.05-.268-.11 0-.175.136-.198.294-.225.103-.018.215-.037.304-.101.147-.106.345-.073.56-.038.114.019.232.038.35.038h.557c.201 0-.326.326-.326.326l.326.289.484.495-.242.144.5.485s-.17.276 0 .276c.07 0 .116.057.146.125.03-.067.076-.125.146-.125.17 0 0-.276 0-.276l.5-.485-.242-.144.485-.495.326-.289s-.527-.326-.326-.326h.557c.118 0 .236-.019.349-.038.215-.035.413-.068.56.038.089.064.201.083.304.101.158.027.294.05.294.225 0 .16-.124.137-.267.11-.116-.022-.245-.046-.33.024-.19.156-.451.455-.226.455h.45s-.107.196-.45.196-.522.429-.522.429l-.162-.133v.48h-.231l.231.466.684.721s-.432.711-.216 1.034c.119.178.173.038.234-.125.05-.132.106-.279.207-.279.225 0 .689-.14.553-.385-.055-.101-.159-.218-.262-.335-.147-.167-.292-.331-.292-.443 1.536-1.57 1.951-3.904 1.951-3.904s2.777 3.907.839 6.159-3.36 1.573-3.36 1.573l.794.712-.225.195h.662l-.243.163.179.079.19.083s-.511.376 0 .376l.254-.005.295-.005c.027 0-.033-.147-.092-.293s-.117-.287-.09-.286c.055.002.164.133.273.265.087.105.174.21.234.251.039.026.191-.027.332-.076.119-.041.23-.08.259-.066.119.06.088.181.059.297l-.019.087c-.004.025.148-.074.308-.177.168-.109.345-.224.359-.207.066.08.158.191-.522.715l.006.25c.009.215.012.27-.134.27-.065 0-.155.032-.26.069-.269.095-.632.224-.896-.069l-.929-1.019v.3l-.666-.676-.128.376-.897-1.03-.242.135s.825 2.278 1.267 2.294c.219.008-.114.221-.555.503-.447.285-1.004.642-1.212.928-.062.085-.109-.045-.146-.327-.036.282-.084.412-.146.327-.207-.286-.765-.643-1.212-.928-.441-.282-.774-.495-.555-.503.441-.016 1.267-2.293 1.267-2.293l-.242-.135-.897 1.03-.128-.376-.666.676v-.3l-.929 1.019c-.264.293-.627.165-.896.069-.105-.037-.195-.069-.26-.069-.231 0-.308-.323 0-.719.259-.333.799-.318 1.269-.305l.254.005c.511 0 0-.376 0-.376l.19-.083.179-.079-.243-.163h.662l-.225-.195.794-.712s-1.423.679-3.36-1.573z" class="B C"/><path d="M12.433 17.03l-.875-1.534-1.144-2.958c0-.32-.461-1.269-.461-.993v.993l1.93 4.349v.343h.26l.289-.199z" class="B C"/><path d="M19.442 14.965l.133-.442 1.626.49-.133.442-1.626-.49z" class="C"/><path d="M20.308 14.16l.44.144-.43 1.378-.44-.144.43-1.378z" class="C"/><path d="M20.717 13.711l-.095-.021-.038.152-.174-.043-.021.093.172.042-.044.173.095.021.043-.172.171.042.021-.093-.169-.042.039-.154zm-5.023-8.489l.047.166h.144l.048-.166a2.38 2.38 0 0 1 .327.123l.003-.036c.772.071 1.172.394 1.13.962-.036.47-.274.717-.67.71v.351s-.646.248-.969.248-.969-.248-.969-.248v-.357c-.327-.04-.522-.282-.554-.704-.043-.568.358-.891 1.129-.962l.003.038a2.38 2.38 0 0 1 .331-.125zm-.817 1.444l-.086.025c-.177-.033-.264-.175-.284-.441s.106-.456.404-.564c-.203.26-.218.591-.034.98zm.275-.072c.163-.039.351-.078.502-.091v-.971c-.62.218-.769.55-.502 1.062zm.779-.083c.208.027.46.09.623.134l-.082-.045c.277-.526.116-.864-.541-1.082v.994zm.787-.823c.207.267.217.608.016 1.01.244.004.359-.137.382-.448.02-.267-.105-.454-.398-.562z" class="B C"/><path d="M15.754 5.519c.178 0 .323-.145.323-.323s-.145-.323-.323-.323-.323.145-.323.323.145.323.323.323z" fill="#3d58db" class="B"/><path d="M15.799 4.498l-.097.002v.157l-.179.001.002.095.177-.001v.179l.097-.002v-.177l.176-.001-.002-.095-.174.001v-.158z" class="B C"/><path d="M13.954 10.36s1.138-.215 1.754-.215c.553 0 1.754.215 1.754.215 0 1.36.383 2.193 0 3.122s-1.318.482-1.741 1.371c-.541-.843-1.272-.379-1.766-1.58s.301-1.754 0-2.913z" fill="#1e5e91" class="B"/><mask id="B" maskUnits="userSpaceOnUse" x="13" y="10" width="5" height="5"><path d="M13.954 10.36s1.138-.215 1.754-.215c.553 0 1.754.215 1.754.215 0 1.36.383 2.193 0 3.122s-1.318.482-1.741 1.371c-.541-.843-1.272-.379-1.766-1.58s.301-1.754 0-2.913z" fill="#fff" class="B"/></mask><g mask="url(#B)"><path fill="#5eaa22" d="M13.954 13.197h3.508V14.9h-3.508z"/><path d="M14.991 11.03c-.134-.285.704-.318.704-.318s.181.318 0 .771c-.131.329.088.3.39.259l.361-.032c.188 0 .287-.014.369.017.115.043.197.173.442.548.112.171.107.284.04.351.006.174-.184.318-.534.411l-.046-.183c.185-.049.299-.096.351-.147-.264.016-.622-.114-.622-.282 0-.248-.845-.196-1.353-.164l-.304.015c-.296 0-.069-.361.137-.69l.063-.102c.106-.172.14-.216.132-.249s-.064-.058-.132-.204zm2.011-.044c-.506-.08-.791-.003-.791.281 0 .27.27.387.763.385l.05.018c-.018.009-.041.018-.067.027l.061.178c.311-.112.311-.312-.004-.41l-.014-.004h-.014c-.41.003-.591-.073-.591-.196 0-.111.172-.158.578-.094l.028-.187z" class="B C"/></g></g></g><defs><clipPath id="C"><path fill="#fff" d="M0 0h32v24H0z"/></clipPath></defs></svg>
