<svg xmlns="http://www.w3.org/2000/svg" viewBox="0 0 32 24" fill="none"><g clip-path="url(#B)"><path fill="#fff" d="M0 0h32v24H0z"/><path fill-rule="evenodd" d="M0 0V24H32V0H0Z" fill="#3d58db"/><mask id="A" maskUnits="userSpaceOnUse" x="0" y="0" width="32" height="24"><path fill-rule="evenodd" d="M0 0V24H32V0H0Z" fill="#fff"/></mask><g mask="url(#A)"><path fill-rule="evenodd" d="M8 11l-.817 2.944.008-3.055-1.581 2.614.832-2.94-2.228 2.091 1.594-2.607-2.709 1.412 2.238-2.08-2.99.629L5.063 8.61l-3.049-.201 2.993-.614-2.881-1.016 3.048.216L2.673 5.24l2.876 1.03-1.934-2.365 2.492 1.768-1.224-2.799 1.922 2.375-.424-3.026 1.21 2.805L8 2l.409 3.028 1.21-2.805-.424 3.026 1.922-2.375-1.224 2.799 2.492-1.768-1.934 2.365 2.876-1.03-2.5 1.756 3.048-.216-2.881 1.016 2.993.614-3.049.201 2.716 1.399-2.99-.629 2.238 2.08-2.709-1.412 1.594 2.607-2.228-2.091.832 2.94-1.581-2.614.008 3.055L8 11z" fill="#f7fcff"/><path d="M-.782 24.745l34.04-23.53v7.671l-34.04 15.86z" fill="#fff"/><path d="M-.782 24.745l34.04-29.53v7.671l-34.04 21.86z" fill="#e2ae57"/></g></g><defs><clipPath id="B"><path fill="#fff" d="M0 0h32v24H0z"/></clipPath></defs></svg>
