<svg xmlns="http://www.w3.org/2000/svg" viewBox="0 0 32 24" fill="none"><g clip-path="url(#B)"><path fill="#fff" d="M0 0h32v24H0z"/><path fill-rule="evenodd" d="M0 0V24H32V0H0Z" fill="#f50100"/><mask id="A" maskUnits="userSpaceOnUse" x="0" y="0" width="32" height="24"><path fill-rule="evenodd" d="M0 0V24H32V0H0Z" fill="#fff"/></mask><g mask="url(#A)"><path fill-rule="evenodd" d="M0-.042v4.084l14 5.951L3.255-.042H0zM16 12l3-12h-6l3 12zm0 0l-3 12h6l-3-12zM0 19.951v4.084h3.255L14 14 0 19.951zM32 4.066V-.018h-3.255L18 10.018l14-5.951zm0 19.993v-4.084l-14-5.951L28.745 24.06H32zM32 9l-12 3 12 3V9zm-20 3L0 9v6l12-3z" fill="#ffd018"/><path d="M16 17a5 5 0 1 0 0-10 5 5 0 1 0 0 10z" fill="#ffd018" stroke="#f50100" stroke-width="2"/></g></g><defs><clipPath id="B"><path fill="#fff" d="M0 0h32v24H0z"/></clipPath></defs></svg>
