<svg xmlns="http://www.w3.org/2000/svg" viewBox="0 0 32 24" fill="none"><g clip-path="url(#A)"><path fill="#fff" d="M0 0h32v24H0z"/><g fill-rule="evenodd"><path d="M10 0H22V24H10V0Z" fill="#4c67e8"/><g fill="#c51918"><path d="M22 0h10v24H22V0zM0 0h12v24H0V0z"/></g><path d="M6.014 6.884c-1.013 0-.88-.987-.88-.987l.48-1.038v.418.62c0 .133.182-.133.182-.455s.218-.802.218-.802l.015-.32c.035.082.105.152.211.26l.059.06c.125.128.108.468.094.762-.013.266-.025.495.073.495.206 0 .19-.919.19-.919l.345.919s.027.987-.987.987zm0-2.82c.026-.151.023.051.015.255-.029-.068-.034-.144-.015-.255zm1.525 4.619c0 .803-.672 1.453-1.5 1.453s-1.5-.651-1.5-1.453.672-1.453 1.5-1.453 1.5.651 1.5 1.453zm-3.769 2.721H2v8.571h1.769v-8.571zm6.231 0H8.231v8.571H10v-8.571zm-5.769.075l1.725 1.068 1.944-1.068H4.231zM5.955 20l-1.725-1.068h3.669L5.955 20zm-1.725-7.105h3.615v.671H4.231v-.671zm3.615 4.994H4.231v.671h3.615v-.671zm-1.769-.373c1.02 0 1.846-.801 1.846-1.789s-.827-1.789-1.846-1.789-1.846.801-1.846 1.789.827 1.789 1.846 1.789zm-2.074-8.3s.062 1.867 1.903 1.867 2.138-1.867 2.138-1.867-.712 1.144-2.02 1.144-2.02-1.144-2.02-1.144z" fill="#f8d000"/></g><g fill="#c51918"><path d="M6.359 13.972l.082-.368c.412.451.599.705.511 1.118-.099.462-.617.976-1.219 1.399-.365.256-.588.949-.407 1.169l-.173.314c-.403-.491-.081-1.416.475-1.808.511-.36.868-.737.93-1.033.041-.193.116-.444-.201-.791z"/><g fill-rule="evenodd"><path d="M6.5 17a.5.5 0 1 0 0-1 .5.5 0 1 0 0 1zm-1.124-1.349a.5.5 0 1 0 0-1 .5.5 0 1 0 0 1z"/></g></g></g><defs><clipPath id="A"><path fill="#fff" d="M0 0h32v24H0z"/></clipPath></defs></svg>
