<svg xmlns="http://www.w3.org/2000/svg" viewBox="0 0 32 24" fill="none"><style><![CDATA[.B{fill-rule:evenodd}.C{fill:#f7fcff}]]></style><g clip-path="url(#C)"><path fill="#fff" d="M0 0h32v24H0z"/><path d="M0 0V24H32V0H0Z" fill="#1c9975" class="B"/><mask id="A" maskUnits="userSpaceOnUse" x="0" y="0" width="32" height="24"><path d="M0 0V24H32V0H0Z" fill="#fff" class="B"/></mask><g mask="url(#A)"><path d="M16.022 6.854l-1.634.986.373-1.925-1.36-1.44 1.842-.078.779-1.797.779 1.797h1.839l-1.357 1.518.409 1.925-1.67-.986zm-4.639.73l-1.01.61.23-1.19-.841-.891 1.139-.048.482-1.111.482 1.111h1.137l-.839.939.253 1.19-1.032-.61zm9.198 0l-1.01.61.23-1.19-.841-.891 1.139-.048.482-1.111.482 1.111H22.2l-.839.939.253 1.19-1.032-.61zM8.766 9.611l-.811.489.185-.955-.675-.715.914-.039.387-.892.387.892h.912l-.673.753.203.955-.828-.489zm14.795 0l-.811.489.185-.955-.675-.715.914-.039.387-.892.387.892h.912l-.674.753.203.955-.828-.489z" fill="#feca00" class="B"/><mask id="B" maskUnits="userSpaceOnUse" x="8" y="6" width="16" height="16"><path d="M16 22a8 8 0 1 0 0-16 8 8 0 1 0 0 16z" fill="#fff" class="B"/></mask><g mask="url(#B)" class="C"><path d="M12.681 21.064h6.638v1.072h-6.638v-1.072zM9.957 19.46h12.766v.983H9.957v-.983z" class="B"/><path d="M12.62 19.021H8.716v-1h3.898c1.381-.019 2.39-.414 3.063-1.172l.336-.378.374.34c.899.815 1.797 1.211 2.706 1.211h4.304v1h-4.304c-1.044 0-2.051-.393-3.015-1.161-.853.756-2.012 1.141-3.456 1.161z"/></g><path d="M16.035 7.608s-1.709 1.688-1.709 4.005c0 .496.078.964.201 1.394-.551-1.22-.589-2.543-.114-3.986l-.647-.213c-.483 1.468-.485 2.848-.005 4.128-.993-.598-2.135-1-3.307-1.129l-.075.677a7.52 7.52 0 0 1 2.902.96c-.217-.087-.444-.163-.681-.224-2.163-.552-4.285.231-4.285.231s1.224 2.746 3.595 3.151l.35.047h-.018c-1.13 0-2.182-.462-3.166-1.401l-.47.493c1.106 1.055 2.322 1.589 3.636 1.589 1.285 0 2.479-.511 3.569-1.52l.294-.194.043.037-.034.06a3.67 3.67 0 0 0 .301.157c1.077.835 2.424 1.461 3.49 1.461 1.314 0 2.53-.535 3.636-1.589l-.47-.493c-.984.939-2.036 1.401-3.166 1.401-.413 0-.818-.066-1.215-.2.556.03 1.168-.02 1.802-.214 2.335-.714 3.309-2.874 3.309-2.874s-1.243-.67-2.821-.678c.354-.091.723-.158 1.107-.201l-.075-.677c-1.48.164-2.761.663-3.835 1.497.628-1.381.677-2.885.147-4.495l-.647.213c.433 1.315.44 2.531.021 3.66a5.07 5.07 0 0 0 .114-1.068c0-2.442-1.781-4.005-1.781-4.005zm.752 7.148l-.025.037.031-.037h-.006zm-1.652-.159l.067-.062.181.285-.248-.223z" class="B C"/></g></g><defs><clipPath id="C"><path fill="#fff" d="M0 0h32v24H0z"/></clipPath></defs></svg>
