<svg xmlns="http://www.w3.org/2000/svg" viewBox="0 0 32 24" fill="none"><g clip-path="url(#A)"><path fill="#fff" d="M0 0h32v24H0z"/><g fill-rule="evenodd"><path d="M0 0H34V24H0V0Z" fill="#2993ec"/><path d="M6.213 11.583c0 5.293 4.382 9.583 9.787 9.583s9.787-4.291 9.787-9.583S21.405 2 16 2s-9.787 4.291-9.787 9.583zm17.447 0c0 4.142-3.429 7.5-7.66 7.5s-7.66-3.358-7.66-7.5 3.429-7.5 7.66-7.5 7.66 3.358 7.66 7.5z" fill="#f1f9ff"/><path d="M7.064 11.583c0 4.833 4.001 8.75 8.936 8.75s8.936-3.918 8.936-8.75-4.001-8.75-8.936-8.75-8.936 3.918-8.936 8.75zm17.447 0c0 4.602-3.81 8.333-8.511 8.333s-8.511-3.731-8.511-8.333S11.3 3.25 16 3.25s8.511 3.731 8.511 8.333z" fill="#e31d1c"/><path d="M16 2.208c-.108.223-.162.539-.162.949s-.159.821-.476 1.232c-.059-.453-.089-.863-.089-1.232s.242-.685.727-.949zm2.236.339c-.155.193-.279.489-.371.889s-.339.764-.741 1.093a9.61 9.61 0 0 1 .191-1.22c.083-.359.39-.613.922-.761zm1.537 1.621c.186-.365.378-.623.575-.772-.552.015-.911.187-1.078.516s-.328.708-.48 1.138c.47-.222.798-.516.984-.881zm2.418.516c-.226.101-.47.309-.734.623s-.649.527-1.157.637c.246-.385.487-.718.724-1s.626-.369 1.167-.26zm.637 2.112c.328-.247.613-.394.855-.442-.503-.228-.901-.231-1.195-.009a9.61 9.61 0 0 0-.93.812c.519.006.943-.114 1.27-.361zm1.919 1.54c-.247-.012-.559.062-.937.222s-.818.174-1.32.043a9.6 9.6 0 0 1 1.099-.563c.339-.144.725-.045 1.158.298zm-.394 2.155c.404-.071.725-.073.963-.005-.344-.431-.698-.615-1.061-.551s-.762.164-1.198.301c.46.242.892.327 1.296.255zM6.084 9.77c.201.145.503.253.907.324s.781.299 1.13.683c-.456-.02-.865-.063-1.228-.127s-.633-.358-.809-.881zm1.537-1.583c-.378-.16-.648-.334-.811-.52.054.549.25.896.59 1.04s.729.277 1.168.4c-.254-.453-.57-.76-.948-.92zm.406-2.413c.113.22.333.454.661.701s.56.621.697 1.122c-.397-.225-.743-.449-1.037-.671s-.401-.606-.321-1.152zm2.098-.726c-.264-.314-.426-.591-.486-.831-.201.514-.184.912.053 1.194a9.61 9.61 0 0 0 .86.887c-.021-.519-.163-.936-.427-1.25zm1.448-1.982c.005.247.101.554.287.919s.231.803.135 1.314a9.61 9.61 0 0 1-.638-1.057c-.167-.328-.095-.72.217-1.176zm2.228.279c-.092-.4-.111-.72-.056-.961-.413.366-.578.729-.495 1.088s.204.753.363 1.18c.217-.472.279-.908.187-1.307z" fill="#fdda33"/><path d="M14.586 5.75c-.367 0-.64.339-.561.697l.387 1.768c.034.155.129.284.257.364-.118.091-.199.228-.218.386L13.063 20.61a.53.53 0 0 0 .257.53c.522.299 1.655.86 2.787.86s2.264-.561 2.787-.86a.53.53 0 0 0 .257-.53L17.763 8.965c-.019-.158-.1-.294-.218-.386.127-.08.222-.209.256-.364l.387-1.768c.078-.358-.194-.697-.561-.697h-3.04z" fill="#a7a7a7"/></g><path d="M6.519 12.013a.32.32 0 0 1 .399-.207c.169.05.263.225.212.39-.089.285-.089.707.009 1.259.038.212.083.375.138.519l.075.175c-.014-.029.061.128.079.169.095.216.138.405.138.682 0 .173-.143.313-.319.313s-.319-.14-.319-.312a.94.94 0 0 0-.085-.434l-.074-.158-.092-.215c-.069-.181-.124-.382-.169-.631-.114-.64-.114-1.155.009-1.549z" fill="#73be4a"/><path fill-rule="evenodd" d="M16.213 16.179l-4.115 2.803 1.451-4.698-3.994-2.965 5.012-.1 1.646-4.636 1.646 4.636 5.012.1-3.995 2.965 1.452 4.698-4.114-2.803z" fill="#f7fcff"/><path d="M25.56 12.43a.32.32 0 0 0-.399-.207c-.169.051-.263.225-.212.39.089.286.089.707-.009 1.259a2.81 2.81 0 0 1-.138.52l-.075.175c.014-.029-.061.129-.079.169-.095.216-.138.405-.138.682 0 .173.143.313.319.313s.319-.14.319-.312a.94.94 0 0 1 .085-.434l.074-.158.092-.215c.069-.181.124-.382.169-.631.114-.64.114-1.155-.009-1.549z" fill="#73be4a"/><g stroke="#73be4a" stroke-linecap="round" stroke-linejoin="round"><path d="M16.061 3.148s1.164.519.662 1.335m.189-1.335s1.164.519.662 1.335"/></g><g fill="#73be4a"><path d="M9.26 6.357c.084-.146.262-.19.396-.098a.33.33 0 0 1 .09.431c-.162.28-.246.665-.246 1.158 0 .173-.129.313-.287.313s-.287-.14-.287-.313c0-.603.109-1.101.334-1.491z"/><path d="M8.808 9.213c0 .173-.129.313-.287.313s-.287-.14-.287-.312v-.89c0-.63.099-1.126.307-1.488.084-.146.261-.191.396-.099a.33.33 0 0 1 .091.431c-.143.248-.22.634-.22 1.157v.89z"/><use href="#B"/><path d="M24.335 10.254c0 .173.129.313.287.313s.287-.14.287-.312v-.89c0-.63-.099-1.126-.307-1.488-.084-.146-.261-.191-.396-.099a.33.33 0 0 0-.091.431c.143.248.22.634.22 1.157v.89z"/></g></g><defs><clipPath id="A"><path fill="#fff" d="M0 0h32v24H0z"/></clipPath><path id="B" d="M23.484 8.796c0 .173.129.313.287.313s.287-.14.287-.312v-.89c0-.63-.099-1.126-.307-1.488-.084-.146-.261-.191-.396-.099a.33.33 0 0 0-.091.431c.143.248.22.634.22 1.157v.89z"/></defs></svg>
