<svg xmlns="http://www.w3.org/2000/svg" viewBox="0 0 32 24" fill="none"><g clip-path="url(#B)"><path fill="#fff" d="M0 0h32v24H0z"/><path fill-rule="evenodd" d="M0 0V24H32V0H0Z" fill="#1c7b4d"/><mask id="A" maskUnits="userSpaceOnUse" x="0" y="0" width="32" height="24"><path fill-rule="evenodd" d="M0 0V24H32V0H0Z" fill="#fff"/></mask><g mask="url(#A)"><path fill-rule="evenodd" d="M0 0v6h32V0H0zm0 18v6h32v-6H0z" fill="#e31d1c"/><path fill-rule="evenodd" d="M16.242 14.379c5.185.029 6.646-4.313 6.646-4.313-.294 3.715-2.348 6.234-6.646 6.234s-5.875-3.263-6.646-6.518c0 0 1.46 4.569 6.646 4.598zm1.395-4.565l.337 1.964-1.763-.927-1.763.927.337-1.964-1.427-1.534h1.972l.882-1.93.882 1.93h1.972l-1.427 1.534z" fill="#feca00"/></g></g><defs><clipPath id="B"><path fill="#fff" d="M0 0h32v24H0z"/></clipPath></defs></svg>
