<svg xmlns="http://www.w3.org/2000/svg" viewBox="0 0 32 24" fill="none"><path fill="#fff" d="M0 0h32v24H0z"/><mask id="A" fill="#fff"><path fill-rule="evenodd" d="M10 4H6v2.993a1 1 0 0 0-.768.973V8H2v4h3.331a1 1 0 0 0 .669.539V16h4v-3.449a1 1 0 0 0 .733-.551H14V8h-3.169l.001-.034A1 1 0 0 0 10 6.98V4z"/></mask><path fill-rule="evenodd" d="M10 4H6v2.993a1 1 0 0 0-.768.973V8H2v4h3.331a1 1 0 0 0 .669.539V16h4v-3.449a1 1 0 0 0 .733-.551H14V8h-3.169l.001-.034A1 1 0 0 0 10 6.98V4z" fill="#a0a0a0"/><path d="M6 4V3H5v1h1zm4 0h1V3h-1v1zM6 6.993l.231.973L7 7.783v-.791H6zM5.232 8v1h1.034l-.035-1.034L5.232 8zM2 8V7H1v1h1zm0 4H1v1h1v-1zm3.331 0l.9-.435L5.958 11h-.627v1zm.669.539h1v-.791l-.769-.182-.231.973zM6 16H5v1h1v-1zm4 0v1h1v-1h-1zm0-3.449l-.167-.986-.833.141v.845h1zm.733-.551v-1h-.627l-.273.565.9.435zM14 12v1h1v-1h-1zm0-4h1V7h-1v1zm-3.169 0l-.999-.034L9.797 9h1.034V8zM10 6.98H9v.845l.833.141L10 6.98zM6 5h4V3H6v2zm1 1.993V4H5v2.993h2zm-.768.973h-.001L5.769 6.02a2 2 0 0 0-1.538 1.946h2zm0 .001h0-2l.001.068 1.999-.068zM2 9h3.232V7H2v2zm1 3V8H1v4h2zm2.331-1H2v2h3.331v-2zm.9.566v-.001l-1.801.87a2 2 0 0 0 1.339 1.077l.462-1.946zM7 16v-3.461H5V16h2zm3-1H6v2h4v-2zm-1-2.449V16h2v-3.449H9zm1.167.986a2 2 0 0 0 1.466-1.102l-1.801-.87.001.001.334 1.972zM14 11h-3.267v2H14v-2zm-1-3v4h2V8h-2zm-2.169 1H14V7h-3.169v2zm-.999-1.034l1.999.068.001-.068h-2zm.001 0h1.999a2 2 0 0 0-1.665-1.972l-.334 1.972zM9 4v2.98h2V4H9z" fill="#feca00" mask="url(#A)"/><path fill-rule="evenodd" d="M16 0H32V24H16V0Z" fill="#e31d1c"/></svg>
