<svg xmlns="http://www.w3.org/2000/svg" viewBox="0 0 32 24" fill="none"><g clip-path="url(#B)"><path fill="#fff" d="M0 0h32v24H0z"/><g fill-rule="evenodd"><g fill="#c51918"><path d="M0 0h32v22a2 2 0 0 1-2 2H2a2 2 0 0 1-2-2V0z"/><path d="M0 0H32V24H0V0Z"/></g><path d="M6 6H26V18H6V6Z" fill="#579d20"/></g><path d="M7 7H25V17H7V7Z" stroke="#b6eb9a" stroke-opacity=".238" stroke-width="2"/><mask id="A" maskUnits="userSpaceOnUse" x="6" y="6" width="20" height="12"><path fill-rule="evenodd" d="M6 6H26V18H6V6Z" fill="#fff"/><path d="M7 7H25V17H7V7Z" stroke="#fff" stroke-width="2"/></mask><g mask="url(#A)"><path fill-rule="evenodd" d="M16.033 12.463c-.017 3.066 2.396 4.7 2.396 4.7-2.754.323-4.586-2.173-4.586-4.67s2.498-4.56 4.586-5.491c0 0-2.379 2.396-2.396 5.461z" fill="#f9fafa"/></g></g><defs><clipPath id="B"><path fill="#fff" d="M0 0h32v24H0z"/></clipPath></defs></svg>
