<svg xmlns="http://www.w3.org/2000/svg" viewBox="0 0 32 24" fill="none"><style><![CDATA[.B{fill-rule:evenodd}]]></style><g clip-path="url(#B)"><path fill="#fff" d="M0 0h32v24H0z"/><path d="M0 0V24H32V0H0Z" fill="#e11c1b" class="B"/><mask id="A" maskUnits="userSpaceOnUse" x="0" y="0" width="32" height="24"><path d="M0 0V24H32V0H0Z" fill="#fff" class="B"/></mask><g mask="url(#A)" class="B"><path d="M0 0V10H32V0H0Z" fill="#272727"/><path d="M0 16v8h32v-8H0z" fill="#5eaa22"/><path d="M4.002 11.946v-.002l-.009.002.009.001zm.628-3.819h.103l-.158-.024.055.024zm2.928 0l.164-.299-2.289-1.516 2.7.878.485-.614-1.984-1.889 2.529 1.32.583-.51L8.14 3.281l2.267 1.734.653-.397-1.156-2.481 1.915 2.102.7-.282-.651-2.664 1.483 2.404.728-.167L13.97.774l.986 2.623.739-.054L16.141.6l.447 2.744.738.056.987-2.625-.109 2.759.725.168 1.485-2.408-.652 2.671.696.282 1.92-2.108-1.16 2.489.648.396 2.276-1.741-1.612 2.227.577.506 2.542-1.326-1.995 1.9.48.609 2.716-.884-2.304 1.525.159.289H22.74c-1.354-1.877-3.829-3.134-6.658-3.134S10.778 6.25 9.424 8.127H7.558zm3.002 0c1.283-1.323 3.297-2.176 5.562-2.176s4.279.853 5.562 2.176H10.56zm16.989 0h.103l.055-.024-.158.024zm.733 3.817l.008.001-.008.001v-.002z" fill="#e11c1b"/></g></g><defs><clipPath id="B"><path fill="#fff" d="M0 0h32v24H0z"/></clipPath></defs></svg>
