<svg xmlns="http://www.w3.org/2000/svg" viewBox="0 0 32 24" fill="none"><g clip-path="url(#A)"><path fill="#fff" d="M0 0h32v24H0z"/><g fill-rule="evenodd"><path d="M22 0H32V24H22V0Z" fill="#d9071e"/><path d="M0 0H12V24H0V0Z" fill="#006923"/><path d="M10 0H22V24H10V0Z" fill="#fff"/><path d="M13.056 8.342c-.106.455-.037.563.477.563.027 0 .069.075.115.157.051.09.106.188.149.203-.019.025-.214.378-.215 1 0 .128.059.339.117.542.062.221.122.431.098.514-.038.136-.208-.012-.339-.127-.075-.066-.138-.12-.156-.105-.094.079-.143-.547-.172-.925l-.03-.274c-.033-.072-.046-.161-.059-.249-.029-.191-.057-.377-.282-.377h-.58v.427s.336 0 .336.795c.005.119.162 1.164.543 1.169-.223.005-.221.05-.22.075v.005c0 .639.534.708 1.034.528a2.25 2.25 0 0 0 .857-.581c.337-.368.378-.845-.064-1.106-.157-.093-.328-.129-.567-.142.047-.14.002-.265-.032-.363-.029-.082-.051-.144-.007-.18.501-.406.545-.78.181-1.116-.047-.044-.093-.103-.14-.163h0c-.089-.115-.182-.235-.3-.27l.219-.395-.857-.515c-.155.259-.13.461-.107.638.012.097.024.186.004.272zm.932 2.666l-.015.017.01-.01zm-.454.313h.002l.01-.002-.011.002zm-.435.334h-.034.018.015z" fill="#a8ac71"/><path d="M14.384 7.913s-.687.533-.558 1.101 1.482 0 1.318-.55-.76-.55-.76-.55z" fill="#fcca3d"/><path d="M19.266 12.403s.925-2.741-.545-4.16-3.169-1.324-3.169-1.324-.489.364 0 .641.284.543.284.543-.819-.832-1.363-.346.508.412.396.778-.583 1.991.106 2.812-.652.642-.379.642 1.24.191 1.24 0 .336.742.624.742.51-.328.51-.328.403.328.649.328 1.103-.215 1.103-.215l-1.619-1.365s.098-.602-.132-.732 1.842 1.154 2.004 1.569.293.414.293.414z" fill="#8f4620"/></g><path d="M11.066 11.727s.15-.479.311-.512c.139-.029.432.229.432.229.52 2.89 1.778 4.019 3.865 4.019 2.112 0 3.392-.858 4.139-3.523 0 0 .397-.405.537-.36.152.049.344.585.344.585-.857 3.058-2.476 4.419-5.019 4.419-2.568 0-4.011-1.539-4.608-4.857z" fill="#9fab2f"/><path fill-rule="evenodd" d="M13.334 13.656s3.004.637 4.19.637-1.04.968-1.909.968c-.38 0-.838-.23-1.374-.691-.096-.082-.003-.267-.296-.27-.408-.004-.915-.099-.867-.158s.64-.072.583-.133l-.328-.354z" fill="#2fc2dc"/><rect x="14.667" y="14.1" width="2" height="1.071" rx=".167" fill="#f9aa51"/><path d="M12.175 12.136s0-.375.254-.574c.291-.229.565 0 .565 0 1.066 1.519 2.659 2.018 4.887 1.497 0 0 .666.218.7.361.042.182-.472.613-.472.613-2.605.61-4.619-.022-5.934-1.896z" fill="#259485"/><g fill-rule="evenodd" fill="#fcca3d"><path d="M16.591 12.35s-1.214.639-.809.639 1.988.319 1.68 0-.871-.639-.871-.639zm-1.435-.762s-.231-.666-.71-.666-.344.546-.575.546.215.384.414.384.872-.265.872-.265z"/></g></g><defs><clipPath id="A"><path fill="#fff" d="M0 0h32v24H0z"/></clipPath></defs></svg>
