<svg xmlns="http://www.w3.org/2000/svg" viewBox="0 0 32 24" fill="none"><style><![CDATA[.B{fill-rule:evenodd}]]></style><g clip-path="url(#A)"><path fill="#fff" d="M0 0h32v24H0z"/><path d="M0 0H32V24H0V0Z" fill="#f7fcff" class="B"/><g fill="#e31d1c"><path d="M.027 5h32v2.9h-32zm0 5.2h32v2.9h-32zm.085 5h32v2.5h-32zm0 5h32v2.7h-32z"/><g class="B"><path d="M0 0H32V2.5H0V0Z"/></g></g><path d="M0 0H16V12H0V0Z" fill="#3d58db" class="B"/><g fill="#feca00" class="B"><path d="M3.594 6.202c0 1.376.648 2.678 1.967 2.678 1.979 0 2.364-.422 3.287-1.004.218.49-.518 2.588-3.314 2.588-2.236-.045-4.043-1.842-4.043-4.262 0-2.779 2.044-4.279 3.987-4.262 1.716 0 3.536.974 3.48 2.216-.809-.79-1.686-.79-3.148-.79s-2.216 1.46-2.216 2.836z"/><path d="M11 7.3l-.927 1.353.045-1.64-1.545.55 1-1.3L8 5.8l1.573-.464-1-1.3 1.545.55-.045-1.64L11 4.3l.927-1.353-.045 1.64 1.545-.55-1 1.3L14 5.8l-1.573.464 1 1.3-1.545-.55.045 1.64L11 7.3z"/></g></g><defs><clipPath id="A"><path fill="#fff" d="M0 0h32v24H0z"/></clipPath></defs></svg>
