<svg xmlns="http://www.w3.org/2000/svg" viewBox="0 0 32 24" fill="none"><style><![CDATA[.B{fill-rule:evenodd}]]></style><g clip-path="url(#C)"><path fill="#fff" d="M0 0h32v24H0z"/><path d="M0 0V24H32V0H0Z" fill="#f7fcff" class="B"/><mask id="A" maskUnits="userSpaceOnUse" x="0" y="0" width="32" height="24"><path d="M0 0V24H32V0H0Z" fill="#fff" class="B"/></mask><g mask="url(#A)"><path d="M0 0V8H32V0H0Z" fill="#feca00" class="B"/><path d="M0 16v8h32v-8H0z" fill="#093" class="B"/><path d="M0 7h-1v1 8 1h1 32 1v-1-8-1h-1H0z" fill="#272727" stroke="#fff" stroke-width="2"/></g><path d="M0 0V24L18 12L0 0Z" fill="#f50100" class="B"/><mask id="B" maskUnits="userSpaceOnUse" x="0" y="0" width="18" height="24"><path d="M0 0V24L18 12L0 0Z" fill="#fff" class="B"/></mask><g mask="url(#B)"><path d="M8.069 14.353L4.29 17.404l1.733-4.077-2.978-2.868H6.56L8.003 7l1.532 3.459h3.51l-3.136 2.868 1.569 4.077-3.41-3.051z" fill="#feca00" class="B"/><path d="M6.156 11.984l-.641 2.141s2.164-.021 2.424.197c.783-.488 2.395-.197 2.395-.197l-.857-2.291s-1.087-.492-1.538-.223c-1.104-.249-1.783.373-1.783.373z" fill="#f7fcff" class="B"/><path d="M11.564 15.216a.5.5 0 1 1-.799.601l-4.18-5.551a.5.5 0 1 1 .799-.602l4.18 5.551z" fill="#000"/><path d="M6.974 9.84l-.4-.48" stroke="#000" stroke-linecap="round" stroke-linejoin="round"/><path d="M5.605 9.363l-1.209 1.935L5 12.345l1.382-2.054.249-.635-.249-.293h-.778zm-1.566 5.746l.583.822 4.496-5.319.186.208 1.036-.975 1.656-1.802-1.656 1.354-.536-.149-.501.787h-.502l-3.672 4.088-1.09.986z" fill="#000" class="B"/></g></g><defs><clipPath id="C"><path fill="#fff" d="M0 0h32v24H0z"/></clipPath></defs></svg>
