<svg xmlns="http://www.w3.org/2000/svg" viewBox="0 0 32 24" fill="none"><g clip-path="url(#B)"><path fill="#fff" d="M0 0h32v24H0z"/><path fill-rule="evenodd" d="M0 0V24H32V0H0Z" fill="#093"/><mask id="A" maskUnits="userSpaceOnUse" x="0" y="0" width="32" height="24"><path fill-rule="evenodd" d="M0 0V24H32V0H0Z" fill="#fff"/></mask><g mask="url(#A)"><path fill-rule="evenodd" d="M0 0V24L32 0H0Z" fill="#3195f9"/><path d="M-1.012 27.094l.531.961.908-.618L35.258 3.728l.702-.478-.358-.77L33.26-2.56l-.491-1.057-.97.646-35.356 23.556-.766.51.445.805 2.866 5.192z" fill="#e31d1c" stroke="#f7fcff" stroke-width="2"/><path fill-rule="evenodd" d="M6.23 9.245l-1.294 1.615-.313-2.045-1.928.751.751-1.928L1.4 7.324 3.015 6.03 1.4 4.736l2.045-.313-.751-1.928 1.928.751.313-2.045L6.23 2.815 7.524 1.2l.313 2.045 1.928-.751-.751 1.928 2.045.313L9.445 6.03l1.615 1.294-2.045.313.751 1.928-1.928-.751-.313 2.045L6.23 9.245zm0-.715a2.5 2.5 0 1 0 0-5 2.5 2.5 0 1 0 0 5zm2-2.5a2 2 0 1 1-4 0 2 2 0 0 1 4 0z" fill="#feca00"/></g></g><defs><clipPath id="B"><path fill="#fff" d="M0 0h32v24H0z"/></clipPath></defs></svg>
