<svg xmlns="http://www.w3.org/2000/svg" viewBox="0 0 32 24" fill="none"><g clip-path="url(#A)"><path fill="#fff" d="M0 0h32v24H0z"/><g fill-rule="evenodd"><g fill="#409100"><path d="M22 0h10v24H22V0zM0 0h10v24H0V0z"/></g><path d="M10 0H22V24H10V0Z" fill="#fff"/><path d="M12.695 18.771c-1.556.253-2.046-.506-2.046-.506l.196-.161c.132-.108.575-.071 1.005-.035l.584.035c.243 0 .522-.037.813-.075l.959-.085c.599 0-1.772-.784-2.279-.303S10 17.418 10 17.017c0-.274.523-.174 1-.083l.579.083c.456 0-.456-.889-.931-.889s.475-.207.931-.207c.259 0 .501.067.708.125.157.044.295.082.407.082.261 0-1.309-.675-1.572-.675h1.311c.45 0 .559.063.663.123.093.054.182.105.51.105.693 0 .314-.379.314-.379s-2.342-.243-2.798-.579c-.308-.227.519-.147 1.301-.071h0l.962.071c.692 0-1.459-.494-1.807-.494h1.585c.347 0 .728.112 1.127.229h0c.441.129.905.265 1.371.265.491 0-.469-.293-1.523-.615h0l-2.026-.698c-.269-.164-.064-.101.308.015.433.134 1.092.339 1.499.339.757 0-1.007-.743-1.487-.743s-.939-.216-.507-.415c.265-.123.956.062 1.558.223.378.101.722.193.902.193.218 0 .38.085.551.175.195.103.404.213.724.213.602 0-1.275-.803-2.055-.803s-.912-.378-.443-.378-1.05-.645-1.05-.645-.22-.457.32-.457h.73c.25 0-.25-.793-.73-.793s-.061-.239.73-.239c.481 0 .763.166 1.101.366.218.129.46.272.795.393.854.31.21-.519 0-.519s-2.365-.676-2.365-.676.219-.249 0-.588c-.165-.256.523-.125.941-.046l.285.046c.099 0 .384.071.734.158h0l.76.181c.64.14-2.175-1.034-2.5-1.034s.693-.193 1.292-.193a1.59 1.59 0 0 1 .581.094c.149.049.301.099.627.099.64 0-1.208-.686-1.807-.686s-.245-.591 0-.591c.095 0 .337.032.631.07h0 0 0 0 0 0l1.424.139c.28 0 .024-.078-.348-.193h0 0c-.428-.131-1.011-.31-1.108-.471-.107-.177.111-.145.489-.089h0l.22.032c.258.135.474.223.506.12.009-.03.029-.051.055-.066l.186.004c.357 0 .192-.054-.152-.12l-.031-.009c-.522-.159-1.65-.5-1.228-.29l.272.146-.603-.064c-.285 0-.572-.221 0-.221h1.139c-.354 0-.854 0-.854-.278 0-.189.396-.121.76-.058l.448.058c.354 0 .442 0 .248-.166-.184-.157-.82-.156-1.215-.156h-.061c-.387 0 .82-.202 1.275-.202l.11-.001c0-.001-.021-.003-.059-.007-.198-.019-.857-.083-1.327-.296-.421-.19-.052-.143.43-.08l.845.08c.602 0-.248-.405-.889-.405-.514 0-.269-.14.049-.323h0l.238-.141c.231-.146.4.103.499.249.068.1.103.151.103-.003s-.039-.247-.071-.297c.017.014.04.032.071.052.248.166 0-.435 0-.435s-.248-.166 0-.166-.08-.285-.248-.285.442-.273.442-.273l.135-1.154.333 1.427v.885c0 .211-.149.358-.249.456-.125.123-.172.17.249.17.757 0 .725.242.264.242s.132.304.96.304-.694.358-1.224.358.53.166 1.224.166c.468 0-.012.162-.456.311l-.504.187c-.138.074.201.072.561.052l-.519.156-.23.078c.001.004.017.005.041.006.073.004.218.012.247.107.044.143.438-.078.811-.287l.176-.098.161-.014s.343.396.343.637c0 .141-.451.182-.932.227l-.049.004c.024-.032-.078-.015-.228.022-.249.026-.485.057-.647.11-.154.05-.128.071-.003.076l-.034.01-.158.056c.001.004.012.006.03.009h0c.052.01.157.03.186.126.044.143.307-.038.556-.209l.023-.016.237-.016h0 0l.675-.036c.447 0-.447.215-.788.215-.145 0 .038.033.317.083.377.068.93.167 1.085.259.187.11-.361.069-.848.033h0l-.554-.033c-.389 0-.461.318-.195.318h.983c.372 0 .759.569.614.569-.044 0-.137.029-.268.07-.301.094-.797.249-1.329.249-.764 0 .983.001 1.326 0s1.321.001 1.321.339c0 .21-.185.257-.428.317-.147.037-.316.079-.477.166-.427.231 1.276.441 1.276.441s-.674.21-1.001.21.152.31 1.002.31c.657 0 .464.357.343.581h0c-.035.066-.065.12-.065.15 0 .059-.124.11-.304.183-.231.095-.554.226-.823.461-.31.27.067.191.492.101h0l.636-.101c.446 0 .636.019.491.235s-1.443.559-1.771.559h1.771c.491 0-.138.388-.77.388-.424 0-.661.159-.817.265-.077.052-.134.09-.184.09h1.28c.065 0 .137-.104.203-.2.058-.084.111-.161.151-.155.579.091.319.82 0 .82-.366 0-1.481.246-1.306.494.085.12.217.066.432-.022.229-.094.552-.226 1.011-.226.889 0 .085.248-.138.248s-1.167.18-1.481.336c-.21.104.52.069 1.247.034l.966-.034c.732 0-1.734.622-2.639.622s.602.239.905.239c.116 0 .342.03.62.068h0 0l1.512.139c.783 0-.783.516-1.483.516a41.78 41.78 0 0 1-.16 0c-.625-.003-1.094-.005-.792.374.168.21.728.153 1.312.093.554-.057 1.131-.116 1.416.05.511.297-1.751.272-2.727.261h0 0l-.328-.003c-.6 0 .6.223 1.633.223h.13c.923-.001 1.142-.001 1.142.303 0 .267-2.011.198-2.85.169l-.329-.009c-.161 0-.254.097-.35.198-.103.108-.21.22-.409.22-.163 0-.24-.104-.309-.2-.094-.128-.176-.24-.44-.057-.461.319.461 3.536.461 3.536h-2.488v-3.03s-.81-.253-2.365 0zm2.858-14.754c-.004.001.006.016.039.044-.019-.031-.036-.044-.039-.044zm-.866 12.007c-.393-.148.603-.155 1.064-.155.149 0 .201 0 .205.013.002.007-.011.018-.032.035-.058.048-.173.143-.173.333 0 .284-.373.101-.726-.071h0 0 0l-.337-.154zm.814-1.158c-.461 0-1.457.008-1.064.156.1.038.217.095.337.154h0 0 0c.353.172.726.355.726.071 0-.19.115-.285.173-.333.02-.017.034-.028.032-.035-.003-.013-.056-.013-.205-.013zm-.831-.67c-.321-.078.492-.082.868-.082l.167.007c.001.004-.01.009-.026.018-.047.025-.141.075-.141.175 0 .149-.305.053-.593-.037l-.275-.081zm.809-3.169c-.522-.159-1.65-.5-1.228-.29l.358.194c.373.209.768.43.811.287.029-.095.174-.103.247-.107.024-.001.041-.002.041-.006s-.057-.025-.23-.078zm-1.228-1.292c-.422-.21.706.131 1.228.29l.23.078c-.001.004-.017.005-.041.006-.073.004-.218.012-.247.107-.043.143-.438-.078-.811-.287h0l-.358-.194zm1.228-.963c-.522-.159-1.65-.5-1.228-.29l.358.194c.373.209.768.43.811.287.029-.095.174-.103.247-.107.024-.001.041-.002.041-.006s-.057-.025-.23-.078zm1.129 6.847c.461 0 1.457.008 1.064.155a4.27 4.27 0 0 0-.337.154h0 0c-.353.172-.726.355-.726.071 0-.19-.115-.285-.173-.333-.02-.017-.034-.028-.032-.035.003-.013.056-.013.205-.013zm1.064-.596c.393-.148-.603-.156-1.064-.156-.149 0-.201 0-.205.013-.002.007.011.018.032.035.058.047.173.143.173.333 0 .284.373.101.726-.071h0 0 0l.337-.154zm.617-1.734h0a.45.45 0 0 1-.011.003c-.106.026-.328.113-.578.211h0 0c-.507.199-1.129.444-1.129.31 0-.1-.094-.15-.141-.175-.016-.009-.027-.014-.026-.018s.044-.007.167-.007c.313 0 1.512-.277 1.718-.325zm-.431-3.053c.422-.21-.706.131-1.228.29l-.23.078c.001.004.017.005.041.006.073.004.218.012.247.107.044.143.438-.078.811-.287l.358-.194zm-1.228 1.292c.521-.159 1.65-.5 1.228-.29l-.358.194c-.373.209-.768.43-.811.287-.029-.095-.174-.103-.247-.107-.024-.001-.041-.002-.041-.006s.057-.025.23-.078zm1.228-2.295c.422-.21-.706.131-1.228.29l-.23.078c.001.004.017.005.041.006.073.004.218.012.247.107.044.143.438-.078.811-.287l.358-.194zm-1.571-.586c.36-.11 1.139-.344.854-.176l-.24.158c-.249.171-.513.352-.556.209-.029-.095-.134-.116-.186-.126h0c-.018-.003-.03-.006-.03-.009s.04-.02.158-.056zm.229 3.814c-.413 0 0-.326 0-.326h.213c.073 0 .138-.03.224-.07.164-.075.402-.186.913-.186.778 0-.937.582-1.35.582z" fill="#409100"/></g></g><defs><clipPath id="A"><path fill="#fff" d="M0 0h32v24H0z"/></clipPath></defs></svg>
