<svg xmlns="http://www.w3.org/2000/svg" viewBox="0 0 32 24" fill="none"><style><![CDATA[.B{fill-rule:evenodd}]]></style><g clip-path="url(#C)"><path fill="#fff" d="M0 0h32v24H0z"/><path d="M0 0V24H32V0H0Z" fill="#f7fcff" class="B"/><mask id="A" maskUnits="userSpaceOnUse" x="0" y="0" width="32" height="24"><path d="M0 0V24H32V0H0Z" fill="#fff" class="B"/></mask><g mask="url(#A)"><path d="M0 0v8h32V0H0zm0 16v8h32v-8H0z" fill="#0080ec" class="B"/><path d="M16 8c.189 0 .374.013.555.038l-.198 1.276c-.117-.015-.236-.023-.357-.023-.176 0-.348.017-.515.049l-.093-1.294A4.03 4.03 0 0 1 16 8zm1.152.168l-.348 1.244A2.71 2.71 0 0 1 18.709 12l-.002.089 1.288.109L20 12c0-1.809-1.2-3.337-2.848-3.832zm2.361 5.745a4 4 0 0 1-3.217 2.076v-1.296c.741-.081 1.392-.46 1.83-1.014l1.387.235zm-6.937.157a4 4 0 0 0 3.194 1.923V14.7c-.79-.066-1.484-.471-1.935-1.069l-1.259.44zm-.573-1.899L12 12c0-1.698 1.059-3.15 2.552-3.73l.334 1.26a2.71 2.71 0 0 0-1.595 2.451l-1.287.191z" fill="#d0ab00" class="B"/><path d="M15.975 8.95l-2.737 4.731h5.517l-2.78-4.731z" fill="#7cdfff" class="B"/><mask id="B" maskUnits="userSpaceOnUse" x="13" y="8" width="6" height="6"><path d="M15.975 8.95l-2.737 4.731h5.517l-2.78-4.731z" fill="#fff" class="B"/></mask><g mask="url(#B)"><use href="#D" stroke="#e31d1c"/><use href="#D" stroke="#ffd018"/><use href="#D" stroke="#4edd00"/><use href="#D" stroke="#3d58db"/><path fill="#3d58db" d="M13.018 12.218h6.255v1.818h-6.255z"/><path d="M13.437 12.991l1.247-1.24.383.62.267-.756.297.567.312-.431.403.431.37-.567.316.567.363-.431.848.901.153.339-4.957.252v-.252z" fill="#97c923" class="B"/></g></g></g><defs><clipPath id="C"><path fill="#fff" d="M0 0h32v24H0z"/></clipPath><path id="D" d="M16 15.118a2.39 2.39 0 1 0 0-4.782 2.39 2.39 0 1 0 0 4.782z"/></defs></svg>
