<svg xmlns="http://www.w3.org/2000/svg" viewBox="0 0 32 24" fill="none"><g clip-path="url(#B)"><g fill="#fff"><path d="M0 0h32v24H0z"/><path d="M0 0h32v24H0z"/></g><path d="M11.616 12.32l9.317 11.18H.5V.842L20.039 11.5H12h-1.068l.683.82z" fill="#c51918" stroke="#4857a1"/><mask id="A" maskUnits="userSpaceOnUse" x="0" y="0" width="22" height="24"><path d="M11.616 12.32l9.317 11.18H.5V.842L20.039 11.5H12h-1.068l.683.82z" fill="#fff" stroke="#fff"/></mask><g mask="url(#A)"><path fill-rule="evenodd" d="M5.83 20.01L4.604 21.6l-.057-2.006-1.926.566 1.134-1.657-1.891-.674 1.891-.674-1.134-1.657 1.926.566.057-2.007 1.225 1.59 1.225-1.59.057 2.007 1.926-.566-1.134 1.657 1.891.674-1.891.674 1.134 1.657-1.926-.566-.057 2.006-1.225-1.59zM5.8 8.139l-.64.83-.03-1.048-1.006.296.592-.865L3.73 7l.987-.352-.592-.865 1.006.296.03-1.048.64.83.64-.83.03 1.048 1.006-.296-.592.865.987.352-.987.352.592.865-1.006-.296-.03 1.048-.64-.83z" fill="#f7fcff"/><path fill-rule="evenodd" d="M5.666 7.894c2.226.009 3.413-1.254 3.413-1.254.235 1.441-1.578 2.4-3.392 2.4S2.776 7.733 2.1 6.64c0 0 1.34 1.245 3.566 1.254z" fill="#f9fafa"/></g></g><defs><clipPath id="B"><path fill="#fff" d="M0 0h32v24H0z"/></clipPath></defs></svg>
