<svg xmlns="http://www.w3.org/2000/svg" viewBox="0 0 32 24" fill="none"><g clip-path="url(#B)"><path fill="#fff" d="M0 0h32v24H0z"/><path fill-rule="evenodd" d="M0 0V24H32V0H0Z" fill="#2e42a5"/><mask id="A" maskUnits="userSpaceOnUse" x="0" y="0" width="32" height="24"><path fill-rule="evenodd" d="M0 0V24H32V0H0Z" fill="#fff"/></mask><g mask="url(#A)"><path fill-rule="evenodd" d="M0 8v4h32V8H0z" fill="#feca00"/><path fill-rule="evenodd" d="M8.83 19.58l-1.545 2.005-.071-2.53-2.429.714 1.43-2.089-2.385-.85 2.385-.85-1.43-2.089 2.429.714.071-2.53L8.83 14.08l1.545-2.005.071 2.531 2.429-.714-1.43 2.089 2.385.85-2.385.85 1.43 2.089-2.429-.714-.071 2.531L8.83 19.58z" fill="#f7fcff"/></g></g><defs><clipPath id="B"><path fill="#fff" d="M0 0h32v24H0z"/></clipPath></defs></svg>
