<svg xmlns="http://www.w3.org/2000/svg" viewBox="0 0 32 24" fill="none"><g clip-path="url(#A)"><path fill="#fff" d="M0 0h32v24H0z"/><path fill-rule="evenodd" d="M0 0V24H32V0H0Z" fill="#2e42a5"/><g clip-path="url(#B)"><path fill="#2e42a5" d="M0 0h18v14H0z"/><path d="M-2.004 13l3.961 1.737L18.09 1.889l2.089-2.582-4.236-.581-6.58 5.537-5.296 3.73L-2.004 13z" fill="#f7fcff"/><path d="M-1.462 14.217l2.018 1.008L19.429-.933h-2.833l-18.058 15.15z" fill="#f50100"/><path d="M20.004 13l-3.961 1.737L-.09 1.889-2.179-.693l4.236-.581 6.58 5.537 5.296 3.73L20.004 13z" fill="#f7fcff"/><g fill="#f50100"><path d="M19.869 13.873l-2.018 1.008-8.036-6.918-2.383-.773L-2.38-.684H.453l9.807 7.688 2.605.927 7.004 5.943z"/><g fill-rule="evenodd"><path d="M9.985 0h-2v6H0v2h7.985v6h2V8H18V6H9.985V0z"/></g></g><path fill-rule="evenodd" d="M6.485 0h5v4.5H18v5h-6.515L11.5 14h-5l-.015-4.5H0v-5h6.485V0zm1.5 6H0v2h7.985v6h2V8H18V6H9.985V0h-2v6z" fill="#f7fcff"/></g><path fill-rule="evenodd" d="M24.1 7.471l-.26 1.514 1.36-.715 1.36.715-.26-1.514 1.1-1.072-1.52-.221L25.2 4.8l-.68 1.377-1.52.221 1.1 1.072zm-4 5.6l-.26 1.514 1.36-.715 1.36.715-.26-1.514 1.1-1.072-1.52-.221-.68-1.377-.68 1.377-1.52.221 1.1 1.072zm3.327 6.393l-.337 1.964 1.763-.927 1.763.927-.337-1.964 1.426-1.391-1.971-.286L24.853 16l-.882 1.787-1.971.286 1.427 1.391zm3.413-4.883l.259-1.512L26 11.997l1.518-.221.679-1.376.679 1.376 1.518.221-1.099 1.071.259 1.512-1.358-.714-1.358.714z" fill="#f50100"/><path d="M23.84 8.985l-.197-.034-.069.399.359-.189-.093-.177zm.26-1.514l.197.034.018-.104-.075-.073-.14.143zm1.1.799l.093-.177-.093-.049-.093.049.093.177zm1.36.715l-.093.177.359.189-.069-.399-.197.034zm-.26-1.514l-.14-.143-.075.073.018.104.197-.034zm1.1-1.072l.14.143.29-.283-.401-.058-.029.198zm-1.52-.221l-.179.089.046.094.104.015.029-.198zM25.2 4.8l.179-.089-.179-.363-.179.363.179.089zm-.68 1.377l.029.198.104-.015.047-.094-.179-.089zM23 6.398l-.029-.198-.401.058.29.283.14-.143zm-3.16 8.186l-.197-.034-.069.399.359-.189-.093-.177zm.26-1.514l.197.034.018-.104-.075-.073-.14.143zm1.1.799l.093-.177-.093-.049-.093.049.093.177zm1.36.715l-.093.177.359.189-.069-.399-.197.034zm-.26-1.514l-.14-.143-.075.073.018.104.197-.034zm1.1-1.072l.14.143.29-.283-.401-.058-.029.198zm-1.52-.221l-.179.088.046.094.104.015.029-.198zM21.2 10.4l.179-.088-.179-.363-.179.363.179.088zm-.68 1.377l.029.198.104-.015.047-.094-.179-.088zm-1.52.221l-.029-.198-.401.058.29.283.14-.143zm4.09 9.429l-.197-.034-.069.399.359-.189-.093-.177zm.337-1.964l.197.034.018-.104-.075-.073-.14.143zm1.427 1.037l.093-.177-.093-.049-.093.049.093.177zm1.763.927l-.093.177.359.189-.069-.399-.197.034zm-.337-1.964l-.14-.143-.075.073.018.104.197-.034zm1.426-1.391l.14.143.29-.283-.401-.058-.029.198zm-1.971-.286l-.179.088.047.094.104.015.029-.198zM24.853 16l.179-.088-.179-.363-.179.363.179.088zm-.882 1.787l.029.198.104-.015.047-.094-.179-.088zM22 18.073l-.029-.198-.401.058.29.283.14-.143zm5.099-5.005l.197.034.018-.104-.075-.073-.14.143zm-.259 1.512l-.197-.034-.069.399.359-.189-.093-.177zM26 11.997l-.029-.198-.401.058.29.283.14-.143zm1.518-.221l.029.198.104-.015.047-.094-.179-.088zm.679-1.376l.179-.088-.179-.363-.179.363.179.088zm.679 1.376l-.179.088.047.094.104.015.029-.198zm1.518.221l.14.143.29-.283-.401-.058-.029.198zm-1.099 1.071l-.14-.143-.075.073.018.104.197-.034zm.259 1.512l-.093.177.359.189-.069-.399-.197.034zm-1.358-.714l.093-.177-.093-.049-.093.049.093.177zm-4.16-4.848l.26-1.514-.394-.068-.26 1.514.394.068zm1.069-.926l-1.36.715.186.354 1.36-.715-.186-.354zm1.546.715l-1.36-.715-.186.354 1.36.715.186-.354zm-.55-1.303l.26 1.514.394-.068-.26-1.514-.394.068zm1.157-1.249l-1.1 1.072.279.286 1.1-1.072-.279-.286zm-1.409.12l1.52.221.058-.396-1.52-.221-.058.396zm-.83-1.487l.68 1.378.359-.177-.68-1.378-.359.177zM24.7 6.266l.68-1.378-.359-.177-.68 1.378.359.177zm-1.671.33l1.52-.221-.058-.396-1.52.221.058.396zm1.211.731l-1.1-1.072-.279.286 1.1 1.072.279-.286zm-4.202 7.291l.26-1.514-.394-.068-.26 1.514.394.068zm1.069-.926l-1.36.715.186.354 1.36-.715-.186-.354zm1.546.715l-1.36-.715-.186.354 1.36.715.186-.354zm-.55-1.303l.26 1.514.394-.068-.26-1.514-.394.068zm1.157-1.249l-1.1 1.072.279.286 1.1-1.072-.279-.286zm-1.409.12l1.52.221.058-.396-1.52-.221-.058.396zm-.83-1.487l.68 1.377.359-.177-.68-1.377-.359.177zm-.321 1.377l.68-1.377-.359-.177-.68 1.377.359.177zm-1.671.33l1.52-.221-.058-.396-1.52.221.058.396zm1.211.731l-1.1-1.072-.279.286 1.1 1.072.279-.286zm3.047 8.533l.337-1.964-.394-.068-.337 1.963.394.068zm1.473-1.138l-1.763.927.186.354 1.763-.927-.186-.354zm1.949.927l-1.763-.927-.186.354 1.763.927.186-.354zm-.627-1.753l.337 1.964.394-.068-.337-1.963-.394.068zm1.484-1.568L26.14 19.32l.279.286 1.427-1.39-.279-.287zm-1.861.055l1.972.287.057-.396-1.971-.286-.058.396zm-1.032-1.896l.882 1.787.359-.177-.882-1.787-.359.177zm-.523 1.787l.882-1.787-.359-.177-.882 1.787.359.177zm-2.122.396L24 17.984l-.058-.396-1.971.286.058.396zm1.537 1.049L22.14 17.93l-.279.287 1.427 1.39.279-.286zm3.336-6.286l-.259 1.512.394.068.259-1.512-.394-.068zm-1.041-.894l1.099 1.071.279-.287-1.099-1.071-.279.286zm1.629-.562l-1.518.221.058.396 1.518-.221-.058-.396zm.529-1.266l-.679 1.376.359.177.679-1.376-.359-.177zm1.038 1.376l-.679-1.376-.359.177.679 1.376.359-.177zm1.368.111l-1.518-.221-.058.396 1.518.221.058-.396zm-.988 1.412l1.099-1.071-.279-.286-1.099 1.071.279.287zm.317 1.335l-.259-1.512-.394.068.259 1.512.394-.068zm-1.648-.503l1.358.714.186-.354-1.358-.714-.186.354zm-1.172.714l1.358-.714-.186-.354-1.358.714.186.354z" fill="#f7fcff"/></g><defs><clipPath id="A"><path fill="#fff" d="M0 0h32v24H0z"/></clipPath><clipPath id="B"><path fill="#fff" d="M0 0h18v14H0z"/></clipPath></defs></svg>
