<svg xmlns="http://www.w3.org/2000/svg" viewBox="0 0 32 24" fill="none"><style><![CDATA[.B{fill-rule:evenodd}]]></style><g clip-path="url(#B)"><path fill="#fff" d="M0 0h32v24H0z"/><path d="M0 0V24H32V0H0Z" fill="#f50101" class="B"/><mask id="A" maskUnits="userSpaceOnUse" x="0" y="0" width="32" height="24"><path d="M0 0V24H32V0H0Z" fill="#fff" class="B"/></mask><g mask="url(#A)"><path d="M0 0V8H32V0H0Z" fill="#f7fcff" class="B"/><path d="M0 16v8h32v-8H0z" fill="#5eaa22" class="B"/><path fill="#f50101" d="M0 0h12v24H0z"/><path d="M10.77 2.033c.009-.091-.107-.126-.154-.047-.363.616-1.272 2.083-2.77 4.001v-.918c-.143-.155-.598-.573-.598-.573v-.916l.824-.745L6.941 2l-1.192.834.901.745v.916c0 .439-.546.573-.546.573l-.1.808C4.611 4.068 3.742 2.658 3.375 2.027c-.047-.081-.167-.043-.153.05a13.45 13.45 0 0 0 1.36 4.119h-.246v-.033c0-.048-.039-.087-.087-.087H2.14c-.048 0-.087.039-.087.087V7.49c0 .048.039.087.087.087h2.109c.048 0 .087-.039.087-.087v-.696h.266a.6.6 0 0 0 .539.358l.551.778c-.457-.045-3.479-.302-3.479.797 0 .656.735 1.003 1.657 1.183l-2.207 1.995c-.065.059-.014.161.071.14.72-.178 2.606-.729 4.402-1.954h.056c.506 0 .858-.219 1.102-.516 1.827 1.491 3.893 2.18 4.79 2.426.093.026.143-.095.064-.15A27.17 27.17 0 0 1 8.096 8.36l.044-.052c.343-.404.641-.82.902-1.238.109-.064.196-.161.246-.277h.266v.696c0 .048.039.087.087.087h2.109c.048 0 .087-.039.087-.087V6.164c0-.048-.039-.087-.087-.087H9.64c-.022 0-.043.008-.058.022.862-1.745 1.116-3.365 1.188-4.066zM9.553 6.196v-.033-.007l-.02.04h.02zm-3.913.364c0 .267-.219.484-.489.484s-.489-.217-.489-.484.219-.484.489-.484.489.217.489.484zm2.609 0c0 .267.219.484.489.484s.489-.217.489-.484-.219-.484-.489-.484-.489.217-.489.484z" fill="#f7fcff" class="B"/></g></g><defs><clipPath id="B"><path fill="#fff" d="M0 0h32v24H0z"/></clipPath></defs></svg>
