<svg xmlns="http://www.w3.org/2000/svg" viewBox="0 0 32 24" fill="none"><g clip-path="url(#B)"><path fill="#fff" d="M0 0h32v24H0z"/><path fill-rule="evenodd" d="M0 0V24H32V0H0Z" fill="#f7fcff"/><mask id="A" maskUnits="userSpaceOnUse" x="0" y="0" width="32" height="24"><path fill-rule="evenodd" d="M0 0V24H32V0H0Z" fill="#fff"/></mask><g mask="url(#A)"><path fill-rule="evenodd" d="M16 0v12h16V0H16zm7.021 19.15l-2.303 1.425.894-2.392-1.957-1.811h2.374l.992-2.587.757 2.587h2.377l-1.713 1.811.839 2.392-2.26-1.425z" fill="#e31d1c"/><path fill-rule="evenodd" d="M9.021 8.365L6.718 9.79l.894-2.392-1.957-1.811h2.374L9.021 3l.757 2.587h2.377l-1.713 1.811.839 2.392-2.26-1.425zM0 12v12h16V12H0z" fill="#2e42a5"/></g></g><defs><clipPath id="B"><path fill="#fff" d="M0 0h32v24H0z"/></clipPath></defs></svg>
