<svg xmlns="http://www.w3.org/2000/svg" viewBox="0 0 32 24" fill="none"><style><![CDATA[.B{fill-rule:evenodd}.C{fill:#fff}.D{fill:#c9a951}]]></style><g clip-path="url(#D)"><path d="M0 0h32v24H0z" class="C"/><g class="B"><path d="M8 0H25V24H8V0Z" fill="#f7fcff"/><g fill="#f50101"><path d="M24 0h8v24h-8V0zM0 0h8v24H0V0z"/></g></g><g fill="#a2bb6a"><path d="M15.741 8.745l.034.362c-.998.101-1.538-.387-1.538-1.399 0-1.005.528-1.539 1.52-1.545l.002.364c-.804.005-1.174.38-1.174 1.181 0 .794.359 1.118 1.157 1.037zm.442 0l-.034.362c.999.101 1.538-.387 1.538-1.399 0-1.005-.528-1.539-1.52-1.545l-.002.364c.804.005 1.174.38 1.174 1.181 0 .794-.359 1.118-1.157 1.037z"/></g><g class="B"><path d="M15.14 17.123c-.287.103-2.233 0-2.233 0v.542h1.29c.431 0 .593.077.743.148.127.06.243.115.505.115.51 0 .501-.38.493-.696l-.002-.11c0-.134.021-.209.037-.267.024-.085.038-.134-.037-.28-.126-.246-1.329-.213-1.329 0 0 .101.182.205.345.299.182.105.339.195.187.249zm1.749 0c.287.103 2.233 0 2.233 0v.542h-1.29c-.431 0-.593.077-.743.148a1 1 0 0 1-.506.115c-.51 0-.501-.38-.493-.696l.002-.11c0-.134-.021-.209-.037-.267-.024-.085-.038-.134.037-.28.126-.246 1.328-.213 1.328 0 0 .101-.182.205-.345.299-.182.105-.339.195-.187.249z" fill="#e31d1c"/><path d="M16.407 17.175s1.519-.151 1.863-.699l1.117-1.709c.201-.226.214.323.214.323s.332.471.332-.131-.236-.181-.546-1.087-.485-1.794-.397-1.929.294.134.294 0v-.398l.318.398.332-.126s.273.585.442.766.267-.243.218-.64-.659-.398-.659-.398-.78-.421-.78-.597.337-.124.337-.124l-.103-.546s.279.331.412.166-.198-.456-.198-.456h.529v-.256l.244.137-.244-.558s-.717.108-.847 0-.541-.529-.541-.529v-.2h-.236l.236-.401v-.638l.858.171v-.472s1.209.589.991 1.064-.218 1.003-.218 1.003v.421s.036-.129.218-.129.388.094.388.384.369-.119.369-.119v1.21s.087.131.277 0 .107-.029-.463.738-.365.768-.182.581.923-.722.646-.455-.295.826 0 .64.238-.318.238 0-.519 1.4-.701 1.569-.352.274-.57.444-.462.372-.462.494.462-.131.462-.131l-.218.777h.423s-.337 1.031-.998 1.031h-1.293c-.133 0-.733.283-.733.283l-.439.125s.701.067.937.277 0 .357 0 .357-.648-.064-1.132-.211-.73.131-.73-.146v-.277z" fill="#00a854"/><path d="M20.783 8.909c0 .1-.078.182-.174.182s-.174-.081-.174-.182.078-.182.174-.182.174.081.174.182zm-.87.727c0 .1-.078.182-.174.182s-.174-.081-.174-.182.078-.182.174-.182.174.081.174.182zm.87-.182c.096 0 .174-.081.174-.182s-.078-.182-.174-.182-.174.081-.174.182.078.182.174.182zm-.348 2.727c0 .1-.078.182-.174.182s-.174-.081-.174-.182.078-.182.174-.182.174.081.174.182zm-.87 2.364c.096 0 .174-.081.174-.182s-.078-.182-.174-.182-.174.081-.174.182.078.182.174.182zm1.391.364c0 .1-.078.182-.174.182s-.174-.081-.174-.182.078-.182.174-.182.174.081.174.182zm.174-.182c.096 0 .174-.081.174-.182s-.078-.182-.174-.182-.174.081-.174.182.078.182.174.182zm0-2.727c0 .1-.078.182-.174.182s-.174-.081-.174-.182.078-.182.174-.182.174.081.174.182z" fill="#c51918"/><path d="M15.686 16.855s-2.764-.546-2.915-1.603-.149-2.183-.149-2.183l-.256.688s-.013-.936.513-1.604-.657.443-.657.443.599-.944.848-1.034-1.002.592-1.002.592.358-.792.637-1.016-.637.425-.637.425.207-.786.455-.973-.81.973-.81.973.558-1.796.872-1.963-.517.329-.517.329.509-.768.966-1.15-.825.163-.668.163c0 0 .463-.523.73-.671s-1.027.508-1.027.508.928-1.025 1.207-1.176-1.367.814-1.367.814l.138-.766c.041-.319-.762.875-.653 1.948s-.437-.821-.437-.821-.22.411.314 1.488l-.579-.811s.079.736.265 1.133-.526-.661-.526-.661-.136.661 0 .661c0 0 .813 1.086.843 1.402s-.913-1.13-1.039-1.13-.196.465 0 .465.567.666.567.666-.483-.349-.586-.37.081.207.215.37c0 0-.378.308-.349.541s1.029.283 1.465 1.39c0 0-.902-.477-1.116-.477s.346.498.526.662-.278-.164-.402 0 .686.866.839.866-.592 0-.592 0 .198.279.471.279 1.25.439 1.25.581-.824-.182-.977-.182 1.076 1.16 1.729 1.204 1.066.22 1.347.22h.479l-1.33.678s-.134 0 .443 0 1.018.16 1.245-.171.227-.726.227-.726z" fill="#00a854"/></g><mask id="A" maskUnits="userSpaceOnUse" x="11.177" y="6.882" width="9" height="11" fill="#000"><path d="M11.177 6.881h9v11h-9z" class="C"/><path d="M16.087 8.905l.041-.024v.047c.192.106.677.355.992.355.401 0 .945-.402.945-.402l.911 1.287s-.614 1.286-.144 2.858-.025 2.784-2.113 2.918c0 0-.412.078-.592.203v.115c0-.029-.015-.056-.041-.081-.026.026-.041.053-.041.081v-.115c-.18-.125-.592-.203-.592-.203-2.088-.135-2.583-1.346-2.113-2.918s-.144-2.858-.144-2.858l.911-1.287s.545.402.945.402c.315 0 .8-.249.993-.355v-.047l.041.024z" class="B"/></mask><path d="M16.087 8.905l.041-.024v.047c.192.106.677.355.992.355.401 0 .945-.402.945-.402l.911 1.287s-.614 1.286-.144 2.858-.025 2.784-2.113 2.918c0 0-.412.078-.592.203v.115c0-.029-.015-.056-.041-.081-.026.026-.041.053-.041.081v-.115c-.18-.125-.592-.203-.592-.203-2.088-.135-2.583-1.346-2.113-2.918s-.144-2.858-.144-2.858l.911-1.287s.545.402.945.402c.315 0 .8-.249.993-.355v-.047l.041.024z" fill="#e8aa00" class="B"/><path d="M16.128 8.882h1v-1.76l-1.512.901.512.859zm-.041.024l-.493.87.493.279.493-.279-.493-.87zm.041.023h-1v.59l.517.285.483-.876zm1.938-.047l.816-.578-.59-.832-.821.606.594.804zm.911 1.287l.902.431.253-.53-.339-.479-.816.578zm-.144 2.858l-.958.286.958-.286zm-2.113 2.918l-.064-.998-.062.004-.061.012.187.982zm-.592.203l-.569-.823-.431.298v.524h1zm-.041.034l.7-.714-.7-.687-.7.687.7.714zm-.041-.034h1v-.524l-.431-.298-.569.823zm-.592-.203l.187-.982-.061-.012-.062-.004-.064.998zm-2.257-5.776l-.816-.578-.339.479.253.53.902-.431zm.911-1.287l.594-.804-.821-.606-.59.832.816.578zm1.938.047l.483.876.517-.285v-.59h-1zm0-.047l.512-.859-1.512-.901v1.76h1zm.083 0l-.512-.859-.023.013.986 1.74.041-.023.018-.011c.001-.001.001-.001-.511-.86zm1 .047v-.047h-2v.047h2zm-1.483.876c.114.063.32.172.555.267.203.083.556.212.921.212v-2c.042 0 .046.007-.001-.006a1.44 1.44 0 0 1-.163-.057c-.135-.055-.267-.124-.346-.167l-.966 1.751zm1.476.479c.468 0 .894-.211 1.098-.321l.306-.183.092-.062.028-.02c.015-.011.015-.011-.579-.816l-.594-.805-.047.032-.157.094c-.064.034-.119.06-.162.075-.05.018-.041.006.015.006v2zm.129-.824l.911 1.287 1.632-1.156-.911-1.287-1.632 1.156zm1.727.709l-.903-.43-.017.037-.029.068-.084.223a5.21 5.21 0 0 0-.198.761 5.33 5.33 0 0 0 .13 2.485l1.916-.572a3.33 3.33 0 0 1-.078-1.552 3.21 3.21 0 0 1 .121-.467l.042-.111.008-.019c-.004.008-.004.008-.906-.423zm-1.102 3.144c.198.661.119 1.014.015 1.178-.086.137-.356.399-1.235.456l.129 1.996c1.209-.078 2.231-.488 2.797-1.384.549-.869.482-1.908.21-2.818l-1.916.572zm-1.155 2.632l-.187-.982-.032.006-.067.014-.212.053c-.125.035-.421.121-.662.288l1.137 1.645c-.048.033-.07.038-.038.025a1.14 1.14 0 0 1 .102-.033l.11-.028.031-.007c.004-.001.004-.001-.183-.983zm.408.318v-.115h-2v.115h2zm-1.742.633c-.07-.069-.258-.283-.258-.633h2c0-.407-.219-.676-.341-.795l-1.4 1.428zm0-1.428c-.122.12-.341.389-.341.795h2c0 .35-.188.564-.258.633l-1.4-1.428zm1.659.795v-.115h-2v.115h2zm-1.592-.318l-.187.982.035.008.11.028.102.033c.033.013.01.008-.038-.025l1.137-1.645c-.242-.167-.537-.253-.662-.288l-.212-.053-.067-.014-.021-.004c-.011-.002-.011-.002-.198.98zm-3.071-3.205c-.272.911-.338 1.95.21 2.818.566.896 1.588 1.306 2.797 1.384l.129-1.996c-.879-.057-1.148-.319-1.234-.456-.104-.164-.182-.517.015-1.178l-1.916-.572zm.814-2.572l-.903.43.046.122a3.21 3.21 0 0 1 .121.467 3.33 3.33 0 0 1-.079 1.552l1.916.572a5.33 5.33 0 0 0 .13-2.485 5.22 5.22 0 0 0-.198-.761l-.085-.223-.029-.068-.01-.023c-.007-.015-.007-.015-.91.416zm.095-1.865L12.38 9.59l1.632 1.156.911-1.287-1.632-1.156zm1.761-.02c.055 0 .065.011.014-.006a1.19 1.19 0 0 1-.162-.075l-.156-.094-.042-.029c-.005-.003-.005-.003-.599.801l-.594.805.044.031.092.062.306.183c.204.11.63.321 1.098.321v-2zm.509-.231c-.079.044-.211.112-.346.167a1.44 1.44 0 0 1-.163.057c-.047.013-.043.006-.001.006v2c.365 0 .718-.129.921-.212a5.46 5.46 0 0 0 .555-.267l-.966-1.751zm1.483.876v-.047h-2v.047h2zm-1-.047l-.512.859.02.012.041.023.986-1.74-.021-.012c-.002-.001-.002-.001-.514.858z" fill="#e8aa00" mask="url(#A)"/><mask id="B" maskUnits="userSpaceOnUse" x="12" y="7" width="9" height="11"><mask id="C" maskUnits="userSpaceOnUse" x="11.177" y="6.882" width="9" height="11" fill="#000"><path d="M11.177 6.881h9v11h-9z" class="C"/><path d="M16.087 8.905l.041-.024v.047c.192.106.677.355.992.355.401 0 .945-.402.945-.402l.911 1.287s-.614 1.286-.144 2.858-.025 2.784-2.113 2.918c0 0-.412.078-.592.203v.115c0-.029-.015-.056-.041-.081-.026.026-.041.053-.041.081v-.115c-.18-.125-.592-.203-.592-.203-2.088-.135-2.583-1.346-2.113-2.918s-.144-2.858-.144-2.858l.911-1.287s.545.402.945.402c.315 0 .8-.249.993-.355v-.047l.041.024z" class="B"/></mask><path d="M16.087 8.905l.041-.024v.047c.192.106.677.355.992.355.401 0 .945-.402.945-.402l.911 1.287s-.614 1.286-.144 2.858-.025 2.784-2.113 2.918c0 0-.412.078-.592.203v.115c0-.029-.015-.056-.041-.081-.026.026-.041.053-.041.081v-.115c-.18-.125-.592-.203-.592-.203-2.088-.135-2.583-1.346-2.113-2.918s-.144-2.858-.144-2.858l.911-1.287s.545.402.945.402c.315 0 .8-.249.993-.355v-.047l.041.024z" class="B C"/><path d="M16.128 8.882h1v-1.76l-1.512.901.512.859zm-.041.024l-.493.87.493.279.493-.279-.493-.87zm.041.023h-1v.59l.517.285.483-.876zm1.938-.047l.816-.578-.59-.832-.821.606.594.804zm.911 1.287l.902.431.253-.53-.339-.479-.816.578zm-.144 2.858l-.958.286.958-.286zm-2.113 2.918l-.064-.998-.062.004-.061.012.187.982zm-.592.203l-.569-.823-.431.298v.524h1zm-.041.034l.7-.714-.7-.687-.7.687.7.714zm-.041-.034h1v-.524l-.431-.298-.569.823zm-.592-.203l.187-.982-.061-.012-.062-.004-.064.998zm-2.257-5.776l-.816-.578-.339.479.253.53.902-.431zm.911-1.287l.594-.804-.821-.606-.59.832.816.578zm1.938.047l.483.876.517-.285v-.59h-1zm0-.047l.512-.859-1.512-.901v1.76h1zm.083 0l-.512-.859-.023.013.986 1.74.041-.023.018-.011c.001-.001.001-.001-.511-.86zm1 .047v-.047h-2v.047h2zm-1.483.876c.114.063.32.172.555.267.203.083.556.212.921.212v-2c.042 0 .046.007-.001-.006a1.44 1.44 0 0 1-.163-.057c-.135-.055-.267-.124-.346-.167l-.966 1.751zm1.476.479c.468 0 .894-.211 1.098-.321l.306-.183.092-.062.028-.02c.015-.011.015-.011-.579-.816l-.594-.805-.047.032-.157.094c-.064.034-.119.06-.162.075-.05.018-.041.006.015.006v2zm.129-.824l.911 1.287 1.632-1.156-.911-1.287-1.632 1.156zm1.727.709l-.903-.43-.017.037-.029.068-.084.223a5.21 5.21 0 0 0-.198.761 5.33 5.33 0 0 0 .13 2.485l1.916-.572a3.33 3.33 0 0 1-.078-1.552 3.21 3.21 0 0 1 .121-.467l.042-.111.008-.019c-.004.008-.004.008-.906-.423zm-1.102 3.144c.198.661.119 1.014.015 1.178-.086.137-.356.399-1.235.456l.129 1.996c1.209-.078 2.231-.488 2.797-1.384.549-.869.482-1.908.21-2.818l-1.916.572zm-1.155 2.632l-.187-.982-.032.006-.067.014-.212.053c-.125.035-.421.121-.662.288l1.137 1.645c-.048.033-.07.038-.038.025a1.14 1.14 0 0 1 .102-.033l.11-.028.031-.007c.004-.001.004-.001-.183-.983zm.408.318v-.115h-2v.115h2zm-1.742.633c-.07-.069-.258-.283-.258-.633h2c0-.407-.219-.676-.341-.795l-1.4 1.428zm0-1.428c-.122.12-.341.389-.341.795h2c0 .35-.188.564-.258.633l-1.4-1.428zm1.659.795v-.115h-2v.115h2zm-1.592-.318l-.187.982.035.008.11.028.102.033c.033.013.01.008-.038-.025l1.137-1.645c-.242-.167-.537-.253-.662-.288l-.212-.053-.067-.014-.021-.004c-.011-.002-.011-.002-.198.98zm-3.071-3.205c-.272.911-.338 1.95.21 2.818.566.896 1.588 1.306 2.797 1.384l.129-1.996c-.879-.057-1.148-.319-1.234-.456-.104-.164-.182-.517.015-1.178l-1.916-.572zm.814-2.572l-.903.43.046.122a3.21 3.21 0 0 1 .121.467 3.33 3.33 0 0 1-.079 1.552l1.916.572a5.33 5.33 0 0 0 .13-2.485 5.22 5.22 0 0 0-.198-.761l-.085-.223-.029-.068-.01-.023c-.007-.015-.007-.015-.91.416zm.095-1.865L12.38 9.59l1.632 1.156.911-1.287-1.632-1.156zm1.761-.02c.055 0 .065.011.014-.006a1.19 1.19 0 0 1-.162-.075l-.156-.094-.042-.029c-.005-.003-.005-.003-.599.801l-.594.805.044.031.092.062.306.183c.204.11.63.321 1.098.321v-2zm.509-.231c-.079.044-.211.112-.346.167a1.44 1.44 0 0 1-.163.057c-.047.013-.043.006-.001.006v2c.365 0 .718-.129.921-.212a5.46 5.46 0 0 0 .555-.267l-.966-1.751zm1.483.876v-.047h-2v.047h2zm-1-.047l-.512.859.02.012.041.023.986-1.74-.021-.012c-.002-.001-.002-.001-.514.858z" mask="url(#C)" class="C"/></mask><g mask="url(#B)"><path fill="#67baff" d="M13.304 8.727h2.783v3.818h-2.783z"/><path d="M16.087 8.727h2.783v3.818h-2.783z" class="C"/><path fill="#c51918" d="M12.957 12.909h6.957v4.364h-6.957z"/><path d="M17.435 12.275h-.348V9.66h.348v2.615z" class="D"/><use href="#E" class="D"/><path d="M17.294 10.358l-.17.304-.6-.335.169-.304.6.335z" class="D"/><use href="#F" class="D"/><path d="M17.22 10.358l.17.304.6-.335-.169-.304-.6.335z" class="D"/><path d="M17.729 13.705s.242-.277.242-.138 0 .371-.121.371-.685-.111-.899-.371-.669-.713-1.254-.607-1.278.865-1.449.865-.546.584-.273 1.04.737.315.737.447.116.148.551.148.593.153.97.153-.124-.006.482-.153 1.065-.595.712-.595h-.712c-.245 0-.789.176-.789 0s.121-.554.455-.365 1.262.333 1.591 0 .444-.533.386-.934-.507-.285-.507-.285l-.121.424z" fill="#fbcd17" class="B"/><path d="M15.376 9.57c-.21.183-.074.854-.418.854s-.827-.502-.949-.171 0 .22 0 .502-.292 1.066-.146 1.198.295.482.269.318-.136-.403-.09-.664c-.044-.269.246-.528.246-.528l-.054.384s-.096.21-.057.35c0 0 .098.394.139.421l.056-1.086c.03-.154.243.173.314.136 0 0 .024.638-.013.714 0 0-.075.151-.047.199 0 0 .069.175.129.124 0 0 .002-.004.032-.174 0 0-.035-.103.02-.336 0 0 .057-.514.081-.403 0 0-.011.243.017.368l.053.345s.21.299.216.173c0 0-.201-.24-.158-.423 0 0-.115-.517.046-.632 0 0 .427-.197.452-.535l.073-.561s-.093-.052.1-.143c0 0 .311-.12.117-.286" fill="#d18219" class="B"/></g></g><defs><clipPath id="D"><path d="M0 0h32v24H0z" class="C"/></clipPath><path id="E" d="M17.294 11.086l-.17.304-.6-.335.169-.304.6.335z"/><path id="F" d="M17.22 11.086l.17.304.6-.335-.169-.304-.6.335z"/></defs></svg>
