<svg xmlns="http://www.w3.org/2000/svg" viewBox="0 0 32 24" fill="none"><style><![CDATA[.B{fill-rule:evenodd}.C{stroke:#000}.D{fill:#5277b9}]]></style><g clip-path="url(#C)"><path fill="#fff" d="M0 0h32v24H0z"/><path d="M0 0V24H32V0H0Z" fill="#f7fcff" class="B"/><mask id="A" maskUnits="userSpaceOnUse" x="0" y="0" width="32" height="24"><path d="M0 0V24H32V0H0Z" fill="#fff" class="B"/></mask><g mask="url(#A)"><path d="M0 0v6h32V0H0zm0 18v6h32v-6H0z" fill="#bf2714" class="B"/><mask id="B" maskUnits="userSpaceOnUse" x="10" y="6" width="12" height="12"><path d="M16 18a6 6 0 1 0 0-12 6 6 0 1 0 0 12z" fill="#fff" class="B"/></mask><g mask="url(#B)"><path d="M10.549 13.765c-.055-.171.13-.32.286-.23l.374.217c.056.032.124.035.182.008l.922-.432c.065-.03.141-.023.198.019l.997.719 1.377-.742a.2.2 0 0 1 .172-.007l1.037.451c.053.023.112.022.164-.003l.931-.448c.05-.024.107-.026.158-.005l1.151.46c.052.021.11.018.16-.006l.892-.441c.056-.028.123-.027.179.002l.818.428c.059.031.13.03.188-.003l.425-.241c.152-.086.332.053.287.222l-.089.335H10.645l-.096-.301zm-.004 1.186c-.053-.172.135-.319.289-.226l.34.204c.057.034.127.037.187.008l.877-.426c.066-.032.145-.025.204.019l.956.715 1.324-.739a.2.2 0 0 1 .177-.008l.99.446a.2.2 0 0 0 .169-.003l.888-.443c.051-.025.11-.027.163-.006l1.1.456c.053.022.114.02.165-.007l.85-.436c.058-.03.127-.029.184.002l.778.422c.061.033.134.032.193-.003l.39-.229c.151-.089.334.049.29.219l-.084.329H10.636l-.091-.295z" class="B D"/><path d="M10.742 15.738c-.053-.173.135-.32.289-.226l.34.204c.057.034.127.037.187.008l.877-.426c.066-.032.145-.025.204.02l.956.715 1.324-.739c.054-.03.12-.033.177-.008l.99.446c.054.024.116.023.169-.003l.888-.443c.051-.025.11-.027.163-.006l1.1.455c.053.022.114.02.165-.007l.85-.436c.058-.03.127-.029.184.002l.778.422c.061.033.134.032.194-.003l.39-.229c.151-.089.334.049.29.218l-.084.329H10.833l-.091-.295z" class="B D"/><path d="M11.922 16.524c-.053-.172.135-.32.289-.227l.34.205c.057.034.128.037.187.008l.877-.426c.066-.032.145-.025.204.019l.956.715 1.324-.739c.054-.03.12-.033.177-.008l.99.446c.054.024.116.023.169-.003l.888-.443c.051-.025.111-.027.163-.006l1.1.456c.053.022.114.02.165-.007l.85-.436c.058-.03.127-.029.184.002l.778.422c.061.033.134.032.194-.003l.39-.229c.151-.089.334.049.29.219l-.084.329H12.013l-.091-.295z" class="B D"/><path d="M10.348 17.508c-.053-.172.135-.319.289-.226l.34.204c.057.034.127.037.187.008l.877-.426c.066-.032.145-.025.204.02l.956.715 1.324-.739c.054-.03.12-.033.177-.008l.99.446c.054.024.116.023.169-.003l.888-.443c.051-.025.11-.027.163-.006l1.1.456c.053.022.114.02.165-.007l.85-.436c.058-.03.127-.029.184.002l.778.422c.061.033.134.032.193-.003l.39-.229c.151-.089.334.049.29.218l-.084.329H10.439l-.091-.295z" class="B D"/><path d="M14.423 14.138v1c-.844 0-1.442-.518-1.732-1.439l-.023-.15V9.446h1v4.022c.167.48.401.67.755.67zm2.769 0v1c.844 0 1.442-.518 1.732-1.439l.023-.15V9.446h-1v4.022c-.167.48-.401.67-.755.67z" fill="red"/><path d="M16.725 6.909s-1.659-.434-1.659.666v3.462l1.934.574v-2.83s-.967-.591-.967-1.053.692-.82.692-.82z" fill="red" class="B"/><use href="#D" class="C"/><use href="#E" class="C"/><path d="M14.839 12.891l.631-.806" class="C"/><path d="M15.414 12.864l-.604-.811m.894.838l.631-.806" class="C"/><path d="M16.279 12.864l-.604-.811m.934.838l.631-.806" class="C"/><path d="M17.184 12.864l-.604-.811m.934.838l.631-.806" class="C"/><path d="M18.089 12.864l-.604-.811" class="C"/><path d="M13.454 7.095l1.197 2.338.147-2.338-.147-.461-1.197.461zm-.6 1.995l-.862-.914.862-1.028 1.813 2.897v.736l-.871-.736V9.09h-.941zm-1.898.704l1.573.753.123-1.163-1.309-1.119-.386 1.529zm1.652 1.931l-2.069-.212v-1.459l2.069.796v.875zm-2.125 1.433l-.245-1.241 2.332.116v1.124h-2.086zm3.284-2.039v-.7l.872.7-.095.37-.777-.37zm8.113.798l-.245 1.241h-2.087v-1.124l2.332-.116zm-2.37-.193l2.069-.212v-1.459l-2.069.796v.875zm1.652-1.931l-1.573.753-.123-1.163 1.31-1.119.386 1.529zm-1.898-.704l.862-.914-.862-1.028-1.812 2.897v.736l.872-.736V9.09h.941zm-.6-1.995l-1.197 2.338-.147-2.338.147-.461 1.197.461zm-.313 4.025v-.7l-.872.7.095.37.777-.37z" fill="#fa8f21" class="B"/></g></g></g><defs><clipPath id="C"><path fill="#fff" d="M0 0h32v24H0z"/></clipPath><path id="D" d="M13.934 12.891l.631-.806"/><path id="E" d="M14.509 12.864l-.604-.811"/></defs></svg>
