<svg xmlns="http://www.w3.org/2000/svg" viewBox="0 0 32 24" fill="none"><g clip-path="url(#A)"><path fill="#fff" d="M0 0h32v24H0z"/><rect width="32" height="24" rx="2" fill="#e11c1b"/><g fill-rule="evenodd"><path d="M0 0L32 24H0V0Z" fill="#1d1d1d"/><g fill="#eeeef6"><use href="#B"/><path d="M3.083 14.269h1.332l.633-1.493.744 1.483 1.365.075-1.166 1.269.599 1.529-1.482-.851-1.369.859.516-1.485-1.172-1.386zm4-2h1.332l.633-1.493.744 1.483 1.365.075-1.166 1.269.599 1.529-1.482-.851-1.369.859.516-1.485-1.172-1.386zm2.628 4.295l.916-.03.33-.944.371.939.842.081-.758.536.612.95-1.061-.397-.92.41.486-.936-.817-.608zm2-2l.915-.03.33-.944.371.939.842.081-.758.536.612.95-1.061-.397-.92.41.486-.936-.817-.608z"/></g><path d="M21.084 2s-3.089.616-2.222 4.91h-.441s.036-.224-.388-.355-.339-.082-.557 0-1.549 0-1.549 0v.164l.941.407s-.023.338.37.526a5.87 5.87 0 0 0 .679.278s.058.374-.31.374-1.852-.481-2.379.7S14 11.051 14 11.051h.791l-.212.264h.891l-.241.137s1.102-.012 1.188-.137 0 .337 0 .337 1.067-.487 1.126-.601l.498.342.142-.578.535.237.145-.551s1.512 2.529 2.659 2.384v-.42l1.047.42.133-.187s1.264.516 1.653.563l-.278-.563h.278l-.278-1.045h.278l-.555-.838.155-.227-.103-.298s2.036.648 1.944 1.68-.998 1.448-.998 1.448-.869.266-1.655.209c0 0 .623.736 1.942.487s1.756-1.528 1.756-1.528.605 1.256.107 1.916-2.714 1.124-2.714 1.124.802.47 1.562.35 1.943-.782 2.172-1.862-.791-3.072-1.253-3.299l-.183-.691.415.166-.852-2.084.413.091-1.206-1.5.332-.102-1.666-1.198.499-.132s-1.232-.624-2.636.132l.013-.261-.369.062.022-.287.367-.556-.551-.212s.445-.669.378-.66c0 0-.496.142-.468.083 0 0 .25-.645.184-.627 0 0-.576.196-.49.098l.221-.394L21.084 2z" fill="#fbcd17"/></g></g><defs><clipPath id="A"><path fill="#fff" d="M0 0h32v24H0z"/></clipPath><path id="B" d="M7.083 18.269h1.332l.633-1.493.744 1.483 1.365.075-1.166 1.269.599 1.529-1.482-.851-1.369.859.516-1.485-1.172-1.386z"/></defs></svg>
