<svg xmlns="http://www.w3.org/2000/svg" viewBox="0 0 32 24" fill="none"><style><![CDATA[.B{fill-rule:evenodd}]]></style><g clip-path="url(#C)"><path fill="#fff" d="M0 0h32v24H0z"/><path d="M0 0V24H32V0H0Z" fill="#bf2714" class="B"/><mask id="A" maskUnits="userSpaceOnUse" x="0" y="0" width="32" height="24"><path d="M0 0V24H32V0H0Z" fill="#fff" class="B"/></mask><g mask="url(#A)" class="B"><path d="M0-2v14h32V-2H0z" fill="#3d58db"/></g><path d="M0 0V24L18 12L0 0Z" fill="#f7fcff" class="B"/><mask id="B" maskUnits="userSpaceOnUse" x="0" y="0" width="18" height="24"><path d="M0 0V24L18 12L0 0Z" fill="#fff" class="B"/></mask><g mask="url(#B)" class="B"><path d="M13.605 10.92l1.276.492.759-.893.02 1.195 1.174.382-1.236.42.082 1.098-.814-.841-1.28.243.755-.969-.737-1.127zm-12 6l1.173.518.862-.92-.083 1.221 1.277.355-1.339.446.185 1.071-.932-.766-1.161.168.652-.942-.634-1.153zm0-12l1.298.478.737-.88.042 1.181 1.152.396-1.214.406.06 1.112-.807-.806-1.286.208.777-.982-.758-1.113zm6.516 9.613a2.5 2.5 0 1 0 0-5 2.5 2.5 0 0 0 0 5z" fill="#feca00"/><path d="M7.826 8.24l.134 1.606c.013.098.088.175.185.191.122.02.237-.062.258-.184l.177-1.601a.38.38 0 0 0-.369-.444.38.38 0 0 0-.385.431zm-.418.776l.208.699c.019.065.084.105.157.092.06-.014.097-.074.083-.134l-.166-.701c-.019-.081-.097-.133-.179-.12-.085.024-.124.096-.103.164zm1.123.728c-.016.06.019.121.085.139s.132-.024.154-.088l.232-.691c.023-.068-.014-.141-.081-.164-.097-.02-.177.029-.199.109l-.19.695zm2.077-.702L9.49 10.276c-.06.078-.062.186-.005.266.072.101.211.124.312.052l1.334-1.01a.38.38 0 0 0 .053-.575c-.013-.014-.027-.026-.042-.038a.38.38 0 0 0-.535.07zm-.34 2.62l1.669-.129a.38.38 0 0 1 .428.328c.002.019.004.038.003.056a.38.38 0 0 1-.388.375c-.019 0-.038-.002-.056-.005l-1.664-.183c-.122-.02-.204-.136-.184-.258.016-.097.094-.172.191-.185zm.866 2.658l-1.296-1.128c-.078-.06-.186-.062-.266-.005-.101.072-.124.211-.052.312l1.072 1.345c.011.015.023.03.036.043a.38.38 0 0 0 .539.009c.014-.013.026-.027.038-.042a.38.38 0 0 0-.07-.535zm-2.682-.351l.099 1.685a.38.38 0 0 1-.328.428c-.019.002-.038.003-.056.003a.38.38 0 0 1-.375-.388c0-.019.002-.038.005-.056l.213-1.68c.02-.122.136-.204.258-.184.097.016.172.094.185.191zm-2.631.91l1.101-1.34c.06-.078.062-.186.005-.266-.072-.101-.211-.124-.312-.052l-1.318 1.116c-.015.011-.03.023-.043.036a.38.38 0 0 0-.009.539.39.39 0 0 0 .042.038.38.38 0 0 0 .535-.07zm.324-2.726l-1.679.138a.38.38 0 0 1-.431-.385.38.38 0 0 1 .388-.375c.019 0 .038.002.056.005l1.674.173c.122.02.204.136.184.258-.016.097-.094.172-.191.185zM5.15 9.522l1.424 1.101c.078.06.186.062.266.005.101-.072.124-.211.052-.312l-1.2-1.318a.38.38 0 0 0-.575-.053.38.38 0 0 0 .033.577zm4.189.417l.347-.641c.034-.063.112-.086.175-.052.081.057.1.149.056.22l-.379.613c-.032.053-.101.069-.154.036-.061-.043-.078-.117-.046-.176zm1.759 1.17l-.699.208c-.065.019-.105.084-.092.157.014.06.074.097.134.083l.701-.166c.081-.019.133-.097.12-.179-.024-.085-.096-.124-.165-.103zm-.923 1.931l.641.347c.063.034.086.113.052.175-.057.081-.149.1-.22.056l-.613-.379c-.052-.033-.069-.101-.036-.154.043-.061.117-.078.176-.046zm-1.17 1.759l-.208-.699c-.019-.065-.084-.105-.157-.092-.06.014-.097.074-.083.134l.166.701c.019.081.097.133.179.12.085-.024.124-.096.103-.165zm-1.931-.923l-.347.641c-.034.063-.112.086-.175.052-.081-.057-.1-.149-.056-.22l.379-.613c.032-.053.101-.069.154-.036.061.043.078.117.046.176zm-1.759-1.17l.699-.208c.065-.019.105-.084.092-.157-.014-.06-.074-.097-.134-.083l-.701.166c-.081.019-.133.097-.12.179.024.085.096.124.164.103zm.923-1.931l-.641-.347a.13.13 0 0 1-.052-.175c.057-.081.149-.1.22-.056l.613.379c.052.032.069.101.036.154-.043.061-.117.078-.176.046zm3.728-.168c-.054.031-.072.099-.038.158s.111.077.171.046l.653-.325a.13.13 0 0 0 .058-.173c-.054-.083-.146-.105-.218-.064l-.626.357zm.266 1.71c.018-.066.079-.101.139-.085l.695.19c.08.022.129.102.113.183-.027.084-.1.12-.168.097l-.691-.232c-.064-.022-.102-.088-.088-.154zm-.724 1.35c-.031-.054-.099-.072-.158-.038s-.077.111-.046.171l.325.653c.032.064.109.09.173.058.083-.054.105-.146.064-.218l-.357-.626zm-1.71.265c.066.018.101.079.085.139l-.19.695c-.022.08-.102.129-.183.113-.084-.027-.12-.1-.097-.168l.232-.691c.022-.064.088-.102.154-.088zm-1.35-.724c.054-.031.072-.099.038-.158s-.111-.077-.171-.046l-.653.325c-.064.032-.09.109-.058.173.054.083.146.105.218.064l.626-.357zm-.265-1.71c-.018.066-.079.101-.139.085l-.695-.19c-.08-.022-.129-.102-.113-.183.027-.084.1-.12.168-.097l.691.232c.064.022.102.088.088.154zm.724-1.35c.031.054.099.072.158.038s.077-.111.046-.171l-.325-.653c-.032-.064-.109-.09-.173-.058-.083.054-.105.146-.064.218l.357.626z" fill="#feca00"/></g></g><defs><clipPath id="C"><path fill="#fff" d="M0 0h32v24H0z"/></clipPath></defs></svg>
