<svg xmlns="http://www.w3.org/2000/svg" viewBox="0 0 32 24" fill="none"><g clip-path="url(#A)"><path fill="#fff" d="M0 0h32v24H0z"/><g fill-rule="evenodd"><path d="M8 0H32V24H8V0Z" fill="#2f8d00"/><path d="M0 0H8V24H0V0Z" fill="#f7fcff"/><path d="M22.429 15.306s-4.466 1.164-8.01-1.211-1.763-7.848-1.763-7.848c-1.849.269-4.753 7.015-.072 10.398s9.164.131 9.845-1.34zm-4.956-6.44l-2.372 1.16 2.502.446.338 2.445 1.417-2.083 2.789.188-2.184-1.629 1.163-2.176-2.174.996-1.615-1.519.137 2.172z" fill="#f1f9ff"/></g></g><defs><clipPath id="A"><path fill="#fff" d="M0 0h32v24H0z"/></clipPath></defs></svg>
