<svg xmlns="http://www.w3.org/2000/svg" viewBox="0 0 32 24" fill="none"><style><![CDATA[.B{fill-rule:evenodd}.C{fill:#ffd018}.D{fill:#5eaa22}.E{fill:#f7fcff}]]></style><g clip-path="url(#B)"><path fill="#fff" d="M0 0h32v24H0z"/><path d="M0 0V24H32V0H0Z" fill="#2e42a5" class="B"/><g clip-path="url(#C)"><path fill="#2e42a5" d="M0 0h18v14H0z"/><path d="M-2.004 13l3.961 1.737L18.09 1.889l2.089-2.582-4.236-.581-6.58 5.537-5.296 3.73L-2.004 13z" class="E"/><path d="M-1.462 14.217l2.018 1.008L19.429-.933h-2.833l-18.058 15.15z" fill="#f50100"/><path d="M20.004 13l-3.961 1.737L-.09 1.889-2.179-.693l4.236-.581 6.58 5.537 5.296 3.73L20.004 13z" class="E"/><g fill="#f50100"><path d="M19.869 13.873l-2.018 1.008-8.036-6.918-2.383-.773L-2.38-.684H.453l9.807 7.688 2.605.927 7.004 5.943z"/><g class="B"><path d="M9.985 0h-2v6H0v2h7.985v6h2V8H18V6H9.985V0z"/></g></g><path d="M6.485 0h5v4.5H18v5h-6.515L11.5 14h-5l-.015-4.5H0v-5h6.485V0zm1.5 6H0v2h7.985v6h2V8H18V6H9.985V0h-2v6z" class="B E"/></g><g class="B"><g class="D"><path d="M20.616 10.757s.099 1.095-.118 1.715-.326.98-.326.584-.152-.711-.274-.711-.026.393-.149.393-.546.068-.546-.163-.056.618.219.694-.133.311-.316.238c0 0 .749.244 1.043.451 0 0 .881 1.1 1.705.966 0 0-1.122-.387-.924-1.127s.924-.847.924-.847.341.114.331.413.249-.094.249-.094.042-.377-.004-.47.781-.27.833-.659c0 0-.845.039-.903-.061s.262-.256.162-.451-1.592 1.11-1.592 1.11.515-.888.515-1.365-.131-.803-.515-.803-.314.186-.314.186zm7.768.26c.058-.053.4-.368.687-.119.313.272-.158.537-.158.537s.22.213.472.213.314-.213.314-.213.019.475.841.655c0 0 .293-.421 0-.651 0 0 .346-.072.321-.352 0 0-.285.097-.488-.126s-.598-.325-.886-.274c-.73-.263-1.058.252-1.103.33z"/></g><path d="M23.404 13.415s.849 1.597.318 1.928 2.524.096 2.812 0-.058-.599-.377-.739-1.631-.605-1.98-.956-.136-.475.145-.822 1.322-.485 1.322-.809.66-1.659 1.122-1.759.212-.259.106-.259-.744.658-.986.539-.271-.11 0-.397.476-.617.117-.379-.95.613-1.235.613-1.296-.128-1.171.163.179.797.725 1.138.309.591-.145.921-.772.818-.772.818z" fill="#96877d"/></g><g class="C"><path d="M29.039 11.303l-1.618 3.245s-.047.917 1.11.306 1.111-1.044 1.445-1.044.439-.185.439-.185l-.222-.175s-.026-.319.115-.39c0 0-.276-.152-.316-.025s-.234-.266-.124-.266c0 0-.243.394-.295.548 0 0-.352-.143-.335-.807s-.199-1.207-.199-1.207zm-7.703-.514s-.824.192-.735.391.22-.005-.184.235c0 0-.709.548-.863.489s.109.138.109-.489-.412-.117 0-.535.556-.092.754-.332.02-.113.557-.113.362.353.362.353zm2.515 3.225s-2.307 1.813-2.768 1.948.948-.037 1.293-.277 1.475-1.672 1.475-1.672z"/></g><path d="M28.425 17.195s.221 1.428-.357 1.288l-.818-.213s.212.665.515.665c0 0 .516 1.006.318 1.324 0 0 .889-.721.745-1.295s.23.094.23.094.327.158.564-.018-.003-.098-.24-.434-.178-1.279-.898-1.768-.887-.473-.887-.473-.53-.866-.212-.809c0 0 2.275.78 2.334.98s.662.163.361-.408-1.928-.916-2.122-1.077-.013-.773-.361-.906-1.297-1.078-1.297-1.534-.446-.67-.835-.67-1.12-.112-1.429-.112-.597.517-.299.517.044.968-.456 1.179-.887.516-1.457.516.808.492 1.028.298.148-.484.886-.813 1.443-.524 1.353-.262.138.701.486.542.459-.56.459-.28.533 1.717.941 2.278 1.447 1.392 1.447 1.392z" class="B D"/><g class="C"><path d="M23.571 11.946s-.271.431 0 .431.706 0 .441-.216-.441-.216-.441-.216zm.904-.011s.001.287.189.287.354.287.354 0 .261-.191-.141-.287-.402 0-.402 0zm1.155.066s-.181.136-.09.379.295.723 0 .723-.537.173-.307.173.64.173.64 0 .167.285.167 0v-.59c0-.167.167-.216 0-.451S25.631 12 25.631 12zm.417 1.671s.377 1.186.581 1.338.297 1.44.387 1.58 1.315.846 1.315 1.226.377-.291.189-.667-.782-1.175-1.209-1.349-.373-.596-.463-.893.531.24 0-.433-.517-.312-.368-.312.299-.079.15-.184-.581-.306-.581-.306zm-3.993 2.444s-1.223 2.161-1.442 2.272-.381.134-.493 0-.123.36 0 .496.493.135.698-.105c0 0 .032.608.352 1.066s.453.332.453.591.076.602.173.602.173.816 0 .816.401.067.651-.137.357-.359.304-.359-.696-.338-.696-.578-.432-.427-.432-.782-.224-.777-.224-.946.192.065.398-.094.259-.57.259-.57-.324.217-.432.109-.449-.323-.224-.691.656-1.69.656-1.69z"/></g><path d="M24.174 9.302s-.438.195-.292.484.198.418.292.354.75-.185.603-.512-.455-.326-.455-.326h-.148z" class="B D"/><path d="M25.694 9.146s-.579-.256-.386 0 .44.391.617.391.546-.053.362-.156-.593-.235-.593-.235z" class="C"/><g class="B D"><path d="M19.981 15.801c.003-.016-.016-.026-.027-.016-.121.115-.482.498-.328.831.183.398.366.536.366.536s.111.609.342.774c0 0 .309-.016.325-.49 0 0 .525-.154.68.174 0 0-.102.037-.102.316s.238.581.238.581.109-.961.598-1.581l.629-.742v-.697s-1.012.825-1.227 1.51c0 0-.51.017-.717-.071s.259-.232 0-.544-.14.439-.423.235c-.443-.123-.383-.65-.352-.816z"/><path d="M22.187 15.195h5.185v3.168s-.423 2.588-2.681 3.863c0 0-2.187-1.293-2.504-3.863v-3.168z"/></g><mask id="A" maskUnits="userSpaceOnUse" x="22" y="15" width="6" height="8"><path d="M22.187 15.195h5.185v3.168s-.423 2.588-2.681 3.863c0 0-2.187-1.293-2.504-3.863v-3.168z" fill="#fff" class="B"/></mask><g mask="url(#A)"><path d="M24.652 15.024l-2.265 4.701 3.072-2.79 2.114 3.504v-5.415l-2.114 1.733-.807-1.733z" fill="#58a5ff" class="B"/><path d="M24.58 18.414c0-.093.076-.169.169-.169s.169.076.169.169v3.018c0 .093-.076.169-.169.169s-.169-.076-.169-.169v-3.018z" class="C"/><path d="M23.993 19.158c-.092 0-.166-.074-.166-.166s.074-.166.166-.166h1.527c.092 0 .166.074.166.166s-.074.166-.166.166h-1.527zm.823 2.331l-.131.106c-.193-.234-.369-.347-.524-.347-.229 0-.415-.191-.567-.553l.156-.064c.128.306.268.45.411.45.216 0 .433.139.655.409z" class="C"/><path d="M23.443 20.119l-.003.817.616-.251-.613-.566z" class="B C"/><path d="M24.677 21.489l.131.106c.193-.234.369-.347.524-.347.229 0 .415-.191.566-.553l-.156-.064c-.128.306-.268.45-.41.45-.216 0-.433.139-.655.409z" class="C"/><path d="M26.05 20.119l.003.817-.616-.251.613-.566z" class="B C"/><path fill="#fff" d="M24.408 17.059h.676v1.007h-.676z"/></g></g><defs><clipPath id="B"><path fill="#fff" d="M0 0h32v24H0z"/></clipPath><clipPath id="C"><path fill="#fff" d="M0 0h18v14H0z"/></clipPath></defs></svg>
