<svg xmlns="http://www.w3.org/2000/svg" viewBox="0 0 32 24" fill="none"><style><![CDATA[.B{fill:#f9e813}.C{fill:#060101}.D{fill:#ffe017}.E{fill-rule:evenodd}]]></style><g clip-path="url(#B)"><path fill="#fff" d="M0 0h32v24H0z"/><g class="E"><path d="M8 0H32V24H8V0Z" fill="#ef0000"/><path d="M0 0H12V24H0V0Z" fill="#2f8d00"/></g><mask id="A" maskUnits="userSpaceOnUse" x="4" y="4" width="16" height="16"><path d="M11.905 19.807c-4.26 0-7.714-3.495-7.714-7.807s3.454-7.807 7.714-7.807S19.619 7.688 19.619 12s-3.454 7.807-7.714 7.807z" fill="#fff" class="E"/></mask><g mask="url(#A)" class="D"><path d="M11.429 4h1v2.699h-1V4zm0 13.494h1V20h-1v-2.506z" class="E"/><path d="M4.314 12.404l-.28-.717c3.085-1.232 5.414-2.026 6.994-2.384 2.318-.525 4.865-.914 7.641-1.166l.068.768c-2.744.249-5.259.633-7.543 1.151-1.533.347-3.829 1.131-6.881 2.349z"/><path d="M19.141 7.664l-.227.736c-2.332-.736-4.231-1.053-5.691-.955l-.05-.769c1.568-.105 3.555.226 5.968.988zm.807 4.116l-.431.636c-1.189-.825-2.653-1.24-4.403-1.24v-.771c1.897 0 3.512.457 4.834 1.375z"/><path d="M19.302 12.011l.197.745c-2.563.694-4.969 1.088-7.218 1.181-2.265.093-4.905-.302-7.922-1.183l.211-.741c2.944.859 5.504 1.243 7.68 1.153 2.191-.09 4.541-.475 7.052-1.155z"/><path d="M19.012 15.636l-1.204 1.235c-2.289-2.287-4.304-3.922-6.032-4.904-1.758-.999-4.051-2.014-6.875-3.04l.579-1.633c2.907 1.056 5.285 2.108 7.136 3.16 1.88 1.068 4.009 2.795 6.398 5.182zm-13.554.699l-.456-.618.334-.23a9.03 9.03 0 0 1 .854-.492c.85-.431 1.703-.701 2.517-.725l.119-.002v.771l-.096.001c-.686.021-1.438.259-2.198.644-.283.144-.547.298-.784.452l-.218.147-.072.052z"/><path d="M5.812 16.603l.192-.746c2.54.669 4.498 1.002 5.865 1.002s3.388-.393 6.067-1.182l.213.74c-2.742.808-4.831 1.213-6.28 1.213-1.444 0-3.46-.343-6.057-1.027zm-.99-6.909l1.207-1.232 1.767 1.774-1.207 1.232-1.767-1.774z"/><path d="M14.836 15.848l.898-1.478 2.804 1.745-.898 1.478-2.804-1.744z"/></g><path d="M4.19 12c0 4.312 3.454 7.807 7.714 7.807s7.714-3.495 7.714-7.807-3.454-7.807-7.714-7.807S4.19 7.688 4.19 12zm14.476.096c0 3.726-2.985 6.747-6.667 6.747s-6.667-3.021-6.667-6.747S8.318 5.349 12 5.349s6.667 3.021 6.667 6.747z" class="B E"/><path d="M7.657 7.185v6.261c.412 2.478 1.801 3.717 4.165 3.717s3.753-1.239 4.165-3.717V7.185H7.657z" fill="#fff"/><path d="M7.085 6.607h9.474v6.887l-.008.048c-.458 2.752-2.08 4.199-4.729 4.199s-4.271-1.448-4.729-4.199l-.008-.048V6.607z" fill="#c51918"/><path d="M9.252 8.711h5.14v4.441s-.381 2.293-2.57 2.293-2.57-2.293-2.57-2.293V8.711z" fill="#f7fcff"/><g class="E"><path d="M8 7.084h.723v.482H8v-.482z" class="B"/><use href="#C" class="C"/><g class="B"><use href="#D"/><path d="M8.381 7.47h.723v.241h-.723V7.47z"/><use href="#E"/><path d="M8.571 8.048h.482v.723h-.482v-.723zm-.381 0h.241v.723H8.19v-.723z"/></g><g class="C"><path d="M7.619 7.855h1.333v.241H7.619v-.241zm0 .579h1.333v.241H7.619v-.241z"/></g><g class="B"><use href="#F"/><path d="M8.571 7.663h.241v.241h-.241v-.241zM8.19 7.47h.241v.482H8.19V7.47z"/><use href="#G"/></g><use href="#H" class="C"/><g class="B"><path d="M11.238 7.47h.723v.241h-.723V7.47zm.762 0h.723v.241H12V7.47zm-.762.578h.482v.723h-.482v-.723zm.952 0h.482v.723h-.482v-.723z"/><use href="#I"/></g><g class="C"><path d="M11.238 7.855h1.333v.241h-1.333v-.241zm0 .579h1.333v.241h-1.333v-.241z"/></g><g class="B"><path d="M11.429 7.663h.241v.241h-.241v-.241zm.761 0h.241v.241h-.241v-.241zm-.381-.193h.241v.482h-.241V7.47zm3.239-.386h.723v.482h-.723v-.482z"/></g><use href="#J" class="C"/><g class="B"><path d="M14.667 7.47h.723v.241h-.723V7.47zm.762 0h.723v.241h-.723V7.47zm-.762.578h.482v.723h-.482v-.723zm.952 0h.482v.723h-.482v-.723zm-.381 0h.241v.723h-.241v-.723z"/></g><g class="C"><path d="M14.667 7.855H16v.241h-1.333v-.241zm0 .579H16v.241h-1.333v-.241z"/></g><g class="B"><path d="M14.857 7.663h.241v.241h-.241v-.241zm.762 0h.241v.241h-.241v-.241zm-.381-.193h.241v.482h-.241V7.47zm-.19 3.084h.723v.482h-.723v-.482z"/></g><path d="M14.667 10.747H16v.241h-1.333v-.241z" class="C"/><g class="B"><use href="#K"/><path d="M15.429 10.94h.723v.241h-.723v-.241zm-.762.578h.482v.723h-.482v-.723zm.952 0h.482v.723h-.482v-.723zm-.381 0h.241v.723h-.241v-.723z"/></g><g class="C"><path d="M14.667 11.325H16v.241h-1.333v-.241zm0 .579H16v.241h-1.333v-.241z"/></g><g class="B"><path d="M14.857 11.133h.241v.241h-.241v-.241zm.762 0h.241v.241h-.241v-.241zm-.381-.193h.241v.482h-.241v-.482zM8 10.554h.723v.482H8v-.482z"/></g><path d="M7.619 10.747h1.333v.241H7.619v-.241z" class="C"/><g class="B"><path d="M7.619 10.94h.723v.241h-.723v-.241zm.762 0h.723v.241h-.723v-.241zm-.762.578h.482v.723h-.482v-.723zm.952 0h.482v.723h-.482v-.723zm-.381 0h.241v.723H8.19v-.723z"/></g><g class="C"><path d="M7.619 11.325h1.333v.241H7.619v-.241zm0 .579h1.333v.241H7.619v-.241z"/></g><g class="B"><path d="M7.809 11.133h.241v.241h-.241v-.241zm.762 0h.241v.241h-.241v-.241zm-.381-.193h.241v.482H8.19v-.482zm.274 3.964l.465-.554.369.31-.465.554-.369-.31z"/></g><use href="#L" class="C"/><g class="B"><use href="#M"/><path d="M9.004 14.86l.465-.554.185.155-.465.554-.185-.155z"/><use href="#N"/><path d="M9.569 15.086l.31-.369.554.465-.31.369-.554-.465zm-.244.292l.155-.185.554.465-.155.185-.554-.465z"/></g><g class="C"><path d="M8.81 15.691l.857-1.021.185.155-.857 1.021-.185-.155zm.443.372l.857-1.021.185.155-.857 1.021-.185-.155z"/></g><g class="B"><use href="#O"/><path d="M9.274 14.838l.155-.185.185.155-.155.185-.185-.155zm-.393.168l.155-.185.369.31-.155.185-.369-.31zm6.097-.54l.465.554-.369.31-.465-.554.369-.31z"/></g><use href="#P" class="C"/><g class="B"><path d="M14.438 14.422l.465.554-.185.155-.465-.554.185-.155zm.49.584l.465.554-.184.155-.465-.554.185-.155z"/><use href="#Q"/><path d="M14.607 15.524l.31.369-.554.465-.31-.369.554-.465zm-.245-.292l.155.185-.554.465-.155-.184.554-.465z"/></g><g class="C"><path d="M14.143 14.67L15 15.691l-.185.155-.857-1.021.185-.155zm-.443.372l.857 1.021-.185.155-.857-1.021.185-.155z"/></g><g class="B"><use href="#R"/><path d="M14.903 15.276l.155.185-.185.155-.155-.185.185-.155zm-.097-.416l.155.184-.369.31-.155-.185.369-.31z"/></g><g fill="#013399"><path d="M12.558 9.205h-1.32v.961s.098.497.66.497.66-.497.66-.497v-.961zm-.749.386c0 .106-.085.193-.191.193s-.191-.086-.191-.193.085-.193.191-.193.191.086.191.193zm-.191.964c.105 0 .191-.086.191-.193s-.085-.193-.191-.193-.191.086-.191.193.085.193.191.193zm.762-.193c0 .106-.085.193-.191.193a.19.19 0 0 1-.189-.193c0-.106.085-.193.191-.193s.191.086.191.193zm-.476-.193c.105 0 .191-.086.191-.193s-.085-.193-.191-.193-.191.086-.191.193.085.193.191.193zm.476-.578c0 .106-.085.193-.191.193S12 9.697 12 9.59s.085-.193.191-.193.191.086.191.193zm.178 1.734h-1.32v.961s.098.497.66.497.66-.497.66-.497v-.961zm-.749.386c0 .106-.085.193-.191.193s-.191-.086-.191-.193.085-.193.191-.193.191.086.191.193zm-.191.964c.105 0 .191-.086.191-.193s-.085-.193-.191-.193-.191.086-.191.193.085.193.191.193zm.762-.193c0 .107-.085.193-.191.193a.19.19 0 0 1-.189-.193c0-.106.085-.193.191-.193s.191.086.191.193zm-.476-.193c.105 0 .191-.086.191-.193s-.085-.193-.191-.193-.191.086-.191.193.085.193.191.193zm.476-.578c0 .106-.085.193-.191.193a.19.19 0 0 1-.189-.193c0-.106.085-.193.191-.193s.191.086.191.193zm1.893-.386h-1.32v.961s.098.497.66.497.66-.497.66-.497v-.961zm-.749.386c0 .106-.085.193-.191.193s-.191-.086-.191-.193.085-.193.191-.193.191.086.191.193zm-.191.964c.105 0 .191-.086.191-.193s-.085-.193-.191-.193-.191.086-.191.193.085.193.191.193zm.762-.193c0 .107-.085.193-.19.193s-.191-.086-.191-.193.085-.193.191-.193a.19.19 0 0 1 .19.193zm-.476-.193c.105 0 .191-.086.191-.193s-.085-.193-.191-.193a.19.19 0 0 0-.19.193c0 .107.085.193.19.193zm.476-.578c0 .106-.085.193-.19.193s-.191-.086-.191-.193.085-.193.191-.193a.19.19 0 0 1 .19.193zm-3.251-.386h-1.32v.961s.098.497.66.497.66-.497.66-.497v-.961zm-.749.386c0 .106-.085.193-.19.193s-.19-.086-.19-.193.085-.193.19-.193.19.086.19.193zm-.19.964c.105 0 .19-.086.19-.193s-.085-.193-.19-.193-.19.086-.19.193.085.193.19.193zm.762-.193c0 .107-.085.193-.191.193s-.191-.086-.191-.193.085-.193.191-.193.191.086.191.193zm-.476-.193c.105 0 .19-.086.19-.193s-.085-.193-.19-.193-.191.086-.191.193.085.193.191.193zm.476-.578c0 .106-.085.193-.191.193s-.191-.086-.191-.193.085-.193.191-.193.191.086.191.193zm1.891 1.735h-1.32v.961s.098.497.66.497.66-.497.66-.497v-.961zm-.749.386c0 .106-.085.193-.191.193s-.191-.086-.191-.193.085-.193.191-.193.191.086.191.193zm-.191.964c.105 0 .191-.086.191-.193s-.085-.193-.191-.193-.191.086-.191.193.085.193.191.193zm.762-.193c0 .107-.085.193-.191.193S12 14.709 12 14.602s.085-.193.191-.193.191.086.191.193zm-.476-.193c.105 0 .191-.086.191-.193s-.085-.193-.191-.193-.191.086-.191.193.085.193.191.193zm.476-.578c0 .106-.085.193-.191.193S12 13.938 12 13.831s.085-.193.191-.193.191.086.191.193z"/></g></g></g><defs><clipPath id="B"><path fill="#fff" d="M0 0h32v24H0z"/></clipPath><path id="C" d="M7.619 7.277h1.333v.241H7.619v-.241z"/><path id="D" d="M7.619 7.47h.723v.241h-.723V7.47z"/><path id="E" d="M7.619 8.048h.482v.723h-.482v-.723z"/><path id="F" d="M7.809 7.663h.241v.241h-.241v-.241z"/><path id="G" d="M11.619 7.084h.723v.482h-.723v-.482z"/><path id="H" d="M11.238 7.277h1.333v.241h-1.333v-.241z"/><path id="I" d="M11.809 8.048h.241v.723h-.241v-.723z"/><path id="J" d="M14.667 7.277H16v.241h-1.333v-.241z"/><path id="K" d="M14.667 10.94h.723v.241h-.723v-.241z"/><path id="L" d="M8.367 15.32l.857-1.021.185.155-.857 1.021-.185-.155z"/><path id="M" d="M8.514 15.444l.465-.554.185.155-.465.554-.185-.155z"/><path id="N" d="M8.957 15.815l.31-.369.554.465-.31.369-.554-.465z"/><path id="O" d="M8.784 15.422l.155-.185.185.155-.155.185-.185-.155z"/><path id="P" d="M14.586 14.298l.857 1.021-.185.155-.857-1.021.185-.155z"/><path id="Q" d="M13.995 14.794l.31.369-.554.465-.31-.369.554-.465z"/><path id="R" d="M14.413 14.692l.155.185-.185.155-.155-.185.185-.155z"/></defs></svg>
