<svg xmlns="http://www.w3.org/2000/svg" viewBox="0 0 32 24" fill="none"><style><![CDATA[.B{fill-rule:evenodd}]]></style><g clip-path="url(#B)"><path fill="#fff" d="M0 0h32v24H0z"/><path d="M0 0V24H32V0H0Z" fill="#f7fcff" class="B"/><mask id="A" maskUnits="userSpaceOnUse" x="0" y="0" width="32" height="24"><path d="M0 0V24H32V0H0Z" fill="#fff" class="B"/></mask><g mask="url(#A)"><path d="M19.825 12c0 2.113-1.712 3.825-3.825 3.825S12.175 14.113 12.175 12 13.888 8.175 16 8.175 19.825 9.888 19.825 12z" stroke="#272727" stroke-width=".35"/><path d="M13 12a3 3 0 1 0 6 0c0-.886-.384-1.682-.994-2.231A2.99 2.99 0 0 0 16 9c-.649 0-1.249.206-1.74.556C13.497 10.1 13 10.992 13 12zm5.65 0a2.65 2.65 0 0 1-5.3 0c0-.894.443-1.685 1.121-2.165a2.64 2.64 0 0 1 3.354.243c.508.483.825 1.165.825 1.921z" fill="#272727" class="B"/><path d="M0 0V8H32V0H0Z" fill="#f05234" class="B"/><path d="M0 16v8h32v-8H0z" fill="#3d58db" class="B"/><path d="M14.617 10.002l.285.411c-.66.457-.959.993-.715 1.903.242.901.808 1.349 1.751 1.382l-.017.5c-1.162-.04-1.947-.517-2.246-1.631-.296-1.106.1-1.982.942-2.565z" fill="#73be4a"/><path d="M16 12.315l-.882.599.297-1.023-.842-.654 1.065-.034L16 10.2l.361 1.003 1.065.034-.842.654.297 1.023-.882-.599z" fill="#fbcd17" class="B"/><path d="M17.168 10.176s1.126.78.721 2.291-1.984 1.567-1.984 1.567" stroke="#73be4a" stroke-width=".5"/><path d="M14.564 9.044l.467.718-.467-.718z" fill="#f7fcff"/></g></g><defs><clipPath id="B"><path fill="#fff" d="M0 0h32v24H0z"/></clipPath></defs></svg>
