<svg xmlns="http://www.w3.org/2000/svg" viewBox="0 0 32 24" fill="none"><style><![CDATA[.B{fill-rule:evenodd}.C{fill:#f7fcff}.D{fill:#c51918}.E{fill:#e8aa00}]]></style><g clip-path="url(#B)"><path fill="#fff" d="M0 0h32v24H0z"/><path d="M0 0V24H32V0H0Z" fill="#4857a1" class="B"/><mask id="A" maskUnits="userSpaceOnUse" x="0" y="0" width="32" height="24"><path d="M0 0V24H32V0H0Z" fill="#fff" class="B"/></mask><g mask="url(#A)" class="B"><path d="M0 0V8H32V0H0Z" class="D"/><path d="M0 16v8h32v-8H0z" class="C"/><path d="M11.456 3.803l-.113-.453.312.091-.001-.006c1.32.12 3.361.803 3.74 1.529.147.281.001.52-.191.833l-.088.146-.266.466c-.296.53-.528.944-.88 1.156l.007 1.201-5.896-.051-.008-1.213c-.301-.226-.517-.611-.787-1.093l-.266-.466-.088-.146c-.191-.313-.337-.552-.191-.833.286-.546 1.579-1.076 2.765-1.357l.719-.235.108.078.272-.031.136.303h.48s.29.861.29 1.338-.29.873-.29.873v.33l.158.015c0-.029.003-.059.009-.09.028-.158.114-.274.193-.26s.12.153.092.311a.57.57 0 0 1-.018.073l.99.162c.126-.244.279-.484.425-.714.378-.594.71-1.116.4-1.427-.059-.059-.165-.114-.302-.165-.453-.113-.947-.2-1.427-.243l-.014-.079-.273-.043zm2.24 2.879l.269.058.001.172c.584-.45.997-1.448 1.035-1.774.022-.197-.29-.424-.78-.63.232.44-.079.876-.468 1.424l-.448.671.143.029a.52.52 0 0 1 .019-.148c.041-.155.138-.263.215-.242s.106.163.065.317c-.012.047-.03.089-.05.125zm-3.012-.417v-.367s-.251-.28-.29-.865c-.028-.418.058-.909.11-1.155-.374.047-.769.121-1.151.212-.254.071-.456.152-.546.243-.31.311.022.833.4 1.427h0 0 0l.412.689.627-.123c-.009-.031-.015-.065-.018-.1-.014-.159.039-.294.119-.301s.156.117.17.276c.003.029.003.057.001.084l.165-.02zm-2.158-.334h0 0c-.398-.56-.714-1.004-.452-1.453-.573.222-.96.463-.937.66.035.309.406 1.216.94 1.695l.535-.142c-.022-.035-.042-.076-.057-.122-.049-.152-.028-.296.048-.32s.178.079.227.231a.52.52 0 0 1 .027.15l.117-.029c-.144-.242-.301-.463-.447-.668h0 0z" fill="#f6c540"/><path d="M11.652 3.506c0 .351-.292.636-.652.636s-.652-.285-.652-.636.292-.636.652-.636.652.285.652.636zM11 8.232c.28 0 .507-.13.507-.29s-.227-.29-.507-.29-.507.13-.507.29.227.29.507.29zm-2.536-.072c0 .12-.097.217-.217.217s-.217-.097-.217-.217.097-.217.217-.217.217.097.217.217zm5.797 0c0 .12-.097.217-.217.217s-.217-.097-.217-.217.097-.217.217-.217.217.097.217.217z" fill="#2e42a5"/><path d="M9.913 8.015c0 .12-.162.217-.362.217s-.362-.097-.362-.217.162-.217.362-.217.362.097.362.217zm3.043 0c0 .12-.162.217-.362.217s-.362-.097-.362-.217.162-.217.362-.217.362.097.362.217z" fill="#c5363c"/><path d="M12.232 6.203c0 .16-.065.29-.145.29s-.145-.13-.145-.29.065-.29.145-.29.145.13.145.29zm-2.181-.045c.05.152.028.296-.048.32s-.178-.079-.227-.231-.028-.296.048-.32.178.079.227.231zm-1.705.786c.076-.025.098-.168.048-.32s-.151-.256-.227-.231-.098.168-.048.32.151.256.227.231zm5.735-.197c-.085.136-.209.211-.277.169s-.054-.187.031-.323.209-.211.277-.169.054.187-.031.323z" class="C"/><path d="M9.769 3.792c.04.029.09.047.144.047.135 0 .245-.11.245-.245s-.11-.245-.245-.245c-.096 0-.179.055-.219.135-.04-.029-.09-.047-.144-.047-.086 0-.162.045-.206.112-.042-.035-.097-.056-.156-.056-.135 0-.245.11-.245.245l.001.022c-.045-.056-.114-.091-.191-.091-.123 0-.224.09-.242.208-.045-.057-.114-.094-.193-.094-.118 0-.216.083-.239.193-.04-.029-.09-.046-.143-.046-.109 0-.201.071-.233.168-.033-.017-.07-.026-.11-.026-.121 0-.221.088-.241.203-.016-.003-.032-.005-.049-.005-.134 0-.243.108-.245.241-.015-.003-.03-.004-.045-.004-.135 0-.245.11-.245.245 0 .017.002.034.005.05-.016-.003-.033-.005-.05-.005-.135 0-.245.11-.245.245 0 .103.063.191.153.227-.005.02-.008.041-.008.063 0 .103.063.191.153.227-.005.02-.008.041-.008.063 0 .132.105.24.235.245-.055.045-.09.113-.09.19 0 .135.11.245.245.245s.245-.11.245-.245-.104-.24-.235-.245c.055-.045.09-.113.09-.19 0-.103-.063-.191-.153-.227.005-.02.008-.041.008-.063 0-.103-.063-.191-.153-.227.005-.02.008-.041.008-.063s-.002-.034-.005-.05c.016.003.033.005.05.005.134 0 .243-.108.245-.241.015.003.03.004.045.004.121 0 .221-.088.241-.203.016.003.032.005.049.005.109 0 .201-.071.233-.168.033.017.07.026.11.026.054 0 .103-.017.144-.047.008.033.022.063.041.089-.03.041-.047.091-.047.145 0 .132.105.24.235.245-.055.045-.09.113-.09.19 0 .103.063.191.153.227-.005.02-.008.041-.008.063 0 .103.063.191.153.227-.005.02-.008.041-.008.063 0 .135.11.245.245.245s.245-.11.245-.245c0-.103-.063-.191-.153-.227.005-.02.008-.041.008-.063 0-.103-.063-.191-.153-.227.005-.02.008-.041.008-.063 0-.132-.105-.24-.235-.245.055-.045.09-.113.09-.19 0-.054-.018-.104-.047-.145.03-.041.047-.091.047-.145s-.018-.104-.047-.145c.023-.031.039-.068.045-.108.045.057.114.094.193.094.135 0 .245-.11.245-.245l-.001-.022c.045.056.114.091.191.091.086 0 .162-.045.206-.112.042.035.097.056.156.056.096 0 .179-.055.219-.135zm-1.45.482c.081 0 .153-.039.197-.1-.045-.061-.116-.1-.197-.1.025 0 .045-.02.045-.045s-.02-.045-.045-.045-.045.02-.045.045.02.045.045.045c-.054 0-.103.017-.144.047-.014-.059-.048-.109-.096-.143-.004.017-.005.034-.005.052 0 .054.018.104.047.145-.03.041-.047.091-.047.145 0 .019.002.038.006.056.048-.035.083-.087.096-.147.04.029.09.046.143.046zm0 .09c-.081 0-.153.039-.197.1.045.061.116.1.197.1-.025 0-.045.02-.045.045s.02.045.045.045.045-.02.045-.045-.02-.045-.045-.045c.081 0 .153-.039.197-.1-.045-.061-.116-.1-.197-.1zm0 0c.025 0 .045-.02.045-.045s-.02-.045-.045-.045-.045.02-.045.045.02.045.045.045zm-.143-.136c-.021-.015-.039-.033-.055-.054.015-.02.033-.038.054-.053.004.018.006.037.006.056s-.002.035-.005.052zm.67 1.168c-.028-.011-.059-.018-.092-.018-.114 0-.209.077-.237.182.028.011.059.018.092.018.114 0 .209-.077.237-.182zm-.145-.29c-.028-.011-.059-.018-.092-.018-.114 0-.209.077-.237.182.028.011.059.018.092.018.114 0 .209-.077.237-.182zm-.227-.307h-.01c-.059 0-.112.021-.155.055h.01c.059 0 .112-.021.155-.055zM7.169 5.813h-.01c-.059 0-.112.021-.155.055h.01c.059 0 .112-.021.155-.055zm-.063-.417c-.028.105-.123.182-.237.182-.032 0-.064-.006-.092-.018.028-.105.123-.182.237-.182.032 0 .064.006.092.018zm-.145-.29c-.028.105-.123.182-.237.182-.032 0-.064-.006-.092-.018.028-.105.123-.182.237-.182.033 0 .064.006.092.018zm-.187-.303c.02.095.095.17.19.19-.02-.095-.095-.17-.19-.19zm.485-.046c-.114-.021-.2-.121-.2-.241v-.004c.114.021.2.121.2.241v.004zm.286-.199c-.112-.023-.196-.121-.196-.24 0-.014.001-.029.004-.042.112.023.196.121.196.24 0 .014-.001.029-.004.042zm.281-.164c-.08-.04-.135-.123-.135-.219 0-.027.004-.052.012-.077.08.04.135.123.135.219 0 .027-.004.052-.012.077zm.734-.329c-.033-.042-.052-.094-.052-.151 0-.013.001-.025.003-.037.033.042.052.094.052.151 0 .013-.001.025-.003.037zm.384-.305c.004.049.024.095.053.131-.004-.049-.024-.095-.053-.131zm.45.11c-.055-.045-.089-.113-.089-.189 0-.049.014-.095.039-.133.055.045.089.113.089.189 0 .049-.014.095-.039.133zm.375-.08c-.061-.045-.101-.117-.101-.198 0-.039.009-.077.026-.109.061.045.101.117.101.198 0 .039-.009.077-.026.109zm-2.465.769c.025 0 .045-.02.045-.045s-.02-.045-.045-.045-.045.02-.045.045.02.045.045.045zm-.29.237c.025 0 .045-.02.045-.045s-.02-.045-.045-.045-.045.02-.045.045.02.045.045.045zm-.29.29c.025 0 .045-.02.045-.045s-.02-.045-.045-.045-.045.02-.045.045.02.045.045.045zm.145.29c.025 0 .045-.02.045-.045s-.02-.045-.045-.045-.045.02-.045.045.02.045.045.045zm.145.29c.025 0 .045-.02.045-.045s-.02-.045-.045-.045-.045.02-.045.045.02.045.045.045zm.19.39c0 .025-.02.045-.045.045s-.045-.02-.045-.045.02-.045.045-.045.045.02.045.045zm.39-1.694c.025 0 .045-.02.045-.045s-.02-.045-.045-.045-.045.02-.045.045.02.045.045.045zm.342-.143c.025 0 .045-.02.045-.045s-.02-.045-.045-.045-.045.02-.045.045.02.045.045.045zm.817-.261c.025 0 .045-.02.045-.045s-.02-.045-.045-.045-.045.02-.045.045.02.045.045.045zm.435-.176c.025 0 .045-.02.045-.045s-.02-.045-.045-.045-.045.02-.045.045.02.045.045.045zm.361-.056c.025 0 .045-.02.045-.045s-.02-.045-.045-.045-.045.02-.045.045.02.045.045.045zm.363-.089c.025 0 .045-.02.045-.045s-.02-.045-.045-.045-.045.02-.045.045.02.045.045.045zM8.464 5.088c.025 0 .045-.02.045-.045s-.02-.045-.045-.045-.045.02-.045.045.02.045.045.045zm.145.29c.025 0 .045-.02.045-.045s-.02-.045-.045-.045-.045.02-.045.045.02.045.045.045zm.145.29c.025 0 .045-.02.045-.045s-.02-.045-.045-.045-.045.02-.045.045.02.045.045.045zm6.377.435c.025 0 .045-.02.045-.045s-.02-.045-.045-.045-.045.02-.045.045.02.045.045.045zm-.245-.045c0 .135.11.245.245.245s.245-.11.245-.245c0-.077-.035-.145-.09-.19.131-.005.235-.113.235-.245 0-.022-.003-.043-.008-.063.09-.036.153-.124.153-.227 0-.022-.003-.043-.008-.063.09-.036.153-.124.153-.227 0-.135-.11-.245-.245-.245-.017 0-.034.002-.05.005.003-.016.005-.033.005-.05 0-.135-.11-.245-.245-.245-.015 0-.03.001-.045.004-.002-.133-.111-.241-.245-.241-.017 0-.033.002-.049.005-.02-.115-.12-.203-.241-.203-.039 0-.077.009-.11.026-.032-.098-.124-.168-.233-.168-.053 0-.103.017-.143.046-.024-.11-.122-.193-.239-.193-.078 0-.148.037-.193.094-.018-.118-.12-.208-.242-.208-.077 0-.146.036-.191.091.001-.007.001-.015.001-.022 0-.135-.11-.245-.245-.245-.059 0-.113.021-.156.056-.044-.067-.12-.112-.206-.112-.054 0-.104.017-.144.047-.04-.08-.123-.135-.219-.135-.135 0-.245.11-.245.245s.11.245.245.245c.054 0 .104-.017.144-.047.04.08.123.135.219.135.059 0 .113-.021.156-.056.044.067.12.112.206.112.077 0 .146-.036.191-.091l-.001.022c0 .135.11.245.245.245.078 0 .148-.037.193-.094.006.04.022.077.045.108-.03.041-.047.091-.047.145s.018.104.047.145c-.03.041-.047.091-.047.145 0 .077.035.145.09.19-.131.005-.235.113-.235.245 0 .022.003.043.008.063-.09.036-.153.124-.153.227 0 .022.003.043.008.063-.09.036-.153.124-.153.227 0 .135.11.245.245.245s.245-.11.245-.245c0-.022-.003-.043-.008-.063.09-.036.153-.124.153-.227 0-.022-.003-.043-.008-.063.09-.036.153-.124.153-.227 0-.077-.035-.145-.09-.19.131-.005.235-.113.235-.245 0-.054-.018-.104-.047-.145.019-.026.034-.056.041-.089.04.029.09.047.144.047.039 0 .077-.009.109-.026.032.098.124.168.233.168.017 0 .033-.002.048-.005.02.115.12.203.241.203.015 0 .03-.001.045-.004.002.133.111.241.245.241.017 0 .034-.002.05-.005a.25.25 0 0 0-.005.05c0 .022.003.043.008.063-.09.036-.153.124-.153.227 0 .022.003.043.008.063-.09.036-.153.124-.153.227 0 .077.035.145.09.19-.131.005-.235.113-.235.245zm-.771-1.83c.013.06.048.112.096.147.004-.018.006-.037.006-.056 0-.054-.018-.104-.047-.145.03-.041.047-.091.047-.145 0-.018-.002-.035-.005-.052-.047.034-.082.085-.096.143-.04-.029-.09-.047-.144-.047.025 0 .045-.02.045-.045s-.02-.045-.045-.045-.045.02-.045.045.02.045.045.045c-.081 0-.153.039-.197.1.045.061.116.1.197.1-.025 0-.045.02-.045.045s.02.045.045.045c-.081 0-.153.039-.197.1.045.061.116.1.197.1-.025 0-.045.02-.045.045s.02.045.045.045.045-.02.045-.045-.02-.045-.045-.045c.081 0 .153-.039.197-.1-.045-.061-.116-.1-.197-.1.025 0 .045-.02.045-.045s-.02-.045-.045-.045c.053 0 .103-.017.143-.046zm0 0c.021-.015.039-.033.054-.054-.015-.02-.033-.038-.054-.053-.004.018-.006.037-.006.056s.002.035.006.052zm-.341 1.333c-.028-.105-.123-.182-.237-.182-.033 0-.064.006-.092.018.028.105.123.182.237.182.032 0 .063-.006.092-.018zm.145-.29c-.028-.105-.123-.182-.237-.182-.033 0-.064.006-.092.018.028.105.123.182.237.182.032 0 .063-.006.092-.018zm.063-.417c-.042-.034-.096-.055-.155-.055h-.01c.042.034.096.055.155.055h.01zm-1.46-1.061c.061-.045.101-.117.101-.198 0-.039-.009-.077-.026-.109-.061.045-.101.117-.101.198 0 .039.009.077.026.109zm.375.08c.055-.045.089-.113.089-.189 0-.049-.014-.095-.039-.133-.055.045-.089.113-.089.189 0 .049.014.095.039.133zm.45-.11c-.005.049-.024.095-.053.131.005-.049.024-.095.053-.131zm.383.305c.033-.042.052-.094.052-.151 0-.013-.001-.025-.003-.037-.033.042-.052.094-.052.151 0 .013.001.025.003.037zm.734.329c.08-.04.136-.123.136-.219 0-.027-.004-.052-.012-.077-.08.04-.135.123-.135.219 0 .027.004.052.012.077zm.281.164c.112-.023.196-.121.196-.24 0-.014-.001-.029-.004-.042-.112.023-.196.121-.196.24 0 .014.001.029.004.042zm.581.434c.095-.02.17-.095.19-.19-.095.02-.17.095-.19.19zm-.095-.481v.004c0 .12-.086.22-.2.241v-.004c0-.12.086-.22.2-.241zm.098.593c.028-.011.059-.018.092-.018.114 0 .209.077.237.182-.028.011-.059.018-.092.018-.114 0-.209-.077-.237-.182zm-.145.29c.028-.011.059-.018.092-.018.114 0 .209.077.237.182-.028.011-.059.018-.092.018-.114 0-.209-.077-.237-.182zm.092.472c-.059 0-.112-.021-.154-.055h.01c.059 0 .112.021.155.055h-.01zm0-.2c.025 0 .045-.02.045-.045s-.02-.045-.045-.045-.045.02-.045.045.02.045.045.045zm.145-.29c.025 0 .045-.02.045-.045s-.02-.045-.045-.045-.045.02-.045.045.02.045.045.045zm.145-.29c.025 0 .045-.02.045-.045s-.02-.045-.045-.045-.045.02-.045.045.02.045.045.045zm-.29-.29c.025 0 .045-.02.045-.045s-.02-.045-.045-.045-.045.02-.045.045.02.045.045.045zm-.29-.237c.025 0 .045-.02.045-.045s-.02-.045-.045-.045-.045.02-.045.045.02.045.045.045zm-.29-.198c.025 0 .045-.02.045-.045s-.02-.045-.045-.045-.045.02-.045.045.02.045.045.045zm-.342-.143c.025 0 .045-.02.045-.045s-.02-.045-.045-.045-.045.02-.045.045.02.045.045.045zm-.817-.261c.025 0 .045-.02.045-.045s-.02-.045-.045-.045-.045.02-.045.045.02.045.045.045zm-.435-.176c.025 0 .045-.02.045-.045s-.02-.045-.045-.045-.045.02-.045.045.02.045.045.045zm-.361-.056c.025 0 .045-.02.045-.045s-.02-.045-.045-.045-.045.02-.045.045.02.045.045.045zm-.363-.089c.025 0 .045-.02.045-.045s-.02-.045-.045-.045-.045.02-.045.045.02.045.045.045zm1.449 1.449c.025 0 .045-.02.045-.045s-.02-.045-.045-.045-.045.02-.045.045.02.045.045.045zm-.145.29c.025 0 .045-.02.045-.045s-.02-.045-.045-.045-.045.02-.045.045.02.045.045.045zm-.145.29c.025 0 .045-.02.045-.045s-.02-.045-.045-.045-.045.02-.045.045.02.045.045.045z" fill="#fff"/><path d="M11.102 2.154l-.215.004v.353h-.396l.005.214h.392v.402l.215-.004-.001-.399h.39l-.005-.214h-.386v-.357z" fill="#f6c540"/><path d="M5.785 8.734h10.4v8.833s-.314 4.4-5.2 4.4-5.2-4.4-5.2-4.4V8.734z" class="D"/><path d="M8.924 9.04c-.095 0-.242.068-.437.146s-.399.245-.199.413.485.536.485.398.341-.271.341-.204-.106.204.171.204.42.082.124.082-.328.135-.52.135-.602-.136-.602-.217.237.397.485.397.388.233.513.116.109-.116.31-.116.127-.47.127-.47-.703-.885-.799-.885zm4.013 0c.095 0 .242.068.437.146s.399.245.2.413-.485.536-.485.398-.341-.271-.341-.204.106.204-.171.204-.42.082-.124.082.328.135.52.135.602-.136.602-.217-.237.397-.485.397-.388.233-.513.116-.109-.116-.31-.116-.127-.47-.127-.47.703-.885.799-.885z" class="E"/><path d="M14.212 10c.199.465-1.329 2.192-1.329 2.192h-.171c-.072 0-.206-.177-.367-.39l-.36-.446c-.237-.255-.111-.47.006-.67l.095-.181c.051-.129.058-.18.066-.239s.017-.12.067-.266c.074-.215.33-.492.508-.684l.156-.176c.095-.127.023-.127-.176-.125l-.089.001c-.265 0-.771.124-.922.269s-.31.176-.543.176-.089.157.123.263c-.229.044-.375.425-.461.763-.047-.338-.151-.719-.379-.763.212-.106.356-.263.123-.263s-.392-.031-.543-.176-.657-.269-.922-.269c-.032 0-.062 0-.089-.001-.199-.002-.271-.003-.176.125.03.04.087.102.156.176.178.192.435.469.508.684.05.146.059.21.067.266s.016.11.067.239c.024.059.059.12.095.181.117.2.242.414.006.67-.126.136-.249.299-.36.446-.161.214-.295.39-.367.39h-.171S7.301 10.465 7.501 10c.077-.18.201-.349.304-.489.163-.222.273-.371.053-.371-.357 0-1.782.903-1.782 2.941s.132 3.196.437 4.008c.208.554.018 1.092-.125 1.493-.066.187-.122.343-.122.459 0 .362.561.045.561-.182 0-.108.077.053.157.221.089.186.182.381.182.236 0-.154.089-.317.168-.461.062-.113.117-.214.117-.289s.079-.073.167-.069c.112.004.239.009.239-.146 0-.104.04-.125.091-.151.083-.043.193-.099.193-.566 0-.346.069-.223.149-.083.073.129.155.274.199.083.004-.019.05-.099.107-.198l.222-.422c-.104.407-.354.832-.512 1.034-.164.21-.448.665-.448.665s.264.147.448 0c.103-.082.109-.005.117.08.006.067.012.138.067.138.034 0 .066.006.095.011l.057.008c-.061.156-.116.406.068.239a1.24 1.24 0 0 1 .285-.199c.071-.037.1-.052.1-.13s.029-.051.074-.01c.039.036.09.083.146.083.071 0 .086-.099.108-.244.015-.097.032-.214.072-.336l.026-.081c.08-.25.117-.366.208-.051.042.147.117.252.183.342.089.123.16.222.106.37l-.075.194c-.096.241-.214.536-.214.768 0 .138-.126.326-.244.503-.139.207-.267.399-.17.477.18.143-.038.625-.22.873s-.152.55.124.55c.151 0 .233.055.307.104.061.041.117.079.203.079.189 0 .289-.093.289-.093s.116.176.31.176.233-.176.233-.176l.143.176.011-.771v.771l.44-.176s.04.176.233.176.31-.176.31-.176.1.093.289.093c.085 0 .141-.038.203-.079.074-.049.156-.104.307-.104.276 0 .306-.302.124-.55s-.399-.73-.22-.873c.097-.077-.031-.269-.17-.477-.118-.177-.244-.365-.244-.503 0-.232-.118-.527-.214-.768l-.075-.194c-.053-.148.018-.247.106-.37.065-.091.14-.195.183-.342.091-.315.128-.199.208.051l.026.081c.04.121.057.239.072.336.022.145.037.244.108.244.056 0 .107-.047.146-.083.045-.041.074-.067.074.01s.029.093.1.13c.061.032.154.08.285.199.184.167.129-.083.068-.239.017 0 .036-.004.057-.008a.54.54 0 0 1 .095-.011c.054 0 .06-.071.066-.138.008-.085.014-.162.117-.08.183.147.448 0 .448 0l-.448-.665c-.159-.202-.408-.627-.512-1.034.034.093.139.278.222.422l.107.198c.044.191.126.047.199-.083.079-.141.149-.263.149.083 0 .467.11.523.193.566.05.026.091.047.091.151 0 .154.127.15.239.146.088-.003.167-.006.167.069s.056.176.117.289c.079.144.168.307.168.461 0 .145.093-.051.182-.236.081-.169.157-.329.157-.221 0 .227.561.544.561.182 0-.115-.056-.272-.122-.459-.142-.401-.333-.939-.125-1.493.306-.812.437-1.97.437-4.008S14.212 9.14 13.855 9.14c-.219 0-.11.149.053.371.103.14.227.309.304.489zm-1.329 5.968l.011.045c-.007-.019-.011-.035-.011-.045zm.12 1.889c0-.051.035.006.068.091-.042.001-.068-.016-.068-.091zm-4.362.091c.042.001.068-.016.068-.091 0-.051-.035.006-.068.091zm.177-1.935c.007-.019.011-.035.011-.045l-.011.045z" class="C"/><path d="M8.189 19.202c0-.14.36-.466.36-.466v.028c.05.041.372.306.372.435 0 .08-.042.197-.077.297-.027.075-.05.14-.05.174 0 .023.009.006.027-.025.044-.077.141-.243.276-.132.179.148.178.365.177.503v.024c0 .043 0 .043-.006.022-.012-.044-.051-.182-.171-.182-.176 0-.303.16-.303.16v.272s.022.225.127.112.127.139 0 .139c-.065 0-.132.069-.197.136s-.124.128-.181.128v-.023c-.054-.004-.099-.06-.144-.117s-.1-.125-.165-.125c-.127 0-.105-.251 0-.139s.127-.112.127-.112v-.272s-.127-.16-.303-.16c-.12 0-.159.138-.171.182-.006.021-.006.021-.006-.022v-.024c-.001-.138-.002-.355.177-.503.135-.111.231.055.276.132.018.031.027.047.027.025 0-.034-.031-.098-.067-.172-.048-.099-.104-.214-.104-.295zm4.782 0c0-.14.36-.466.36-.466v.028c.05.041.372.306.372.435 0 .08-.042.197-.077.297-.027.075-.05.14-.05.174 0 .023.01.006.027-.025.044-.077.141-.243.276-.132.179.148.178.365.177.503v.024c0 .043 0 .043-.006.022-.012-.044-.051-.182-.171-.182-.176 0-.303.16-.303.16v.272s.022.225.127.112.127.139 0 .139c-.065 0-.132.069-.197.136s-.124.128-.181.128v-.023c-.054-.004-.099-.06-.144-.117s-.1-.125-.165-.125c-.127 0-.105-.251 0-.139s.127-.112.127-.112v-.272s-.127-.16-.303-.16c-.12 0-.159.138-.171.182-.006.021-.006.021-.006-.022v-.024c-.001-.138-.002-.355.177-.503.135-.111.231.055.276.132.018.031.027.047.027.025 0-.034-.031-.098-.067-.172-.048-.099-.104-.214-.104-.295z" class="E"/><path d="M7.831 18.359c.32 0 .385-.61.385-.61s.269-.279.269-.073c0 .11-.076.248-.135.353-.051.092-.088.159-.047.159h.444c.366 0-.064.172-.262.248-.09.035-.153.053-.214.07-.074.021-.143.041-.25.087-.196.085-.28.644-.189.824s-.091.104-.166 0c-.042-.058-.072.022-.115.133-.034.088-.076.197-.137.272-.118.144-.117.017-.114-.257l.001-.147c0-.243.048-.245.121-.248.038-.002.083-.004.131-.042.103-.083.116-.126.147-.233l.042-.134c.075-.218-.327.126-.44.289-.069.099-.117.11-.189.126-.046.01-.102.023-.18.063-.126.064-.092-.062-.05-.216.024-.088.05-.186.05-.262 0-.131.079-.097.179-.054.06.025.127.054.19.054.162 0 .246-.068.349-.153l.017-.014c.083-.067-.098-.047-.312-.023l-.223.023c-.165.013-.176.003-.217-.034-.03-.027-.075-.067-.204-.124-.309-.134.199-.076.422 0 .124.043.228.014.351-.02.098-.027.209-.057.351-.057zm6.215 0c-.32 0-.385-.61-.385-.61s-.269-.279-.269-.073c0 .11.076.248.135.353.051.092.088.159.047.159h-.444c-.366 0 .064.172.262.248.09.035.153.053.214.07.074.021.143.041.25.087.196.085.28.644.189.824s.091.104.166 0c.042-.058.072.022.115.133.034.088.076.197.137.272.118.144.117.017.114-.257l-.001-.147c0-.243-.049-.245-.121-.248-.038-.002-.083-.004-.131-.042-.103-.083-.116-.126-.147-.233l-.042-.134c-.075-.218.327.126.441.289.069.099.117.11.189.126.046.01.102.023.18.063.127.064.092-.062.05-.216a1.12 1.12 0 0 1-.05-.262c0-.131-.079-.097-.179-.054-.06.025-.127.054-.19.054-.162 0-.245-.068-.349-.153l-.016-.014c-.083-.067.098-.047.312-.023l.223.023c.165.013.176.003.217-.034.03-.027.075-.067.204-.124.309-.134-.199-.076-.422 0-.124.043-.228.014-.351-.02-.098-.027-.208-.057-.351-.057z" class="E"/><path d="M9.047 12.341h3.875v3.534s-.416 1.761-1.938 1.761-1.938-1.761-1.938-1.761v-3.534z" class="D"/><path d="M11.507 12.29h-1.014v2.029H9.044v.725h1.449v2.609h1.014v-2.609h1.449v-.725h-1.449V12.29zm-1.806 1.019c.097 0 .144-.082.092-.154-.027-.038-.083-.049-.125-.025-.026.003-.045-.002-.067-.009a.1.1 0 0 0-.06.001c-.024.008-.037-.016-.026-.166.011-.042.068-.068.202-.068.244 0 .344.026.344.049v.358l-.118.107c-.057.051-.017.139.064.139h.054v.274c-.074.058-.141.085-.199.085-.218 0-.341-.081-.344-.177l.003-.063c.039.013.061.013.081.007l.008-.003c.018 0 .018.008.017.028h0 0l-.001.027c-.001.045.039.083.089.084s.091-.035.093-.08c.004-.158-.085-.249-.232-.218-.087-.026-.148-.023-.195.031-.035.039-.04.072-.043.188.007.201.218.341.525.341.118 0 .236-.053.352-.153.018-.015.028-.037.028-.059v-.392c0-.027-.014-.05-.036-.065l.009-.008c.017-.015.027-.036.027-.058v-.392c0-.168-.173-.213-.525-.213-.208 0-.344.061-.38.206-.021.248.053.396.234.353a.5.5 0 0 0 .13.024zm2.545-.154c-.051.072-.005.154.092.154a.5.5 0 0 0 .13-.024c.182.042.255-.106.235-.353-.037-.145-.172-.206-.38-.206-.353 0-.525.045-.525.213v.392c0 .022.01.042.027.058l.009.008c-.021.015-.035.038-.035.065v.392c0 .022.01.044.028.059.117.1.234.153.352.153.307 0 .519-.14.525-.341-.004-.117-.008-.149-.043-.188-.048-.054-.108-.057-.195-.031-.147-.031-.236.06-.232.218.001.045.043.081.093.08s.09-.038.089-.084l-.001-.027c-.001-.02-.001-.028.002-.03l.023.005c.02.006.042.006.062-.001.02.008.021.029.022.057-.003.096-.126.177-.344.177-.058 0-.125-.027-.199-.085v-.274h.054c.081 0 .121-.088.064-.139l-.118-.107v-.358c0-.023.1-.049.344-.049.133 0 .191.026.202.068.011.15-.002.174-.026.166a.1.1 0 0 0-.06-.001l-.056.016c-.053-.032-.109-.021-.136.017zm.305.499h-.004.003.001zm-.213 2.264c-.097 0-.144-.082-.092-.154.027-.038.083-.049.125-.025.026.003.045-.002.067-.009a.1.1 0 0 1 .06.001c.024.008.037-.016.026-.166-.011-.042-.068-.068-.202-.068-.244 0-.344.026-.344.049v.359l.118.107c.057.052.017.14-.064.14h-.054v.274c.074.058.141.085.199.085.218 0 .341-.081.344-.177l-.003-.063c-.039.013-.061.013-.081.007l-.008-.003c-.018 0-.018.008-.017.028l.001.027c.001.045-.039.083-.089.083s-.091-.035-.093-.08c-.004-.158.085-.249.232-.218.087-.026.148-.023.195.031.035.039.039.072.043.189-.007.201-.218.341-.525.341-.118 0-.236-.053-.352-.153-.018-.016-.028-.037-.028-.059v-.392c0-.026.014-.05.035-.065l-.009-.008c-.017-.015-.027-.036-.027-.058v-.392c0-.168.173-.213.525-.213.208 0 .344.061.38.206.021.248-.053.396-.235.354a.5.5 0 0 1-.13.024zm-2.638 0c.097 0 .144-.082.092-.154-.027-.038-.083-.049-.125-.025-.026.003-.045-.002-.067-.009a.1.1 0 0 0-.06.001c-.024.008-.037-.016-.026-.166.011-.042.068-.068.202-.068.244 0 .344.026.344.049v.359l-.118.107c-.057.052-.017.14.064.14h.054v.274c-.074.058-.141.085-.199.085-.218 0-.341-.081-.344-.177l.003-.063c.039.013.061.013.081.007s.021-.007.023-.005.003.011.002.03l-.001.027c-.001.045.039.083.089.083s.091-.035.093-.08c.004-.158-.085-.249-.232-.218-.087-.026-.148-.023-.195.031-.035.039-.04.072-.043.189.007.201.218.341.525.341.118 0 .236-.053.352-.153.018-.016.028-.037.028-.059v-.392c0-.026-.014-.05-.036-.065l.009-.008c.017-.015.027-.036.027-.058v-.392c0-.168-.173-.213-.525-.213-.208 0-.344.061-.38.206-.021.248.053.396.234.354a.5.5 0 0 0 .13.024z" class="C"/></g></g><defs><clipPath id="B"><path fill="#fff" d="M0 0h32v24H0z"/></clipPath></defs></svg>
