<svg xmlns="http://www.w3.org/2000/svg" viewBox="0 0 32 24" fill="none"><style><![CDATA[.B{fill-rule:evenodd}]]></style><g clip-path="url(#B)"><path fill="#fff" d="M0 0h32v24H0z"/><path d="M0 0V24H32V0H0Z" fill="#feca00" class="B"/><mask id="A" maskUnits="userSpaceOnUse" x="0" y="0" width="32" height="24"><path d="M0 0V24H32V0H0Z" fill="#fff" class="B"/></mask><g mask="url(#A)" class="B"><path d="M0 0V14H32V0H0Z" fill="#3ca5d9"/><path d="M0 18v6h32v-6H0z" fill="#5a962a"/><path d="M24.082 11.866l-.1.001c-.029 0-.057 0-.085-.001l-.604 1.974-.128-2.056-.182-.042-1.047 1.78.354-2.027-.169-.083-1.431 1.491.816-1.889-.146-.12-1.738 1.123 1.232-1.649-.116-.152-1.949.695 1.58-1.32-.078-.177-2.055.231 1.843-.923-.034-.191-2.051-.244 2.008-.477.011-.195-1.937-.705 2.063-.007.057-.188-1.72-1.127 2.009.464.099-.169-1.411-1.489 1.848.911.135-.141-1.027-1.773 1.587 1.309.164-.106-.586-1.96 1.24 1.636.184-.066-.114-2.042.826 1.877.193-.022L23.989 2l.366 2.017.192.022.827-1.879-.114 2.047.181.065 1.243-1.641-.588 1.968.16.104 1.594-1.314-1.032 1.782.131.137 1.858-.916-1.42 1.498.095.163 2.022-.467-1.732 1.135.054.18 2.077.007-1.951.71.011.186 2.022.481-2.066.246-.033.183 1.856.93-2.068-.232-.075.17 1.591 1.329-1.961-.699-.111.147 1.239 1.658-1.746-1.128-.142.117.82 1.897-1.436-1.496-.165.082.355 2.033-1.049-1.783-.18.042-.128 2.059-.605-1.974zm-.136-1.451c1.401 0 2.536-1.119 2.536-2.499s-1.135-2.499-2.536-2.499-2.536 1.119-2.536 2.499 1.135 2.499 2.536 2.499zm1.459-2.426a1.43 1.43 0 0 1-1.429 1.429 1.43 1.43 0 0 1-1.429-1.429 1.43 1.43 0 0 1 1.429-1.429 1.43 1.43 0 0 1 1.429 1.429z" fill="#ffdc17"/></g></g><defs><clipPath id="B"><path fill="#fff" d="M0 0h32v24H0z"/></clipPath></defs></svg>
