<svg xmlns="http://www.w3.org/2000/svg" viewBox="0 0 32 24" fill="none"><g clip-path="url(#B)"><path fill="#fff" d="M0 0h32v24H0z"/><path fill-rule="evenodd" d="M0 0V24H32V0H0Z" fill="#3d58db"/><mask id="A" maskUnits="userSpaceOnUse" x="0" y="0" width="32" height="24"><path fill-rule="evenodd" d="M0 0V24H32V0H0Z" fill="#fff"/></mask><g mask="url(#A)"><path fill-rule="evenodd" d="M0 24H32V0L0 24Z" fill="#579d20"/><path d="M-.782 24.745l-1.804-2.496L33.675-1.954 35.479.542-.782 24.745z" fill="#feca00"/><path fill-rule="evenodd" d="M3.653 6.547l1.364-.946 1.428.85-.5-1.524.999-1.091H5.59l-.573-1.602-.573 1.602-1.355.056L4.09 4.927l-.436 1.62zm5.658 0l1.364-.946 1.428.85-.5-1.524.999-1.091h-1.353l-.573-1.602-.574 1.602-1.355.056 1.001 1.035-.436 1.62zM6.648 9.455l1.364-.946 1.428.85-.5-1.524.999-1.091H8.585l-.573-1.602-.573 1.602-1.355.056 1.001 1.035-.436 1.62zm-1.631 2.146l-1.364.946.436-1.62-1.001-1.035 1.355-.056.573-1.602.573 1.602h1.353l-.999 1.091.5 1.524-1.428-.85zm5.658 0l-1.364.946.436-1.62-1.001-1.035 1.355-.056.574-1.602.573 1.602h1.353l-.999 1.091.5 1.524-1.428-.85z" fill="#f7fcff"/></g></g><defs><clipPath id="B"><path fill="#fff" d="M0 0h32v24H0z"/></clipPath></defs></svg>
