<svg xmlns="http://www.w3.org/2000/svg" viewBox="0 0 32 24" fill="none"><g clip-path="url(#B)"><path fill="#fff" d="M0 0h32v24H0z"/><path fill-rule="evenodd" d="M0 0V24H32V0H0Z" fill="#f7fcff"/><mask id="A" maskUnits="userSpaceOnUse" x="0" y="0" width="32" height="24"><path fill-rule="evenodd" d="M0 0V24H32V0H0Z" fill="#fff"/></mask><g mask="url(#A)"><path fill-rule="evenodd" d="M0 0V12H32V0H0Z" fill="#e31d1c"/><path fill-rule="evenodd" d="M8.868 10.59S6.043 9.453 6.043 6.374s2.826-4.179 2.826-4.179c-1.373-.348-5.017-.037-5.017 4.179s3.589 5.011 5.017 4.216zm.724-.509l.811-.489.829.489-.203-.955.673-.753h-.912l-.387-.892-.387.892-.914.039.675.715-.185.955zm3.757-.544l-.811.489.185-.955-.675-.715.914-.039.387-.892.387.892h.912l-.674.753.203.955-.828-.489zM11.287 5.77l.811-.489.829.489-.203-.955.674-.753h-.912l-.387-.892-.387.892-.914.039.675.715-.185.955zM9.37 7.223l-.811.489.185-.955-.675-.715.914-.039.387-.892.387.892h.912l-.673.753.203.955-.829-.489zm4.548.446l.811-.489.829.489-.203-.955.674-.753h-.912l-.387-.892-.387.892-.914.039.675.715-.185.955z" fill="#f1f9ff"/></g></g><defs><clipPath id="B"><path fill="#fff" d="M0 0h32v24H0z"/></clipPath></defs></svg>
