<svg xmlns="http://www.w3.org/2000/svg" viewBox="0 0 32 24" fill="none"><style><![CDATA[.B{fill-rule:evenodd}]]></style><g clip-path="url(#B)"><path fill="#fff" d="M0 0h32v24H0z"/><path d="M0 0V24H32V0H0Z" fill="#2e42a5" class="B"/><mask id="A" maskUnits="userSpaceOnUse" x="0" y="0" width="32" height="24"><path d="M0 0V24H32V0H0Z" fill="#fff" class="B"/></mask><g mask="url(#A)"><path d="M0 0V8H32V0H0Z" fill="#f7fcff" class="B"/><path d="M0 16v8h32v-8H0z" fill="#c51918" class="B"/><path d="M13.74 5.036s-2.105-.994-4.722-.994-4.723.994-4.723.994l.604 6.111c.158.904.918 2.221 1.606 2.845.784.711 2.512 1.553 2.512 1.553.5-.345 1.436-.5 2.631-1.553s1.493-2.845 1.493-2.845l.599-6.111z" fill="#2e42a5" class="B"/><path d="M13.462 4.906l.877.438-.602 6.023c-.211 1.275-.738 2.28-1.581 3.023-.457.403-.904.704-1.383.955l-1.391.719c-.113.055-.199.102-.269.15l-.109.075-.118-.058c-1.171-.57-2.263-1.338-2.806-1.83-.741-.672-1.522-2.047-1.689-2.999-.249-1.424-.472-3.385-.629-6.058l.787-.412.588 6.166c.145.827.865 2.095 1.522 2.691.486.44 1.268.929 2.344 1.46l.217-.114.989-.459a6.37 6.37 0 0 0 1.288-.889c.749-.66 1.216-1.548 1.405-2.677l.56-6.204z" fill="#c51918"/><path d="M5.542 11.024s.191.584.543 1.239c.518.137.835.129.935.017.29-.324 1.321-.463 1.513-.186.119.171.536.289.992.133l-.051.009.379-.148.093-.037a1.5 1.5 0 0 1 .427-.108c.161-.012.316.018.479.096.36.171.804.251 1.106.199l.633-1.215-1.755-1.685-.698.757-1.159-1.653-.97 1.653-.744-.757-1.724 1.685zm1.015 1.99l-.23-.336c.449.082.754.039.924-.151.08-.09.318-.177.589-.213.126-.017.247-.021.34-.012.043.004.077.011.1.019l-.002-.011c.207.296.769.455 1.299.262l-.051.009c.143-.044.402-.146.494-.182h0l.032-.013a1.23 1.23 0 0 1 .343-.09c.109-.008.212.012.329.067a2.5 2.5 0 0 0 1.016.244l-.215.333c-.254.059-.646-.019-.963-.192-.148-.081-.289-.112-.437-.1-.117.01-.23.045-.382.111l-.083.037-.329.147.057-.012c-.396.153-.743.04-.843-.123-.177-.292-1.103-.149-1.364.185-.07.089-.279.105-.625.019zm.345.409l.059.059c.903.881 2.02 1.312 2.02 1.312s1.33-.402 2.085-1.25l.193-.233a2.02 2.02 0 0 1-.841-.247c-.096-.053-.18-.071-.268-.064a.94.94 0 0 0-.289.087l-.024.011-.449.187.057-.012c-.467.195-.963.041-1.157-.251-.017-.007-.044-.013-.078-.016a1.16 1.16 0 0 0-.287.012c-.23.035-.43.12-.496.205-.111.143-.286.206-.526.199z" fill="#fff" class="B"/><use href="#C" fill="#feca00" class="B"/><path d="M10.461 5.886h-.703l.545-.511-.545-.54h.703l.297-.524.298.524h.702l-.518.507.46.543h-.644l-.298.553-.297-.553zM8.6 7.568h-.703l.545-.511-.545-.54H8.6l.297-.524.298.524h.702l-.518.507.46.543h-.644l-.298.553-.297-.553z" fill="#feca00" class="B"/></g></g><defs><clipPath id="B"><path fill="#fff" d="M0 0h32v24H0z"/></clipPath><path id="C" d="M7.147 5.886h-.703l.545-.511-.545-.54h.703l.297-.524.298.524h.702l-.518.507.46.543h-.644l-.298.553-.297-.553z"/></defs></svg>
