<svg xmlns="http://www.w3.org/2000/svg" viewBox="0 0 32 24" fill="none"><style><![CDATA[.B{fill-rule:evenodd}]]></style><g clip-path="url(#C)"><path fill="#fff" d="M0 0h32v24H0z"/><path d="M0 0V24H32V0H0Z" fill="#3d58db" class="B"/><mask id="A" maskUnits="userSpaceOnUse" x="0" y="0" width="32" height="24"><path d="M0 0V24H32V0H0Z" fill="#fff" class="B"/></mask><g mask="url(#A)"><path d="M0 0V8H32V0H0Z" fill="#f7fcff" class="B"/><path d="M0 16v8h32v-8H0z" fill="#e31d1c" class="B"/><path d="M15.604 6.03l.497-.053-.048-.447h-.45-9.259-.467l-.031.466.499.034-.499-.034h0v.001.003l-.001.012-.003.046-.011.176-.039.64-.103 2.048.004 4.184c.219 1.642 1.219 5.33 5.087 7l.202.087.201-.09c3.674-1.643 4.903-4.952 5.187-6.995.143-1.031.07-2.836-.03-4.336l-.157-1.967-.058-.605-.017-.166-.005-.044-.001-.011v-.003-.001h0c0 0 0 0-.497.053z" fill="#e31d1c" stroke="#fff"/><mask id="B" maskUnits="userSpaceOnUse" x="5" y="5" width="12" height="16"><path d="M15.604 6.03l.497-.053-.048-.447h-.45-9.259-.467l-.031.466.499.034-.499-.034h0v.001.003l-.001.012-.003.046-.011.176-.039.64-.103 2.048.004 4.184c.219 1.642 1.219 5.33 5.087 7l.202.087.201-.09c3.674-1.643 4.903-4.952 5.187-6.995.143-1.031.07-2.836-.03-4.336l-.157-1.967-.058-.605-.017-.166-.005-.044-.001-.011v-.003-.001h0c0 0 0 0-.497.053z" fill="#fff" stroke="#fff"/></mask><g mask="url(#B)" class="B"><path d="M10.257 6.59s.207.315.299.796.108 1.324.108 1.324l-1.959-.241v1.485l2.003-.255-.033 1.41s-.599.062-1.09 0-1.459-.322-1.459-.322v1.7s.983-.315 1.459-.387a4.92 4.92 0 0 1 1.09 0v2.088h.813V12.1s.889-.077 1.419.006a3.39 3.39 0 0 1 1.033.38v-1.7s-.509.254-.99.317-1.462.005-1.462.005l.033-1.41s.665-.069 1.038-.018.84.273.84.273V8.468s-.455.248-.814.293-1.109-.051-1.109-.051.013-.87.09-1.293.295-.826.295-.826h-1.606z" fill="#f7fcff"/><path d="M6.897 16.245s.439-.943 1.155-1.123 1.465.561 1.465.561.458-1.496 1.574-1.496 1.508 1.496 1.508 1.496.476-.561 1.161-.561 1.319 1.123 1.319 1.123-2.045 3.714-4.091 3.714-4.091-3.713-4.091-3.713z" fill="#2e42a5"/></g></g></g><defs><clipPath id="C"><path fill="#fff" d="M0 0h32v24H0z"/></clipPath></defs></svg>
