<svg xmlns="http://www.w3.org/2000/svg" viewBox="0 0 32 24" fill="none"><style><![CDATA[.B{fill-rule:evenodd}.C{fill:#fff}.D{fill:#ffd018}]]></style><g clip-path="url(#B)"><path d="M0 0h32v24H0z" class="C"/><path d="M0 0V24H32V0H0Z" fill="#f7fcff" class="B"/><mask id="A" maskUnits="userSpaceOnUse" x="0" y="0" width="32" height="24"><path d="M0 0V24H32V0H0Z" class="B C"/></mask><g mask="url(#A)"><path d="M0 12V24H32V12H0Z" fill="#56c6f5" class="B"/><path d="M10.254 9.028a.56.56 0 0 0-.056-.215c-.257-.479-.174-1.078-.174-1.078s-.307.702-.487 1.362c-.189-.308-.255-.616-.255-.616s-.122 1.938.252 2.397.624.661.624.661.028-.804-.081-1.434c.077-.263.146-.55.171-.798l.341-.266c-.068.377-.072.582-.072.582s1.411-1.024 1.447-1.566.424-1.006.424-1.006l-.687.514c.097-.455.396-.814.396-.814s-1.602 1.096-1.734 1.674l-.11.603zm.069 3.33c-.154-.29-.822-1.506-1.288-1.612-.53-.12-.928-.576-.928-.576s.832 1.754 1.382 1.974c.442.177.732.247.83.268l-.019.4s.26-.188.658-.627.377-2.38.377-2.38-.158.584-.581.924c-.284.228-.391 1.088-.431 1.629zm-1.251-.184c.605-.004 1.537 1.481 1.537 1.481s-.361.02-.991-.08-1.613-1.791-1.613-1.791.462.394 1.067.39zm2.951 3.457s.359-1.892-.18-2.332-.634-1.1-.634-1.1-.479 2.098 0 2.641.815.792.815.792zm-2.176-.511c.352.418 1.474 0 1.474 0s.247.225-.643-.589-2.701-.3-2.213-.3 1.03.471 1.382.889zm.832 2.22c.653.553 2.064-.762 2.064-.762s-.363-.44-1.036-.764-3.156 0-3.156 0l1.105.492s-1.23.481-.904.454 1.274.027 1.927.58z" fill="#006923" class="B"/><path d="M19.213 16.196s-.561-.943 0-1.399.784-.153.784-.677.057-.368.333-.628.08-.892.45-.576.438-.29.438.968 0-1.141 0-1.848-.438-.539-.438-1.013-.438-1.182 0-1.182.696.527.696.527.431.734.431 0-.767-.516-1.127-1.326-.303.091-.782-.953-1.05-1.375-.525-1.375h.858c.45 0 1.146-.374 1.146 0v.789c0 .586.431.586.431.586s.234-1.173.528-.586.094 1.539.309 1.539.037-.985.507-.231 0 1.266 0 1.557-.507 1.004-.507 1.004.099.349.507 0 .795-.697.795-.349.795.457 0 1.013-.288 1.114-.795 1.114-1.105.735-1.345.735-1.137.563-.688.563.908-1.125 1.217-.562.305-.091.561.236.511 2.101.256 1.389-.656-.712-1.345-.712-2.026.051-1.577.382.955-.33 1.146 0 .135.661.431.33.586 0 .838 0-.252.37 0 .687.812.74.252.74-.849-.448-1.089 0-.25 1.227-.688.614-1.221-.302-1.221-.614.171-.362-.306-.362-.477-.378-.477-.378z" fill="#093" class="B"/><path d="M21.516 9.45c0 .138-.108.25-.242.25s-.242-.112-.242-.25.108-.25.242-.25.242.112.242.25zM10.339 10c.134 0 .242-.112.242-.25s-.108-.25-.242-.25-.242.112-.242.25.108.25.242.25zm.242 1.05c0 .138-.108.25-.242.25s-.242-.112-.242-.25.108-.25.242-.25.242.112.242.25zm.145 2.55c.134 0 .242-.112.242-.25s-.108-.25-.242-.25-.242.112-.242.25.108.25.242.25zm1.936 2.5c.134 0 .242-.112.242-.25s-.108-.25-.242-.25-.242.112-.242.25.108.25.242.25zm9.29-3.8c.134 0 .242-.112.242-.25s-.108-.25-.242-.25-.242.112-.242.25.108.25.242.25zm-.532 1.75c0 .138-.108.25-.242.25s-.242-.112-.242-.25.108-.25.242-.25.242.112.242.25zm-2.274 2.45c.134 0 .242-.112.242-.25s-.108-.25-.242-.25-.242.112-.242.25.108.25.242.25zM13 16.55c0 .138-.108.25-.242.25s-.242-.112-.242-.25.108-.25.242-.25.242.112.242.25z" fill="#c51918" class="B"/><path d="M18.038 19.82c0-.205-3.101-2.342-3.933-2.813S9.209 13.942 10.316 10h-.167s-.749 4.857 4.411 7.875c2.349 1.576 2.466 1.944 2.466 1.944s1.012.205 1.012 0z" fill="#feca00" class="B"/><path d="M13.924 19.82c0-.205 3.1-2.342 3.933-2.813s4.896-3.065 3.789-7.007h.168s.749 4.857-4.411 7.875c-2.349 1.576-2.466 1.944-2.466 1.944s-1.012.205-1.012 0z" fill="#feca00" class="B"/><path d="M16.048 16.886c2.165 0 3.919-2.802 3.919-5.536S18.213 7.2 16.048 7.2s-3.919 1.416-3.919 4.15 1.755 5.536 3.919 5.536z" fill="#56c6f5" class="B"/><path d="M14.313 9.539s.604-.532.302-.532c-.059 0-.13-.011-.207-.024-.319-.051-.735-.118-.735.556v1.158.003h-.089a.1.1 0 1 0 0 .2h.078l-.06 1.127-.115.01c-.059.005-.103.057-.098.117l.007.085c.005.059.057.103.117.098l.072-.006-.05 1.018c0 .135.918.083.918.083l-.06-1.172.062-.005c.059-.005.103-.057.098-.117l-.007-.085c-.005-.059-.057-.103-.117-.098l-.05.004-.049-1.059h.118a.1.1 0 1 0 0-.2h-.126l-.009-.318v-.843z" class="B C"/><use href="#C" fill="#000" class="B"/><use href="#D" fill="#000" class="B"/><path d="M16.346 9.539s.604-.532.302-.532c-.059 0-.13-.011-.207-.024-.319-.051-.735-.118-.735.556v1.158.003h-.089a.1.1 0 1 0 0 .2h.078l-.06 1.127-.114.01c-.059.005-.103.057-.098.117l.007.085c.005.059.057.103.117.098l.072-.006-.05 1.018c0 .135.918.083.918.083l-.06-1.172.062-.005c.059-.005.103-.057.098-.117l-.007-.085c-.005-.059-.057-.103-.117-.098l-.05.004-.049-1.059h.118a.1.1 0 1 0 0-.2h-.126l-.009-.318v-.843z" class="B C"/><path d="M15.903 11h.323v.43h-.323V11zm-.096 1.5h.538v1h-.538v-1z" fill="#000" class="B"/><path d="M18.281 9.539s.604-.532.302-.532c-.058 0-.13-.011-.207-.024-.319-.051-.735-.118-.735.556v1.158.003h-.089a.1.1 0 1 0 0 .2h.078l-.06 1.127-.114.01c-.059.005-.103.057-.098.117l.008.085c.005.059.057.103.116.098l.072-.006-.049 1.018c0 .135.918.083.918.083l-.06-1.172.062-.005c.059-.005.103-.057.098-.117l-.007-.085c-.005-.059-.057-.103-.116-.098l-.05.004-.049-1.059h.118a.1.1 0 1 0 0-.2h-.126l-.009-.318v-.843z" class="B C"/><path d="M17.839 11h.323v.43h-.323V11zm-.097 1.5h.538v1h-.538v-1z" fill="#000" class="B"/><path d="M18.516 6.4h-5.129v.766l-.034.003s-2.513 1.953-1.815 4.878 3.468 5.095 3.468 5.095l.14-.505s-2.64-3.589-2.64-5.023.498-2.78 1.025-2.99c.317-.126.372-.1.458-.06.057.027.128.06.299.06.428 0 .857-.307.857-.307s.298.307.575.307.281-.307.281-.307V7.3h.031v1.017s.004.307.281.307.575-.307.575-.307.429.307.857.307c.171 0 .242-.033.299-.06.086-.04.141-.066.458.06.527.209 1.025 1.555 1.025 2.99s-2.64 5.023-2.64 5.023l.14.505s2.77-2.169 3.468-5.095-1.815-4.878-1.815-4.878l-.162-.014V6.4z" fill="#e8aa00" class="B"/><path d="M13.387 6.4v-.5h-.5v.5h.5zm5.129 0h.5v-.5h-.5v.5zm-5.129.766l.044.498.456-.041v-.457h-.5zm-.034.003l-.045-.498-.146.013-.116.09.307.395zm-1.815 4.878l-.486.116.486-.116zm3.468 5.095l-.308.394.59.462.2-.723-.482-.133zm.14-.505l.482.133.065-.234-.144-.196-.403.296zM13.53 8.623l-.184-.465h0l.184.465zm.458-.06l-.212.453h0l.212-.453zm1.156-.247l.359-.348-.3-.308-.35.25.291.407zm.856 0l.5.006v-.006H16zM16 7.3v-.5h-.5v.5h.5zm.031 0h.5v-.5h-.5v.5zm0 1.017h-.5v.006l.5-.006zm.855 0l.291-.407-.35-.25-.3.308.358.348zm1.156.247l.212.453h0l-.212-.453zm.458.06l-.184.465.184-.465zm-1.614 8.013l-.403-.296-.144.196.065.234.482-.133zm.14.505l-.482.133.2.723.59-.462-.308-.394zm1.652-9.972l.307-.395-.116-.09-.146-.013-.045.498zm-.162-.014h-.5v.457l.455.041.045-.498zM13.387 6.9h5.129v-1h-5.129v1zm.5.266V6.4h-1v.766h1zm-.49.501l.034-.003-.089-.996-.034.003.089.996zm-1.374 4.264c-.308-1.291.088-2.372.582-3.152a5.56 5.56 0 0 1 .722-.908l.248-.236.067-.057.018-.014c-.001.001-.001.001-.308-.394l-.307-.395-.039.031-.091.077-.302.287c-.243.248-.559.61-.853 1.074-.588.927-1.1 2.285-.71 3.919l.973-.232zm2.981 5.211l.308-.394-.025-.02-.082-.068-.307-.271c-.259-.239-.613-.587-.988-1.024-.755-.88-1.566-2.082-1.888-3.434l-.973.232c.375 1.573 1.298 2.918 2.102 3.854.405.472.787.848 1.069 1.108l.34.3.096.08.027.022c.011.009.011.009.32-.385zm-.342-.638l-.14.505.964.267.14-.505-.964-.267zm-2.658-4.89c0 .476.208 1.056.458 1.599.259.564.6 1.165.935 1.712l.922 1.413.304.433.086.119.023.032c.008.012.008.012.411-.285l.403-.296-.028-.038-.082-.113-.294-.419-.893-1.368-.879-1.607c-.245-.533-.367-.94-.367-1.181h-1zm1.341-3.454c-.267.106-.467.324-.612.538-.152.224-.281.498-.386.797-.21.598-.343 1.349-.343 2.12h1c0-.664.116-1.303.287-1.788a2.51 2.51 0 0 1 .27-.567c.097-.142.157-.171.153-.17l-.369-.929zm.854-.048c-.06-.028-.192-.091-.388-.078-.147.01-.302.061-.467.126l.369.929.147-.052c.03-.009.033-.007.018-.006-.009.001-.022.001-.038-.001a.29.29 0 0 1-.048-.009.24.24 0 0 1-.027-.009l.435-.901zm.088.013a.5.5 0 0 1-.055-.003c-.015-.002-.017-.003-.033-.011l-.423.906c.032.015.101.048.197.072s.196.035.314.035v-1zm.857.193l-.291-.407-.044.028c-.035.022-.087.051-.148.08-.132.063-.268.105-.374.105v1c.322 0 .615-.112.804-.202.099-.047.182-.095.24-.13l.071-.045.021-.014c.011-.008.011-.008-.28-.415zm.575-.193c.02 0 .019.005-.009-.007s-.059-.03-.095-.055-.066-.05-.087-.07l-.023-.021c-.002-.002-.002-.002-.361.347l-.358.349.025.024.052.048c.043.038.104.089.178.141.127.089.379.244.679.244v-1zm.281.193l-.5-.007.002-.026c0-.001.001-.009.008-.025s.028-.054.075-.088a.24.24 0 0 1 .135-.049v1c.168 0 .325-.049.456-.144a.77.77 0 0 0 .242-.298.91.91 0 0 0 .072-.235l.009-.077.002-.027c0-.018 0-.018-.499-.025zM15.5 7.3v1.017h1V7.3h-1zm.531-.5H16v1h.031v-1zm-.5.5v1.017h1V7.3h-1zm.5 1.017l-.5.007.002.045.009.077a.91.91 0 0 0 .072.235c.043.093.117.207.242.298.131.096.288.144.456.144v-1a.24.24 0 0 1 .135.049c.046.034.067.072.075.088s.008.024.008.025l.002.023c0 .003 0 .003-.5.01zm.281.807c.3 0 .551-.155.679-.244a1.99 1.99 0 0 0 .178-.141l.052-.048.016-.016c.009-.009.009-.009-.35-.357l-.358-.349-.025.023c-.022.019-.053.045-.088.07s-.069.044-.095.055-.029.007-.009.007v1zm.575-.807l-.291.407.032.022.071.045a2.63 2.63 0 0 0 .24.13c.189.09.482.202.804.202v-1c-.106 0-.241-.041-.374-.105-.061-.029-.113-.059-.148-.08l-.038-.024c-.006-.004-.006-.004-.297.403zm.857.807c.118 0 .221-.012.314-.035s.164-.057.197-.072l-.423-.906-.019.009a.5.5 0 0 1-.068.004v1zm.511-.107c-.031.008-.047.011-.064.013s-.03.001-.038.001l.165.058.369-.929c-.164-.065-.319-.117-.467-.126-.196-.013-.328.05-.388.078l.423.906zm.062.072c-.003-.001.057.027.153.17a2.52 2.52 0 0 1 .27.567c.171.486.287 1.125.287 1.788h1a6.57 6.57 0 0 0-.343-2.12 3.5 3.5 0 0 0-.386-.797c-.145-.214-.345-.432-.612-.538l-.369.929zm.71 2.525c0 .241-.122.648-.367 1.181a16 16 0 0 1-.879 1.607l-.893 1.368-.294.419-.082.113-.021.029c-.007.009-.007.009.396.305l.403.296.031-.043.086-.119.304-.433.922-1.413c.335-.546.676-1.148.935-1.712.25-.543.458-1.123.458-1.599h-1zm-2.622 5.157l.14.505.964-.267-.14-.505-.964.267zm.622.372l.308.393.038-.03.096-.08.34-.3a13.27 13.27 0 0 0 1.069-1.108c.804-.936 1.727-2.281 2.102-3.854l-.973-.232c-.323 1.353-1.133 2.555-1.888 3.434a12.27 12.27 0 0 1-.988 1.024l-.307.271-.082.068-.02.016c-.005.004-.005.004.304.397zm3.954-4.979c.39-1.634-.123-2.992-.71-3.919a6.56 6.56 0 0 0-.853-1.074l-.302-.287-.091-.077-.027-.022c-.012-.01-.013-.01-.319.385l-.307.395.017.014.067.057.248.236a5.56 5.56 0 0 1 .722.908c.494.78.89 1.861.582 3.152l.973.232zm-2.257-5.492l-.162-.014-.089.996.162.014.089-.996zm-.706-.271v.754h1V6.4h-1z" class="D"/><path d="M13.104 13.785s.314-.844.864-.563.502 1.261 1.002.912.217-.912.958-.912.632.912 1.077.912.483-.912.98-.912 1.001.563 1.001.563l-2.941 4.003-2.942-4.003z" fill="#8fc753" class="B"/><path d="M7.929 18.457l-.316-.426s1.312 0 1.49.309c.05.087.072.153.089.204.042.129.051.155.407.155.496 0 0-.492-.206-.667s-.081-.481.206-.481c.111 0 .303-.025.54-.056l1.316-.114c.73 0 .125.652.125.652s.945 0 .711-.271.788-.601 1.23-.601l2.515.105 2.611-.105c.442 0 1.464.33 1.23.601s.711.271.711.271-.605-.652.125-.652c.449 0 .938.064 1.316.114l.54.056c.287 0 .413.306.206.481s-.702.667-.206.667c.356 0 .364-.026.407-.155.017-.051.039-.117.089-.204.172-.298 1.399-.308 1.485-.309-.02-.036-.031-.078-.031-.123 0-.138.108-.25.242-.25s.242.112.242.25-.108.25-.242.25a.24.24 0 0 1-.209-.124l-.314.423.327.404a.24.24 0 0 1 .196-.103c.134 0 .242.112.242.25s-.108.25-.242.25-.242-.112-.242-.25c0-.029.005-.056.013-.081-.185-.09-.505-.229-.712-.229h-.578c.145 0 .945.528.703.756l-.041.039c-.237.226-.547.52-.84.36-.309-.17-.495-.399-.495-.399l-.243-.756s-1.429-.369-1.429-.114-.004.38-.511.38c-.284 0-.558-.048-.799-.09l-.498-.063c-.198 0-.503.061-.729.106l-.278.048c-.108 0-.687-.026-.29-.267s.488-.492.488-.492l-2.216.25h0-.028-.028 0c-.623-.015-2.119-.25-2.119-.25s.091.251.488.492-.182.267-.29.267c-.04 0-.145-.021-.278-.048-.226-.045-.531-.106-.729-.106-.138 0-.308.03-.498.063-.241.042-.515.09-.799.09-.507 0-.511-.125-.511-.38s-1.429.114-1.429.114l-.242.756s-.186.229-.496.399c-.292.161-.602-.134-.84-.36l-.041-.039c-.242-.229.557-.756.703-.756h-.577c-.306 0-.858.303-.858.303l.44-.544zm-.687-.299c.134 0 .242-.112.242-.25s-.108-.25-.242-.25-.242.112-.242.25.108.25.242.25zm0 1.1c.134 0 .242-.112.242-.25s-.108-.25-.242-.25-.242.112-.242.25.108.25.242.25z" class="B C"/><path d="M15.894 2.029h.2v.214h.246v.2h-.246v.364c.276.047.486.294.486.592A.59.59 0 0 1 16 4a.59.59 0 0 1-.581-.6c0-.294.205-.539.475-.59v-.366h-.226v-.2h.226v-.214z" class="B D"/><path d="M13.747 5.226c-.28 0-.87.299-.87.299l.459 1.018 2.769-.104 2.769.104.459-1.018s-.59-.299-.87-.299c-.123 0-.139-.072-.156-.153-.022-.104-.048-.222-.304-.222-.181 0-.309.03-.413.054-.158.037-.259.061-.405-.054l-.018-.014c-.236-.187-.482-.381-.879-.381-.079 0-.138.075-.182.196-.044-.121-.103-.196-.182-.196-.397 0-.643.194-.879.381l-.018.014c-.146.115-.247.091-.405.054-.104-.024-.232-.054-.413-.054-.256 0-.282.118-.304.222-.017.081-.033.153-.156.153z" fill="#e31d1c" class="B"/><path d="M15.608 3.568l-.194.067c-.514.178-.958.237-1.334.179-.773-.119-1.783.283-1.656.873.055.258.217.746.385 1.159.233.574.397.863.588.863.025 0 .284.014.371.019l.027.001.767.021c.689-.003 1.116-.071 1.269-.278l.045-.061-.021-.073c-.181-.622-.265-1.476-.249-2.559l.003-.212zm-2.901 1.054c-.062-.289.727-.604 1.33-.511.375.058.801.014 1.276-.129-.002.963.076 1.744.237 2.347-.138.072-.5.119-.989.121a13.54 13.54 0 0 1-.751-.02 38.64 38.64 0 0 0-.383-.02.91.91 0 0 1-.106-.156c-.072-.127-.156-.309-.243-.524-.162-.398-.319-.87-.37-1.108zm3.748-1.054l.194.067c.514.178.958.237 1.334.179.773-.119 1.783.283 1.656.873-.055.258-.217.746-.385 1.159-.233.574-.397.863-.588.863-.025 0-.284.014-.371.019l-.027.001-.767.021c-.689-.003-1.116-.071-1.269-.278l-.045-.061.021-.073c.181-.622.265-1.476.249-2.559l-.003-.212zm2.901 1.054c.062-.289-.727-.604-1.33-.511-.375.058-.801.014-1.276-.129.003.963-.076 1.744-.237 2.347.138.072.5.119.989.121l.752-.02a44.03 44.03 0 0 1 .383-.02.91.91 0 0 0 .106-.156c.072-.127.156-.309.243-.524.162-.398.319-.87.37-1.108z" class="B D"/><path d="M12.837 6.471c0-.055-.032-.156-.102-.342-.096-.256-.162-.334-.302-.42-.071-.043-.099-.081-.132-.21a1.85 1.85 0 0 0-.085-.258l-.033-.074h0l-.03-.068c-.022-.054-.03-.103-.03-.181 0-.089.023-.161.085-.291l.055-.121c.027-.066.04-.124.04-.183v-.385c0-.225.009-.239.119-.224l.033.005c-.004-.001.053.01.067.012.026.003.048.001.07-.009.04-.018.069-.053.138-.157.033-.049.068-.044.194.017l.04.019c.128.059.217.061.293-.032.116-.142.193-.133.335.004.07.068.105.093.149.1l.004.001c.047.007.05.007.182-.074.009.019.029.026.06.033.042.01.106.013.148.007.035-.006.06-.016.077-.051l.199-.003v-.1l-.246.004-.018-.016h0c-.036-.032-.093-.082-.119-.074-.004.001-.014.01-.029.023h0c-.023.021-.057.05-.088.069-.131.081-.136.083-.156.08s-.042-.021-.097-.074c-.177-.172-.317-.189-.475.004-.04.049-.086.048-.18.005l-.038-.018c-.167-.082-.242-.092-.314.017-.058.086-.082.115-.097.122l-.002.001h-.001c-.003.002-.008.001-.051-.007l-.026-.005-.037-.006c-.183-.025-.229.046-.229.323v.385c0 .044-.011.089-.033.145l-.052.115c-.068.143-.095.226-.095.335 0 .091.011.152.038.219l.034.076.03.068a1.76 1.76 0 0 1 .08.244c.04.155.084.214.176.27.122.074.173.135.261.37l.088.261.006.028c-.014.011-.012.019-.008.041l.008.015h0c.015.014.018.016.021.018s.009.014.018.027c.095.124.214.124.328.004l-.069-.07c-.075.079-.126.079-.183.004l-.018-.023zm1.162-2.937h-.002.001.001zm5.116 2.937c0-.055.032-.156.102-.342.096-.256.162-.334.302-.42.071-.043.099-.081.132-.21.027-.103.054-.184.085-.258l.033-.074.03-.068c.022-.054.031-.103.031-.181 0-.089-.023-.161-.085-.291l-.055-.121c-.027-.066-.04-.124-.04-.183v-.385c0-.225-.009-.239-.119-.224l-.033.005c.004-.001-.053.01-.067.012-.026.003-.048.001-.07-.009-.04-.018-.069-.053-.138-.157-.033-.049-.068-.044-.194.017l-.04.019c-.128.059-.217.061-.293-.032-.116-.142-.193-.133-.334.004-.07.068-.105.093-.149.1l-.004.001c-.047.007-.05.007-.182-.074-.009.019-.029.026-.06.033-.042.01-.105.013-.148.007-.035-.006-.06-.016-.077-.051l-.199-.003v-.1l.246.004.018-.016c.036-.032.093-.082.119-.074.004.001.014.01.029.023h0 0a.71.71 0 0 0 .084.067l.004.002c.131.081.136.083.156.08s.042-.021.097-.074c.177-.172.317-.189.475.004.04.049.087.048.18.005l.038-.018c.167-.082.242-.092.314.017.058.086.082.115.098.122l.002.001h.001c.003.002.008.001.051-.007l.026-.005.037-.006c.183-.025.229.046.229.323v.385c0 .044.011.089.033.145l.052.115c.068.143.095.226.095.335a.55.55 0 0 1-.038.219l-.034.076-.03.068c-.029.07-.055.146-.08.244-.04.155-.084.214-.176.27-.122.074-.173.135-.261.37l-.088.261-.006.028c.014.011.012.019.008.041l-.008.015c-.015.014-.018.016-.021.018s-.009.014-.018.027c-.095.124-.214.124-.328.004l.069-.07c.075.079.126.079.183.004l.018-.023z" fill="#5e5e5e" class="B"/><path d="M13.774 17.885l.061-.496 2.154.198c.545.024 1.195-.015 1.948-.119l.069.495c-.782.108-1.461.149-2.028.123-.377 0-1.108-.067-2.203-.201z" fill="#272727"/></g></g><defs><clipPath id="B"><path d="M0 0h32v24H0z" class="C"/></clipPath><path id="C" d="M13.871 11h.323v.43h-.323V11z"/><path id="D" d="M13.774 12.5h.538v1h-.538v-1z"/></defs></svg>
