<svg xmlns="http://www.w3.org/2000/svg" viewBox="0 0 32 24" fill="none"><g clip-path="url(#A)"><path fill="#fff" d="M0 0h32v24H0z"/><g fill-rule="evenodd"><path d="M0 0H32V24H0V0Z" fill="#f7fcff"/><path d="M0 0V8H32V0H0Z" fill="#272727"/><path d="M0 16v8h32v-8H0z" fill="#4e8b1d"/></g><path d="M0 7h-1v1 8 1h1 32 1v-1-8-1h-1H0z" fill="#e31d1c" stroke="#f7fcff" stroke-width="2"/><g fill-rule="evenodd"><path d="M0 0L20 12L0 24V0Z" fill="#3d58db"/><path d="M6.648 14.409l-2.02 2.1-.211-2.985-2.575-1.587 2.686-.843.439-2.958 1.859 2.342 2.712-.727-1.402 2.775L9.5 15.203l-2.852-.795z" fill="#feca00"/></g></g><defs><clipPath id="A"><path fill="#fff" d="M0 0h32v24H0z"/></clipPath></defs></svg>
