<svg xmlns="http://www.w3.org/2000/svg" viewBox="0 0 32 24" fill="none"><g clip-path="url(#A)"><path fill="#fff" d="M0 0h32v24H0z"/><g fill-rule="evenodd"><path d="M0 0V24H32V0H0Z" fill="#fbcd17"/><g fill="#73be4a"><path d="M0 0v8h32V0H0zm0 16v8h32v-8H0z"/></g><path d="M0 0V24L10 12L0 0Z" fill="#c51918"/><g fill="#272727"><path d="M17.002 13.871L15.131 15l.427-2.204L14 11.147l2.109-.089L17.002 9l.892 2.058H20l-1.554 1.738.468 2.204-1.912-1.129zm8 0L23.131 15l.427-2.204L22 11.147l2.109-.089L25.002 9l.892 2.058H28l-1.554 1.738.468 2.204-1.912-1.129z"/></g></g></g><defs><clipPath id="A"><path fill="#fff" d="M0 0h32v24H0z"/></clipPath></defs></svg>
