<svg xmlns="http://www.w3.org/2000/svg" viewBox="0 0 32 24" fill="none"><g clip-path="url(#B)"><path fill="#fff" d="M0 0h32v24H0z"/><path fill-rule="evenodd" d="M0 0V24H32V0H0Z" fill="#f7fcff"/><mask id="A" maskUnits="userSpaceOnUse" x="0" y="0" width="32" height="24"><path fill-rule="evenodd" d="M0 0V24H32V0H0Z" fill="#fff"/></mask><g mask="url(#A)"><path fill-rule="evenodd" d="M0 0v8h32V0H0zm0 16v8h32v-8H0z" fill="#3d58db"/><path d="M19.425 11.858c0 2.011-1.631 3.642-3.642 3.642s-3.642-1.63-3.642-3.642 1.63-3.642 3.642-3.642 3.642 1.63 3.642 3.642z" stroke="#e8aa00"/><path fill-rule="evenodd" d="M13.811 9.662s-.953 1.568-.953 2.644 1.14 2.429 2.934 2.429c1.75 0 3.008-1.045 3.046-2.429s-.941-2.369-.941-2.369.554 1.992.277 2.799-1.174 1.784-2.381 1.66-2.353-1.61-2.353-2.09.371-2.644.371-2.644z" fill="#1e601b"/><path d="M14.161 12.328h3.207" stroke="#188396"/><path d="M14.459 11.806h2.759" stroke="#e8aa00"/><path d="M17.05 12.411h-2.456l1.239-2.056 1.217 2.056z" stroke="#e8aa00"/></g></g><defs><clipPath id="B"><path fill="#fff" d="M0 0h32v24H0z"/></clipPath></defs></svg>
