<svg xmlns="http://www.w3.org/2000/svg" viewBox="0 0 32 24" fill="none"><style><![CDATA[.B{fill-rule:evenodd}.C{fill:#f7fcff}.D{fill:#fbcd17}]]></style><g clip-path="url(#C)"><path fill="#fff" d="M0 0h32v24H0z"/><path d="M0 0V24H32V0H0Z" fill="#e31d1c" class="B"/><mask id="A" maskUnits="userSpaceOnUse" x="0" y="0" width="32" height="24"><path d="M0 0V24H32V0H0Z" fill="#fff" class="B"/></mask><g mask="url(#A)" class="B"><path d="M0 12V24H32V12H0Z" fill="#2e42a5"/></g><path d="M0-2v28l20-14L0-2z" class="B C"/><mask id="B" maskUnits="userSpaceOnUse" x="0" y="-2" width="20" height="28"><path d="M0-2v28l20-14L0-2z" fill="#fff" class="B"/></mask><g mask="url(#B)"><path d="M8.126 10.189c1.437 0 2.601-.938 2.601-2.094S9.563 6 8.126 6s-2.601.938-2.601 2.094 1.165 2.094 2.601 2.094z" class="B D"/><path d="M8.353 6.385c-.212 0-.363.137-.363.343v.023c-.011.034-.018.073-.019.115-.003.11.038.201.123.285.005.024.008.044.007.056-.005-.018-.026-.033-.065-.061-.056-.041-.15-.109-.29-.251-.203-.205-.356-.286-.546-.254-.058.01-.114.03-.182.057-.108.039-.207.048-.391.013-.51-.097-1.07-.002-1.676.279l.21.454c.517-.24.973-.317 1.372-.241.274.052.464.035.654-.034l.095-.034c-.006.001-.002.005.023.029l.084.083a1.85 1.85 0 0 0 .178.158c-.117.032-.111.053-.09.13.009.031.02.072.027.126.015.119-.01.181.011.21s.103.026.355.015l.266-.02.587-.072c.14-.023.178-.031.236-.074h0l.052-.065 1.286-.155.351-.029c.012 0 .012 0 .074-.013h0l.042-.018h0l.123-.29-.127-.153-.092-.027-.02-.001h-.04a18.49 18.49 0 0 0-.082 0c-.083 0-.149-.007-.243-.024l-.088-.016c-.39-.072-.751-.072-1.518.043l-.043-.033c.123-.021.274-.036.433-.045h0l.15-.006.023-.001-.003-.5h-.038-.847zm-.414 1.448l.048-.01.047-.01-.029.006-.066.014z" fill="#da610a" class="B"/><path d="M7.925 8.581l.081.013.081-.013c.993-.163 1.647-.144 2.026-.017.436.146.919.105 1.426-.066-.161.718-.244 1.396-.244 2.034 0 .727.141 1.314.268 1.829l.01.041c.125.504.229.922.229 1.402 0 .431-.143.657-.342.798-.231.164-.617.268-1.188.268-.806 0-1.56.217-2.254.642l-.011-.008-.011.008c-.694-.425-1.448-.642-2.254-.642-.572 0-.957-.104-1.188-.268-.2-.141-.342-.368-.342-.798 0-.48.104-.898.229-1.402l.01-.041c.128-.515.268-1.102.268-1.829 0-.638-.082-1.316-.243-2.034.507.171.99.212 1.426.066.379-.127 1.033-.146 2.026.017z" fill="#56c6f5" stroke="#e31d1c"/><path d="M8.785 10.624l-.771-.686-.771.686h.229v.395l-1.2.747v1.829h-.229v.343h.229 3.486.286v-.343h-.286v-1.829l-1.257-.783v-.36h.286z" class="B C"/><path d="M8.013 9.938l.083-.093-.083-.074-.083.074.083.093zm.771.686v.125h.329l-.246-.218-.083.093zm-1.543 0l-.083-.093-.246.218h.329v-.125zm.229 0h.125v-.125h-.125v.125zm0 .395l.066.106.059-.037v-.069h-.125zm-1.2.747l-.066-.106-.059.037v.069h.125zm0 1.829v.125h.125v-.125h-.125zm-.229 0v-.125h-.125v.125h.125zm0 .343h-.125v.125h.125v-.125zm4 0v.125h.125v-.125h-.125zm0-.343h.125v-.125h-.125v.125zm-.286 0h-.125v.125h.125v-.125zm0-1.829h.125v-.069l-.059-.037-.066.106zm-1.257-.783h-.125v.069l.059.037.066-.106zm0-.36v-.125h-.125v.125h.125zm-.569-.592l.771.686.166-.187-.771-.686-.166.187zm-.605.686l.771-.686-.166-.187-.771.686.166.187zm.146-.218h-.229v.25h.229v-.25zm-.125.125v.395h.25v-.395h-.25zm.059.289l-1.2.748.132.212 1.2-.748-.132-.212zm-1.259.854v1.829h.25v-1.829h-.25zm.125 1.704h-.229v.25h.229v-.25zm-.354.125v.343h.25v-.343h-.25zm.125.468h.229v-.25h-.229v.25zm.229 0h3.486v-.25H6.271v.25zm3.486 0h.286v-.25h-.286v.25zm.411-.125v-.343h-.25v.343h.25zm-.125-.468h-.286v.25h.286v-.25zm-.161.125v-1.829h-.25v1.829h.25zm-.059-1.935l-1.257-.783-.132.212 1.257.783.132-.212zm-1.198-.677v-.36h-.25v.36h.25zm.161-.485h-.286v.25h.286v-.25z" fill="#3b3b3b"/><path d="M7.952 17.02c1.061 0 1.791-.116 2.168-.313.099-.168.272-.262.456-.256.826.03 1.467-.318 1.97-1.083.544-.827.653-2.001.299-3.543l.9-.207c.406 1.766.273 3.192-.427 4.257-.628.954-1.483 1.464-2.527 1.499-.533.395-1.468.569-2.837.569-1.324 0-2.306-.257-2.935-.803-1.43-.338-2.339-.908-2.696-1.753-.381-.901-.381-2.152-.026-3.764l.901.199c-.318 1.442-.318 2.514-.026 3.206.204.483.797.876 1.801 1.149l.933.2-.045.236c.455.266 1.151.409 2.092.409z" class="D"/><path d="M4.767 9.176a.5.5 0 0 0 .277.65l.016.006-.024.05c-.175.364.125.74.478.718l-.012.057c-.103.504.479.756.801.5a.48.48 0 0 0 .469-.385l.057-.241.023.007c.472.142.791-.378.582-.729a.5.5 0 0 0-.585-.719l-.516.158c-.069-.019-.143-.024-.217-.011a.5.5 0 0 0-.189-.133l-.511-.206a.5.5 0 0 0-.65.277zm2.062 1.356l.122-.517-.631.364.509.153z" fill="#73be4a" class="B"/><path d="M6.205 10.476a.5.5 0 1 0 0-1 .5.5 0 1 0 0 1z" class="B D"/><path d="M10.241 10.073c-.008-.336-.046-1.104-.216-1.104s-.198.777-.201 1.11c-.295.097-.518.351-.518.351h1.472s-.232-.265-.537-.357z" class="B C"/><path d="M2.55 12.569l.246.043c-.199 1.146-.199 1.968-.007 2.458.224.57 1.546 1.336 1.92 1.336v.25c-.47 0-1.888-.821-2.153-1.494-.213-.543-.213-1.405-.007-2.592zm10.831-.06l-.246.041c.18 1.075.14 1.914-.116 2.516-.309.725-1.502 1.649-1.815 1.649v.25c.421 0 1.699-.989 2.045-1.801.278-.652.321-1.537.133-2.655zm-6.988 4.915l.047-.246 1.626.229c.284 0 .799-.076 1.538-.229l.051.245c-.755.156-1.282.234-1.589.234s-.861-.078-1.673-.234z" fill="#73be4a"/></g></g><defs><clipPath id="C"><path fill="#fff" d="M0 0h32v24H0z"/></clipPath></defs></svg>
