<svg xmlns="http://www.w3.org/2000/svg" viewBox="0 0 32 24" fill="none"><g clip-path="url(#A)"><path fill="#fff" d="M0 0h32v24H0z"/><g fill-rule="evenodd"><path d="M0 0H32V24H0V0Z" fill="#f7fcff"/><g fill="#409100"><path d="M9.001 13.247L7.754 14l.284-1.469L7 11.431l1.406-.059L9.001 10l.595 1.372H11l-1.036 1.159.312 1.469-1.275-.753zm14 0L21.754 14l.284-1.469-1.038-1.1 1.406-.059.595-1.372.595 1.372H25l-1.036 1.159.312 1.469-1.275-.753z"/></g><path d="M0 0V8H32V0H0Z" fill="#e31d1c"/><path d="M0 16v8h32v-8H0z" fill="#272727"/></g></g><defs><clipPath id="A"><path fill="#fff" d="M0 0h32v24H0z"/></clipPath></defs></svg>
