<svg xmlns="http://www.w3.org/2000/svg" viewBox="0 0 32 24" fill="none"><style><![CDATA[.B{fill-rule:evenodd}.C{fill:#f7fcff}.D{fill:#3d58db}.E{fill:#ffd018}]]></style><g clip-path="url(#B)"><path fill="#fff" d="M0 0h32v24H0z"/><path d="M0 0H32V24H0V0Z" class="B D"/><path d="M0 5h-1v1 12 1h1 32 1v-1V6 5h-1H0z" fill="#c51918" stroke="#ffd018" stroke-width="2"/><use href="#C" class="E"/><use href="#D" class="B C"/><path d="M7.149 13.331c-.12 0-.217-.271-.217-.606s.097-.606.217-.606H24.56c.12 0 .217.271.217.606s-.097.606-.217.606H7.149z" class="E"/><path d="M24.095 12.602l1.011-1.29 1.789 1.29-1.789 1.324-1.011-1.324z" class="B C"/><path d="M4.346 15.822c-.161 0-.291-.308-.291-.688s.13-.688.291-.688H27.69c.161 0 .291.308.291.688s-.13.688-.291.688H4.346z" class="E"/><path d="M8.817 12.053s2.841-5.98 6.905-5.98 7.001 5.98 7.001 5.98-3.586 5.902-6.953 5.902-6.953-5.901-6.953-5.901z" class="B C"/><mask id="A" maskUnits="userSpaceOnUse" x="8" y="6" width="15" height="12"><path d="M8.817 12.053s2.841-5.98 6.905-5.98 7.001 5.98 7.001 5.98-3.586 5.902-6.953 5.902-6.953-5.901-6.953-5.901z" fill="#fff" class="B"/></mask><g mask="url(#A)" class="B"><path d="M15.924 5.68s-.927 1.126-.618 2.2 1.029.96 1.029 1.906-.333 1.91 0 1.91.448.653.144 1.095-.573.456-.555 1.176 1.592 1.427.829 1.427-1.767.74-1.448.74 1.993.577 1.993 1.333v1.362H8.571V5.68h7.353z" fill="#272727"/><path d="M11.819 9.923h-.434v1.769h.434V9.923zm1.281 0h-.434v1.769h.434V9.923zm-1.075 0h.434v1.769h-.434V9.923zm1.716 0h-.434v1.769h.434V9.923zm.206 0h.434v1.769h-.434V9.923zm1.075 0h-.434v1.769h.434V9.923zm-3.638 2.538h.434v1.769h-.434v-1.769zm1.716 0h-.434v1.769h.434v-1.769zm-1.075 0h.434v1.769h-.434v-1.769zm1.716 0h-.434v1.769h.434v-1.769zm.206 0h.434v1.769h-.434v-1.769zm1.075 0h-.434v1.769h.434v-1.769z" class="C"/><path d="M16.977 9.923h-.434v1.769h.434V9.923zm1.282 0h-.434v1.769h.434V9.923zm-1.075 0h.434v1.769h-.434V9.923zm1.716 0h-.434v1.769h.434V9.923zm.206 0h.434v1.769h-.434V9.923zm1.075 0h-.434v1.769h.434V9.923zm-3.638 2.538h.434v1.769h-.434v-1.769zm1.716 0h-.434v1.769h.434v-1.769zm-1.075 0h.434v1.769h-.434v-1.769zm1.716 0h-.434v1.769h.434v-1.769zm.206 0h.434v1.769h-.434v-1.769zm1.075 0h-.434v1.769h.434v-1.769z" fill="#272727"/><path d="M13.232 7.072c-.608.189-.887 1.784-.819 2.17s.275-.048.275-.048.421.915.464 1.161.265-.372.265-.372.73.503.829 1.064.248-.641.248-.641l.165-.029-.105-.594.316.27-.097-.552s.238.311.177-.031l-.094-.533-.082-.467.312-.055s-1.246-1.53-1.854-1.342z" class="D"/></g><g class="B D"><path d="M26.088 13.696c-.632.08-1.183 1.603-1.183 1.995s.279 0 .279 0 .256.974.256 1.224.326-.32.326-.32.632.622.632 1.192.355-.589.355-.589h.168v-.603l.264.32v-.56s.18.347.18 0v-.541-.474h.317s-.961-1.723-1.593-1.643zm-20.495-.231c.632.08 1.183 1.603 1.183 1.995s-.279 0-.279 0-.256.974-.256 1.224-.326-.32-.326-.32-.632.622-.632 1.191-.355-.589-.355-.589H4.76v-.603l-.264.32v-.561s-.18.347-.18 0v-.541-.474H4s.961-1.723 1.593-1.643z"/></g></g><defs><clipPath id="B"><path fill="#fff" d="M0 0h32v24H0z"/></clipPath><path id="C" d="M7.149 9.331c-.12 0-.217-.271-.217-.606s.097-.606.217-.606H24.56c.12 0 .217.271.217.606s-.097.606-.217.606H7.149z"/><path id="D" d="M24.095 8.602l1.011-1.29 1.789 1.29-1.789 1.324-1.011-1.324z"/></defs></svg>
