<svg xmlns="http://www.w3.org/2000/svg" viewBox="0 0 32 24" fill="none"><style><![CDATA[.B{fill-rule:evenodd}]]></style><g clip-path="url(#B)"><path fill="#fff" d="M0 0h32v24H0z"/><path d="M0 0V24H32V0H0Z" fill="#2e42a5" class="B"/><mask id="A" maskUnits="userSpaceOnUse" x="0" y="0" width="32" height="24"><path d="M0 0V24H32V0H0Z" fill="#fff" class="B"/></mask><g mask="url(#A)" class="B"><path d="M18.789 6.2h4.008.032 4.008l-.784 1.504h-2.442v.808h1.872l-.762 1.399h-1.109v2.798l1.827-2.879 2.365 4.095h-.966l-.337-.448h-2.14l-1.505 2.781v.154l-.042-.077-.042.077v-.154l-1.505-2.781h-2.14l-.337.448h-.966l2.365-4.095 1.827 2.879V7.704h-2.442L18.789 6.2zm6.697 5.309l-.525.808h.994l-.469-.808zm-5.345 0l.525.808h-.994l.469-.808zm-3.827-.896l.831-.613.831.613-.293-1.027.807-.648-1.012-.022-.332-1.013-.332 1.013-1.012.022.807.648-.293 1.027zm12.142-.613l-.831.613.293-1.027-.807-.648 1.012-.022.332-1.013.332 1.013 1.012.022-.807.648.293 1.027-.831-.613zm-3.376 7.803l.831-.613.831.613-.293-1.027.807-.648-1.012-.022-.332-1.013-.332 1.013-1.012.022.807.648-.293 1.027zm-5.39-.613l-.831.613.293-1.027-.807-.648 1.012-.022.332-1.013.332 1.013 1.012.022-.807.648.293 1.027-.831-.613zm2.279 3.009l.831-.613.831.613-.293-1.027.807-.648-1.012-.022-.332-1.013-.332 1.013-1.012.022.807.648-.293 1.027z" fill="#f7fcff"/><path d="M8 0h4v10H8V0z" fill="#f50100"/><path d="M0 0H4V10H0V0Z" fill="#2e42a5"/><path d="M4 0H8V10H4V0Z" fill="#f7fcff"/></g></g><defs><clipPath id="B"><path fill="#fff" d="M0 0h32v24H0z"/></clipPath></defs></svg>
