<svg xmlns="http://www.w3.org/2000/svg" viewBox="0 0 32 24" fill="none"><g clip-path="url(#A)"><path fill="#fff" d="M0 0h32v24H0z"/><path d="M0-1h-1v1 24 1h1 32 1v-1V0-1h-1H0z" fill="#5eaa22" stroke="#f7fcff" stroke-width="2"/><g fill-rule="evenodd" fill="#feca00"><path d="M0 6v4h32V6H0zm0 8v4h32v-4H0z"/></g><path fill="#f50101" d="M0 0h16v14H0z"/><path fill-rule="evenodd" d="M8.25 10.144l-3.719 2.301 1.444-3.864L3 5.979h3.648L8.25 2.13l1.223 3.849h3.604l-2.531 2.603 1.246 3.674-3.541-2.112z" fill="#f7fcff"/></g><defs><clipPath id="A"><path fill="#fff" d="M0 0h32v24H0z"/></clipPath></defs></svg>
