<svg xmlns="http://www.w3.org/2000/svg" viewBox="0 0 32 24" fill="none"><g clip-path="url(#A)"><path fill="#fff" d="M0 0h32v24H0z"/><g fill-rule="evenodd"><path d="M0 0H32V24H0V0Z" fill="#f7fcff"/><path d="M0 0V8H32V0H0Z" fill="#c51918"/><path d="M0 16v8h32v-8H0z" fill="#409100"/><g fill="#fb0"><path d="M16.02 8.63l-.591.418.208-.7-.574-.442.72-.015.236-.691.236.691.72.015-.574.442.209.7-.591-.418zm-2.497.613l-.591.418.209-.7-.574-.442.72-.015.236-.691.236.691.72.015-.574.442.209.7-.591-.418zm-2.533 2.256l.591-.418.591.418-.209-.7.574-.442-.72-.015-.236-.691-.236.691-.72.015.574.442-.209.7zm-.033 1.965l-.591.418.209-.7L10 12.74l.72-.015.236-.691.236.691.72.015-.574.442.209.7-.591-.418zm9.467.418l.591-.418.591.418-.209-.7.574-.442-.72-.015-.236-.691-.236.691-.72.015.574.442-.208.7zm-.172-2.801l-.591.418.209-.7-.574-.442.72-.015.236-.691.236.691.72.015-.574.442.209.7-.591-.418zM17.747 9.66l.591-.418.591.418-.209-.7.574-.442-.72-.015-.236-.691-.236.691-.72.015.574.442-.209.7zm-5.08 7.094l-.184-.656c1.02-.276 2.191-.413 3.513-.413s2.493.137 3.513.413l-.184.656c-.956-.259-2.066-.389-3.329-.389s-2.373.13-3.329.389zm1.263-1.053c-.407.069-.74-.324-.74-.324l.404-.167c-.013-.28.156-.453.156-.453.137.063.323.407.323.407h.366s-.102.469-.509.538zm4.81-.256s-.333.393-.74.324-.509-.538-.509-.538h.366s.186-.344.323-.407c0 0 .169.174.156.454l.404.167zm-2.795.131c-.413.012-.687-.424-.687-.424l.423-.109c.026-.279.218-.427.218-.427.126.081.263.448.263.448l.362.051s-.166.45-.579.462z"/><path d="M15.959 13.699s-.469 1.073-1.208 1.156-1.114-.61-1.114-.61-.048.721-.926.999-1.339-.833-1.339-.833.457.409 1.165.231.988-.835.988-.835.524.685 1.226.343 1.089-.761 1.089-1.163v-1.202s-.181-.312-.495-.312-.402.221-.402.221-.122-1.25 1.007-1.328v-.003l.031.001.031-.001v.003c1.129.077 1.007 1.328 1.007 1.328s-.088-.221-.402-.221-.495.312-.495.312v1.202c0 .402.388.821 1.089 1.163s1.226-.343 1.226-.343.28.657.988.835 1.165-.231 1.165-.231-.462 1.111-1.339.833-.926-.999-.926-.999-.375.693-1.114.61-1.208-1.156-1.208-1.156l-.023-1.417-.023 1.417zm-.01-2.997c-.521 0-.626.441-.626.441.459 0 .626.2.626.2s.34-.2.681-.2c0 0-.16-.441-.681-.441z"/></g></g></g><defs><clipPath id="A"><path fill="#fff" d="M0 0h32v24H0z"/></clipPath></defs></svg>
