<svg xmlns="http://www.w3.org/2000/svg" viewBox="0 0 32 24" fill="none"><g clip-path="url(#B)"><path fill="#fff" d="M0 0h32v24H0z"/><path fill-rule="evenodd" d="M0 0V24H32V0H0Z" fill="#2e42a5"/><mask id="A" maskUnits="userSpaceOnUse" x="0" y="0" width="32" height="24"><path fill-rule="evenodd" d="M0 0V24H32V0H0Z" fill="#fff"/></mask><g mask="url(#A)"><path fill-rule="evenodd" d="M3.294 10.063l-.886.548.344-.92L2 8.995h.913L3.294 8l.291.995H4.5l-.659.696.323.92-.869-.548zm4-4l-.886.548.344-.92L6 4.995h.913L7.294 4l.291.995H8.5l-.659.696.323.92-.869-.548zm4.001 4l-.886.548.344-.92L10 8.995h.913L11.295 8l.291.995h.914l-.659.696.323.92-.869-.548zm-4.001 4l-.886.548.344-.92L6 12.995h.913L7.294 12l.291.995H8.5l-.659.697.323.92-.869-.548z" fill="#f7fcff"/><path fill-rule="evenodd" d="M24.842 5.463C20.759 7.48 7.341 16.545 7.341 16.545h22.351l-.628-.131c-1.641-.327-2.451-.488-4.222-4.018-1.984-3.952 0-6.934 0-6.934zM6.616 17.965l-.306.76.306.835 22.754.44.631-1.16-.631-.835-22.754-.04z" fill="#feca00"/></g></g><defs><clipPath id="B"><path fill="#fff" d="M0 0h32v24H0z"/></clipPath></defs></svg>
