<svg xmlns="http://www.w3.org/2000/svg" viewBox="0 0 32 24" fill="none"><style><![CDATA[.B{fill-rule:evenodd}.C{fill:#e8aa00}.D{fill:#c51918}.E{fill:#fff}.F{fill:#389f5d}.G{fill:#e1e5e8}.H{fill:#f9e8e7}.I{fill:#29ae66}]]></style><g clip-path="url(#D)"><path d="M0 0h32v24H0z" class="E"/><path d="M0 0V24H32V0H0Z" fill="#29c470" class="B"/><mask id="A" maskUnits="userSpaceOnUse" x="0" y="0" width="32" height="24"><path d="M0 0V24H32V0H0Z" class="B E"/></mask><g mask="url(#A)"><path d="M2-.323h10V26H2z" class="D"/><mask id="B" maskUnits="userSpaceOnUse" x="2" y="-1" width="10" height="27"><path d="M2-.323h10V26H2z" class="E"/></mask><g mask="url(#B)"><path d="M2.595.906l-.546.702L2 1.559l.53-.681V.741l.002-.013.062-.19-.038-.066-.312.312.602-.938v.321l.116.104.276-.483-.277-.465-.2.154.081.163-.056.039-.451-.755.288.197.051-.073-.276-.281.122-.134-.403-.588L2.168-2l.438.64-.114.125.269.274-.124.18-.082-.056.157.263.265-.204.338.567-.339.593L2.78.203V.075l-.198.308.084.147-.071.218v.158zM2.049 6.63l.546-.702v-.158l.071-.218-.084-.147.198-.308v.128l.197.178.339-.593-.338-.567-.265.204-.157-.263.082.056.124-.18-.269-.274.114-.125-.438-.64-.052.045.403.588-.122.134.276.281-.051.073-.288-.197.451.755.056-.039-.081-.163.2-.154.277.465-.276.483-.116-.104V4.87l-.602.938.312-.312.038.066-.062.19-.002.013v.137L2 6.582l.049.049zm.546 3.878l-.546.702L2 11.161l.53-.681v-.137l.002-.013.062-.19-.038-.066-.312.312.602-.938v.321l.116.104.276-.483-.277-.465-.2.154.081.163-.056.039-.451-.755.288.197.051-.073-.276-.281.122-.134-.403-.588.052-.045.438.64-.114.125.269.274-.124.18-.082-.056.157.263.265-.204.338.567-.339.593-.197-.178v-.128l-.198.308.084.147-.071.218v.158zm-.546 5.355l.546-.702v-.158l.071-.218-.084-.147.198-.308v.128l.197.178.339-.593-.338-.567-.265.204-.157-.263.082.056.124-.18-.269-.274.114-.125-.438-.64-.052.045.403.588-.122.134.276.281-.051.073-.288-.197.451.755.056-.039-.081-.163.2-.154.277.465-.276.483-.116-.104v-.32l-.602.938.312-.312.038.066-.062.19-.002.013v.137l-.53.681.049.049zm0 4.137l.546-.702v-.158l.071-.218-.084-.147.198-.308v.128l.197.178.339-.592-.338-.567-.265.204-.157-.263.082.056.124-.18-.269-.274.114-.125-.438-.64-.052.045.403.588-.122.134.276.281-.051.073-.288-.197.451.755.056-.039-.081-.163.2-.154.277.465-.276.483-.116-.104v-.321l-.602.938.312-.312.038.066-.062.19-.002.013v.137l-.53.681.049.049zm9.901 0l-.546-.702v-.158l-.071-.218.084-.147-.198-.308v.128l-.197.178-.339-.592.338-.567.265.204.157-.263-.082.056-.124-.18.269-.274-.114-.125.438-.64.052.045-.403.588.122.134-.275.281.051.073.287-.197-.451.755-.056-.039.081-.163-.2-.154-.277.465.276.483.116-.104v-.321l.602.938-.312-.312-.038.066.062.19.002.013v.137l.53.681-.049.049zm-.546-4.838l.546.702.049-.049-.53-.681v-.137l-.002-.013-.062-.19.038-.066.312.312-.602-.938v.32l-.116.104-.276-.483.277-.465.2.154-.081.163.056.039.451-.755-.287.197-.051-.073.275-.281-.122-.134.403-.588-.052-.045-.438.64.114.125-.269.274.124.18.082-.056-.157.263-.265-.204-.338.567.339.593.197-.178v-.128l.198.308-.084.147.071.218v.158zm.546-3.952l-.546-.702v-.158l-.071-.218.084-.147-.198-.308v.128l-.197.178-.339-.593.338-.567.265.204.157-.263-.082.056-.124-.18.269-.274-.114-.125.438-.64.052.045-.403.588.122.134-.275.281.051.073.287-.197-.451.755-.056-.039.081-.163-.2-.154-.277.465.276.483.116-.104V9.45l.602.938-.312-.312-.038.066.062.19.002.013v.137l.53.681-.049.049zm-.546-5.281l.546.702.049-.049-.53-.681v-.137l-.002-.013-.062-.19.038-.066.312.312-.602-.938v.321l-.116.104-.276-.483.277-.465.2.154-.081.163.056.039.451-.755-.287.197-.051-.073.275-.281-.122-.134.403-.588-.052-.045-.438.64.114.125-.269.274.124.18.082-.056-.157.263-.265-.204-.338.567.339.593.197-.178v-.128l.198.308-.084.147.071.218v.158zm.546-4.321l-.546-.702V.748L11.334.53l.084-.147-.198-.308v.128l-.197.178-.339-.593.338-.567.265.204.157-.263-.082.056-.124-.18.269-.274-.114-.125.438-.64.052.045-.403.588.122.134-.275.281.051.073.287-.197-.451.755-.056-.039.081-.163-.2-.154-.277.465.276.483.116-.104v-.321l.602.938-.312-.312-.038.066.062.19.002.013v.137l.53.681-.049.049z" class="B C"/><path d="M7.307 14.565H8.86v.364h.354v.292h.425v.948h-.425v.292H8.86v.292H7.348l-.418.372-.42-.372H5.108v-.292h-.354v-.292H4.4v-.948h.354v-.292h.354v-.364h1.443l.379-.335.377.335z" class="B F"/><path d="M8.86 14.565h.25v-.25h-.25v.25zm-1.554 0l-.166.187.071.063h.095v-.25zm1.554.364h-.25v.25h.25v-.25zm.354 0h.25v-.25h-.25v.25zm0 .292h-.25v.25h.25v-.25zm.425 0h.25v-.25h-.25v.25zm0 .948v.25h.25v-.25h-.25zm-.425 0v-.25h-.25v.25h.25zm0 .292v.25h.25v-.25h-.25zm-.354 0v-.25h-.25v.25h.25zm0 .292v.25h.25v-.25h-.25zm-1.512 0v-.25h-.095l-.071.063.166.187zm-.418.372l-.166.187.166.147.166-.147-.166-.187zm-.42-.372l.166-.187-.071-.063H6.51v.25zm-1.402 0h-.25v.25h.25v-.25zm0-.292h.25v-.25h-.25v.25zm-.354 0h-.25v.25h.25v-.25zm0-.292h.25v-.25h-.25v.25zm-.354 0h-.25v.25h.25v-.25zm0-.948v-.25h-.25v.25h.25zm.354 0v.25h.25v-.25h-.25zm0-.292v-.25h-.25v.25h.25zm.354 0v.25h.25v-.25h-.25zm0-.364v-.25h-.25v.25h.25zm1.443 0v.25h.095l.071-.063-.166-.187zm.379-.335l.166-.187-.166-.147-.166.147.166.187zm1.93.085H7.307v.5H8.86v-.5zm.25.614v-.364h-.5v.364h.5zm.104-.25H8.86v.5h.354v-.5zm.25.542v-.292h-.5v.292h.5zm.175-.25h-.425v.5h.425v-.5zm.25 1.198v-.948h-.5v.948h.5zm-.675.25h.425v-.5h-.425v.5zm.25.042v-.292h-.5v.292h.5zm-.604.25h.354v-.5H8.86v.5zm.25.042v-.292h-.5v.292h.5zm-1.762.25H8.86v-.5H7.348v.5zm-.252.309l.418-.372-.332-.374-.418.372.332.374zm-.752-.371l.42.372.331-.375-.42-.372-.331.374zm-1.236.063H6.51v-.5H5.108v.5zm-.25-.542v.292h.5v-.292h-.5zm-.104.25h.354v-.5h-.354v.5zm-.25-.542v.292h.5v-.292h-.5zm-.104.25h.354v-.5H4.4v.5zm-.25-1.198v.948h.5v-.948h-.5zm.604-.25H4.4v.5h.354v-.5zm-.25-.042v.292h.5v-.292h-.5zm.604-.25h-.354v.5h.354v-.5zm-.25-.114v.364h.5v-.364h-.5zm1.693-.25H5.108v.5h1.443v-.5zm.166.437l.379-.335-.331-.374-.379.335.331.374zm.047-.335l.377.335.332-.374-.377-.335-.332.374z" class="C"/><path d="M5.315 15.407v-.644h.751l-.751.644zm3.158 0v-.644h-.751l.751.644zm-3.158 1.167v-.644l.751.644h-.751zm3.158-.644v.644h-.751l.751-.644z" class="B D"/><path d="M6.645 14.819l.259-.339.256.339h-.515zm0 .317l.259.339.256-.339h-.515zm.259.802l-.259.339h.515l-.256-.339zm-.259.656l.259.339.256-.339h-.515z" class="B C"/><path d="M6.65 14.778v.146h-.149v.2h.149v.146h.519v-.146h.149v-.2H7.17v-.146h-.52zm.519 1.604v-.146H6.65v.146h-.149v.2h.149v.146h.519v-.146h.149v-.2H7.17zm-1.515-.833l.247-.341.244.341h-.49zm0 .318l.247.341.244-.341h-.49zm2.3-.659l-.247.341h.49l-.244-.341zm-.247.659l.247.341.244-.341h-.49z" fill="#af0100" class="B"/><path d="M5.652 15.508v.149h-.142v.204h.142v.149h.494v-.149h.142v-.204h-.142v-.149h-.494zm2.547.149v-.149h-.494v.149h-.142v.204h.142v.149h.494v-.149h.142v-.204h-.142z" class="B C"/><mask id="C" maskUnits="userSpaceOnUse" x="4" y="17" width="6" height="4"><path d="M6.217 17.251l-1.772.999v1.656l1.772 1.039h1.919l1.814-1.039V18.25l-1.814-.999H6.217z" class="B E"/></mask><g mask="url(#C)"><path d="M4.471 19.096h2.761v1.823H4.471v-1.823z" class="C"/><path d="M4.188 17.273h3.044v1.823H4.188z" class="H"/><path d="M4.896 18.335l.917-.552v.552h-.917z" class="C"/><path transform="matrix(-1 0 0 1 10.2761 17.2729)" d="M0 0h3.044v1.823H0z" class="C"/><path d="M9.356 18.335l-.917-.552v.552h.917z" class="H"/><path transform="rotate(180 9.993 20.919)" d="M9.993 20.919h2.761v1.823H9.993z" class="H"/><path d="M9.285 19.856l-.917.552v-.552h.917z" class="C"/><path d="M4.896 19.741l.917.552v-.552h-.917z" fill="#fcfcfc"/></g><path d="M6.241 18.367h.46l.46-.146.46.146h.46v1.385h-.46l-.46.219-.46-.219h-.46v-1.385z" class="B D"/><path d="M7.798 17.538h.25v.282h.102v.2h-.102v.108h-.25v-.59zm-2.511.875h-.25v.59h.25v-.108h.102v-.2h-.102v-.282zm.354 0h-.25v.59h.25v-.59zm-.354.729h-.25v.59h.25v-.108h.102v-.2h-.102v-.282zm.104 0h.25v.59h-.25v-.59zm3.54-.729h.25v.282h.102v.2h-.102v.108h-.25v-.59zm.604 0h-.25v.59h.25v-.59zm-.354.729h-.25v.59h.25v-.108h.102v-.2h-.102v-.282zm.104 0h.25v.59h-.25v-.59zm-.883-1.604h-.25v.59h.25v-.59zm-2.053 0h-.25v.59h.25v-.108h.102v-.2h-.102v-.282zm.104 0h.25v.59h-.25v-.59zm1.345 2.479h.25v.282h.102v.2h-.102v.108h-.25v-.59zm.604 0h-.25v.59h.25v-.59zm-2.053 0h-.25v.59h.25v-.108h.102v-.2h-.102v-.282zm.104 0h.25v.59h-.25v-.59z" fill="#c9343f" class="B"/><path d="M7.025 18.666h.071v-.198h-.354v.227h-.292v.325h.271v-.073h-.2v-.179h.24l.362.313-.362.313h-.24v-.179h.2v-.073h-.271v.325h.292v.227h.354v-.198h-.071v.125h-.212v-.176l.368-.319.368.319v.176h-.212v-.125h-.071v.198h.354v-.227h.292v-.325H7.64v.073h.2v.179H7.6l-.362-.313.362-.313h.24v.179h-.2v.073h.271v-.325H7.62v-.227h-.354v.198h.071v-.125h.212v.176l-.368.319-.368-.319v-.176h.212v.125z" class="B E"/><path d="M7.584 4.8H6.338v4h1.247v-4zm-2.805.846h.779V7.8h-.779V5.646zm3.662 0h.779V7.8h-.779V5.646z" class="B C"/><path d="M6.338 5.108h-.779v3.077h.779V5.108zm-1.558.846H4v1.462h.779V5.954zm4.442 0H10v1.462h-.779V5.954zm-.857-.846h-.779v3.077h.779V5.108z" class="B F"/><path d="M6.182 5.492c0 .127-.105.231-.234.231s-.234-.103-.234-.231.105-.231.234-.231.234.103.234.231zm-1.558.769c0 .127-.105.231-.234.231s-.234-.103-.234-.231.105-.231.234-.231.234.103.234.231zm0 .846c0 .127-.105.231-.234.231s-.234-.103-.234-.231.105-.231.234-.231.234.103.234.231zm1.325.923c.129 0 .234-.103.234-.231s-.105-.231-.234-.231-.234.103-.234.231.105.231.234.231zM9.61 6.492c.129 0 .234-.103.234-.231s-.105-.231-.234-.231-.234.103-.234.231.105.231.234.231zm.234.615c0 .127-.105.231-.234.231s-.234-.103-.234-.231.105-.231.234-.231.234.103.234.231zm-1.87.923c.129 0 .234-.103.234-.231s-.105-.231-.234-.231-.234.103-.234.231.105.231.234.231zm.234-2.538c0 .127-.105.231-.234.231s-.234-.103-.234-.231.105-.231.234-.231.234.103.234.231z" class="B G"/><path d="M7.195 5.185c0 .127-.105.231-.234.231s-.234-.103-.234-.231.105-.231.234-.231.234.103.234.231zm-1.792.846c0 .127-.105.231-.234.231s-.234-.103-.234-.231.105-.231.234-.231.234.103.234.231zm1.558 2.692c.129 0 .234-.103.234-.231s-.105-.231-.234-.231-.234.103-.234.231.105.231.234.231zm2.104-2.692c0 .127-.105.231-.234.231s-.234-.103-.234-.231.105-.231.234-.231.234.103.234.231zM5.169 7.646c.129 0 .234-.103.234-.231s-.105-.231-.234-.231-.234.103-.234.231.105.231.234.231zm3.896-.231c0 .127-.105.231-.234.231s-.234-.103-.234-.231.105-.231.234-.231.234.103.234.231z" class="B D"/><path d="M5.607 6.391l.759-.685h1.232l.864.786H9.61V6.8H8.492v.016l-.896.911H6.365l-.759-.822V6.8H4.312v-.308h1.295v-.101z" class="B D"/><path d="M7.011 6.276l.368.373-.387.366-.387-.366.368-.373.018-.017.018.017zm.067.901l.043-.04-.044-.042.384-.364.4.406-.18.19h-.107l-.199.125-.297-.275zm-.085.079l-.369.342-.247-.155h-.123l-.291-.307.478-.484-.481-.455.315-.306.114.09.165-.167-.05-.05.084-.081.404.41.404-.41.084.081-.05.05.165.167.114-.09.315.306-.481.455.478.484-.291.307h-.123l-.247.155-.369-.342zm.206-.956l.005-.005-.111-.102-.014-.014.288-.266.22.222.116-.091.156.151-.395.374-.265-.269zm-.247.836l-.342.316-.199-.125h-.107l-.18-.19.4-.406.427.405zm-.824-.941l.395.374.385-.39-.288-.266-.22.222-.116-.091-.156.151zm-1.68 15.247c-.209-.265-.35-.444-.387-.442-.117.009-.226 1.244 1.29 2.184 0 0 .224.124.354 0s0-.308 0-.308c-.49-.461-.948-1.042-1.257-1.434h0 0zm5.103 0h0 0c.209-.265.35-.444.387-.442.117.009.226 1.244-1.29 2.184 0 0-.224.124-.354 0s0-.308 0-.308c.49-.461.948-1.042 1.257-1.434zm-.111 1.662c-.498.147-1.075.178-1.296.083-.07-.03-.145-.054-.224-.072-.22-.05-.434-.05-.687-.022l-.094.011h0l-.007.001-.04.004c-.015 0-.031.002-.049.006-.018-.004-.034-.006-.049-.006a.72.72 0 0 1-.04-.004l-.1-.012c-.254-.028-.468-.027-.687.022-.079.018-.153.042-.224.072-.221.095-.798.064-1.296-.083 0 0 .907.364 1.445.203a.95.95 0 0 1 .165-.053 1.55 1.55 0 0 1 .499-.02l-.279.123v.044a2.41 2.41 0 0 1 .566-.139 2.41 2.41 0 0 1 .566.139v-.044l-.279-.123a1.55 1.55 0 0 1 .499.02.95.95 0 0 1 .165.053c.539.161 1.445-.203 1.445-.203z" class="B C"/><path d="M5.764 9.977l-1.252 1.103v1.051l1.094 1.1h2.235l1.232-1.173v-.895L7.841 9.977H5.764z" class="B F"/><path d="M6.195 10.094h-.283v.219h.283v-.219zm0 2.86h-.283v.219h.283v-.219zm.425 0h.283v.219h-.283v-.219zm.283-2.86h-.283v.219h.283v-.219zm.425 2.86h.283v.219h-.283v-.219zm.283-2.86h-.283v.219h.283v-.219z" class="B D"/><path d="M6.554 10.038h-.288v.219h.288v-.219zm0 2.917h-.288v.219h.288v-.219zm.432-2.917h.288v.219h-.288v-.219zm.288 2.917h-.288v.219h.288v-.219z" class="B C"/><path d="M4.914 9.842h3.78v.584h.541v2.415h-.541v.499h-3.78v-.499h-.588v-2.415h.588v-.584zm.212.803h-.588v1.977h.588v.499h3.355v-.499h.541v-1.977h-.541v-.584H5.126v.584z" fill="#750100" class="B"/><path d="M6.407 9.6h-.354v.365h.354V9.6zm.566 0h-.354v.365h.354V9.6zm.212 0h.354v.365h-.354V9.6zm-.779 3.646h-.354v.365h.354v-.365zm.212 0h.354v.365h-.354v-.365zm.92 0h-.354v.365h.354v-.365zm-3.545-.807v-.354h.365v.354h-.365zm0-.937v.354h.365v-.354h-.365zm0-.229v-.354h.365v.354h-.365zm5.097.813v.354h.365v-.354h-.365zm0-.229v-.354h.365v.354h-.365zm0-.937v.354h.365v-.354h-.365z" class="B F"/><path d="M5.778 10.285l-.611.531v1.718l.507.359h2.197l.506-.359v-1.718l-.571-.531H5.778z" class="B D"/><path d="M6.803 10.997l-.737.63h.737v-.63z" class="B G"/><path d="M6.803 12.197l-.737-.63h.737v.63z" class="C"/><path d="M6.739 10.997l.737.63h-.737v-.63z" class="B C"/><path d="M6.772 11.796c.123 0 .223-.1.223-.223s-.1-.223-.223-.223-.223.1-.223.223.1.223.223.223z" class="B I"/><path d="M6.739 12.197l.737-.63h-.737v.63z" class="G"/><path d="M5.204 11.35h-.637v.204h.637v-.204zm0 .372h-.637v.204h.637v-.204zm3.186-.372h.637v.204h-.637v-.204zm.637.372h-.637v.204h.637v-.204z" class="B D"/><path d="M5.133 11.131h-.566v.223h.566v-.223zm0 .372h-.566v.223h.566v-.223zm-.566.372h.566v.223h-.566v-.223zm4.389-.744H8.39v.223h.566v-.223zm-.566.372h.566v.223H8.39v-.223zm.566.372H8.39v.223h.566v-.223zM9.985 1.59l-.002.405H7.024l-.002 1.84h-.928c-.162 0-.606-.311-.606-.311h-.753l-.348-.355v-.357l-.373-.443.002-.405h2.959l.002-1.84h.928c.162 0 .606.311.606.311h.753l.348.355v.357l.373.443z" class="B C"/><path d="M4.014 1.59l.002.405h2.959l.002 1.84h.928c.162 0 .606-.311.606-.311h.753l.348-.355v-.357l.373-.443-.002-.405H7.024L7.022.124h-.928c-.162 0-.606.311-.606.311h-.753L4.387.79v.357l-.373.443z" class="B G"/><path d="M6.002.685L5.97.529l.638-.147c.077-.037.21-.142.393-.314l.086.097.015-.017c.183.171.316.277.393.314l.638.147L8.1.765 7.746.692l.034.03a.44.44 0 0 0-.079.064L7.551.764l.014-.051-.038-.006a1.7 1.7 0 0 0-.093.221L7.286.885l.061-.29-.338-.317L6.772.5c.029.027.059.057.088.092l-.072.025-.01.002.039.185-.149.044-.056-.144-.012.002A.44.44 0 0 0 6.52.643l.042-.038-.02-.031-.54.111zm.026.573l.085-.134-.441-.296.049-.069-.126-.095-.054.076-.175-.117-.085.134.168.112-.035.048.126.095.04-.055.448.3zm-.545.16l.085-.134-.441-.296.049-.069-.126-.095-.054.076-.175-.117-.085.134.168.112-.035.048.126.095.04-.055.448.3zm-.234.48l.085-.134-.441-.296.049-.069-.126-.095-.054.076-.175-.117-.085.134.168.112-.035.048.126.095.04-.055.448.3zm.007.384l-.085-.134-.448.3-.04-.055-.126.095.035.048-.168.112.085.134.175-.117.054.076.126-.095-.049-.069.441-.296zm.149.346l.085.134-.441.296.049.069-.126.095-.054-.076-.175.117-.085-.134.168-.112-.035-.048.126-.095.04.055.448-.3zm.545.16l.085.134-.441.296.049.069-.126.095-.054-.076-.175.117-.085-.134.168-.112-.035-.048.126-.095.04.055.448-.3zm.832.765l-.072-.025-.03-.007.058-.279-.149-.044c-.048.135-.091.228-.125.275l-.54-.111-.032.156.615.141v.001l.089.059.012-.007c.078.054.183.143.315.267l.05-.057.05.057c.183-.171.316-.277.393-.314l.021-.005a.62.62 0 0 0 .081.059l.089-.059-.009-.03.01-.009.447-.103-.032-.156-.54.111c-.034-.047-.077-.139-.125-.275l-.149.044.061.29-.295.277-.228-.214.037-.042zM8.69 2.282l.085-.134.448.3.04-.055.126.095-.035.048.168.112-.085.134-.175-.117-.054.076-.126-.095.049-.069-.441-.296zm-.234.48l.085-.134.448.3.04-.055.126.095-.035.048.168.112-.085.134-.175-.117-.054.076-.126-.095.049-.069-.441-.296zm-.545.16l.085-.134.448.3.04-.055.126.095-.035.048.168.112-.085.134-.175-.117-.054.076-.126-.095.049-.069-.441-.296zm.857-1.078l.085.134.448-.3.04.055.126-.095-.035-.048.168-.112-.085-.134-.175.117-.054-.076-.126.095.049.069-.441.296zm-.234-.48l.085.134.448-.3.04.055.126-.095-.035-.048.168-.112L9.28.864l-.175.117-.054-.076L8.926 1l.049.069-.441.296zm-.545-.16l.085.134.448-.3.04.055.126-.095L8.652.95 8.82.838 8.735.704 8.56.821 8.506.746 8.38.84l.049.069-.441.296z" class="B D"/><path d="M6.208 1.153L7.09.685v1.28h2.182l-.52.374v.49h-.823l-.883.468v-1.28H4.865l.52-.374v-.49h.823z" class="B D"/><path d="M7.929 1.153L7.047.685v1.28H4.865l.52.374v.49h.823l.883.468v-1.28h2.182l-.52-.374v-.49h-.823z" class="B I"/><path d="M5.779 1.485l.144-.284.366.196.101-.15.257.182-.079.117 1.084.58.067-.099.257.182-.045.067.117.063-.144.284-.152-.081-.123.183-.257-.182.101-.15-1.084-.58-.089.132-.257-.182.067-.1-.332-.178z" class="B I"/><path d="M8.09 1.407l-.163-.273-.352.221-.111-.143-.243.199.087.112-1.041.654-.074-.095-.243.199.049.063-.112.071.163.273.145-.091.135.174.243-.199-.111-.143 1.041-.654.098.126.243-.199-.074-.095.319-.2z" class="B D"/></g><path d="M19.073 2s2.33 5.522.26 7.867S12 11.759 12 11.759s6.756 3.052 9.7-1.15S19.073 2 19.073 2zm-4.229 3.248l-.617.434.217-.727-.598-.459.751-.015.247-.718.247.718.751.015-.598.459.218.727-.617-.434zm.119 2.005l-.617.434.218-.727-.599-.459.751-.015.247-.718.247.718.751.015-.598.459.217.727-.617-.434zm-2.491.589l.617-.434.617.434-.218-.727.599-.459-.751-.015-.247-.718-.247.718-.751.015.599.459-.218.727zm2.491 1.515l-.617.434.218-.727-.599-.459.751-.015.247-.718.247.718.751.015-.598.459.217.727-.617-.434zm1.421-2.282l.617-.434.617.434-.217-.727.598-.459-.751-.015-.247-.718-.247.718-.751.015.599.459-.218.727z" fill="#f7fcff" class="B"/></g></g><defs><clipPath id="D"><path d="M0 0h32v24H0z" class="E"/></clipPath></defs></svg>
