<svg xmlns="http://www.w3.org/2000/svg" viewBox="0 0 32 24" fill="none"><g clip-path="url(#B)"><path fill="#fff" d="M0 0h32v24H0z"/><path fill-rule="evenodd" d="M0 0V24H32V0H0Z" fill="#e31d1c"/><mask id="A" maskUnits="userSpaceOnUse" x="0" y="0" width="32" height="24"><path fill-rule="evenodd" d="M0 0V24H32V0H0Z" fill="#fff"/></mask><g mask="url(#A)"><path fill-rule="evenodd" d="M16 20a8 8 0 1 0 0-16 8 8 0 1 0 0 16z" fill="#f7fcff"/><path fill-rule="evenodd" d="M17.403 17.651s-4.216-1.15-4.216-5.677 4.216-5.776 4.216-5.776c-1.743-.675-6.846.361-6.846 5.776s5.245 6.391 6.846 5.677zm-.232-6.662l-2.092.764 2.248.786.076 2.105 1.368-1.635 2.256.16-1.626-1.326.979-1.915-1.912.644-1.325-1.656.027 2.074z" fill="#e31d1c"/></g></g><defs><clipPath id="B"><path fill="#fff" d="M0 0h32v24H0z"/></clipPath></defs></svg>
