<svg xmlns="http://www.w3.org/2000/svg" viewBox="0 0 32 24" fill="none"><g clip-path="url(#B)"><path fill="#fff" d="M0 0h32v24H0z"/><path fill-rule="evenodd" d="M0 0V24H32V0H0Z" fill="#e31d1c"/><mask id="A" maskUnits="userSpaceOnUse" x="0" y="0" width="32" height="24"><path fill-rule="evenodd" d="M0 0V24H32V0H0Z" fill="#fff"/></mask><g mask="url(#A)"><path fill-rule="evenodd" d="M16.026 16.113c-2.141-.527-3.818-2.32-3.799-4.947.018-2.459 1.507-4.538 3.861-5.101s4.426.632 4.426.632c-.651-1.536-2.911-2.615-4.764-2.612-3.449.006-7.126 2.803-7.158 7.081-.033 4.435 3.937 6.961 7.429 6.955 2.799-.005 4.127-1.92 4.402-2.735 0 0-2.257 1.254-4.398.727zm4.878-5.787l-2.133.784 2.407.849-.041 2.537 1.586-1.904 2.62.19-2.076-1.785 1.363-1.904-2.219.747-1.586-1.764.08 2.248z" fill="#f7fcff"/></g></g><defs><clipPath id="B"><path fill="#fff" d="M0 0h32v24H0z"/></clipPath></defs></svg>
