<svg xmlns="http://www.w3.org/2000/svg" viewBox="0 0 32 24" fill="none"><g clip-path="url(#B)"><path fill="#fff" d="M0 0h32v24H0z"/><path fill-rule="evenodd" d="M0 0V24H32V0H0Z" fill="#ef0000"/><mask id="A" maskUnits="userSpaceOnUse" x="0" y="0" width="32" height="24"><path fill-rule="evenodd" d="M0 0V24H32V0H0Z" fill="#fff"/></mask><g mask="url(#A)"><path fill-rule="evenodd" d="M0 0V14H18V0H0Z" fill="#2e42a5"/><path fill-rule="evenodd" d="M8.73 10.811l-1.482 1.848-.359-2.342-2.207.86.86-2.207L3.2 8.611 5.048 7.13 3.2 5.648l2.342-.359-.86-2.207 2.207.86.359-2.342L8.73 3.448 10.211 1.6l.359 2.342 2.207-.86-.86 2.207 2.342.359-1.848 1.482 1.848 1.482-2.342.359.86 2.207-2.207-.86-.359 2.342-1.482-1.848zm0-.819c1.581 0 2.862-1.282 2.862-2.862S10.31 4.267 8.73 4.267 5.867 5.549 5.867 7.13 7.149 9.992 8.73 9.992zm2.29-2.862a2.29 2.29 0 0 1-4.58 0 2.29 2.29 0 0 1 4.58 0z" fill="#feffff"/></g></g><defs><clipPath id="B"><path fill="#fff" d="M0 0h32v24H0z"/></clipPath></defs></svg>
