<svg xmlns="http://www.w3.org/2000/svg" viewBox="0 0 32 24" fill="none"><style><![CDATA[.B{fill-rule:evenodd}.C{fill:#d74800}.D{fill:#272727}]]></style><g clip-path="url(#B)"><path fill="#fff" d="M0 0h32v24H0z"/><path d="M0 0V24H32V0H0Z" fill="#feca00" class="B"/><mask id="A" maskUnits="userSpaceOnUse" x="0" y="0" width="32" height="24"><path d="M0 0V24H32V0H0Z" fill="#fff" class="B"/></mask><g mask="url(#A)"><path d="M0 0h32v4H0z" class="D"/><path d="M0 8h32v4H0z" class="C"/><path d="M0 12h32v4H0z" class="D"/><path d="M0 20h32v4H0z" class="C"/><path d="M16 18a6 6 0 1 0 0-12 6 6 0 1 0 0 12z" fill="#f7fcff" class="B"/><path d="M13.68 8.329l-1.058.347 1.058.091s.171.418 0 .745c-.043.083-.155.189-.298.325-.42.398-1.108 1.051-1.108 2.11 0 1.42 2.741 2.064 2.741 2.064v.675s.318.197-1.497.197c-1.574 0-1.475.598-1.421.925l.016.128c0 .258.756-.258 1.111-.772.186-.271.967-.256 1.768-.182.063.006.647 1.243.14 1.882-.213.268-.949.303-1.408.325-.234.011-.397.019-.382.052.011.025.15.017.351.005.252-.015.601-.036.923-.005.049.005-.141.169-.332.335-.197.171-.397.345-.341.347.063.003.433-.202.769-.388l.571-.295c.253 0 .482.031.683.059.335.046.592.081.754-.059.05-.043-.239-.112-.533-.183-.303-.073-.613-.147-.564-.195.279-.277.162-.857.071-1.313-.041-.205-.077-.385-.071-.502.024-.415.463-.197.807-.026.151.075.284.141.356.141.653 0-.158-.826-.603-1.279l-.107-.11c-.226-.234-.068-.202.291-.131.274.054.664.131 1.089.131.981 0 1.697-.319 1.448-1.182-.164-.569-1.062-.763-2.001-.965l-1.389-.373c-1.009-.398-.958-.978-.914-1.468l.017-.274c0-.532.898-1.183.898-1.183s-.41-.687-1.089-.687-.743.687-.743.687zm1.848 6.248v-.502s.42-.014.567.339-.567.163-.567.163z" class="B D"/><path d="M13.077 6.711l1.014 1.202.525-.123-.252-1.213-1.287.135z" class="B C"/><path d="M14.393 6.421l.065 1.807.866-.213.369-1.184-1.299-.411z" fill="#ffd018" class="B"/><path d="M13.577 9.439c.191 0 .346-.151.346-.338s-.155-.337-.346-.337-.346.151-.346.337.155.338.346.338zm2.2-2.68l-1.008 1.207.213.495 1.151-.459-.356-1.244zm2.342 9.134s1.772-.792 1.772-1.899-2.878-2.313-2.878-2.313-1.693.387-.93.906 1.785.718 1.785 1.408.28 1.348-.288 1.348.538.552.538.552z" class="B C"/><path d="M15.562 11.478s-.627.11-.597.212c.082.282.939.648 1.313.902.763.518 1.486.46 2.025.123s-2.741-1.237-2.741-1.237z" fill="#fffdff" class="B"/></g></g><defs><clipPath id="B"><path fill="#fff" d="M0 0h32v24H0z"/></clipPath></defs></svg>
