<svg xmlns="http://www.w3.org/2000/svg" viewBox="0 0 32 24" fill="none"><g clip-path="url(#A)"><path fill="#fff" d="M0 0h32v24H0z"/><g fill-rule="evenodd"><path d="M0 0H32V24H0V0Z" fill="#f7fcff"/><g fill="#e31d1c"><path d="M0 14.667v2h32v-2H0zm0 3.666v2h32v-2H0zm0-11v2h32v-2H0zM0 22v2h32v-2H0zm0-11v2h32v-2H0zM0 0v2h32V0H0zm0 3.667v2h32v-2H0z"/></g></g><path fill="#2e42a5" d="M0 0h20v13H0z"/><path fill-rule="evenodd" d="M1.722 2.939l-.726.509.245-.906-.645-.574h.842l.282-.739.331.739h.718l-.564.574.218.906-.702-.509zm4 0l-.726.509.245-.906-.645-.574h.842l.282-.739.331.739h.718l-.564.574.218.906-.702-.509zm3.274.509l.726-.509.702.509-.218-.906.564-.574h-.718l-.331-.739-.282.739h-.842l.645.574-.245.906zm4.726-.509l-.726.509.245-.906-.645-.574h.842l.282-.739.331.739h.718l-.564.574.218.906-.702-.509zM.996 7.448l.726-.509.702.509-.218-.906.564-.574h-.718l-.331-.739-.282.739H.596l.645.574-.245.906zm4.726-.509l-.726.509.245-.906-.645-.574h.842l.282-.739.331.739h.718l-.564.574.218.906-.702-.509zm3.274.509l.726-.509.702.509-.218-.906.564-.574h-.718l-.331-.739-.282.739h-.842l.645.574-.245.906zm4.726-.509l-.726.509.245-.906-.645-.574h.842l.282-.739.331.739h.718l-.564.574.218.906-.702-.509zM.996 11.448l.726-.509.702.509-.218-.906.564-.574h-.718l-.331-.739-.282.739H.596l.645.574-.245.906zm4.726-.509l-.726.509.245-.906-.645-.574h.842l.282-.739.331.739h.718l-.564.574.218.906-.702-.509zm3.274.509l.726-.509.702.509-.218-.906.564-.574h-.718l-.331-.739-.282.739h-.842l.645.574-.245.906zm4.726-.509l-.726.509.245-.906-.645-.574h.842l.282-.739.331.739h.718l-.564.574.218.906-.702-.509zm3.274-7.491l.726-.509.702.509-.218-.906.564-.574h-.718l-.331-.739-.282.739h-.842l.645.574-.245.906zm.726 3.491l-.726.509.245-.906-.645-.574h.842l.282-.739.331.739h.718l-.564.574.218.906-.702-.509zm-.726 4.509l.726-.509.702.509-.218-.906.564-.574h-.718l-.331-.739-.282.739h-.842l.645.574-.245.906zM3.722 4.939l-.726.509.245-.906-.645-.574h.842l.282-.739.331.739h.718l-.564.574.218.906-.702-.509zm3.274.509l.726-.509.702.509-.218-.906.564-.574h-.718l-.331-.739-.282.739h-.842l.645.574-.245.906zm4.726-.509l-.726.509.245-.906-.645-.574h.842l.282-.739.331.739h.718l-.564.574.218.906-.702-.509zM2.996 9.448l.726-.509.702.509-.218-.906.564-.574h-.718l-.331-.739-.282.739h-.842l.645.574-.245.906zm4.726-.509l-.726.509.245-.906-.645-.574h.842l.282-.739.331.739h.718l-.564.574.218.906-.702-.509zm3.274.509l.726-.509.702.509-.218-.906.564-.574h-.718l-.331-.739-.282.739h-.842l.645.574-.245.906zm4.726-4.509l-.726.509.245-.906-.645-.574h.842l.282-.739.331.739h.718l-.564.574.218.906-.702-.509zm-.726 4.509l.726-.509.702.509-.218-.906.564-.574h-.718l-.331-.739-.282.739h-.842l.645.574-.245.906z" fill="#f7fcff"/></g><defs><clipPath id="A"><path fill="#fff" d="M0 0h32v24H0z"/></clipPath></defs></svg>
