<svg xmlns="http://www.w3.org/2000/svg" viewBox="0 0 32 24" fill="none"><style><![CDATA[.B{fill-rule:evenodd}.C{fill:#984111}.D{fill:#ffc125}]]></style><g clip-path="url(#B)"><path fill="#fff" d="M0 0h32v24H0z"/><path d="M0 0V24H32V0H0Z" fill="#f7fcff" class="B"/><mask id="A" maskUnits="userSpaceOnUse" x="0" y="0" width="32" height="24"><path d="M0 0V24H32V0H0Z" fill="#fff" class="B"/></mask><g mask="url(#A)"><path fill="#2e42a5" d="M0 2h32v3H0zm0 6h32v3H0zm0 6h32v3H0zm0 5h32v3H0z"/><path fill="#f7fcff" d="M0 0h14v14H0z"/><path d="M4.783 2.582c-.073-.005-.137.05-.143.123-.027.353.283.674.456.852l.017.018.09.09a30.07 30.07 0 0 1 .104.101c.149.148.182.286.218.442l.009.038.05.233h0c.079.387.189.928.429 1.105.059.043.471-.213.515-.272.016-.021.062-.055.112-.092h0c.093-.069.2-.149.162-.177-.251-.185-.442-.632-.69-1.276-.132-.303-.479-.496-.767-.656-.246-.137-.449-.249-.438-.387.006-.073-.049-.136-.122-.14zm4.047.099c-.036-.064-.117-.088-.181-.053-.311.169-.411.605-.466.846l-.005.024-.027.124a29.38 29.38 0 0 1-.028.142c-.043.206-.141.308-.252.424l-.027.028-.168.168c-.282.277-.676.664-.693.961-.004.073.435.278.508.284.026.002.08.022.139.044.108.04.234.087.237.04.018-.311.289-.715.694-1.274.182-.276.155-.672.133-1.001-.019-.281-.035-.512.086-.578.064-.035.087-.115.051-.179zm2.586 2.349c.07.018.114.091.096.162s-.089.114-.16.096c-.133-.034-.279.146-.457.364-.207.256-.458.564-.779.641-.677.132-1.151.243-1.377.458-.034.033-.094-.087-.146-.19h0 0l-.072-.126c-.05-.054-.231-.504-.178-.554.215-.206.767-.22 1.162-.23h0l.238-.008.039-.002c.159-.009.301-.017.473-.138l.117-.084h0l.104-.073.02-.014c.205-.139.575-.389.918-.301zm-9.093.443c-.055.048-.062.132-.014.188.23.269.677.276.924.28h.024.127a29.47 29.47 0 0 1 .145-.002c.21-.001.331.074.467.158l.033.021.2.13c.33.218.79.523 1.084.478.072-.011.182-.484.172-.556-.004-.026.005-.082.014-.145.017-.114.036-.247-.01-.24-.308.047-.76-.134-1.39-.414-.308-.121-.69-.012-1.006.078-.27.077-.494.141-.583.036-.047-.055-.131-.061-.186-.013z" class="B D"/><path d="M4.64 2.705l-.075-.006h0l.075.006zm.143-.123l-.005.075.005-.075zm.313.975l.054-.052h0l-.054.052zm.017.018l.054-.052h0l-.054.052zm.09.09l-.052.054.105-.107-.053.053zm.104.101l-.053.053h0l.053-.053zm.218.442l-.073.017h0l.073-.017zm.009.038l-.073.017h0l.073-.017zm.05.233l-.074.015.001.004.072-.019zm0 0l.074-.015-.001-.004-.072.019zm.429 1.105l-.044.06h0l.044-.06zm.515-.272l.06.045h0l-.06-.045zm.112-.092l-.042-.062-.003.002.045.06zm0 0l.042.062.003-.002-.045-.06zm.162-.177l-.044.06.044-.06zm-.69-1.276l.07-.027-.001-.003-.069.03zm-.767-.656l-.036.066.036-.066zm-.438-.387l-.075-.006h0l.075.006zm3.744-.094l-.036-.066h0l.036.066zm.181.053l.066-.037h0l-.066.037zm-.647.793l.073.017h0l-.073-.017zm-.005.024l.073.017h0l-.073-.017zm-.027.124l-.074-.015.147.03-.073-.015zm-.028.142l.073.015h0l-.073-.015zm-.252.424l-.054-.052h0l.054.052zm-.027.028l-.054-.052h0l.054.052zm-.168.168l-.053-.053.053.053zm-.693.961l.075.004h0l-.075-.004zm.508.284l-.005.075.005-.075zm.139.044l.026-.07-.026.07zm.237.04l-.075-.004h0l.075.004zm.694-1.274l.061.044.002-.003-.063-.041zm.133-1.001l.075-.005h0l-.075.005zm.086-.578l-.036-.066h0l.036.066zm2.637 2.17l.019-.073-.019.073zm-.064.258l-.019.073.019-.073zm-.457.364l-.058-.047.058.047zm-.779.641l.014.074.003-.001-.018-.073zm-1.377.458l-.052-.054h0l.052.054zm-.146-.19l-.07.028.003.006.067-.034zm0 0l.07-.028-.003-.006-.067.034zm0 0l.067-.034h0l-.067.034zm-.072-.126l-.055.051h0l.055-.051zm-.178-.554l.052.054-.052-.054zm1.162-.23l.002.075h.001l-.003-.075zm0 0l-.002-.075h-.001l.003.075zm.238-.008l-.004-.075h0l.004.075zm.039-.002l-.004-.075h0l.004.075zm.473-.138l-.043-.061.043.061zm.117-.084l-.044-.061h0l.044.061zm0 0l-.044-.061h0l.044.061zm.104-.073l.042.062h0l-.042-.062zm.02-.014l.042.062h0l-.042-.062zm-8.19.33l.057-.049h0l-.057.049zm.014-.188l.049.056h0l-.049-.056zm.91.468l-.001.075h0l.001-.075zm.024 0l.001-.075h0l-.001.075zm.127 0v.075l-.002-.15.001.075zm.145-.002v.075h0v-.075zm.467.158l.04-.064h0l-.04.064zm.033.021l-.039.064h0l.039-.064zm.2.13l-.041.063.041-.063zm1.084.478l.011.074h0l-.011-.074zm.172-.556l.074-.01h0l-.074.01zm.014-.145l.074.011h0l-.074-.011zm-.01-.24l-.011-.074.011.074zm-1.39-.414l.03-.069-.003-.001-.027.07zm-1.006.078l.021.072h0l-.021-.072zm-.583.036l.057-.049h0l-.057.049zm2.206-2.776c.002-.031.03-.056.063-.054l.01-.15a.21.21 0 0 0-.223.192l.15.012zm.435.794c-.086-.089-.202-.209-.294-.349s-.153-.292-.141-.445l-.15-.012c-.016.2.065.386.165.539s.226.283.311.371l.108-.104zm.017.018l-.017-.018-.108.104.017.018.108-.104zm.088.088l-.088-.088-.108.104.091.092.105-.107zm.104.101l-.061-.059-.03-.03c-.013-.013-.119-.011-.118.094l.105-.107c.001.106-.105.107-.105.107l.043.042.06.058.105-.107zm.239.478c-.037-.157-.073-.314-.239-.478l-.105.107c.133.132.162.252.198.405l.146-.034zm.009.038l-.009-.038-.146.034.009.038.146-.034zm.05.235l-.05-.235-.146.035.049.23.147-.03zm-.001-.004h0l-.145.039h0l.145-.039zm.401 1.063c-.099-.073-.181-.231-.248-.436s-.112-.429-.152-.623l-.147.03.156.64c.068.206.161.407.302.51l.089-.121zm.41-.257c.001-.001-.004.004-.019.017l-.054.04-.156.097c-.057.032-.111.06-.154.077-.022.009-.037.013-.047.015-.002.001.009.002.02.01l-.089.121c.019.014.039.018.054.019s.029 0 .041-.003c.024-.004.051-.013.076-.023a1.46 1.46 0 0 0 .173-.086l.167-.104.063-.046a.27.27 0 0 0 .045-.044l-.12-.09zm.127-.108l-.071.054c-.019.015-.042.034-.056.053l.12.09.03-.026.067-.051-.09-.12zm.003-.002h0l.083.125h0l-.083-.125zm.159-.054c-.011-.008-.021-.022-.022-.04s.003-.024.003-.024-.004.007-.02.022a1.47 1.47 0 0 1-.123.098l.089.12.137-.11c.018-.017.039-.039.051-.064.006-.013.014-.033.011-.058s-.018-.051-.038-.066l-.089.121zm-.716-1.31l.347.818c.112.218.229.389.369.492l.089-.121c-.111-.082-.215-.227-.324-.439s-.217-.481-.341-.803l-.14.054zm-.733-.617l.433.268c.134.102.243.217.302.352l.137-.06c-.073-.168-.204-.301-.349-.411s-.308-.201-.451-.28l-.073.131zm-.476-.458c-.009.11.069.195.151.258s.204.132.325.199l.073-.131-.305-.187c-.078-.061-.096-.101-.094-.129l-.15-.012zm-.053-.06c.032.002.055.029.053.06l.15.012c.009-.115-.078-.213-.192-.221l-.01.15zm3.908.037c.027-.015.063-.005.079.024l.131-.073a.21.21 0 0 0-.282-.082l.072.132zm-.429.797c.028-.121.065-.284.133-.436s.162-.287.296-.361l-.072-.132c-.176.096-.288.264-.362.432s-.114.344-.142.463l.146.034zm-.005.024l.005-.024-.146-.034-.005.024.146.034zm-.026.122l.026-.122-.146-.034-.027.127.147.029zm-.028.142l.017-.083.008-.042c.004-.018-.055-.106-.144-.047l.147.03c-.088.059-.147-.029-.147-.03l-.012.059-.016.082.147.03zm-.271.46c.112-.116.224-.232.271-.46l-.147-.03c-.038.183-.123.273-.232.387l.108.104zm-.027.028l.027-.028-.108-.104-.027.028.108.104zm-.17.17l.17-.17-.109-.103-.167.167.105.107zm-.671.912c.007-.123.095-.277.231-.445s.298-.327.44-.466l-.105-.107-.452.479c-.136.169-.254.356-.264.531l.15.009zm.439.204c.001 0-.006-.001-.025-.007l-.063-.024-.166-.077c-.058-.03-.111-.061-.149-.087-.019-.014-.032-.024-.038-.031-.002-.001.003.008.002.023l-.15-.009c-.001.024.006.043.013.055s.016.024.024.033c.017.018.039.035.061.051a1.46 1.46 0 0 0 .167.098l.178.083.073.027c.019.006.042.013.061.014l.01-.15zm.159.048l-.084-.03c-.023-.008-.052-.016-.075-.018l-.01.15.038.011.079.028.052-.141zm.136.106c.001-.013.007-.029.021-.041s.022-.01.022-.01-.008 0-.03-.005a1.47 1.47 0 0 1-.149-.05l-.052.141.167.055c.024.006.054.011.082.008.014-.002.036-.006.055-.022s.033-.043.034-.068l-.15-.009zM8.5 4.395l-.497.736c-.122.212-.202.404-.212.577l.15.009c.008-.138.073-.304.192-.511s.285-.444.488-.723L8.5 4.395zm.118-.951l.011.509c-.013.168-.05.322-.131.445l.125.083c.101-.153.142-.335.155-.516s.001-.367-.011-.531l-.15.01zm.125-.649c-.097.053-.125.164-.134.268s0 .243.01.381l.15-.01-.01-.358c.009-.099.033-.136.057-.149l-.072-.132zm.021-.077c.016.028.005.062-.021.077l.072.132c.101-.055.137-.182.081-.282l-.131.073zm2.82 2.492a.21.21 0 0 0-.15-.253l-.037.145c.03.008.05.04.042.071l.146.036zm-.251.151c.111.029.224-.04.251-.151l-.146-.036c-.008.031-.038.049-.068.042l-.037.145zm-.38.339l.237-.268c.074-.066.117-.077.143-.07l.037-.145c-.107-.028-.204.035-.281.104s-.165.178-.253.285l.116.095zm-.82.667c.178-.043.332-.149.466-.272s.251-.268.354-.395l-.116-.095-.34.38c-.124.114-.256.202-.399.236l.035.146zm-1.342.439c.1-.095.261-.173.489-.243a8.81 8.81 0 0 1 .85-.196l-.029-.147-.865.2c-.234.072-.423.158-.549.278l.104.108zm-.265-.211l.084.154c.014.021.032.045.055.062.012.009.03.02.055.021s.053-.009.071-.026l-.104-.108c.01-.009.025-.016.043-.015s.023.007.023.007-.006-.006-.018-.024c-.023-.034-.048-.085-.075-.138l-.134.067zm-.003-.006h0l.139-.056h0l-.139.056zm.003.006h0l.134-.067h0l-.134.067zm-.059-.109l.021.034.038.075.134-.067-.041-.08c-.012-.021-.027-.047-.043-.064l-.11.102zm-.175-.66c-.017.016-.025.036-.028.05s-.005.028-.005.041c0 .025.004.052.01.079a1.46 1.46 0 0 0 .055.186l.074.182.035.07c.01.018.022.038.035.052l.11-.102c.001.001-.004-.005-.013-.022l-.03-.06-.069-.17c-.022-.061-.04-.12-.049-.165-.005-.023-.007-.039-.007-.049 0-.002-.003.008-.014.018l-.104-.108zm1.212-.251l-.657.043c-.215.031-.428.088-.555.208l.104.108c.089-.085.259-.138.472-.168s.441-.036.64-.041l-.004-.15zm-.001 0h0l.006.15h0l-.006-.15zm.236-.008l-.235.008.004.15.241-.009-.009-.15zm.039-.002l-.039.002.009.15.039-.002-.009-.15zm.434-.125c-.153.108-.276.116-.434.125l.008.15c.161-.009.322-.017.512-.152l-.087-.122zm.117-.084l-.117.084.087.122.118-.085-.088-.122zm0 0h0l.088.122h0l-.088-.122zm.106-.074l-.106.074.087.122.102-.072-.084-.124zm.02-.014l-.02.014.084.124.02-.014-.084-.124zm.979-.311c-.194-.05-.391-.003-.559.069s-.318.173-.42.242l.084.124c.103-.07.241-.163.395-.229s.314-.1.463-.062l.037-.145zm-9.069.655c-.02-.024-.018-.061.007-.083l-.099-.113a.21.21 0 0 0-.022.293l.114-.098zm.869.254c-.124-.002-.291-.005-.454-.039s-.315-.098-.414-.215l-.114.098c.131.153.319.227.497.264s.36.04.483.042l.002-.15zm.024 0h-.024l-.002.15h.024l.003-.15zm.125 0c-.048.001-.087.001-.125 0l-.003.15h.129l-.002-.15zm.145-.002l-.085.001h-.042c-.018 0-.092.076-.016.15l-.001-.15c.076.074.002.15.002.15h.061l.084-.001-.001-.15zm.507.169c-.137-.085-.274-.171-.507-.169l.001.15c.187-.001.292.063.427.147l.079-.127zm.033.02l-.033-.02-.079.127.034.021.079-.128zm.202.131l-.202-.131-.079.128.198.128.083-.125zm1.031.466c-.122.019-.291-.035-.484-.133s-.382-.224-.548-.333l-.083.125.563.342c.194.098.401.174.574.147l-.023-.148zm.109-.472c0-.001 0 .006-.002.026l-.01.066-.041.179c-.017.063-.036.121-.055.164-.009.022-.017.036-.023.044-.001.002.007-.005.022-.007l.023.148c.023-.004.041-.015.051-.024s.02-.021.027-.031c.014-.02.027-.045.038-.071a1.46 1.46 0 0 0 .062-.184l.044-.192.012-.077c.002-.02.004-.044.001-.063l-.149.021zm.014-.166l-.012.089c-.003.024-.005.054-.002.077l.149-.021.002-.04.011-.083-.148-.022zM5.5 5.86c-.013.002-.03-.001-.044-.012s-.014-.019-.015-.019.002.008.001.03a1.47 1.47 0 0 1-.018.156l.148.022.019-.174c.001-.025 0-.055-.009-.082-.005-.014-.014-.033-.033-.049s-.049-.023-.073-.019l.023.148zm-1.432-.42l.824.333c.233.075.437.114.609.087l-.023-.148c-.136.021-.312-.008-.54-.082s-.493-.187-.809-.327l-.061.137zm-.955.082l.496-.116c.167-.023.325-.018.463.035l.055-.14c-.171-.067-.358-.069-.537-.044s-.359.076-.517.121l.041.144zm-.661.013c.072.084.187.088.29.076s.238-.051.371-.089l-.041-.144-.348.084c-.098.012-.14-.004-.157-.024l-.114.098zm-.08-.005c.024-.021.06-.018.08.005l.114-.098c-.075-.087-.206-.096-.292-.02l.099.113z" class="C"/><path d="M4.756 11.245c-.073.005-.137-.05-.143-.123-.027-.353.283-.674.456-.852l.017-.018.09-.09a24.98 24.98 0 0 0 .104-.101c.149-.148.182-.286.218-.442l.009-.038.05-.233h0c.079-.387.189-.928.429-1.105.059-.043.471.213.515.272.016.021.062.055.112.092h0c.093.069.2.149.162.177-.251.185-.442.632-.69 1.276-.132.303-.479.496-.767.656-.246.137-.449.249-.438.387.006.073-.049.136-.122.14zm4.047-.099c-.036.064-.117.088-.181.053-.311-.169-.411-.605-.466-.846l-.005-.024-.027-.124c0 0-.022-.111-.028-.142-.043-.206-.141-.308-.252-.424l-.027-.028-.17-.171h0 0c-.287-.281-.691-.678-.691-.959 0-.128.435-.278.508-.284.026-.002.08-.022.139-.044.108-.04.234-.087.237-.04.018.311.289.715.694 1.274.182.276.155.672.133 1.001-.019.281-.035.512.086.578.064.035.087.115.051.179zm2.586-2.349c.071-.018.114-.091.096-.162s-.089-.114-.16-.096c-.133.034-.28-.146-.457-.364-.207-.256-.458-.564-.779-.641-.677-.132-1.151-.243-1.377-.458-.034-.033-.094.087-.146.19h0 0l-.072.126c-.05.054-.231.504-.178.554.215.206.767.22 1.162.23h0l.238.008.039.002c.159.009.301.017.473.138l.117.084h0l.104.073.02.014c.205.139.575.389.918.301zm-9.093-.443c-.055-.048-.062-.132-.014-.188.23-.269.677-.276.925-.28h.024.127a29.18 29.18 0 0 0 .145.002c.21.001.331-.074.467-.158l.033-.021.2-.13c.33-.218.79-.523 1.084-.478.072.011.182.484.172.556-.004.026.005.082.014.145.017.114.036.247-.01.24-.308-.047-.76.134-1.39.414-.308.121-.69.012-1.006-.078-.27-.077-.494-.141-.583-.036-.047.055-.131.061-.186.013z" class="B D"/><path d="M4.613 11.123l-.075.006h0l.075-.006zm.143.123l-.005-.075.005.075zm.313-.975l.054.052h0l-.054-.052zm.017-.018l.054.052h0l-.054-.052zm.09-.09l-.052-.054.105.107-.053-.053zm.104-.101l-.053-.053h0l.053.053zm.218-.442l-.073-.017h0l.073.017zm.009-.038l-.073-.017h0l.073.017zm.05-.233l-.074-.015.001-.004.072.019zm0 0l.074.015-.001.004-.072-.019zm.429-1.105l-.044-.06h0l.044.06zm.515.272l.06-.045h0l-.06.045zm.112.092l-.042.062-.003-.002.045-.06zm0 0l.042-.062.003.002-.045.06zm.162.177l-.044-.06.044.06zm-.69 1.276l.07.027-.001.003-.069-.03zm-.767.656l-.036-.066.036.066zm-.438.387l-.075.006h0l.075-.006zm3.744.094l-.036.066h0l.036-.066zm.181-.053l.065.036h0l-.065-.036zm-.647-.793l.073-.017h0l-.073.017zm-.005-.024l.073-.017h0l-.073.017zm-.027-.124l-.074.015.147-.03-.073.015zm-.028-.142l.073-.015h0l-.073.015zm-.252-.424l-.054.052h0l.054-.052zm-.027-.028l-.054.052h0l.054-.052zm-.17-.171l-.053.054h0l.053-.053zm0 0l.052-.054v.001l-.053.053zm0 0l-.052.054h0l.053-.054zm-.182-1.243l-.005-.075.005.075zm.139-.044l.026.07-.026-.07zm.237-.04l-.075.004h0l.075-.004zm.694 1.274l.061-.044.002.003-.063.041zm.133 1.001l.075.005h0l-.075-.005zm.086.578l-.036.066h0l.036-.066zm2.637-2.17l.019.073-.019-.073zm-.064-.258l-.019-.073.019.073zm-.457-.364l-.058.047.058-.047zm-.779-.641l.014-.074h.003l-.018.073zm-1.377-.458l-.052.054h0l.052-.054zm-.146.19l-.07-.028.003-.006.067.034zm0 0l.07.028-.003.006-.067-.034zm0 0l.067.034h0l-.067-.034zm-.072.126l-.055-.051h0l.055.051zm-.178.554l.052-.054-.052.054zm1.162.23l.002-.075h.001l-.003.075zm0 0l-.002.075h-.001l.003-.075zm.238.008l-.004.075h0l.004-.075zm.039.002l-.004.075h0l.004-.075zm.473.138l-.043.061.043-.061zm.117.084l-.044.061h0l.044-.061zm0 0l-.044.061h0l.044-.061zm.104.073l.042-.062h0l-.042.062zm.02.014l.042-.062h0l-.042.062zm-8.189-.33l.057.049h0l-.057-.049zm.014.188l.049-.056h0l-.049.056zm.91-.468l-.001-.075h0l.001.075zm.024 0l.001.075h0l-.001-.075zm.127 0l.001-.075-.002.15.001-.075zm.145.002v-.075h0v.075zm.467-.158l.04.064h0l-.04-.064zm.033-.021l-.039-.064h0l.039.064zm.2-.13l-.041-.063.041.063zm1.084-.478l.011-.074h0l-.011.074zm.172.556l.074.01h0l-.074-.01zm.014.145l.074-.011h0l-.074.011zm-.01.24l-.011.074.011-.074zm-1.39.414l.03.069-.003.001-.027-.07zm-1.006-.078l.021-.072h0l-.021.072zm-.583-.036l.057.049h0l-.057-.049zm2.206 2.776c.002.031.03.056.063.054l.01.15a.21.21 0 0 1-.223-.192l.15-.012zm.435-.794c-.086.089-.202.209-.294.349s-.153.292-.141.445l-.15.012c-.016-.2.065-.386.165-.539s.226-.283.311-.371l.108.104zm.017-.018l-.017.018-.108-.104.017-.018.108.104zm.088-.088l-.088.088-.108-.104.091-.091.105.107zm.104-.101l-.061.059-.03.03c-.013.013-.119.011-.118-.095l.105.107c.001-.106-.105-.107-.105-.107l.043-.042.06-.058.105.107zm.239-.478c-.037.157-.073.314-.239.478l-.105-.107c.133-.132.162-.252.198-.405l.146.034zm.009-.038l-.009.038-.146-.034.009-.038.146.034zm.05-.235l-.05.235-.146-.035.049-.23.147.03zm-.001.004h0l-.145-.039h0l.145.039zm.401-1.063c-.099.073-.181.231-.248.436s-.112.429-.152.623l-.147-.03.156-.64c.068-.206.161-.407.302-.51l.089.121zm.41.257c.001.001-.004-.004-.019-.017l-.054-.04-.156-.097c-.057-.032-.111-.06-.154-.077-.022-.009-.037-.013-.047-.015-.002-.001.009-.002.02-.01l-.089-.121c.019-.014.039-.018.054-.019s.029 0 .041.003c.024.004.051.013.076.023a1.46 1.46 0 0 1 .173.086l.167.104.063.046c.016.013.034.028.045.044l-.12.09zm.127.108l-.071-.054c-.019-.015-.042-.034-.056-.053l.12-.09.03.026.067.051-.089.12zm.003.002h0l.083-.125h0l-.083.125zm.159.054c-.011.008-.021.022-.022.04s.003.024.003.024-.004-.007-.02-.022a1.47 1.47 0 0 0-.123-.098l.09-.12.137.11c.018.017.039.039.051.064.006.013.014.033.011.058s-.018.051-.038.066l-.089-.121zm-.716 1.31l.347-.818c.112-.218.229-.389.369-.492l.089.121c-.111.082-.215.227-.324.439s-.217.481-.341.803l-.14-.054zm-.733.618l.433-.268c.134-.102.243-.217.302-.352l.137.06c-.073.168-.204.302-.348.412s-.308.201-.451.28l-.073-.131zm-.476.458c-.009-.11.069-.194.151-.258s.204-.132.325-.199l.073.131-.305.187c-.078.061-.096.101-.094.129l-.15.012zm-.053.06c.032-.002.055-.029.053-.06l.15-.012c.009.115-.078.213-.192.221l-.01-.15zm3.907-.037c.027.015.063.005.079-.024l.131.073a.21.21 0 0 1-.282.082l.072-.132zm-.429-.797c.028.121.065.284.133.436s.162.287.296.361l-.072.132c-.176-.096-.288-.264-.362-.432s-.114-.343-.142-.463l.146-.034zm-.005-.024l.005.024-.146.034-.005-.024.146-.034zm-.026-.122l.026.122-.146.034-.027-.127.147-.03zm-.028-.142l.017.083.008.042c.004.018-.055.106-.144.047l.147-.03c-.088-.059-.147.03-.147.03l-.012-.059-.016-.082.147-.03zm-.271-.46c.112.116.224.232.271.46l-.147.03c-.038-.183-.123-.273-.232-.387l.108-.104zm-.027-.028l.027.028-.108.104-.027-.028.108-.104zm-.172-.172l.172.172-.109.103-.169-.169.105-.107zm0 0h0l-.105.107h0l.105-.107zm-.001-.001h0l-.104.108h0l.104-.108zm-.668-.905c0 .053.019.118.059.194s.095.156.162.238c.134.165.303.332.447.473l-.105.107-.459-.486c-.07-.087-.133-.176-.178-.263s-.076-.176-.076-.263h.15zm.439-.209l-.029.006-.063.019a1.61 1.61 0 0 0-.163.064c-.057.026-.108.054-.143.082-.018.014-.029.025-.036.034l-.154.004c0-.038.016-.069.033-.093a.33.33 0 0 1 .065-.064.93.93 0 0 1 .172-.099 1.76 1.76 0 0 1 .179-.07.64.64 0 0 1 .129-.032l.01.15zm.159-.048l-.084.03c-.023.008-.052.016-.075.018l-.01-.15.038-.011.079-.028.052.141zm.136-.106c.001.013.007.029.021.041s.022.01.022.01-.008 0-.03.005c-.04.01-.094.029-.149.05l-.052-.141.167-.055c.024-.006.054-.011.082-.008.014.002.036.006.055.022s.033.043.034.068l-.15.009zm.709 1.314l-.497-.736c-.122-.212-.202-.404-.212-.577l.15-.009c.008.138.073.304.192.511s.285.444.488.723l-.121.088zm.118.951l.011-.509c-.013-.168-.05-.322-.131-.445l.125-.083c.101.153.142.335.155.516s.001.367-.011.531l-.15-.01zm.125.649c-.097-.053-.125-.164-.134-.268s0-.243.01-.381l.15.01-.01.358c.009.099.033.136.057.149l-.072.132zm.021.077c.016-.028.005-.062-.021-.077l.072-.132c.101.055.137.182.081.282l-.131-.073zm2.821-2.492a.21.21 0 0 1-.15.253l-.037-.145c.03-.008.05-.04.042-.071l.146-.036zm-.251-.151c.111-.029.224.04.251.151l-.146.036c-.008-.031-.038-.049-.068-.042l-.037-.145zm-.38-.339l.237.268c.074.066.117.077.143.07l.037.145c-.107.028-.204-.035-.281-.104s-.166-.178-.253-.285l.116-.095zm-.82-.667c.178.043.332.149.466.272s.251.268.354.395l-.116.095-.339-.38c-.124-.114-.256-.202-.399-.236l.035-.146zm-1.343-.439c.1.095.261.173.489.243s.511.13.85.196l-.029.147-.866-.2c-.234-.072-.423-.158-.549-.278l.104-.108zm-.265.211l.084-.154c.014-.021.032-.045.055-.062.012-.009.03-.02.055-.021s.053.009.071.026l-.104.108c.009.009.025.016.043.015s.023-.007.023-.007-.006.006-.018.024a1.47 1.47 0 0 0-.075.138L8.5 7.232zm-.003.006h0l.139.056h0l-.139-.056zm.003-.006h0l.134.067h0L8.5 7.232zm-.059.109l.021-.034.038-.075.134.067-.041.08c-.012.022-.027.047-.043.064l-.11-.102zM8.265 8c-.017-.016-.025-.036-.028-.05s-.005-.028-.005-.041c0-.025.004-.052.01-.079a1.46 1.46 0 0 1 .055-.186l.074-.182.035-.07c.01-.018.022-.038.035-.052l.11.102c.001-.001-.004.005-.013.022l-.03.06-.069.17c-.022.061-.04.12-.049.165-.005.023-.007.039-.007.049 0 .002-.003-.008-.014-.018L8.265 8zm1.212.251l-.657-.043c-.215-.031-.429-.088-.555-.208l.104-.108c.089.085.259.138.472.168a5.72 5.72 0 0 0 .64.041l-.004.15zm-.001 0h0l.006-.15h0l-.006.15zm.236.008l-.235-.008.004-.15.241.009-.009.15zm.039.002l-.039-.002.009-.15.039.002-.009.15zm.434.125c-.153-.108-.276-.116-.434-.125l.008-.15c.161.009.322.017.512.152l-.087.122zm.117.084l-.117-.084.087-.122.118.085-.088.122zm0 0h0l.088-.122h0l-.088.122zm.106.074l-.106-.074.088-.122.103.072-.084.124zm.02.014l-.02-.014.084-.124.02.014-.084.124zm.979.311c-.194.05-.391.003-.559-.069s-.318-.173-.42-.242l.084-.124c.103.07.241.163.395.229s.314.1.463.062l.037.145zm-9.069-.655c-.02.024-.018.061.007.083l-.099.113a.21.21 0 0 1-.022-.293l.114.098zm.869-.254c-.124.002-.291.005-.454.039s-.315.098-.414.215l-.114-.098c.131-.153.319-.227.497-.264s.36-.04.483-.042l.002.15zm.024 0h-.024l-.002-.15h.024l.003.15zm.125 0a4.17 4.17 0 0 0-.125 0l-.003-.15h.129l-.002.15zm.145.002l-.085-.001h-.042c-.018 0-.092-.076-.016-.15l-.001.15c.076-.074.002-.15.002-.15l.06.001.084.001-.001.15zm.507-.169c-.137.085-.274.171-.507.169l.001-.15c.187.001.292-.063.427-.147l.079.127zm.033-.02l-.033.02-.079-.127.034-.021.079.128zm.202-.131l-.202.131-.079-.128.198-.128.083.125zm1.031-.466c-.122-.019-.291.035-.484.133s-.382.224-.548.333l-.083-.125.563-.342c.194-.098.401-.174.574-.147l-.023.148zm.109.472c0 .001 0-.006-.002-.026l-.01-.066-.041-.179c-.017-.063-.036-.121-.055-.164-.009-.022-.017-.036-.023-.044-.001-.002.007.005.022.007l.023-.148c.023.004.041.015.051.024s.02.021.027.031c.014.02.027.045.038.071a1.46 1.46 0 0 1 .062.184l.044.192.012.077c.002.02.004.044.001.063l-.149-.021zm.014.166l-.012-.089c-.003-.024-.005-.054-.002-.077l.149.021.002.04.011.083-.148.022zm.075.155c-.013-.002-.03.001-.044.012s-.014.019-.015.019.002-.008.001-.03a1.47 1.47 0 0 0-.018-.156l.148-.022.019.174c.001.025 0 .055-.009.082-.005.014-.014.033-.033.049s-.049.023-.073.019l.023-.148zm-1.432.42l.824-.333c.233-.075.437-.113.609-.087l-.023.148c-.136-.021-.312.008-.54.082s-.493.187-.809.327l-.061-.137zm-.955-.082l.496.116c.167.023.325.018.463-.035l.055.14c-.171.067-.358.069-.537.044s-.359-.076-.517-.121l.041-.144zm-.661-.013c.072-.084.187-.088.29-.076s.238.051.371.089l-.041.144-.348-.084c-.098-.012-.14.004-.157.024l-.114-.098zm-.08.005c.024.021.06.018.08-.005l.114.098c-.075.087-.206.096-.292.02l.099-.113z" class="C"/><path d="M7 2.059c-.127 0-.235.094-.253.22l-.413 2.938h1.333l-.413-2.938c-.018-.126-.126-.22-.253-.22zm3.494 1.447c-.09-.09-.233-.1-.335-.023l-2.37 1.785.943.943 1.785-2.37c.077-.102.067-.245-.023-.335zm1.227 3.24c.126.018.22.126.22.253s-.094.235-.22.253l-2.938.413V6.333l2.938.413zm-1.227 3.747c.09-.09.1-.233.023-.335l-1.785-2.37-.943.943 2.37 1.785c.102.077.245.067.335-.023zm-3.24 1.227c-.018.126-.126.22-.253.22s-.235-.094-.253-.22l-.413-2.938h1.333l-.413 2.938zm-3.747-1.227c.09.09.233.1.335.023l2.37-1.785-.943-.943-1.785 2.37c-.077.102-.067.245.023.335zm-1.227-3.24c-.126-.018-.22-.126-.22-.253s.094-.235.22-.253l2.938-.413v1.333l-2.938-.413zm1.227-3.747c-.09.09-.1.233-.023.335l1.785 2.37.943-.943-2.37-1.785c-.102-.077-.245-.067-.335.023z" class="B D"/><path d="M6.747 2.279l-.074-.01h0l.074.01zm-.413 2.938l-.074-.01-.012.085h.086v-.075zm1.333 0v.075h.086l-.012-.085-.074.01zm-.413-2.938l.074-.01h0l-.074.01zm2.906 1.204l-.045-.06h0l.045.06zm-2.37 1.785l-.045-.06-.069.052.061.061.053-.053zm.943.943l-.053.053.061.061.052-.069-.06-.045zm1.785-2.37l-.06-.045.06.045zm1.204 2.906l-.011.074.011-.074zm0 .506l.01.074-.01-.074zm-2.938.413h-.075v.086l.085-.012-.01-.074zm0-1.333l.01-.074-.085-.012v.086h.075zm1.734 3.826l.06-.045-.06.045zm-.023.335l.053.053-.053-.053zM8.732 7.789l.06-.045-.052-.069-.061.061.053.053zm-.943.943l-.053-.053-.061.061.069.052.045-.06zm2.37 1.785l.045-.06h0l-.045.06zm-2.906 1.204l-.074-.011.074.011zm-.506 0l-.074.01.074-.01zm-.413-2.938v-.075h-.086l.012.085.074-.01zm1.333 0l.074.01.012-.085h-.086v.075zm-3.826 1.734l-.045-.06h0l.045.06zm-.335-.023l-.053.053h0l.053-.053zm2.704-1.762l.045.06.069-.052-.061-.061-.053.053zm-.943-.943l.053-.053-.061-.061-.052.069.06.045zm-1.785 2.37l.06.045h0l-.06-.045zM2.279 7.253l-.01.074h0l.01-.074zm0-.506l-.01-.074h0l.01.074zm2.938-.413h.075v-.086l-.085.012.01.074zm0 1.333l-.01.074.085.012v-.086h-.075zM3.483 3.841l.06-.045-.06.045zm.023-.335l-.053-.053.053.053zm1.762 2.704l-.06.045.052.069.061-.061-.053-.053zm.943-.943l.053.053.061-.061-.069-.052-.045.06zm-2.37-1.785l-.045.06.045-.06zm2.98-1.193A.18.18 0 0 1 7 2.134v-.15a.33.33 0 0 0-.327.285l.149.021zm-.413 2.938l.413-2.938-.149-.021-.413 2.938.149.021zm1.259-.085H6.333v.15h1.333v-.15zM7.179 2.29l.413 2.938.149-.021-.413-2.938-.149.021zM7 2.134a.18.18 0 0 1 .179.156l.149-.021A.33.33 0 0 0 7 1.984v.15zm3.204 1.409a.18.18 0 0 1 .236.017l.106-.106a.33.33 0 0 0-.433-.03l.09.12zm-2.37 1.785l2.37-1.785-.09-.12-2.37 1.785.09.12zm.951.83l-.943-.943-.106.106.943.943.106-.106zm1.672-2.362l-1.785 2.37.12.09 1.785-2.37-.12-.09zm-.017-.236a.18.18 0 0 1 .017.236l.12.09a.33.33 0 0 0-.03-.433l-.106.106zM12.016 7a.33.33 0 0 0-.285-.327l-.021.149a.18.18 0 0 1 .155.179h.15zm-.285.327A.33.33 0 0 0 12.016 7h-.15a.18.18 0 0 1-.155.179l.021.149zm-2.938.413l2.938-.413-.021-.149-2.938.413.021.149zm-.085-1.408v1.333h.15V6.333h-.15zm3.023.339l-2.938-.413-.021.149 2.938.413.021-.149zm-1.274 3.532a.18.18 0 0 1-.017.236l.106.106a.33.33 0 0 0 .03-.433l-.12.09zm-1.785-2.37l1.785 2.37.12-.09-1.785-2.37-.12.09zm-.83.951l.943-.943-.106-.106-.943.943.106.106zm2.362 1.672l-2.37-1.785-.09.12 2.37 1.785.09-.12zm.236-.017a.18.18 0 0 1-.236.017l-.09.12a.33.33 0 0 0 .433-.03l-.106-.106zM7 12.016a.33.33 0 0 0 .327-.285l-.149-.021a.18.18 0 0 1-.179.155v.15zm-.327-.285a.33.33 0 0 0 .327.285v-.15a.18.18 0 0 1-.179-.155l-.149.021zm-.413-2.938l.413 2.938.149-.021-.413-2.938-.149.021zm1.408-.085H6.333v.15h1.333v-.15zm-.339 3.023l.413-2.938-.149-.021-.413 2.938.149.021zm-3.532-1.274a.18.18 0 0 1-.236-.017l-.106.106a.33.33 0 0 0 .433.03l-.09-.12zm2.37-1.785l-2.37 1.785.09.12 2.37-1.785-.09-.12zm-.951-.83l.943.943.106-.106-.943-.943-.106.106zm-1.672 2.362l1.785-2.37-.12-.09-1.785 2.37.12.09zm.017.236a.18.18 0 0 1-.017-.236l-.12-.09a.33.33 0 0 0 .03.433l.106-.106zM1.984 7a.33.33 0 0 0 .285.327l.021-.149A.18.18 0 0 1 2.134 7h-.15zm.285-.327A.33.33 0 0 0 1.984 7h.15a.18.18 0 0 1 .156-.179l-.021-.149zm2.938-.413l-2.938.413.021.149 2.938-.413-.021-.149zm.085 1.408V6.333h-.15v1.333h.15zm-3.023-.339l2.938.413.021-.149-2.938-.413-.021.149zm1.274-3.532a.18.18 0 0 1 .017-.236l-.106-.106a.33.33 0 0 0-.03.433l.12-.09zm1.785 2.37l-1.785-2.37-.12.09 1.785 2.37.12-.09zm.83-.951l-.943.943.106.106.943-.943-.106-.106zM3.796 3.543l2.37 1.785.09-.12-2.37-1.785-.09.12zm-.236.017a.18.18 0 0 1 .236-.017l.09-.12a.33.33 0 0 0-.433.03l.106.106z" class="C"/><path d="M7 8.842c1.068 0 1.933-.854 1.933-1.908S8.068 5.026 7 5.026s-1.933.854-1.933 1.908S5.932 8.842 7 8.842z" stroke="#984111" stroke-width=".15" class="B D"/><path d="M6.813 6.437l-.125-.081c-.073-.046-.132-.076-.186-.093-.03-.009-.057-.014-.081-.014-.118 0-.284.073-.494.223l-.078-.107c.231-.164.42-.248.572-.248.039 0 .08.007.122.02.068.021.135.056.218.108l.124.081.048.027c.159 0 .169.57.056.744-.03.047-.068.085-.117.124l-.087.064c-.039.03-.052.048-.052.069 0 .004.048.016.155.011l.073-.005.11-.006v.132a1.26 1.26 0 0 0-.1.006l-.077.005c-.188.009-.294-.018-.294-.142 0-.071.035-.12.103-.173l.086-.063a.37.37 0 0 0 .087-.091c.034-.053.056-.193.053-.34a.92.92 0 0 0-.017-.174c-.003-.013-.006-.024-.009-.032-.025-.006-.053-.02-.09-.043z" class="C"/><path d="M7.352 6.39l-.071.046c-.037.023-.064.037-.09.043a.25.25 0 0 0-.009.032.92.92 0 0 0-.017.174c-.003.148.019.287.053.34a.37.37 0 0 0 .087.091l.053.04.032.024c.068.053.103.102.103.173 0 .124-.107.151-.294.142l-.077-.005-.1-.006v-.132a1.29 1.29 0 0 1 .11.006l.073.005c.107.005.155-.007.155-.011 0-.022-.012-.039-.052-.069l-.026-.019-.061-.045c-.049-.038-.086-.077-.117-.124-.113-.175-.103-.744.056-.744.006-.003.023-.011.048-.027l.066-.043.059-.038c.082-.052.15-.087.217-.108.042-.013.082-.02.122-.02.152 0 .341.084.572.248l-.078.107c-.21-.15-.376-.223-.494-.223-.025 0-.052.005-.081.014-.054.017-.113.047-.186.093l-.054.035zm-.157.08l-.002.003.001-.002.001-.001z" class="B C"/><path d="M6.665 7.723l.034.067-.034-.067zm.677.001l.039-.064-.039.064zm.069.041l.062.043.046-.066-.069-.041-.039.064zm-.046.066l-.062-.043.062.043zm-.723.008l.057-.049-.057.049zm-.062-.073l-.034-.067-.086.043.063.073.057-.049zm.251.051l-.022-.072-.129.04.103.088.049-.057zm.354-.002l.054.052.082-.085-.111-.038-.024.071zm-.574-.043l-.039-.064-.071.043.05.066.06-.045zm.771 0l.064.039.035-.058-.054-.041-.045.06zm-.859-.122l.039.064-.039-.064zm.957.008l-.046.059h0l.046-.059zm.046.036l.046-.059h0l-.046.059zm.053.041l.064.038.034-.057-.053-.041-.046.059zm-.034.057l-.064-.038h0l.064.038zm-.03.05l.064.038h0l-.064-.038zm-1.031.012l-.06.045h0l.06-.045zm-.042-.057l.06-.045h0l-.06.045zm-.049-.066l-.039-.064-.07.043.049.066.06-.045zm.07-.043l-.039-.064h0l.039.064zm.553-.124a.85.85 0 0 0-.384.092l.067.134a.7.7 0 0 1 .317-.076v-.15zm.365.096a.7.7 0 0 0-.365-.096v.15c.11 0 .205.025.287.074l.077-.129zm.069.041l-.069-.041-.077.129.069.041.077-.129zm-.023.173l.046-.066-.123-.086-.046.066.123.086zm-.411.25c.172 0 .307-.101.411-.25l-.123-.086c-.088.126-.183.185-.287.185v.15zm-.431-.236c.121.141.264.236.431.236v-.15c-.105 0-.211-.06-.317-.184l-.114.098zm-.062-.073l.063.073.114-.098-.062-.073-.114.098zm.109-.159l-.086.043.067.134.086-.043-.067-.134zm.384.168c-.032 0-.077-.013-.136-.064l-.098.114c.078.067.157.1.234.1v-.15zm.115-.06c-.048.049-.085.06-.115.06v.15c.078 0 .153-.034.223-.106l-.108-.104zm-.115.101a.44.44 0 0 1 .145.022l.049-.142a.59.59 0 0 0-.194-.03v.15zm-.163.025a.56.56 0 0 1 .163-.025v-.15a.7.7 0 0 0-.208.031l.045.143zm.163.067c-.1 0-.216-.058-.345-.228l-.12.091c.143.189.298.287.464.287v-.15zm.302-.222c-.102.167-.205.222-.302.222v.15c.169 0 .313-.101.431-.294l-.128-.078zm-.302-.001a.52.52 0 0 1 .321.1l.09-.12c-.116-.087-.254-.13-.412-.13v.15zm-.366.105a.69.69 0 0 1 .366-.105v-.15c-.156 0-.304.042-.443.126l.077.128zm.366-.405c-.189 0-.367.053-.532.154l.079.128c.142-.088.293-.132.453-.132v-.15zm.511.167c-.146-.113-.32-.167-.511-.167v.15c.161 0 .302.045.419.136l.092-.119zm.046.036L7.527 7.6l-.092.119.046.036.092-.119zm.053.041l-.053-.041-.092.119.053.041.092-.119zm-.016.155l.034-.057-.129-.077-.034.057.129.077zm-.03.05l.03-.05-.129-.077-.03.05.129.077zm-.564.375c.244 0 .431-.152.564-.375l-.129-.077c-.118.198-.264.302-.435.302v.15zm-.592-.356c.159.213.355.356.592.356v-.15c-.169 0-.326-.101-.471-.296l-.12.09zm-.042-.057l.042.057.12-.09-.043-.057-.12.09zm-.049-.066l.049.066.12-.09-.049-.066-.12.09zm.09-.152l-.07.043.079.128.07-.043-.079-.128zm.061-.038l-.061.038.079.128.061-.038-.079-.128zm-.419-1.136l.032.068-.032-.068zm0 .362l-.032.068h0l.032-.068zm.536 0l.032.068h0l-.032-.068zm0-.362l-.032.068h0l.032-.068zm-.526.178l-.069-.029h0l.069.029zm.007-.01l.056.05h0l-.056-.05zm.048-.033l-.032-.068h0l.032.068zm.406 0l.032-.068h0l-.032.068zm.048.033l-.056.05h0l.056-.05zm.007.01l-.069.029h0l.069-.029zm0 .006l-.069-.029h0l.069.029zm-.007.01l-.056-.05h0l.056.05zm-.048.033l.032.068h0l-.032-.068zm-.406 0l-.032.068h0l.032-.068zm-.048-.033l-.056.05h0l.056-.05zm-.007-.01l-.069.029h0l.069-.029zm1.323-.184l-.032-.068h0l.032.068zm0 .362l-.032.068h0l.032-.068zm.536 0l-.032-.068h0l.032.068zm0-.362l-.032.068h0l.032-.068zm-.526.178l-.069-.029h0l.069.029zm.007-.01l-.056-.05h0l.056.05zm.048-.033l.032.068-.032-.068zm.406 0l-.032.068.032-.068zm.048.033l-.056.05h0l.056-.05zm.007.01l-.069.029h0l.069-.029zm0 .006l-.069-.029h0l.069.029zm-.007.01l-.056-.05h0l.056.05zm-.048.033l-.032-.068.032.068zm-.406 0l.032-.068-.032.068zm-.048-.033l-.056.05h0l.056-.05zm-.007-.01l-.069.029h0l.069-.029zm-1.311-.116a.56.56 0 0 1 .236-.047v-.15c-.109 0-.216.021-.301.062l.065.135zM6 6.634c0-.044.037-.084.098-.113l-.065-.135c-.073.035-.183.113-.183.248H6zm.098.113C6.037 6.718 6 6.678 6 6.634h-.15c0 .135.109.213.183.248l.065-.135zm.236.047a.56.56 0 0 1-.236-.047l-.065.135a.71.71 0 0 0 .301.062v-.15zm.236-.047a.56.56 0 0 1-.236.047v.15c.109 0 .216-.021.301-.062l-.065-.135zm.098-.113c0 .044-.037.084-.098.113l.065.135c.073-.035.183-.113.183-.248h-.15zm-.098-.113c.061.029.098.069.098.113h.15c0-.135-.109-.213-.183-.248l-.065.135zm-.236-.047a.56.56 0 0 1 .236.047l.065-.135c-.085-.041-.191-.062-.301-.062v.15zm-.327.128c-.004.011-.007.021-.007.032h.15l-.005.027-.138-.059zm.019-.03c-.008.01-.015.02-.019.03l.138.059-.119-.089zm.071-.051a.21.21 0 0 0-.071.051l.113.099s.006-.006.024-.015l-.065-.135zm.236-.047a.56.56 0 0 0-.236.047l.065.135c.036-.017.096-.032.171-.032v-.15zm.236.047a.56.56 0 0 0-.236-.047v.15c.075 0 .135.015.171.032l.065-.135zm.071.051c-.017-.019-.041-.036-.071-.051l-.065.135c.018.009.024.015.024.015l.113-.099zm.019.03c-.004-.01-.011-.02-.019-.03l-.113.099.132-.069zm.007.032c0-.011-.002-.022-.007-.032l-.138.059-.005-.02.15-.006zm-.007.032c.004-.011.007-.021.007-.032h-.15a.1.1 0 0 1 .005-.027l.138.059zm-.019.03c.008-.01.015-.02.019-.03l-.138-.059.119.089zm-.071.051a.21.21 0 0 0 .071-.051l-.113-.099s-.006.006-.024.015l.065.135zm-.236.047a.56.56 0 0 0 .236-.047l-.065-.135c-.036.017-.096.032-.171.032v.15zm-.236-.047a.56.56 0 0 0 .236.047v-.15c-.075 0-.135-.015-.171-.032l-.065.135zm-.071-.051c.017.019.041.036.071.051l.065-.135c-.018-.009-.024-.015-.024-.015l-.113.099zm-.019-.03c.004.01.011.02.019.03l.113-.099-.132.069zM6 6.634c0 .011.002.022.007.032l.138-.059.005.02-.15.006zm1.431-.113a.56.56 0 0 1 .236-.047v-.15c-.109 0-.216.021-.301.062l.065.135zm-.098.113c0-.044.037-.084.098-.113l-.065-.135c-.073.035-.183.113-.183.248h.15zm.098.113c-.061-.029-.098-.069-.098-.113h-.15c0 .135.109.213.183.248l.065-.135zm.236.047a.56.56 0 0 1-.236-.047l-.065.135a.71.71 0 0 0 .301.062v-.15zm.236-.047a.56.56 0 0 1-.236.047v.15a.71.71 0 0 0 .301-.062l-.065-.135zM8 6.634c0 .044-.037.084-.098.113l.065.135c.073-.035.183-.113.183-.248H8zm-.098-.113c.061.029.098.069.098.113h.15c0-.135-.109-.213-.183-.248l-.065.135zm-.236-.047a.56.56 0 0 1 .236.047l.065-.135c-.085-.041-.191-.062-.301-.062v.15zm-.327.128c-.004.011-.007.021-.007.032h.15l-.005.027-.138-.059zm.019-.03c-.008.01-.015.02-.019.03l.138.059-.119-.089zm.071-.051a.21.21 0 0 0-.071.051l.113.099s.006-.006.024-.015l-.065-.135zm.236-.047a.56.56 0 0 0-.236.047l.065.135c.036-.017.096-.032.171-.032v-.15zm.236.047a.56.56 0 0 0-.236-.047v.15c.075 0 .135.015.171.032l.065-.135zm.071.051c-.017-.019-.041-.036-.071-.051l-.065.135c.018.009.024.015.024.015l.113-.099zm.019.03c-.004-.01-.011-.02-.019-.03l-.113.099.132-.069zM8 6.634c0-.011-.002-.022-.007-.032l-.138.059-.005-.02.15-.006zm-.007.032c.004-.011.007-.021.007-.032h-.15l.005-.027.138.059zm-.019.03c.008-.01.015-.02.019-.03l-.138-.059.119.089zm-.071.051a.21.21 0 0 0 .071-.051l-.113-.099s-.006.006-.024.015l.065.135zm-.236.047a.56.56 0 0 0 .236-.047l-.065-.135c-.036.017-.096.032-.171.032v.15zm-.236-.047a.56.56 0 0 0 .236.047v-.15c-.075 0-.135-.015-.171-.032l-.065.135zm-.071-.051c.017.019.041.036.071.051l.065-.135c-.018-.009-.024-.015-.024-.015l-.113.099zm-.019-.03c.004.01.011.02.019.03l.113-.099-.132.069zm-.007-.032c0 .011.002.022.007.032l.138-.059.005.02-.15.006z" class="C"/></g></g><defs><clipPath id="B"><path fill="#fff" d="M0 0h32v24H0z"/></clipPath></defs></svg>
