<svg xmlns="http://www.w3.org/2000/svg" viewBox="0 0 32 24" fill="none"><g clip-path="url(#A)"><path fill="#fff" d="M0 0h32v24H0z"/><g fill-rule="evenodd"><path d="M0 16h32v8H0v-8z" fill="#14dc5a"/><path d="M0 0H32V10H0V0Z" fill="#0099b5"/></g><g fill="#f7fcff"><path d="M-2 9.5h-.5v.5 6 .5h.5 36 .5V16v-6-.5H34-2z" stroke="#c51918"/><path fill-rule="evenodd" d="M14.541 3.006l-.673.374.192-.76-.645-.559h.842l.282-.719.331.719h.718l-.564.559.271.76-.755-.374zm-3.608 2.291l.673-.374.755.374-.271-.76.564-.559h-.718l-.331-.719-.283.719h-.842l.645.559-.192.76zM8.428 6.961l-.673.374.192-.76-.645-.559h.842l.282-.719.331.719h.718l-.564.559.271.76-.755-.374zm3.179 0l-.673.374.192-.76-.645-.559h.842l.283-.719.331.719h.718l-.564.559.271.76-.755-.374zm2.98 0l-.673.374.192-.76-.645-.559h.842l.282-.719.331.719h.718l-.564.559.271.76-.755-.374zm-.673-1.664l.673-.374.755.374-.271-.76.564-.559h-.718l-.331-.719-.282.719h-.842l.645.559-.192.76zm2.999 2.038l.673-.374.755.374-.271-.76.564-.559h-.718l-.331-.719-.282.719h-.842l.645.559-.192.76zm.673-2.412l-.673.374.192-.76-.645-.559h.842l.282-.719.331.719h.718l-.564.559.271.76-.755-.374zm-.718-1.543l.673-.374.755.374-.271-.76.564-.559h-.718l-.331-.719-.282.719h-.842l.645.559-.192.76zm3.748 3.581l-.673.374.192-.76-.645-.559h.842l.282-.719.331.719h.718l-.564.559.271.76-.755-.374zm-.673-1.664l.673-.374.755.374-.271-.76.564-.559h-.718l-.331-.719-.282.719h-.842l.645.559-.192.76zm.628-2.291l-.673.374.192-.76-.645-.559h.842l.282-.719.331.719h.718l-.564.559.271.76-.755-.374zM5.885 8.241s-2.416-.655-2.37-3.079S6 2.109 6 2.109c-.997-.378-3.945.129-3.999 3.028s2.955 3.47 3.884 3.103z"/></g></g><defs><clipPath id="A"><path fill="#fff" d="M0 0h32v24H0z"/></clipPath></defs></svg>
