<svg xmlns="http://www.w3.org/2000/svg" viewBox="0 0 32 24" fill="none"><g clip-path="url(#A)"><path fill="#fff" d="M0 0h32v24H0z"/><g fill-rule="evenodd"><path d="M0 0H32V24H0V0Z" fill="#f7fcff"/><path d="M0 0H14V24H0V0Z" fill="#ffdc17"/></g><g fill="#af0100"><path d="M22.782 12.751l-.345.022c.082 1.186.337 2.102.77 2.748.697 1.042 1.617 1.848 2.233 1.848.14 0 .172.052.126.18-.066.182-.273.362-.54.43-.444.114-1.453.174-3.011.174v.335c1.589 0 2.616-.06 3.1-.185.375-.097.673-.354.777-.644.12-.335-.061-.625-.453-.625-.457 0-1.306-.743-1.943-1.695-.396-.592-.636-1.455-.715-2.589zm-1.635 0l.345.022c-.082 1.186-.337 2.102-.77 2.748-.697 1.042-1.617 1.848-2.233 1.848-.14 0-.172.052-.126.18.066.182.273.362.54.43.444.114 1.453.174 3.011.174v.335c-1.589 0-2.616-.06-3.1-.185-.375-.097-.673-.354-.777-.644-.12-.335.061-.625.453-.625.457 0 1.306-.743 1.943-1.695.396-.592.636-1.455.715-2.589z"/></g><g fill-rule="evenodd"><path d="M28.067 6.798l-9.141 7.126a3.34 3.34 0 0 0-1.033-.161c-1.483 0-2.724.947-2.724 2.177s1.241 2.177 2.724 2.177a3.43 3.43 0 0 0 .499-.036c-.15-.117-.262-.264-.318-.419-.067-.187-.04-.361.066-.477a2.49 2.49 0 0 1-.247.012c-1.001 0-1.773-.59-1.773-1.256s.772-1.256 1.773-1.256 1.773.589 1.773 1.256c0 .204-.072.4-.201.575l.073-.067c.317-.295-.395.922-1.011.922-.14 0-.172.052-.126.18.061.171.247.339.49.416 1.003-.314 1.727-1.088 1.727-2.027a1.84 1.84 0 0 0-.333-1.049l4.913-4.17.329.34.237-.215.821.608-.343.264.7.851 1.413-1.089.024-.012-.004-.003.088-.067-.7-.851-.339.261-.918-.634.108-.098-.295-.305.444-.377.236.243.253-.229.796.63-.334.258.7.851 1.21-.933.139-.076-.02-.015.191-.148-.7-.851-.396.305-.871-.669.118-.107-.202-.209.904-.768-.717-.878z" fill="#f4b300"/><g fill="#bfbfbf"><path d="M15.687 14.726c.263 0 .476-.169.476-.377s-.213-.377-.476-.377-.476.169-.476.377.213.377.476.377zm.173 3.433c.263 0 .476-.169.476-.377s-.213-.377-.476-.377-.476.169-.476.377.213.377.476.377zm4.714-.377c0 .208-.213.377-.476.377s-.476-.169-.476-.377.213-.377.476-.377.476.169.476.377zm2.81-1.842c0-.553.251-1.048.662-1.426l-5.25-4.065-.06.046.153.139-.414.428-.218-.198-.804.619.307.237-.7.851-1.398-1.078-.039-.024.004-.003-.088-.067.7-.851.339.261.918-.634-.108-.098.397-.41-.462-.358-.319.329-.244-.221-.785.636.315.243-.7.851-1.172-.903-.177-.106.02-.015-.191-.148.7-.851.396.305.871-.669-.118-.107.239-.247-.942-.729.594-.719 9.082 7.033a3.3 3.3 0 0 1 1.216-.227c1.483 0 2.724.947 2.724 2.177s-1.241 2.177-2.724 2.177a3.43 3.43 0 0 1-.499-.036.96.96 0 0 0 .318-.419c.067-.187.04-.361-.066-.477a2.49 2.49 0 0 0 .247.012c1.001 0 1.773-.59 1.773-1.256s-.772-1.256-1.773-1.256-1.773.589-1.773 1.256c0 .204.072.401.201.575l-.073-.067c-.317-.295.395.922 1.011.922.14 0 .172.052.126.18-.061.171-.247.339-.49.416-1.003-.314-1.727-1.088-1.727-2.027z"/></g><path d="M28.314 14.726c-.263 0-.476-.169-.476-.377s.213-.377.476-.377.476.169.476.377-.213.377-.476.377zm-.173 3.433c-.263 0-.476-.169-.476-.377s.213-.377.476-.377.476.169.476.377-.213.377-.476.377zm-4.713-.377c0 .208.213.377.476.377s.476-.169.476-.377-.213-.377-.476-.377-.476.169-.476.377z" fill="#f4b300"/><path d="M21.741 11.795a.13.13 0 0 0-.13.13v.54h-.48c-.069 0-.126.056-.126.126s.056.126.126.126h.48v7.154a.13.13 0 0 0 .13.13H22a.13.13 0 0 0 .13-.13v-7.154h.739c.069 0 .126-.056.126-.126s-.056-.126-.126-.126h-.739v-.54a.13.13 0 0 0-.13-.13h-.259z" fill="#af0100"/><g fill="#979797"><path d="M16.755 7.594l.212.145c.493-.674.937-.809 1.389-.455.78.61.847 2.1.013 2.598-.994.595-1.498 1.754-1.057 2.386.407.582 1.388.362 2.356-.37a5.83 5.83 0 0 0 .49-.414l-.204-.158a5.55 5.55 0 0 1-.445.374c-.864.652-1.694.839-1.982.427-.344-.492.096-1.503.979-2.031.999-.597.922-2.296.013-3.007-.586-.459-1.193-.274-1.764.505zm3.808 3.051l.211.146c.367-.496.618-1.032.701-1.561l-.257-.038c-.077.487-.311.987-.656 1.452zm6.706-3.051l-.212.145c-.493-.674-.937-.809-1.389-.455-.78.61-.847 2.1-.013 2.598.994.595 1.498 1.754 1.057 2.386-.407.582-1.388.362-2.356-.37a5.83 5.83 0 0 1-.49-.414l.205-.158c.14.131.289.257.445.374.864.652 1.694.839 1.981.427.344-.492-.096-1.503-.979-2.031-.999-.597-.922-2.296-.013-3.007.586-.459 1.193-.274 1.764.505zm-3.808 3.051l-.211.146c-.367-.496-.618-1.032-.701-1.561l.256-.038c.077.487.311.987.656 1.452z"/></g><g fill="#af0100"><path d="M21.87 20.017c.287 0 .519-.116.519-.259s-.232-.259-.519-.259-.519.116-.519.259.232.259.519.259zm-.086-10.798c1.003 0 1.816-.136 1.816-.303s-.813-.303-1.816-.303-1.816.136-1.816.303.813.303 1.816.303z"/></g><path d="M21.886 2.038h-.259v.299h-.246v.251h.246v.733h.259v-.733h.3v-.251h-.3v-.299zm-1.951 3.618l-.116-.195.194-.075-.338-.74.237-.101.348.762.225-.059c-.053-.06-.086-.143-.086-.234 0-.185.136-.335.303-.335s.303.15.303.335c0 .052-.011.102-.03.146a6.3 6.3 0 0 1 .644-.051v-.284h-.325v-.202h.325v-.241h.343v.241h.396v.202h-.396v.282c.255.004.494.022.717.053-.019-.044-.03-.094-.03-.146 0-.185.136-.335.303-.335s.303.15.303.335c0 .095-.036.18-.093.241l.279.085.248-.545.237.101-.246.54.058.027-.131.188-.021-.01-.04.087-.237-.101.039-.085c-.379-.136-.84-.209-1.385-.219v.09h-.343v-.088c-.647.02-1.208.13-1.684.33zm-.116.224l.061.102-.204.087.338.74-.194.075.116.195c.476-.2 1.038-.31 1.684-.33v.088h.343v-.09c.545.01 1.006.083 1.385.219l-.039.085.237.101.04-.087.021.01.131-.188-.058-.027.246-.54-.237-.101-.248.545-.279-.085c.057-.061.093-.146.093-.241 0-.185-.136-.335-.303-.335s-.303.15-.303.335c0 .052.011.102.03.146a5.93 5.93 0 0 0-.717-.053v-.282h.396v-.202h-.396v-.241h-.343v.241h-.325v.202h.325v.284l-.644.051c.019-.044.03-.093.03-.146 0-.185-.136-.335-.303-.335s-.303.15-.303.335c0 .091.033.174.086.234l-.225.059-.303-.664c.524-.215 1.149-.323 1.876-.323.736 0 1.326.111 1.773.329l.131-.188c-.49-.24-1.125-.359-1.903-.359s-1.448.118-2.015.356zm0 1.423l.061.102-.204.087.338.74-.194.075.116.195c.476-.2 1.038-.31 1.684-.33v.088h.343v-.09c.545.01 1.006.083 1.385.219l-.039.085.237.101.04-.087.021.01.131-.188-.058-.027.246-.54-.237-.101-.248.545-.279-.085c.057-.061.093-.146.093-.241 0-.185-.136-.335-.303-.335s-.303.15-.303.335c0 .052.011.102.03.146a5.93 5.93 0 0 0-.717-.053v-.282h.396V7.47h-.396v-.241h-.343v.241h-.325v.202h.325v.284l-.644.051c.019-.044.03-.093.03-.146 0-.185-.136-.335-.303-.335s-.303.15-.303.335c0 .091.033.174.086.234l-.225.059-.303-.664c.524-.215 1.149-.323 1.876-.323.736 0 1.326.111 1.773.329l.131-.188c-.49-.24-1.125-.359-1.903-.359s-1.448.118-2.015.356zm0 1.423l.116.195c.528-.222 1.161-.333 1.899-.333s1.326.111 1.773.329l.131-.188c-.49-.24-1.125-.359-1.903-.359s-1.448.118-2.015.356z" fill="#f4b300"/></g></g><defs><clipPath id="A"><path fill="#fff" d="M0 0h32v24H0z"/></clipPath></defs></svg>
