<svg xmlns="http://www.w3.org/2000/svg" viewBox="0 0 32 24" fill="none"><style><![CDATA[.B{fill-rule:evenodd}]]></style><g clip-path="url(#B)"><path fill="#fff" d="M0 0h32v24H0z"/><path d="M0 0V24H32V0H0Z" fill="#2e42a5" class="B"/><mask id="A" maskUnits="userSpaceOnUse" x="0" y="0" width="32" height="24"><path d="M0 0V24H32V0H0Z" fill="#fff" class="B"/></mask><g mask="url(#A)" class="B"><path d="M0 0V8H32V0H0Z" fill="#feca00"/><path d="M0 16v8h32v-8H0z" fill="#e31d1c"/><path d="M12.737 11.859l.983-.558 1.103.558-.396-1.133.824-.833h-1.048l-.484-1.072-.412 1.072h-1.229l.925.818h-1.037l-.484-1.072-.412 1.072H9.838l.941.833-.18.726h-.785l-.484-1.072-.412 1.072H7.69l.941.833-.174.703h-.343l-.484-1.072-.412 1.072h-1.23l.941.833-.281 1.133.983-.557 1.103.557-.396-1.133.824-.833h-.053l.224-.127 1.103.557-.396-1.133.472-.477-.013.051.983-.557 1.103.557-.396-1.133.818-.827.011.01-.281 1.133zm6.486-.043l-.983-.557-1.103.557.396-1.133-.824-.833h1.048l.484-1.072.412 1.072h1.23l-.925.818H20l.483-1.072.412 1.072h1.23l-.941.833.18.726h.785l.483-1.072.412 1.072h1.229l-.941.833.174.703h.343l.484-1.072.412 1.072h1.23l-.941.833.281 1.133-.983-.558-1.103.558.396-1.133-.824-.833h.053l-.224-.127-1.103.557.396-1.133-.472-.477.013.051-.983-.558-1.103.558.396-1.133-.82-.83-.014.012.281 1.133z" fill="#f7fcff"/><path d="M15.833 10.535l-.983.557.281-1.133-.941-.833h1.229l.412-1.072.484 1.072h1.048l-.823.833.396 1.133-1.103-.557z" fill="#f7fcff"/></g></g><defs><clipPath id="B"><path fill="#fff" d="M0 0h32v24H0z"/></clipPath></defs></svg>
