<svg xmlns="http://www.w3.org/2000/svg" viewBox="0 0 32 24" fill="none"><style><![CDATA[.B{fill-rule:evenodd}]]></style><g clip-path="url(#C)"><path fill="#fff" d="M0 0h32v24H0z"/><path d="M0 0V24H32V0H0Z" fill="#f7fcff" class="B"/><mask id="A" maskUnits="userSpaceOnUse" x="0" y="0" width="32" height="24"><path d="M0 0V24H32V0H0Z" fill="#fff" class="B"/></mask><g mask="url(#A)"><path d="M17.603 8.215c.242.138.387.49.387.49h-4.088l.282-.49s-.282-.128-.14-.128.547-.568.547-.568h-.169s-.087-.141.169-.141.46-.914.46-.914.168-.428-.243-.536-.906.358-.906.358.121-.745.282-.906c.075-.075.215-.087.343-.098.148-.013.28-.024.28-.129 0-.196.481-.349 1.267-.349s1.072.939 1.072 1.124.269 1.165.269 1.165-.269 0-.269.127.842.673.842.673-.629.185-.387.323zM2.777 4.87c.314-.135 3.501.815 5.889 1.527h0 0 0l2.627.739c.399 0 1.149.965.774 1.371s-.502.644-.251.644 1.516-.328 1.516-.328v3.772s-1.213.288-1.516 0c-.147-.139-.371-.148-.563-.155-.205-.008-.373-.014-.373-.176 0-.314-.699-.363-.699-.363s-.647-.213-.647-.414-.423-.768-.423-.768-1.613-.913-2.984-1.915l-.813-.576c-1.035-.721-1.889-1.316-2.042-2.005-.716-.709-.988-1.141-.494-1.353zm10.067 7.962s-.543.374-1.144 1.376c-.295.493-.319.927-.336 1.241-.018.324-.028.52-.324.52-.345 0-.596.075-.8.135a1.35 1.35 0 0 1-.369.077c-.274 0-.801 1.035-.537 1.274s1.366.621 1.366 0 .297-.974.835-.974 1.502-.357 1.502-1.14 1.05-.727 1.05-.727l-1.243-1.783zm10.718-6.436L29.45 4.87c.494.212.222.644-.494 1.353-.153.689-1.007 1.284-2.042 2.005l-.813.576c-1.371 1.002-2.984 1.915-2.984 1.915s-.423.567-.423.768-.647.414-.647.414-.699.049-.699.363c0 .162-.168.168-.373.176-.192.007-.416.015-.563.155-.304.288-1.516 0-1.516 0V8.822l1.516.328c.251 0 .124-.237-.251-.644s.375-1.371.774-1.371c.145 0 1.254-.33 2.627-.739h0 0 0zm-4.178 6.436s.543.374 1.144 1.376c.296.493.319.927.337 1.241.018.324.029.52.324.52.345 0 .596.075.8.135a1.35 1.35 0 0 0 .369.077c.274 0 .8 1.035.537 1.274s-1.366.621-1.366 0-.297-.974-.836-.974-1.502-.357-1.502-1.14-1.05-.727-1.05-.727l1.243-1.783zm-5.842 2.61c0-.345.609-.605.609-.605l1.835-.774.024.465.023-.465 1.835.774s.609.26.609.605c0 .173.259.479.518.784h0c.258.304.515.607.515.777 0 .301-.696.978-1.116 1.386l-.154.151-.308.336c-.309.351-.651.739-.938.739-.202 0-.365.14-.521.275-.144.124-.282.242-.438.242-.008 0-.016-.004-.023-.011-.007.007-.015.011-.024.011-.157 0-.295-.119-.438-.242-.156-.135-.319-.275-.521-.275-.287 0-.629-.388-.938-.739l-.308-.336-.154-.151h0c-.42-.409-1.116-1.085-1.116-1.386 0-.171.257-.474.515-.777s.518-.611.518-.784z" fill="#e8aa00" class="B"/><path d="M7.01 10.673c.04.463.172.735.172.735s.232.364.363.369l.219.514 1.354 3.371c-.032-.024-.079-.051-.143-.081-.421-.197-.723-.219-.723-.219s-.564.024-.506.184.757.507 1.041.404l.095-.034c.131-.045.251-.087.284-.141l.201.447c-.42-.196-.721-.218-.721-.218s-.564.024-.506.184.757.507 1.041.404l.095-.034.208-.081c.507 1.08.996 1.943 1.345 2.161h.704l-1.376-2.065c.231-.164.553-.526.553-.755l.001-.101c.005-.266.008-.492-.284-.201-.329.328-.453.604-.453.604l-.032.114-.187-.3c.232-.162.559-.529.559-.758l.001-.101c.005-.266.008-.492-.284-.201-.329.328-.453.604-.453.604l-.032.116-.267-.445c.226-.12.64-.55.64-.809l.001-.101c.004-.266.008-.492-.284-.201-.329.328-.453.604-.453.604s-.037.118-.059.243l-.347-.605c.181.001.747-.537.747-.839l.001-.101c.004-.266.008-.492-.284-.201-.329.328-.453.604-.453.604s-.084.265-.075.423l-.456-.849h.004c.17 0 .736-.538.736-.84l.001-.101c.004-.266.008-.493-.284-.201-.329.328-.453.604-.453.604s-.075.238-.076.398l-.425-.886-.193-.519c.008-.004.016-.009.023-.018.109-.13.061-.909-.171-1.104l-.077-.066c-.201-.174-.372-.323-.336.088zm.782 1.184s.022-.302.219-.723c.175-.374.249-.16.335.092l.033.095c.103.284-.244.983-.404 1.041s-.184-.506-.184-.506zm.788 2.889c-.421-.197-.723-.219-.723-.219s-.564.024-.506.184.757.507 1.041.404l.095-.034c.252-.087.466-.161.092-.335zm-1.118-1.119s.302.023.723.219c.374.175.16.249-.092.335l-.095.034c-.284.103-.983-.244-1.041-.404s.506-.184.506-.184zm.393-.68c-.421-.197-.723-.219-.723-.219s-.564.024-.506.184.757.507 1.041.404l.095-.033h0 0c.252-.087.466-.161.092-.335zm-.881-1.302s.276.124.604.453c.291.292.065.288-.201.284h0l-.101-.001c-.302 0-.84-.566-.84-.736s.538 0 .538 0z" fill="#46a000" class="B"/><path d="M28.692 10.339h-2.137s.453 0 .503.438v3.984c-.01.29-.503.389-.503.389h2.137c-.456-.008-.556-.389-.556-.389v-3.984c0-.337.556-.438.556-.438zM4.565 14.853L2.83 10.404h1.479c-.257 0-.352.327-.352.327l1.036 2.953s1.002-2.411 1.002-2.839-.42-.442-.42-.442h1.928l-.466.156s-1.543 3.536-1.543 4.294c-.074.168.71.28.71.28h-2.07l.433-.28zm17.701-1.397l1.146-2.111.034 2.349-.355-.115-.252 1.568 1.267-2.43-.422-.159 1.568-1.698-.534 2.294-.304-.268-1.797 3.352 2.005-2.298-.387-.193 1.98-1.297-.862 2.113-.481-.346-2.035 2.562-.844-.325.844-3.001h-.573zm-.662 4.003h-.634v.482h-.499L19.06 19.58h.78l.271.922.362-.326v.326l.708-.326.677.586.505-2.253-.34-.25.175-.153-.175-.648h-.418z" fill="#0093e1" class="B"/><path d="M12.344 8.013s.931.643 1.861.643 1.861-.643 1.861-.643.931.643 1.861.643 1.861-.643 1.861-.643v2.901c0 2.999-3.722 5.324-3.722 5.324s-3.903-2.134-3.722-5.36V8.013z" fill="#f7fcff" class="B"/><mask id="B" maskUnits="userSpaceOnUse" x="12" y="8" width="8" height="9"><path d="M12.344 8.013s.931.643 1.861.643 1.861-.643 1.861-.643.931.643 1.861.643 1.861-.643 1.861-.643v2.901c0 2.999-3.722 5.324-3.722 5.324s-3.903-2.134-3.722-5.36V8.013z" fill="#fff" class="B"/></mask><g mask="url(#B)" class="B"><path d="M12.08 7.82h7.84v3.02h-7.84V7.82z" fill="#2e42a5"/><path d="M13.595 10.84h-.659v6.104h.659V10.84zm1.12 0h-.659v6.104h.659V10.84zm.461 0h.659v6.104h-.659V10.84zm1.779 0h-.659v6.104h.659V10.84zm.461 0h.659v6.104h-.659V10.84zm1.779 0h-.659v6.104h.659V10.84z" fill="#af0100"/></g></g></g><defs><clipPath id="C"><path fill="#fff" d="M0 0h32v24H0z"/></clipPath></defs></svg>
