<svg xmlns="http://www.w3.org/2000/svg" viewBox="0 0 32 24" fill="none"><g clip-path="url(#B)"><path fill="#fff" d="M0 0h32v24H0z"/><g fill-rule="evenodd"><path d="M0 0H32V24H0V0Z" fill="#f7fcff"/><path d="M0 0V8H32V0H0Z" fill="#c51918"/><path d="M0 16v8h32v-8H0z" fill="#5eaa22"/><path d="M0-2l16.67 14L0 26V-2z" fill="#272727"/></g><mask id="A" maskUnits="userSpaceOnUse" x="-2" y="-8.355" width="36" height="40" fill="#000"><path fill="#fff" d="M-2-8.355h36v40H-2z"/><path fill-rule="evenodd" d="M0-3.355L17.408 10H32v4H17.169L0 26.812V22.34L14 12 0 1.534v-4.889z"/></mask><path fill-rule="evenodd" d="M0-3.355L17.408 10H32v4H17.169L0 26.812V22.34L14 12 0 1.534v-4.889z" fill="#ffd018"/><path d="M17.408 10l-1.217 1.587.539.413h.679v-2zM0-3.355l1.217-1.587L-2-7.41v4.055h2zM32 10h2V8h-2v2zm0 4v2h2v-2h-2zm-14.831 0v-2h-.664l-.532.397L17.169 14zM0 26.812h-2v3.988l3.196-2.385L0 26.812zm0-4.471l-1.188-1.609-.812.6v1.009h2zM14 12l1.188 1.609 2.165-1.599-2.156-1.612L14 12zM0 1.534h-2v1.002l.803.6L0 1.534zm18.626 6.879L1.217-4.942-1.217-1.768l17.408 13.355 2.435-3.174zM32 8H17.408v4H32V8zm2 6v-4h-4v4h4zm-16.831 2H32v-4H17.169v4zM1.196 28.414l17.169-12.811-2.392-3.206-17.169 12.812 2.392 3.206zM-2 22.34v4.471h4V22.34h-4zm14.812-11.949l-14 10.34 2.376 3.217 14-10.34-2.376-3.218zM-1.197 3.136l14 10.466 2.395-3.204-14-10.466-2.395 3.204zM-2-3.355v4.889h4v-4.889h-4z" fill="#272727" mask="url(#A)"/><g fill="#ffd018"><path d="M4.874 16.768l.002-1.58c1.408-.311 2.341-.715 2.795-1.201 1.118-1.378.375-4.607-1.923-4.586-1.138 0-2.315.542-2.315 1.819 0 1.585.326 2.263 1.442 2.263 1.109 0 1.516.059 2.246-.936l.793.245c-.783 1.067-1.838 1.91-3.041 1.91-1.982 0-3.06-1.494-3.06-3.222 0-2.133 1.732-3.627 3.82-3.627 1.558 0 4.022 1.908 4.022 3.627s0 2.507-1.351 3.708c-.544.484-1.893 1.347-3.431 1.58z"/><g fill-rule="evenodd"><path d="M4.991 9.88c-.076-.02-.154.025-.175.102l-.055.207c-.056-.073-.146-.085-.209-.036s-.074.138-.026.2l.098.127-.165.152c-.058.054-.062.144-.008.202s.144.062.202.008l.145-.134.25.328-.274.147c-.07.037-.096.124-.058.193s.124.096.193.058l.313-.168.213.286-.376.202c-.07.037-.096.124-.058.194s.124.096.193.058l.412-.221.287.4-.263.141c-.07.037-.096.124-.058.193s.124.096.193.058l.291-.156c.121.18.183.288.183.317 0 .079.064.143.143.143s.143-.064.143-.143c0-.072-.075-.224-.232-.468l.218-.478c.033-.072.001-.156-.071-.189s-.157-.001-.189.071l-.144.318-.316-.442.15-.329c.033-.072.001-.157-.071-.189s-.157-.001-.189.071l-.084.185-.144-.192.202-.446c.033-.072.001-.157-.071-.189s-.157-.001-.189.071l-.138.305-.276-.361.111-.42c.02-.076-.025-.154-.102-.175z"/><path d="M5.952 9.88c.076-.02.154.025.175.102l.055.207c.056-.073.146-.085.209-.036s.074.138.026.2l-.098.127.165.152c.058.054.062.144.008.202s-.144.062-.202.008l-.145-.134-.25.328.274.147c.07.037.096.124.058.193s-.124.096-.193.058l-.313-.168-.213.286.376.202c.07.037.096.124.058.194s-.124.096-.193.058l-.412-.221-.287.4.263.141c.07.037.096.124.058.193s-.124.096-.193.058l-.291-.156c-.121.18-.183.288-.183.317 0 .079-.064.143-.143.143s-.143-.064-.143-.143c0-.072.075-.224.232-.468l-.218-.478c-.033-.072-.001-.156.071-.189s.157-.001.189.071l.144.318.316-.442-.15-.329c-.033-.072-.001-.157.071-.189s.157-.001.189.071l.084.185.144-.192-.202-.446c-.033-.072-.001-.157.071-.189s.157-.001.189.071l.138.305.276-.361-.111-.42c-.02-.076.025-.154.102-.175z"/></g></g></g><defs><clipPath id="B"><path fill="#fff" d="M0 0h32v24H0z"/></clipPath></defs></svg>
