<svg xmlns="http://www.w3.org/2000/svg" viewBox="0 0 32 24" fill="none"><style><![CDATA[.B{fill-rule:evenodd}]]></style><g clip-path="url(#B)"><path fill="#fff" d="M0 0h32v24H0z"/><path d="M0 0V24H32V0H0Z" fill="#c51918" class="B"/><mask id="A" maskUnits="userSpaceOnUse" x="0" y="0" width="32" height="24"><path d="M0 0V24H32V0H0Z" fill="#fff" class="B"/></mask><g mask="url(#A)" class="B"><path d="M0 0V14H16V0H0Z" fill="#2e42a5"/><use href="#C" fill="#feffff"/><path d="M11.566 7.772l-1.06.64.242-1.249-.883-.935 1.195-.051.506-1.166.506 1.166h1.193l-.881.985.265 1.249-1.083-.64zm-4.1-3.634l-.998.602.228-1.175-.831-.88 1.125-.048.476-1.097.476 1.097h1.123l-.829.927.25 1.175-1.02-.602zm1.08 4.287l-.624.376.142-.735-.519-.55.703-.03.297-.686.297.686h.702l-.518.579.156.735-.637-.376zm-1.137 4.403l-1.497.903.341-1.763-1.246-1.319 1.688-.071.714-1.646.714 1.646h1.685l-1.243 1.391.374 1.763-1.53-.903z" fill="#feffff"/></g></g><defs><clipPath id="B"><path fill="#fff" d="M0 0h32v24H0z"/></clipPath><path id="C" d="M3.566 7.772l-1.06.64.242-1.249-.883-.935 1.195-.051.506-1.166.506 1.166h1.193l-.881.985.265 1.249-1.083-.64z"/></defs></svg>
