<svg xmlns="http://www.w3.org/2000/svg" viewBox="0 0 32 24" fill="none"><style><![CDATA[.B{fill-rule:evenodd}.C{fill:#dfdfdf}.D{stroke-width:.3}]]></style><g clip-path="url(#A)"><g fill="#fff"><path d="M0 0h32v24H0z"/><path d="M0 0h32v24H0z"/></g><path d="M11.09 21.229c-.666.201-1.625.614-2.009.845-.124.08-.113.171.079.513.135.221.271.413.293.413.034 0 .406-.151.824-.342l1.196-.463.465-.103c.043.093.016.041.094.186.112.209.042.204.236.261.204.06.707-.183.707-.183.587-.181.914-.201 3.025-.201s2.438.02 3.025.211l.533.161c.06.017.092.031.156.017.058-.012.119-.092.145-.14l.163-.376a4.99 4.99 0 0 0 .515.166 14.18 14.18 0 0 1 1.185.463l.824.342c.023 0 .158-.191.293-.413.271-.473.293-.433-.688-.886-1.309-.604-2.618-.875-2.743-.584l-.073.16-.819-.149c-1.061-.171-3.973-.171-5.034 0-.344.05-.577.134-.771.182-.11-.196-.087-.118-.11-.174-.09-.201-.688-.17-1.512.092h0z" class="C"/><path d="M12.05 8.793c-.023.328.045.56.224.736.08.084.148.184.148.184l-.167.176c-.178.176-.25.404-.25.644 0 .248.072.42.265.644 0 0 .163.082.159.184s-.174.204-.174.204c-.349.408-.337.876.027 1.264l.155.172h3.57 3.566l.174-.196c.337-.38.337-.792.004-1.228 0 0-.168-.12-.171-.22s.159-.2.159-.2c.349-.44.341-.844-.019-1.268-.163-.188-.167-.224-.038-.312.209-.148.337-.648.243-.952-.14-.456-.743-.76-1.11-.56a2.45 2.45 0 0 0-.307.22c-.102.088-.197.156-.216.156s-.106-.072-.201-.16c-.368-.332-.81-.372-1.178.004 0 0-.052.201-.13.208s-.186-.18-.186-.18c-.375-.372-.845-.356-1.228.036 0 0-.054.164-.14.144s-.158-.212-.158-.212c-.224-.216-.365-.212-.623-.216-.148-.002-.417.034-.579.155s-.134.267-.171.257c-.094-.025-.197-.176-.197-.176-.364-.328-.656-.384-1.008-.188-.277.152-.421.376-.443.68z" fill="#171796"/><path d="M12.285 14.492s.145.071.14.161-.159.181-.159.181a1.49 1.49 0 0 0-.212.311c-.121.303-.03.708.209.941.144.146.148.205.011.378-.061.075-.133.181-.159.236-.284.559.14 1.26.77 1.26.25 0 .44-.083.61-.272.136-.15.209-.154.33-.02.178.205.413.331.61.331.231 0 .375-.075.61-.307 0 0 .093-.182.178-.181s.163.185.163.185c.353.394.709.405 1.183.031 0 0 .104-.152.193-.15s.167.157.167.157c.209.189.364.264.569.264s.356-.083.595-.327c0 0 .123-.185.197-.197s.152.142.152.142c.292.272.451.358.663.358.22 0 .375-.075.595-.279.205-.193.315-.417.288-.602a1.6 1.6 0 0 0-.33-.693s-.129-.011-.11-.11.171-.201.171-.201c.371-.453.375-.803.008-1.252 0 0-.154-.089-.152-.189s.159-.201.159-.201c.356-.437.353-.842-.008-1.24L19.533 13l-3.548.004-3.548.004-.159.185c-.372.429-.368.866.008 1.299z" fill="#d42e12"/><g fill="#e9d315" class="B"><path d="M17.821 13.622c.172 0 .315.117.344.271l.006.06v.615l.735-.39c.163-.087.366-.026.453.135.078.143.038.317-.086.415l-.05.033-.616.327.616.327.05.033c.124.098.164.272.086.415-.088.161-.29.221-.453.135l-.735-.391v.685c0 .183-.157.331-.35.331-.172 0-.315-.117-.344-.271l-.006-.059v-.601l-.578.307c-.163.086-.366.026-.453-.135-.078-.143-.038-.317.086-.415l.05-.033.617-.327-.617-.327-.05-.033c-.124-.098-.164-.272-.086-.415.087-.161.29-.221.453-.135l.578.307v-.531c0-.183.157-.331.35-.331zm-3.4 0c.172 0 .315.117.344.271l.006.06v.615l.736-.39c.163-.087.366-.026.453.135.078.143.038.317-.086.415l-.05.033-.617.327.617.327.05.033c.124.098.164.272.086.415-.088.161-.29.221-.453.135l-.736-.391v.685c0 .183-.157.331-.35.331-.172 0-.315-.117-.344-.271l-.006-.059v-.601l-.578.307c-.163.086-.366.026-.453-.135-.078-.143-.038-.317.086-.415l.05-.033.617-.327-.617-.327-.05-.033c-.124-.098-.164-.272-.086-.415.088-.161.29-.221.453-.135l.578.307v-.531c0-.183.157-.331.35-.331z"/></g><path d="M10.853 12.857h.15 0v.067c-.085-.003-.148-.065-.15-.066h0 0 0v.002.009.036.137.499l.002 1.599.007 3.213c-.006.127.029.223.101.302.032.035.068.065.101.09l.043.033.061.047.093-.118-.093.118c.09.071.243.127.42.173a5.32 5.32 0 0 0 .686.121c.535.063 1.217.087 1.939.03.306.003.53.062.701.145s.299.194.406.31l.15.176.003.003.141.164c.099.103.225.201.404.201s.304-.099.401-.203c.048-.052.094-.111.138-.169l.003-.004.139-.172c.101-.115.22-.225.382-.308s.376-.142.672-.144l2.04-.057c.262-.025.484-.057.658-.097.164-.038.311-.088.4-.165h0l.007-.006.023-.02.073-.069a.68.68 0 0 0 .158-.236c.031-.091.039-.174.04-.234a.64.64 0 0 0-.004-.073l-.002-5.338V7v-.15h-.15H16h-4.997-.15V7v5.857z" stroke="#000" class="D"/><path d="M14.869 9.866c-.268.5-.28.724-.057 1.124.174.308.378.503.658.628.73.33 1.663.086 2.03-.529.227-.378.2-1.009-.049-1.285l-.068-.074-.064.218c-.091.311-.181.468-.363.634-.34.311-.809.381-1.293.189-.374-.151-.525-.359-.665-.939l-.034-.144-.095.176h0z" fill="#fff"/><g class="B"><path d="M18.479 3.5c0 .866-.623 1.5-1.5 1.5a1.44 1.44 0 0 1-1.495-1.5c0-.871.618-1.5 1.495-1.5s1.5.629 1.5 1.5zM6.523 4.953V2.932l.893 2.021h.391l.872-2.021v2.021h.528V2.047h-.613l-.977 2.233-.988-2.233H6v2.905h.523zm3.703 0l.333-.804h1.242l.333.804h.56l-1.247-2.905h-.528L9.672 4.953h.555zm.951-2.304l-.444 1.074h.888l-.444-1.074zm3.075 2.304V3.793l1.178-1.746h-.581l-.856 1.301-.861-1.301h-.597l1.173 1.746v1.159h.544zm2.726-.393c-.571 0-.94-.445-.94-1.06s.37-1.06.94-1.06.946.445.946 1.06-.375 1.06-.946 1.06zm3.286-2.077v2.47h-.549v-2.47h-1.078v-.435h2.705v.435h-1.078zm3.022 2.47v-2.47h1.078v-.435h-2.705v.435h1.078v2.47h.549zM27 4.513v.44h-2.119V2.047H27v.435h-1.58v.767h1.432v.431H25.42v.833H27z" fill="#ff2500"/><path d="M26.777 18.8s-.34-.67.52-1 1.28.101 1.659.501.337 1.609.337 1.609l-.936 1.497-2.871.594-1.144-.594L23 18.8l.1-2.559.136-1.183c0-.203.623-1.776.623-1.776l.59-.585 1.669-.888.786-.393.976-1.233-.108-.982-1.112 1.417h-.942l-.98.411-.396.373-.482.015-.189-.388.526-.845.795-.801-.366-.677.541-.247-.104-.373.601.373.454-.373.086-.343-1.037-.556s1.014-.426 1.492-.381.928.606.928.606l1.367-.225s-.366.899-.248.899h.861l-.276 1.116h1.059l-.783.86.611.335-.93.632.93.626-.865.568.487.942.767-.467.431.585-.649 1.44-1.059.751-1.009.254-.987.257-.392.257-.244-.985-1.668 1.144-.866 1.793.255 1.63.611.834 1.126.403 1.47-.276.769-.935.184-.954s-.445-.648-.768-.594-.995.499-.995.499z" stroke="#000" class="C D"/></g><g fill="#000"><use href="#B"/><path d="M23.744 13.379l-.037.398c1.154.107 1.918.049 2.317-.199l.08-.056-.249-.313c-.243.193-.876.265-1.874.19l-.237-.02zm-.322 1.076l-.066.394c.68.114 1.107.062 1.251-.236l.03-.079-.385-.11c-.02.071-.236.113-.675.054l-.155-.024z"/><g class="B"><path d="M25.75 9.5a.25.25 0 1 1 0-.5.25.25 0 1 1 0 .5z"/></g></g><path d="M5.224 18.8s.34-.67-.52-1-1.28.101-1.659.501-.337 1.609-.337 1.609l.936 1.497L6.515 22l1.144-.594L9 18.8l-.1-2.559-.136-1.183c0-.203-.623-1.776-.623-1.776l-.59-.585-1.669-.888-.786-.393-.976-1.233.108-.982 1.112 1.417h.942l.981.411.396.373.482.015.189-.388-.527-.845-.795-.801.366-.677-.542-.247.104-.373-.601.373-.454-.373-.086-.343 1.037-.556s-1.014-.426-1.492-.381-.928.606-.928.606l-1.367-.225s.366.899.248.899h-.861l.276 1.116H1.649l.783.86-.611.335.93.632-.93.626.865.568-.487.942-.767-.467-.431.585.649 1.44 1.059.751 1.009.254.987.257.392.257.244-.985L7.008 16.4l.866 1.793-.255 1.63-.611.834-1.126.403-1.47-.276-.769-.935-.184-.954s.445-.648.768-.594.995.499.995.499z" stroke="#000" class="B C D"/><g fill="#000"><use href="#C"/><path d="M8.256 13.379l.037.398c-1.154.107-1.918.049-2.317-.199l-.08-.056.249-.313c.243.193.876.265 1.874.19l.237-.02zm.322 1.076l.066.394c-.68.114-1.107.062-1.251-.236l-.03-.079.385-.11c.02.071.236.113.675.054l.155-.024z"/><path d="M6.25 9.5a.25.25 0 1 0 0-.5.25.25 0 1 0 0 .5z" class="B"/></g></g><defs><clipPath id="A"><path fill="#fff" d="M0 0h32v24H0z"/></clipPath><path id="B" d="M25.082 12.225l-.037.398c1.154.107 1.918.049 2.317-.199l.08-.056-.249-.313c-.243.193-.876.265-1.874.19l-.237-.02z"/><path id="C" d="M6.918 12.225l.037.398c-1.154.107-1.918.049-2.317-.199l-.08-.056.249-.313c.243.193.876.265 1.874.19l.237-.02z"/></defs></svg>
