<svg xmlns="http://www.w3.org/2000/svg" viewBox="0 0 32 24" fill="none"><g clip-path="url(#B)"><path fill="#fff" d="M0 0h32v24H0z"/><g fill-rule="evenodd"><path d="M0 0H32V24H0V0Z" fill="#f7fcff"/><path d="M0 0V8H32V0H0Z" fill="#e31d1c"/><path d="M0 16v8h32v-8H0z" fill="#3d58db"/></g><mask id="A" maskUnits="userSpaceOnUse" x="-2" y="-7" width="36" height="38" fill="#000"><path fill="#fff" d="M-2-7h36v38H-2z"/><path fill-rule="evenodd" d="M15.429 10L0-2v28l15.429-12H32v-4H15.429z"/></mask><path fill-rule="evenodd" d="M15.429 10L0-2v28l15.429-12H32v-4H15.429z" fill="#5eaa22"/><path d="M0-2l1.228-1.579L-2-6.089V-2h2zm15.429 12l-1.228 1.579.542.421h.686v-2zM0 26h-2v4.089l3.228-2.511L0 26zm15.429-12v-2h-.686l-.542.421L15.429 14zM32 14v2h2v-2h-2zm0-4h2V8h-2v2zM-1.228-.421l15.429 12 2.456-3.157-15.429-12-2.456 3.157zM2 26V-2h-4v28h4zm12.201-13.579l-15.429 12 2.456 3.157 15.429-12-2.456-3.157zM32 12H15.429v4H32v-4zm-2-2v4h4v-4h-4zm-14.571 2H32V8H15.429v4z" fill="#f7fcff" mask="url(#A)"/><path d="M.6 5.2L-1 4v2 12 2l1.6-1.2 8-6 1.067-.8-1.067-.8-8-6z" fill="#272727" stroke="#feca00" stroke-width="2"/></g><defs><clipPath id="B"><path fill="#fff" d="M0 0h32v24H0z"/></clipPath></defs></svg>
