<svg xmlns="http://www.w3.org/2000/svg" viewBox="0 0 32 24" fill="none"><g clip-path="url(#B)"><path fill="#fff" d="M0 0h32v24H0z"/><g fill-rule="evenodd"><path d="M0 0H32V24H0V0Z" fill="#f7fcff"/><path d="M0 0V24H32V0H0Z" fill="#5eaa22"/></g><mask id="A" maskUnits="userSpaceOnUse" x="0" y="0" width="32" height="24"><path fill-rule="evenodd" d="M0 0V24H32V0H0Z" fill="#fff"/></mask><g mask="url(#A)"><path fill="#ff8126" d="M27 10h5v14h-5z"/><path fill="#272727" d="M22 10h5v14h-5z"/><path fill="#c51918" d="M17 10h5v14h-5z"/><path fill-rule="evenodd" d="M24.547 4.838c.481.149 0 .378 0 .378s-.095-.093-.095-.171-.369 0-.559.282c-.18.268.152.267.501.266h.058l.793-.032.612-.026c.279 0 .41 0 .778-.209.239-.136 1.029-.302 1.616-.425l.655-.151c.232-.087-.232.371-.232.371l2.147-.816c.221-.128.121-.019-.043.16l-.316.372c-.151.211.157.01.499-.214l.514-.318c.394-.208-.1.356-.317.532s.51 0 .762-.176c.185-.129.016.097-.126.287l-.125.173-.004.007c-.097.15-.128.198.105.198s-.611.556-.611.556.252-.034 0 .336c-.149.218-.873.439-1.462.617-.41.125-.753.229-.79.299-.066.125-.726.27-1.034.337l-.152.038c.087 0 .231.093.074.093s-.432.075-.432.075.145 0 0 .174c-.069.083-.191.07-.276.061-.093-.01-.143-.015-.035.113.094.113.13.156.121.169s-.084-.01-.198-.01c-.1 0-.206-.036-.318-.074-.124-.042-.254-.086-.389-.086-.246 0 .001.147.155.239l.019.011c.138.082.081.082-.169.081h-.081c-.155 0-.238-.014-.283-.022s-.051-.009-.051.022-.117-.012-.257-.061-.316-.111-.409-.111c-.183 0 .388.318.388.318l-.458-.146c-.091-.037.025.138.13.296.08.12.153.23.124.23a.53.53 0 0 1-.127-.042c-.114-.046-.258-.104-.258-.027 0 .116.132.202.292.202s.187.181.092.181a.44.44 0 0 1-.112-.023c-.073-.022-.141-.042-.141.023 0 .042.029.073.062.11.045.05.099.109.099.217 0 .187-.239.214-.161.09s-.273-.424-.273-.277v.187c0 .133-.03.141-.078.154-.029.008-.065.018-.104.06-.058.062-.067.098-.072.118s-.006.024-.047.024c-.033 0-.06-.041-.097-.097-.057-.085-.135-.204-.291-.259-.147-.052-.155-.014-.169.051-.01.048-.023.111-.097.163-.112.079-.081.112-.044.152.021.022.044.047.044.083 0 .1-.196-.1-.196-.234s-.223-.314-.223-.214 0 .214-.115.214c-.055 0-.057.033-.06.078s-.007.109-.079.156-.069.022-.066-.033.008-.131-.047-.201c-.069-.088-.011-.223.018-.292.019-.044.026-.061-.018-.022-.111.1-.253.1-.349.099h-.004c-.048 0-.091.052-.121.089s-.047.058-.047.001c0-.115.142-.417.41-.417.206 0 .31-.071.399-.131l.078-.049c.115-.062 0-.142-.115-.202-.052-.027-.033-.114.003-.191.064-.035.112-.077.112-.12 0-.053-.068.026-.112.12a.63.63 0 0 1-.254.076c-.061 0-.023-.093.025-.21.041-.099.088-.214.088-.304a.93.93 0 0 1 .029-.212c.015-.067.021-.095-.029-.059-.062.044-.393-.004-.619-.038l-.203-.026c-.042 0-.008-.067.026-.134.043-.084.085-.167-.026-.115-.173.081-.525.078-.748.075l-.088-.001c-.13 0-.041-.097.007-.149.027-.03.041-.045-.007-.019a.83.83 0 0 1-.414.093c-.067 0-.087-.034-.108-.071-.026-.045-.054-.095-.175-.094-.221.001-.27-.001-.392-.082-.063-.042-.028-.067-.008-.081s.024-.017-.073-.017h-.599c-.299 0 .001-.196.108-.196s.232-.177 0-.097c-.149.051-.308.037-.496.02l-.348-.02c-.354 0-.422-.138-.213-.138s.222-.101-.104-.101a1.78 1.78 0 0 1-.497-.082c-.074-.021-.134-.037-.176-.037-.115 0-.239-.136 0-.136s.546-.113.284-.113c-.148 0-.394-.066-.609-.124l-.379-.084c-.052 0 .029-.015.137-.034.215-.039.537-.097.126-.097-.439 0-.899-.302-1.216-.51l-.306-.181c-.246-.095 0-.282.071-.205s.568.197.352.093-.352-.282-.424-.378-.016-.162.071-.087.49.294.49.294-.215-.207-.387-.531.171-.245.464 0 .568.31.706.324-.138-.177-.404-.324-.205-.675 0-.465c.107.11.613.319 1.108.523l1.019.472c.2.172.039-.084-.136-.362l-.106-.169c-.116-.188.35.026.88.269l1.052.433c.176.046.385.119.595.193.517.181 1.033.362 1.033.127 0-.33.473-.847.98-1.022.322-.111.473-.011.664.116.11.073.233.154.409.208zm-.546 3.876c.114 0 .083-1.003.083-1.003s.338.615.338.882l-.007.192c.004.042.027.082.108.265s.028.166-.122.111c-.121-.044-.304-.111-.526-.111-.498 0 .012-.335.126-.335z" fill="#ff8126"/><path d="M24.547 5.215l-.088.089.062.061.079-.037-.054-.113zm0-.378l.037-.119-.037.119zm-.654.489l-.104-.07h0l.104.07zm.501.266v.125-.125zm.85-.032l-.007-.125.007.125zm1.39-.234l.062.109-.062-.109zm1.616-.425l-.026-.122.026.122zm.655-.151l.044.117h0l-.044-.117zm-.232.371l-.088-.089.128.207-.04-.118zm2.147-.816l-.063-.108h0l.063.108zm-.043.16l.092.084h0l-.092-.084zm-.316.372l.102.073h0l-.102-.073zm.499-.214l.068.105h0l-.068-.105zm.514-.318l.058.111h0l-.058-.111zm-.317.532l-.079-.097.079.097zm.762-.176l-.072-.102h0l.072.102zm-.126.287l-.1-.075h0l.1.075zm-.125.173l.105.068h0l-.105-.068zm-.004.007l.105.068h0l-.105-.068zm-.506.754l-.069-.105.085.228-.017-.124zm0 .336l.103.07h0l-.103-.07zm-1.462.617l-.036-.12.036.12zm-.79.299l-.11-.059h0l.11.059zm-1.034.337l.027.122-.027-.122zm-.509.206l-.033-.121.033.246v-.125zm0 .174l-.096-.08.096.08zm-.276.061l-.014.124.014-.124zm-.035.113l.096-.08h0l-.096.08zm.121.169l.104.069h0l-.104-.069zm-.516-.084l-.04.118.04-.118zm-.233.153l.064-.107h0l-.064.107zm.019.011l-.064.107h0l.064-.107zm-.169.081v-.125.125zm-.364-.022l-.021.123h0l.021-.123zm-.308-.039l.041-.118-.041.118zm-.021.207l-.033.121.094-.23-.061.109zm-.458-.146l-.047.116.047-.116zm.13.296l.104-.069-.104.069zm-.003.188l-.047.116h0l.047-.116zm.015.332l.035-.12-.035.12zm-.079.133l.092-.084h0l-.092.084zm-.412.372l-.034-.12.034.12zm-.104.06l-.091-.085h0l.091.085zm-.072.118l.121.03h0l-.121-.03zm-.145-.073l-.104.069h0l.104-.069zm-.291-.259l-.041.118.041-.118zm-.169.051l-.122-.025h0l.122.025zm-.097.163l-.072-.102.072.102zm-.044.152l-.091.086.091-.086zm-.549-.074l-.125-.008.125.008zm-.079.156l.069.104-.069-.104zm-.066-.033l.125.008h0l-.125-.008zm-.047-.201l-.098.077h0l.098-.077zm.018-.292l-.115-.049h0l.115.049zm-.018-.022l.083.093h0l-.083-.093zm-.349.099V9.4h0v.125zm-.124.089l-.097-.079.097.079zm.761-.547l.07.103h0l-.07-.103zm.078-.049l-.059-.11.059.11zm-.115-.202l-.058.111.058-.111zm-.226-.326l-.116-.047.116.047zm.116-.515l-.122-.028h0l.122.028zm-.029-.059l.073.102-.073-.102zm-.619-.038l.018-.124-.018.124zm-.177-.159l-.111-.057h0l.111.057zm-.026-.115l.053.113h0l-.053-.113zm-.748.075l.001-.125-.001.125zm-.081-.149l-.092-.085h0l.092.085zm-.007-.019l-.059-.11h0l.059.11zm-.522.022l.108-.062h0l-.108.062zm-.175-.094l-.001-.125h0l.001.125zm-.392-.082l-.069.104h0l.069-.104zm-.008-.081l.072.103-.072-.103zm-.564-.31l-.04-.118.04.118zm-.496.02l.011-.125h0l-.011.125zm-1.162-.341l-.034.12.034-.12zm-.501-.411l-.032.121h0l.032-.121zm-.242-.118l.022.123h0l-.022-.123zm-1.09-.607l.069-.105h0l-.069.105zm-.306-.181l-.045.117h0l.045-.117zm.424-.111l-.055.112h0l.055-.112zm-.352-.465l-.082.094h0l.082-.094zm.49.294l-.059.11.146-.2-.087.09zm-.387-.531l.111-.058-.111.058zm.464 0l.08-.096h0l-.08.096zm.302-.465l.089-.087h0l-.089.087zm1.108.523l.048-.116-.048.116zm1.019.472l.081-.095h0l-.081.095zm-.136-.362l-.106.067h0l.106-.067zm-.106-.169l-.106.066h0l.106-.066zm.88.269l-.052.114.052-.114zm1.052.433l-.032.121.032-.121zm.595.193l.041-.118-.041.118zm2.013-.895l.041.118-.041-.118zm.664.116l.069-.104h0l-.069.104zm-.054 3.081l.11-.06-.235.064.125-.004zm.331 1.074l-.124.011h0l.124-.011zm.108.265l.114-.051h0l-.114.051zm-.122.111l-.043.117.043-.117zm.146-3.944l.054.113.025-.013.056-.032c.041-.026.101-.068.144-.123s.092-.152.035-.259c-.047-.089-.151-.144-.276-.183l-.074.239c.115.036.132.066.13.061-.012-.022.007-.035-.01-.014s-.048.045-.082.067l-.04.023c-.014.007-.014.007.039.12zm-.22-.171c0 .081.046.152.071.188a.62.62 0 0 0 .041.051l.014.015c.007.007.007.007.094-.083l.087-.089-.034-.04c-.009-.012-.016-.024-.02-.034l-.254-.008zm-.33.352a.64.64 0 0 1 .292-.23c.049-.019.086-.026.105-.026-.03-.014-.067-.043-.067-.097h.25c0-.073-.049-.117-.089-.136-.035-.016-.072-.018-.099-.018a.58.58 0 0 0-.19.043.89.89 0 0 0-.409.323l.207.14zm.397.071c-.088 0-.171 0-.244-.003s-.13-.012-.167-.023-.024-.019-.017.004-.009.01.031-.049l-.207-.14c-.05.075-.091.167-.063.26s.116.142.181.162.15.03.23.034l.258.004v-.25zm.058 0h-.058v.25h.058v-.25zm.786-.031l-.786.031v.25l.799-.032-.013-.25zm.619-.026l-.619.026.013.25.605-.025v-.25zm.716-.192c-.179.101-.292.147-.388.169s-.186.023-.328.023v.25c.137 0 .254.001.383-.029s.267-.089.456-.196l-.123-.217zm1.652-.439l-.943.209-.414.113a1.62 1.62 0 0 0-.295.117l.123.217a1.4 1.4 0 0 1 .246-.096l.399-.109.934-.207-.051-.245zm.637-.146c-.031.012-.106.031-.223.057l-.414.089.051.245.417-.089.256-.067-.088-.234zm-.188.488l.088.089.02-.021.051-.052.139-.154.064-.082c.017-.024.037-.056.049-.088.005-.015.014-.044.009-.079-.006-.044-.034-.086-.081-.108-.037-.016-.072-.013-.09-.011s-.042.01-.061.017l.088.234c-.011-.004-.023-.005-.038-.012-.038-.017-.06-.052-.065-.086-.002-.013-.001-.024 0-.029.003-.012 0-.004-.015.017s-.03.041-.051.065l-.129.142-.048.049-.017.017c-.001.001-.001.001.087.09zm2.084-.925c-.08.046-.25.12-.47.207l-.718.27-.653.231-.207.072-.057.02-.02.007c0 0 0 0 .04.118l.04.118.02-.007.058-.02.208-.072.656-.232.725-.272.503-.223-.125-.216zm.112.353l.109-.121a.61.61 0 0 0 .075-.1c.005-.009.012-.023.016-.042s.01-.058-.016-.1c-.03-.048-.077-.059-.101-.061s-.043.002-.053.005c-.038.01-.088.037-.141.067l.125.216.061-.033.017-.008c-.001 0-.013.004-.031.002s-.062-.011-.09-.056c-.025-.039-.018-.077-.015-.086s.007-.02.007-.02l-.043.053-.105.116.184.169zm-.306.36a4.28 4.28 0 0 1 .306-.36l-.184-.169-.325.383.203.146zm.329-.391l-.423.263-.045.02c.01-.001.036-.003.065.013.038.022.055.059.058.089.002.023-.004.038-.004.038s.003-.007.021-.032l-.203-.146a.41.41 0 0 0-.051.089c-.005.014-.014.041-.011.072.003.039.024.082.069.107.036.02.07.019.087.018s.036-.006.049-.011a.57.57 0 0 0 .082-.036c.108-.056.278-.166.446-.276l-.137-.209zm.524-.324c-.144.076-.343.206-.524.324l.137.209.504-.312-.117-.221zm-.18.74c.117-.095.302-.288.41-.433.027-.037.052-.074.07-.108.009-.017.018-.037.024-.057s.012-.05.005-.087c-.01-.045-.04-.085-.087-.104-.038-.015-.074-.012-.095-.008-.044.008-.094.03-.145.057l.117.221.052-.025c.014-.005.019-.007.019-.007-.016 0-.027-.001-.04-.006-.034-.014-.057-.044-.064-.076-.003-.013-.002-.022-.002-.027l-.053.078c-.095.129-.266.306-.366.387l.157.194zm.611-.376c-.106.074-.333.158-.514.201l-.114.022-.038.004c.035.027.062.06.06.107-.001.018-.006.031-.009.039l-.155-.19c-.017.014-.035.03-.05.049s-.035.049-.037.094a.14.14 0 0 0 .065.123c.028.018.058.024.076.026.037.005.081.002.12-.003a1.42 1.42 0 0 0 .138-.026c.191-.045.454-.138.6-.239l-.143-.205zm.045.465l.194-.276c.01-.018.022-.04.03-.063.003-.011.009-.03.009-.054s-.008-.072-.053-.105-.084-.028-.103-.025-.038.01-.049.015c-.023.011-.048.026-.073.044l.143.205.034-.021c-.028.006-.065.01-.102-.018s-.047-.073-.047-.09.004-.028.004-.028c-.041.072-.113.169-.187.268l.2.15zm-.121.166a3.76 3.76 0 0 1 .121-.166l-.2-.15-.13.18.21.136zm-.004.007l.004-.007-.21-.136-.004.007.21.136zm0 .005c-.027 0-.049-.001-.066-.002a.22.22 0 0 1-.033-.004c.014.009.021.015.028.023s.012.019.015.029c.006.021.003.036.002.039l.023-.041.032-.049-.21-.136-.064.106c-.013.026-.042.086-.022.153.025.082.099.109.138.118s.098.013.158.013v-.25zm-.611.681l.069.104.037-.025.094-.064.27-.195c.091-.069.184-.145.239-.208.014-.016.029-.034.041-.054s.027-.048.028-.088c.001-.022-.003-.048-.017-.073s-.034-.044-.053-.056c-.036-.021-.074-.024-.096-.024v.25c.007 0-.01.002-.032-.012-.013-.008-.028-.021-.039-.041s-.013-.039-.012-.053c.001-.024.01-.037.008-.033s-.005.007-.014.017c-.037.042-.112.105-.203.175l-.261.187-.091.062-.026.017c-.009.006-.009.006.06.11zm.103.407c.067-.098.108-.18.125-.25s.012-.148-.037-.208c-.045-.054-.106-.068-.139-.073a.28.28 0 0 0-.046-.002l-.021.002c-.001 0-.002 0 .015.124l.016.124c.009.001-.004.002-.018-.014-.018-.022-.008-.037-.014-.011s-.029.08-.088.168l.207.141zm-1.529.667l.904-.297c.139-.053.268-.109.373-.167a.73.73 0 0 0 .251-.202l-.207-.141c-.02.029-.071.072-.165.124s-.208.101-.342.153l-.887.291.073.239zm-.716.238c-.009.017-.019.022-.01.016s.018-.011.036-.021a1.6 1.6 0 0 1 .161-.065l.529-.168-.073-.239-.54.172-.187.076c-.025.012-.05.026-.071.041s-.047.036-.066.071l.221.117zm-1.117.401l.615-.149.295-.099a.77.77 0 0 0 .114-.058c.03-.019.07-.049.094-.094l-.221-.117-.085.04c-.069.029-.162.06-.266.089l-.6.145.054.244zm-.178-.209c.018.002.029.003.041.008.006.002.047.018.068.065.028.062-.003.113-.017.13s-.028.025-.032.028c-.01.006-.018.009-.019.009l.136-.031-.054-.244-.128.029-.042.012c-.003.001-.013.005-.024.011-.004.003-.019.012-.033.028s-.045.068-.017.131c.021.047.062.063.069.065.013.005.024.007.028.007.01.001.018.001.021.001v-.25zm.074.343a.33.33 0 0 0 .074-.007c.02-.005.06-.017.09-.053.039-.048.037-.105.02-.144-.014-.031-.035-.052-.048-.063-.028-.024-.064-.042-.095-.054s-.073-.022-.114-.022v.25c.014.002.02.004.027.007.015.006.022.011.021.01-.009-.01-.015-.018-.02-.029s-.01-.03-.008-.053.012-.045.025-.061.025-.023.033-.026l-.003.245zm-.432-.05l.033.121.043-.011.107-.025c.088-.019.185-.035.249-.035v-.25c-.093 0-.212.021-.301.04l-.116.027-.035.009c-.013.004-.013.004.019.124zm.096.254c.041-.049.072-.098.085-.147.015-.055.009-.116-.031-.165-.034-.041-.079-.055-.101-.061a.23.23 0 0 0-.032-.005c-.017-.001-.018-.001-.018.124v.125c-.024-.007-.033-.013-.042-.023s-.015-.025-.018-.039 0-.022 0-.023-.005.016-.037.054l.192.16zm-.386.105c.041.004.106.012.173.004s.151-.035.213-.109l-.192-.16c-.007.009-.02.017-.051.021a.53.53 0 0 1-.116-.004l-.027.249zm.074-.091c-.026-.031-.035-.046-.038-.051s.004.006.005.021 0 .049-.023.079-.046.034-.054.036c-.003.002.009.003.035.006l.027-.249-.074-.005c-.013 0-.031.001-.051.006s-.053.018-.079.051-.033.076-.029.106a.19.19 0 0 0 .021.064c.016.03.04.063.068.096l.192-.16zm.13.318c.022-.033.024-.067.021-.09s-.009-.038-.014-.048a.32.32 0 0 0-.033-.052l-.104-.128-.192.16.095.116c-.002-.036-.002-.066.018-.096l.209.138zm-.302.046c.048 0 .087.005.121.01l.055.005c.009 0 .026 0 .045-.005s.055-.018.081-.056l-.209-.138c.023-.034.055-.045.067-.048l.02-.003-.027-.003c-.034-.004-.088-.012-.154-.012v.25zm-.358-.08c.107.036.234.08.358.08v-.25c-.075 0-.161-.028-.278-.067l-.08.237zm-.349-.079c.111 0 .221.036.349.079l.08-.237c-.12-.041-.27-.092-.429-.092v.25zm.219.007l-.12-.073a.64.64 0 0 1-.086-.063c.002.009.018.049-.008.093-.021.036-.052.041-.046.039s.013-.003.04-.003v-.25c-.035 0-.07.002-.101.01s-.077.024-.108.075c-.035.059-.017.118-.003.147s.036.052.052.067c.063.061.179.129.251.171l.128-.215zm.019.011l-.019-.011-.128.215.019.011.128-.215zm-.234.314l.155-.001c.034-.001.081-.003.117-.016.014-.005.073-.027.091-.096s-.024-.117-.033-.128c-.025-.029-.066-.054-.097-.073l-.128.215.035.022c0-.002-.008-.011-.014-.026s-.013-.042-.005-.072.026-.051.04-.061.023-.014.027-.016l-.04.001-.147.001v.25zm-.081 0h.081v-.25h-.082v.25zm-.304-.024a1.65 1.65 0 0 0 .304.024v-.25c-.146 0-.221-.013-.262-.02l-.042.246zm.095-.101c-.006.025-.012.041-.025.057s-.031.028-.048.034-.027.007-.033.007l.053-.243-.036-.005c-.008-.001-.039-.004-.073.008-.02.008-.04.021-.056.04s-.023.037-.026.051c-.006.023-.006.045-.006.051h.25zm-.424.057l.19.063c.024.007.055.014.084.015.012 0 .042.001.072-.013.017-.008.038-.022.055-.046s.023-.052.023-.075h-.25c0-.02.005-.043.02-.066s.033-.034.047-.04.024-.008.03-.009l-.188-.064-.083.236zm-.368-.104c.027 0 .077.01.149.031l.218.073.083-.236-.23-.077c-.073-.021-.154-.041-.22-.041v.25zm.388.193l.061-.109-.023-.013-.061-.035-.17-.106c-.061-.04-.103-.073-.119-.09.005.009.02.036.011.076-.011.049-.047.072-.066.079s-.025.005-.02.005v-.25c-.018 0-.045.002-.072.012s-.073.042-.086.1c-.011.048.007.086.016.102s.023.034.034.045a1 1 0 0 0 .164.128l.182.113.064.037.018.01c.007.004.007.004.068-.105zm-.505-.031c.086.035.206.073.3.102l.122.036.037.01c.014.004.014.004.046-.117l.033-.121-.048-.013-.118-.034-.278-.094-.094.232zm.281.111l-.132-.21-.012-.025c.001.029-.001.051-.015.074s-.041.043-.066.05-.039.004-.046.003l.083-.234c-.015-.006-.058-.023-.107-.009-.03.009-.059.029-.078.059a.14.14 0 0 0-.021.071c-.001.031.009.059.014.074s.015.036.024.053c.035.066.094.156.145.233l.208-.138zm.019.425c.021 0 .053-.005.082-.028s.042-.055.047-.077c.007-.037-.003-.068-.006-.077a.42.42 0 0 0-.036-.075l-.107-.167-.208.138.099.154.015.027c-.004-.017-.005-.031-.002-.049s.015-.048.043-.07.056-.026.073-.026v.25zm-.174-.052l.081.032c.019.007.057.02.093.02v-.25l-.08-.033-.094.232zm-.086-.143c0 .009-.002.029-.017.05s-.034.03-.046.034c-.017.005-.023 0-.001.005a1.07 1.07 0 0 1 .151.053l.094-.232c-.054-.022-.13-.053-.193-.066a.25.25 0 0 0-.125.001c-.027.009-.059.026-.082.058s-.03.067-.03.096h.25zm.167.077c-.06 0-.107-.016-.136-.036s-.031-.035-.031-.041h-.25a.3.3 0 0 0 .141.248c.077.052.175.079.277.079v-.25zm.092.431c.07 0 .13-.037.16-.098.026-.053.023-.111.008-.157-.032-.097-.127-.176-.261-.176v.25c.016 0 .022.004.023.005s-.004-.013.006-.033c.005-.011.015-.022.028-.031s.027-.011.035-.011v.25zm-.148-.029c.033.01.093.029.148.029v-.25a.37.37 0 0 1-.077-.018l-.071.24zm.02-.096c0 .004-.002.033-.028.058s-.05.023-.052.023l.06.016.071-.24c-.029-.008-.086-.027-.135-.026a.17.17 0 0 0-.114.043c-.042.039-.052.089-.052.126h.25zm.029.025l-.02-.023-.259-.003c0 .099.07.167.094.194l.185-.168zm.132.302c0-.16-.085-.25-.132-.302l-.185.168a.35.35 0 0 1 .05.063c.009.017.017.038.017.07h.25zm-.392.023c-.027.042-.068.139.007.217.061.064.145.053.185.041.099-.029.2-.128.2-.282h-.25c0 .019-.005.028-.009.033.014.009.036.014.056.035s.028.053.026.072-.007.022-.003.016l-.211-.134zm-.042-.211a.09.09 0 0 1-.046.072c-.019.011-.036.013-.045.013.018.018.032.029.048.043.031.029.057.062.071.089.017.034-.002.021.015-.007l.211.134c.057-.09.023-.187-.004-.24a.59.59 0 0 0-.124-.159c-.044-.041-.102-.084-.161-.101-.027-.008-.083-.019-.138.013-.063.037-.076.102-.076.143h.25zm0 .187v-.187h-.25v.187h.25zm-.169.275c.018-.005.084-.019.127-.084.036-.054.042-.123.042-.191h-.25a.33.33 0 0 1-.003.056c.006-.008.01-.012.015-.016l.069.235zm-.046.025a.07.07 0 0 1 .02-.016c.005-.003.011-.004.026-.009l-.067-.241c-.036.01-.099.028-.161.095l.183.17zm-.042.062c.009-.022.019-.038.042-.062l-.183-.17c-.035.038-.059.071-.075.102a.29.29 0 0 0-.027.071l.243.06zm-.169.119l.039-.002c.013-.002.037-.005.062-.02a.14.14 0 0 0 .057-.064c.007-.016.011-.032.011-.034l-.243-.06c.011-.025.024-.045.048-.059s.035-.013.035-.013l-.009.25zm-.201-.153l.061.084a.19.19 0 0 0 .14.069v-.25c.019 0 .034.006.041.011l-.034-.052-.208.138zm-.228-.21c.112.039.17.123.228.21l.208-.138c-.056-.084-.155-.238-.353-.308l-.083.236zm-.005-.042l.004-.02c-.017.024-.026.032-.037.037-.02.01-.034.006-.024.008a.33.33 0 0 1 .061.017l.083-.236a.56.56 0 0 0-.112-.029c-.034-.004-.077-.004-.12.017s-.07.061-.082.09-.016.053-.018.065l.245.051zm-.148.24c.116-.082.137-.187.148-.24l-.245-.051c-.005.025-.008.038-.014.05s-.013.022-.033.036l.144.204zm-.025-.036c-.008-.007.002.01 0 .034s-.012.034-.01.032.012-.012.035-.029l-.144-.204a.43.43 0 0 0-.084.074c-.023.027-.044.064-.047.11s.014.084.029.108.031.039.039.047l.182-.172zm.078.168c0-.093-.062-.152-.078-.168l-.182.172.015.017c-.004-.011-.005-.015-.005-.02h.25zm-.446-.234a.37.37 0 0 0 .044.164.59.59 0 0 0 .086.125c.027.03.069.069.117.087.023.008.082.024.138-.016s.061-.1.061-.126h-.25c0-.001-.001-.046.044-.078s.089-.017.093-.015c.011.004.004.004-.018-.02s-.036-.045-.049-.07-.017-.045-.017-.051h-.25zm.027-.214c0 .008-.003.048-.043.077s-.072.019-.076.017c-.01-.002-.001-.002.023.019s.039.04.053.062c.007.011.011.021.014.028l.253.011c0-.066-.026-.125-.053-.169s-.064-.087-.101-.119a.32.32 0 0 0-.131-.075c-.026-.006-.078-.012-.127.023s-.062.094-.062.127h.25zm-.24.339a.23.23 0 0 0 .142-.045c.041-.031.064-.072.076-.108.023-.065.021-.142.021-.185h-.25l-.002.066c-.001.02-.004.031-.006.037.018-.015.025-.014.018-.014v.25zm.065-.04c.002-.022.001-.014-.005-.002s-.021.028-.038.036-.024.006-.021.006v-.25c-.025 0-.056.004-.086.018s-.057.04-.073.068-.02.05-.022.067-.003.033-.004.042l.249.015zm-.135.253c.058-.038.094-.086.113-.138s.02-.093.021-.115l-.249-.015c-.002.026-.003.035-.006.042s-.009.013-.017.018l.137.209zm-.259-.145l-.001.049c0 .01.002.025.007.041s.016.043.041.065c.057.051.124.033.144.026s.049-.023.069-.036l-.137-.209c-.016.01-.018.01-.013.008s.055-.02.104.024c.021.019.029.039.032.05l-.245-.018zm-.02-.116c.023.029.024.062.02.116l.25.016c.003-.05.014-.175-.074-.287l-.196.155zm.001-.418c-.014.033-.042.097-.054.166s-.014.168.053.252l.196-.155c-.002-.003-.01-.016-.003-.054a.54.54 0 0 1 .038-.112l-.23-.098zm.18.121c-.011.002-.023.007-.04.009s-.048.001-.079-.019-.046-.05-.052-.07-.005-.034-.004-.04l.004-.022c-.001.003-.004.009-.009.021l.23.098.014-.033.007-.024c.001-.004.008-.033-.001-.067-.006-.022-.021-.052-.054-.073s-.064-.021-.082-.019c-.032.003-.054.018-.059.021a.31.31 0 0 0-.041.032l.167.186zm-.433.131c.091 0 .281.004.433-.131l-.167-.186c-.071.064-.165.068-.266.068v.25zm-.004 0h.004V9.4h-.004v.25zm-.024.043l.021-.025a.19.19 0 0 1 .017-.017l-.015-.25a.23.23 0 0 0-.149.061c-.03.026-.055.057-.069.074l.194.158zm-.269-.078c0 .015 0 .045.012.075.006.016.022.048.059.069s.083.018.108.009.037-.02.045-.026.015-.014.02-.019l.025-.03-.194-.158-.015.017c.006-.005.017-.014.035-.021s.058-.013.097.009.047.048.052.058c.007.019.005.03.005.017h-.25zm.535-.542a.51.51 0 0 0-.404.214c-.042.055-.074.114-.095.168s-.035.109-.035.159h.25c0-.007.003-.031.018-.068a.45.45 0 0 1 .061-.108c.055-.071.124-.116.206-.116v-.25zm.329-.11c-.082.056-.16.11-.329.11v.25a.75.75 0 0 0 .469-.153l-.141-.207zm.089-.056c-.033.018-.064.039-.089.056l.141.207.067-.043-.119-.22zm-.113.019l.07.041c.021.014.031.024.034.027s-.015-.015-.007-.052.032-.043.017-.035l.119.22c.042-.023.095-.064.11-.134s-.019-.127-.043-.157c-.047-.058-.127-.103-.183-.132l-.115.222zm-.053-.355c-.021.045-.042.102-.046.158s.005.149.099.198l.115-.222c.007.004.015.009.021.017s.01.014.012.02.005-.007.009-.021.01-.028.017-.043l-.227-.105zm.173.163c.038-.021.077-.047.109-.079s.068-.082.068-.151h-.25c0-.013.004-.022.006-.026a.24.24 0 0 1-.052.036l.119.22zm.177-.23c0-.014-.001-.051-.026-.086-.015-.021-.036-.039-.065-.049s-.052-.008-.07-.004c-.032.006-.055.023-.064.031s-.023.02-.032.03a.62.62 0 0 0-.092.146l.227.105c.018-.039.04-.071.052-.084-.001 0-.015.012-.04.017-.014.003-.036.004-.061-.004s-.045-.025-.058-.043c-.021-.03-.02-.058-.02-.058h.25zm-.491.321c.091 0 .22-.04.314-.091l-.119-.22c-.07.038-.158.061-.195.061v.25zm-.091-.382c-.022.053-.049.119-.06.171-.005.023-.013.07.006.117.011.028.032.055.063.073a.16.16 0 0 0 .082.022v-.25a.09.09 0 0 1 .045.013.1.1 0 0 1 .042.049c.006.015.006.027.006.029a.41.41 0 0 1 .016-.05l.031-.078-.231-.095zm.078-.256a.39.39 0 0 1-.023.11c-.015.047-.035.096-.056.146l.231.095.062-.164a.63.63 0 0 0 .035-.187h-.25zm.032-.239c-.012.051-.032.138-.032.239h.25a.81.81 0 0 1 .026-.184l-.244-.055zm.166.07c-.032.008-.066.012-.102-.009s-.049-.055-.053-.071a.09.09 0 0 1-.003-.027l-.008.036.244.055.01-.049c.002-.009.008-.043-.001-.077-.005-.021-.021-.058-.061-.082s-.078-.02-.098-.016c-.034.007-.062.027-.074.036l.145.204zm-.71-.016l.378.049.172.008c.025-.001.051-.003.075-.007s.055-.012.085-.034l-.145-.204c.015-.01.024-.01.015-.009s-.019.003-.037.003a1.3 1.3 0 0 1-.142-.007l-.364-.047-.036.247zm-.185-.024l.059.006.125.018.036-.247-.129-.018-.092-.009v.25zm-.086-.315c-.015.029-.038.074-.05.113-.005.015-.016.057-.003.102a.14.14 0 0 0 .058.077c.029.019.059.023.08.023v-.25c.01 0 .032.002.055.017a.11.11 0 0 1 .046.06c.005.018.004.032.004.036s.003-.006.01-.02l.022-.045-.223-.113zm.139.054c-.043-.01-.075-.026-.094-.06-.016-.027-.014-.051-.014-.057l-.032.062.223.113.033-.067c.008-.019.022-.053.025-.088.002-.018.002-.052-.018-.087a.14.14 0 0 0-.099-.069c-.031-.005-.058 0-.075.005a.34.34 0 0 0-.055.021l.106.226zm-.802.087l.402-.007c.139-.009.29-.029.4-.08l-.106-.226c-.064.03-.174.048-.31.057l-.383.006-.003.25zm-.086-.001l.086.001.003-.25-.089-.001v.25zm-.085-.359l-.045.052c-.015.019-.036.048-.049.081s-.032.106.027.17c.047.051.114.056.152.056v-.25c-.001.002.015.007.031.024s.025.043.026.062-.003.028-.004.029.001-.002.012-.016a.71.71 0 0 1 .034-.038l-.184-.17zm.144.176c-.01 0-.025.003-.044.001s-.06-.013-.088-.054-.021-.078-.018-.093.009-.028.011-.032l.178.171.021-.023.013-.016c.001-.002.016-.022.022-.051.003-.016.008-.056-.019-.095s-.07-.053-.09-.055c-.033-.004-.06.007-.062.007a.32.32 0 0 0-.043.02l.119.22zm-.474.108c.162 0 .317-.023.474-.108l-.119-.22c-.109.059-.218.078-.355.078v.25zm-.216-.134c.008.015.029.054.066.084a.23.23 0 0 0 .151.05v-.25l-.216.116zm-.066-.031a.17.17 0 0 1 .043.004c.013.01.016.015.023.027l.217-.124c-.012-.021-.037-.068-.088-.104s-.119-.053-.196-.053l.002.25zm-.462-.103c.068.045.127.076.204.091.07.014.151.013.258.013l-.002-.25a1.19 1.19 0 0 1-.209-.008.29.29 0 0 1-.113-.053l-.139.208zm-.01-.288c-.004.003-.018.012-.031.025s-.036.037-.046.076c-.026.098.048.161.087.187l.139-.208c.017.027.025.054.017.085-.007.025-.02.039-.023.041l-.142-.206zm-.001.211l.049.001c-.011-.004-.021-.007-.032-.014s-.03-.021-.044-.046c-.035-.065 0-.119.009-.131s.011-.013.014-.016l.148.201a.17.17 0 0 0 .039-.036c.01-.014.046-.071.01-.137-.026-.048-.072-.06-.077-.062-.022-.007-.045-.008-.056-.008l-.06-.001v.25zm-.599 0h.599v-.25h-.599v.25zm.108-.446c-.055 0-.115.022-.158.043a.53.53 0 0 0-.135.09c-.018.018-.041.044-.056.077s-.024.095.012.149c.031.047.079.065.111.074s.075.013.118.013v-.25c-.032 0-.048-.003-.053-.004s.015.001.033.029c.01.016.016.034.016.051s-.004.029-.006.035c.012-.007.037-.025.068-.039a.28.28 0 0 1 .039-.015l.012-.253zm.04.146c.024-.008.04-.012.049-.013-.028-.008-.063-.026-.078-.07-.012-.036 0-.063.002-.068l-.014.255c.059 0 .111-.023.147-.047s.073-.059.094-.105c.01-.022.024-.065.008-.114-.019-.057-.065-.085-.102-.095s-.068-.008-.094-.004-.06.012-.093.024l.081.237zm-.548.026c.182.016.369.035.548-.026l-.081-.237c-.119.041-.25.031-.445.014l-.022.249zm-.337-.019a3.68 3.68 0 0 1 .337.019l.022-.249-.359-.02v.25zm-.213-.388c-.058 0-.128.008-.179.046-.03.022-.064.063-.064.122s.029.094.05.115c.042.041.104.065.164.08s.146.025.242.025v-.25c-.081 0-.141-.008-.182-.018s-.054-.022-.048-.015a.09.09 0 0 1 .024.064c0 .043-.025.069-.038.078s-.016.003.031.003v-.25zm-.104.149c.076 0 .126.006.155.013.015.003.02.006.019.005-.017-.013-.027-.024-.035-.041a.11.11 0 0 1-.007-.067c.005-.023.016-.039.024-.049.015-.017.028-.02.023-.018s-.03.008-.074.008v.25c.06 0 .116-.007.162-.024a.19.19 0 0 0 .077-.051c.014-.015.028-.038.034-.067a.14.14 0 0 0-.01-.086c-.02-.045-.058-.068-.078-.078s-.051-.021-.078-.027c-.054-.012-.124-.019-.211-.019v.25zm-.531-.086c.125.035.308.086.531.086v-.25a1.66 1.66 0 0 1-.464-.077l-.067.241zm-.143-.033a.73.73 0 0 1 .143.033l.067-.241c-.066-.018-.146-.042-.21-.042v.25zm0-.386c-.065 0-.132.008-.184.041-.029.018-.058.048-.071.092a.16.16 0 0 0 .009.113c.024.052.07.086.106.105s.089.036.141.036v-.25c-.005 0-.015-.002-.023-.007.01.024.016.047.008.074s-.026.043-.035.048l.05-.002v-.25zm.284.137c.03 0 .044.002.049.003-.02-.008-.05-.024-.066-.063-.019-.047-.003-.087.009-.106s.022-.024.023-.025c-.074.029-.195.055-.3.055v.25c.134 0 .286-.031.375-.065.022-.008.048-.02.07-.035a.16.16 0 0 0 .043-.044c.016-.025.033-.071.012-.123a.14.14 0 0 0-.069-.073.2.2 0 0 0-.05-.016.53.53 0 0 0-.096-.007v.25zm-.641-.128l.335.085c.108.024.218.043.306.043v-.25c-.059 0-.146-.014-.252-.037l-.324-.082-.065.241zm-.346-.08c.017 0 .057.006.124.022l.222.058.065-.241-.23-.06a.88.88 0 0 0-.181-.029v.25zm.115-.282l-.134.025-.024.006c-.018.006-.036.013-.053.027-.007.006-.034.029-.042.071-.011.055.015.097.039.119s.038.024.045.026.016.004.02.005c.014.002.028.003.035.003v-.25c.011.002.017.003.025.006s.024.008.043.025.05.063.038.118c-.009.041-.035.064-.041.07s-.019.013-.022.015c.017-.001.061-.009.117-.019l-.044-.246zm.149.151l.115.002.039.004c-.014-.005-.025-.01-.037-.02a.12.12 0 0 1-.041-.069c-.008-.038.005-.07.016-.088s.023-.026.027-.03c-.008-.001-.047.008-.102.019l-.166.031.044.246.317-.068c.01-.003.022-.008.034-.014.006-.003.036-.018.057-.051.013-.021.026-.054.018-.094a.13.13 0 0 0-.045-.075c-.025-.021-.053-.028-.062-.03a1.05 1.05 0 0 0-.214-.013v.25zm-1.285-.531l.577.341c.217.105.462.189.708.189v-.25c-.192 0-.397-.067-.599-.164s-.389-.221-.549-.325l-.137.209zm-.282-.169c.055.021.147.08.282.169l.137-.209c-.123-.08-.242-.16-.329-.193l-.09.233zm.208-.405c-.063-.07-.151-.064-.201-.05s-.106.048-.143.093-.07.12-.04.204.099.129.176.158l.09-.233c-.047-.018-.037-.028-.03-.008.004.01.003.021.002.028-.01-.004-.025-.01-.038-.024l.185-.168zm.206.29c.029.014.027.016.018.007-.003-.003-.013-.013-.022-.03s-.021-.056-.004-.099.048-.059.062-.065.027-.008.031-.009l-.068-.016c-.049-.012-.106-.03-.154-.048l-.058-.025c-.017-.009-.017-.011-.01-.004l-.185.168c.024.026.056.045.078.057a.82.82 0 0 0 .084.037 1.64 1.64 0 0 0 .183.057l.081.017a.29.29 0 0 0 .08.004c.008-.001.024-.004.041-.011s.05-.027.067-.07.006-.085-.005-.106-.022-.032-.029-.039a.33.33 0 0 0-.081-.051l-.109.225zm-.469-.416c.073.098.225.298.47.416l.109-.225c-.186-.09-.308-.246-.377-.34l-.201.149zm.253-.256a.25.25 0 0 0-.118-.06c-.049-.009-.112.002-.156.055s-.041.106-.033.145.028.081.053.116l.201-.149c-.01-.013-.01-.018-.009-.014s.005.03-.019.059-.065.036-.082.033l.162-.186zm.408.388l.059-.11-.063-.035-.146-.082-.161-.095-.098-.066-.164.189a1.14 1.14 0 0 0 .129.089l.168.1.15.084.047.026.018.01c0 0 0 0 .06-.11zm-.497-.472c.09.171.192.311.271.408l.098.113.029.03c.012.012.012.012.098-.078l.087-.09-.032-.033-.087-.1c-.072-.088-.163-.213-.244-.366l-.221.117zm.655-.154c-.08-.067-.163-.123-.243-.164s-.159-.071-.232-.078c-.037-.004-.081-.002-.123.015s-.086.056-.105.109-.014.097-.005.139.028.087.053.134l.221-.117a.32.32 0 0 1-.03-.072c-.011.021-.026.034-.039.039.032.005.08.02.144.053a1.13 1.13 0 0 1 .198.134l.16-.192zm.639.296c-.117-.012-.367-.069-.639-.296l-.16.192c.315.263.615.336.774.352l.025-.249zm-.477-.09c.13.072.26.154.338.213l.044.036c.005.002-.005-.015-.006-.041-.002-.033.012-.07.043-.094.024-.019.047-.022.052-.023l-.019.248c.014.001.031.002.049 0s.047-.008.076-.031c.036-.029.052-.071.05-.111-.001-.033-.014-.057-.021-.07-.015-.026-.036-.047-.053-.062a.84.84 0 0 0-.063-.052c-.092-.069-.233-.157-.368-.232l-.121.219zm.15-.661c-.034-.035-.077-.067-.128-.08-.057-.015-.114-.004-.16.029s-.066.072-.079.109-.022.079-.024.12c-.009.151.05.378.241.484l.121-.219c-.075-.042-.118-.153-.113-.25.001-.021.005-.037.008-.045-.022.015-.043.018-.058.014l.191-.162zm1.066.495l-.696-.295-.252-.123c-.07-.038-.107-.064-.119-.077l-.179.174c.041.042.108.084.178.122l.268.131.704.299.095-.231zm1.053.493c-.041-.035-.101-.07-.167-.105l-.245-.117-.641-.271-.095.231.634.268.231.11c.065.034.103.058.121.073l.163-.19zm-.323-.2l.201.337.009.021c-.002-.014-.002-.022-.001-.034.004-.024.021-.07.072-.09.039-.016.071-.005.075-.004s-.011-.01-.035-.03l-.163.19c.027.023.052.043.075.057a.21.21 0 0 0 .044.021c.014.005.053.016.097-.002.057-.023.077-.073.081-.104s-.001-.05-.003-.061c-.006-.025-.017-.051-.027-.072-.041-.085-.13-.227-.215-.362l-.212.133zm-.107-.17l.107.17.212-.133-.105-.168-.213.131zm1.039.09l-.692-.301-.122-.038c-.034-.008-.075-.016-.113-.013-.019.001-.048.006-.077.023s-.058.052-.067.093-.002.068.005.088.017.041.027.058l.213-.131c-.002-.001.004.017-.002.041s-.025.052-.047.066-.032.012-.034.012.007 0 .035.007.058.016.098.031c.162.058.405.17.672.292l.104-.227zm1.031.425c-.242-.063-.644-.248-1.031-.425l-.104.227 1.072.44.063-.242zm.605.196l-.605-.196-.063.242a8.18 8.18 0 0 1 .585.19l.083-.236zm.867.245c.015-.021.02-.02.008-.017-.029.007-.087.006-.181-.013-.183-.036-.432-.123-.694-.215l-.083.236.727.224c.1.02.203.031.287.011.044-.01.093-.032.131-.074s.054-.099.054-.152h-.25zm1.064-1.14c-.276.095-.537.281-.73.485-.097.103-.179.212-.237.322s-.097.223-.097.333h.25c0-.055.02-.128.067-.215s.114-.178.199-.268a1.65 1.65 0 0 1 .63-.42l-.081-.236zm.774.129c-.092-.061-.195-.13-.32-.163-.131-.035-.275-.028-.454.034l.081.236c.143-.049.235-.048.309-.028.079.021.147.065.246.13l.138-.209zm.377.193c-.157-.049-.267-.121-.377-.193l-.138.209c.11.073.246.163.44.224l.074-.239zm-.5 2.992l-.125.004.001.042.002.112-.002.34-.022.331c-.006.045-.013.073-.018.088.011-.013.037-.039.081-.039v.25c.058 0 .097-.033.116-.057s.03-.049.038-.068a.7.7 0 0 0 .031-.14c.014-.101.021-.232.024-.359l.002-.35-.002-.115-.001-.032c0-.012 0-.012-.125-.008zm.463.882a.98.98 0 0 0-.059-.29c-.034-.101-.078-.207-.121-.303l-.119-.246-.039-.075-.011-.021c-.004-.008-.004-.008-.114.053l-.11.06.014.026.037.072.113.235.112.279c.031.093.046.165.046.211h.25zm-.008.181c0-.004 0-.009.003-.043l.005-.138h-.25l-.004.119c-.002.023-.005.054-.002.084l.249-.022zm.098.224l-.083-.183-.014-.034-.251.015c.004.042.017.078.034.118l.084.187.228-.102zm-.279.279l.105.035c.016.004.036.009.057.01s.053.001.087-.017c.041-.021.065-.056.075-.094.008-.032.005-.062.002-.081-.007-.04-.025-.085-.046-.132l-.228.102.021.052.007.023c.001.004-.002-.008.003-.026.003-.01.008-.023.018-.036s.022-.023.035-.029c.023-.012.042-.01.043-.01a1.05 1.05 0 0 1-.092-.031l-.085.235zm-.483-.103c.198 0 .363.059.483.103l.085-.235c-.121-.044-.323-.118-.569-.118v.25zm.126-.585a.3.3 0 0 0-.103.023c-.031.012-.064.028-.096.046a.81.81 0 0 0-.184.138c-.025.026-.053.061-.069.103s-.024.107.015.167c.034.053.09.078.136.09s.107.019.175.019v-.25c-.057 0-.091-.005-.109-.01s-.006-.007.008.014a.07.07 0 0 1 .009.06c-.001.002.002-.005.017-.02.028-.03.076-.064.125-.092.024-.013.046-.024.063-.03s.023-.006.014-.006v-.25z" fill="#272727"/></g></g><defs><clipPath id="B"><path fill="#fff" d="M0 0h32v24H0z"/></clipPath></defs></svg>
