<svg xmlns="http://www.w3.org/2000/svg" viewBox="0 0 32 24" fill="none"><style><![CDATA[.B{fill-rule:evenodd}]]></style><g clip-path="url(#C)"><path fill="#fff" d="M0 0h32v24H0z"/><path d="M0 0V24H32V0H0Z" fill="#f7fcff" class="B"/><mask id="A" maskUnits="userSpaceOnUse" x="0" y="0" width="32" height="24"><path d="M0 0V24H32V0H0Z" fill="#fff" class="B"/></mask><g mask="url(#A)"><path d="M0 2V22H32V2H0Z" fill="#feca00" class="B"/><path d="M0 8.25h-1.75V10v4 1.75H0h32 1.75V14v-4-1.75H32 0z" fill="#272727" stroke="#e31d1c" stroke-width="3.5"/><path d="M0 4V0h32v4H0zm0 20v-4h32v4H0z" fill="#5eaa22" class="B"/></g><path d="M.597-.802L-1-1.991V0v24 1.961l1.587-1.151 16.331-11.848 1.102-.799-1.092-.812L.597-.802z" fill="#f7fcff" stroke="#272727" stroke-width="2"/><mask id="B" maskUnits="userSpaceOnUse" x="-2" y="-4" width="22" height="32"><path d="M.597-.802L-1-1.991V0v24 1.961l1.587-1.151 16.331-11.848 1.102-.799-1.092-.812L.597-.802z" fill="#fff" stroke="#fff" stroke-width="2"/></mask><g mask="url(#B)"><path d="M7.478 14.278L3.7 17.329l1.733-4.077-2.978-2.868H5.97l1.443-3.459 1.532 3.459h3.51l-3.136 2.868 1.569 4.077-3.41-3.05z" fill="#e31d1c" class="B"/><path d="M5.018 8.422s-.055-.132.269-.249.423-.365.676-.182.413-.184.485.342a17.89 17.89 0 0 0 .274 1.355l3.288 2.471h-.618s-.962 1.413-.803 2.653c0 0-.664-.101-1.563-.101s-1.489.216-1.489.216l-.52-1.924s.188-.323.269-.584.416-.309.416-.516-.33-.381-.165-.917.165-2.141.165-2.141-.522-.229-.416-.229.348-.193.174-.193h-.443z" fill="#feca00" class="B"/><path d="M6.722 9.687l-.122.029.011.044.036.027 2.988 2.246h-.243-.066l-.037.055.103.07-.103-.07h0 0v.001l-.002.003-.009.013-.031.049-.109.181a6.29 6.29 0 0 0-.32.634c-.205.473-.401 1.093-.366 1.697l-.294-.031-1.13-.051a5.48 5.48 0 0 0-1.107.11l-.295.072-.472-1.749.082-.155a2.84 2.84 0 0 0 .173-.409c.027-.086.095-.14.194-.215l.003-.002c.044-.033.098-.074.14-.122a.32.32 0 0 0 .084-.213.46.46 0 0 0-.063-.214l-.035-.064-.057-.109c-.051-.111-.088-.258-.015-.494.045-.147.077-.358.1-.585l.05-.718.018-.614.002-.19v-.052-.014-.004-.001h0 0-.125.125v-.082l-.075-.033h0 0 0 0-.001l-.004-.002-.016-.007-.057-.026-.135-.063.025-.022a.33.33 0 0 0 .05-.058c.013-.019.033-.055.033-.101 0-.059-.034-.106-.08-.131-.037-.02-.076-.023-.106-.023H5.46h-.001-.001-.001-.001-.001-.001-.001-.001-.001-.001-.001-.001-.001-.001-.001-.001-.001-.001-.001-.001-.001-.001-.001-.001-.001-.001-.001-.001-.001-.001-.001-.001-.001-.001-.001-.001-.001-.001-.001-.001-.001-.001-.001-.001-.001-.001-.001-.001-.001-.001-.001-.001-.001-.001-.001H5.4h-.001-.001-.001-.001-.001-.001-.001-.001-.001-.001-.001-.001-.001-.001-.001-.001-.001-.001-.001-.001-.001-.001-.001-.001-.001-.001-.001-.001-.001-.001-.001-.001-.001-.001-.001-.001-.001-.001-.001-.001-.001-.001-.001-.001-.001-.001-.001-.001-.001-.001-.001-.001-.001-.001-.001-.001-.001-.001-.001-.001-.001-.001-.001-.001-.001-.001-.001-.001-.001-.001-.001-.001-.001-.001-.001-.001-.001a1.24 1.24 0 0 0 .248-.122l.071-.046.081-.051c.04-.022.064-.028.083-.028s.046.006.096.041c.148.106.303.08.365.069l.022-.003c.012.02.031.072.047.192l.166.884.077.344.024.102.007.027.002.007v.002h0 0 0l.122-.029z" stroke="#0a0a0a" stroke-width=".25"/></g></g><defs><clipPath id="C"><path fill="#fff" d="M0 0h32v24H0z"/></clipPath></defs></svg>
