<svg xmlns="http://www.w3.org/2000/svg" viewBox="0 0 16 16">
    <path fill="#ff385c" d="M0 0h16v16H0V0z"/>
    <path fill="#fff" d="M12.48 10.891c-.085.576-.469 1.077-1.024 1.291-.267.107-.565.149-.853.107A2.25 2.25 0 0 1 9.749 12c-.405-.224-.811-.576-1.269-1.077.736-.896 1.195-1.728 1.355-2.464.075-.341.096-.661.053-.949a1.74 1.74 0 0 0-.299-.757c-.341-.501-.928-.789-1.579-.789s-1.237.299-1.579.789a1.88 1.88 0 0 0-.299.757c-.043.288-.032.608.053.949.171.736.629 1.568 1.355 2.464-.459.512-.864.853-1.269 1.077-.288.16-.576.256-.853.288-.299.032-.587 0-.853-.107-.544-.224-.939-.715-1.024-1.291a1.75 1.75 0 0 1 .096-.864l.149-.352.256-.555.011-.021 2.453-5.003.032-.064.267-.512c.096-.171.192-.341.32-.491.235-.277.544-.416.896-.416a1.17 1.17 0 0 1 .896.416c.128.149.224.32.32.491l.267.512.032.075 2.453 5.003.011.011.256.565.149.352c.085.299.117.576.075.853zM8 10.379c-.608-.768-.992-1.472-1.131-2.069-.053-.245-.075-.48-.043-.683.032-.171.085-.331.181-.469.213-.299.576-.48.992-.48.405 0 .779.181.992.48.096.139.149.288.181.469.032.203.021.437-.043.683-.139.597-.523 1.301-1.131 2.069zm5.056-.587l-.16-.405-.267-.576-.011-.011-2.475-5.024-.032-.075-.277-.523c-.107-.203-.235-.416-.405-.619-.373-.427-.875-.661-1.44-.661-.555 0-1.067.235-1.44.661-.171.203-.288.416-.405.619l-.277.523-.032.064-2.453 5.045-.011.021-.256.565c-.053.128-.117.256-.16.405a2.32 2.32 0 0 0-.128 1.195c.117.832.683 1.536 1.461 1.856.288.117.597.181.917.181.096 0 .192-.011.299-.021.373-.043.757-.171 1.12-.373.459-.256.907-.629 1.387-1.152.491.533.939.907 1.387 1.152.373.203.747.331 1.12.373l.299.021c.32 0 .629-.064.917-.181.779-.309 1.344-1.024 1.461-1.856.043-.395 0-.789-.139-1.205z"/>
</svg>
