<svg xmlns="http://www.w3.org/2000/svg" viewBox="0 0 16 16">
    <path fill="#fff" d="M0 0h16v16H0z"/>
    <path fill="#f90" d="M12.526 12.175c-5.104 2.428-8.272.397-10.3-.837-.125-.078-.339.018-.154.231.676.819 2.889 2.792 5.779 2.792s4.612-1.577 4.827-1.852.063-.423-.153-.333h0zm1.433-.791c-.137-.178-.833-.212-1.272-.158s-1.098.32-1.041.481c.029.06.089.033.391.006s1.149-.137 1.326.094-.27 1.338-.352 1.517.03.224.178.106.411-.426.589-.862.284-1.048.18-1.184h0z"/>
    <path fill="#000" d="M8.205 2c.796 0 1.836.212 2.464.814.796.743.72 1.734.72 2.813v2.548c0 .766.318 1.102.617 1.516.106.147.129.324-.005.435l-1.254 1.086c-.113.092-.269.099-.391.034-.543-.451-.64-.66-.939-1.09-.897.915-1.532 1.189-2.697 1.189-1.376 0-2.448-.849-2.448-2.548 0-1.327.72-2.231 1.744-2.672.888-.391 2.128-.46 3.077-.568v-.212c0-.389.03-.849-.198-1.184-.2-.301-.582-.426-.918-.426-.624 0-1.18.32-1.316.982-.028.147-.136.292-.283.299l-1.588-.17c-.133-.03-.281-.138-.244-.343C4.913 2.58 6.65 2 8.205 2zm.888 4.867c-1.183 0-2.432.253-2.432 1.647 0 .706.366 1.184.994 1.184.46 0 .872-.283 1.132-.743.322-.566.306-1.097.306-1.734z"/>
</svg>
