<svg xmlns="http://www.w3.org/2000/svg" viewBox="0 0 16 16">
    <path fill="#000" d="M3.814 0l-.438.001-.368.005c-.269.003-.537.027-.802.071s-.521.129-.76.251S.989.609.799.799s-.35.408-.471.648a2.64 2.64 0 0 0-.25.761c-.045.265-.069.532-.072.801L0 3.378v9.246l.006.369c.003.268.027.536.072.801s.128.522.25.762.28.457.471.646a2.51 2.51 0 0 0 .647.471 2.68 2.68 0 0 0 .76.252 5.38 5.38 0 0 0 .802.071l.368.004.438.001 8.376.004h.434l.369-.004a5.31 5.31 0 0 0 .8-.071 2.72 2.72 0 0 0 .763-.252 2.51 2.51 0 0 0 .647-.471 2.56 2.56 0 0 0 .473-.646 2.64 2.64 0 0 0 .248-.762c.045-.265.069-.532.074-.801l.002-.369.003-.438V3.819l-.003-.437-.002-.368c-.005-.268-.03-.536-.074-.801s-.127-.522-.248-.761c-.247-.481-.638-.873-1.12-1.12-.241-.121-.498-.206-.763-.251a5.22 5.22 0 0 0-.8-.071l-.369-.005-.434-.001L3.814 0z"/>
    <path fill="#fff" d="M9.999 7.956a2.06 2.06 0 0 1 .98-1.727c-.381-.544-.996-.877-1.66-.898-.698-.073-1.376.418-1.732.418-.363 0-.911-.411-1.501-.399a2.21 2.21 0 0 0-1.861 1.135c-.804 1.393-.204 3.44.566 4.566l.183.256c.345.469.744.907 1.243.889.577-.024.792-.368 1.489-.368.69 0 .892.368 1.494.354.619-.01 1.009-.554 1.381-1.11a4.56 4.56 0 0 0 .632-1.286 1.99 1.99 0 0 1-1.214-1.83zM8.862 4.591c.338-.405.504-.926.464-1.452a2.06 2.06 0 0 0-1.334.69 1.93 1.93 0 0 0-.476 1.398c.523.005 1.019-.229 1.346-.637z"/>
</svg>
