<svg xmlns="http://www.w3.org/2000/svg" viewBox="0 0 16 16">
    <path fill="#003b95" d="M0 0h16v16H0z"/>
    <path fill="#fff" d="M12.017 11.983c.558 0 1.008-.458 1.008-1.017s-.45-1.017-1.008-1.017a1.01 1.01 0 0 0-1.008 1.017 1.02 1.02 0 0 0 1.008 1.017zM8.892 7.658l-.258-.142.225-.192c.267-.225.7-.733.7-1.608 0-1.342-1.042-2.208-2.65-2.208H5.075h-.208c-.475.017-.858.408-.867.883V12h2.95c1.792 0 2.95-.975 2.95-2.483-.008-.817-.383-1.508-1.008-1.858zM5.633 5.5c0-.392.167-.583.533-.608H6.9c.625 0 1 .375 1 1.008 0 .483-.258 1.033-.983 1.033H5.633V5.5zm1.433 5.058H5.633V8.85c0-.367.142-.558.458-.6h.975c.7 0 1.15.442 1.15 1.15 0 .733-.442 1.158-1.15 1.158z"/>
</svg>
