<svg xmlns="http://www.w3.org/2000/svg" viewBox="0 0 16 16">
    <path fill="#f1641e" d="M0 0h16v16H0z"/>
    <path fill="#fff" d="M6.584 4.026c0-.136.014-.217.244-.217h3.103c.542 0 .84.462 1.057 1.33l.176.692h.528l.176-2.824-2.114.149h-3.97L3.657 3.09v.57l.718.136c.501.095.623.204.664.665l.041 3.598-.041 3.584c0 .407-.163.557-.664.652l-.718.136V13l2.127-.068h3.55L11.99 13l.352-2.946h-.501l-.528 1.208c-.42.95-1.03 1.018-1.707 1.018H7.587c-.677 0-1.003-.272-1.003-.855V8.33l1.992.041c.379.027.61.136.732.665l.163.706h.583l-.041-1.778.081-1.792h-.583l-.19.787c-.122.516-.203.611-.732.665-.691.068-2.005.054-2.005.054V4.026z"/>
</svg>
