<svg xmlns="http://www.w3.org/2000/svg" viewBox="0 0 16 16">
    <path fill="#faf8f6" d="M0 0h16v16H0z"/>
    <path fill="#1e1915" d="M11.019 1.237c.238-.047.485.021.666.184a.86.86 0 0 1 .315.651c-.013.258-.14.497-.346.653l-1.233.987a.34.34 0 0 0-.144.243c-.016.085.007.173.062.24.906 1.024 1.092 2.499.47 3.716-.787 1.576-2.543 2.253-4.236 1.653-.091-.032-.19-.034-.282-.006-.126.04-.171.101-.256.216l-.008.011-.531.709s-.447.556.258.528l3.072-.006c1.492.102 2.149 1.075 2.149 1.85 0 .917-.585 1.91-2.151 1.91l-3.116-.017-.472.011-.294.006c-.402 0-.93-.105-.937-.603-.005-.411.352-.632.627-.662.243-.026.46.004.7.036l.461.05.311.021 1.088.049.579.009.723-.009c.705-.063 1.034-.345 1.034-.777 0-.454-.33-.713-.959-.798-.883-.12-1.316-.092-2.101-.042l-.942.054c-.343.016-1.383.015-1.515-.843-.03-.235-.041-.63.456-1.313l.424-.567c.203-.277.329-.507.03-.88l-.294-.36c-.686-.896-.854-2.304-.253-3.453.891-1.701 3.05-2.406 4.727-1.458.143.081.248.115.37.092.114-.019.153-.094.205-.195l.038-.071c.002-.005.136-.262.302-.581l.415-.796c.118-.23.334-.394.588-.444zM6.415 8.702c1.047.51 2.209.117 2.967-1.395.764-1.524.467-2.886-.588-3.401-1.405-.685-2.595.611-3.043 1.501-.765 1.524-.405 2.76.648 3.286l.016.009z"/>
</svg>
