<svg xmlns="http://www.w3.org/2000/svg" viewBox="0 0 16 16">
    <path fill="#4285f4" d="M8 6.545v3.098h4.305c-.189.996-.756 1.84-1.607 2.407l2.596 2.015c1.513-1.396 2.385-3.447 2.385-5.884a9.19 9.19 0 0 0-.145-1.636H8z"/>
    <path fill="#34a853" d="M3.516 9.523l-.586.448-2.073 1.615C2.174 14.196 4.872 16 8 16c2.16 0 3.971-.713 5.295-1.935l-2.596-2.015c-.713.48-1.622.771-2.698.771-2.08 0-3.847-1.404-4.48-3.295l-.003-.005z"/>
    <path fill="#fbbc05" d="M.858 4.415A7.9 7.9 0 0 0 0 8a7.9 7.9 0 0 0 .858 3.585c0 .007 2.662-2.065 2.662-2.065-.16-.48-.255-.989-.255-1.52s.095-1.04.255-1.52L.858 4.415z"/>
    <path fill="#ea4335" d="M8 3.185c1.178 0 2.225.407 3.062 1.193l2.291-2.291C11.963.793 10.16 0 8 0 4.873 0 2.174 1.796.858 4.415L3.52 6.48C4.153 4.589 5.92 3.185 8 3.185z"/>
</svg>
