<svg xmlns="http://www.w3.org/2000/svg" viewBox="0 0 16 16">
    <path fill="#ea4335" d="M6.729 7.65L.043 14.689C.26 15.432.955 16 1.78 16c.347 0 .651-.087.912-.262h0l7.554-4.328-3.516-3.76z"/>
    <path fill="#fbbc04" d="M13.501 6.426h0l-3.256-1.88-3.647 3.235 3.69 3.628 3.256-1.836c.564-.306.955-.918.955-1.574-.043-.656-.434-1.268-.999-1.574z"/>
    <path fill="#4285f4" d="M.043 1.311C0 1.443 0 1.617 0 1.792v12.459c0 .175 0 .306.043.481L6.99 7.869.043 1.311z"/>
    <path fill="#34a853" d="M6.772 8l3.473-3.454L2.735.262C2.475.087 2.127 0 1.78 0 .955 0 .217.568.043 1.311L6.772 8z"/>
</svg>
