<svg xmlns="http://www.w3.org/2000/svg" viewBox="0 0 16 16">
    <path fill="#00eb5b" d="M0 0h16v16H0z"/>
    <path fill="#002b11" d="M6.087 8.606a1.06 1.06 0 0 1-1.598.937 1.06 1.06 0 0 1-.524-.937 1.06 1.06 0 1 1 2.123 0m4.92-1.061a1.06 1.06 0 0 0-.938 1.598 1.06 1.06 0 0 0 .937.524 1.06 1.06 0 0 0 1.024-1.06 1.06 1.06 0 0 0-1.023-1.061h0zm2.992 1.061A2.99 2.99 0 0 1 8.975 10.8l-.957 1.041-.958-1.043a2.99 2.99 0 0 1-4.993-1.528 2.99 2.99 0 0 1 .946-2.875l-.979-1.064h2.174c2.3-1.565 5.324-1.565 7.624 0H14l-.978 1.064a2.98 2.98 0 0 1 .976 2.21m-6.948 0c0-1.118-.906-2.024-2.024-2.024s-2.024.906-2.024 2.024c0 .723.386 1.391 1.012 1.753s1.398.362 2.024 0S7.05 9.33 7.05 8.607m3.212-3.021c-1.437-.599-3.054-.599-4.491 0 1.277.488 2.246 1.631 2.246 2.963 0-1.332.968-2.474 2.245-2.963m2.767 3.021c.011-.73-.372-1.41-1.003-1.778s-1.411-.368-2.041 0-1.014 1.048-1.003 1.778C9 9.712 9.901 10.6 11.006 10.6s2.007-.888 2.023-1.993"/>
</svg>
