<svg xmlns="http://www.w3.org/2000/svg" viewBox="0 0 16 16">
    <path fill="#000" d="M8 .48c1.504 0 2.968.448 4.208 1.288 1.208.816 2.16 1.968 2.728 3.312.992 2.344.728 5.024-.696 7.128-.816 1.208-1.968 2.16-3.312 2.728-2.344.992-5.024.728-7.128-.696-1.208-.816-2.16-1.968-2.728-3.312C.08 8.584.344 5.904 1.768 3.8c.816-1.208 1.968-2.16 3.312-2.728A7.47 7.47 0 0 1 8 .48zM8 0C3.584 0 0 3.584 0 8s3.584 8 8 8 8-3.584 8-8-3.584-8-8-8zM1.336 8a6.66 6.66 0 0 0 3.76 6L1.912 5.288c-.384.856-.576 1.776-.576 2.712zm11.168-.336c0-.824-.296-1.392-.552-1.84s-.656-1.016-.656-1.56.464-1.184 1.12-1.184h.088a6.66 6.66 0 0 0-9.416.416c-.24.264-.464.544-.656.84h.432c.696 0 1.776-.088 1.776-.088.36-.024.4.504.04.552l-.76.064 2.424 7.224L7.8 7.712 6.76 4.864 6.064 4.8c-.36-.024-.32-.568.04-.552l1.752.088c.648 0 1.776-.088 1.776-.088.36-.024.4.504.04.552l-.76.064 2.408 7.168.688-2.176c.304-.952.488-1.624.488-2.2l.008.008zm-4.392.912l-2 5.816c1.344.392 2.776.36 4.096-.104l-.048-.088-2.048-5.624zM13.848 4.8c.032.224.048.456.048.688 0 .68-.128 1.44-.504 2.384l-2.04 5.888c3.12-1.816 4.232-5.792 2.496-8.96z"/>
</svg>
