<svg xmlns="http://www.w3.org/2000/svg" viewBox="0 0 16 16">
    <path fill="#d32323" d="M0 0h16v16H0z"/>
    <path fill="#fff" d="M8.462 6.918c-.013.249-.027.532-.184.729-.012.014-.026.028-.04.041a.61.61 0 0 1-.284.17l-.021.005a.61.61 0 0 1-.353-.024.54.54 0 0 1-.051-.019c-.227-.108-.365-.356-.485-.573l-.039-.07-.179-.318h0 0L5.704 4.854l-.129-.228h0 0l-.342-.661-.028-.066h0 0c-.102-.241-.214-.505-.16-.764.103-.5.715-.761 1.151-.903l.409-.112.416-.078c.454-.063 1.119-.096 1.431.308.162.209.177.495.192.756l.004.072a5.97 5.97 0 0 1-.017.745h0l-.015.26-.119 2.135-.031.522-.004.078zm4.106-.277a3.14 3.14 0 0 0-.603-.855c-.032-.032-.066-.061-.103-.088s-.068-.048-.104-.07-.075-.038-.114-.055a.59.59 0 0 0-.242-.04c-.079.004-.156.026-.226.063-.106.052-.22.137-.372.278l-.047.044-.024.022-.336.334-.096.098-.761.782-.449.465a2.09 2.09 0 0 0-.224.274.77.77 0 0 0-.118.273c-.012.075-.01.152.005.226l.002.01a.61.61 0 0 0 .263.374c.133.086.294.117.449.087l.055-.011 2.397-.552.036-.008h0c.177-.041.356-.081.515-.173.114-.066.222-.131.296-.263a.59.59 0 0 0 .07-.234c.037-.326-.134-.696-.272-.982zM6.307 9.576l.554-.128.054-.015a.61.61 0 0 0 .437-.726l-.002-.01a.61.61 0 0 0-.094-.206.77.77 0 0 0-.227-.194c-.103-.058-.211-.108-.322-.148l-.608-.221-1.027-.37-.129-.046-.448-.154-.032-.01-.061-.019c-.199-.061-.338-.086-.457-.087-.079-.003-.158.011-.23.042a.59.59 0 0 0-.2.142 1.21 1.21 0 0 0-.078.099 1.16 1.16 0 0 0-.063.108c-.021.04-.039.081-.054.124-.113.332-.169.681-.166 1.032.002.317.011.724.186 1a.59.59 0 0 0 .166.18c.125.086.251.097.382.106.183.013.362-.028.539-.069L4.464 10l1.842-.424h.002zm1.762.44c-.068-.095-.164-.166-.275-.204s-.231-.039-.342-.004c-.026.009-.052.019-.077.032-.038.019-.075.042-.109.068-.1.074-.184.17-.26.266l-.02.028h0 0c-.012.018-.025.037-.04.05l-.385.529-.647.895-.081.113h0l-.274.391-.02.03-.034.052c-.114.176-.179.305-.212.419-.025.076-.033.157-.023.236s.039.162.082.233c.023.036.048.07.075.103s.057.062.088.091a.92.92 0 0 0 .106.087c.266.184.558.317.864.42.255.084.52.135.789.15A.96.96 0 0 0 7.409 14c.042-.004.084-.01.126-.018s.083-.022.123-.036c.078-.029.15-.074.209-.133a.55.55 0 0 0 .127-.199c.045-.111.074-.251.093-.46l.006-.065.003-.033.026-.466h0l.007-.149.045-1.101.024-.653c.006-.15.001-.317-.041-.467-.018-.072-.048-.14-.088-.203zm3.98.737c.18.108.294.196.375.284.056.057.098.126.124.202s.036.163.029.245a1.21 1.21 0 0 1-.022.126 1.24 1.24 0 0 1-.039.121.94.94 0 0 1-.057.124c-.158.282-.362.529-.593.755a3.06 3.06 0 0 1-.643.48c-.04.022-.081.041-.124.057s-.08.028-.121.039a1.19 1.19 0 0 1-.126.022.6.6 0 0 1-.247-.027.55.55 0 0 1-.202-.124c-.089-.081-.177-.194-.286-.373l-.034-.057-.016-.027-.232-.413-.069-.126-.524-.97-.309-.576c-.071-.133-.14-.284-.168-.438-.014-.072-.017-.146-.008-.22.019-.115.074-.221.157-.303s.19-.136.305-.154a.57.57 0 0 1 .083-.005c.043.001.086.005.128.013.122.023.24.072.351.125l.03.016c.019.011.039.022.058.028l.578.305.975.521.134.072.407.226.029.017.056.033z"/>
</svg>
