<svg xmlns="http://www.w3.org/2000/svg" viewBox="0 0 16 16">
    <path fill="#cc202e" d="M0 0h16v16H0z"/>
    <path fill="#fff" d="M4.512 6.965c.598 0 .892.402.892.922 0 .702-.496 1.288-1.154 1.288-.59 0-.892-.402-.892-.928 0-.698.5-1.282 1.154-1.282zm-1.142.05l-.012.386-1.004 1.092.84-.012-.118.63c-.202-.016-.516-.022-.832-.022l-.904.022.008-.39 1.006-1.088-.784.008.098-.626.86.018.842-.018zm5.052-.056c.4 0 .428.326.376.686l-.252 1.452h-.692l.182-1.27c.016-.128.022-.22-.08-.22-.174 0-.4.334-.452.618l-.064.436-.048.436h-.758l.118-.72.072-.492c.028-.182.032-.28-.068-.28-.174 0-.4.334-.452.618l-.064.436-.052.436h-.75l.118-.72.092-.636c.036-.242.048-.496.04-.69a4.92 4.92 0 0 0 .714-.068c.016.068.028.384-.028.664.222-.428.546-.686.844-.686.396 0 .424.318.376.656.222-.41.538-.656.828-.656zm-3.988.57c-.192 0-.35.308-.35.694 0 .258.084.39.23.39.194 0 .346-.314.346-.694 0-.262-.084-.39-.226-.39zm5.342 1.206c.254-.032.428-.276.47-.52l.008-.066c-.11-.024-.266-.044-.42-.024-.146.018-.268.078-.332.166-.05.062-.074.138-.064.228.018.134.166.236.338.216h0zm-.216.386c-.358.044-.594-.098-.666-.422a.74.74 0 0 1 .126-.574c.144-.18.38-.298.668-.332.232-.028.426-.014.608.02l.008-.032a.7.7 0 0 0 .004-.16c-.018-.154-.14-.244-.438-.208a1.52 1.52 0 0 0-.542.18l-.144-.438c.202-.116.456-.204.748-.24.556-.068.948.11.998.516.014.108.014.224.002.328l-.138 1.138c-.004.04-.002.106 0 .204h-.69a1.06 1.06 0 0 0 .04-.162 1.44 1.44 0 0 0 .018-.168.86.86 0 0 1-.602.35h0zm4.196-2.184c.606 0 .904.408.904.936 0 .712-.504 1.304-1.17 1.304-.598 0-.904-.408-.904-.94 0-.708.508-1.3 1.17-1.3zm-1.53-.588l-.088.656h.48c-.016.068-.072.44-.088.554h-.47l-.104.776c-.028.198-.012.27.126.27.1-.002.25-.062.342-.108l-.08.5c-.126.068-.36.166-.63.166-.46 0-.552-.246-.48-.766l.118-.838h-.226l.064-.542.246-.012.092-.394.698-.262zm1.088 1.873c0 .259.084.391.23.391.194 0 .348-.314.348-.694 0-.262-.084-.39-.226-.39-.196 0-.352.307-.352.693z"/>
</svg>
