<svg xmlns="http://www.w3.org/2000/svg" width="28" height="28"><path d="M27 10H1a1 1 0 0 0-1 1v2a1 1 0 0 0 1 1h26a1 1 0 0 0 1-1v-2a1 1 0 0 0-1-1zm0 5H1a1 1 0 0 0-1 1v6a1 1 0 0 0 1 1h26a1 1 0 0 0 1-1v-6a1 1 0 0 0-1-1zm-17 9H1a1 1 0 0 0-1 1v2a1 1 0 0 0 1 1h9a1 1 0 0 0 1-1v-2a1 1 0 0 0-1-1zm8.007-18.204l-1.926-1.655c-.068-.049-.096-.136-.072-.216l.032-.1c.023-.079.094-.135.176-.14l2.554-.204.979-2.354c.029-.073.098-.122.175-.128h.133c.083-.002.159.05.188.128l.983 2.354 2.554.204c.082.005.152.061.176.14l.032.1c.027.077.003.164-.06.216l-1.926 1.654.591 2.482c.019.079-.01.163-.076.212l-.116.064a.2.2 0 0 1-.224 0l-2.174-1.319-2.186 1.331a.2.2 0 0 1-.224 0l-.088-.06c-.066-.049-.095-.132-.076-.212l.575-2.498zm-8 0L8.081 4.141c-.068-.049-.096-.136-.072-.216l.032-.1c.023-.079.094-.135.176-.14l2.554-.204.979-2.354c.029-.073.098-.122.175-.128h.133c.083-.002.159.05.188.128l.983 2.354 2.554.204c.082.005.152.061.176.14l.032.1c.027.077.003.164-.06.216l-1.926 1.654.591 2.482c.019.079-.01.163-.076.212l-.116.064a.2.2 0 0 1-.224 0l-2.174-1.319-2.186 1.331a.2.2 0 0 1-.224 0l-.088-.06c-.066-.049-.095-.132-.076-.212l.575-2.498zm-8 0L.081 4.141c-.068-.049-.096-.136-.072-.216l.032-.1c.023-.079.094-.135.176-.14l2.554-.204.979-2.354c.029-.073.098-.122.175-.128h.133c.083-.002.159.05.188.128l.983 2.354 2.554.204c.082.005.152.061.176.14l.032.1c.027.077.003.164-.06.216L6.003 5.796l.591 2.482c.019.079-.01.163-.076.212l-.116.064a.2.2 0 0 1-.224 0L4.005 7.234 1.819 8.565a.2.2 0 0 1-.224 0l-.088-.06c-.066-.049-.095-.132-.076-.212l.575-2.498z"/></svg>
