<svg xmlns="http://www.w3.org/2000/svg" width="28" height="28"><path d="M4.327 27.994a.36.36 0 0 1-.293-.07c-.084-.065-.144-.154-.181-.266a.52.52 0 0 1 0-.336l2.596-7.054H4.132c-.744 0-1.433-.187-2.066-.56S.931 18.83.558 18.196A4.02 4.02 0 0 1 0 16.124V4.143a4.02 4.02 0 0 1 .558-2.072C.931 1.437 1.433.933 2.066.56S3.387 0 4.132 0h19.737c.744 0 1.433.187 2.066.56s1.135.877 1.507 1.512A4.02 4.02 0 0 1 28 4.143v12.065c0 .747-.186 1.442-.558 2.086s-.875 1.152-1.507 1.526-1.321.56-2.066.56h-9.715l-9.519 7.614h-.307zM4.132.952a3.26 3.26 0 0 0-1.577.448c-.475.28-.856.663-1.145 1.148S.977 3.565.977 4.143v12.065c0 .579.144 1.11.433 1.596s.67.868 1.145 1.148a3.26 3.26 0 0 0 1.577.448H7.23a.51.51 0 0 1 .363.224c.093.131.13.28.112.448l-2.317 6.103 8.291-6.663c.074-.075.167-.112.279-.112h9.91c.577 0 1.107-.145 1.591-.434s.87-.677 1.159-1.162.433-1.017.433-1.596V4.059c0-.579-.144-1.11-.433-1.596s-.675-.872-1.159-1.162-1.014-.434-1.591-.434L4.132.952z" fill-rule="nonzero"/><path d="M17.952 16.612c-.056 0-.14-.028-.252-.084L14 14.068l-3.7 2.459a.39.39 0 0 1-.252.084.39.39 0 0 1-.252-.084.52.52 0 0 1-.158-.21c-.035-.084-.039-.175-.011-.273l1.24-4.52-3.7-2.901a.44.44 0 0 1-.147-.221.42.42 0 0 1 .158-.473c.077-.056.165-.084.263-.084h4.52l1.64-4.099c.042-.112.119-.186.231-.221a.55.55 0 0 1 .336 0c.112.035.189.109.231.221l1.64 4.099h4.541c.084 0 .165.028.242.084a.42.42 0 0 1 .158.473.44.44 0 0 1-.147.221l-3.7 2.901 1.24 4.52c.028.098.025.189-.011.273a.52.52 0 0 1-.158.21c-.112.056-.196.084-.252.084zM14 13.101a.56.56 0 0 1 .252.063l2.964 1.997-1.009-3.7c-.014-.084-.011-.168.011-.252s.067-.154.137-.21l2.943-2.27h-3.553c-.084 0-.165-.028-.242-.084a.44.44 0 0 1-.158-.189L14 5.092l-1.345 3.342a.42.42 0 0 1-.158.21c-.077.056-.158.084-.242.084H8.703l2.943 2.27c.07.056.116.126.137.21s.025.168.011.252l-1.009 3.7 2.964-1.997a.56.56 0 0 1 .252-.063z"/></svg>
