<svg xmlns="http://www.w3.org/2000/svg" xmlns:xlink="http://www.w3.org/1999/xlink" width="750" height="500"><defs><path id="a" d="M309.93 0H8.95C4 0 0 4 0 8.95v252.37c0 4.94 4 8.95 8.95 8.95h300.98c4.94 0 8.95-4 8.95-8.95V8.95c0-4.94-4-8.95-8.95-8.95z"/></defs><g fill="none" fill-rule="evenodd"><path fill="#617C8B" d="M0 0h750v500H0z"/><path fill="#FFF" fill-rule="nonzero" d="M275.48 121V99.41h21.84V86.48h-21.84V75.14h22.26V62.2h-35.7V121h13.44zm49.98 1.18A22.01 22.01 0 00347.72 100a22.01 22.01 0 00-22.26-22.18A22.01 22.01 0 00303.2 100a22.01 22.01 0 0022.26 22.18zm0-12.27c-5.46 0-9.66-3.95-9.66-9.91s4.2-9.91 9.66-9.91 9.66 3.95 9.66 9.91-4.2 9.91-9.66 9.91zm42 11.09v-18.98c0-8.32 7.4-10.42 12.6-9.58V78.16c-5.3 0-10.92 2.69-12.6 8.32V79h-12.6v42h12.6zm31.08 0V97.31c0-4.95 2.35-7.9 6.55-7.9 4.03 0 6.05 2.7 6.05 6.9V121h12.6V97.31c0-4.95 2.35-7.9 6.55-7.9 4.03 0 6.05 2.7 6.05 6.9V121h12.6V95.21c0-10.5-6.3-17.39-15.96-17.39-5.96 0-9.83 2.19-12.18 5.55-2.35-3.53-6.05-5.55-11-5.55-5.63 0-9.33 2.19-11.26 5.04V79h-12.6v42h12.6zm74.17 1.18c9.07 0 17.47-4.12 17.47-13.78 0-15.54-20.66-12.35-20.66-17.14 0-1.5 1.34-2.35 3.53-2.35 2.77 0 4.45 1.51 5.63 3.7l10.75-5.8c-3.53-5.96-9.58-8.99-16.38-8.99-8.74 0-16.47 4.62-16.47 13.78 0 14.53 20.67 12.1 20.67 16.72 0 1.68-1.51 2.6-4.54 2.6-3.7 0-6.05-1.76-7.14-4.96l-10.92 6.22c3.28 6.8 9.66 10 18.06 10z"/><g transform="translate(216.56 176.865)"><mask id="b" fill="#fff"><use xlink:href="#a"/></mask><use fill="#3D5AFE" fill-rule="nonzero" xlink:href="#a"/><g fill="#FFF" fill-opacity=".5" fill-rule="nonzero" mask="url(#b)"><path style="mix-blend-mode:overlay" d="M12.88.54h49.35v269.19H12.88V.54zm.54.55v268.1H61.7V1.09H13.42zM159.85.54H110.5v269.19h49.35V.54zm-.54.55v268.1h-48.27V1.09h48.27zm98.15-.55h-49.35v269.19h49.35V.54zm-.54.55v268.1h-48.26V1.09h48.26zm98.16-.55h-49.35v269.19h49.35V.54zm-.54.55v268.1h-48.27V1.09h48.27z"/><path style="mix-blend-mode:overlay" d="M318.34 208.13H.54v49.39h317.8v-49.39zm-.54.54v48.3H1.08v-48.3H317.8zm.54-98.23H.54v49.39h317.8v-49.39zm-.54.54v48.3H1.08v-48.3H317.8zm.54-98.23H.54v49.4h317.8v-49.4zm-.54.55v48.3H1.08V13.3H317.8z"/></g><path fill="#FFF" fill-rule="nonzero" d="M301.8 11.94H17.08a5.15 5.15 0 00-5.15 5.16v236.07c0 2.85 2.3 5.16 5.15 5.16H301.8c2.84 0 5.15-2.3 5.15-5.16V17.1c0-2.85-2.3-5.16-5.15-5.16zM17.08 14.11H301.8a2.98 2.98 0 012.98 2.99v236.07a2.98 2.98 0 01-2.98 2.99H17.08a2.98 2.98 0 01-2.98-2.99V17.1a2.98 2.98 0 012.98-2.99z" mask="url(#b)"/><g fill="#FFF" fill-rule="nonzero" mask="url(#b)"><path d="M52.33 197.3H38.78v13.56h13.55V197.3zm-2.7 2.7v8.15h-8.14V200h8.13zM130.97 202.4v2.71H56.74v-2.71zM52.33 217.65H38.78v13.56h13.55v-13.56zm-2.7 2.7v8.15h-8.14v-8.14h8.13zM154.02 222.75v2.71H56.74v-2.71zM41.49 156.44v2.71h166.08v-2.71h2.71v2.71h17.63v-2.71h2.7v2.71h4.08v2.71h-4.07v16.96h4.07v2.72h-4.07v3.39h-2.71v-3.4h-17.63v3.4h-2.7v-3.4H41.47v3.4h-2.7v-3.4h-3.4v-2.7h3.4v-16.97h-3.4v-2.71h3.4v-2.71h2.7zm166.08 5.42H41.5v16.96h166.08v-16.96zm20.34 0h-17.63v16.96h17.63v-16.96z"/><path d="M215.52 167.95a1.22 1.22 0 000 1.73l2.71 2.72c.23.22.54.35.87.35.32 0 .63-.13.86-.35l2.71-2.72a1.22 1.22 0 00-.86-2.08h-.05c-.3 0-.6.13-.82.35l-1.84 1.85-1.85-1.85a1.22 1.22 0 00-1.73 0zm.96.77l2.62 2.61 2.6-2.61a.13.13 0 01.1-.04.14.14 0 01.1.24l-2.7 2.7a.13.13 0 01-.1.05.13.13 0 01-.1-.04l-2.71-2.72a.14.14 0 01.2-.2z"/><path d="M221.65 167.01l1.94 1.9-4.5 4.58-4.49-4.58 1.93-1.9 2.56 2.6zM130.97 168.99v2.71h-84.4v-2.71z"/><g><path d="M41.49 114.38v2.71H227.9v-2.71h2.7v2.71h4.08v2.71h-4.07v16.96h4.07v2.72h-4.07v3.39h-2.71v-3.4H41.49v3.4h-2.71v-3.4h-3.4v-2.7h3.4V119.8h-3.4v-2.71h3.4v-2.71h2.7zm186.42 5.42H41.49v16.96H227.9V119.8z"/><path d="M84.87 126.93v2.71h-38.3v-2.71z"/></g><path d="M47.61 77.34a.5.5 0 01.43.27l3 7.83 8.3.44c.19 0 .38.15.43.34.05.2 0 .4-.14.54l-6.45 5.26 2.15 8.05c.05.2 0 .4-.2.54-.14.1-.39.15-.53 0L47.6 96.1l-6.98 4.51c-.1.1-.44.05-.54 0a.55.55 0 01-.2-.54l2.16-8.05-6.45-5.26c-.2-.1-.25-.34-.2-.54.05-.2.25-.34.44-.34l8.3-.44 2.98-7.8c.1-.16.3-.3.5-.3zm1.9 10.2l-1.92-5.04-1.92 5.03-5.35.29 4.18 3.4-1.38 5.2 4.5-2.91 4.49 2.9-1.39-5.19 4.18-3.4-5.4-.29zm24.68-10.2a.5.5 0 01.43.27l2.98 7.83 8.3.44c.2 0 .4.15.45.34.04.2 0 .4-.15.54l-6.45 5.26 2.15 8.05c.05.2 0 .4-.2.54-.14.1-.38.15-.53 0l-6.98-4.51-6.99 4.51c-.1.1-.44.05-.53 0a.55.55 0 01-.2-.54l2.15-8.05-6.45-5.26c-.2-.1-.24-.34-.2-.54.06-.2.25-.34.45-.34l8.3-.44 2.98-7.8c.1-.16.29-.3.49-.3zm1.89 10.2l-1.92-5.04-1.92 5.03-5.34.29 4.18 3.4-1.39 5.2 4.5-2.91 4.5 2.9-1.4-5.19 4.18-3.4-5.39-.29zm24.68-10.2a.5.5 0 01.43.27l2.99 7.83 8.3.44c.2 0 .39.15.44.34.05.2 0 .4-.15.54l-6.44 5.26 2.14 8.05c.05.2 0 .4-.2.54-.14.1-.38.15-.53 0l-6.98-4.51-6.98 4.51c-.1.1-.44.05-.54 0a.55.55 0 01-.2-.54l2.15-8.05-6.44-5.26c-.2-.1-.25-.34-.2-.54.05-.2.24-.34.44-.34l8.3-.44 2.98-7.8c.1-.16.3-.3.49-.3zm1.9 10.2l-1.93-5.04-1.91 5.03-5.35.29 4.18 3.4-1.39 5.2 4.5-2.91 4.5 2.9-1.4-5.19 4.18-3.4-5.39-.29zm24.67-10.2a.5.5 0 01.43.27l3 7.83 8.3.44c.19 0 .38.15.43.34.05.2 0 .4-.14.54l-6.45 5.26 2.15 8.05c.05.2 0 .4-.2.54-.14.1-.39.15-.53 0l-6.99-4.51-6.98 4.51c-.1.1-.44.05-.54 0a.55.55 0 01-.2-.54l2.16-8.05-6.45-5.26c-.2-.1-.24-.34-.2-.54.05-.2.25-.34.44-.34l8.3-.44 2.98-7.8c.1-.16.3-.3.5-.3zm1.9 10.2l-1.92-5.04-1.92 5.03-5.35.29 4.18 3.4-1.38 5.2 4.5-2.91 4.49 2.9-1.39-5.19 4.18-3.4-5.4-.29zm24.68-10.2a.5.5 0 01.43.27l2.98 7.83 8.3.44c.2 0 .4.15.45.34.04.2 0 .4-.15.54l-6.45 5.26 2.15 8.05c.05.2 0 .4-.2.54-.14.1-.38.15-.53 0l-6.98-4.51-6.99 4.51c-.1.1-.44.05-.53 0a.55.55 0 01-.2-.54l2.15-8.05-6.45-5.26c-.2-.1-.24-.34-.2-.54.06-.2.25-.34.45-.34l8.3-.44 2.98-7.8c.1-.16.29-.3.49-.3zm1.9 10.2l-1.93-5.04-1.92 5.03-5.34.29 4.18 3.4-1.39 5.2 4.5-2.91 4.5 2.9-1.4-5.19 4.18-3.4-5.39-.29zM47.61 40.3a.5.5 0 01.43.27l3 7.83 8.3.44c.19 0 .38.15.43.34.05.2 0 .4-.14.54l-6.45 5.26 2.15 8.05c.05.2 0 .4-.2.54-.14.1-.39.15-.53 0l-6.99-4.51-6.98 4.51c-.1.1-.44.05-.54 0a.55.55 0 01-.2-.54l2.16-8.05-6.45-5.26c-.2-.1-.25-.34-.2-.54.05-.2.25-.34.44-.34l8.3-.44 2.98-7.8c.1-.16.3-.3.5-.3zm1.9 10.2l-1.92-5.04-1.92 5.03-5.35.29 4.18 3.4-1.38 5.2 4.5-2.91 4.49 2.9-1.39-5.19 4.18-3.4-5.4-.29zm24.68-10.2a.5.5 0 01.43.27l2.98 7.83 8.3.44c.2 0 .4.15.45.34.04.2 0 .4-.15.54l-6.45 5.26 2.15 8.05c.05.2 0 .4-.2.54-.14.1-.38.15-.53 0l-6.98-4.51-6.99 4.51c-.1.1-.44.05-.53 0a.55.55 0 01-.2-.54l2.15-8.05-6.45-5.26c-.2-.1-.24-.34-.2-.54.06-.2.25-.34.45-.34l8.3-.44 2.98-7.8c.1-.16.29-.3.49-.3zm1.89 10.2l-1.92-5.04-1.92 5.03-5.34.29 4.18 3.4-1.39 5.2 4.5-2.91 4.5 2.9-1.4-5.19 4.18-3.4-5.39-.29zm24.68-10.2a.5.5 0 01.43.27l2.99 7.83 8.3.44c.2 0 .39.15.44.34.05.2 0 .4-.15.54l-6.44 5.26 2.14 8.05c.05.2 0 .4-.2.54-.14.1-.38.15-.53 0l-6.98-4.51-6.98 4.51c-.1.1-.44.05-.54 0a.55.55 0 01-.2-.54l2.15-8.05-6.44-5.26c-.2-.1-.25-.34-.2-.54.05-.2.24-.34.44-.34l8.3-.44 2.98-7.8c.1-.16.3-.3.49-.3zm1.9 10.2l-1.93-5.04-1.91 5.03-5.35.29 4.18 3.4-1.39 5.2 4.5-2.91 4.5 2.9-1.4-5.19 4.18-3.4-5.39-.29zm24.67-10.2a.5.5 0 01.43.27l3 7.83 8.3.44c.19 0 .38.15.43.34.05.2 0 .4-.14.54l-6.45 5.26 2.15 8.05c.05.2 0 .4-.2.54-.14.1-.39.15-.53 0l-6.99-4.51-6.98 4.51c-.1.1-.44.05-.54 0a.55.55 0 01-.2-.54l2.16-8.05-6.45-5.26c-.2-.1-.24-.34-.2-.54.05-.2.25-.34.44-.34l8.3-.44 2.98-7.8c.1-.16.3-.3.5-.3zm1.9 10.2l-1.92-5.04-1.92 5.03-5.35.29 4.18 3.4-1.38 5.2 4.5-2.91 4.49 2.9-1.39-5.19 4.18-3.4-5.4-.29zm24.68-10.2a.5.5 0 01.43.27l2.98 7.83 8.3.44c.2 0 .4.15.45.34.04.2 0 .4-.15.54l-6.45 5.26 2.15 8.05c.05.2 0 .4-.2.54-.14.1-.38.15-.53 0l-6.98-4.51-6.99 4.51c-.1.1-.44.05-.53 0a.55.55 0 01-.2-.54l2.15-8.05-6.45-5.26c-.2-.1-.24-.34-.2-.54.06-.2.25-.34.45-.34l8.3-.44 2.98-7.8c.1-.16.29-.3.49-.3zm1.9 10.2l-1.93-5.04-1.92 5.03-5.34.29 4.18 3.4-1.39 5.2 4.5-2.91 4.5 2.9-1.4-5.19 4.18-3.4-5.39-.29z"/></g><path fill="#000" fill-rule="nonzero" d="M309.93 0H8.95C4 0 0 4 0 8.95v252.37c0 4.94 4 8.95 8.95 8.95h300.98c4.94 0 8.95-4 8.95-8.95V8.95c0-4.94-4-8.95-8.95-8.95zM8.95 1.63h300.98a7.32 7.32 0 017.32 7.32v252.37a7.32 7.32 0 01-7.32 7.32H8.95a7.32 7.32 0 01-7.32-7.32V8.95a7.32 7.32 0 017.32-7.32z" mask="url(#b)"/></g><path fill="#FFEA00" d="M572.96 340.65a7.68 7.68 0 01-12.31-7.65 7.65 7.65 0 019.14-5.89 7.68 7.68 0 013.17 13.54m-8.02-28.49L353.95 447.81a2.4 2.4 0 00-.72 3.34l9.86 15.33 9.86 15.33a2.4 2.4 0 003.33.73l105.5-67.83 105.49-67.83c4.7-3.02 1.48-13.22-4.1-21.9-5.59-8.68-13.52-15.84-18.23-12.82"/><path fill="#000" fill-rule="nonzero" d="M353.52 447.13L564.5 311.48c2.6-1.66 5.99-.8 9.72 2.06a32.84 32.84 0 014.08 3.78l.22.23a52.74 52.74 0 014.95 6.4l.19.3a58.3 58.3 0 011.65 2.69l.17.3c.54.94 1.04 1.9 1.5 2.84l.15.3c.45.94.86 1.87 1.23 2.79l.11.29c.6 1.54 1.08 3.02 1.4 4.41 1.03 4.54.43 7.96-2.09 9.65l-.07.05-105.5 67.82-105.5 67.83a3.2 3.2 0 01-4.41-.92l-.03-.05-19.72-30.67a3.21 3.21 0 01.91-4.41l.06-.04zm.87 1.37a1.59 1.59 0 00-.5 2.17l.02.04 19.72 30.66a1.6 1.6 0 002.17.51l.04-.03 105.5-67.82 105.49-67.83c1.87-1.2 2.37-3.98 1.45-7.97-.86-3.8-2.97-8.4-5.8-12.81a52.58 52.58 0 00-4.52-6.06l-.2-.23a32.7 32.7 0 00-4.53-4.3c-3.21-2.46-5.93-3.17-7.8-2.02l-.05.03L354.4 448.5zm215.58-122.18a8.5 8.5 0 013.5 14.96 8.49 8.49 0 01-13.62-8.46 8.46 8.46 0 0110.12-6.5zm-6.1 2.93a6.84 6.84 0 00-2.43 3.92 6.84 6.84 0 005.26 8.19 6.87 6.87 0 007.6-9.84 6.87 6.87 0 00-4.6-3.6l-.08-.02c-2-.43-4.1.03-5.76 1.35z"/><path fill="#FBC02C" d="M363.09 466.48l9.86 15.33a2.4 2.4 0 003.33.73l105.5-67.83 105.49-67.83c4.7-3.02 1.48-13.22-4.1-21.9l-8.71 5.28c1.72 2.13 1.58 4.31 1.22 6a7.65 7.65 0 01-9.15 5.89 7.69 7.69 0 01-5.23-4.04L363.09 466.48z"/><path fill="#000" fill-rule="nonzero" d="M560.86 337.43L362.65 465.8a.81.81 0 00-.24 1.12l9.86 15.33a3.22 3.22 0 004.45.97L587.7 347.57c2.58-1.67 3.2-5.12 2.16-9.7-.92-4-3.1-8.78-6.02-13.33a.81.81 0 00-1.1-.25l-8.71 5.28a.81.81 0 00-.21 1.2c1.29 1.6 1.5 3.24 1.05 5.32a6.84 6.84 0 01-8.18 5.27 6.87 6.87 0 01-4.68-3.62.81.81 0 00-1.16-.31zM364.2 466.72l196.81-127.47.03.04a8.48 8.48 0 0012.42 2 8.46 8.46 0 003-4.85l.02-.09c.45-2.15.29-4.03-.83-5.8l-.03-.05 7.28-4.41.03.05c.27.43.53.87.78 1.3l.17.3c.4.67.76 1.34 1.11 2.02l.15.29c.4.77.76 1.53 1.1 2.29l.12.28.12.28c.06.14.12.28.18.42l.12.28a30.56 30.56 0 011.5 4.63c.9 4 .4 6.77-1.46 7.97L375.84 481.85a1.59 1.59 0 01-2.21-.48l-9.42-14.65zm-4.54-22.8c.24-.16.57-.1.73.13l.02.03 2.74 4.26a.54.54 0 01-.9.6v-.01l-2.75-4.27a.54.54 0 01.16-.75z"/><path fill="#000" fill-rule="nonzero" d="M378.87 473.78c.25-.16.57-.1.73.14l.02.02 2.74 4.27a.54.54 0 01-.89.6l-.02-.02-2.74-4.26a.54.54 0 01.16-.75zm-15.28-32.39c.25-.16.57-.1.73.14l.02.02 5.49 8.54a.54.54 0 01-.9.6l-.01-.02-5.49-8.53a.54.54 0 01.16-.75zm16.46 25.6c.25-.16.57-.1.73.14l.02.02 5.49 8.54a.54.54 0 01-.9.6l-.01-.02-5.49-8.53a.54.54 0 01.16-.75zm-12.53-28.12c.24-.16.56-.1.73.14l.01.02 2.75 4.27a.54.54 0 01-.9.6l-.01-.02-2.75-4.26a.54.54 0 01.17-.75zm19.2 29.87c.24-.16.56-.1.73.14l.02.02 2.74 4.26a.54.54 0 01-.9.61l-.01-.02-2.74-4.27a.54.54 0 01.16-.74zm-15.28-32.4c.24-.15.56-.09.73.15l.02.02 5.48 8.53a.54.54 0 01-.9.6v-.01l-5.5-8.54a.54.54 0 01.17-.74zm16.46 25.6c.24-.15.56-.09.73.15l.02.02 5.48 8.53a.54.54 0 01-.9.61v-.02l-5.5-8.54a.54.54 0 01.17-.74zm-12.54-28.12c.25-.15.57-.09.73.14l.02.03 2.74 4.26a.54.54 0 01-.9.61v-.02l-2.75-4.27a.54.54 0 01.16-.75zm19.2 29.87c.25-.16.57-.1.74.14l.01.02 2.75 4.27a.54.54 0 01-.9.6l-.01-.01-2.75-4.27a.54.54 0 01.16-.75zm-15.28-32.39c.25-.15.57-.1.74.14l.01.02 5.49 8.54a.54.54 0 01-.9.6l-.01-.02-5.49-8.53a.54.54 0 01.16-.75zm16.46 25.6c.25-.15.57-.1.74.14l.01.02 5.49 8.54a.54.54 0 01-.9.6l-.01-.02-5.49-8.53a.54.54 0 01.16-.75zm-12.53-28.12c.24-.16.56-.1.73.14l.01.02 2.75 4.27a.54.54 0 01-.9.6l-.01-.02-2.74-4.26a.54.54 0 01.16-.75zm19.2 29.87c.24-.16.57-.1.73.14l.02.02 2.74 4.27a.54.54 0 01-.9.6v-.02l-2.75-4.27a.54.54 0 01.16-.74zm-15.28-32.4c.24-.15.57-.08.73.15l.02.02 5.48 8.53a.54.54 0 01-.89.61l-.01-.02-5.5-8.54a.54.54 0 01.17-.74zm16.46 25.6c.24-.15.57-.09.73.15l.02.02 5.48 8.53a.54.54 0 01-.89.61l-.02-.02-5.48-8.54a.54.54 0 01.16-.74zm-12.54-28.11c.25-.16.57-.1.74.14l.01.02 2.74 4.26a.54.54 0 01-.89.61l-.01-.02-2.75-4.27a.54.54 0 01.16-.74zm19.2 29.86c.25-.15.57-.1.74.14l.01.02 2.75 4.27a.54.54 0 01-.9.6l-.01-.01-2.75-4.27a.54.54 0 01.17-.75zm-15.27-32.39c.24-.15.56-.09.73.14l.01.03 5.5 8.53a.54.54 0 01-.9.6l-.02-.02-5.49-8.53a.54.54 0 01.17-.75zm16.46 25.6c.24-.15.56-.09.73.14l.01.03 5.49 8.53a.54.54 0 01-.9.6l-.01-.02-5.49-8.53a.54.54 0 01.17-.75zM398.9 418.7c.24-.16.57-.1.73.14l.02.02 2.74 4.27a.54.54 0 01-.9.6v-.01l-2.75-4.27a.54.54 0 01.16-.75zm19.2 29.87c.25-.16.57-.1.73.14l.02.02 2.74 4.27a.54.54 0 01-.9.6v-.02l-2.75-4.26a.54.54 0 01.16-.75zm-15.28-32.4c.25-.15.57-.08.73.15l.02.02 5.49 8.53a.54.54 0 01-.9.61l-.01-.02-5.49-8.53a.54.54 0 01.16-.75zm16.46 25.6c.25-.15.57-.08.73.15l.02.02 5.49 8.53a.54.54 0 01-.9.61l-.01-.02-5.49-8.53a.54.54 0 01.16-.75zm-12.53-28.11c.24-.16.56-.1.73.14l.01.02 2.75 4.27a.54.54 0 01-.9.6l-.01-.02-2.75-4.27a.54.54 0 01.17-.74zm19.2 29.86c.24-.15.56-.09.73.14l.01.03 2.75 4.26a.54.54 0 01-.9.61l-.01-.02-2.74-4.27a.54.54 0 01.16-.75zm-15.28-32.39c.24-.15.56-.09.73.14l.02.03 5.48 8.53a.54.54 0 01-.9.6v-.02l-5.5-8.53a.54.54 0 01.17-.75zm16.46 25.6c.24-.15.56-.09.73.14l.01.03 5.5 8.53a.54.54 0 01-.9.6l-.02-.02-5.48-8.53a.54.54 0 01.16-.75zm-12.54-28.12c.24-.15.57-.1.73.14l.02.02 2.74 4.27a.54.54 0 01-.9.6v-.01l-2.75-4.27a.54.54 0 01.16-.75zm19.2 29.87c.25-.16.57-.1.74.14l.01.02 2.74 4.27a.54.54 0 01-.89.6l-.02-.02-2.74-4.26a.54.54 0 01.16-.75zm-15.28-32.39c.25-.16.57-.1.74.14l.01.02 5.49 8.54a.54.54 0 01-.9.6l-.01-.02-5.49-8.53a.54.54 0 01.16-.75zm16.46 25.6c.25-.16.57-.1.74.14l.01.02 5.49 8.54a.54.54 0 01-.9.6l-.01-.02-5.49-8.53a.54.54 0 01.16-.75zm-12.53-28.12c.24-.16.56-.1.73.14l.01.02 2.75 4.27a.54.54 0 01-.9.6l-.01-.02-2.74-4.27a.54.54 0 01.16-.74zm19.2 29.86c.24-.15.57-.09.73.14l.02.03 2.74 4.26a.54.54 0 01-.9.61v-.02l-2.75-4.27a.54.54 0 01.16-.75zm-15.28-32.38c.24-.16.56-.1.73.14l.02.02 5.48 8.53a.54.54 0 01-.89.6l-.02-.01-5.48-8.54a.54.54 0 01.16-.74zm16.46 25.6c.24-.16.56-.1.73.14l.02.02 5.48 8.53a.54.54 0 01-.9.6v-.01l-5.5-8.54a.54.54 0 01.17-.74zm-12.54-28.13c.25-.15.57-.09.73.14l.02.03 2.74 4.26a.54.54 0 01-.89.61l-.02-.02-2.74-4.27a.54.54 0 01.16-.75zm19.2 29.87c.25-.16.57-.1.74.14l.01.02 2.75 4.27a.54.54 0 01-.9.6l-.01-.02-2.75-4.26a.54.54 0 01.17-.75zm-15.27-32.39c.24-.16.56-.1.73.14l.01.02 5.49 8.54a.54.54 0 01-.9.6l-.01-.02-5.49-8.53a.54.54 0 01.17-.75zm16.46 25.6c.24-.16.56-.1.73.14l.01.02 5.49 8.54a.54.54 0 01-.9.6l-.01-.02-5.49-8.53a.54.54 0 01.17-.75zm-12.54-28.12c.24-.16.56-.1.73.14l.02.02 2.74 4.27a.54.54 0 01-.9.6l-.01-.02-2.74-4.26a.54.54 0 01.16-.75zm19.2 29.87c.24-.16.57-.1.73.14l.02.02 2.74 4.27a.54.54 0 01-.9.6v-.02l-2.75-4.27a.54.54 0 01.16-.74zm-15.28-32.4c.25-.15.57-.09.73.15l.02.02 5.49 8.53a.54.54 0 01-.9.61l-.01-.02-5.5-8.54a.54.54 0 01.17-.74zm16.46 25.6c.24-.15.57-.09.73.15l.02.02 5.48 8.53a.54.54 0 01-.89.61l-.01-.02-5.5-8.54a.54.54 0 01.17-.74zm-12.53-28.12c.24-.15.56-.09.73.14l.01.03 2.75 4.26a.54.54 0 01-.9.61l-.01-.02-2.75-4.27a.54.54 0 01.17-.75zm19.2 29.87c.24-.16.56-.1.73.14l.01.02 2.75 4.27a.54.54 0 01-.9.6l-.01-.02-2.74-4.26a.54.54 0 01.16-.75zM449.9 385.9c.24-.15.56-.1.73.14l.01.02 5.5 8.54a.54.54 0 01-.9.6l-.02-.02-5.49-8.53a.54.54 0 01.17-.75zm16.46 25.6c.24-.15.56-.1.73.14l.01.02 5.5 8.54a.54.54 0 01-.9.6l-.02-.02-5.49-8.53a.54.54 0 01.17-.75zm-12.54-28.12c.24-.16.57-.1.73.14l.02.02 2.74 4.27a.54.54 0 01-.9.6v-.02l-2.75-4.26a.54.54 0 01.16-.75zm19.2 29.87c.25-.16.57-.1.73.14l.02.02 2.74 4.27a.54.54 0 01-.9.6v-.02l-2.75-4.27a.54.54 0 01.16-.74zm-15.28-32.4c.25-.15.57-.09.74.15l.01.02 5.49 8.53a.54.54 0 01-.9.61l-.01-.02-5.49-8.54a.54.54 0 01.16-.74zm16.46 25.6c.25-.15.57-.09.73.15l.02.02 5.49 8.53a.54.54 0 01-.9.61l-.01-.02-5.49-8.54a.54.54 0 01.16-.74zm-12.53-28.11c.24-.16.56-.1.73.14l.01.02 2.75 4.26a.54.54 0 01-.9.61l-.01-.02-2.75-4.27a.54.54 0 01.17-.74zm19.2 29.86c.24-.15.56-.09.73.14l.02.02 2.74 4.27a.54.54 0 01-.9.6v-.01l-2.75-4.27a.54.54 0 01.16-.75zm-15.28-32.39c.24-.15.56-.09.73.14l.02.03 5.48 8.53a.54.54 0 01-.9.6v-.02l-5.5-8.53a.54.54 0 01.17-.75zm16.46 25.6c.24-.15.56-.09.73.14l.02.03 5.48 8.53a.54.54 0 01-.9.6v-.02l-5.5-8.53a.54.54 0 01.17-.75zM469.5 373.3c.25-.16.57-.1.73.14l.02.02 2.74 4.27a.54.54 0 01-.9.6v-.02l-2.75-4.26a.54.54 0 01.16-.75zm19.2 29.87c.25-.16.57-.1.74.14l.01.02 2.75 4.27a.54.54 0 01-.9.6l-.01-.02-2.75-4.27a.54.54 0 01.17-.74zm-15.28-32.4c.25-.15.57-.08.74.15l.01.02 5.49 8.54a.54.54 0 01-.9.6l-.01-.02-5.49-8.53a.54.54 0 01.16-.75zm16.46 25.6c.25-.15.57-.08.74.15l.01.02 5.49 8.54a.54.54 0 01-.9.6l-.01-.02-5.49-8.53a.54.54 0 01.16-.75zm-12.53-28.11c.24-.16.56-.1.73.14l.02.02 2.74 4.27a.54.54 0 01-.9.6l-.01-.02-2.74-4.27a.54.54 0 01.16-.74zm19.2 29.86c.24-.15.57-.09.73.14l.02.03 2.74 4.26a.54.54 0 01-.9.61v-.02l-2.75-4.27a.54.54 0 01.16-.75zm-15.28-32.39c.24-.15.57-.09.73.14l.02.03 5.48 8.53a.54.54 0 01-.89.6l-.01-.02-5.5-8.53a.54.54 0 01.17-.75zm16.46 25.6c.24-.15.57-.09.73.14l.02.03 5.48 8.53a.54.54 0 01-.89.6l-.01-.02-5.5-8.53a.54.54 0 01.17-.75zM485.2 363.2c.25-.15.57-.1.74.14l.01.02 2.74 4.27a.54.54 0 01-.89.6l-.01-.01-2.75-4.27a.54.54 0 01.16-.75zm19.2 29.87c.25-.16.57-.1.74.14l.01.02 2.75 4.27a.54.54 0 01-.9.6l-.01-.02-2.75-4.26a.54.54 0 01.17-.75zm-15.27-32.39c.24-.16.56-.1.73.14l.01.02 5.49 8.54a.54.54 0 01-.9.6v-.02l-5.5-8.53a.54.54 0 01.17-.75zm16.46 25.6c.24-.16.56-.1.73.14l.01.02 5.49 8.54a.54.54 0 01-.9.6v-.02l-5.5-8.53a.54.54 0 01.17-.75zm-12.54-28.12c.24-.16.57-.1.73.14l.02.02 2.74 4.27a.54.54 0 01-.9.6v-.02l-2.75-4.27a.54.54 0 01.16-.74zm19.2 29.86c.25-.15.57-.09.73.14l.02.03 2.74 4.26a.54.54 0 01-.9.61v-.02l-2.75-4.27a.54.54 0 01.16-.75zm-15.28-32.38c.25-.16.57-.1.73.14l.02.02 5.49 8.53a.54.54 0 01-.9.6l-.01-.01-5.49-8.54a.54.54 0 01.16-.74zm16.46 25.6c.25-.16.57-.1.73.14l.02.02 5.49 8.53a.54.54 0 01-.9.6l-.01-.01-5.49-8.54a.54.54 0 01.16-.74zM500.9 353.1c.24-.15.56-.09.73.14l.01.03 2.75 4.26a.54.54 0 01-.9.6l-.01-.01-2.75-4.27a.54.54 0 01.17-.75zm19.2 29.87c.24-.16.56-.1.73.14l.02.02 2.74 4.27a.54.54 0 01-.9.6l-.01-.02-2.74-4.26a.54.54 0 01.16-.75zm-15.28-32.39c.24-.16.56-.1.73.14l.02.02 5.48 8.54a.54.54 0 01-.9.6v-.02l-5.5-8.53a.54.54 0 01.17-.75zm16.46 25.6c.24-.16.56-.1.73.14l.02.02 5.48 8.54a.54.54 0 01-.9.6v-.02l-5.5-8.53a.54.54 0 01.17-.75zm-12.54-28.12c.25-.16.57-.1.73.14l.02.02 2.74 4.27a.54.54 0 01-.9.6v-.02l-2.75-4.26a.54.54 0 01.16-.75zm19.2 29.87c.25-.16.57-.1.74.14l.01.02 2.75 4.26a.54.54 0 01-.9.61l-.01-.02-2.75-4.27a.54.54 0 01.16-.74zm-15.28-32.4c.25-.15.57-.09.74.15l.01.02 5.49 8.53a.54.54 0 01-.9.61l-.01-.02-5.49-8.54a.54.54 0 01.16-.74zm16.46 25.6c.25-.15.57-.09.74.15l.01.02 2.74 4.27 2.75 4.26a.54.54 0 01-.9.61l-.01-.02-2.75-4.27-2.74-4.27a.54.54 0 01.16-.74zm-12.53-28.12c.24-.15.56-.09.73.14l.01.03 2.75 4.26a.54.54 0 01-.9.61l-.01-.02-2.74-4.27a.54.54 0 01.16-.75zm19.2 29.87c.24-.16.57-.1.73.14l.02.02 2.74 4.27a.54.54 0 01-.9.6v-.02l-2.75-4.26a.54.54 0 01.16-.75zm-15.28-32.39c.24-.15.57-.1.73.14l.02.02 2.74 4.27 2.74 4.27a.54.54 0 01-.89.6l-.02-.02-2.74-4.26-2.74-4.27a.54.54 0 01.16-.75zm16.46 25.6c.24-.15.57-.09.73.14l.02.02 5.48 8.54a.54.54 0 01-.89.6l-.02-.02-5.48-8.53a.54.54 0 01.16-.75zm-12.54-28.12c.25-.16.57-.1.73.14l.02.02 2.74 4.27a.54.54 0 01-.9.6V343l-2.75-4.26a.54.54 0 01.16-.75zm19.2 29.87c.25-.16.57-.1.74.14l.01.02 2.75 4.27a.54.54 0 01-.9.6l-.01-.02-2.75-4.27a.54.54 0 01.17-.74zm-15.27-32.4c.24-.15.56-.09.73.15l.01.02 5.49 8.53a.54.54 0 01-.9.61v-.02l-5.5-8.54a.54.54 0 01.17-.74zm16.46 25.6c.24-.15.56-.09.73.15l.01.02 5.49 8.53a.54.54 0 01-.9.61v-.02l-5.5-8.54a.54.54 0 01.17-.74zm-12.54-28.11c.24-.16.56-.1.73.14l.02.02 2.74 4.26a.54.54 0 01-.9.61l-.01-.02-2.74-4.27a.54.54 0 01.16-.74zm19.2 29.86c.25-.15.57-.1.73.14l.02.02 2.74 4.27a.54.54 0 01-.9.6v-.01l-2.75-4.27a.54.54 0 01.16-.75zm-15.28-32.39c.25-.15.57-.09.73.14l.02.03 5.49 8.53a.54.54 0 01-.9.6l-.01-.02-5.49-8.53a.54.54 0 01.16-.75zm16.46 25.6c.25-.15.57-.09.73.14l.02.03 2.74 4.26 2.74 4.27a.54.54 0 01-.89.6l-.01-.02-2.75-4.26-2.74-4.27a.54.54 0 01.16-.75zm-12.53-28.12c.24-.16.56-.1.73.14l.01.02 2.75 4.27a.54.54 0 01-.9.6l-.01-.02-2.75-4.26a.54.54 0 01.17-.75zm19.2 29.87c.24-.16.56-.1.73.14l.01.02 2.75 4.27a.54.54 0 01-.9.6l-.01-.02-2.74-4.27a.54.54 0 01.16-.74zm-15.28-32.4c.24-.15.56-.08.73.15l.02.02 2.74 4.27 2.74 4.27a.54.54 0 01-.9.6v-.02l-2.75-4.27-2.74-4.26a.54.54 0 01.16-.75zm16.46 25.6c.24-.15.56-.08.73.15l.01.02 5.5 8.53a.54.54 0 01-.9.61l-.02-.02-5.49-8.53a.54.54 0 01.17-.75z"/></g></svg>