<svg width="500" height="500" xmlns="http://www.w3.org/2000/svg" xmlns:xlink="http://www.w3.org/1999/xlink"><defs><path d="M149 110.937c0 13.226 47.01 23.947 105 23.947s105-10.721 105-23.947l7.247-5.977L508 0H0l142.345 105.448 6.655 5.49z" id="a"/></defs><g fill="none" fill-rule="evenodd"><path fill="#319796" d="M0 0H500V500H0z"/><path d="M174.08 114V97.552h16.64v-9.856h-16.64v-8.64h16.96V69.2h-27.2V114h10.24zm27.52-34.816c3.136 0 5.76-2.624 5.76-5.76 0-3.136-2.624-5.76-5.76-5.76-3.136 0-5.76 2.624-5.76 5.76 0 3.136 2.624 5.76 5.76 5.76zM206.4 114V82h-9.6v32h9.6zm16.64 0V67.28h-9.6V114h9.6zm25.792 0v-8.704c-4.224.256-6.592 0-6.592-2.752V91.216h6.592V82h-6.592v-8.96l-9.6 2.88V82h-5.12v9.216h5.12v11.328c0 8.96 3.648 12.736 16.192 11.456zm20.928.896c6.08 0 10.816-2.24 13.952-6.592l-7.68-4.416c-1.28 1.408-3.52 2.432-6.144 2.432-3.52 0-6.464-1.152-7.68-4.48h22.72c.256-1.216.384-2.496.384-3.84 0-9.664-6.912-16.896-16.256-16.896-10.112 0-17.024 7.36-17.024 16.896 0 9.536 6.784 16.896 17.728 16.896zm6.016-20.224h-13.76c.896-3.264 3.328-5.056 6.976-5.056 2.88 0 5.76 1.344 6.784 5.056zM300.352 114V99.536c0-6.336 5.632-7.936 9.6-7.296V81.36c-4.032 0-8.32 2.048-9.6 6.336V82h-9.6v32h9.6zm24.64.896c6.912 0 13.312-3.136 13.312-10.496 0-11.84-15.744-9.408-15.744-13.056 0-1.152 1.024-1.792 2.688-1.792 2.112 0 3.392 1.152 4.288 2.816l8.192-4.416c-2.688-4.544-7.296-6.848-12.48-6.848-6.656 0-12.544 3.52-12.544 10.496 0 11.072 15.744 9.216 15.744 12.736 0 1.28-1.152 1.984-3.456 1.984-2.816 0-4.608-1.344-5.44-3.776l-8.32 4.736c2.496 5.184 7.36 7.616 13.76 7.616z" fill="#FFF" fill-rule="nonzero"/><g transform="translate(-4 177)"><g transform="translate(139 83.08)"><path d="M87 140.748c4 22.481 9 52.781 12 73.307 10 6.842 25 1.955 27-1.955 4-18.571 10-63.532 13-67.442 3-3.91-41.315-27.148-52-3.91z" fill="#742A2A"/><path d="M15 47.894c12.667 26.064 24.667 45.612 36 58.645 17 19.548 25 28.345 37 38.12 12 9.773 38 9.773 51 0 8-8.798 28-25.414 42-43.007 14-17.594 29-42.03 34-53.758 2.368-5.556-28.69-17.001-97-14.662-18.554.636-52.887 5.523-103 14.662z" fill="#9C2B2B"/><ellipse fill="#9C2B2B" cx="115" cy="27.856" rx="105" ry="23.947"/><path d="M115 55.713c38 0 105-7.79 105-21.015 0-13.225-47.01-23.946-105-23.946S10 21.472 10 34.698s67 21.015 105 21.015z" stroke="#000" fill="#F66565"/><path d="M115.5.5c31.572 0 60.155 3.111 80.846 8.145 10.498 2.554 18.958 5.6 24.73 8.99 5.361 3.149 8.424 6.575 8.424 10.221 0 3.647-3.063 7.073-8.424 10.222-5.772 3.39-14.232 6.436-24.73 8.99-20.69 5.034-49.274 8.145-80.846 8.145-31.572 0-60.155-3.111-80.846-8.145-10.498-2.554-18.958-5.6-24.73-8.99C4.563 34.93 1.5 31.503 1.5 27.856c0-3.646 3.063-7.072 8.424-10.221 5.772-3.39 14.232-6.436 24.73-8.99C55.344 3.61 83.928.5 115.5.5zm-.5 2.91c-29.039 0-55.328 2.686-74.357 7.026-9.738 2.22-17.58 4.878-22.933 7.825-2.656 1.462-4.706 3-6.085 4.59C10.219 24.47 9.5 26.147 9.5 27.856c0 1.71.72 3.387 2.125 5.006 1.38 1.589 3.429 3.127 6.085 4.59 5.353 2.947 13.195 5.604 22.933 7.825 19.03 4.34 45.318 7.026 74.357 7.026s55.328-2.686 74.357-7.026c9.738-2.22 17.58-4.878 22.933-7.825 2.656-1.463 4.706-3.001 6.085-4.59 1.406-1.619 2.125-3.296 2.125-5.006 0-1.709-.72-3.386-2.125-5.005-1.38-1.59-3.429-3.128-6.085-4.59-5.353-2.947-13.195-5.604-22.933-7.825C170.327 6.096 144.04 3.41 115 3.41z" stroke="#000" fill="#C53030"/><path d="M115.5 55.713c62.566 0 113.412-12.209 114.483-27.368H230v9.774C216 53.106 177.667 60.6 115 60.6c-62.04 0-99.904-7.344-113.593-22.033L1 38.119v-9.774h.017C2.088 43.505 52.934 55.713 115.5 55.713z" fill="#742A2A"/><path d="M2 28.345l-.5 9.589.28.308c13.422 14.397 50.564 21.72 111.352 21.867l1.868.002c61.901 0 99.994-7.325 114.207-21.878l.293-.307-.5-9.58h1l.5 9.963-.13.14c-14.132 15.127-52.563 22.64-115.37 22.64-62.184 0-100.147-7.364-113.966-22.197l-.411-.452-.123-.138.5-9.957h1z" fill="#000" fill-rule="nonzero"/><path d="M16.04 47.97c19.014 40.622 42.815 72.488 71.4 95.605l1.025.823 10.999 69.39.071.054c3.168 2.33 8.463 3.243 15.837 2.707l.53-.041c4.861-.95 8.74-2.846 9.65-4.627l.027-.061c.194-.53.716-3.236 1.59-8.22l4.378-25.51.725-4.137 1.095-6.13c2.435-13.427 4.143-21.344 5.186-23.383l.102-.186c.562-.952 1.904-2.315 4.689-4.848l5.577-5.005a414.02 414.02 0 0 0 6.239-5.714c11.807-11.054 22.333-22.485 32.41-36.029 10.123-13.605 18.97-28.361 26.309-44.47 1.008-.617 1.5-.901 1.479-.851-7.478 16.66-16.556 31.886-26.98 45.896-10.115 13.595-20.68 25.068-32.527 36.16a387.86 387.86 0 0 1-4.779 4.397l-6.473 5.812c-3.253 2.938-4.71 4.411-5.152 5.275l-.081.168c-1.117 2.458-3.111 12.135-5.935 28.087l-.712 4.058-4.553 26.512c-.975 5.573-1.482 8.155-1.719 8.617-1.089 2.129-5.21 4.143-10.405 5.155-7.935.646-13.642-.293-17.12-2.86l-.234-.178-.152-.118-11.002-69.402-.731-.588c-28.71-23.217-52.601-55.206-71.676-95.96l-.582-1.25c.866.29 1.365.573 1.495.851z" fill="#000" fill-rule="nonzero"/><path d="M40 55.713c16.667 42.355 38.333 74.284 65 95.787a65.723 65.723 0 0 0 16 0c-19-31.277-23-65.487-23-90.9-21.333 0-40.667-1.629-58-4.887z" fill="#C53030" opacity=".5"/><path d="M95 148.568c7.333 2.606 14.333 3.584 21 2.932-2 18.245-3 39.748-3 64.51-3.333.651-6.333.651-9 0-4.667-29.975-7.667-52.455-9-67.442z" fill="#9C2B2B" opacity=".5"/></g><mask id="b" fill="#fff"><use xlink:href="#a"/></mask><path d="M185.624 8.4c-.325-.952-.705-1.67-1.103-2.157-.506-.62-1.055-.888-1.58-.89-.53-.002-1.078.262-1.581.88-.395.484-.77 1.2-1.088 2.153l-2.133 6.396-6.818.03c-1.014.005-1.817.135-2.404.355-.753.282-1.176.719-1.337 1.217-.161.498-.075 1.1.368 1.773.346.524.918 1.103 1.736 1.705l5.55 4.083-2.066 6.397c-.301.964-.417 1.763-.382 2.387.045.796.334 1.332.762 1.641.427.31 1.028.416 1.801.213.608-.16 1.336-.516 2.16-1.095l5.536-3.935 5.572 3.986c.83.588 1.56.95 2.169 1.115.777.21 1.378.107 1.803-.198.427-.306.713-.842.751-1.642.03-.624-.094-1.424-.404-2.385l-2.075-6.444 5.458-4.003c.813-.595 1.382-1.17 1.723-1.692.438-.67.52-1.272.354-1.772-.166-.497-.592-.934-1.343-1.222-.588-.225-1.392-.363-2.405-.376l-6.768-.092-2.256-6.429z" stroke="#000" fill="#FAF088" mask="url(#b)" transform="rotate(-12 182.99 20.06)"/><path d="M234.878 96.068c-.62-1.812-1.342-3.178-2.105-4.102-.886-1.072-1.84-1.566-2.774-1.566-.933 0-1.888.494-2.774 1.566-.765.924-1.488 2.29-2.111 4.105l-4.446 12.982-14.014.126c-1.955.017-3.505.265-4.638.689-1.321.494-2.096 1.233-2.385 2.103-.29.873-.108 1.92.666 3.084.663.996 1.768 2.09 3.34 3.228l11.356 8.214-4.305 12.977c-.59 1.831-.826 3.352-.764 4.54.073 1.383.552 2.334 1.31 2.872.754.536 1.822.686 3.182.329 1.172-.309 2.576-.998 4.168-2.107L230 137.083l11.408 8.024c1.595 1.11 3 1.8 4.172 2.108 1.36.358 2.427.207 3.181-.328.76-.54 1.238-1.49 1.31-2.874.063-1.188-.175-2.709-.763-4.535l-4.201-13.034 11.254-8.161c1.573-1.14 2.679-2.233 3.341-3.228.775-1.164.957-2.21.667-3.083-.29-.87-1.065-1.61-2.386-2.104-1.134-.424-2.684-.672-4.639-.689l-13.897-.122-4.568-12.99z" stroke="#000" fill="#FAF088" mask="url(#b)"/><path d="M316.75 19.683c-.385-1.133-.839-1.986-1.318-2.564-.59-.71-1.231-1.022-1.854-1.02-.62.004-1.262.321-1.858 1.034-.485.581-.947 1.438-1.346 2.576l-2.735 7.827-8.501.118c-1.232.017-2.208.18-2.923.448-.885.332-1.392.834-1.588 1.41-.197.58-.094 1.28.424 2.056.415.622 1.108 1.305 2.097 2.014l6.85 4.903-2.645 7.81c-.379 1.152-.53 2.107-.494 2.85.044.926.375 1.55.882 1.906.5.35 1.207.461 2.118.22.739-.196 1.626-.63 2.633-1.328l6.948-4.867 6.893 4.795c1.003.691 1.887 1.116 2.625 1.305.907.233 1.615.117 2.117-.239.509-.359.843-.985.896-1.906.043-.745-.1-1.699-.465-2.843L323 38.366l6.846-4.944c.995-.718 1.693-1.407 2.114-2.031.525-.78.634-1.48.442-2.058-.19-.576-.694-1.077-1.582-1.402-.713-.262-1.688-.415-2.92-.42l-8.423-.031-2.727-7.797z" stroke="#000" fill="#FAF088" mask="url(#b)" transform="rotate(13 313.513 33.75)"/><path d="M121.039 12.242c-.427-1.254-.927-2.2-1.455-2.838-.642-.776-1.338-1.12-2.015-1.118-.675.003-1.371.352-2.018 1.13-.534.642-1.042 1.59-1.48 2.85l-3.035 8.75-9.46.121c-1.359.017-2.435.195-3.223.491-.961.362-1.515.907-1.727 1.535-.213.633-.096 1.394.466 2.239.458.689 1.222 1.446 2.313 2.232l7.635 5.494-2.937 8.737c-.416 1.273-.582 2.329-.542 3.152.05 1.007.406 1.69.956 2.078.544.384 1.315.502 2.304.24.815-.217 1.792-.696 2.901-1.469l7.727-5.432 7.678 5.37c1.106.766 2.08 1.238 2.895 1.449.986.255 1.757.132 2.303-.256.552-.392.911-1.076.968-2.08.047-.824-.112-1.879-.517-3.145l-2.798-8.755 7.615-5.522c1.096-.793 1.865-1.555 2.328-2.246.569-.849.69-1.61.482-2.24-.207-.63-.759-1.172-1.721-1.528-.787-.29-1.863-.46-3.22-.467l-9.377-.046-3.046-8.726z" stroke="#000" fill="#FAF088" mask="url(#b)" transform="rotate(10 117.512 27.881)"/><path d="M164 50.326c.933 0 1.887.494 2.773 1.566.763.924 1.485 2.29 2.105 4.102l4.568 12.989 13.897.122c1.955.017 3.505.265 4.64.69 1.32.493 2.095 1.233 2.385 2.102.29.873.108 1.92-.667 3.084-.662.995-1.768 2.088-3.34 3.227l-11.255 8.162 4.2 13.034c.59 1.826.827 3.347.764 4.535-.072 1.383-.55 2.335-1.31 2.874-.754.535-1.821.685-3.181.328-1.173-.308-2.577-.997-4.172-2.108l-11.408-8.024-11.415 8.025c-1.592 1.109-2.996 1.798-4.168 2.106-1.36.358-2.428.208-3.182-.328-.758-.539-1.237-1.49-1.31-2.873-.062-1.187.175-2.708.764-4.54l4.305-12.976-11.356-8.214c-1.572-1.14-2.677-2.233-3.34-3.229-.774-1.163-.957-2.21-.666-3.083.29-.87 1.064-1.61 2.385-2.103 1.133-.424 2.683-.672 4.638-.689l14.014-.126 4.446-12.982c.623-1.815 1.346-3.181 2.11-4.106.887-1.071 1.842-1.565 2.775-1.565zm.5 5.668l-.001 36.568 8.56 6.02c2.367 1.584 4.092 2.74 5.275 3.38.454.246.82.414 1.384.319.007-.28-.057-.657-.173-1.135-.306-1.263-.975-3.169-1.896-5.796L174.3 84.965l8.955-6.494c2.235-1.626 3.875-2.819 4.88-3.694.585-.509 1.054-.862.903-1.178-.22-.099-.547-.164-.977-.216-1.129-.137-2.9-.154-5.35-.156h-1.209l-11.04-.097-3.633-10.33c-.902-2.888-1.555-4.984-2.097-6.287a8.198 8.198 0 0 0-.234-.519z" stroke="#000" fill="#FAF088" mask="url(#b)" transform="rotate(-48 164 78.831)"/><path d="M302 66.942c.933 0 1.887.494 2.773 1.566.763.924 1.485 2.29 2.105 4.102l4.568 12.99 13.897.121c1.955.017 3.505.265 4.64.69 1.32.493 2.095 1.233 2.385 2.103.29.872.108 1.92-.667 3.083-.662.995-1.768 2.088-3.34 3.227l-11.255 8.162 4.2 13.034c.59 1.826.827 3.347.764 4.535-.072 1.383-.55 2.335-1.31 2.874-.754.535-1.821.686-3.181.328-1.173-.308-2.577-.997-4.172-2.108l-11.408-8.024-11.415 8.025c-1.592 1.11-2.996 1.798-4.168 2.107-1.36.357-2.428.207-3.182-.329-.758-.539-1.237-1.49-1.31-2.873-.062-1.187.175-2.708.764-4.54l4.305-12.976-11.356-8.214c-1.572-1.139-2.677-2.233-3.34-3.228-.774-1.164-.957-2.211-.666-3.084.29-.87 1.064-1.61 2.385-2.103 1.133-.424 2.683-.672 4.638-.689l14.014-.126 4.446-12.982c.623-1.815 1.346-3.18 2.11-4.105.887-1.072 1.842-1.566 2.775-1.566zm.5 5.668l-.001 36.568 8.56 6.02c2.367 1.585 4.092 2.74 5.275 3.38.454.247.82.414 1.384.32.007-.281-.057-.657-.173-1.136-.306-1.263-.975-3.169-1.896-5.796l-3.348-10.385 8.955-6.494c2.251-1.638 3.9-2.836 4.903-3.713.565-.494 1.044-.844.858-1.169-.235-.098-.577-.163-1.027-.214-1.179-.135-3.024-.147-5.57-.148h-.916l-11.042-.097-3.632-10.33c-.902-2.888-1.555-4.984-2.097-6.287a8.198 8.198 0 0 0-.234-.519z" stroke="#000" fill="#FAF088" mask="url(#b)" transform="rotate(7 302 95.447)"/><path d="M398.5 3.41c.622 0 1.264.314 1.857 1.025.482.578.94 1.432 1.332 2.565l2.772 7.806 8.436.073c1.233.011 2.21.168 2.925.433.887.329 1.394.83 1.587 1.405.195.58.089 1.278-.434 2.056-.418.622-1.115 1.308-2.108 2.02l-6.825 4.902 2.546 7.824c.373 1.144.52 2.097.48 2.841-.048.923-.381 1.548-.89 1.905-.5.353-1.209.466-2.118.229-.74-.193-1.626-.621-2.633-1.316l-6.927-4.825-6.932 4.827c-1.004.693-1.89 1.121-2.63 1.314-.91.236-1.618.123-2.12-.23-.507-.357-.84-.981-.89-1.904-.039-.743.108-1.696.482-2.845l2.608-7.788-6.885-4.934c-.994-.712-1.69-1.398-2.108-2.02-.523-.779-.629-1.477-.434-2.057.193-.574.699-1.076 1.586-1.404.715-.265 1.692-.422 2.925-.433l8.507-.075 2.697-7.8c.394-1.137.853-1.99 1.337-2.57.593-.71 1.235-1.024 1.857-1.024zm.005 4.254V28.83l5.254 3.598c1.467.956 2.537 1.655 3.272 2.042.157.083.295.12.489-.271-.19-.764-.607-1.915-1.178-3.503l-2.136-6.451 5.705-4.028c1.745-1.237 3.283-2.043 3.143-2.725-.658-.085-1.694-.098-3.127-.1h-1.004l-7.017-.06-2.312-6.403c-.447-1.393-.795-2.482-1.089-3.265z" stroke="#000" fill="#FAF088" mask="url(#b)" transform="rotate(24 398.5 21.015)"/><path d="M238.5 22.958c.84 0 1.699.443 2.496 1.415.678.826 1.319 2.048 1.87 3.667l4.021 11.523 12.234.108c1.736.015 3.112.238 4.12.618 1.187.447 1.88 1.119 2.14 1.906.261.79.102 1.736-.594 2.79-.588.89-1.569 1.868-2.965 2.887l-9.91 7.24 3.699 11.564c.523 1.633.733 2.993.677 4.054-.065 1.253-.499 2.112-1.18 2.6-.678.484-1.637.625-2.861.3-1.041-.275-2.288-.89-3.705-1.885L238.5 64.63l-10.048 7.118c-1.413.992-2.66 1.607-3.701 1.883-1.224.324-2.183.184-2.861-.301-.681-.488-1.115-1.346-1.18-2.598-.056-1.062.153-2.421.677-4.06l3.79-11.512-9.999-7.287c-1.395-1.019-2.376-1.997-2.964-2.888-.696-1.053-.855-2-.595-2.79.26-.786.953-1.458 2.141-1.906 1.006-.379 2.382-.602 4.118-.617l12.338-.111 3.914-11.516c.553-1.623 1.195-2.845 1.874-3.671.798-.972 1.658-1.415 2.497-1.415zm-.086 5.052c-.158.217-.32.548-.5.989-.476 1.16-1.05 3.025-1.84 5.595l-3.116 9.239-9.807.09h-1.263c-1.866.002-3.267.018-4.228.11-.44.042-.778.097-1.072.359.14.21.38.456.71.751.873.785 2.336 1.864 4.351 3.354l7.955 5.844-3.02 9.244c-.807 2.343-1.393 4.037-1.66 5.16-.101.421-.157.752.014 1.1.248-.067.563-.214.955-.43 1.036-.57 2.547-1.598 4.63-3.014l7.977-5.696 7.985 5.703c2.073 1.409 3.584 2.437 4.62 3.007.393.216.708.363 1.121.33.006-.247-.05-.579-.15-1-.268-1.124-.855-2.82-1.663-5.158l-2.946-9.284 7.885-5.807c3.203-2.367 5.2-3.596 5.09-4.246-.174-.081-.43-.134-.765-.179-.936-.125-2.409-.144-4.447-.148h-1.377l-9.73-.088-3.199-9.24c-.79-2.57-1.362-4.436-1.838-5.596-.18-.441-.342-.772-.672-.99z" stroke="#000" fill="#FAF088" mask="url(#b)"/><path d="M366.5 41.529c.84 0 1.699.443 2.496 1.415.678.826 1.319 2.048 1.87 3.667l4.021 11.523 12.234.108c1.736.015 3.112.238 4.12.617 1.187.448 1.88 1.12 2.14 1.907.261.79.102 1.736-.594 2.79-.588.89-1.569 1.868-2.965 2.886l-9.91 7.241 3.699 11.564c.523 1.633.733 2.993.677 4.054-.065 1.253-.499 2.112-1.18 2.6-.678.484-1.637.625-2.861.3-1.041-.275-2.288-.89-3.705-1.885L366.5 83.2l-10.048 7.118c-1.413.992-2.66 1.607-3.701 1.883-1.224.324-2.183.184-2.861-.301-.681-.488-1.115-1.346-1.18-2.598-.056-1.062.153-2.421.677-4.06l3.79-11.512-9.999-7.287c-1.395-1.019-2.376-1.997-2.964-2.888-.696-1.053-.855-2-.595-2.79.26-.786.953-1.459 2.141-1.906 1.006-.379 2.382-.602 4.118-.617l12.338-.111 3.914-11.516c.553-1.623 1.195-2.845 1.874-3.671.798-.972 1.658-1.415 2.497-1.415zm-.086 5.052c-.158.217-.32.548-.5.989-.476 1.16-1.05 3.025-1.84 5.595l-3.116 9.239-9.807.089h-1.263c-1.866.003-3.267.019-4.228.11-.44.043-.778.098-1.072.36.14.21.38.456.71.751.873.785 2.336 1.864 4.351 3.354l7.955 5.844-3.02 9.244c-.807 2.343-1.393 4.037-1.66 5.16-.101.421-.157.752.014 1.1.248-.067.563-.214.955-.43 1.036-.57 2.547-1.598 4.63-3.014l7.977-5.696 7.985 5.703c2.073 1.409 3.584 2.437 4.62 3.007.393.216.708.363 1.121.33.006-.247-.05-.579-.15-1-.268-1.124-.855-2.82-1.663-5.158l-2.946-9.284 7.885-5.807c3.203-2.367 5.2-3.596 5.09-4.246-.174-.081-.43-.134-.765-.179-.936-.125-2.409-.144-4.447-.148h-1.377l-9.73-.088-3.199-9.24c-.79-2.57-1.362-4.436-1.838-5.596-.18-.441-.342-.773-.672-.99z" stroke="#000" fill="#FAF088" mask="url(#b)" transform="rotate(40 366.5 66.953)"/></g><path d="M138.392 156l-1.632-4.272h-8.424L126.704 156h-1.344l6.528-16.8h1.344l6.504 16.8h-1.344zm-9.576-5.472h7.488l-3.744-9.768-3.744 9.768zm24.912 5.736c-3.144 0-5.376-1.584-6.144-3.96l1.104-.648c.576 2.016 2.28 3.384 5.04 3.384 2.808 0 4.224-1.44 4.224-3.36 0-2.016-1.776-2.784-4.344-3.6-2.808-.912-5.328-1.704-5.328-4.632 0-2.76 2.232-4.512 5.088-4.512 2.76 0 4.584 1.584 5.4 3.528l-1.08.6c-.624-1.512-1.92-2.904-4.32-2.904-2.328 0-3.792 1.368-3.792 3.24 0 2.016 1.704 2.64 4.104 3.432 2.976.984 5.568 1.92 5.568 4.824 0 2.784-2.184 4.608-5.52 4.608zm9-15.168a.963.963 0 0 1-.96-.96c0-.504.432-.936.96-.936s.96.432.96.936c0 .528-.432.96-.96.96zm-.6 14.904v-12h1.2v12h-1.2zm11.04-10.824h-3.576v7.8c0 2.112 1.128 2.16 3.576 1.944V156c-3.144.48-4.8-.288-4.8-3.024v-7.8h-2.64V144h2.64v-3l1.224-.36V144h3.576v1.176zm7.56-1.44c3.648 0 5.928 3.024 5.928 6.312 0 .192-.024.384-.024.576H175.76c.288 2.712 2.352 4.488 5.088 4.488 1.968 0 3.456-.912 4.152-2.184l1.056.624c-.984 1.632-2.856 2.712-5.232 2.712-3.696 0-6.312-2.64-6.312-6.264 0-3.528 2.544-6.264 6.216-6.264zm0 1.152c-2.736 0-4.728 1.896-4.968 4.56h9.648c-.264-2.928-2.328-4.56-4.68-4.56zM206.72 156l-4.032-6.888h-5.304V156h-1.272v-16.8h6.624a4.978 4.978 0 0 1 4.968 4.968c0 2.28-1.56 4.2-3.696 4.776l4.176 7.056h-1.464zm-9.336-15.6v7.512h5.352c2.04 0 3.696-1.68 3.696-3.744 0-2.088-1.656-3.768-3.696-3.768h-5.352zm18 3.336c3.648 0 5.928 3.024 5.928 6.312 0 .192-.024.384-.024.576h-10.872c.288 2.712 2.352 4.488 5.088 4.488 1.968 0 3.456-.912 4.152-2.184l1.056.624c-.984 1.632-2.856 2.712-5.232 2.712-3.696 0-6.312-2.64-6.312-6.264 0-3.528 2.544-6.264 6.216-6.264zm0 1.152c-2.736 0-4.728 1.896-4.968 4.56h9.648c-.264-2.928-2.328-4.56-4.68-4.56zm17.064-.888h1.272l-5.064 12h-1.464l-5.088-12h1.296l4.512 10.752L232.448 144zm4.056-2.904a.963.963 0 0 1-.96-.96c0-.504.432-.936.96-.936s.96.432.96.936c0 .528-.432.96-.96.96zm-.6 14.904v-12h1.2v12h-1.2zm10.296-12.264c3.648 0 5.928 3.024 5.928 6.312 0 .192-.024.384-.024.576h-10.872c.288 2.712 2.352 4.488 5.088 4.488 1.968 0 3.456-.912 4.152-2.184l1.056.624c-.984 1.632-2.856 2.712-5.232 2.712-3.696 0-6.312-2.64-6.312-6.264 0-3.528 2.544-6.264 6.216-6.264zm0 1.152c-2.736 0-4.728 1.896-4.968 4.56h9.648c-.264-2.928-2.328-4.56-4.68-4.56zm22.824-.888h1.272l-3.792 12h-1.32l-3.336-10.224L258.512 156h-1.32l-3.792-12h1.272l3.192 10.44 3.36-10.44h1.248l3.36 10.44 3.192-10.44zm4.008 3.144c0 3.216 7.272 1.32 7.272 5.712 0 1.968-1.728 3.408-4.296 3.408-2.4 0-3.984-1.128-4.56-2.664l1.032-.6c.432 1.296 1.728 2.112 3.528 2.112 1.68 0 3.096-.744 3.096-2.256 0-3.264-7.272-1.392-7.272-5.712 0-1.896 1.632-3.408 4.08-3.408 1.944 0 3.432.936 4.08 2.4l-1.008.576c-.504-1.248-1.752-1.824-3.072-1.824-1.56 0-2.88.816-2.88 2.256zM300.176 144h1.224v12h-1.224v-2.712c-1.008 1.8-2.856 2.976-5.16 2.976-3.408 0-6.216-2.712-6.216-6.264s2.808-6.264 6.216-6.264c2.304 0 4.152 1.176 5.16 2.976V144zm-5.064 11.112c2.856 0 5.064-2.256 5.064-5.112 0-2.856-2.208-5.112-5.064-5.112s-5.088 2.256-5.088 5.112c0 2.856 2.232 5.112 5.088 5.112zM315.68 139.2h1.2V156h-1.2v-2.784c-.984 1.848-2.832 3.048-5.16 3.048-3.432 0-6.216-2.712-6.216-6.264s2.784-6.264 6.216-6.264c2.328 0 4.176 1.2 5.16 3.048V139.2zm-5.088 15.912c2.856 0 5.088-2.256 5.088-5.112 0-2.856-2.232-5.112-5.088-5.112s-5.088 2.256-5.088 5.112c0 2.856 2.232 5.112 5.088 5.112zM331.16 139.2h1.2V156h-1.2v-2.784c-.984 1.848-2.832 3.048-5.16 3.048-3.432 0-6.216-2.712-6.216-6.264s2.784-6.264 6.216-6.264c2.328 0 4.176 1.2 5.16 3.048V139.2zm-5.088 15.912c2.856 0 5.088-2.256 5.088-5.112 0-2.856-2.232-5.112-5.088-5.112s-5.088 2.256-5.088 5.112c0 2.856 2.232 5.112 5.088 5.112zm10.224-5.952v-1.152h8.64v1.152h-8.64zm18.048 7.104c-3.504 0-6.312-2.712-6.312-6.264s2.808-6.264 6.312-6.264c3.48 0 6.288 2.712 6.288 6.264s-2.808 6.264-6.288 6.264zm0-1.152c2.856 0 5.064-2.256 5.064-5.112 0-2.856-2.208-5.112-5.064-5.112s-5.088 2.256-5.088 5.112c0 2.856 2.232 5.112 5.088 5.112zm14.664-11.376c2.856 0 4.656 1.896 4.656 4.8V156h-1.224v-7.464c0-2.208-1.272-3.648-3.528-3.648-2.352 0-4.2 1.536-4.2 4.776V156h-1.2v-12h1.2v2.28c.912-1.776 2.448-2.544 4.296-2.544z" fill="#FFF" opacity=".75"/></g></svg>