<svg xmlns="http://www.w3.org/2000/svg" width="750" height="500"><defs><linearGradient id="g" x1="50%" x2="50%" y1="0%" y2="100%"><stop offset="0%" stop-color="#263238"/><stop offset="36.04%" stop-color="#334148"/><stop offset="69.312%" stop-color="#51636D"/><stop offset="100%" stop-color="#78909C"/></linearGradient><linearGradient id="a" x1="50%" x2="50%" y1="0%" y2="100%"><stop offset="0%" stop-color="#2C0B0B"/><stop offset="13.75%" stop-color="#491212"/><stop offset="23.851%" stop-color="#5C1717"/><stop offset="37.332%" stop-color="#7A1F1F"/><stop offset="50.224%" stop-color="#972626"/><stop offset="61.247%" stop-color="#B02D2D"/><stop offset="70.273%" stop-color="#BA4848"/><stop offset="100%" stop-color="#D99A9A"/></linearGradient><linearGradient id="c" x1="50%" x2="50%" y1="0%" y2="100%"><stop offset="0%" stop-color="#111947"/><stop offset="15.25%" stop-color="#1B2873"/><stop offset="26.945%" stop-color="#233493"/><stop offset="36.628%" stop-color="#2B3FB3"/><stop offset="48.459%" stop-color="#344CD9"/><stop offset="57.232%" stop-color="#3B57F7"/><stop offset="66.936%" stop-color="#506AFE"/><stop offset="100%" stop-color="#A2B0FE"/></linearGradient><linearGradient id="d" x1="50%" x2="50%" y1="0%" y2="100%"><stop offset="0%"/><stop offset="100%" stop-color="#263238"/></linearGradient><linearGradient id="e" x1="50%" x2="50%" y1="0%" y2="100%"><stop offset="0%" stop-color="#263238"/><stop offset="36.04%" stop-color="#334148"/><stop offset="69.312%" stop-color="#51636D"/><stop offset="100%" stop-color="#78909C"/></linearGradient><linearGradient id="f" x1="50%" x2="50%" y1="0%" y2="100%"><stop offset="0%"/><stop offset="100%" stop-color="#263238"/></linearGradient><linearGradient id="b" x1="50%" x2="50%" y1="0%" y2="100%"><stop offset="0%" stop-color="#544D00"/><stop offset="5.743%" stop-color="#585000"/><stop offset="20.172%" stop-color="#827700"/><stop offset="32.747%" stop-color="#A69800"/><stop offset="40.323%" stop-color="#C0B000"/><stop offset="47.76%" stop-color="#D6C400"/><stop offset="54.322%" stop-color="#F0DC00"/><stop offset="60.745%" stop-color="#FEE900"/><stop offset="66.936%" stop-color="#FFEB17"/><stop offset="100%" stop-color="#FFF485"/></linearGradient><linearGradient id="h" x1="50%" x2="50%" y1="0%" y2="100%"><stop offset="0%"/><stop offset="100%" stop-color="#263238"/></linearGradient><linearGradient id="i" x1="50%" x2="50%" y1="0%" y2="100%"><stop offset="0%" stop-color="#263238"/><stop offset="36.04%" stop-color="#334148"/><stop offset="69.312%" stop-color="#51636D"/><stop offset="100%" stop-color="#78909C"/></linearGradient><linearGradient id="j" x1="50%" x2="50%" y1="0%" y2="100%"><stop offset="0%" stop-color="#690000"/><stop offset="7.485%" stop-color="#820000"/><stop offset="13.904%" stop-color="#9A0000"/><stop offset="20.213%" stop-color="#B10000"/><stop offset="26.805%" stop-color="#C00000"/><stop offset="33.198%" stop-color="#C70000"/><stop offset="39.782%" stop-color="#CF0101"/><stop offset="46.738%" stop-color="#D70909"/><stop offset="53.097%" stop-color="#DC0E0E"/><stop offset="60.767%" stop-color="#D00202"/><stop offset="68.102%" stop-color="#C50000"/><stop offset="75.654%" stop-color="#BA0000"/><stop offset="83.348%" stop-color="#A80000"/><stop offset="91.108%" stop-color="#8E0000"/><stop offset="100%" stop-color="#720000"/></linearGradient><linearGradient id="k" x1="50%" x2="50%" y1="0%" y2="100%"><stop offset="0%" stop-color="#978E00"/><stop offset="11.933%" stop-color="#B7AD00"/><stop offset="24.946%" stop-color="#DFD300"/><stop offset="37.908%" stop-color="#EDE000"/><stop offset="51.973%" stop-color="#FFF000"/><stop offset="62.325%" stop-color="#F0DF00"/><stop offset="71.471%" stop-color="#E2D100"/><stop offset="80.035%" stop-color="#D4C100"/><stop offset="89.048%" stop-color="#B7A400"/><stop offset="100%" stop-color="#958000"/></linearGradient><linearGradient id="l" x1="50%" x2="50%" y1="0%" y2="100%"><stop offset="0%" stop-color="navy"/><stop offset="8.474%" stop-color="#00008D"/><stop offset="17.542%" stop-color="#000EB2"/><stop offset="25.795%" stop-color="#0724C8"/><stop offset="33.895%" stop-color="#112ED2"/><stop offset="40.885%" stop-color="#1936DA"/><stop offset="47.511%" stop-color="#223FE3"/><stop offset="54.409%" stop-color="#1F3CE0"/><stop offset="62.024%" stop-color="#1431D5"/><stop offset="69.707%" stop-color="#0825C9"/><stop offset="77.059%" stop-color="#001ABE"/><stop offset="84.225%" stop-color="#0001A5"/><stop offset="91.394%" stop-color="#00008B"/><stop offset="100%" stop-color="#00007E"/></linearGradient></defs><g fill="none" fill-rule="evenodd"><path fill="#00ACC1" d="M0 0h750v500H0z"/><path fill="#FFF" fill-rule="nonzero" d="M253.87 121V75.14H269V62.2h-43.68v12.94h15.12V121h13.44zm33.18 0V98.07c0-5.97 3.2-8.65 7.81-8.65 4.04 0 7.31 2.43 7.31 7.64V121h12.6V95.21c0-11.34-7.22-17.39-15.7-17.39-5.55 0-9.75 2.02-12.02 5.13V62.2h-12.6V121h12.6zm57.54 1.18c7.98 0 14.2-2.94 18.31-8.66l-10.08-5.8c-1.68 1.86-4.62 3.2-8.06 3.2-4.62 0-8.48-1.51-10.08-5.88h29.82c.34-1.6.5-3.28.5-5.04 0-12.68-9.07-22.18-21.33-22.18-13.27 0-22.35 9.66-22.35 22.18s8.9 22.18 23.27 22.18zm7.9-26.55h-18.06c1.17-4.28 4.37-6.63 9.15-6.63 3.78 0 7.56 1.76 8.9 6.63zM384.74 121V97.31c0-4.95 2.36-7.9 6.56-7.9 4.03 0 6.04 2.7 6.04 6.9V121h12.6V97.31c0-4.95 2.36-7.9 6.56-7.9 4.03 0 6.04 2.7 6.04 6.9V121h12.6V95.21c0-10.5-6.3-17.39-15.96-17.39-5.96 0-9.82 2.19-12.18 5.55-2.35-3.53-6.04-5.55-11-5.55-5.63 0-9.32 2.19-11.26 5.04V79h-12.6v42h12.6zm80.22 1.18c7.98 0 14.2-2.94 18.32-8.66l-10.08-5.8c-1.68 1.86-4.62 3.2-8.07 3.2-4.62 0-8.48-1.51-10.08-5.88h29.82c.34-1.6.5-3.28.5-5.04 0-12.68-9.07-22.18-21.33-22.18-13.27 0-22.34 9.66-22.34 22.18s8.9 22.18 23.26 22.18zm7.9-26.55H454.8c1.18-4.28 4.37-6.63 9.16-6.63 3.78 0 7.56 1.76 8.9 6.63zm33.1 26.55c9.07 0 17.47-4.12 17.47-13.78 0-15.54-20.67-12.35-20.67-17.14 0-1.5 1.35-2.35 3.53-2.35 2.77 0 4.45 1.51 5.63 3.7l10.75-5.8c-3.53-5.96-9.57-8.99-16.38-8.99-8.73 0-16.46 4.62-16.46 13.78 0 14.53 20.66 12.1 20.66 16.72 0 1.68-1.51 2.6-4.53 2.6-3.7 0-6.05-1.76-7.14-4.96l-10.92 6.22c3.27 6.8 9.66 10 18.06 10z"/><path fill="url(#a)" d="M206.52 0H164v238h82V0z" transform="translate(257 262)"/><path fill="url(#b)" d="M124.52 0H82v238h82V0z" transform="translate(257 262)"/><path fill="url(#c)" d="M42.52 0H0v238h82V0z" transform="translate(257 262)"/><path fill="#000" fill-rule="nonzero" d="M248.9 225.84v15.42h275.27v37.87l-134.23 46.84-.97.35c-.16.06-.32.12-.47.18l-.92.34-.88.35-.85.35c-4.7 1.97-7.72 4-9.69 6.76-1.48 2.08-2.32 4.64-2.7 7.7l-.06.56-.05.55c0 .1-.01.19-.02.28l-.04.55-.03.57c0 .1 0 .2-.01.29l-.02.6v.65l-.01 1.06v.78l.02 1.71v77.8h15.42v-77.78l-.02-.97-.01-1.16v-1.09l.02-.65.02-.6.02-.54c.04-.52.08-.94.14-1.28l.02-.1.22-.14.17-.1.33-.18c.05-.03.11-.07.17-.1l.39-.2.42-.2.47-.21.5-.22c.1-.04.18-.08.28-.12l.57-.23.62-.25.66-.25.7-.26.76-.27 139.3-48.61a7.7 7.7 0 005.17-7.29v-51.05a7.7 7.7 0 00-7.7-7.7H248.88z"/><path fill="#7B9599" d="M387.66 426.4h-13.42v-76.2c0-.42 0-.87 0-1.34-.06-4.19-.15-9.92 2.74-13.98 2.76-3.88 8.26-6.21 13.79-8.14l134.4-46.9v-39.58H249.9v-13.42h281.98c3.7 0 6.71 3 6.71 6.7v51.06a6.7 6.7 0 01-4.5 6.34l-138.9 48.47c-4.9 1.71-6.62 2.75-7.21 3.23-.39 1.3-.35 4.58-.33 6.03 0 .54.02 1.05.02 1.52v76.21z"/><path fill="#476166" d="M383.2 423.43v-70.26c0-.44-.02-.91-.03-1.42-.04-3.36-.1-7.96 1.64-10.44 2.04-2.86 8.24-5.03 10.9-5.96l138.39-48.3v-49.78H258.83v-1.48h276.02c.41 0 .75.33.75.74v51.06l-.5.7-138.9 48.47c-5.95 2.08-8 3.4-8.99 4.22l-1.44 1.15-.53 1.77c-.54 1.8-.62 4.33-.57 7.8 0 .55 0 1.03 0 1.47v70.26h-1.48z"/><path fill="#B8C9CC" d="M375.74 421.93V348.7c0-.41 0-.88-.02-1.37-.05-3.77-.13-8.94 2.2-12.2 2.28-3.22 7.51-5.37 12.34-7.05l136.4-47.6v-44.68H251.38v-7.46h279a3.72 3.72 0 013.72 3.73v51.06c0 1.58-1 3-2.49 3.51l-138.9 48.48c-4.14 1.44-6.78 2.66-8.1 3.72l-.72.58-.27.88c-.43 1.43-.49 3.8-.45 6.9 0 .56.02 1.05.02 1.5v73.24h-7.45z"/><path fill="#FFF" d="M468.97 304.6c-24.03 8.54-43.76 14.71-44.09 13.8-.33-.9 18.9-8.55 42.93-17.08 24.03-8.52 43.77-14.7 44.08-13.8.33.9-18.9 8.55-42.92 17.09zm-91.08 75.23c-.12 15.43-.7 27.94-1.27 27.93-.58-.01-.96-12.53-.84-27.95.13-15.43.7-27.93 1.27-27.93.58 0 .96 12.52.84 27.95z"/><g><path fill="#000" fill-rule="nonzero" d="M399.38 371.26c3.5 0 6.58 2.92 6.02 6.2l-.06.31-.07.32-.08.32-.1.34c-.02.06-.04.12-.05.18l-.12.37-.14.39-.23.64-.28.72-.33.81-.38.92-.94 2.25-.47 1.14-.22.57-.2.5-.15.45-.13.41-.1.38-.07.25-.06.24 3 156.29h-.32l-.04.13c-.86 3.1-5.2 5.85-10.8 7.55l-.73.22c-.25.07-.5.13-.75.2l-.76.2-.77.17c-2.72.6-5.6.96-8.46 1.02h-.78c-2.52 0-5.11-.23-7.62-.66l-.8-.14c-.92-.18-1.82-.38-2.7-.6l-.76-.2c-.5-.13-1-.27-1.47-.42l-.72-.23c-.47-.16-.94-.32-1.39-.49l-.67-.26c-4.07-1.62-7.11-3.79-7.96-6.17l-.06-.2-.04-.12h-.34l3-156.3-.08-.38-.12-.4-.14-.43-.1-.31-.2-.53-.32-.82-.52-1.26-.99-2.36-.36-.88-.31-.78-.26-.7-.23-.61-.12-.39-.11-.35-.1-.35-.08-.32-.07-.32-.06-.3c-.55-3.14 2.23-5.95 5.58-6.2h.21l.22-.01h38.26zm-18.57 146c-2.82 0-5.1 5.34-5.1 11.91 0 6.6 2.28 11.93 5.1 11.93s5.1-5.33 5.1-11.93c0-6.57-2.28-11.92-5.1-11.92z"/><path fill="#36464F" d="M399.38 372.26c2.78 0 5.5 2.3 5.03 5.03-.53 3.03-3.57 8.57-4.19 11.58l2.98 155.39h-.18c0 5.25-12.4 9.5-22.21 9.5-9.8 0-23.32-4.25-23.32-9.5h-.19l2.99-155.4c-.63-3-3.67-8.54-4.2-11.57-.48-2.73 2.25-5.03 5.03-5.03zm-18.57 145c-2.82 0-5.1 5.34-5.1 11.91 0 6.6 2.28 11.93 5.1 11.93s5.1-5.33 5.1-11.93c0-6.57-2.28-11.92-5.1-11.92z"/><path fill="#263238" d="M399.38 372.26h-.73c-1.08 2.7-2.5 5.71-2.9 7.66l2.98 155.4h-.18c0 5.24-12.4 9.5-22.22 9.5-5.36 0-15.72-1.28-18.97-3.29l-.06 2.73h.19c0 5.25 13.51 9.5 23.32 9.5 9.8 0 22.21-4.25 22.21-9.5h.18l-2.98-155.4c.62-3 3.66-8.54 4.2-11.57.46-2.73-2.26-5.03-5.04-5.03z"/><path fill="url(#d)" fill-rule="nonzero" d="M38.1 98.5c1.54 0 3.07 2.68 2.8 5.88-.09 1.03-.3 2.31-.55 3.7l-.23 1.2-.75 3.73-.23 1.2a43.92 43.92 0 00-.58 3.69c-.3 3.09-1.2 5.72-2.66 5.87H14.67c-1.52 0-2.45-2.53-2.78-5.6l-.03-.27a44.1 44.1 0 00-.58-3.69l-.23-1.2-.63-3.1-.24-1.23c-.3-1.62-.56-3.12-.65-4.3-.27-3.12 1.17-5.74 2.67-5.88H38.1z" transform="translate(355.04 371.258)"/><path fill="url(#e)" fill-rule="nonzero" d="M38.1 99.5H12.32c-.88 0-2.02 2.24-1.8 4.8l.03.31.05.49.1.7.13.8.2 1.18.34 1.74.82 4.14.23 1.22.11.63.1.56.1.67.07.61.04.3.01.15c.28 2.93 1.1 4.85 1.75 4.97h21.16c.64 0 1.46-1.83 1.78-4.68l.07-.74.06-.46.04-.31.11-.7.18-1 .28-1.5.9-4.49.2-1.11.18-.96.1-.63.06-.39.08-.54.07-.65.03-.31c.21-2.48-.84-4.66-1.71-4.8h-.09z" transform="translate(355.04 371.258)"/><path fill="url(#f)" fill-rule="nonzero" d="M37.64 58.87c1.45 0 2.88 2.4 2.64 5.26-.1.97-.3 2.17-.56 3.48l-.23 1.13-.61 2.9-.23 1.14c-.26 1.3-.48 2.5-.58 3.46-.28 2.76-1.12 5.11-2.5 5.26H14.98c-1.27 0-2.1-1.85-2.5-4.21l-.07-.52-.06-.53c-.09-.82-.26-1.82-.47-2.9l-.22-1.12-.73-3.48a44.08 44.08 0 01-.78-4.61c-.24-2.77 1.1-5.12 2.52-5.26H37.64z" transform="translate(355.04 371.258)"/><path fill="url(#g)" fill-rule="nonzero" d="M37.64 59.87H12.79c-.8 0-1.84 1.95-1.64 4.17l.03.3.05.47.08.51.05.37.1.6.18.93.22 1.1.89 4.25.22 1.13.14.76.1.65.08.6.05.43c.27 2.57 1 4.25 1.58 4.36H35.43c.58 0 1.33-1.58 1.62-4.09l.1-.84.1-.74.11-.68.15-.77.23-1.17.82-3.9.27-1.35.16-.88.1-.58.06-.36.06-.5.04-.3.03-.3c.18-2.15-.78-4.04-1.56-4.17h-.08z" transform="translate(355.04 371.258)"/><path fill="url(#h)" fill-rule="nonzero" d="M37.1 23.1c1.35 0 2.7 2.32 2.46 5.08-.06.64-.17 1.4-.3 2.21l-.16.84-.25 1.31-.6 2.97-.26 1.31c-.03.14-.06.29-.08.42l-.15.82a30.3 30.3 0 00-.21 1.47l-.04.33c-.03.25-.06.5-.1.76l-.07.49c-.35 2.09-1.08 3.7-2.15 3.82H15.35c-1.3 0-2.11-2.18-2.41-4.82l-.03-.25c-.06-.64-.18-1.39-.32-2.2l-.16-.84-.17-.86-.6-2.97-.18-.9-.16-.86-.15-.84c-.14-.81-.25-1.57-.3-2.2-.23-2.69 1.01-4.95 2.33-5.08H37.1z" transform="translate(355.04 371.258)"/><path fill="url(#i)" fill-rule="nonzero" d="M37.1 24.1H13.32c-.69 0-1.64 1.86-1.46 4l.04.33.04.36.08.58.06.43.12.7.2 1.1.33 1.64.5 2.5.22 1.1.14.72.13.82.09.55.06.5.03.33c.1 1 .28 1.86.48 2.53l.1.35c.28.77.58 1.23.82 1.29h19.77c.44 0 1.1-1.4 1.38-3.64l.06-.53.04-.32.04-.34.08-.53.09-.59.12-.66.24-1.3.33-1.6.38-1.88.13-.65.21-1.14.17-.96.07-.42.05-.4.05-.36.04-.35c0-.05 0-.11.01-.16.18-2.06-.7-3.87-1.38-4h-.08z" transform="translate(355.04 371.258)"/><path fill="#14272B" d="M378.44 532.16c0-4.97 1.73-9.01 3.87-9.01 1.65 0 3.07 2.45 3.6 5.88-.03-6.51-2.3-11.78-5.1-11.78-2.82 0-5.1 5.35-5.1 11.92 0 6.6 2.28 11.93 5.1 11.93l.7-.12c-1.75-.86-3.07-4.48-3.07-8.82z"/><path fill="#455A64" d="M361.96 547.24h-.19l2.98-155.4c-.62-3-3.66-8.54-4.19-11.57-.48-2.74 2.25-5.03 5.03-5.03h38.26l.32.03a5.27 5.27 0 00-4.79-3.01h-38.26c-2.78 0-5.5 2.3-5.02 5.03.52 3.03 3.56 8.57 4.19 11.58l-2.99 155.39h.19c0 2.95 2.5 5.58 6.43 7.32a6.26 6.26 0 01-1.96-4.34z"/></g><g fill-rule="nonzero"><path fill="#000" d="M433.28 273.9h.08-.1c.44.02 1.2-.18 1.78-.45l.16-.08.25-.1.03-.02v-.01l.04.02.4.16.2.07c1.04.33 1.95.27 2.56-.32l.05-.05.08.01.74.14c.15.03.31.07.47.12l.32.1.28.1c.13.05.23.1.29.14.69.42 1.1.53 1.78.42l.34-.06c.21-.03.5-.04.78-.04h.34c.06 0 .12 0 .17 0l.32.03.28.02c.21.02.36.05.4.07l.1.06.08.04c.4.19.98.3 1.48.33.9.05 1.38-.08 1.94-.55l.12-.1.1-.07c.05-.04.11-.08.17-.11l.04-.02.08.03c.1.03.19.05.3.07l.25.04.39.05.43.03.46.03.36.03.25.04.04.03c.8.54 2.36.02 2.9-.83l.16-.01.2-.01c.15 0 .23.04.48.18l.1.06c.31.16.62.25 1.01.32l.31.04.2.03.4.03.78.05.55.05.32.03.07.05.19.1.13.05.37.15.37.13.38.13.37.1.36.1.38.08.1.02.15.02c.02 0 .04 0 .06 0l.14.02c.16.02.41.08.54.13.73.27 1.61-.06 2.3-.6l.12-.1c.26-.23.45-.48.55-.77l.04-.14h.16c.5 0 .9-.1 1.46-.29l.42-.15.28-.09c.33-.1.59-.13 1.19-.1l.66.03.45.03.34.04c.19.02.29.05.36.1l.2.12.16.08c1.5.77 3.52.5 4.1-.8l.05-.11.75.01.53.02.4.02h.05l.04.04c.62.48 1.79.58 2.46.32l.15-.07c.5-.23.8-.6.88-1v-.04l.16.01.44.04.5.04.48.03.76.05.33.03.3.03.35.04h.06l.01.02.14.06c.58.23 1.68.28 2.3.05l.1-.04h.33l.1.01h.06l.08.07c.29.18.68.3 1.27.4l.4.07.4.06.4.04.52.04.15.02.18.03c.03 0 .05 0 .05 0l.08.05.08.05c.86.43 2.71.54 3.5.07h-.02c.04 0 .08-.01.12-.01h.36c.4-.02.8-.1 1.13-.25l.03-.01.03.06c.53 1.23 2.29 1.51 3.23.71l.09-.08.05.02c.23.06.47.1.73.1l.17.01c.5 0 .91-.14 1.23-.44l.05-.05.13-.02.4-.02h1.08l.47.03.12.01.06.02.17.04.35.07.45.07.9.13.61.07.63.07.6.04.4.02.37.01h.34l.19-.02c.18 0 .33-.03.47-.06l.13-.04 3.04 1.17 1.64-1.8.32-.13.62-.27.25-.12.38-.33.05-.35c.03-.16.02-.27 0-.42l-.04-.2-.05-.2h.05l.37-.13a.16.16 0 00-.04.02H516.51c.8-.03 1.4-.47 1.43-1.35v-.05l.06-.15.07-.16 1.09.04-.09-1.11c-.02-.38.05-.58.3-.89l.24-.3c.28-.35.45-.67.48-1.07l.01-.33v-1.03l-.02-.18.56-.43.23-.2.2-.17.12-.11c.02-.02.03-.04.05-.05l.09-.12.03-.06.07-.12.02-.06c.07-.16.08-.22.02-.47l-.03-.13h.04l-.04-.15-.05-.16c-.1-.3-.28-.55-.51-.76l-.1-.08-.05.07c.18-.22.27-.38.31-.64l.03-.15c.04-.4.01-.79-.14-1.13l.08-.05c.16-.12.27-.2.38-.31l.08-.1c.21-.24.34-.52.26-.93l-.02-.1h.15c1.11-.01 1.73-.94 1.74-1.97v-.2l-.02-.16a1.2 1.2 0 00-.5-.89l-.05-.03v-.03c.07-.31 0-.64-.23-.96l-.03-.05-.03-.04c0 .01 0 .01 0 0l-.08-.3-.26-.89-.08-.24.6-.08.33-.05.2-.04c.17-.04.28-.08.4-.13.29-.14.51-.34.6-.74.13-.51-.1-.89-.44-1.12a1.68 1.68 0 00-.42-.2l-.14-.06-.19-.07.08-.15c.07-.15.13-.3.16-.46l.03-.14h.07a1.76 1.76 0 001.41-.7l.1-.12c.66-.87.34-1.77-.51-2.46l-.05-.03.03-.08.06-.14.05-.14.04-.15c.22-.77-.07-1.32-.66-1.66l-.11-.06.06-.06.19-.15.42-.33.16-.13.1-.1c.17-.17.27-.31.32-.54l.01-.07.02-.02c.09-.15.14-.31.17-.5l.02-.14a1 1 0 00-.07-.46l-.06-.11.1-.07c.24-.2.4-.36.52-.56l.06-.11c.17-.39.11-.8-.12-1.09l-.03-.03.04-.07c.14-.26.15-.6-.08-.98l-.07-.1a.87.87 0 00-.2-.2l-.08-.04.11-.38c.01-.04.03-.08.04-.13l-.15-.37-.06-.15a1.04 1.04 0 00-.03-.06l-.02-.03.03-.06c.01-.04.03-.08.04-.12.3-.91-.37-1.35-1.02-1.38l-.06-.02a2.87 2.87 0 01-.15-.04l-.1-.04.02-.03c.08-.09.15-.2.2-.33v-.05l.05-.02c.68-.38.9-1.16.53-2.1l-.11-.28a.83.83 0 01-.03-.23l-.01-.24-.02-.19c-.03-.3-.11-.57-.26-.85l-.1-.15.04-.03c.15-.2.25-.45.27-.76v-.32l.08-.07c.66-.73.42-1.74-.3-2.31l-.02-.03c.03-.12.03-.23.03-.35v-.03l.09-.05c.05-.02.1-.05.14-.08l.14-.11c.7-.58.78-1.5.28-2.11l.04-.09c.37-.79.14-1.52-.62-1.95l-.04-.02v-.04a1.04 1.04 0 00-.07-.24l.12-.05c.11-.04.19-.07.27-.12.2-.13.38-.3.48-.58.1-.29.07-.57-.05-.8v-.34l-.15-.29a.66.66 0 00-.12-.18l-.08-.05-.15-.12-.18-.06-.14-.04-.16-.03-.27-.05-1.19-.16c.04-.1.08-.2.11-.3.03-.1.23-.25.27-.25.63.01 1.04-.42 1.1-.93.03-.2 0-.36-.04-.55l-.06-.21-.1-.3-.31-.76-.18-.47-.1-.3-.07-.23a4 4 0 01-.03-.1l-.04-.17a.54.54 0 010-.13l.01-.16c.06-.75-.37-1.19-1.03-1.46l-.05-.02.02-.02c.1-.22.16-.47.16-.71v-.1h.02c.4-.11.79-.38 1.1-.7l.1-.11c.42-.55.33-1.11.02-1.68l-.1-.18-.03-.13-.04-.1a1.3 1.3 0 00-.21-.32l-.07-.07 2.51.9-2.6-2.72.02-.04c.14-.46-.07-.99-.48-1.35l-.02-.01v-.06l-.03-.15a1.24 1.24 0 00-.33-.6l-.06-.05-.03-.19-.04-.18a2.19 2.19 0 00-.2-.5l-.02-.02.17-.07c.12-.06.23-.12.34-.2l1.69-1.17-4.53-1.4.05-.09c.14-.3.17-.66.12-1.05l-.02-.43v-.27c0-.08 0-.15 0-.2l.02-.17c0-.16 0-.3-.03-.44l-.01-.05.1-.05c.18-.1.34-.21.47-.3.4-.28.63-.55.65-1.04v-.13c-.02-.3-.16-.55-.36-.73l-.04-.03.05-.07c.3-.48.39-1.2.32-1.98-.04-.5-.16-.98-.35-1.34l-.07-.12c-.06-.1-.13-.19-.2-.27l-.13-.12.1-.11c.16-.2.27-.41.32-.67l.02-.15c.05-.64-.25-1.02-.78-1.24l-.07-.03c.03-.42-.22-.8-.63-1.11l-.2-.14c-.5-.33-.9-.41-1.57-.35l-.56.07-.35.02H516.18h.03l-.17-.03a3.2 3.2 0 00-1.69.35l-.12.06c-.17.1-.3.2-.41.33l-.07.1-.14-.02a9.05 9.05 0 00-1.63.1l-.41.07-.43.08-.4.09-.37.1-.2.05-.23.07-.02-.02c-.44-.37-1.12-.44-1.97-.3l-.24.03v-.04a1.53 1.53 0 00-.61-1.07c-.57-.39-1.65-.48-2.53-.3l-.3.07a2.34 2.34 0 00-.86-.23l-.33-.04-.2-.02-.46-.03-.5-.01-.51-.01h-.76l-.6.03-.48.03-.34.04c-.16.02-.3.05-.4.08l-.2.05-.15.03c-.02 0-.04 0-.07 0l-.27.03c-.2.02-.43.02-.65.02l-.26-.01h-.05l-.03-.03c-.1-.07-.2-.13-.33-.2l-.22-.1-.15-.07-.32-.12-.18-.07-.34-.11-.35-.1c-.35-.1-.63-.15-.86-.17h-.14c-.4.03-1 .2-1.58.43l-.14.06v-.02c-.1-.6-.8-1.01-1.8-1.06l-.2-.01c-.6 0-1.05.15-1.57.5l-.14.11-.03-.02c-.67-.38-1.74-.47-2.41-.1l-.1.07h-.04c-.07.01-.15.01-.24.01h-.31l-.4-.02h-.57a2.7 2.7 0 00-1.57.49l-.1.07-.14-.07a3.97 3.97 0 00-2.07-.41h-.78c-.3-.01-.43-.04-.66-.16l-.23-.12-.24-.14a2.69 2.69 0 00-1.53-.35l-.35.02-.68.05-.53.06-.49.06-.59.09-.16.02-.16.01c-.04 0-.06 0-.04.02l-.19-.07-.17-.05a8.3 8.3 0 00-3.57.02l-.03.01-.07.03-.07.02h-.16l-.21.01h-.26l-.35-.01c-.88-.03-1.4.06-1.94.4-.38.23-1.79.24-2.5-.04a5.92 5.92 0 00-1.97-.38l-.52-.02-2.44-.06-.02.4-.15-.1a7.18 7.18 0 00-1.72-.75 1.5 1.5 0 00-.76 0l-.24.04-.34.09-.35.1-.78.23-.15.05-.2-.01h-.96l-.42.02-.2.01-.14.02-.93.15v.04l-.17-.11a.5.5 0 00-.03-.02l-.08-.03a1.32 1.32 0 00-.23-.07l-.2-.03-.31-.04-.38-.03-.64-.03-1.2-.06-.9-.02-.57-.01h-.4l-.32.02-.7.25-.04.2-.2.1a3.4 3.4 0 01-.2.08l-.14.05h.06a5.8 5.8 0 00-1.46.21l-.42.1-.42.13-.31.1-.24.1c-.17.08-.29.14-.4.22l-.05.02-.07.02-.22.05c-.04 0-.08.02-.12.02l-.28.03v-.01c-.17-.97-1.36-1.65-3-1.85-.83-.1-1.48-.1-2.06.02l-.48.1-.54.13-.49.1-.43.08-.38.06a8 8 0 01-.6.06l-.26.01c-.16 0-.32 0-.47-.02l-.16-.03-.22-.02c-.55-.05-.95.03-1.4.26l-.14.08.09.06c-.9-.57-2.43-.6-3.19.04l-.11.11c-.28.31-.45.73-.47 1.14v.12l-.18.09-.13.06-.11.05-.22.08-.4.14-.03.02-.16-.14-.11-.1-.05-.05c-.85-.88-1.73-1.08-2.86-.7l-.13.05c-.3.12-.55.3-.72.53l-.05.09-.18.01-.16.01h-.19l-.24.03c-.08.02-.17.03-.25.05l-.17.05.03.04c-.41-.54-.93-.67-1.8-.6h-.1l-.05-.05a2.06 2.06 0 00-1.06-.26h-.13c-.75-.02-1.34.18-1.47.82l-.14.07-.1-.08a5.01 5.01 0 00-.27-.2l-.12-.08-.19-.12a3.8 3.8 0 00-.92-.4l-.11-.03-.1-.06c-.08-.06-.17-.1-.27-.13l-.2-.06-.13-.03-.25-.06-.28-.05-.3-.05-.55-.06-.3-.02c-.48-.02-.83.03-1.17.21l-.14.09-.2.03-.18.02-.22.02-.38.02-.28.03-.24.03-.19.04c-.02 0-.05.02-.08.02l-.12.04-.07.04c-.02 0-.03.01-.06.02h-.1l-.24-.02-.22-.03c-.06 0-.1 0-.06.02l-.11-.07-.06-.03-.12-.05-.12-.03a1.46 1.46 0 00-.85.06l-.09.04-.01-.05c-.4-1.4-2.44-1.39-3.45-.47l-.05.04a.13.13 0 01-.08.03h-.36a8.69 8.69 0 01-1.35-.23l-.4-.1-.3-.08a2.16 2.16 0 00-1.37 0l-.2.08c-.17.07-.4.12-.48.11h-.16l-.16.02a2 2 0 00-.6.16l-.12.06-.17-.13c-.4-.3-.75-.48-1.1-.5-.18 0-.3.02-.48.07l-.2.06-.24.1-.26.1-.42.16-.4.17-.2-.2-.05-.06-.01-.03-.1-.15c-.3-.44-.58-.5-1.22-.54h-.29c-.3 0-.6 0-.89.03l-.33.04c-.21.03-.39.06-.55.1l-.2.05a8 8 0 00-1.29.45l-.1.05-.22-.14c-.82-.49-1.42-.52-2.35-.14l-.35.15-.37.17-.15.08c-.69.39-1.18.92-1.36 1.47l-.03.1-.17.02c-.36.07-.66.19-.97.39l-.07.04-.55-.28v-.08a1.1 1.1 0 00-.9-.95c-.22-.04-.4-.03-.64 0l-.52.1-.12-.02h-.19c-.58 0-1.27.18-1.84.45l-.04.02v-.03c-.12-.36-.42-.64-.85-.85l-.32-.15c-.65-.28-1.01-.28-1.77-.05l-.17.05c-.7.26-1.14.68-1.25 1.38v.03c.01-.09 0-.09-.11-.04l-.24.12-.27.12-.15-.1c-.7-.46-1.54-.63-2.2-.34l-.14.07H370.68l-.22.02-.08.02-.1-.1a4.08 4.08 0 00-2.26-.92 5.6 5.6 0 00-2.38.7l-.2.1c-.19.11-.35.23-.5.35l-.13.12-.13-.05a1.9 1.9 0 00-1.5.27l-.25.17v-.01l-.04-.02-.16-.06c-.1-.03-.21-.05-.32-.06h-.17l-.03-.03a1.64 1.64 0 00-.12-.09l-.13-.07c-.9-.48-2.4-.26-3.23.44l-.12.1-.07-.04a2.63 2.63 0 00-1.93.04h-.11c-.05 0-.11 0-.18 0l-.04-.01-.08-.07a1.23 1.23 0 00-.36-.2l-.1-.03-.04-.1c-.15-.3-.35-.44-.72-.58l-.16-.05c-.2-.53-.74-.8-1.49-.87l-.14-.02H353c-.67-.04-1.1.16-1.55.66l-.06.06h-.18l-.25.02-.41.04-.23.04-.43.07-.42.08-.19.04-.31.07-.24.07c-.12.04-.22.08-.3.12l-.22.1c-.15.08-.36.16-.6.24l-.36.11-.38.11c-.44.12-.84.2-1.01.2H344.99l-.18-.02-.18-.02-.32-.06-.17-.03c-.9-.12-1.9.06-2.5.56l-.06.05-.17-.03a6.4 6.4 0 00-.94-.06h-.66l-.2-.29-1.21-.1-.13-.08a2.22 2.22 0 00-.99-.26.7.7 0 01-.12-.02l-.2-.06a5.67 5.67 0 01-.1-.04l-.27-.1-.26-.11a5.9 5.9 0 01-.14-.06l-.3-.15-.36-.16-.35-.14-.28-.1a3.28 3.28 0 00-.61-.17l-.21-.02h-.03l-.02-.02-.12-.08c-1.15-.68-3.24.31-3.8 1.6l-.03.07-.09-.01a1.6 1.6 0 01-.34-.11l-.05-.03v.02c-.04-1-1.12-1.87-2.25-2.08-.47-.09-1-.04-1.5.1l-.36.12-.16.04-.08.02h-.1l.02.1c-.06-.74-.52-1.15-1.22-1.26l-.23-.03-.3-.02-.35-.01h-.2c-.63-.01-1.05.08-1.41.34l-.1.08-.1.02c-.03.01-.06.02-.1.02a6.54 6.54 0 01-1.61.06l-.3-.02a3.06 3.06 0 01-.55-.1l-.23-.08a8.2 8.2 0 00-1.9-.31 3.93 3.93 0 00-2.44.43l-.39.2-.1.05-.2.08-.14.05-.11.03s-.01 0-.01 0l-.18-.02h-.21c-.43 0-.88.1-1.25.26l-.11.04-.02-.07c-.14-.6-.68-.84-1.46-.9l-.3-.03h-.17l-.27-.01c-.8 0-1.32.3-1.55.98H307.59a.7.7 0 01-.43-.28l-.12-.14c-.5-.55-.99-.8-1.7-.84h-.2c-1.22 0-2.53.56-3.13 1.41l-.05.07h-.37c-.14 0-.26.01-.38.03l-.14.03v-.02a1.47 1.47 0 00-.66-.72l-.02-.01-.02.13c.16-.97-.49-1.47-1.4-1.52h-.12c-.29 0-.56.05-.79.15l-.08.04-.01-.01c-.4-.24-.81-.28-1.5-.23l-.2.02c-.2.02-.38.04-.55.08l-.17.05-.02-.03a1.46 1.46 0 00-.55-.32 2.7 2.7 0 00-.74-.13 2.23 2.23 0 00-1.78.58l-.05.03c-.2.14-1.33.2-1.52.05a2.95 2.95 0 00-1.75-.58l-.37-.02h-.4l-.35-.01h-.35l-.32.02c-.29.02-.5.05-.68.1l-.15.06c-.12.03-.38.09-.55.1l-.16.01-.47.02-.8.02h-.57l-.06-.06-.09-.07a1.5 1.5 0 00-.21-.13l-.15-.07-.13-.05c-.76-.28-1.62-.2-2.06.35l-.09.12-.16.02c-.76.13-1.63.51-2.17.98l-.09.08H277.88l-.55-.03-1.04-.07-1.32-.1-.8-.04-.14-.01-.28-.04-.3-.05c-.02 0-.01.01.03.04-.53-.35-1.05-.33-1.7-.05-.3.12-1.23.11-1.98-.1a2.4 2.4 0 00-1.79.08l-.17.09c-.29.14-.55.3-.75.48l-.07.06h-.45l-.52-.01-.6-.03a3.46 3.46 0 00-1.8.37l-.36.18-.66.34c-.6.31-1 .45-1.38.5l-.38.03c-.64.08-1.38.3-2.02.6l-.34.16-.22.1-.05-.06a4.96 4.96 0 00-3.48-1.14l-.16.02c-.64.08-1.1.32-1.32.81l-.13.02c-.16.03-.27.07-.38.1-.09.05-.18.1-.27.16l-.08.07-.04.04-.06.06-.02.02-.08.05-.2-.09a8.08 8.08 0 00-3.64-.24l-.17.05-.16-.1-.28-.13-.3-.14-.32-.14-.33-.14c-1.9-.73-3.38-.84-4.83-.3l-.97.4-.49.18-.31.1c-.73.26-1.08.7-1.26 1.53l-.06.32-.06.37-.03.19c-.03.3-.03.58.01.84-.48.22-.82.6-1.01 1.16l-.05.17c-.2.8-.08 1.37.42 1.76l.02.02-.02.1c-.02.09-.03.18-.03.28v.07c-.07.58.2.9.6 1.07l.04.02-.05.07c-.17.27-.27.54-.28.84v.03l-.1.02-.14.02-.17.04-.27.18-.09.1c-.19.2-.3.47-.35.73l-.02.1-.03.17c-.04.37 0 .73.19 1.06l.06.1-.77.2 1.03 1.34-.03.03c-.18.16-.32.39-.42.65l-.1.32-.02.04s0 .02 0 .02l-.12.04c-2.14.75-2.37 2.8-.55 4l.07.04-.01.05c-.04.25-.02.29.06.41l.04.08v.02c-.07.15-.1.31-.1.48v.04h.06c-.73.08-1.18.57-1.15 1.21l.02.22V209.7c.01.32.1.57.23.77l.06.08-.12.08c-.58.4-.68 1.04-.56 1.7l.04.17.04.15.06.15c.11.21.16.62.13 1.03l-.02.18-.04.08-.08.16-.08.15-.05.13c-.1.3-.12.57-.07.81l.02.07.04-.07a1.8 1.8 0 00-.36.84l-.01.14c-.04.46.1.9.4 1.21l.04.04-.01.06c0 .05-.01.1-.01.16v.09l-.04.03a1.4 1.4 0 00-.31.47l-.07.18-.04.14c-.19.76.16 1.22.77 1.46l.06.02-.02.01c-.34.19-.57.46-.64.89.01-.06.01-.07 0-.06l-.22.41-.12.25-.06.12c-.33.83-.26 1.64.72 1.9h.02l.06.12c.04.08.09.16.14.22l.1.1-.02.01c-.7.2-1.03.75-.9 1.54l.04.33-.01.14c-.03.27 0 .48.09.65l.05.08-2.28 1.14 2.22 1.34.2.12.21.1-.05.05c-.06.05-.11.1-.16.16l-.08.1-.19.05c-1.53.38-1.47 1.85-.1 2.7l.18.1c.22.13.41.23.6.3-.04.15-.06.28-.06.42v.05l-.08.03c-.52.15-.83.45-1.04 1l-.05.14c-.3 1.05.36 1.6 1.5 1.8l.16.03v.02c0 .05-.01.1-.01.14v.05l-.04.03c-.67.5-.94 1.44-.5 2.06l.07.09-.12.03c-.4.11-.74.3-.97.59-.72.85-.23 1.77.72 2.23l.25.12.11.04v.13c-.02.16-.02.33-.01.51 0 .33.05.61.15.86l.05.1.06.11.07-.1c-.17.22-.28.49-.36.8-.06.23-.1.48-.1.7v.14c0 .09.02.18.04.27l.02.07-.03.05a2.22 2.22 0 00-.24 1.5l.05.16.02.06c0-.03-.01-.02-.02 0l-.04.17c0 .02 0 .03-.01.05l-.03.16c-.06.31-.07.6-.03.87l.02.11-.08.14c-.09.15-.16.32-.21.48l-.04.1-.05.2-.02.16c-.08.72.27 1.14.84 1.33l.07.02v.02c-.04.15-.04.3-.02.46l.02.14c.06.27.19.5.38.68l.09.08c-.07.38 0 .76.18 1.1l.07.14c.17.3.39.51.68.65l.06.02-.03.05c-.2.3-.3.64-.34 1.07v.51c.06.58.34.94.8 1.12l.06.02c-.02.27-.01.5.04.73l.03.1h-.02l-.2.13-.1.08c-.13.1-.24.22-.32.34l-.05.1-.05.01c-.36.15-.65.42-.94.84l-.08.12-.08.13c-.4.67-.4 1.31.18 1.77l.1.08.02.04-.02.02c-.08.06-.16.12-.22.2l-.1.1c-.47.62-.2 1.31.35 1.69l.04.03.02.1c.09.3.27.54.53.72l.07.04.01.08c.15.75 1.14 1.08 2.25 1.14.06 0 .4.14.6.28l.3.2.16.08v.19c-.08.13-.13.27-.18.42l-.02.07-.06.01-.41.08c-1.18.2-1.77.49-1.6 1.5l.03.14c.07.22.2.4.36.55l.08.07-.01.02c-.18.2-.27.42-.28.73v.15l.02.12-.04.07c-.16.3-.18.64.04 1.02.16.3.35.42.7.6l.13.05.18.08.11.04.02.02c.15.29.43.55.82.82l.2.14c-.04.1-.07.2-.09.3-.17 1.02.46 1.3 1.51 1.45l.34.03.2.02.3.03.09.01c.05.01.09.02.12.03l.09.09c.39.38 1 .61 1.91.82l.59.13.3.06c.49.08.81.08 1.2 0l.23-.07.32-.1.32-.12.21-.1c.06-.02.1-.05.15-.08l.1-.07.05-.03.08-.07h-.03c.12-.03.28-.07.43-.1l.23-.03H248.68c.26.14.6.23 1 .3l.15.03.04.04c.26.2.62.33 1.06.43l.1.04.19.07c.03 0 .06.02.1.04l.15.07-.01.09c-.03.39.16.78.55 1.04.46.31.96.33 1.83.16l.34-.06.28-.07.26-.06.23-.07c.14-.05.23-.09.32-.13l.05-.03a3.54 3.54 0 01.86.17l.25.1.15.05c1.11.35 2.13-.07 2.45-1.1l.02-.06h.02c.31.1.66.08 1.05-.01l.3-.08.35-.12.39-.15.23-.09c.03-.01.06-.03.1-.04l.23-.12.15-.08c.4-.25.66-.53.78-.82l.03-.06.11.12a3.63 3.63 0 002.71.94c.36-.04.9-.2 1.26-.4.44-.23.63-.37.79-.73l.05-.15h.14l.35.02.56.03v.01c.15.27.41.48.73.61.42.18.95.21 1.5.13l.13-.02c.58-.1.9-.21 1.16-.58l.08-.13c.1-.16.13-.34.13-.51v-.1l.27.09.2.04c.33.06.63.06.94 0l.28-.07.04.09c.23.37.66.54 1.22.65.9.13 1.34-.04 2.03-.7l.1-.11.1-.1c.3-.35.52-.7.55-1.03v-.06l.1.01c.2.03.44.03.71.03l1.58-.05.92-.02.4-.02.4-.03.31-.04c.33-.05.57-.1.76-.19.14-.05.02-.05.12-.01l.26.1c.4.15.94.3 1.37.34l.3.03h.01c.32.31.8.45 1.3.47l.2.02c.44.06 1.04.27 1.4.51.34.22.72.33 1.24.4l.35.05.21.01.45.03.48.02c.96.02 1.44-.07 2.23-.38l.38-.16.16-.07c.38-.2.64-.45.77-.74l.03-.1h.06c.4.04.63.13 1.13.43l.38.23.21.12.42.23.42.21.53.25.2.09.26.1.2.09-.07-.1c.3.42.64.49 1.26.52h.15c.79 0 1.77-.34 2.3-.9l.06-.07h.16l.11.02.23.02.09.01.07.01.04.03c.6.36 1.74.34 2.8.07l.25-.06.16-.05c.73-.24 1.08-.67 1.15-1.44l.01-.13.14-.03.13-.03.07-.02h.02c.12.1.26.17.42.21l.15.04.2.03.31.03.53.03 1.16.04h.2c1.45 0 2.5-.27 2.87-.98l.03-.06.08.02.13.05.15.07.04.1c.35.77 1.52 1.32 2.49 1.37l.18.01c.3 0 .55-.02.78-.1l.1-.03.07.04c.24.1.5.17.76.18h.36c.64-.07 1.05-.47 1.14-1.05v-.03l.05.1c.09.16.21.32.36.46l.08.09c.77.72 1.7.74 2.79.27l.2-.1.19-.09.12-.07c.2-.13.35-.27.44-.45l.02-.05.23.01.56.03.5.04.4.03.36.04.66.07.42.06.2.03-.05-.03c.1.09.21.16.34.24.19.1.42.2.68.3l.32.12c.53.17 1.03.29 1.41.3a2.7 2.7 0 001.5-.33l.15-.1c.1-.05.71-.02 1.51.23l.17.04c.86.22 1.8.22 2.52-.05l.06-.02.09.06c.3.2.67.33 1.1.35l.18.01c.31 0 .6-.02.83-.1h.02l-.05-.01c.06 0 .13.02.2.04l.33.1c1.03.33 1.73.15 2.58-.6l.28-.25c.04-.04.07-.05.1-.05h.05c.45.02.98-.04 1.3-.19h.02c-.05.01-.06.02-.02.03l.08.03.13.04c.4.1.95.19 1.38.23l.37.03c.22.02.53.1.7.17l.64.29.54.22.43.17.55.19.4.12.14.04.23.05c.07.01.13.02.18.03l.14.01h.14c.85 0 2.02-.52 2.43-1.23l.03-.07.16-.02.3-.03c.03 0 .07 0 .11 0l.35-.01h.4l.25.03h.08l.04.06c.7.83 1.98 1.21 3.05.95l.1-.02.1.03c.25.07.57.1.94.13l.3.02h.98l.46-.02.77-.04h.3l.28-.01h.42l.05.03c.8.32 2.12.3 2.73-.24l.12-.11.1-.07.21-.11.1-.05.27-.13.31-.13.36-.15.37-.14c.56-.19.94-.14 1.57.25l.56.35.21.13.22.1c.18.1.33.15.5.2l.23.07.28.06.3.05.33.05.56.07 1.22.12.48.03.45.03.43.02h.66c.04 0 .08 0 .12 0l.32-.02.3-.02.3-.05.13-.03c.23-.05.42-.12.58-.22l.02-.02.32.01c.41 0 .87-.06 1.2-.15l.28-.08a.46.46 0 01.22 0l.15.03.23.06c.65.17 1.09.2 1.55.11l.17-.04c.07-.02.17-.04.3-.06l.26-.04.3-.04c.05 0 .1 0 .16 0a7 7 0 002.13-.65l.4-.2.22-.12.11-.07.07-.04-.06-.04c.87.66 1.54.7 2.53.2l.33-.17c.22-.1.46-.15.78-.14a5.05 5.05 0 003.28-.94l.14-.14s0 0 .02 0h.29c.53.02 1.01-.04 1.39-.17l.12-.04c.35-.15.64-.37.79-.67v-.02l.04.01a2 2 0 00.34.06c.26.03.57 0 .93-.05l.33-.06.41-.09c.66-.12 1.2-.06 1.36.05l.18.13.18.1c.17.08.35.15.53.2l.03.01.04.1c.43.9 1.91 1.1 2.87.62l.2-.12.07.02c.04 0 .1.03.16.06l.22.14c.3.15.6.24.89.28l.27.03c.03.01.09.02.15.04l.18.07.2.08c.16.07.31.11.48.15l.3.06.37.05.5.06.56.04.47.02h.73c.55-.01.94-.1 1.33-.28l.16-.08c.04-.02.1-.04.14-.07l.12-.07.2.07c.2.07.42.13.63.16l.14.02v.02c.2.5.64.92 1.16 1.15.63.28 1 .34 1.72.25l.35-.05.34-.06.16-.04c.62-.15 1.05-.39 1.2-.86l.03-.11h.06c.09-.01.19-.01.3 0h.24c.09.09.17.15.28.22l.24.14.3.16.34.15.35.16.36.14.36.14.18.06.31.1c.28.09.5.13.69.14h.04l.13.04.23.06.1.04.24.08.19.07c.66.25 1.07.26 1.75.1l.27-.08c.54-.15.88-.37.98-.96.07-.43-.04-.7-.32-1.12l-.17-.23-.35-.5-.07-.12-.05-.1h.16l.24.04.28.05.56.12.6.14.45.12.2.05.35.1.11.05c.02 0 .03 0 .04.01l.16.06c.1.03.21.06.32.07h.02v.02c.13.35.42.64.85.88l.16.1c.18.09.33.13.53.18l.28.06.4.06.99.15.12.03.28.08.14.05.04.02a1.6 1.6 0 001.5.06l.1-.02h.74c.36 0 .65-.03.9-.14l.13-.06.15-.03.26-.04.25-.04.26-.02.27-.04.26-.04.23-.05.19-.06c.05-.01.1-.03.15-.05l.09-.04.06-.04z"/><path fill="url(#j)" d="M225.77 2.37c1.14.35 1.77.71 2.1 1.2l.07.1c.1.18.36.33.55.34.3.02.4-.08.41-.44l.02-.69 1.44.04.5.02c.77.04 1.23.14 1.65.3 1 .4 2.71.38 3.41-.03.35-.22.68-.28 1.37-.25h.2c.56.03 1.04 0 1.29-.1l.07-.03c.36-.2 2.36-.16 3.04.04l.1.04c.19.08.53.08.93.03l.57-.09.47-.06.5-.05.66-.05.32-.02c.44-.01.65.04 1 .22l.27.15.25.14c.36.17.62.24 1.1.26H248.62c.96-.02 1.32.04 1.84.3l.66.33.57-.38a1.8 1.8 0 011.24-.34l.33.01.2.01c.74.04 1.15 0 1.3-.1l.05-.04c.24-.29 1.32-.18 1.66.17l.1.1c.16.14.25.13.53-.05l.3-.2c.48-.37.76-.46 1.3-.44.9.05 1.01.2.53.65-.37.31-.36.4-.09.82l.13.17c.2.24.27.23.42.05a6.4 6.4 0 012.65-1.09c.16.01.39.06.64.13l.32.09.32.1.15.06.3.11.1.05.2.09c.1.06.18.1.21.14l.01.03c0 .06.1.1.28.13l.2.03h.12l.28.02c.25 0 .52 0 .77-.02l.3-.03c.13-.02.26-.04.37-.07l.1-.03c.08-.02.2-.05.33-.07l.3-.03.45-.04.57-.02h1.23l.47.02.44.03.17.01.31.04c.24.03.42.07.5.11.25.14.46.15.84.07.67-.17 1.59-.1 1.92.12.31.2.22 1.08-.12 1.06-.32-.02-.38.35-.1.47.04.02.16.02.33 0l.2-.03.29-.05.15-.04.15-.04c1.24-.32 1.92-.22 2 .29v.09c0 .18.12.18.24.13l.1-.06.05-.04.08-.06c.07-.1.34-.2.7-.3l.34-.1.38-.08.39-.07.4-.06a8.23 8.23 0 011.43-.1l.14.01.31.03c.07 0 .11 0 .18-.03l.25-.1c.32-.18-.1-.27.35-.48.42-.2.83-.3 1.08-.27l.09.02c.05.01.13.02.23.02h.35l.32-.01.16-.02.47-.05c.46-.05.64 0 .9.17l.09.06c.32.21.37.31.19.5l-.21.18c-.27.26-.21.37.26.46l.25.05c.54.1.7.2.66.44-.03.17-.33.4-.71.59l-.26.11-.23.11c-.07.04-.14.08-.2.11l-.15.1-.07.05-.02.03-.01.02c0 .02-.03.05-.07.08l-.1.07-.18.1a4 4 0 01-.21.12l-.42.18-.14.07-.1.06c-.12.07-.12.11-.01.14l.1.02.15.01.3.01h.27c.6 0 1.2-.12 1.64-.33.82-.38 1.08 2.73.25 2.72H286.86l-.2.01c-.3.03-.38.1-.4.24-.03.16.1.27.39.33l.11.01c.31.05.61.17.67.29.04.1.13.16.23.2l.17.1c.17.08.25.16-.1.41a6.5 6.5 0 01-1.05.58l-.43.19-.1.04-.17.09c-.29.15-.27.24.02.28l.18.02h.1c.49.03.55.1.5.54-.02.28 0 .78.02 1.1.04.39-.02.61-.24.76l-.1.05c-.28.16-.32.23-.15.46l.13.16.35.39 3.1.95c-.34.24-.73.27-1.05.27l-.22-.02h-.2c-.16-.02-.25 0-.23.1.05.13.14.27.27.42l.26.31c.22.27.44.56.5.9-.37.02-.42.1-.33.2l.07.08.17.12.2.13.12.1c.11.1.2.2.22.3v.04c-.03.16.08.4.23.55l.08.07c.5.38.02.62-.7.38l-.11-.04c-.07-.02-.07 0-.03.03l.16.12.8.53.01.01-.11-.04c-.05-.01-.07 0-.09.02l-.02.05-.03.07-.04.08c-.08.13-.26.31-.7.52l-.41.19-.38.18-.11.07c-.15.09-.14.13-.02.15h.1l.2.02c.15 0 .27.1.37.2l.12.13c.04.04.07.07.1.07l.02-.01c.26-.18 1.4.27 1.5.56v.05c-.01.05.01.11.05.18l.14.25c.12.2.2.43.03.63-.24.24-.6.45-.76.44-.2-.01-.53.1-.77.22l-.16.1c-.22.13-.2.2.04.33.4.23.31.78-.2 1.02-.2.11-.41.3-.43.44-.02.14.12.28.3.35l.55.1.22.05c.39.11.77.3.71.64-.04.28.05.68.19 1.12l.11.33.2.48.28.74.09.24.05.17c.04.15.03.24-.04.23-.5-.02-1.12.43-1.28.97-.1.35-.25.5-.54.57l-.12.01c-.25.02-.2.12-.04.26l.13.1.3.21c.14.11.24.21.23.28 0 0 .02.02.05.03l.15.03.22.03 1.5.2.23.05.15.03.06.02v.01c-.3.12-.33.17-.15.32l.12.1c.17.1.12.15-.04.21l-.23.08-.18.08-.1.05-.23.11-.33.16c-.23.11-.38.22-.37.43.03.22.18.34.5.4l.14.03c.11 0 .11.05.07.1l-.11.12c-.09.1-.16.2 0 .29l.53.24.14.07c.32.18.44.4.08.88l-.22.29c-.21.27-.22.35 0 .43l.15.04c.47.13.52.61.1.9-.1.1-.4.14-.68.12l-.12-.01c-.46-.06-.58-.17-.57-.53-.02-.67-.45-.54-.57.16l-.03.2c-.03.34.05.44.4.55l.23.07c.7.19.84.56.4.99l-.08.08c-.23.2-.17.25.28.34.67.13.95.8.5 1.15-.14.12-.25.49-.23.83 0 .35-.25.43-.52.47l-.29.02c-.26.03-.46.07-.38.34.02.05.08.08.17.1l.16.04c.2.05.45.13.63.38.24.32.29.56.3.8v.24c.01.18.03.36.12.59l.05.14c.37.8.1 1.03-.41 1.09l-.18.01h-.68c-.05 0-.05 0-.03.02l.06.05.46.24.1.06.08.06c.06.05.07.08-.03.09l-1.08-.03.73.57c-.15.5-.12.65.26.83l.2.09c.3.13.68.25.88.29h.08c.2.01.13.11-.04.25l-.14.1-.32.23c-.13.1-.24.2-.3.28-.09.15-.06.22.24.28l.2.03.26.03.3.03c.06.01.07.02.04.02l-.08.01-.63.06-.22.02-.24.04c-.41.06-.78.18-.79.38 0 .12.28.24.66.35l.3.08 1 .25.2.05.11.04c.06.02.08.04.04.06-.18.07-.35.17-.4.24l-.02.04c0 .06-.25.23-.56.4l-.12.06c-.38.18-.68.4-.7.48 0 .08.13.39.6.21l.11-.05c.35-.17.86-.3 1.15-.28.2 0 .07.17-.2.39l-.17.14-.2.14-.23.14-.24.15-.24.14-.23.12-.22.11-.2.09-.17.06h.17l.25.03.26.03.27.03.21.04c.23.06.4.12.39.2-.02.12-.05.16-.13.2l-.13.06c-.24.12-.25.16-.03.17.15 0 .12.08 0 .19l-.13.1-.43.35-.2.15c-.13.11-.25.23-.36.34l-.22.24-.14.18-.14.18c-.2.29-.32.54-.1.55 1.06.05 1.5.35 1.32.9l-.04.11c-.09.24-.18.32-.6.34l-.37.01h-.6l-.2.01-.12.01c-.11.02-.11.05-.04.09l.07.03.16.05.73.2.15.04c1.3.48 1.84 1.2 1.36 1.76-.23.28-.42.35-.95.33l-.61-.02h-.15c-.19.01-.22.06-.16.2l.05.12.07.14c.12.23.07.5-.1.83l-.08.13c-.37.6-.3.9.51 1.25l.28.1.16.07c.34.11.27.2-.01.27l-.16.03-.29.05-1.29.16-.27.04-.25.05c-.32.06-.54.13-.55.23-.03.2.06.31.23.35h.08a.7.7 0 01.55.38l.04.1c.01.02.02.04.03.06l.07.22.26.9c.07.25.14.45.21.57l.05.07c.33.38-.5.97-1.3.92h-.33c-.15 0-.17.05-.09.16l.08.09c.2.24.28.26.55.08.17-.1.48-.14.84-.11l.16.01c.56.06.71.14.73.4v.08c.02.48-.21 1.16-.93 1.07-.36-.05-.65-.05-.92.3-.13.16-.11.42-.07.64l.07.35c.01.08-.12.19-.3.31l-.5.33-.15.11c-.24.19-.39.36-.18.46.52.28.48.84.44 1.11 0 .03-.03.07-.07.12l-.09.1-.29.28-.05.06-.1.12c-.19.23-.25.47.15.6l.12.04c.53.13.68.46.74.66l.04.15c.01.01-.03.05-.1.12l-.16.15-.23.18-.75.58-.19.15-.1.1c-.02.02-.03.04-.03.04.08.01.12.26.14.57l.02.35v.61l-.01.2c0 .23-.11.41-.26.6l-.25.3c-.28.36-.57.81-.51 1.59l-.4-.01-.46-.01H284.79c-.04.02-.04.03 0 .04l.15.03c.34.06.35.2.27.41l-.14.33c-.05.12-.1.26-.12.41v.12c-.02.32-.21.38-.44.39h-.25c-.11 0-.22 0-.31.03l-.35.12a.68.68 0 01-.48-.02l-.27-.1c-.16-.06-.2.13-.17.4l.03.18.02.1.05.25.13.56.03.15c0 .05.01.08 0 .1l-.08.04-.64.27-.33.15-.19.09-.17.09-.14.08c-.2.11-.26.2-.04.22l-.96 1.04-2.88-1.11c0 .15-.27.22-.69.24h-.64l-.37-.02-.58-.05-.6-.06-.6-.07-.88-.13-.43-.07-.3-.05-.17-.04-.03-.01h.15l-.05-.01-.43-.04-.49-.02-.37-.01h-.8l-.38.02c-.37.03-.66.1-.73.2-.13.25-.37.33-.76.31-.31-.02-.64-.1-.7-.17-.2-.25-.54-.18-.68.11-.3.7-1.63.58-1.86-.09l-.02-.1c-.04-.22-.2-.54-.37-.73-.34-.35-.95-.47-.89-.19l.03.06c.15.3-.3.55-.96.55h-.14c-.31-.02-.65.06-.74.17-.22.24-1.93.17-2.44-.08l-.08-.05c-.14-.1-.52-.21-.92-.25l-.48-.04-.37-.03-.38-.06-.37-.06c-.48-.1-.9-.2-1-.33-.14-.17-1.06-.23-1.38-.11l-.07.03c-.2.16-1.35.11-1.65-.04l-.05-.04c-.01-.02-.08-.04-.18-.06l-.19-.03-.38-.05-.31-.03-.35-.03-.77-.05-.46-.03-.48-.03-.42-.04-.38-.04-.86-.12-.2-.02h-.17c-.15 0-.24.01-.28.07-.07.15.02.35.27.5.51.28.5.56-.03.76-.42.16-1.45.01-1.55-.21v-.05c0-.04-.04-.07-.16-.1l-.14-.03-.3-.03-.42-.02-.54-.02-1.59-.02-.08.51c-.15.88-1.77 1.12-2.88.48l-.13-.08a1.91 1.91 0 00-.85-.29l-.38-.04-.47-.03-.68-.04c-.7-.02-1.06.02-1.54.16l-.3.1-.17.06c-.82.3-1.12.36-2.01.3l-.84-.08-.2-.01h-.16c-.18.01-.23.06-.24.15v.07c.02.17.26.32.65.38 1 .16-.73 1.43-1.37 1.19a3.78 3.78 0 00-.82-.2l-.18-.02c-.04 0-.1 0-.16-.02l-.33-.06-.32-.09-.35-.1-.36-.12-.33-.12-.33-.13-.1-.04-.14-.07a.5.5 0 01-.09-.06l-.03-.04-.04-.01-.12-.03-.17-.03-.34-.04-.58-.05-.76-.05-.37-.03-.16-.02-.29-.04c-.3-.05-.52-.12-.7-.22l-.09-.04a1.8 1.8 0 00-1.25-.3l-.35.03c-.37.03-.54.15-.55.38-.01.38-1.42.89-1.56.55-.03-.05-.19-.1-.46-.15l-.25-.03-.4-.04-.44-.02-.4-.04-.34-.04-.22-.03a1.23 1.23 0 01-.28-.08l-.03-.01c-.17-.2-.7 0-1.21.4l-.12.1c-.34.29-.57.36-1.25.32a3.5 3.5 0 01-1.08-.22l-.08-.04c-.37-.25-2.04-.38-3-.23l-.17.03c-.56.1-.73.07-1.26-.26-.33-.21-1.1-.47-1.71-.6l-.77-.14-.2-.03-.16-.01c-.21-.02-.3.02-.4.12l-.16.17c-.3.36-.93.4-1.76.1l-.41-.17c-.31-.11-.47-.12-.82.03l-.27.12-.17.07c-.45.21-1.06.37-1.3.36-.27-.01-.5.03-.51.11 0 .03-.09.07-.22.1l-.19.04-.22.04-.25.03-.28.03-.28.04-.31.05-.25.05-.12.04-.04.02c-.07.07-.4.1-.72.1h-.12c-.32-.02-.67.01-.89.08l-.09.03a.6.6 0 01-.58-.02 3.7 3.7 0 00-.73-.25l-.22-.06-.18-.05.56-.86-.01-.01v-.09l.04-.16-1.4-1.82 1.7-3.17c.03-.14.15-.21.28-.26l.08-.02.23-.07c.11-.04.18-.09.12-.2l-.03-.05-.25-.3a1.1 1.1 0 01-.25-.5l-.01-.1v-.2l-.01-.26v-.28s0-.01.03-.02l.12-.07.24-.1.95-.42.14-.07.02-.02-1.82-1.9.02-.22c.02-.17.05-.3.09-.33l.03-.01s0-.01 0-.02l-.04-.05-.09-.08-.19-.15 1.73-.46-.23-.18-.17-.15a.45.45 0 01-.09-.1v-.02l.04-.15c0-.02 0-.06 0-.1v-.06l-.05-.23c-.03-.22-.04-.46.2-.57l.09-.03.11-.03c.34-.12.67-.31 1-.58.04-.22.06-.48-.07-.63l-.03-.05-.07-.1-.06-.1-.12-.23-.12-.26-.12-.27-.06-.13-.1-.25-.07-.2-.04-.13c-.01-.07-.01-.1.02-.08.24.15.33.16.49-.01l.06-.08.59-.58c.07-.1.07-.14-.03-.15l-.06-.01h-.33c-.76.04-.78-1.03-.5-1.46l.05-.06-.58-.68c.01-.03.03-.07.05-.11l.07-.19.08-.26 2.56.56.07-.22.05-.12c0-.01.01-.03.02-.04.02-.05-.07-.11-.22-.19l-.17-.07-.26-.1-.67-.24-.26-.1c-.04-.02-.06-.04-.06-.04h.02l.08-.01c.17-.04.26-.16.23-.35-.01-.09-.18-.16-.44-.21l-.11-.03-.25-.04-.28-.04.27-1.22-.03-.53c.23-.1.25-.13.14-.14H197.57c-.4 0-.92-.05-1.1-.34-.1-.18.14-.47.44-.74l.19-.17.33-.27.18-.16c.06-.05.1-.1.14-.14l.02-.03.07-.14.05-.12c.05-.12.04-.18-.1-.2h-.2l.06-.77c-.23 0-.25-.2-.21-.47l.01-.09.09-.46c.03-.19.04-.35-.03-.43.21-.52.47-.65.72-.7h.06l.24-.03c.1-.02.18-.04.27-.1l.08-.06.15-.05.73-.2.16-.04.07-.04c.06-.03.07-.05 0-.07h-.04l-.13-.02h-.19l-.6-.01-.36-.01c-.4-.02-.5-.08-.59-.27l-.02-.07-.1-.28c-.12-.47-.04-.84.92-.88.08 0 .08-.06.01-.16l-.04-.05-.12-.14-.17-.16-.44-.34-.12-.1c-.13-.12-.15-.2-.01-.2.2 0 .21-.04.04-.13l-.2-.1c-.08-.04-.1-.08-.12-.2-.02-.09.2-.16.48-.21l.12-.02.26-.04.26-.03-.12-1 .17-.01-.08-.03-.1-.04-.2-.08-.21-.11.1-.32.16-.47.07-.21.01-.08v-.04l.02-.04.07-.12c.05-.1.08-.22-.06-.33l-.07-.04-.4-.33c-.18-.1-.2-.3-.06-.61l.07-.13.29-.08c.37-.1.66-.23.66-.35 0-.18-.3-.3-.67-.36l-.13-.03.28-.64h.57c.3-.06.33-.13.24-.28a.98.98 0 00-.2-.2l-.1-.08-.32-.23-.14-.1-.1-.09c-.07-.07-.1-.13 0-.15h.06l.24-.64.25-.03c.09-.01.18-.03.29-.07l.12-.05.26.4c.18-.08.18-.19.11-.33l-.03-.06-.17-.3a1.65 1.65 0 01-.08-.17l-.03-.1.73-.57-1.03.02c-.17 0-.15-.04-.05-.12l.14-.08.46-.25.07-.04c.01-.02.01-.03 0-.03h-.89c-.5-.07-.79-.3-.42-1.1.05-.1.18-.13.32-.14h.4c.1 0 .18 0 .2-.04l.02-.04v-.24c.02-.24.06-.48.3-.8a1 1 0 01.55-.35l.24-.07c.1-.02.16-.05.17-.1.07-.24-.08-.3-.3-.33l-.28-.02c-.3-.03-1.38-.6-1.37-.99 0-.15-.1-.14-.25-.1l-.28.1c-.1.02-.17.04-.21 0-.45-.36-.17-1.02.5-1.15.41-.08.5-.14.34-.3l-.14-.12c-.41-.4-.32-.76.27-.96l.35-.1c.33-.1.42-.2.42-.45v-.1l-.04-.2c-.11-.7-.55-.83-.56-.16 0 .32-.1.45-.46.5l-.24.04c-.28.02-.58-.02-.68-.11-.41-.3.14-1.6.6-1.74l.08-.02.2-.04c.14-.03.19-.08.07-.25l-.05-.06-.22-.29c-.13-.16-.38-.3-.65-.4l-.13-.06-.44-.16-.17-.07c-.13-.05-.2-.1-.15-.15l.03-.02.15-.08.53-.24c.14-.06.1-.15.03-.24l-.12-.13-.31-.3-.12-.11c-.05-.06-.09-.1-.07-.13h.01l.3-.06.57-.07.5-.07.33-.05.2-.05c.19-.04.32-.1.32-.16.01-.18-.1-.28-.27-.38l-.09-.04-.33-.16-.23-.12-.1-.04-.19-.08-.22-.08c-.14-.06-.2-.1-.1-.18l.18-.14c.14-.11.14-.17 0-.24l-.15-.07s0 0 0-.01l.05-.03.16-.03.23-.04-.67-.73.22-.03.15-.03.05-.03c-.01-.06.06-.13.17-.22l.06-.05.3-.22.13-.1c.14-.12.2-.21.03-.25l-.19-.02a.35.35 0 00-.2.04l-.08.04-.29.18c-.13.07-.24.1-.28-.05a1.1 1.1 0 01-.04-.37l.01-.12.03-.27c.03-.2 0-.35-.25-.33-.08 0-.08-.12-.02-.32l.03-.1.93-.6.3-.73-.85-.36-.59-.02c.15-.43.24-.84.19-1.12h-.02l-.15-.04-.6-.12-.15-.03-.02-.01c-.1-.3.09-.44.38-.53l.1-.03.19-.04 1-.03c.19-.07.34-.21.31-.35-.02-.13-.22-.33-.44-.44-.5-.24-.59-.8-.19-1.02a.92.92 0 01.3-.08h.1l.6-.06.11-.02c.08-.02.11-.05.06-.09l-.05-.03-.27-.12-.44-.2-.33-.13-.31-.13-.28-.1-.15-.04-.06-.01-.06-.01s0-.01.01-.02l.02-.02.09-.08.11-.1c.12-.11.21-.25.1-.36l-.03-.03-.09-.07-.35-.24c-.15-.1-.27-.2-.27-.3l.02-.04.14-.25c.07-.01.09-.04.09-.08v-.02l-.04-.08.02-.12c-.02-.14-.17-.3-.3-.41l-.1-.08c.02 0 .04-.01.06-.04l.04-.03.12-.13a.67.67 0 01.28-.18l.09-.02.2-.01.1-.01c.1-.02.12-.05.03-.12l-.05-.03-.11-.07-.38-.18c-.76-.62-1.01-1.07-.76-1.34l.14-.13a.81.81 0 00.24-.46v-.13c0-.08.07-.16.15-.24l.07-.06.12-.1-1.48-.34.16-.12.05-.05.09-.1.12-.16.1-.16c.03-.05.06-.1.1-.15l.07-.15c.1-.23.11-.42-.07-.43.02-.11.19-.13.42-.11l.2.02.42.05c.24.03.46.04.57-.03l.04-.03.26-.31c.12-.15.22-.3.27-.43.02-.09-.05-.1-.17-.1h-.26l-.22.02c-.3 0-1.36-.18-1.8-.4l-.1-.06-.15-.73.35-.39.13-.16c.16-.2.14-.28-.06-.4l-.18-.1c-.22-.16-.29-.38-.24-.76.02-.33.04-.83.01-1.11-.04-.4.01-.5.4-.53l.2-.01.18-.02c.27-.04.3-.11.1-.24l-.07-.04-.17-.09-.53-.22a2.25 2.25 0 00-.2-.08l-.1-.04-.75-.21a1.53 1.53 0 01-.4-.17c-.32-.23-.28-.32-.14-.4l.2-.1a.5.5 0 00.24-.22c.05-.1.29-.2.55-.26l.23-.04c.15-.03.15-.2.12-.4l-.03-.15-.05-.17-.04-.16c-.03-.1-.1-.15-.3-.17l-.1-.02h-.2l-.26-.01h-.32c-.8.01-1.56-.62-1.09-.68h.34l.3-.01.15-.01.1-.02c.1-.02.1-.06.04-.11l-.04-.03-.1-.06-.15-.07-.41-.18a2.44 2.44 0 01-.56-.47l-.09-.1-.16-.19-.12-.14-.04-.06-.02-.04a.32.32 0 00-.05-.05l-.04-.03-.15-.1-.1-.05-.1-.05-.23-.12-.26-.11c-.2-.1-.37-.2-.5-.3.09-.03.17-.04.24-.05h.1c.23.01.3-.08.26-.27-.07-.21.06-.37.37-.46.77-.27 1.25-.16 1.8.4.26.3.68.57.9.61.23.04.83-.13 1.35-.37l.16-.07.26-.14c.41-.22.5-.35.48-.62l-.01-.08a.85.85 0 01.22-.75c.4-.33 1.44-.3 2.02.05.35.21.43.24.7.1l.21-.13c.37-.22.6-.28 1.14-.2l.17.02c.2.02.4.04.64.03l.3-.01c.2-.01.43-.04.68-.08l.4-.06.45-.08.5-.1.55-.13.3-.06a5.16 5.16 0 011.9-.04c1.75.2 2.48.86 1.9 1.7-.22.3-.19.4.05.41.2.01.4-.03.51-.1l.03-.01.09-.03.06-.02.2-.04.26-.04.27-.03c.35-.03.77-.14 1-.26l.08-.05c.04-.03.1-.07.19-.1l.18-.08.28-.09.38-.11.4-.1c.48-.12.94-.2 1.18-.19.14.01.47-.1.77-.23l.25-.13c.24-.12.42-.25.44-.33h.01l.13-.01h.92l.9.03 1.18.05.63.04.34.03.27.03.15.02c.06.01.09.02.09.03-.03.14.1.28.28.33.12.04.36 0 .6-.05l.26-.06.33-.1.16-.05a.27.27 0 00.08-.04v-.01h.05l.17-.02.4-.02H223.4l.05.01.01.01c0 .02.05 0 .12-.01l.32-.09.77-.23.32-.1.3-.07.22-.05a.77.77 0 01.27-.01z" transform="translate(232 184)"/><path fill="url(#k)" d="M189.75 5.02c.1.08.22.16.36.24l.14.07.26.11.23.12.1.05.1.06.15.1.04.02.03.03.02.02.02.04.04.06.12.14.16.19.1.1c.15.17.33.33.47.42l.08.05.4.18.15.07.1.06.05.03c.05.04.06.07.01.1l-.05.01-.1.02h-.15l-.3.02h-.34c-.44.06.22.63.97.68h.7l.2.01.1.02c.16.02.24.06.28.13l.02.04.04.16.05.17.03.16c.03.16.03.31-.06.37l-.06.02-.23.04c-.26.06-.5.16-.55.26a.42.42 0 01-.16.17l-.07.04-.2.1c-.15.09-.2.18.13.4.05.04.11.07.2.1l.2.08.74.21.11.04.1.04.63.26.17.09.07.04c.18.11.18.18-.02.23h-.08l-.17.03-.2.01c-.4.03-.45.12-.4.53.02.28 0 .78-.02 1.1-.04.34 0 .55.16.7l.08.06.18.1c.18.12.21.2.1.35l-.04.06-.13.16-.35.39.15.73.1.06c.4.2 1.33.37 1.7.4h.1l.22-.01.2-.01h.06c.12 0 .19.01.17.1-.04.1-.1.2-.18.32l-.09.1-.26.32-.04.03c-.1.06-.26.06-.45.04h-.12l-.42-.06-.2-.02c-.23-.02-.4 0-.42.11.18.01.17.2.07.43l-.08.15-.04.08-.05.07-.1.16-.12.16-.09.1-.05.05-.16.12 1.48.35-.12.1-.07.05a.55.55 0 00-.14.18l-.01.06v.13a.77.77 0 01-.16.38l-.08.08-.14.13c-.24.25-.03.66.62 1.22l.14.12.38.18.11.07.05.03c.08.06.08.09.01.1l-.04.02h-.1l-.2.02-.09.02a.59.59 0 00-.22.12l-.06.06-.12.13-.04.03a.17.17 0 01-.04.03h-.02l.1.09c.1.09.23.22.28.34l.02.07-.02.12.03.08v.02c0 .03 0 .05-.04.07l-.04.01-.14.25-.02.04c0 .08.09.17.2.25l.07.05.35.24.09.07.03.03c.1.1.04.21-.05.31l-.05.05-.11.1-.1.08-.01.02v.02h.05l.06.02.15.04.28.1.31.13.33.13.44.2.27.12.05.03c.04.04.03.06-.02.08l-.04.01-.12.02-.59.05-.1.01a.92.92 0 00-.3.08c-.4.23-.3.78.2 1.02.2.11.41.3.43.44.02.12-.08.24-.23.32l-.08.03-1 .03-.2.04-.09.03c-.26.08-.44.2-.4.44l.02.09h.02l.15.04.6.12.15.03h.01c.05.25-.01.59-.12.95l-.06.18.59.02.85.36-.3.73-.93.6-.03.1c-.06.2-.06.32.02.32.23-.01.27.1.26.27v.06l-.04.27-.01.12c0 .12 0 .25.04.37.03.13.12.13.23.08l.05-.03.3-.18.07-.04c.05-.02.1-.04.14-.04h.06l.2.02c.13.03.1.1 0 .2l-.04.05-.13.1-.3.22-.06.05c-.09.07-.15.13-.17.19v.03l-.05.03-.15.03-.22.03.67.73-.23.04-.16.03-.05.02v.01l.16.08c.11.06.13.11.04.2l-.05.04-.18.14c-.08.07-.06.11.04.16l.06.02.22.08.19.08.1.04.23.12.33.16.1.04c.17.1.27.2.26.38 0 .05-.1.1-.23.14l-.09.02-.2.05-.32.05-.5.07-.57.07-.3.05-.02.01c-.01.02 0 .05.03.08l.04.05.12.12.31.3.12.12c.06.07.1.15.02.21l-.05.03-.53.24-.15.08-.03.02c-.03.04 0 .08.1.13l.05.02.17.07.44.16.13.05c.23.1.44.2.57.33l.08.08.22.29.05.06c.1.15.08.2-.02.24l-.05.01-.2.04-.08.02c-.46.14-1.01 1.44-.6 1.74.09.08.32.12.56.11h.12l.24-.03c.36-.06.47-.19.46-.5 0-.64.4-.57.54.04l.02.11.03.2v.1c.01.23-.06.33-.3.42l-.1.03-.36.1c-.55.2-.67.5-.35.88l.08.08.14.12c.16.16.07.22-.34.3-.67.13-.95.8-.5 1.15.03.03.08.03.15.01l.06-.02.28-.1c.14-.03.26-.04.25.11 0 .36.93.88 1.3.97l.07.02.28.02c.22.03.37.09.3.33 0 .04-.05.06-.1.08l-.07.02-.24.07a1 1 0 00-.55.35c-.2.28-.27.5-.29.71v.1l-.01.23-.02.04c-.02.03-.07.04-.13.05h-.07l-.31-.01h-.09c-.14 0-.27.04-.32.14-.34.76-.12 1 .33 1.08l.09.01.17.02h.72s.01 0 0 0v.02l-.07.04-.46.25-.14.08c-.1.07-.12.12 0 .12h.05l1.03-.02-.73.57.03.1.04.09.04.08.17.3.03.06c.06.12.07.22-.04.3l-.07.03-.26-.4-.12.05-.07.02-.13.03-.09.02-.25.03-.24.64h-.05c-.08.02-.09.06-.04.12l.03.03.1.09.14.1.32.23.1.08c.08.07.16.14.2.2.08.14.07.2-.15.26l-.1.02h-.56l-.28.64.13.03c.36.07.66.18.67.36 0 .1-.23.22-.54.32l-.12.03-.3.08-.06.13c-.13.27-.12.47.01.58l.06.03.39.33.07.04c.12.1.12.2.08.28l-.02.05-.07.12-.01.04v.04l-.02.08-.07.21-.15.47-.11.32.22.1.2.1.09.03.08.03h-.17l.12 1.01-.26.03-.26.04-.12.02c-.28.05-.5.12-.48.2.01.1.03.15.08.2l.05.02.2.1c.16.08.14.11-.05.12-.13 0-.12.06-.04.15l.05.04.12.1.44.35.17.16.12.14.04.05c.07.1.07.15-.01.16-.9.04-1.03.37-.93.8l.02.08.09.28.02.07c.08.16.17.23.47.26h.12l.35.02h.81l.12.02.04.01c.05.02.06.03.03.06l-.03.01-.07.04-.16.05-.73.2-.15.04-.08.07a.56.56 0 01-.18.07l-.1.02-.23.02-.06.02c-.25.04-.5.17-.72.69.05.06.06.18.04.32l-.01.1-.09.47-.01.09c-.03.23-.02.43.14.46h.07l-.06.77h.14l.07.01c.1.02.14.06.11.15l-.02.05-.05.12-.07.14-.02.03a.82.82 0 01-.08.1l-.06.04-.18.16-.33.27-.19.17c-.3.27-.54.56-.43.74.16.26.59.32.96.34h.59c.1.01.1.04-.06.11l-.08.03.03.53-.27 1.22.28.04.25.04.11.03c.26.05.43.12.44.2.03.17-.04.28-.16.33l-.07.03h-.1c0 .01 0 .02.01.02l.05.03.26.1.67.23.26.1.17.08c.15.08.24.14.22.19l-.02.04-.05.12-.07.22-2.56-.56-.08.26-.04.12c-.02.05-.04.09-.06.13l-.02.05.58.68-.05.06c-.27.4-.26 1.4.4 1.46H197.55c.08.02.1.05.06.12l-.03.04-.6.58-.05.08c-.16.17-.25.16-.49 0-.02 0-.03 0-.03.05l.01.04.04.13.07.2.1.25.06.13.12.27.12.26.12.23.06.1c.04.06.07.1.1.15.13.15.1.4.07.63-.27.22-.53.38-.8.5l-.2.08-.11.03-.1.03c-.2.1-.22.29-.2.48l.01.09.04.23.01.06v.1l-.04.15v.02l.03.04s.01.01.02.02l.04.04.17.15.23.18-1.73.46.19.15.09.08.04.05v.01c-.05 0-.08.1-.1.25l-.02.1-.02.22 1.82 1.9-.02.02-.14.07-.95.42-.24.1-.12.07-.02.01-.01.01v.73l.02.12c.02.14.09.27.18.4l.07.1.25.3.03.04c.05.1.01.14-.07.18l-.05.02-.23.07-.08.02c-.1.04-.2.1-.25.18l-.02.08-1.7 3.17 1.39 1.82-.03.16-.01.04v.05l-.55.87a4.62 4.62 0 01-.65-.28l-.16-.09c-.41-.23-.49-.37-.36-.67l.04-.08c.22-.44.02-.58-.51-.33a.8.8 0 01-.61 0 3.02 3.02 0 00-.27-.09l-.37-.11-.22-.06-.48-.13-.62-.14-.58-.12-.32-.06-.25-.04c-.04 0-.07 0-.1 0-.27-.02-.71.04-1.05.14l-.27.09-.17.07c-.21.09-.23.14-.12.23l.12.07c.15.1.27.25.29.39v.06c-.02.13.12.45.32.75l.34.48.15.22c.26.38.22.47-.07.55l-.27.07c-.48.12-.68.12-1.14-.05l-.19-.07c-.14-.05-.29-.1-.44-.15l-.28-.08-.17-.04h-.07l-.1-.02c-.09 0-.24-.04-.42-.09l-.3-.1-.15-.05-.33-.12-.34-.14-.33-.14-.3-.14-.26-.14-.2-.12c-.12-.07-.19-.12-.18-.16.01-.09-.19-.16-.55-.2l-.27-.02c-.88-.04-1.38.2-1.39.69 0 .14-.19.25-.61.35l-.29.05-.33.05c-.55.07-.74.03-1.19-.17-.34-.15-.61-.44-.66-.73-.06-.32-.17-.45-.5-.49h-.1a3.2 3.2 0 01-.9-.21l-.14-.07c-.28-.12-.51-.16-.52-.1-.02.09-.27.27-.56.4-.25.12-.5.18-.93.2H173.11l-.44-.03-.53-.04-.46-.05-.32-.04-.27-.06a2.1 2.1 0 01-.3-.08l-.07-.03a3 3 0 00-.75-.24l-.12-.01a1.8 1.8 0 01-.65-.18l-.1-.05c-.44-.3-.94-.36-1.33-.17l-.12.06c-.57.36-1.66.13-1.58-.34.04-.24-.07-.34-.39-.36a1.8 1.8 0 01-.73-.24l-.12-.08c-.43-.33-1.25-.41-2.18-.23l-.38.08-.3.05c-.58.1-.93.06-.9-.09 0-.06-.16-.06-.4 0l-.23.05c-.39.12-.59.24-.57.4l.01.05c.12.28-.5.48-1.34.47l-.16-.01c-.4-.02-.7.07-.93.34-.42.44-1.6.78-2.65.74-.47-.01-.86.06-1.25.25l-.17.09c-.76.4-1.04.42-1.62-.02l-.13-.1a2 2 0 00-.88-.46c-.21 0-.26.02-.16.12l.1.09c.17.13.16.23-.16.42l-.18.1-.38.2c-.56.27-1.36.5-1.78.53-.43.04-.95.1-1.2.19-.34.1-.66.06-1.2-.07-.54-.15-.8-.18-1.15-.09l-.14.05c-.24.08-.68.14-1.03.14h-.61c-.16.02-.25.04-.26.07-.01.1-.14.16-.37.2l-.22.04-.26.03-.3.01c-.1 0-.22 0-.34 0h-.37l-.4-.02-.44-.02-.46-.04-1.2-.12-.54-.06-.3-.04-.26-.05-.22-.04-.2-.06a2.72 2.72 0 01-.35-.14l-.17-.08-.17-.1-.38-.24c-.98-.65-1.7-.78-2.64-.45l-.4.15-.37.15-.34.15-.3.13-.13.07-.23.12c-.23.14-.37.26-.38.34-.04.21-1.62.19-1.8-.03-.02 0-.06-.02-.12-.03h-.16l-.21-.02h-.56l-.32.01-.76.04-.44.01-.4.01h-.5l-.3-.01c-.52-.04-.78-.13-.75-.27 0-.07-.12-.05-.32.02l-.08.03c-.85.4-2.18-.01-2.5-.77-.02-.06-.17-.1-.4-.14l-.25-.03-.28-.02h-.15l-.31-.01h-.37c-.42.03-.8.07-.97.16a.9.9 0 00-.42.37l-.02.07c-.05.3-1.11.8-1.67.76-.04 0-.1 0-.15-.01l-.2-.05-.1-.03-.33-.1a11.6 11.6 0 01-.18-.05l-.37-.14-.4-.15-.52-.22-.5-.22a3.8 3.8 0 00-1.17-.32l-.15-.01a8.91 8.91 0 01-1.4-.2c-.38-.12-.63-.15-.83-.09l-.08.03c-.14.07-.51.12-.83.1-.32-.02-.6.07-.88.31l-.12.12c-.67.63-1.03.75-1.75.53l-.16-.05c-.4-.15-.76-.2-.86-.13-.09.06-.41.1-.75.08-.8-.04-1.09-.56-.5-.88l.14-.08.09-.06c.06-.04.05-.07-.04-.08l-.12-.01-.17-.01c-.38-.02-.52.04-.58.27l-.02.08c-.1.59-.53.71-1.5.43l-.97-1.48.02-.01v-.02l-.01-.07-.03-.16 1.4-.82-1.71-1.17c-.03-.14-.14-.21-.27-.26l-.08-.02-.23-.07c-.12-.04-.19-.09-.13-.2l.04-.05.24-.3c.13-.16.23-.31.26-.5v-.1l.01-.2v-.54s0-.01-.02-.02l-.13-.07-.23-.1-.96-.42-.14-.07-.02-.02 1.82-1.9v-.12l-.03-.2c-.02-.12-.04-.2-.08-.23l-.02-.01c-.01 0-.01-.01 0-.02l.03-.05.1-.08.18-.15-1.73-.46.23-.18.17-.15a.45.45 0 00.1-.1v-.02l-.04-.15c-.01-.02-.01-.06 0-.1v-.06l.04-.23c.04-.22.04-.46-.2-.57l-.08-.03-.12-.03a3.37 3.37 0 01-1-.58c-.03-.22-.05-.48.08-.63l.03-.05.06-.1.12-.21.06-.12.13-.26.12-.27.1-.26.1-.23.04-.14.03-.1c0-.05 0-.08-.03-.06-.24.15-.32.16-.48-.01l-.07-.08-.59-.58c-.07-.1-.06-.14.03-.15l.06-.01h.33c.76.04.79-1.03.5-1.46l-.04-.06.58-.68-.03-.05-.05-.13-.05-.12-.08-.26-2.55.56-.08-.22-.04-.12a.93.93 0 00-.02-.04c-.02-.05.06-.1.2-.18l.07-.03.24-.1.13-.06.67-.23.26-.1c.05-.02.07-.04.06-.04h-.02l-.07-.01c-.17-.04-.27-.16-.23-.35 0-.09.18-.16.43-.21l.11-.03.26-.04.27-.04-.26-1.22.02-.53c-.23-.1-.24-.13-.13-.14H99.5c.4 0 .91-.05 1.09-.34.1-.18-.13-.47-.44-.74l-.18-.17-.33-.27-.19-.16c-.06-.05-.1-.1-.13-.14l-.02-.03-.08-.14-.05-.12c-.05-.12-.03-.18.1-.2h.21l-.07-.77c.23 0 .25-.2.21-.47l-.01-.09-.09-.46c-.03-.19-.03-.35.03-.43-.21-.52-.46-.65-.71-.7h-.07l-.23-.03a.66.66 0 01-.27-.1l-.08-.06-.15-.05-.73-.2-.16-.04-.08-.04c-.05-.03-.06-.05 0-.07h.05l.12-.02h.19l.61-.01.36-.01c.39-.02.5-.08.58-.27l.03-.07.09-.28c.13-.47.05-.84-.92-.88-.13-.01-.05-.15.24-.42l.09-.09.43-.34.13-.1c.1-.1.14-.17.05-.2h-.11c-.13-.02-.13-.05.02-.13l.2-.1c.08-.04.1-.08.13-.2.01-.09-.2-.16-.5-.21l-.1-.02-.26-.04-.27-.03.12-1-.16-.01.08-.03.09-.04.2-.08.21-.11-.2-.58-.06-.2-.06-.22-.02-.08v-.04l-.02-.04-.07-.12c-.05-.1-.08-.22.06-.33l.07-.04.4-.33c.18-.1.2-.3.06-.61l-.06-.13-.3-.08c-.37-.1-.66-.23-.65-.35 0-.18.3-.3.67-.36l.12-.03-.28-.64h-.56c-.31-.06-.34-.13-.24-.28a.98.98 0 01.2-.2l.1-.08.45-.33.1-.09c.08-.07.1-.13 0-.15h-.06l-.24-.64-.25-.03a1.41 1.41 0 01-.29-.07l-.12-.05-.26.4c-.18-.08-.18-.19-.11-.33l.03-.06.17-.3c.03-.05.06-.11.08-.17l.03-.1-.72-.57 1.02.02c.13 0 .16-.02.11-.07l-.02-.02-.08-.05-.1-.06-.46-.25-.06-.04c-.02-.02-.02-.03 0-.03h.89c.5-.07.78-.3.41-1.1-.05-.1-.17-.13-.32-.14h-.39c-.1 0-.18 0-.21-.04l-.01-.04v-.24a1.33 1.33 0 00-.3-.8 1 1 0 00-.55-.35l-.1-.03-.15-.04c-.09-.02-.15-.05-.17-.1-.07-.24.09-.3.3-.33l.28-.02c.3-.03 1.38-.6 1.38-.99-.01-.15.1-.14.24-.1l.28.1c.1.02.17.04.21 0 .45-.36.17-1.02-.5-1.15l-.1-.02-.16-.04c-.18-.06-.2-.12-.07-.24l.14-.12c.4-.4.31-.76-.28-.96l-.35-.1c-.42-.13-.46-.25-.38-.75.12-.7.55-.83.57-.16-.01.32.1.45.46.5l.23.04c.28.02.58-.02.68-.11.42-.3-.13-1.6-.6-1.74l-.08-.02-.2-.04c-.14-.03-.18-.08-.07-.25l.06-.06.22-.29c.12-.16.37-.3.64-.4l.13-.06.44-.16.17-.07c.13-.05.2-.1.15-.15l-.03-.02-.14-.08-.26-.1-.27-.14c-.14-.06-.1-.15-.04-.24l.12-.13.25-.23.13-.13c.08-.08.14-.15.13-.18h-.02l-.2-.04-.67-.09-.5-.07-.32-.05-.2-.05c-.2-.04-.32-.1-.33-.16-.01-.18.1-.28.27-.38l.1-.04.32-.16.23-.12.1-.04.2-.08.22-.08c.14-.06.2-.1.1-.18l-.19-.14c-.17-.14-.13-.2.15-.31.02 0 .01-.02-.01-.03h-.04l-.15-.04-.23-.04.67-.73-.23-.03-.14-.03c-.04-.01-.06-.02-.06-.03.01-.06-.06-.13-.16-.22l-.07-.05-.3-.22-.13-.1c-.13-.12-.2-.21-.03-.25l.19-.02c.06-.01.13 0 .2.04l.08.04.3.18c.13.07.23.1.28-.05.04-.12.04-.25.03-.37v-.12l-.04-.27c-.02-.2 0-.35.25-.33.09 0 .08-.12.02-.32l-.03-.1-.93-.6-.3-.73.86-.36.58-.02a2.69 2.69 0 01-.19-1.12h.03l.15-.04.59-.12.15-.03.02-.01c.1-.3-.08-.44-.38-.53l-.09-.03-.2-.04-1-.03c-.18-.07-.33-.21-.31-.35.02-.13.22-.33.44-.44.5-.24.6-.8.19-1.02a.92.92 0 00-.3-.08h-.1l-.59-.06-.12-.02c-.1-.02-.12-.06 0-.12l.06-.03.48-.22.49-.2.32-.13.27-.1.15-.04.06-.01.06-.01s0-.01 0-.02l-.02-.02-.1-.08-.11-.1c-.12-.11-.2-.25-.1-.36l.03-.03.1-.07.34-.24c.15-.1.27-.2.27-.3l-.01-.04-.14-.25c-.07-.01-.1-.04-.1-.08l.01-.02.03-.08-.01-.12c0-.14.17-.3.3-.41l.1-.08c-.02 0-.04-.01-.07-.04l-.03-.03-.13-.13a.67.67 0 00-.28-.18l-.09-.02-.2-.01-.1-.01c-.1-.02-.12-.05-.03-.12l.05-.03.12-.07.37-.18c.77-.62 1.02-1.07.76-1.34l-.14-.13a.81.81 0 01-.24-.46v-.13c0-.08-.06-.16-.15-.24l-.06-.06-.13-.1 1.49-.34-.17-.12-.05-.05-.08-.1-.12-.16-.1-.16c-.04-.05-.07-.1-.1-.15l-.07-.15c-.1-.23-.12-.42.07-.43-.02-.11-.2-.13-.42-.11l-.2.02-.43.05c-.24.03-.45.04-.56-.03l-.05-.03-.26-.31c-.12-.15-.22-.3-.26-.43-.02-.09.04-.1.17-.1h.26l.22.02c.07 0 .2-.01.34-.03l.32-.05c.4-.08.87-.2 1.13-.32l.1-.06.15-.73-.35-.39-.13-.16c-.15-.2-.14-.28.07-.4l.18-.1c.22-.16.28-.38.23-.76a9.96 9.96 0 01-.01-1.11c.04-.4 0-.5-.4-.53l-.2-.01-.18-.02c-.27-.04-.3-.11-.1-.24l.08-.04.16-.09.53-.22c.06-.03.13-.05.2-.08l.11-.04.74-.21c.18-.06.32-.11.4-.17.26-.19.29-.28.21-.35l-.03-.03-.08-.04-.17-.09a.5.5 0 01-.23-.2c-.05-.1-.28-.21-.55-.27l-.23-.04c-.16-.03-.15-.26-.1-.48l.02-.07.06-.23.02-.1c.03-.1.11-.15.3-.17l.1-.02h.2l.26-.01h.32c.8.01 1.56-.62 1.09-.68h-.33l-.3-.01-.15-.01-.1-.02c-.1-.02-.11-.06-.05-.11l.05-.03.1-.06.15-.07.4-.18c.15-.07.37-.27.56-.47l.1-.1.16-.19.11-.14.04-.06.02-.04a.32.32 0 01.05-.05l.04-.03.15-.1.1-.05.1-.05.24-.12.25-.11c.39-.18.68-.41.71-.59l.01-.05.04-.13.06-.16c.1-.23.25-.45.35-.32l.06.09c.17.26.28.33.75.34H108.22c.46-.03 1.03.01 1.3.09l.2.06.16.05c.17.03.22-.02.25-.18.06-.4 1.16-.7 2-.54l.36.07.24.03.24.02h.9c.52.01 2.1-.42 2.81-.77l.14-.07c.05-.03.12-.05.2-.08l.2-.05.28-.08.17-.03.4-.08.4-.06.2-.03.37-.04.23-.02c.07 0 .13 0 .18 0 .19 0 .48-.11.67-.3l.08-.09c.27-.3.42-.37.88-.33l.15.01c.53.06.68.16.68.48 0 .06-.04.1-.08.11l-.07.03s0 0 .01.01l.11.03.28.06.24.07c.52.16.57.29.14.36l-.2.02c-.18.02-.18.08-.14.17l.04.1c.02.04.04.1.03.15-.01.04.06.05.18.04l.57-.06c.25-.02.5-.01.6.1l.05.05c.08.2.98.27 1.31.13l.07-.03c.2-.14.9-.13 1.13 0l.06.05c.06.07.82.38.86.12.12-.72 1.81-1.1 2.45-.7.1.07.18.16.22.28.01.05.05.06.1.05l.23-.04a.77.77 0 01.42.04c.47.19.72.1.93-.04l.24-.18c.47-.27.83-.23 1.2.17.1.1.15.08.22-.01l.14-.22a2 2 0 01.8-.67c.88-.4 1.56-.63 1.92-.61.68.03 1.97.72 1.92 1.03-.03.16.04.18.28.07a2 2 0 01.7-.12h.15c.28.01.56-.03.69-.08l.04-.02c.3-.22.92-.1 1.45.28l.48.35.82-.38c.53-.26.8-.48.88-.76l.02-.09c.05-.32.25-.5.71-.63.54-.16.67-.17 1.09 0l.15.07c.46.2.55.32.41.64l-.04.08c-.24.43-.02 1.02.37 1.04.12 0 .38-.2.59-.45.31-.38 1.43-.77 2.06-.73h.13c.06.02.15.02.25 0l.2-.03.3-.06c.24-.03.42-.03.4.12l-.05.5 1.73.9c.5-.48.81-.64 1.36-.68.77-.06 1.17.18.94.56-.07.12-.05.3.03.4.08.1.25-.05.4-.35.18-.38.15-.52-.14-.68l-.08-.05c-.77-.34-.5-1.07.54-1.6l.34-.15.33-.15c.66-.27.93-.24 1.45.07l.68.42.53-.24a6.96 6.96 0 011.78-.55l.31-.03c.27-.03.53-.04.77-.04l.26.01c.24.02.41.05.45.1v.03c0 .02.02.05.05.09l.07.09.17.18.21.22.49.46.97-.43.4-.16.25-.1.21-.08.17-.05a.58.58 0 01.15-.03c.08 0 .31.13.55.3l.1.08c.5.39.78.45 1.03.25l.06-.06c.08-.1.28-.17.47-.18h.1c.24.01.62-.06.88-.17l.18-.07c.23-.08.4-.08.78.01l.3.08.18.05c.51.15 1.32.29 1.78.31.66.04.89-.02 1.2-.32.55-.5 1.68-.5 1.82-.02.14.52-.17.76-.88.73l-.63-.04.73.5c1.17.8 1.67.85 1.67.15-.01-.36.52-.77.82-.66l.06.03c.13.08.45.15.77.18l.28.02c.26.01.49 0 .56-.06l.02-.03c0-.02.09-.05.22-.08l.2-.03.22-.02.26-.02c.44 0 .93-.1 1.15-.2l.07-.03c.17-.12.35-.16.7-.14l.25.01.5.06.28.04.25.05.21.05.1.02.15.04c.08.03.12.06.12.08-.01.06.09.11.24.13h.08c.17.02.57.19.92.41l.12.1c.53.35.67.55.55.84-.1.2-.09.38.04.39.1 0 .21-.14.25-.33.02-.17.25-.4.52-.55l.11-.06c.35-.17.58-.4.58-.52-.02-.18.11-.25.57-.22.3.01.56.08.6.15l.01.03c-.01.1.25.14.72.12.57-.04.78.01.94.23.12.15.2.32.16.37-.1.24-.01.29.3.16l.2-.09c.11-.05.24-.1.36-.14l.18-.05z" transform="translate(232 184)"/><path fill="url(#l)" d="M51.07 1.89c.28.12.27.18 0 .33-.03.02.01.03.1.04l.19.02h.24l.45.02h.51l.83-.02.5-.02.16-.01c.26-.03.6-.1.8-.16l.09-.03c.08-.03.25-.05.47-.07l.28-.01.32-.01h.34l.38.01.35.02c.63.04.86.13 1.21.38.6.45 2.21.3 2.76-.07l.08-.07c.29-.26.55-.34 1.06-.32.39.02.64.1.62.23-.04.27.46.53.7.38l.06-.04c.09-.1.52-.21.97-.24.63-.04.82-.02 1.13.24l.09.08c.41.4.8.41.75.06l-.02-.08c-.06-.2.05-.27.44-.25.39.02.5.11.45.35-.03.2-.18.38-.3.41-.41.12-.34.27.12.36l.23.03c.45.05.64.15.74.42l.03.09c.12.44.69.73.97.51.1-.06.33-.1.6-.1h.13c.39.02.58-.05.84-.37l.1-.11c.4-.6 1.5-1.04 2.46-.99.43.02.67.15.97.49l.1.12c.67.84 1.88.82 2.24-.03.07-.22.18-.3.58-.3h.25l.14.01.28.02c.46.04.6.11.6.31.02.17.23.43.45.56l.17.1c.21.1.32.1.6 0l.26-.12c.3-.12.67-.2.93-.18l.13.02c.27.05.66-.05 1.2-.31l.18-.1c.86-.44 1.06-.48 2.13-.43.6.03 1.27.15 1.61.26l.1.04c.8.35 3.36.3 3.74-.07.19-.2.44-.26 1.06-.23l.33.01.26.02.2.02c.28.04.34.12.36.31v.13c0 .3-.1.45-.31.44h-.1c-.09 0-.09.03 0 .08l.12.06c.5.2 1.28.23 1.92.04l.2-.06c.38-.14.83-.19 1.16-.13.74.14 1.43.71 1.45 1.15v.09c-.09.49.67.95 1.62 1.01l.21.01c.35 0 .44-.06.5-.35l.03-.18c.14-.84 1.89-1.72 2.46-1.29l.07.06c.06.07.34.16.6.17.03 0 .03 0 .02.01l-.04.03-.25.12c-.08.04-.14.09-.1.1l.13.03c.05.01.13.02.23.03h.35l.32-.02.17-.01.46-.06c.46-.04.64 0 .9.17l.09.06c.32.21.38.31.2.5l-.22.18c-.27.26-.21.37.26.47l.25.04c.55.1.7.2.66.44-.03.18-.32.41-.7.59l-.26.11-.24.12c-.07.03-.14.07-.2.1l-.15.1a.45.45 0 00-.09.08l-.02.04-.04.06-.11.14-.17.19c-.2.23-.48.49-.64.57l-.41.18-.15.07-.1.06c-.12.07-.12.11 0 .14l.1.02h.14l.3.02h.27c.61 0-.19.7-1.02.68H101.46l-.2.01c-.26.03-.36.08-.4.2l-.02.1-.06.22c-.06.23-.1.52.08.55l.12.02c.3.04.6.17.66.28.05.1.14.16.23.21l.17.09.08.04c.1.08.12.17-.18.38-.08.06-.22.11-.4.17l-.74.21c-.08.03-.15.05-.21.08l-.63.26-.16.09c-.29.15-.27.24.02.28l.17.02h.1c.5.03.56.1.5.54-.01.28 0 .78.02 1.1.05.39-.01.61-.23.76l-.1.05c-.28.16-.32.24-.15.46l.13.16.35.39-.15.73a5.5 5.5 0 01-1.9.46l-.22-.01-.19-.01c-.16-.01-.26 0-.23.1.04.13.14.28.26.43l.26.3c.09.1.33.1.6.07l.43-.05.2-.02c.24-.02.4 0 .43.11-.25.02-.14.34.04.65l.1.16c.02.03.04.06.06.08l.12.16c.05.07.1.12.13.15l.17.12-1.49.35.13.1c.11.09.2.19.22.29v.04c-.03.17.08.4.23.55l.08.07c.35.27.12.73-.7 1.4l-.37.18-.12.07c-.14.09-.14.13-.02.15h.1l.2.02c.16 0 .28.1.37.2l.13.13c.04.04.07.07.1.07l-.04.03c-.14.1-.35.3-.36.46l.01.12-.03.08c-.01.04 0 .08.09.1l.14.25c.05.1-.08.22-.26.34l-.35.24-.09.07a.48.48 0 00-.03.03c-.1.11-.02.25.1.36l.12.1.09.08c.02.02.03.03.02.04h-.02c-.02 0-.05 0-.1.02l-.15.04-.27.1-.32.13-.49.2-.55.25c-.1.06-.08.1.01.12l.12.02.59.05c.17.02.32.04.4.09.4.23.31.78-.2 1.02-.2.11-.4.3-.43.44-.02.14.13.28.31.35l1 .03.2.04c.34.09.59.23.47.56h-.02l-.15.04-.6.12-.14.03c-.02 0-.03 0-.03.01-.04.28.05.69.19 1.12l-.58.02-.85.36.29.73.93.6c.09.26.11.42.01.42-.25-.02-.27.12-.25.33l.03.27c.02.15.03.33-.02.5-.05.14-.15.11-.29.04l-.29-.18c-.1-.06-.2-.1-.28-.08l-.12.01c-.24.02-.19.13-.04.26l.14.1.29.22c.14.1.25.2.23.27 0 .01.02.02.06.03l.14.03.23.03-.67.73.23.04.15.03c.06.02.08.03.05.04-.28.11-.32.17-.15.31l.13.1c.17.11.12.16-.04.22l-.23.08-.19.08-.1.04-.23.12-.33.16c-.22.1-.37.21-.36.42 0 .06.13.12.32.16l.2.05.33.05.5.07.66.09.21.03c.05 0-.01.1-.1.2l-.14.12-.25.23-.08.1c-.1.09-.16.2 0 .27l.27.13.26.11.14.08c.1.05.03.1-.12.17l-.17.07-.44.16c-.3.12-.63.27-.77.46l-.22.29c-.18.22-.15.27.01.31l.28.06c.47.14 1.02 1.44.6 1.74-.1.09-.4.13-.68.1h-.12c-.45-.06-.58-.17-.57-.53-.02-.67-.45-.54-.57.16-.08.5-.04.62.38.75l.22.07c.71.19.85.56.4.99l-.08.08c-.17.14-.18.21.02.28l.16.04.1.02c.67.13.95.8.5 1.15-.04.04-.12.02-.2 0l-.22-.08c-.17-.06-.32-.09-.31.08 0 .39-1.07.96-1.38.99l-.2.01c-.26.03-.46.07-.38.34.02.05.08.08.17.1l.16.04c.2.05.45.13.63.38.24.32.29.56.3.8v.24c.01.07.1.09.22.09l.31-.01c.18 0 .35.02.41.14.37.8.09 1.03-.41 1.1h-.87c-.04 0-.04 0-.02.03l.06.04.46.25.1.06.08.05c.07.06.07.1-.09.1l-1.02-.03.72.57c-.03.1-.07.19-.11.27l-.17.3c-.1.17-.12.3.08.4l.26-.41c.18.07.3.1.41.12l.25.03.24.64c.16 0 .15.07.06.15l-.1.09-.46.33c-.13.1-.24.2-.3.28-.09.15-.06.22.25.28h.56l.28.64c-.42.07-.79.19-.8.39 0 .12.3.24.66.35l.3.08c.2.38.2.63 0 .74l-.4.33c-.21.11-.19.25-.13.37l.07.12c.02.03.02.05.02.06v.02l.02.08.06.21.07.21.2.58-.23.1-.2.1-.08.03-.08.03h.16l-.12 1.01.27.03.26.04c.34.05.61.13.6.23-.02.12-.05.16-.13.2l-.13.07c-.21.1-.24.14-.1.16h.07c.15 0 .12.08 0 .2l-.13.1-.43.34c-.36.33-.47.5-.33.5.97.05 1.05.42.92.89l-.1.28c-.08.24-.17.32-.6.34h-.36l-.61.01h-.19l-.12.02c-.12.02-.12.05-.05.08l.08.04.16.05.73.2.15.04c.1.1.22.14.35.16l.23.02c.27.04.55.14.78.7-.06.09-.06.25-.03.44l.09.46c.05.3.06.56-.2.56l.07.76h-.15c-.19.01-.22.07-.16.21l.05.12.08.14c.02.04.07.1.15.17l.19.16.33.27.18.17c.3.27.55.56.44.74-.18.3-.7.34-1.1.34h-.35c-.2 0-.26.02.03.14l-.02.53.26 1.22-.27.04-.26.04c-.31.07-.53.14-.54.24-.04.19.06.31.23.35h.07c.04 0 .02.02-.04.05l-.26.1-.67.23-.13.06-.24.1c-.18.08-.3.16-.27.2l.02.05.04.12.08.22 2.55-.56.08.26c.05.12.09.23.13.3l-.58.68c.33.37.34 1.57-.46 1.53l-.2-.01h-.13c-.15 0-.17.05-.09.16l.6.58c.2.25.27.26.54.09.03-.02.04 0 .03.06l-.03.1-.05.14-.08.23-.11.26-.12.27-.19.38-.12.2-.06.11a.94.94 0 01-.03.05c-.13.15-.11.4-.08.63.34.27.67.46 1 .58l.12.03c.32.08.32.35.28.6l-.04.23a.42.42 0 000 .16l.03.15c.01.02-.02.06-.09.12l-.17.15-.23.18 1.73.46-.19.15c-.1.09-.15.14-.12.15.04 0 .08.1.1.24l.02.2c0 .04.01.08.01.12l-1.82 1.9.02.02.14.07.96.42.28.13.08.04c.02 0 .03.02.03.02v.53l-.01.2c0 .23-.12.42-.27.61l-.24.3c-.12.15-.04.2.09.25l.23.07c.16.04.32.11.35.28l1.7 1.17-1.4.82.04.16v.07s0 .01 0 .02l.97 1.5-.48-.1c-.99-.15-1.61-.16-1.87-.02l-.1.06c-.19.15-.6.24-.96.22a4.92 4.92 0 01-1.13-.26l-.3-.1c-.42-.16-.76-.34-.74-.44 0-.01-.03-.03-.08-.05l-.13-.03-.2-.04-.24-.04-.43-.06-.69-.08-.37-.03-.41-.04-.51-.04-.6-.03-.5-.01h-.32l-.47.04c-.28.03-.32.07-.21.17l.08.07.17.12c.13.12.14.18-.04.28l-.14.07-.2.1c-.75.32-1.26.31-1.67-.06l-.09-.1c-.24-.24-.27-.37-.1-.47l.06-.03c.15-.07.12-.13-.13-.22l-.18-.05-.39-.1-.3-.06c-.95-.18-1.16-.03-1.07.66l.02.2c0 .23-.06.3-.29.3h-.18c-.31-.01-.58-.15-.68-.33l-.14-.31-.17.29c-.16.21-.39.28-.9.26-.69-.04-1.58-.51-1.64-.83v-.05c.04-.3-.86-.76-1.57-.8h-.32c-.27 0-.34.06-.32.22l.01.07c.1.55-.66.84-2.16.81l-1.14-.04-.5-.03-.26-.02-.12-.02-.1-.02c-.1-.03-.14-.07-.14-.13v-.07c.02-.1-.13-.2-.33-.22-.16 0-.32.02-.37.09l-.01.03c-.01.06-.21.13-.46.16l-.11.01c-.45.04-.56.1-.6.54l-.03.45c-.04.4-.14.5-.57.62l-.25.06c-.83.22-1.74.22-2.03.05l-.05-.04c-.04-.06-.28-.12-.57-.16l-.27-.02-.13-.01-.29-.01c-.4 0-.55.05-.58.21-.06.34-1.13.8-1.79.76-.25-.01-.47-.05-.5-.11l-.02-.03s0-.01-.02-.03l-.06-.05-.14-.07-.1-.05-.22-.1a6.59 6.59 0 00-.25-.1l-.19-.07a8.63 8.63 0 01-.1-.05l-.37-.18-.4-.2-.4-.22-.19-.11-.2-.12a3.56 3.56 0 00-2.1-.7l-1.01-.05.2.44c.14.31.13.42-.31.61l-.38.16c-.65.26-1 .32-1.83.3h-.45l-.42-.03-.19-.02-.33-.04a2.1 2.1 0 01-.82-.24 4.72 4.72 0 00-1.86-.68l-.23-.02c-.34-.01-.64-.12-.7-.24-.07-.1-.3-.2-.6-.23l-.12-.01c-.34-.02-.9-.16-1.27-.3l-.28-.1c-.36-.13-.5-.1-.83.03-.1.04-.28.08-.5.12l-.28.03-.36.03-.37.02-.93.02-1.38.04c-.5.02-.87 0-1-.08l-.03-.03a.8.8 0 00-.47-.17c-.41-.02-.9.87-.6 1.12.14.1.06.3-.23.61l-.1.1c-.47.45-.6.52-1.15.43-.36-.06-.56-.17-.58-.3v-.06c.05-.31-.5-.5-1.09-.36l-.13.03a1.4 1.4 0 01-.76.01l-.16-.05a3.57 3.57 0 00-.76-.17c-.43-.02-1.13.78-.84.97.33.22.24.35-.34.45l-.13.02c-.78.12-1.4-.13-1.17-.49.06-.08.05-.14-.12-.18l-.13-.03-.17-.02-.34-.03-.66-.04-.37-.02h-.63l-.23.02c-.63.05-.75.22-.4.5.22.2.18.28-.2.48-.26.13-.68.26-.93.3-.63.07-1.64-.32-1.98-.78l-.06-.09c-.24-.43-.7-.54-1.4-.34l-.17.06c-.26.1-.68.17-.9.16-.64-.04-.57.21.01.27h.11c.9.05.98.34.3.7l-.21.1c-.08.04-.17.08-.26.12l-.36.13-.3.1-.26.08c-.48.1-.7.03-.9-.23l-.04-.07c-.12-.2-.34-.36-.48-.38l-.4-.04-.36-.03-.47-.03h-.78l-.14.02c-.26.05-.25.16.06.3l.17.07.2.08.25.08.44.14c.68.2.74.3.68.68-.1.6-.62.83-1.3.57l-.14-.05c-.55-.25-1.62-.38-1.78-.24l-.02.04c0 .02-.09.07-.22.11l-.2.06-.22.06-.26.06-.13.02c-.76.16-1.1.15-1.28.03-.16-.1-.16-.19 0-.3l.08-.05c.25-.14.25-.23-.04-.44l-.18-.13a5.7 5.7 0 00-1.28-.57c-.36-.08-.63-.2-.68-.27l-.01-.02c0-.04-.16-.12-.4-.18l-.22-.05c-.36-.06-.73-.2-.8-.28-.12-.16-1.52.11-1.71.31l-.03.04c0 .04-.1.1-.26.17l-.25.1-.29.09-.2.05c-.24.05-.43.06-.77 0l-.29-.06-.17-.03-.4-.1c-.85-.2-1.35-.4-1.5-.6-.12-.2-.34-.3-.83-.36l-.33-.04-.17-.01-.31-.03c-.47-.07-.68-.17-.66-.3.02-.13.13-.35.23-.5.12-.18-.03-.39-.47-.72l-.13-.1c-.47-.3-.7-.57-.64-.7l.02-.04c.1-.11.07-.19-.08-.22h-.08c-.16-.01-.43-.08-.64-.18l-.12-.05c-.32-.16-.37-.24-.2-.36l.06-.04c.22-.1.26-.24.14-.37-.2-.23-.25-.33.05-.52l.18-.1.39-.2c.14-.07.26-.15.38-.23l.16-.12c.44-.38.57-.78 0-.56-.52.2-1.48.05-1.53-.23-.02-.14.24-.26.79-.36l.45-.08.23-.05c.38-.09.48-.2.54-.47l.04-.17c.07-.3.27-.61.45-.66l.13-.04c.1-.04.1-.06 0-.07l-.14-.01c-.2-.01-.26-.11-.18-.33l.03-.1c.1-.18.08-.35-.01-.4l-.1-.02s-.02 0-.03 0l-.13-.07-.18-.09-.23-.13-.26-.15a2.66 2.66 0 00-1.12-.47c-.8-.04-1.37-.3-1.25-.56l.03-.05c.11-.16.06-.25-.21-.33l-.1-.03c-.27-.06-.41-.2-.43-.36v-.07c.03-.16-.07-.34-.25-.44l-.08-.03c-.23-.1-.3-.24-.19-.37.2-.21.71-.25.96-.1l.08.07c.33.37 1.3-.6.87-.56-.62.04-.83-.01-1.15-.28a1.06 1.06 0 01-.36-.45v-.05c.01-.07-.07-.2-.2-.29l-.09-.05c-.24-.14-.25-.25 0-.63l.07-.1c.3-.43.46-.55.93-.57h.44l.12-.02c.12-.01.13-.04.06-.09l-.08-.05-.11-.06c-.29-.14-.35-.2-.19-.32l.13-.08.53-.27.17-.1c.2-.13.33-.26.22-.37l-.06-.05c-.43-.27-.41-.67-.34-1.02l.06-.3c.05-.24.06-.42-.19-.45l-.24-.02c-.43-.06-.52-.13-.53-.43v-.18c0-.03 0-.07 0-.1.04-.48.18-.71.62-1l.36-.22c.69-.46.64-.68-.14-.75l-.41-.03-.26-.02c-.45-.05-.57-.15-.71-.46-.14-.24-.14-.47 0-.67l.2-.23c.15-.19.17-.25 0-.3l-.13-.02-.19-.04c-.62-.13-.5-.59-.28-.92l.08-.13.09-.1.07-.09a.48.48 0 01.05-.04l.02-.01c.08-.04.25-.17.37-.3.14-.16.08-.22-.25-.25H4.8c-.02 0-.01 0 .01.01l.17.06c.08.02.14.06.08.08-.16.08-.58.1-.96.05l-.22-.03c-.35-.04-.43-.1-.39-.34l.04-.16.03-.09c.08-.26.27-.53.42-.66l.06-.04c.22-.12.2-.2 0-.29-.19-.07-.23-.37-.14-.79.1-.31.1-.67.05-.85l-.02-.06c-.16-.3.17-1.12.5-1.26l.07-.02c.33-.05.1-.3-.3-.31-.16-.01.05-1.48.47-1.2.18.12.25.01.3-.17l.02-.14.03-.23c.02-.1.12-.23.27-.32l.2-.1c.1-.07.05-.1-.18-.12-.2 0-.53.07-.72.17-.43.24-.34-1.43-.18-1.53.15-.08.4-.14.6-.15h.14c.07 0 .08-.02.06-.06l-.03-.07c-.04-.09-.07-.21.18-.34l.83-.44-1.1-.05h-.05l.03.02.15.05c.05.02.09.04.08.06 0 .06-.24.17-.54.27l-.12.03c-.53.16-.66.17-1.05 0l-.14-.06c-1.08-.46-.49-1.12.89-1.1h.15c.56.03.66-.32.2-.62-.15-.11-.27-.28-.29-.42v-.06a.34.34 0 00-.13-.32l-.06-.03c-.32-.13-.2-.63.16-.83l.08-.04c.23-.08.34-.24.33-.5v-.11c-.04-.33.03-.48.38-.63l.22-.09.17-.08c.34-.17.35-.3.04-.38l-.16-.03-.22-.03H5.1l-.62-.04-.4-.04c-.87-.1-1.1-.28-.96-.66.12-.32.27-.4.86-.48l.41-.04.2-.04c.27-.05.29-.13.21-.22l-.05-.05-.2-.17-.08-.07a.82.82 0 01-.07-.08c-.14-.18-.13-.4.06-.73l.26-.43.14-.23.05-.1-.01-.01c-.91.02-1.14-.05-1.79-.45-.76-.47-.75-.81 0-.91l.13-.02c.27-.02.51-.15.53-.27 0-.02 0-.04-.02-.06l-.03-.04c-.02-.03-.02-.06.07-.12l.13-.07.2-.1c.15-.06.3-.12.43-.2l.25-.12c.32-.17.53-.32.54-.4.01-.08.1-.16.19-.18h.06c.29.01.6-.5.37-.6-.08-.04-.25 0-.42.06l-.1.05c-.5.29-1.42.17-2.17-.3l-.67-.4 1.06-.53c.59-.29 1.31-.51 1.58-.5H5.47c.21 0 .23-.06.07-.14l-.11-.05-.15-.06-.2-.06-.22-.06-.27-.07c-.63-.16-.95-.31-.93-.46.02-.1.01-.25 0-.42l-.04-.24c-.06-.33 0-.41.39-.44l.3-.01c.3-.03.38-.1.41-.46l.02-.23c.01-.38-.1-.76-.26-.83l-.17-.08c-.09-.04-.15-.1-.17-.26v-.1c0-.23-.15-.29-.33-.32l-.25-.04c-.28-.06-.23-.33-.1-.63l.1-.21.22-.4c.06-.11.1-.21.12-.28.02-.1.25-.24.53-.3l.31-.08.15-.04c.18-.05.17-.12.04-.29l-.11-.13a1.88 1.88 0 01-.28-.5l-.1-.3c-.06-.15-.11-.24-.24-.27-.44-.08-.56-.17-.49-.42l.03-.07c.08-.23.26-.34.68-.41l.28-.04c.13-.02.13-.04.08-.07l-.22-.1c-.16-.08-.34-.2-.36-.34a.68.68 0 01.14-.42l.15-.22c.08-.13.1-.22-.14-.25l-.1-.01c-.84-.04-.38-1.29-.1-1.08l.05.04c.27.37 1.34-.46.49-.57l-.11-.01c-.58-.03-.58-.25-.47-.5l.06-.13.1-.2.07-.12a.8.8 0 00.05-.19l.02-.12.02-.2c.02-.4.01-1.05-.23-1.54l-.03-.07-.02-.12c-.05-.24-.06-.63.24-.77.5-.22.74-.43.7-.6-.06-.16.06-.3.31-.34l.2-.03c.34-.09.27-.21-.18-.3l-.22-.03c-.56-.06-.67-.15-.66-.49.01-.19.01-.42 0-.58l-.01-.1c-.02-.14.01-.2.2-.23h.58l.48.04c.49.04.49-.05.36-.18l-.07-.07-.12-.1a.7.7 0 01-.18-.2l-.08-.2c-.13-.32-.14-.46.22-.63.1-.05.02-.22-.1-.37l-.2-.28c-.03-.03-.04-.06-.04-.06a.8.8 0 01.63-.53l.1-.02h-.13a2.4 2.4 0 01-1.07-.34c-1.1-.73-1.1-1.8.47-2.27.38-.12.52-.4.61-.68l.1-.3c.08-.2.18-.35.44-.31l.34.05.21.02c.12 0 .13-.02.06-.06l-.14-.08-.06-.03c-.34-.17-.39-.34-.2-.75l-.45-.6c.47-.11.73-.33.78-.65.02-.14-.05-.2-.17-.25l-.25-.08a.9.9 0 01-.36-.21c-.24-.25-.22-.57-.2-.74l.03-.13a.51.51 0 01.11-.24h.01l.05-.01.28-.04.16-.03c.3-.06.63-.2.59-.52l-.02-.1c-.1-.36.02-.59.2-.81l.22-.26.07-.1c.4-.54.33-.87-.24-.94h-.12c-.27-.02-.5-.11-.48-.2-.02-.37.2-.71.47-.8.16-.03.05-.14-.25-.24l-.1-.03c-.65-.21-.73-.35-.52-1.04.18-.5.51-.7 1.23-.7l.16.01c.39.02.71-.03.73-.1 0-.06-.07-.12-.18-.14h-.07c-.69-.04-.94-.46-.8-1.42l.06-.35.06-.3c.12-.53.25-.66.6-.79l.34-.11.52-.2.74-.3c1.27-.54 2.55-.47 4.3.2l.32.14.3.12.26.13.23.11.18.1.05.03.06.05.03.03c.14.17.22.18.51.02.49-.28 2.7-.16 3.38.17.4.19.52.22.74.11l.16-.1.18-.11.08-.06.12-.09.03-.03.01-.02c0-.04.1-.07.24-.1l.17-.03.1-.01c.29-.02.47-.14.54-.32l.02-.08c.04-.26.2-.36.7-.4.95-.1 2.66.52 2.78.98.1.37.3.44 1.01.16l.29-.13.34-.16c.55-.26 1.2-.45 1.7-.51l.2-.02c.57-.03 1.11-.2 1.92-.62l.65-.34.33-.16c.5-.24.77-.29 1.34-.28l.61.03.54.02h.28c.46 0 .65-.06.77-.19l.04-.04c.12-.14.47-.36.74-.48.42-.17.64-.19 1.15-.04.94.26 2.09.28 2.64.04.37-.16.54-.16.74-.03.07.05.23.1.45.14l.27.04.31.03.17.02.78.05 1.33.09 1.05.06.57.03.35.01H46.79c.29-.02.48-.05.52-.11.22-.42 1.4-.95 2.08-.99h.13c.26.02.4-.05.45-.2l.02-.08c.03-.32.56-.42 1.08-.2z" transform="translate(232 184)"/></g></g></svg>
