<svg xmlns="http://www.w3.org/2000/svg" xmlns:xlink="http://www.w3.org/1999/xlink" width="750" height="500"><defs><path id="a" d="M149 110.94c0 13.22 47.01 23.94 105 23.94s105-10.72 105-23.94c3.22-2.66 5.64-4.65 7.25-5.98L508 0H0l142.35 105.45c1.47 1.22 3.7 3.05 6.65 5.49z"/></defs><g fill="none" fill-rule="evenodd"><path fill="#039588" d="M0 0h750v500H0z"/><g transform="translate(121 157)"><g transform="translate(139 83.08)"><path fill="#742A2A" d="M87 140.75c4 22.48 9 52.78 12 73.3 10 6.85 25 1.96 27-1.95 4-18.57 10-63.53 13-67.44 3-3.91-41.31-27.15-52-3.91z"/><path fill="#9C2B2B" d="M15 47.9c12.67 26.06 24.67 45.6 36 58.64 17 19.55 25 28.34 37 38.12 12 9.77 38 9.77 51 0 8-8.8 28-25.41 42-43 14-17.6 29-42.04 34-53.77 2.37-5.55-28.69-17-97-14.66-18.55.64-52.89 5.52-103 14.66z"/><ellipse cx="115" cy="27.856" fill="#9C2B2B" rx="105" ry="23.947"/><path fill="#F66565" stroke="#000" d="M115 55.71c38 0 105-7.79 105-21.01 0-13.23-47.01-23.95-105-23.95S10 21.47 10 34.7C10 47.92 77 55.7 115 55.7z"/><path fill="#C53030" stroke="#000" d="M115.5.5c31.57 0 60.16 3.11 80.85 8.14 10.5 2.56 18.95 5.6 24.73 9 5.36 3.14 8.42 6.57 8.42 10.22 0 3.64-3.06 7.07-8.42 10.22-5.78 3.39-14.24 6.43-24.73 8.99-20.7 5.03-49.28 8.14-80.85 8.14-31.57 0-60.16-3.1-80.85-8.14-10.5-2.56-18.95-5.6-24.73-9C4.56 34.94 1.5 31.5 1.5 27.87c0-3.65 3.06-7.08 8.42-10.23 5.78-3.39 14.24-6.43 24.73-8.99C55.35 3.61 83.93.5 115.5.5zm-.5 2.91c-29.04 0-55.33 2.69-74.36 7.03-9.73 2.22-17.58 4.87-22.93 7.82-2.66 1.46-4.7 3-6.09 4.6-1.4 1.61-2.12 3.29-2.12 5 0 1.7.72 3.38 2.12 5a22.24 22.24 0 006.09 4.6c5.35 2.94 13.2 5.6 22.93 7.82C59.67 49.62 85.96 52.3 115 52.3s55.33-2.68 74.36-7.02c9.73-2.22 17.58-4.88 22.93-7.83 2.66-1.46 4.7-3 6.09-4.59 1.4-1.62 2.12-3.3 2.12-5 0-1.71-.72-3.39-2.12-5a22.24 22.24 0 00-6.09-4.6c-5.35-2.95-13.2-5.6-22.93-7.82C170.33 6.1 144.04 3.4 115 3.4z"/><path fill="#742A2A" d="M115.5 55.71c62.57 0 113.41-12.2 114.48-27.37h.02v9.78C216 53.1 177.67 60.6 115 60.6c-62.04 0-99.9-7.34-113.6-22.03l-.4-.45v-9.77h.02C2.09 43.5 52.93 55.7 115.5 55.7z"/><path fill="#000" fill-rule="nonzero" d="M2 28.35l-.5 9.58.28.31c13.42 14.4 50.56 21.72 111.35 21.87H115c61.9 0 100-7.32 114.2-21.88l.3-.3-.5-9.58h1l.5 9.96-.13.14C216.24 53.58 177.8 61.09 115 61.09c-62.18 0-100.15-7.36-113.97-22.2l-.4-.45-.13-.14.5-9.95h1z"/><path fill="#000" fill-rule="nonzero" d="M16.04 47.97c19.01 40.62 42.81 72.49 71.4 95.6l1.02.83 11 69.39.08.05c3.16 2.33 8.46 3.25 15.83 2.7l.53-.03c4.86-.95 8.74-2.85 9.65-4.63l.03-.06c.2-.53.71-3.24 1.59-8.22l4.38-25.51.72-4.14 1.1-6.13c2.43-13.42 4.14-21.34 5.18-23.38l.1-.19c.57-.95 1.9-2.31 4.7-4.84l5.57-5c2.27-2.05 4.23-3.85 6.24-5.72a265.76 265.76 0 0032.4-36.03 243.09 243.09 0 0026.32-44.47c1-.62 1.5-.9 1.48-.85a244.04 244.04 0 01-26.98 45.9 266.73 266.73 0 01-32.53 36.15c-1.56 1.47-3.1 2.88-4.78 4.4l-6.47 5.81c-3.25 2.94-4.71 4.41-5.15 5.28l-.08.17c-1.12 2.45-3.12 12.13-5.94 28.08l-.71 4.06-4.55 26.51c-.98 5.57-1.49 8.16-1.72 8.62-1.1 2.13-5.21 4.14-10.4 5.15-7.94.65-13.65-.29-17.13-2.86l-.23-.17-.15-.12-11-69.4-.74-.6c-28.7-23.2-52.6-55.2-71.67-95.95l-.59-1.25c.87.29 1.37.57 1.5.85z"/><path fill="#C53030" d="M40 55.71C56.67 98.07 78.33 130 105 151.5c5.33.65 10.67.65 16 0-19-31.28-23-65.49-23-90.9-21.33 0-40.67-1.63-58-4.89z" opacity=".5"/><path fill="#9C2B2B" d="M95 148.57c7.33 2.6 14.33 3.58 21 2.93-2 18.25-3 39.75-3 64.51a20.9 20.9 0 01-9 0c-4.67-29.97-7.67-52.46-9-67.44z" opacity=".5"/></g><mask id="b" fill="#fff"><use xlink:href="#a"/></mask><path fill="#FAF088" stroke="#000" d="M182.94 5.35c.53 0 1.07.27 1.58.9.4.48.78 1.2 1.1 2.15h0l2.26 6.43 6.77.09c1.01.01 1.81.15 2.4.38.75.28 1.18.72 1.35 1.22.16.5.08 1.1-.36 1.77-.34.52-.9 1.1-1.72 1.7h0l-5.46 4 2.08 6.44c.3.96.43 1.76.4 2.38-.04.8-.32 1.34-.75 1.65-.43.3-1.03.4-1.8.2a7.16 7.16 0 01-2.17-1.12h0l-5.58-3.99-5.53 3.94a7 7 0 01-2.16 1.1c-.77.2-1.37.09-1.8-.22-.43-.3-.72-.85-.76-1.64-.04-.63.08-1.42.38-2.39h0l2.06-6.4-5.55-4.08a7.11 7.11 0 01-1.73-1.7c-.44-.68-.53-1.28-.37-1.78.16-.5.58-.93 1.34-1.21a7.08 7.08 0 012.4-.36h0l6.82-.03 2.13-6.4a6.9 6.9 0 011.09-2.15c.5-.62 1.05-.88 1.58-.88z" mask="url(#b)" transform="rotate(-12 182.99 20.06)"/><path fill="#FAF088" stroke="#000" d="M230 90.4c.93 0 1.89.5 2.77 1.57.77.92 1.49 2.29 2.1 4.1h0l4.58 12.99 13.9.12c1.95.02 3.5.26 4.63.69 1.32.5 2.1 1.23 2.39 2.1.29.87.1 1.92-.67 3.08a13.5 13.5 0 01-3.34 3.23h0l-11.25 8.16 4.2 13.04c.59 1.82.82 3.35.76 4.53-.07 1.39-.55 2.34-1.31 2.88-.75.53-1.82.68-3.18.33-1.17-.31-2.58-1-4.17-2.11h0L230 137.08l-11.42 8.03c-1.59 1.1-3 1.8-4.16 2.1-1.36.36-2.43.21-3.19-.32-.75-.54-1.23-1.5-1.3-2.88-.07-1.18.17-2.7.76-4.54h0l4.3-12.97-11.35-8.22a13.48 13.48 0 01-3.34-3.23c-.78-1.16-.96-2.2-.67-3.08.29-.87 1.06-1.6 2.39-2.1 1.13-.43 2.68-.67 4.63-.7h0l14.02-.12 4.44-12.98a13.24 13.24 0 012.11-4.1c.9-1.08 1.85-1.57 2.78-1.57z" mask="url(#b)"/><path fill="#FAF088" stroke="#000" d="M313.58 16.1c.62 0 1.26.3 1.85 1.02.48.58.94 1.43 1.32 2.56h0l2.73 7.8 8.42.03c1.23 0 2.2.16 2.92.42.89.33 1.4.83 1.58 1.4.2.58.09 1.28-.44 2.06a8.59 8.59 0 01-2.11 2.03h0L323 38.37l2.5 7.82c.37 1.14.51 2.1.47 2.84-.05.92-.39 1.55-.9 1.9-.5.36-1.2.48-2.11.25a8.6 8.6 0 01-2.63-1.3h0l-6.89-4.8-6.95 4.86c-1 .7-1.9 1.13-2.63 1.33-.91.24-1.62.13-2.12-.22s-.84-.98-.88-1.9c-.04-.75.11-1.7.5-2.85h0l2.64-7.81-6.85-4.9a8.35 8.35 0 01-2.1-2.02c-.52-.78-.62-1.48-.42-2.06.2-.57.7-1.08 1.59-1.4.71-.28 1.69-.44 2.92-.46h0l8.5-.11 2.73-7.83c.4-1.14.87-2 1.35-2.58.6-.71 1.24-1.03 1.86-1.03z" mask="url(#b)" transform="rotate(13 313.513 33.75)"/><path fill="#FAF088" stroke="#000" d="M117.57 8.29c.68 0 1.37.34 2.01 1.11a9.06 9.06 0 011.46 2.84h0l3.05 8.73 9.37.04c1.36.01 2.44.18 3.22.47.96.36 1.52.9 1.72 1.53.21.63.09 1.39-.48 2.24a9.46 9.46 0 01-2.33 2.25h0l-7.61 5.52 2.8 8.75a9 9 0 01.51 3.15c-.05 1-.41 1.69-.96 2.08-.55.39-1.32.5-2.3.25a9.48 9.48 0 01-2.9-1.45h0l-7.68-5.37-7.73 5.44a9.64 9.64 0 01-2.9 1.46c-.99.27-1.76.15-2.3-.24-.55-.38-.91-1.07-.96-2.07-.04-.83.13-1.88.54-3.16h0l2.94-8.73-7.64-5.5a9.25 9.25 0 01-2.3-2.23c-.57-.84-.69-1.6-.47-2.24.2-.63.76-1.17 1.72-1.53.8-.3 1.87-.48 3.23-.5h0l9.46-.11 3.03-8.75c.44-1.26.95-2.21 1.48-2.85.65-.78 1.34-1.13 2.02-1.13z" mask="url(#b)" transform="rotate(10 117.512 27.881)"/><path fill="#FAF088" stroke="#000" d="M164 50.33c.93 0 1.89.49 2.77 1.56.71.86 1.38 2.1 1.97 3.72l.14.38 4.57 13 13.9.11c1.95.02 3.5.27 4.63.7 1.32.49 2.1 1.23 2.39 2.1.29.87.1 1.92-.67 3.08a12.9 12.9 0 01-3.01 2.98l-.33.25-11.25 8.16 4.2 13.03c.59 1.83.82 3.35.76 4.54-.07 1.38-.55 2.33-1.31 2.87-.75.54-1.82.69-3.18.33-1.09-.29-2.38-.9-3.83-1.88l-.34-.23L164 97.01l-11.42 8.02c-1.59 1.11-3 1.8-4.16 2.11-1.36.36-2.43.2-3.19-.33-.75-.54-1.23-1.49-1.3-2.87-.06-1.1.14-2.5.64-4.15l.12-.39 4.3-12.98-11.35-8.21a13.48 13.48 0 01-3.34-3.23c-.78-1.16-.96-2.21-.67-3.08.29-.87 1.06-1.61 2.39-2.1 1.05-.4 2.46-.64 4.22-.69h.41l14.02-.13L159.1 56a13.24 13.24 0 012.11-4.1c.9-1.08 1.85-1.57 2.78-1.57zm.5 5.67v36.56l8.82 6.2.5.33.36.24a54.3 54.3 0 004.35 2.74c.41.2.74.35 1.19.16 0-.3-.07-.68-.2-1.16-.3-1.27-.97-3.15-1.87-5.72h0l-3.35-10.39 8.96-6.49.36-.27c2.05-1.49 3.57-2.6 4.52-3.42.58-.51 1.05-.87.9-1.18-.22-.1-.55-.16-.98-.22a53.4 53.4 0 00-5.35-.15h0-1.2l-11.05-.1-3.63-10.33-.14-.45a80.27 80.27 0 00-1.96-5.84 8.66 8.66 0 00-.2-.46h0l-.03-.05z" mask="url(#b)" transform="rotate(-48 164 78.831)"/><path fill="#FAF088" stroke="#000" d="M302 66.94c.93 0 1.89.5 2.77 1.57.71.86 1.38 2.1 1.97 3.72l.14.38 4.57 12.99 13.9.12c1.95.02 3.5.27 4.63.69 1.32.5 2.1 1.23 2.39 2.1.29.88.1 1.92-.67 3.09a12.9 12.9 0 01-3.01 2.98l-.33.24-11.25 8.17 4.2 13.03c.59 1.83.82 3.35.76 4.54-.07 1.38-.55 2.33-1.31 2.87-.75.53-1.82.68-3.18.33-1.09-.29-2.38-.9-3.83-1.88l-.34-.23-11.41-8.02-11.42 8.02c-1.59 1.1-3 1.8-4.16 2.1-1.36.36-2.43.21-3.19-.32-.75-.54-1.23-1.5-1.3-2.87-.06-1.1.14-2.5.64-4.16l.12-.38 4.3-12.98-11.35-8.22a13.48 13.48 0 01-3.34-3.22c-.78-1.17-.96-2.21-.67-3.09.29-.87 1.06-1.6 2.39-2.1 1.05-.4 2.46-.64 4.22-.68h.41l14.02-.13 4.44-12.99a13.24 13.24 0 012.11-4.1c.9-1.07 1.85-1.57 2.78-1.57zm.5 5.67v36.57l8.56 6.02.37.24a74.26 74.26 0 004.9 3.14c.46.24.82.41 1.39.32 0-.28-.06-.66-.17-1.14-.31-1.26-.98-3.17-1.9-5.8h0l-3.35-10.38 8.96-6.5.37-.26a75.75 75.75 0 004.53-3.45c.56-.49 1.04-.84.86-1.16a4 4 0 00-1.03-.22 59.23 59.23 0 00-5.57-.15h0-.92l-11.04-.1-3.63-10.32-.14-.45a80.27 80.27 0 00-1.96-5.84 8.66 8.66 0 00-.2-.47h0l-.03-.05z" mask="url(#b)" transform="rotate(7 302 95.447)"/><path fill="#FAF088" stroke="#000" d="M398.5 3.41c.62 0 1.26.31 1.86 1.02.43.53.85 1.27 1.21 2.24l.12.33 2.77 7.8 8.44.08c1.23.01 2.2.17 2.92.43.89.33 1.4.83 1.59 1.4.2.59.09 1.28-.44 2.06a8.01 8.01 0 01-1.84 1.83l-.26.2-6.83 4.9 2.55 7.82a8.1 8.1 0 01.48 2.84c-.05.92-.38 1.55-.9 1.9-.5.36-1.2.47-2.11.23a8.26 8.26 0 01-2.36-1.13l-.27-.18-6.93-4.83-6.93 4.83a8.7 8.7 0 01-2.63 1.31c-.91.24-1.62.13-2.12-.23-.5-.35-.84-.98-.9-1.9-.03-.68.1-1.52.4-2.54l.09-.3 2.6-7.8-6.88-4.93c-1-.7-1.69-1.4-2.1-2.02-.53-.78-.63-1.47-.44-2.05.2-.58.7-1.08 1.59-1.4.65-.25 1.51-.4 2.6-.43l.32-.01 8.5-.08 2.7-7.8c.4-1.13.86-1.99 1.34-2.57.6-.7 1.24-1.02 1.86-1.02zm0 4.25v21.17l5.26 3.6.29.19c1.32.86 2.3 1.49 2.98 1.85.16.08.3.12.49-.27-.14-.55-.39-1.29-.73-2.25h0l-.21-.6c-.08-.2-.16-.43-.24-.65h0l-2.13-6.46 5.7-4.02.2-.14c1.66-1.16 3.08-1.93 2.94-2.59-.65-.08-1.69-.1-3.12-.1h0-1l-7.02-.06-2.32-6.4-.12-.38c-.35-1.1-.64-2-.9-2.7h0l-.06-.19z" mask="url(#b)" transform="rotate(24 398.5 21.015)"/><path fill="#FAF088" stroke="#000" d="M238.5 22.96c.84 0 1.7.44 2.5 1.41.62.77 1.22 1.87 1.74 3.3l.13.37 4.02 11.52 12.23.11c1.74.02 3.11.24 4.12.62 1.19.45 1.88 1.12 2.14 1.9.26.8.1 1.74-.6 2.8-.54.82-1.41 1.71-2.64 2.65l-.32.23-9.9 7.24 3.7 11.57c.51 1.63.72 2.99.67 4.05-.07 1.25-.5 2.11-1.18 2.6-.68.48-1.64.62-2.86.3-.96-.25-2.1-.8-3.38-1.66l-.33-.22-10.04-7.12-10.05 7.12c-1.41.99-2.66 1.6-3.7 1.88-1.22.32-2.18.18-2.86-.3-.68-.49-1.12-1.35-1.18-2.6-.05-.98.12-2.21.56-3.69l.12-.37 3.79-11.51-10-7.29a12 12 0 01-2.97-2.89c-.7-1.05-.85-2-.6-2.79.27-.78.96-1.45 2.15-1.9a11.7 11.7 0 013.72-.61h.4l12.33-.12 3.92-11.52c.55-1.62 1.2-2.84 1.87-3.67.8-.97 1.66-1.41 2.5-1.41zm-.09 5.05a5 5 0 00-.5.99c-.47 1.16-1.05 3.02-1.84 5.6h0l-3.11 9.23-9.8.1h-1.77c-1.84 0-3.19.02-4.07.14-.33.05-.59.1-.82.16-.05.67 1.95 1.9 5.15 4.27h0l7.95 5.84-3.02 9.25-.14.4a60.64 60.64 0 00-1.52 4.76c-.1.42-.15.75.02 1.1.25-.07.56-.22.95-.43 1.04-.57 2.55-1.6 4.63-3.02h0l7.98-5.7 7.98 5.7.36.25a64.23 64.23 0 004.27 2.77c.39.21.7.36 1.12.32 0-.24-.05-.57-.15-1-.27-1.12-.86-2.81-1.67-5.15h0l-2.94-9.29 7.88-5.8.28-.21c3.04-2.23 4.92-3.4 4.81-4.04a2.79 2.79 0 00-.76-.18c-.94-.12-2.41-.14-4.45-.15h0-1.38l-9.73-.08-3.2-9.24-.13-.43a71.81 71.81 0 00-1.7-5.17c-.18-.44-.35-.77-.68-.99z" mask="url(#b)"/><path fill="#FAF088" stroke="#000" d="M366.5 41.53c.84 0 1.7.44 2.5 1.41.62.77 1.22 1.87 1.74 3.3l.13.37 4.02 11.52 12.23.11c1.74.02 3.11.24 4.12.62 1.19.45 1.88 1.12 2.14 1.9.26.8.1 1.74-.6 2.8-.54.82-1.41 1.71-2.64 2.65l-.32.23-9.9 7.24 3.7 11.57c.51 1.63.72 2.99.67 4.05-.07 1.25-.5 2.11-1.18 2.6-.68.49-1.64.63-2.86.3-.96-.25-2.1-.8-3.38-1.66l-.33-.22-10.04-7.12-10.05 7.12c-1.41.99-2.66 1.6-3.7 1.88-1.22.32-2.18.18-2.86-.3-.68-.49-1.12-1.35-1.18-2.6-.05-.98.12-2.21.56-3.68l.12-.38 3.79-11.51-10-7.29a12 12 0 01-2.97-2.88c-.7-1.06-.85-2-.6-2.8.27-.78.96-1.45 2.15-1.9a11.7 11.7 0 013.72-.61h.4l12.33-.12 3.92-11.52c.55-1.62 1.2-2.84 1.87-3.67.8-.97 1.66-1.41 2.5-1.41zm-.09 5.05a5 5 0 00-.5.99c-.47 1.16-1.05 3.02-1.84 5.6h0l-3.11 9.23-9.8.1h-1.77c-1.84 0-3.19.02-4.07.14-.33.05-.59.1-.82.16-.05.67 1.95 1.9 5.15 4.27h0l7.95 5.84-3.02 9.25-.14.4a60.64 60.64 0 00-1.52 4.76c-.1.42-.15.75.02 1.1.25-.07.56-.22.95-.43 1.04-.57 2.55-1.6 4.63-3.02h0l7.98-5.7 7.98 5.7.36.25a64.23 64.23 0 004.27 2.77c.39.21.7.36 1.12.33 0-.25-.05-.58-.15-1-.27-1.13-.86-2.82-1.67-5.16h0l-2.94-9.29 7.88-5.8.28-.2c3.04-2.24 4.92-3.42 4.81-4.05a2.79 2.79 0 00-.76-.18c-.94-.12-2.41-.14-4.45-.15h0-1.38l-9.73-.08-3.2-9.24-.14-.47a193 193 0 00-1-3.17h0l-.18-.57c-.19-.54-.36-1-.51-1.39-.18-.44-.35-.77-.68-.99z" mask="url(#b)" transform="rotate(40 366.5 66.953)"/></g><path fill="#FFF" fill-rule="nonzero" d="M275.42 121V99.41h21.84V86.48h-21.84V75.14h22.26V62.2h-35.7V121h13.44zm36.12-45.7a7.64 7.64 0 007.56-7.56 7.64 7.64 0 00-7.56-7.56 7.64 7.64 0 00-7.56 7.56 7.64 7.64 0 007.56 7.56zm6.3 45.7V79h-12.6v42h12.6zm21.84 0V59.68h-12.6V121h12.6zm33.85 0v-11.42c-5.54.33-8.65 0-8.65-3.62V91.1h8.65V79h-8.65V67.24l-12.6 3.78V79h-6.72v12.1h6.72v14.86c0 11.76 4.79 16.72 21.25 15.04zm27.47 1.18c7.98 0 14.2-2.94 18.31-8.66l-10.08-5.8c-1.68 1.86-4.62 3.2-8.06 3.2-4.62 0-8.49-1.51-10.08-5.88h29.82c.33-1.6.5-3.28.5-5.04 0-12.68-9.07-22.18-21.34-22.18-13.27 0-22.34 9.66-22.34 22.18s8.9 22.18 23.27 22.18zm7.9-26.55h-18.07C392.01 91.35 395.2 89 400 89c3.78 0 7.56 1.76 8.9 6.63zM441.14 121v-18.98c0-8.32 7.4-10.42 12.6-9.58V78.16c-5.3 0-10.92 2.69-12.6 8.32V79h-12.6v42h12.6zm32.34 1.18c9.07 0 17.47-4.12 17.47-13.78 0-15.54-20.66-12.35-20.66-17.14 0-1.5 1.34-2.35 3.53-2.35 2.77 0 4.45 1.51 5.62 3.7l10.76-5.8c-3.53-5.96-9.58-8.99-16.38-8.99-8.74 0-16.47 4.62-16.47 13.78 0 14.53 20.67 12.1 20.67 16.72 0 1.68-1.52 2.6-4.54 2.6-3.7 0-6.05-1.76-7.14-4.96l-10.92 6.22c3.28 6.8 9.66 10 18.06 10z"/></g></svg>