<svg xmlns="http://www.w3.org/2000/svg" width="2200" height="1100"><title>tripadvisor</title><desc>Created with Sketch.</desc><g fill="none"><path fill="#00A680" d="M0 0h2200v1100H0z"/><path id="Shape" fill="#00AF87" d="M1471.44 1148.7c-5.22-19.06 4.76-39.34 23.6-46.57 11.17-4.3 23.1-3.08 32.82 2.3l9.1 61.06c-3.5 3.6-7.74 6.6-12.62 8.67l-52.9-25.5zm-121.63-58.62c-2.42-17.52 7.4-35.05 24.6-41.66 20.08-7.7 42.58 2.32 50.28 22.38 6.9 17.98-.43 37.93-16.48 47.4l-58.4-28.12zm-120.96-58.3c-.3-15.9 9.25-31.03 24.96-37.06 20.05-7.7 42.55 2.32 50.25 22.38 6.33 16.48.7 34.6-12.65 44.83l-62.57-30.15zm277.9-69.37c-6.06-4.26-10.97-10.33-13.83-17.8-5.04-13.15-2.46-27.36 5.57-37.76l8.27 55.58zM682.6 1170.9c-3.2-3.5-5.8-7.64-7.6-12.33-7.7-20.06 2.3-42.56 22.37-50.26 20.05-7.7 42.56 2.34 50.25 22.4 1.02 2.65 1.73 5.34 2.15 8.04l-67.17 32.17zm82.6-39.57c-1.18-1.94-2.2-4.02-3.05-6.22-7.7-20.04 2.32-42.54 22.38-50.24 20.06-7.7 42.56 2.32 50.26 22.38.06.22.14.43.22.65l-69.83 33.44zm83.92-40.2c-7.33-19.92 2.68-42.1 22.57-49.74 17.9-6.9 37.74.36 47.27 16.26l-69.86 33.47zm85.24-40.82c-2.82-17.74 7.03-35.65 24.5-42.36 15.4-5.9 32.27-1.36 42.74 10.17l-67.24 32.2zm86.74-41.53c.78-14.87 10.12-28.6 24.9-34.28 12.73-4.9 26.43-2.65 36.72 4.75l-61.62 29.52zm87.27-35.03c1.34-14.26 10.53-27.23 24.8-32.7 20.06-7.7 42.56 2.3 50.26 22.36 5.78 15.05 1.58 31.47-9.35 42l-65.7-31.67zm386.46-91.33c-15.3-.36-29.57-9.8-35.4-24.95-7.7-20.05 2.33-42.56 22.4-50.25.56-.23 1.14-.44 1.72-.63l11.28 75.83zm-820.4 213.83l12.38-76.6c12.1 2.86 22.6 11.44 27.38 23.9 7.7 20.06-2.32 42.56-22.38 50.26-5.73 2.2-11.64 2.94-17.36 2.43zM1470.4 718.3l10.75 72.08c-1.56.86-3.2 1.62-4.9 2.28-20.06 7.7-42.56-2.32-50.26-22.38-7.7-20.06 2.3-42.56 22.37-50.26 7.3-2.8 14.93-3.25 22.05-1.73zM697.24 955.14l7.5-46.5c3.62-3.43 7.95-6.23 12.9-8.12 20.05-7.7 42.55 2.32 50.25 22.37 7.7 20.05-2.32 42.55-22.38 50.25-18.55 7.12-39.18-.9-48.28-18zm795.36-288.36c-5.64-4.25-10.2-10.07-12.9-17.14-7.7-20.05 2.32-42.56 22.37-50.26 16.6-6.37 34.87-.6 45.04 12.94l-54.5 54.45zM1642 517.56c-9.5-3.94-17.46-11.63-21.44-22-7.7-20.05 2.32-42.55 22.38-50.25 19.75-7.57 41.87 2.03 49.9 21.48L1642 517.56zM728.7 760.34l10-61.9-4.2-4.23c1.1-.53 2.2-1.03 3.37-1.47 20.05-7.7 42.56 2.32 50.26 22.37 7.7 20.06-2.32 42.56-22.38 50.26-12.86 4.94-26.73 2.6-37.06-5.02zm977.06-437.94l20.87 3.17c9 4.06 16.45 11.54 20.27 21.48 7.7 20.06-2.33 42.56-22.4 50.26-20.04 7.7-42.55-2.3-50.24-22.36-7.7-20.06 2.3-42.56 22.37-50.26 3-1.15 6.06-1.9 9.12-2.28zm87.75 43.83c-14-1.55-26.67-10.68-32.07-24.74-1.4-3.63-2.2-7.33-2.5-11l61.08 9.27-26.5 26.47zM721.1 680.73l-41.55-41.9c1.16-14.47 10.4-27.7 24.85-33.24 20.06-7.7 42.56 2.3 50.26 22.35 7.7 20.06-2.32 42.56-22.38 50.26-3.68 1.4-7.45 2.24-11.2 2.5zm830.84-381.7l76.78 11.68c-1.27 14.36-10.48 27.44-24.83 32.95-20.07 7.7-42.57-2.32-50.27-22.38-2.83-7.36-3.27-15.05-1.7-22.22zm-203.7-30.95l72 10.94c3.9 18.4-6 37.42-24.13 44.37-20.03 7.7-42.54-2.33-50.23-22.4-4.3-11.2-3.07-23.2 2.37-32.93zm95.05 14.44l42.3 6.44c-.77.34-1.54.67-2.34.98-14.12 5.42-29.46 2.05-39.98-7.42zM528.26 486.25c3.93-9.55 11.63-17.53 22.04-21.53 20.07-7.7 42.57 2.32 50.27 22.38 7.63 19.88-2.14 42.15-21.84 50.04l-50.46-50.9zm753.46-286.13l18.1 40.15c-2.34 12.93-11.18 24.37-24.35 29.42-20.06 7.7-42.56-2.34-50.26-22.4-7.7-20.05 2.3-42.55 22.37-50.25 11.7-4.5 24.2-2.96 34.13 3.06zm-499.4 75.77l8.4-1.3c16.2-.63 31.73 8.98 37.87 24.95 7.7 20.06-2.3 42.56-22.37 50.26-20.06 7.7-42.56-2.3-50.26-22.37-7.7-20.05 2.32-42.56 22.38-50.25 1.32-.52 2.65-.95 3.98-1.3zm60.55-9.17l47.36-7.16 6.58-14.33c8.4 4.2 15.3 11.4 18.93 20.85 7.7 20.05-2.32 42.55-22.38 50.25-20.07 7.7-42.57-2.32-50.27-22.37-3.5-9.13-3.34-18.75-.24-27.26zm397.96-157.28l23.23 51.5c-3.94 9.58-11.65 17.57-22.06 21.57-20.05 7.7-42.55-2.32-50.25-22.38-7.7-20.05 2.32-42.56 22.37-50.26 8.93-3.43 18.34-3.35 26.7-.44zm-807.8 219.23c5.9 4.27 10.66 10.25 13.46 17.55 6.32 16.47.7 34.6-12.62 44.8L380 336.7l53.03-8.02zm25.44-3.84l75.43-11.4c7.25 19.88-2.77 41.98-22.6 49.6-20.06 7.7-42.56-2.33-50.26-22.38-2-5.2-2.8-10.6-2.55-15.82zm91.4-13.82L622.84 300c-2.3 13-11.16 24.5-24.38 29.57-18.74 7.2-39.6-1.07-48.56-18.55zm369.64-115.16l32.4-70.52c7.76 4.28 14.12 11.2 17.55 20.14 7.7 20.06-2.32 42.56-22.38 50.26-9.25 3.55-19 3.34-27.6.12zm281.3-175.22l26.7 59.22c-4.33 6.83-10.8 12.4-18.94 15.5-20.06 7.7-42.56-2.3-50.26-22.37-7.7-20.08 2.32-42.58 22.38-50.28 6.64-2.55 13.55-3.15 20.1-2.1zm-226.14 55.1l32.27-70.25c7.16 4.3 13 10.94 16.22 19.35 7.7 20.06-2.32 42.56-22.37 50.26-8.72 3.36-17.9 3.36-26.12.64zM1161.28-67l29.13 64.6c-4 4.58-9.2 8.3-15.27 10.63-20.06 7.7-42.56-2.3-50.26-22.37-7.7-20.06 2.32-42.56 22.38-50.26 4.62-1.77 9.37-2.6 14.04-2.6zm-131.4 22.6l32.08-69.88c6.57 4.32 11.9 10.65 14.92 18.55 7.7 20.05-2.32 42.55-22.38 50.25-8.2 3.15-16.8 3.34-24.63 1.1zm92.28-109.36l30.74 68.17c-3.25 2.77-7.02 5.04-11.24 6.66-20.06 7.7-42.56-2.32-50.26-22.38-7.7-20.06 2.32-42.56 22.38-50.26 2.76-1.05 5.57-1.77 8.38-2.18zm-37.08-10.85l16.24-35.38 13.73 30.45c-2.12 1.35-4.4 2.5-6.85 3.43-7.67 2.95-15.7 3.3-23.12 1.5zm404.38 1252.22c-20.06 7.7-42.56-2.32-50.26-22.38-7.7-20.05 2.32-42.55 22.37-50.25 20.06-7.7 42.56 2.3 50.26 22.36 7.7 20.06-2.32 42.56-22.37 50.26zm-120.62-53.7c-20.06 7.7-42.56-2.32-50.26-22.38-7.7-20.06 2.32-42.56 22.37-50.26 20.06-7.7 42.56 2.32 50.26 22.38 7.7 20.06-2.3 42.56-22.35 50.26zm87.16-33.46c-20.06 7.7-42.56-2.32-50.26-22.38-7.7-20.05 2.32-42.56 22.38-50.25 20.05-7.7 42.55 2.32 50.25 22.38 7.7 20.07-2.32 42.57-22.37 50.27zm-207.78-20.25c-20.06 7.7-42.56-2.3-50.26-22.37-7.7-20.06 2.32-42.56 22.37-50.26 20.06-7.7 42.56 2.32 50.26 22.38 7.7 20.05-2.34 42.56-22.4 50.25zm87.16-33.45c-20.06 7.7-42.56-2.32-50.26-22.38-7.7-20.06 2.32-42.56 22.38-50.26 20.05-7.7 42.55 2.33 50.25 22.4 7.7 20.05-2.3 42.55-22.37 50.25zm87.16-33.46c-20.06 7.7-42.56-2.33-50.26-22.4-7.7-20.05 2.32-42.55 22.38-50.25 20.05-7.7 42.56 2.32 50.26 22.38 7.7 20.06-2.32 42.56-22.38 50.26zm-643.6 147.03c-20.05 7.7-42.55-2.32-50.25-22.37-7.7-20.06 2.3-42.56 22.36-50.26 20.06-7.7 42.56 2.3 50.26 22.37 7.7 20.05-2.32 42.55-22.38 50.25zm87.17-33.45c-20.03 7.7-42.54-2.32-50.23-22.38-7.7-20.07 2.3-42.57 22.37-50.27 20.06-7.7 42.56 2.32 50.26 22.38 7.7 20.07-2.33 42.58-22.4 50.28zm87.18-33.46c-20.05 7.7-42.55-2.3-50.25-22.37-7.7-20.06 2.32-42.56 22.37-50.26 20.05-7.7 42.55 2.3 50.25 22.37 7.7 20.06-2.32 42.56-22.38 50.26zm87.17-33.45c-20.06 7.7-42.56-2.32-50.26-22.38-7.7-20.06 2.3-42.57 22.36-50.27 20.06-7.68 42.56 2.33 50.26 22.4 7.7 20.05-2.3 42.55-22.36 50.25zm87.16-33.46c-20.05 7.7-42.55-2.32-50.25-22.4-7.7-20.03 2.32-42.53 22.38-50.23 20.05-7.7 42.55 2.32 50.25 22.37 7.7 20.06-2.32 42.56-22.37 50.26zm87.17-33.46c-20.06 7.7-42.56-2.32-50.26-22.37-7.7-20.06 2.33-42.56 22.4-50.26 20.04-7.7 42.55 2.33 50.24 22.38 7.7 20.06-2.3 42.56-22.37 50.26zm87.16-33.46c-20.06 7.7-42.56-2.3-50.26-22.37-7.7-20.05 2.32-42.55 22.38-50.25 20.06-7.7 42.56 2.32 50.26 22.38 7.7 20.05-2.3 42.56-22.37 50.25zm87.16-33.45c-20.07 7.7-42.57-2.32-50.27-22.38-7.7-20.06 2.32-42.56 22.38-50.26 20.07-7.7 42.57 2.3 50.27 22.37 7.7 20.06-2.32 42.56-22.38 50.26zM832.65 939.7c-20.06 7.7-42.56-2.3-50.26-22.37-7.7-20.06 2.32-42.56 22.37-50.26 20.06-7.7 42.56 2.32 50.26 22.38 7.7 20.05-2.32 42.55-22.37 50.25zm87.16-33.45c-20.06 7.7-42.56-2.32-50.26-22.38-7.7-20.06 2.32-42.56 22.37-50.26 20.06-7.7 42.56 2.34 50.26 22.4 7.7 20.06-2.34 42.56-22.4 50.26zm87.16-33.46c-20.06 7.7-42.56-2.34-50.26-22.4-7.7-20.06 2.32-42.56 22.38-50.26 20.05-7.7 42.55 2.32 50.25 22.38 7.7 20.06-2.3 42.56-22.37 50.26zm87.16-33.48c-20.06 7.7-42.56-2.32-50.26-22.38-7.7-20.05 2.32-42.56 22.38-50.25 20.05-7.7 42.56 2.3 50.26 22.36 7.7 20.06-2.32 42.56-22.38 50.26zm87.16-33.46c-20.06 7.7-42.56-2.32-50.26-22.37-7.7-20.07 2.32-42.57 22.38-50.27 20.06-7.7 42.56 2.32 50.26 22.37 7.7 20.07-2.32 42.57-22.38 50.27zm87.16-33.46c-20.06 7.7-42.56-2.3-50.26-22.36-7.7-20.06 2.32-42.56 22.38-50.26 20.06-7.7 42.56 2.32 50.26 22.38 7.7 20.05-2.32 42.55-22.38 50.25zm87.16-33.44c-20.05 7.7-42.56-2.32-50.26-22.38-7.7-20.06 2.32-42.56 22.38-50.26 20.06-7.7 42.56 2.32 50.26 22.38 7.7 20.05-2.32 42.56-22.38 50.26zm87.16-33.46c-20.05 7.7-42.55-2.32-50.25-22.38-7.7-20.06 2.32-42.56 22.37-50.26 20.06-7.7 42.56 2.32 50.26 22.38 7.7 20.06-2.32 42.56-22.38 50.26zM799.2 852.54c-20.06 7.7-42.56-2.32-50.26-22.37-7.7-20.06 2.32-42.56 22.38-50.26 20.05-7.7 42.55 2.34 50.25 22.4 7.7 20.05-2.32 42.55-22.37 50.25zm87.16-33.46c-20.06 7.7-42.56-2.3-50.26-22.37-7.7-20.04 2.32-42.54 22.38-50.24 20.05-7.7 42.56 2.32 50.25 22.38 7.7 20.05-2.3 42.56-22.37 50.25zm87.16-33.45c-20.06 7.7-42.56-2.32-50.26-22.38-7.7-20.06 2.32-42.56 22.38-50.26 20.06-7.7 42.56 2.3 50.26 22.36 7.7 20.06-2.32 42.56-22.38 50.26zm87.16-33.46c-20.06 7.7-42.56-2.32-50.26-22.38-7.7-20.08 2.32-42.58 22.38-50.28 20.06-7.7 42.56 2.32 50.26 22.38 7.7 20.07-2.32 42.57-22.38 50.27zm87.16-33.46c-20.06 7.7-42.56-2.3-50.26-22.36-7.7-20.05 2.32-42.55 22.38-50.25 20.06-7.7 42.56 2.3 50.26 22.36 7.7 20.06-2.32 42.56-22.38 50.26zm87.16-33.44c-20.05 7.7-42.56-2.32-50.25-22.37-7.7-20.07 2.3-42.57 22.37-50.27 20.06-7.7 42.56 2.32 50.26 22.37 7.7 20.05-2.32 42.55-22.38 50.25zm87.16-33.46c-20.05 7.7-42.55-2.32-50.25-22.38-7.7-20.06 2.34-42.56 22.4-50.26 20.05-7.7 42.55 2.32 50.25 22.38 7.7 20.05-2.32 42.55-22.38 50.25zm87.17-33.46c-20.06 7.7-42.56-2.32-50.26-22.38-7.7-20.06 2.32-42.56 22.37-50.26 20.06-7.7 42.56 2.32 50.26 22.38 7.7 20.06-2.32 42.56-22.37 50.26zm87.16-33.46c-20.08 7.7-42.58-2.32-50.28-22.38-7.7-20.06 2.32-42.56 22.38-50.26 20.06-7.7 42.56 2.32 50.26 22.38 7.7 20.06-2.3 42.56-22.37 50.26zm87.14-33.46c-20.06 7.7-42.56-2.32-50.26-22.38-7.7-20.05 2.3-42.56 22.37-50.25 20.05-7.7 42.56 2.3 50.26 22.35 7.7 20.06-2.3 42.56-22.37 50.26zM852.9 731.92c-20.06 7.7-42.56-2.32-50.26-22.37-7.7-20.06 2.32-42.56 22.38-50.26 20.06-7.7 42.56 2.3 50.26 22.36 7.7 20.05-2.32 42.55-22.38 50.25zm87.16-33.45c-20.06 7.7-42.56-2.32-50.26-22.38-7.7-20.08 2.32-42.58 22.38-50.28 20.06-7.7 42.56 2.32 50.26 22.38 7.7 20.06-2.32 42.57-22.38 50.27zm87.16-33.46c-20.05 7.7-42.56-2.3-50.26-22.36-7.7-20.06 2.32-42.56 22.38-50.26 20.06-7.7 42.56 2.32 50.26 22.38 7.7 20.06-2.32 42.56-22.38 50.26zm87.16-33.44c-20.05 7.7-42.55-2.32-50.25-22.38-7.7-20.05 2.3-42.56 22.37-50.26 20.06-7.68 42.56 2.33 50.26 22.4 7.7 20.05-2.32 42.55-22.38 50.25zm87.17-33.46c-20.06 7.7-42.56-2.33-50.26-22.4-7.7-20.04 2.3-42.54 22.35-50.24 20.06-7.7 42.56 2.32 50.26 22.37 7.7 20.06-2.3 42.56-22.36 50.26zm87.16-33.47c-20.04 7.7-42.54-2.32-50.24-22.37-7.7-20.06 2.32-42.56 22.38-50.26 20.05-7.7 42.55 2.32 50.25 22.37 7.7 20.06-2.33 42.56-22.38 50.26zm87.18-33.46c-20.06 7.7-42.56-2.3-50.26-22.37-7.7-20.06 2.33-42.56 22.4-50.26 20.04-7.7 42.55 2.32 50.24 22.38 7.7 20.05-2.3 42.56-22.37 50.25zm87.16-33.45c-20.06 7.7-42.56-2.32-50.26-22.38-7.7-20.06 2.32-42.56 22.38-50.26 20.06-7.7 42.56 2.32 50.26 22.38 7.7 20.06-2.3 42.56-22.37 50.26zm87.16-33.46c-20.07 7.7-42.57-2.32-50.27-22.38-7.7-20.06 2.32-42.56 22.38-50.26 20.08-7.7 42.58 2.32 50.28 22.38 7.7 20.06-2.32 42.56-22.38 50.26zm87.15-33.46c-20.06 7.7-42.56-2.32-50.26-22.38-7.7-20.05 2.3-42.55 22.36-50.25 20.06-7.7 42.56 2.3 50.26 22.37 7.7 20.06-2.32 42.56-22.38 50.26zm-817.9 213.96c-20.07 7.7-42.57-2.32-50.27-22.37-7.7-20.08 2.32-42.58 22.38-50.28 20.06-7.7 42.56 2.32 50.26 22.37 7.7 20.05-2.32 42.55-22.38 50.25zm87.15-33.46c-20.05 7.7-42.56-2.3-50.25-22.37-7.7-20.06 2.3-42.56 22.37-50.26 20.06-7.7 42.56 2.32 50.26 22.38 7.7 20.05-2.32 42.55-22.38 50.25zm87.16-33.45c-20.05 7.7-42.55-2.32-50.25-22.38-7.7-20.06 2.34-42.56 22.4-50.26 20.05-7.7 42.55 2.34 50.25 22.4 7.7 20.06-2.32 42.56-22.38 50.26zm87.17-33.46c-20.06 7.7-42.56-2.34-50.26-22.4-7.7-20.06 2.32-42.56 22.37-50.26 20.06-7.7 42.56 2.32 50.26 22.38 7.7 20.06-2.32 42.56-22.37 50.26zm87.16-33.48c-20.08 7.7-42.58-2.32-50.28-22.38-7.7-20.05 2.32-42.56 22.38-50.25 20.06-7.7 42.56 2.3 50.26 22.36 7.7 20.06-2.32 42.56-22.37 50.26zm87.14-33.46c-20.06 7.7-42.56-2.32-50.26-22.37-7.7-20.07 2.3-42.57 22.37-50.27 20.05-7.7 42.56 2.32 50.26 22.37 7.7 20.07-2.3 42.57-22.37 50.27zM1342.4 444c-20.05 7.7-42.55-2.3-50.25-22.36-7.7-20.06 2.32-42.56 22.38-50.26 20.06-7.7 42.56 2.32 50.26 22.38 7.7 20.05-2.34 42.55-22.4 50.25zm87.17-33.44c-20.06 7.7-42.56-2.32-50.26-22.38-7.7-20.06 2.34-42.56 22.4-50.26 20.06-7.7 42.56 2.32 50.26 22.38 7.7 20.05-2.32 42.56-22.38 50.26zm87.16-33.46c-20.05 7.7-42.56-2.32-50.26-22.38-7.7-20.06 2.32-42.56 22.38-50.26 20.06-7.7 42.56 2.32 50.26 22.38 7.7 20.06-2.3 42.56-22.36 50.26zm-817.9 213.96c-20.06 7.7-42.57-2.32-50.27-22.38-7.7-20.06 2.32-42.56 22.38-50.26 20.06-7.7 42.56 2.32 50.26 22.38 7.7 20.06-2.32 42.56-22.38 50.26zm87.15-33.46c-20.05 7.7-42.55-2.32-50.25-22.38-7.7-20.05 2.3-42.55 22.37-50.25 20.06-7.7 42.56 2.32 50.26 22.37 7.7 20.06-2.32 42.56-22.38 50.26zm87.17-33.46c-20.06 7.7-42.56-2.32-50.26-22.37-7.7-20.06 2.3-42.56 22.35-50.26 20.06-7.7 42.56 2.34 50.26 22.4 7.7 20.05-2.3 42.55-22.36 50.25zm87.16-33.46c-20.04 7.7-42.54-2.3-50.24-22.37-7.7-20.04 2.32-42.54 22.37-50.24 20.06-7.7 42.56 2.32 50.26 22.38 7.7 20.05-2.33 42.56-22.38 50.25zm87.18-33.45c-20.06 7.7-42.56-2.32-50.26-22.38-7.7-20.06 2.33-42.56 22.4-50.26 20.04-7.7 42.54 2.3 50.24 22.36 7.7 20.06-2.3 42.56-22.37 50.26zm87.16-33.46c-20.06 7.7-42.56-2.32-50.26-22.38-7.7-20.08 2.32-42.58 22.38-50.28 20.05-7.7 42.56 2.32 50.26 22.38 7.7 20.07-2.3 42.57-22.37 50.27zm87.16-33.46c-20.07 7.7-42.57-2.3-50.27-22.36-7.7-20.05 2.32-42.55 22.38-50.25 20.08-7.7 42.58 2.3 50.28 22.36 7.7 20.06-2.32 42.56-22.38 50.26zm87.15-33.44c-20.06 7.7-42.56-2.32-50.26-22.37-7.7-20.07 2.3-42.57 22.36-50.27 20.06-7.7 42.56 2.32 50.26 22.37 7.7 20.05-2.32 42.55-22.38 50.25zM665.35 503.9c-20.04 7.7-42.54-2.32-50.24-22.38-7.7-20.06 2.34-42.56 22.4-50.26 20.05-7.7 42.55 2.32 50.25 22.38 7.7 20.06-2.32 42.56-22.38 50.26zm87.18-33.46c-20.06 7.7-42.56-2.32-50.26-22.38-7.7-20.05 2.32-42.56 22.37-50.26 20.06-7.7 42.56 2.32 50.26 22.38 7.7 20.06-2.32 42.56-22.37 50.26zm87.16-33.46c-20.08 7.7-42.58-2.32-50.28-22.38-7.7-20.05 2.32-42.55 22.38-50.25 20.06-7.7 42.56 2.32 50.26 22.37 7.7 20.06-2.32 42.56-22.37 50.26zm87.14-33.46c-20.06 7.7-42.56-2.32-50.26-22.37-7.7-20.06 2.3-42.56 22.37-50.26 20.05-7.7 42.56 2.3 50.25 22.36 7.7 20.05-2.3 42.55-22.37 50.25zm87.16-33.45c-20.05 7.7-42.55-2.32-50.25-22.38-7.7-20.08 2.32-42.58 22.38-50.28 20.06-7.7 42.56 2.32 50.26 22.38 7.7 20.06-2.34 42.57-22.4 50.27zm87.17-33.46c-20.06 7.7-42.56-2.3-50.26-22.36-7.7-20.06 2.34-42.56 22.4-50.26 20.06-7.7 42.56 2.32 50.26 22.38 7.7 20.06-2.32 42.56-22.38 50.26zm87.16-33.44c-20.05 7.7-42.56-2.32-50.26-22.38-7.7-20.05 2.32-42.56 22.38-50.26 20.06-7.68 42.56 2.33 50.26 22.4 7.7 20.05-2.3 42.55-22.36 50.25zM544.75 450.2c-20.06 7.7-42.56-2.32-50.26-22.38-7.7-20.06 2.3-42.56 22.35-50.26 20.06-7.7 42.56 2.32 50.26 22.38 7.7 20.05-2.3 42.55-22.36 50.25zm87.16-33.46c-20.04 7.7-42.54-2.32-50.24-22.38-7.7-20.06 2.32-42.56 22.37-50.26 20.06-7.7 42.56 2.32 50.26 22.38 7.7 20.06-2.33 42.56-22.38 50.26zm87.18-33.46c-20.06 7.7-42.56-2.32-50.26-22.38-7.7-20.06 2.33-42.56 22.4-50.26 20.04-7.7 42.54 2.32 50.24 22.38 7.7 20.06-2.3 42.56-22.37 50.26zM980.55 282.9c-20.06 7.7-42.56-2.32-50.26-22.37-7.7-20.06 2.3-42.56 22.36-50.26 20.06-7.7 42.56 2.32 50.26 22.38 7.7 20.05-2.32 42.55-22.38 50.25zm87.16-33.45c-20.03 7.7-42.54-2.32-50.24-22.38-7.7-20.06 2.32-42.56 22.38-50.26 20.06-7.7 42.56 2.34 50.26 22.4 7.7 20.05-2.33 42.56-22.4 50.26zM1154.9 216c-20.05 7.7-42.55-2.34-50.25-22.4-7.7-20.06 2.32-42.56 22.37-50.26 20.05-7.7 42.55 2.32 50.25 22.38 7.7 20.06-2.32 42.56-22.38 50.26zm-120.62-53.73c-20.05 7.7-42.55-2.3-50.25-22.37-7.7-20.05 2.33-42.55 22.38-50.25 20.06-7.7 42.56 2.32 50.26 22.38 7.7 20.05-2.32 42.55-22.38 50.25zm87.17-33.45c-20.06 7.7-42.56-2.32-50.26-22.38-7.7-20.06 2.32-42.56 22.37-50.26 20.06-7.7 42.56 2.3 50.26 22.37 7.7 20.06-2.33 42.56-22.38 50.26zm-33.46-87.17c-20.06 7.7-42.56-2.3-50.26-22.37C1030-.8 1040.04-23.3 1060.1-31c20.04-7.7 42.55 2.33 50.24 22.4 7.7 20.05-2.3 42.56-22.37 50.25z"/><g transform="translate(578.928 275)"><path fill="#fff" d="M395.26 459.93c0 18.63-11.2 30.65-28.56 30.65-10.55 0-17.94-6.97-17.94-16.96 0-13.13 12.53-20.34 35.3-20.34h11.24v6.68l-.04-.03zm-19.28-65.03c-13.4 0-25.15 2.52-35.92 7.7l-.67.3.2 18.7 1.74-.93c10.3-5.78 20.03-8.68 28.93-8.68 15.87 0 24.98 9.06 24.98 24.96v.93h-12.53c-36.06 0-55.92 13.05-55.92 36.8 0 19.03 14.37 32.34 34.9 32.34 15.1 0 26.8-5.92 35.12-17.14v15.66h19.8v-65.43c0-30.05-13.62-45.23-40.55-45.23h-.1zm105.2 94.2c-16.7 0-27.1-14.57-27.1-38.02 0-23.5 10.47-38.7 26.67-38.7 18.14 0 28.98 14.48 28.98 38.7 0 23.1-11.22 38.05-28.55 38.05v-.04zm28.55-143.3v66.33c-8.08-11.26-19.36-17.23-33.83-17.23-26.8 0-44.8 22.03-44.8 54.9 0 33.84 18.25 57.43 44.38 57.43 15.5 0 27.53-6.8 35.94-20.2v18.53h20.26v-159.8h-21.95v.04zm119.93 51.64l-31.12 62.4-28.7-62.42-24.72.1 52.98 108.1 54.46-108.1h-22.92v-.06l.02-.02zm315.9 17.5V397.4l-20.02.03v108.12h21.92v-54.3c0-22.7 9.57-35.28 26.9-35.28 2.57 0 5 .38 7.96 1.22l1.42.44.74-21.37-9.42-.76c-12.73 0-23 6.9-29.42 19.4h-.08zm-94.14-19.97c-33 0-53.42 21.68-53.42 56.6 0 34.94 20.43 56.6 53.42 56.6 33.08 0 53.64-21.7 53.64-56.58 0-34.9-20.56-56.6-53.64-56.6v-.04zm.27 95.25c-18.28 0-30.5-15.64-30.5-38.94 0-23.37 12.22-39.1 30.5-39.1 18.45 0 30.4 15.37 30.4 39.12 0 23.7-11.95 38.95-30.45 38.95l.03-.03zm-140.34-65.05c0 15.22 10.46 23.2 29.74 32.65 12.18 6 18.55 9.5 18.55 17.94 0 8.63-7.84 14.24-19.92 14.24-8.6 0-18.1-2.45-27.54-7.08l-1.6-.78-.7 19.06.8.3c9 3.57 18.47 5.35 28.26 5.35 26.82 0 44.14-12.8 44.14-32.58 0-16.47-10.96-24.86-29.95-33.72-13.9-6.52-19.74-10.35-19.74-17.3 0-6.52 6.47-10.77 16.53-10.77 9.06 0 17.9 2 26.27 6l1.54.77 1-18.7-.88-.22c-9.13-2.74-18.08-4.1-26.67-4.1-23.8 0-39.77 11.65-39.77 28.98h-.05l-.03-.02zm-49.77-59.42c0 7.18 5.87 13.04 13.06 13.04 7.2 0 13.04-5.88 13.04-13.06 0-7.2-5.84-13.05-13.03-13.05-7.2 0-13.05 5.9-13.05 13.13v-.07l-.02-.02zm22.92 31.7h-20.8v108.1h21.93v-108.1h-1.12zm335.58 7.16h2.1c2.68 0 3.95-.9 3.95-2.8 0-2.06-1.34-2.93-4.2-2.93h-1.77v5.75h-.07zm2.75-9.44c6.2 0 9.3 2.13 9.3 6.23 0 2.73-1.66 4.9-4.56 5.77l4.75 9.4h-6.5l-4-8.53h-1.75v8.53h-5.88v-21.4h8.63zm-11.48-.45c-3.2 3.2-4.83 7.27-4.83 11.58 0 4.23 1.56 8.02 4.56 11.13 3.07 3.13 7.08 4.9 11.35 4.9 4.23 0 8.24-1.64 11.35-4.67 3.08-2.9 4.74-6.96 4.74-11.35 0-4.3-1.55-8.23-4.5-11.23-3.13-3.17-7.14-4.86-11.5-4.86s-8.17 1.55-11.17 4.5zm25.24-2.13c3.6 3.65 5.5 8.46 5.5 13.7 0 5.42-2 10.3-5.8 13.9-3.9 3.7-8.76 5.7-13.8 5.7-5.27 0-10.17-2.07-13.93-5.94-3.65-3.8-5.63-8.55-5.63-13.65 0-5.16 2.1-10.23 5.97-14.02 3.66-3.6 8.33-5.56 13.58-5.56 5.44 0 10.38 2.06 14.14 5.93v-.08z"/><path fill="#0A0A08" d="M42.24 364.8l-19.76 6.82v25.82H.58v17.27h21.27v55.57c0 26.42 9.02 37.17 31.1 37.17 5.63 0 10.97-.67 16.3-2.12l.9-.2-.22-18.04-1.56.58c-4.32 1.52-7.72 2.23-10.35 2.23-10.37 0-14.24-5.84-14.24-21.6v-53.64h25.3V397.4H43.8v-33.1l-1.56.53m68.4 50.08v-17.5l-20.03.05v108.12h21.9v-54.3c0-22.7 9.57-35.28 26.9-35.28 2.5 0 4.93.37 7.9 1.2l1.4.46.75-21.37-9.42-.77c-12.68 0-23 6.9-29.38 19.4m54.98-49.17c0 7.16 5.85 13.02 13.04 13.02 7.2 0 13.07-5.86 13.07-13.05 0-7.18-5.86-13.04-13.07-13.04-7.2 0-13.04 5.9-13.04 13.12m22.88 31.66h-20.76v108.1h21.95V397.44h-1.17m78.57-2.54c-15.07 0-27.72 7.12-36.17 20.1v-17.5H210.9v152.2h21.96v-59.05c7.88 10.75 19.25 16.64 33.4 16.64 27.7 0 45.62-22.7 45.62-57.88 0-32.58-18.03-54.48-44.8-54.48m-6.02 94.58c-17.36 0-28.15-14.82-28.15-38.68 0-23 11.37-37.83 28.95-37.83 16.92 0 27.05 14.07 27.05 37.6 0 24.06-10.7 38.9-27.93 38.9"/><path fill="#000" d="M292.07 97.8c-6.13-25-24.8-49.8-24.8-49.8l79.27-.06C393.77 17.18 453.7.66 520.04.66c64.05 0 121.98 16.08 169.5 46.7l84.15.06s-18.96 25.14-24.98 50.33c7.08 9.42 12.9 20.04 17.2 31.6 24.24 65.26-9.4 138.02-75.04 162.18-31.76 11.64-66.18 10.3-96.98-3.82-18.52-8.5-34.36-21-46.6-36.5l-27.17 40.48-27-40.1c-23.3 28.82-59 47.25-98.96 47.25-69.9 0-126.84-56.6-126.84-126.18 0-28 9.2-53.88 24.73-74.84"/><path fill="#FAC415" d="M396.16 46.42C432.56 30.9 474.62 22.67 520 22.67c45.46 0 86.54 8.2 122.82 24.33-13.28.42-26.73 2.94-39.82 7.76-31.75 11.64-57.1 34.98-71.3 65.6-6.12 13.3-9.85 27.28-11.13 41.4C515 97.9 461.53 47.46 396.17 46.5v-.06z"/><ellipse id="Oval" cx="394.132" cy="173.079" fill="#fff" rx="101.231" ry="100.745"/><ellipse id="Oval" cx="646.945" cy="173.079" fill="#fff" rx="101.231" ry="100.745"/><ellipse id="Oval" cx="394.16" cy="173.079" fill="#0A0A08" rx="62.66" ry="62.36"/><ellipse id="Oval" cx="646.89" cy="173.079" fill="#0A0A08" rx="62.66" ry="62.36"/><ellipse id="Oval" cx="394.16" cy="173.079" fill="#fff" rx="41.077" ry="40.88"/><ellipse id="Oval" cx="646.89" cy="173.079" fill="#fff" rx="41.077" ry="40.88"/><ellipse cx="394.16" cy="173.079" fill="#EE6946" rx="20.887" ry="20.787"/><ellipse cx="646.89" cy="173.079" fill="#00AF87" rx="20.887" ry="20.787"/></g></g></svg>