<svg xmlns="http://www.w3.org/2000/svg" width="750" height="500"><g fill="none" fill-rule="evenodd"><path fill="#7F54B3" d="M0 0h750v500H0z"/><path fill="#FFF" d="M505.17 131H244.7a29.7 29.7 0 00-29.7 29.83v99.43a29.82 29.82 0 0029.83 29.82H368.2l56.38 31.4-12.82-31.4h93.41A29.81 29.81 0 00535 260.26v-99.43A29.81 29.81 0 00505.17 131zm-265.96 23.03c-3.67.26-6.42 1.57-8.25 4.05-1.83 2.36-2.48 5.36-2.09 8.77 7.72 49.06 14.91 82.15 21.59 99.3 2.61 6.27 5.62 9.28 9.15 9.02 5.5-.4 12.04-7.98 19.76-22.76a2454.3 2454.3 0 0118.84-37.68c7.06 24.72 16.74 43.3 28.91 55.73 3.4 3.53 6.93 5.1 10.33 4.84 3.01-.26 5.37-1.83 6.94-4.71a15.52 15.52 0 001.57-8.63c-.79-11.9.4-28.52 3.66-49.85 3.4-21.98 7.59-37.8 12.7-47.23a11.36 11.36 0 001.3-6.28c-.26-3-1.57-5.5-4.06-7.45a11.37 11.37 0 00-8.24-2.62c-3.8.26-6.67 2.1-8.63 5.76-8.11 14.78-13.87 38.72-17.27 71.95-4.97-12.56-9.16-27.34-12.43-44.74-1.44-7.72-4.97-11.38-10.73-11-3.92.27-7.2 2.89-9.8 7.86L263.8 232.9c-4.7-18.97-9.16-42.12-13.21-69.47-.92-6.8-4.71-9.94-11.38-9.41zm252.1 9.41c9.28 1.97 16.22 6.94 20.93 15.18 4.18 7.07 6.28 15.57 6.28 25.77a70.1 70.1 0 01-10.2 37.03c-7.86 13.08-18.06 19.62-30.75 19.62-2.23 0-4.58-.26-7.07-.78-9.28-1.97-16.22-6.94-20.93-15.18-4.18-7.2-6.28-15.83-6.28-25.9 0-13.48 3.4-25.78 10.2-36.9 7.99-13.08 18.2-19.62 30.75-19.62 2.22 0 4.58.26 7.07.78zm-5.5 70.78c4.84-4.32 8.11-10.73 9.94-19.36.53-3.01.92-6.28.92-9.68 0-3.8-.79-7.85-2.36-11.9-1.96-5.1-4.57-7.86-7.71-8.51-4.71-.92-9.3 1.7-13.61 8.11a42.3 42.3 0 00-6.93 15.57c-.66 3-.92 6.28-.92 9.55 0 3.8.78 7.85 2.35 11.9 1.97 5.1 4.58 7.85 7.72 8.5 3.27.66 6.8-.78 10.6-4.18zm-55.6-55.6c-4.71-8.24-11.77-13.21-20.93-15.18a34.35 34.35 0 00-7.07-.78c-12.56 0-22.76 6.54-30.74 19.62-6.8 11.12-10.2 23.42-10.2 36.9 0 10.07 2.09 18.7 6.27 25.9 4.71 8.24 11.65 13.21 20.94 15.18 2.48.52 4.84.78 7.06.78 12.7 0 22.9-6.54 30.74-19.62a70.1 70.1 0 0010.2-37.03c0-10.2-2.08-18.7-6.27-25.77zm-16.48 36.24c-1.84 8.63-5.1 15.04-9.95 19.36-3.8 3.4-7.32 4.84-10.6 4.19-3.13-.66-5.75-3.4-7.71-8.5A33.2 33.2 0 01383.1 218c0-3.27.26-6.54.92-9.55a42.3 42.3 0 016.93-15.57c4.32-6.41 8.9-9.03 13.6-8.11 3.15.65 5.76 3.4 7.73 8.5a33.2 33.2 0 012.35 11.9c0 3.41-.26 6.68-.91 9.69z"/><path fill="#FFB900" fill-rule="nonzero" stroke="#212121" stroke-width="2" d="M245 333c.5 0 .91.18 1.26.53.46.47.8 1.16 1.1 2.04h0l5.43 17.13 17.9-.14c.95 0 1.72.12 2.3.4a1.73 1.73 0 01.8 2.4 5.12 5.12 0 01-1.64 1.66h0l-14.6 10.48 5.72 17.03c.3.88.43 1.64.33 2.27-.07.5-.31.9-.71 1.21-.38.3-.8.4-1.28.3a5.37 5.37 0 01-2.12-1.06h0L245 376.63l-14.46 10.62c-.76.58-1.46.94-2.1 1.07-.5.09-.93-.02-1.33-.31-.4-.31-.63-.72-.7-1.21-.1-.63.03-1.4.33-2.28h0l5.72-17.02-14.61-10.49a5.1 5.1 0 01-1.62-1.65 1.73 1.73 0 01.8-2.39c.59-.29 1.36-.41 2.28-.41h0l17.91.14 5.43-17.12c.31-.9.67-1.58 1.12-2.05.34-.35.75-.53 1.24-.53zm65 0c.5 0 .91.18 1.26.53.46.47.8 1.16 1.1 2.04h0l5.43 17.13 17.9-.14c.95 0 1.72.12 2.3.4a1.73 1.73 0 01.8 2.4 5.12 5.12 0 01-1.64 1.66h0l-14.6 10.48 5.72 17.03c.3.88.43 1.64.33 2.27-.07.5-.31.9-.71 1.21-.38.3-.8.4-1.28.3a5.37 5.37 0 01-2.12-1.06h0L310 376.63l-14.46 10.62c-.76.58-1.46.94-2.1 1.07-.5.09-.93-.02-1.33-.31-.4-.31-.63-.72-.7-1.21-.1-.63.03-1.4.33-2.28h0l5.72-17.02-14.61-10.49a5.1 5.1 0 01-1.62-1.65 1.73 1.73 0 01.8-2.39c.59-.29 1.36-.41 2.28-.41h0l17.91.14 5.43-17.12c.31-.9.67-1.58 1.12-2.05.34-.35.75-.53 1.24-.53zm65 0c.5 0 .91.18 1.26.53.46.47.8 1.16 1.1 2.04h0l5.43 17.13 17.9-.14c.95 0 1.72.12 2.3.4a1.73 1.73 0 01.8 2.4 5.12 5.12 0 01-1.64 1.66h0l-14.6 10.48 5.72 17.03c.3.88.43 1.64.33 2.27-.07.5-.31.9-.71 1.21-.38.3-.8.4-1.28.3a5.37 5.37 0 01-2.12-1.06h0L375 376.63l-14.46 10.62c-.76.58-1.46.94-2.1 1.07-.5.09-.93-.02-1.33-.31-.4-.31-.63-.72-.7-1.21-.1-.63.03-1.4.33-2.28h0l5.72-17.02-14.61-10.49a5.1 5.1 0 01-1.62-1.65 1.73 1.73 0 01.8-2.39c.59-.29 1.36-.41 2.28-.41h0l17.91.14 5.43-17.12c.31-.9.67-1.58 1.12-2.05.34-.35.75-.53 1.24-.53zm65 0c.5 0 .91.18 1.26.53.46.47.8 1.16 1.1 2.04h0l5.43 17.13 17.9-.14c.95 0 1.72.12 2.3.4a1.73 1.73 0 01.8 2.4 5.12 5.12 0 01-1.64 1.66h0l-14.6 10.48 5.72 17.03c.3.88.43 1.64.33 2.27-.07.5-.31.9-.71 1.21-.38.3-.8.4-1.28.3a5.37 5.37 0 01-2.12-1.06h0L440 376.63l-14.46 10.62c-.76.58-1.46.94-2.1 1.07-.5.09-.93-.02-1.33-.31-.4-.31-.63-.72-.7-1.21-.1-.63.03-1.4.33-2.28h0l5.72-17.02-14.61-10.49a5.1 5.1 0 01-1.62-1.65 1.73 1.73 0 01.8-2.39c.59-.29 1.36-.41 2.28-.41h0l17.91.14 5.43-17.12c.31-.9.67-1.58 1.12-2.05.34-.35.75-.53 1.24-.53zm65 0c.5 0 .91.18 1.26.53.46.47.8 1.16 1.1 2.04h0l5.43 17.13 17.9-.14c.95 0 1.72.12 2.3.4a1.73 1.73 0 01.8 2.4 5.12 5.12 0 01-1.64 1.66h0l-14.6 10.48 5.72 17.03c.3.88.43 1.64.33 2.27-.07.5-.31.9-.71 1.21-.38.3-.8.4-1.28.3a5.37 5.37 0 01-2.12-1.06h0L505 376.63l-14.46 10.62c-.76.58-1.46.94-2.1 1.07-.5.09-.93-.02-1.33-.31-.4-.31-.63-.72-.7-1.21-.1-.63.03-1.4.33-2.28h0l5.72-17.02-14.61-10.49a5.1 5.1 0 01-1.62-1.65 1.73 1.73 0 01.8-2.39c.59-.29 1.36-.41 2.28-.41h0l17.91.14 5.43-17.12c.31-.9.67-1.58 1.12-2.05.34-.35.75-.53 1.24-.53z"/></g></svg>
