<svg xmlns="http://www.w3.org/2000/svg" width="750" height="500"><g fill="none" fill-rule="evenodd"><path fill="#7F54B3" d="M0 0h750v500H0z"/><path fill="#FFF" d="M472.63 154H277.27A22.28 22.28 0 00255 176.37v74.57c0 12.36 10.01 22.37 22.37 22.37h92.53l42.29 23.55-9.62-23.55h70.06c12.36 0 22.37-10 22.37-22.37v-74.57c0-12.36-10-22.37-22.37-22.37zm-199.48 17.27c-2.74.2-4.8 1.18-6.18 3.04-1.37 1.77-1.86 4.02-1.57 6.57 5.8 36.8 11.19 61.62 16.2 74.48 1.95 4.7 4.21 6.96 6.86 6.77 4.12-.3 9.03-5.99 14.82-17.08 3.04-6.28 7.75-15.7 14.13-28.25 5.3 18.54 12.55 32.47 21.68 41.8 2.55 2.64 5.2 3.82 7.75 3.63a6.32 6.32 0 005.2-3.54 11.64 11.64 0 001.18-6.47c-.59-8.93.3-21.4 2.75-37.39 2.55-16.48 5.69-28.35 9.51-35.42a8.52 8.52 0 00.98-4.7 7.69 7.69 0 00-3.04-5.6 8.53 8.53 0 00-6.18-1.96c-2.84.2-5 1.57-6.47 4.32-6.09 11.08-10.4 29.04-12.96 53.96-3.72-9.42-6.86-20.5-9.32-33.56-1.08-5.79-3.73-8.53-8.04-8.24-2.95.2-5.4 2.16-7.36 5.89l-21.49 40.91c-3.53-14.22-6.87-31.59-9.91-52.1-.69-5.1-3.53-7.45-8.54-7.06zm189.08 7.06c6.97 1.48 12.17 5.2 15.7 11.39 3.14 5.3 4.7 11.67 4.7 19.32 0 10.11-2.54 19.33-7.65 27.77-5.88 9.81-13.54 14.72-23.05 14.72-1.67 0-3.44-.2-5.3-.59-6.97-1.47-12.17-5.2-15.7-11.38-3.14-5.4-4.71-11.87-4.71-19.43a52 52 0 017.65-27.67c5.99-9.8 13.64-14.71 23.06-14.71 1.67 0 3.43.2 5.3.58zm-4.12 53.09c3.63-3.24 6.08-8.05 7.46-14.53.39-2.25.68-4.7.68-7.26 0-2.84-.59-5.88-1.76-8.93-1.48-3.82-3.44-5.88-5.8-6.37-3.53-.69-6.96 1.27-10.2 6.08a31.72 31.72 0 00-5.2 11.68 34.1 34.1 0 00-.69 7.16c0 2.84.6 5.89 1.77 8.93 1.47 3.82 3.44 5.88 5.79 6.38 2.45.49 5.1-.6 7.95-3.14zm-41.7-41.7c-3.54-6.19-8.83-9.91-15.7-11.39-1.87-.39-3.63-.58-5.3-.58-9.42 0-17.07 4.9-23.06 14.71a51.99 51.99 0 00-7.65 27.67c0 7.56 1.57 14.03 4.7 19.43 3.54 6.18 8.74 9.91 15.7 11.38 1.87.4 3.64.59 5.3.59 9.52 0 17.18-4.9 23.06-14.72a52.57 52.57 0 007.66-27.77c0-7.65-1.57-14.03-4.71-19.32zm-12.37 27.17c-1.37 6.48-3.82 11.29-7.45 14.53-2.85 2.55-5.5 3.63-7.95 3.14-2.36-.5-4.32-2.56-5.79-6.38a24.9 24.9 0 01-1.77-8.93c0-2.45.2-4.9.7-7.16a31.72 31.72 0 015.2-11.68c3.23-4.8 6.66-6.77 10.2-6.08 2.35.49 4.31 2.55 5.78 6.37a24.9 24.9 0 011.77 8.93c0 2.55-.2 5-.69 7.26z"/><path fill="#FFB900" fill-rule="nonzero" stroke="#212121" stroke-width="2" d="M245 323c.5 0 .91.18 1.26.53.46.47.8 1.16 1.1 2.04h0l5.43 17.13 17.9-.14c.95 0 1.72.12 2.3.4a1.73 1.73 0 01.8 2.4 5.12 5.12 0 01-1.64 1.66h0l-14.6 10.48 5.72 17.03c.3.88.43 1.64.33 2.27-.07.5-.31.9-.71 1.21-.38.3-.8.4-1.28.3a5.37 5.37 0 01-2.12-1.06h0L245 366.63l-14.46 10.62c-.76.58-1.46.94-2.1 1.07-.5.09-.93-.02-1.33-.31-.4-.31-.63-.72-.7-1.21-.1-.63.03-1.4.33-2.28h0l5.72-17.02-14.61-10.49a5.1 5.1 0 01-1.62-1.65 1.73 1.73 0 01.8-2.39c.59-.29 1.36-.41 2.28-.41h0l17.91.14 5.43-17.12c.31-.9.67-1.58 1.12-2.05.34-.35.75-.53 1.24-.53zm65 0c.5 0 .91.18 1.26.53.46.47.8 1.16 1.1 2.04h0l5.43 17.13 17.9-.14c.95 0 1.72.12 2.3.4a1.73 1.73 0 01.8 2.4 5.12 5.12 0 01-1.64 1.66h0l-14.6 10.48 5.72 17.03c.3.88.43 1.64.33 2.27-.07.5-.31.9-.71 1.21-.38.3-.8.4-1.28.3a5.37 5.37 0 01-2.12-1.06h0L310 366.63l-14.46 10.62c-.76.58-1.46.94-2.1 1.07-.5.09-.93-.02-1.33-.31-.4-.31-.63-.72-.7-1.21-.1-.63.03-1.4.33-2.28h0l5.72-17.02-14.61-10.49a5.1 5.1 0 01-1.62-1.65 1.73 1.73 0 01.8-2.39c.59-.29 1.36-.41 2.28-.41h0l17.91.14 5.43-17.12c.31-.9.67-1.58 1.12-2.05.34-.35.75-.53 1.24-.53zm65 0c.5 0 .91.18 1.26.53.46.47.8 1.16 1.1 2.04h0l5.43 17.13 17.9-.14c.95 0 1.72.12 2.3.4a1.73 1.73 0 01.8 2.4 5.12 5.12 0 01-1.64 1.66h0l-14.6 10.48 5.72 17.03c.3.88.43 1.64.33 2.27-.07.5-.31.9-.71 1.21-.38.3-.8.4-1.28.3a5.37 5.37 0 01-2.12-1.06h0L375 366.63l-14.46 10.62c-.76.58-1.46.94-2.1 1.07-.5.09-.93-.02-1.33-.31-.4-.31-.63-.72-.7-1.21-.1-.63.03-1.4.33-2.28h0l5.72-17.02-14.61-10.49a5.1 5.1 0 01-1.62-1.65 1.73 1.73 0 01.8-2.39c.59-.29 1.36-.41 2.28-.41h0l17.91.14 5.43-17.12c.31-.9.67-1.58 1.12-2.05.34-.35.75-.53 1.24-.53zm65 0c.5 0 .91.18 1.26.53.46.47.8 1.16 1.1 2.04h0l5.43 17.13 17.9-.14c.95 0 1.72.12 2.3.4a1.73 1.73 0 01.8 2.4 5.12 5.12 0 01-1.64 1.66h0l-14.6 10.48 5.72 17.03c.3.88.43 1.64.33 2.27-.07.5-.31.9-.71 1.21-.38.3-.8.4-1.28.3a5.37 5.37 0 01-2.12-1.06h0L440 366.63l-14.46 10.62c-.76.58-1.46.94-2.1 1.07-.5.09-.93-.02-1.33-.31-.4-.31-.63-.72-.7-1.21-.1-.63.03-1.4.33-2.28h0l5.72-17.02-14.61-10.49a5.1 5.1 0 01-1.62-1.65 1.73 1.73 0 01.8-2.39c.59-.29 1.36-.41 2.28-.41h0l17.91.14 5.43-17.12c.31-.9.67-1.58 1.12-2.05.34-.35.75-.53 1.24-.53zm65 0c.5 0 .91.18 1.26.53.46.47.8 1.16 1.1 2.04h0l5.43 17.13 17.9-.14c.95 0 1.72.12 2.3.4a1.73 1.73 0 01.8 2.4 5.12 5.12 0 01-1.64 1.66h0l-14.6 10.48 5.72 17.03c.3.88.43 1.64.33 2.27-.07.5-.31.9-.71 1.21-.38.3-.8.4-1.28.3a5.37 5.37 0 01-2.12-1.06h0L505 366.63l-14.46 10.62c-.76.58-1.46.94-2.1 1.07-.5.09-.93-.02-1.33-.31-.4-.31-.63-.72-.7-1.21-.1-.63.03-1.4.33-2.28h0l5.72-17.02-14.61-10.49a5.1 5.1 0 01-1.62-1.65 1.73 1.73 0 01.8-2.39c.59-.29 1.36-.41 2.28-.41h0l17.91.14 5.43-17.12c.31-.9.67-1.58 1.12-2.05.34-.35.75-.53 1.24-.53z"/></g></svg>
