<svg xmlns="http://www.w3.org/2000/svg" width="500" height="500" xmlns:v="https://vecta.io/nano"><defs><radialGradient cx="50%" cy="-83.168%" fx="50%" fy="-83.168%" r="258.049%" gradientTransform="matrix(.29298 -.88858 .5675 .45873 .825 -.006)" id="A"><stop stop-color="#fff" stop-opacity=".22" offset="0%"/><stop stop-color="#fff" stop-opacity="0" offset="100%"/></radialGradient><radialGradient cx="123.76%" cy="91.568%" fx="123.76%" fy="91.568%" r="257.826%" gradientTransform="matrix(-.30858 -.08507 .02635 -.99638 1.595 1.933)" id="B"><stop stop-color="#fff" stop-opacity=".22" offset="0%"/><stop stop-color="#e9e7ee" stop-opacity="0" offset="89.676%"/><stop stop-color="#fff" stop-opacity="0" offset="100%"/></radialGradient><radialGradient cx="128.704%" cy="-64.022%" fx="128.704%" fy="-64.022%" r="296.805%" gradientTransform="scale(-.4596 -1) rotate(-28.599 1.755 8.018)" id="C"><stop stop-color="#fff" stop-opacity=".22" offset="0%"/><stop stop-color="#eae8ee" stop-opacity=".005" offset="78.384%"/><stop stop-color="#e9e7ee" stop-opacity="0" offset="100%"/><stop stop-color="#fff" stop-opacity="0" offset="100%"/></radialGradient><linearGradient x1="4.911%" y1="51.06%" x2="58.415%" y2="50.331%" id="D"><stop stop-color="#bdb9d2" offset="0%"/><stop stop-color="#e9e7ee" offset="100%"/></linearGradient><linearGradient x1="67.634%" y1="100.261%" x2="32.448%" y2="51.998%" id="E"><stop stop-color="#bdb9d2" offset="0%"/><stop stop-color="#bfbbd3" offset="49.992%"/><stop stop-color="#e9e7ee" offset="100%"/></linearGradient><linearGradient x1="0%" y1="50%" x2="100%" y2="50%" id="F"><stop stop-color="#bdb9d2" offset="0%"/><stop stop-color="#e9e7ee" offset="100%"/></linearGradient></defs><g fill="none" fill-rule="evenodd"><path fill="#283a89" d="M0 0h500v500H0z"/><path d="M60.24 130v-26.6l18.9 26.6h8.4V81h-11.2v26.6L57.44 81h-8.4v49h11.2zm52.15.98c10.29 0 18.55-8.05 18.55-18.48s-8.26-18.48-18.55-18.48-18.55 8.05-18.55 18.48 8.26 18.48 18.55 18.48zm0-10.22c-4.55 0-8.05-3.29-8.05-8.26s3.5-8.26 8.05-8.26 8.05 3.29 8.05 8.26-3.5 8.26-8.05 8.26zM156.7 130v-9.52c-4.62.28-7.21 0-7.21-3.01v-12.39h7.21V95h-7.21v-9.8l-10.5 3.15V95h-5.6v10.08h5.6v12.39c0 9.8 3.99 13.93 17.71 12.53zm11.2-38.08c3.43 0 6.3-2.87 6.3-6.3s-2.87-6.3-6.3-6.3-6.3 2.87-6.3 6.3 2.87 6.3 6.3 6.3zm5.25 38.08V95h-10.5v35h10.5zm20.44 0v-24.92h8.96V130h10.5V95h-19.46c0-4.06 2.59-4.9 6.51-4.9 2.66 0 5.6.21 8.75.56V81c-3.01-.63-5.88-.98-8.75-.98-11.62 0-17.01 5.18-17.01 14.98h-4.69v10.08h4.69V130h10.5zm43.96.98c6.86 0 12.81-3.57 15.82-9.03l-9.17-5.25c-1.12 2.45-3.71 3.92-6.79 3.92-4.55 0-7.91-3.29-7.91-8.12s3.36-8.12 7.91-8.12c3.08 0 5.6 1.47 6.79 3.92l9.17-5.32c-3.01-5.39-9.03-8.96-15.82-8.96-10.64 0-18.55 8.05-18.55 18.48s7.91 18.48 18.55 18.48zm34.3 0c4.69 0 8.12-1.61 10.43-4.27V130h10.5V95h-10.5v3.29c-2.31-2.66-5.74-4.27-10.43-4.27-9.17 0-16.73 8.05-16.73 18.48s7.56 18.48 16.73 18.48zm2.1-9.94c-4.83 0-8.33-3.29-8.33-8.54s3.5-8.54 8.33-8.54 8.33 3.29 8.33 8.54-3.5 8.54-8.33 8.54zm47.04 8.96v-9.52c-4.62.28-7.21 0-7.21-3.01v-12.39h7.21V95h-7.21v-9.8l-10.5 3.15V95h-5.6v10.08h5.6v12.39c0 9.8 3.99 13.93 17.71 12.53zm11.2-38.08c3.43 0 6.3-2.87 6.3-6.3s-2.87-6.3-6.3-6.3-6.3 2.87-6.3 6.3 2.87 6.3 6.3 6.3zm5.25 38.08V95h-10.5v35h10.5zm24.5.98c10.29 0 18.55-8.05 18.55-18.48s-8.26-18.48-18.55-18.48-18.55 8.05-18.55 18.48 8.26 18.48 18.55 18.48zm0-10.22c-4.55 0-8.05-3.29-8.05-8.26s3.5-8.26 8.05-8.26 8.05 3.29 8.05 8.26-3.5 8.26-8.05 8.26zm35 9.24v-19.11c0-4.97 2.66-7.21 6.51-7.21 3.36 0 6.09 2.03 6.09 6.37V130h10.5v-21.49c0-9.45-6.02-14.49-13.09-14.49-4.62 0-8.12 1.68-10.01 4.27V95h-10.5v35h10.5zm42.91.98c7.56 0 14.56-3.43 14.56-11.48 0-12.95-17.22-10.29-17.22-14.28 0-1.26 1.12-1.96 2.94-1.96 2.31 0 3.71 1.26 4.69 3.08l8.96-4.83c-2.94-4.97-7.98-7.49-13.65-7.49-7.28 0-13.72 3.85-13.72 11.48 0 12.11 17.22 10.08 17.22 13.93 0 1.4-1.26 2.17-3.78 2.17-3.08 0-5.04-1.47-5.95-4.13l-9.1 5.18c2.73 5.67 8.05 8.33 15.05 8.33z" fill="#fff" fill-rule="nonzero"/><g transform="translate(-574.915 212)"><g transform="translate(0 74.074)" fill-opacity=".5"><path fill="url(#A)" d="M788.498 85.615L629.51 223.926h146.497l70.064-105.34z"/><path fill="url(#B)" d="M723.035 47.934L641.314 0 0 143.225v80.701h356.197z"/><path fill="url(#C)" d="M723.009 47.722L359.776 223.926H629.51l113.659-99.333z"/></g><g transform="translate(640.501)"><path fill="#242250" d="M102.668 198.667L333.76 0 122.8 145.296z"/><path fill="url(#D)" d="M333.76 0L82.534 122.008 0 74.276z"/><path fill="url(#E)" d="M333.76 0L122.8 145.296l82.534 47.733z"/><path fill="url(#F)" d="M122.8 145.296L333.76 0 82.534 122.008l20.134 76.659z"/><g fill="#fffffe"><path d="M78.861 119.884L333.76 0 82.534 122.008z"/><path d="M122.8 145.296L333.76 0 126.1 147.206z"/></g><path fill="#fff" d="M82.534 122.008l20.134 69.23 20.133-45.941-20.133 53.37z"/></g></g></g></svg>