<svg xmlns="http://www.w3.org/2000/svg" width="750" height="500" fill-rule="evenodd" xmlns:v="https://vecta.io/nano"><path fill="#0098d7" d="M0 0h750v500H0z"/><path fill="#ffb900" fill-rule="nonzero" stroke="#212121" stroke-width="2" d="M245 323a1.7 1.7 0 0 1 1.262.535c.455.465.807 1.153 1.09 2.039h0l5.437 17.128 17.904-.142c.949 0 1.72.123 2.302.408a1.73 1.73 0 0 1 .907 1.02 1.66 1.66 0 0 1-.118 1.372c-.313.579-.863 1.121-1.629 1.657h0L257.549 357.5l5.723 17.026c.301.884.427 1.641.332 2.273a1.83 1.83 0 0 1-.715 1.215c-.377.293-.803.392-1.277.301-.65-.124-1.348-.49-2.118-1.068h0l-14.495-10.622-14.468 10.629c-.761.571-1.46.937-2.109 1.062-.483.092-.922-.012-1.32-.308a1.83 1.83 0 0 1-.706-1.208c-.094-.633.032-1.39.334-2.277h0l5.722-17.022-14.615-10.49c-.756-.529-1.306-1.071-1.619-1.65-.238-.439-.277-.897-.121-1.363.161-.467.469-.808.921-1.026.592-.286 1.358-.411 2.283-.411h0l17.912.142 5.434-17.118c.306-.895.668-1.588 1.118-2.057A1.65 1.65 0 0 1 245 323zm65 0a1.7 1.7 0 0 1 1.262.535c.455.465.807 1.153 1.09 2.039h0l5.437 17.128 17.904-.142c.949 0 1.72.123 2.302.408a1.73 1.73 0 0 1 .907 1.02 1.66 1.66 0 0 1-.118 1.372c-.313.579-.863 1.121-1.629 1.657h0L322.549 357.5l5.723 17.026c.301.884.427 1.641.332 2.273a1.83 1.83 0 0 1-.715 1.215c-.377.293-.803.392-1.277.301-.65-.124-1.348-.49-2.118-1.068h0l-14.495-10.622-14.468 10.629c-.761.571-1.46.937-2.109 1.062-.483.092-.922-.012-1.32-.308a1.83 1.83 0 0 1-.706-1.208c-.094-.633.032-1.39.334-2.277h0l5.722-17.022-14.615-10.49c-.756-.529-1.306-1.071-1.619-1.65-.238-.439-.277-.897-.121-1.363.161-.467.469-.808.921-1.026.592-.286 1.358-.411 2.283-.411h0l17.912.142 5.434-17.118c.306-.895.668-1.588 1.118-2.057A1.65 1.65 0 0 1 310 323zm65 0a1.7 1.7 0 0 1 1.262.535c.455.465.807 1.153 1.09 2.039h0l5.437 17.128 17.904-.142c.949 0 1.72.123 2.302.408a1.73 1.73 0 0 1 .907 1.02 1.66 1.66 0 0 1-.118 1.372c-.313.579-.863 1.121-1.629 1.657h0L387.549 357.5l5.723 17.026c.301.884.427 1.641.332 2.273a1.83 1.83 0 0 1-.715 1.215c-.377.293-.803.392-1.277.301-.65-.124-1.348-.49-2.118-1.068h0l-14.495-10.622-14.468 10.629c-.761.571-1.46.937-2.109 1.062-.483.092-.922-.012-1.32-.308a1.83 1.83 0 0 1-.706-1.208c-.094-.633.032-1.39.334-2.277h0l5.722-17.022-14.615-10.49c-.756-.529-1.306-1.071-1.619-1.65-.238-.439-.277-.897-.121-1.363.161-.467.469-.808.921-1.026.592-.286 1.358-.411 2.283-.411h0l17.912.142 5.434-17.118c.306-.895.668-1.588 1.118-2.057A1.65 1.65 0 0 1 375 323zm65 0a1.7 1.7 0 0 1 1.262.535c.455.465.807 1.153 1.09 2.039h0l5.437 17.128 17.904-.142c.949 0 1.72.123 2.302.408a1.73 1.73 0 0 1 .907 1.02 1.66 1.66 0 0 1-.118 1.372c-.313.579-.863 1.121-1.629 1.657h0L452.549 357.5l5.723 17.026c.301.884.427 1.641.332 2.273a1.83 1.83 0 0 1-.715 1.215c-.377.293-.803.392-1.277.301-.65-.124-1.348-.49-2.118-1.068h0l-14.495-10.622-14.468 10.629c-.761.571-1.46.937-2.109 1.062-.483.092-.922-.012-1.32-.308a1.83 1.83 0 0 1-.706-1.208c-.094-.633.032-1.39.334-2.277h0l5.722-17.022-14.615-10.49c-.756-.529-1.306-1.071-1.619-1.65-.238-.439-.277-.897-.121-1.363.161-.467.469-.808.921-1.026.592-.286 1.358-.411 2.283-.411h0l17.912.142 5.434-17.118c.306-.895.668-1.588 1.118-2.057A1.65 1.65 0 0 1 440 323zm65 0a1.7 1.7 0 0 1 1.262.535c.455.465.807 1.153 1.09 2.039h0l5.437 17.128 17.904-.142c.949 0 1.72.123 2.302.408a1.73 1.73 0 0 1 .907 1.02 1.66 1.66 0 0 1-.118 1.372c-.313.579-.863 1.121-1.629 1.657h0L517.549 357.5l5.723 17.026c.301.884.427 1.641.332 2.273a1.83 1.83 0 0 1-.715 1.215c-.377.293-.803.392-1.277.301-.65-.124-1.348-.49-2.118-1.068h0l-14.495-10.622-14.468 10.629c-.761.571-1.46.937-2.109 1.062-.483.092-.922-.012-1.32-.308a1.83 1.83 0 0 1-.706-1.208c-.094-.633.032-1.39.334-2.277h0l5.722-17.022-14.615-10.49c-.756-.529-1.306-1.071-1.619-1.65-.238-.439-.277-.897-.121-1.363.161-.467.469-.808.921-1.026.592-.286 1.358-.411 2.283-.411h0l17.912.142 5.434-17.118c.306-.895.668-1.588 1.118-2.057A1.65 1.65 0 0 1 505 323z"/><path fill="#fff" d="M448.153 274H301.755L260 153.797l52.253 38.359c-.261 1.326-.401 2.623-.401 3.925 0 11.871 9.659 21.532 21.532 21.532 11.867 0 21.532-9.66 21.532-21.532a21.31 21.31 0 0 0-14.086-20.135L374.954 104l34.02 71.758c-8.547 2.883-14.627 10.926-14.627 20.331 0 11.871 9.659 21.532 21.532 21.532 11.863 0 21.532-9.66 21.532-21.532a20.45 20.45 0 0 0-.553-4.714L490 153.518 448.153 274z"/></svg>