<svg width="500" height="500" viewBox="0 0 500 500" xmlns="http://www.w3.org/2000/svg" xmlns:xlink="http://www.w3.org/1999/xlink"><defs><radialGradient cx="100%" cy="0%" fx="100%" fy="0%" r="141.421%" id="a"><stop stop-color="#805AD5" offset="0%"/><stop stop-color="#553C9A" offset="100%"/></radialGradient><path id="b" d="M0 0H396V360H0z"/></defs><g fill="none" fill-rule="evenodd"><path fill="url(#a)" d="M0 0H500V500H0z"/><g transform="translate(52 170)"><mask id="c" fill="#fff"><use xlink:href="#b"/></mask><g mask="url(#c)"><g transform="translate(1.8 1.8)"><path d="M61.3 358.243C56.52 334.9 47.24 268.85 47.24 215.246c-2.611-.271-4.265-.659-4.961-1.163-1.908-1.382-3.516-3.14-5.426-4.512-2.193-1.576-4.67-2.545-7.065-3.744-5.175-2.59-9.941-5.89-14.672-9.221-.974-.687-1.861-1.313-2.49-2.166-.142 1.6-.79 4.114-.964 5.71-.897 5.604-8.972 64.29-8.972 69.206 0 2.693-4.485 43.097 2.692 88.887h55.916z" fill="#38B2AD"/><path d="M60.657 76.883c-.208-.445-.505-.994-.967-1.282-.712-.443-1.663-.195-2.291.248-.738.521-1.253 1.325-1.751 2.103l-8.33 13A65.978 65.978 0 0 1 58.92 85.99a13.32 13.32 0 0 1 1.832-.46c1.192-2.731 1.163-5.943-.095-8.647z" fill="#8A6D62"/><path d="M12.678 187.03a5.61 5.61 0 0 1 .07-.39.237.237 0 0 1 .04-.09l-.001-.028a1.664 1.664 0 0 0-.065.174l-.045.182a1.504 1.504 0 0 0-.023.23l.024-.079z" fill="#FFF"/><path d="M93.628 62.916c-.277-.901-1.152-1.606-2.08-1.676a2.145 2.145 0 0 0-.158-.005c-.883 0-1.764.556-2.143 1.353-.32.674-.326 1.508-.33 2.244l-.03 5.029c-.008 1.566-.017 3.186.552 4.643.357.915 1.177 1.9 2.134 1.9.086 0 .172-.008.258-.025.537-.102 1.036-.542 1.335-1.178.285-.607.375-1.308.45-2.032.309-3.017.368-6.08.175-9.108-.027-.42-.057-.797-.163-1.145z" fill="#E6E6E6"/><path d="M81.19 40.907a2.526 2.526 0 0 1 1.824-.807c1.33-.017 2.602-.026 3.848-.035 3.322-.025 6.46-.047 10.012-.209 1.383-.065 2.534 1 2.627 2.367.215 3.183.249 6.151.282 9.021.01.856.019 1.713.034 2.579.022 1.382-1.067 2.546-2.428 2.596-4.77.174-9.335.307-13.958.406h-.053a2.49 2.49 0 0 1-2.48-2.413 889.242 889.242 0 0 1-.207-5.89c-.063-1.925-.127-3.85-.2-5.733a2.583 2.583 0 0 1 .698-1.882zm13.185 32.341c-.082.794-.183 1.567-.52 2.285-.404.858-1.108 1.458-1.883 1.606a2.14 2.14 0 0 1-.4.037c-1.32 0-2.379-1.2-2.843-2.388-.623-1.596-.612-3.368-.604-4.932l.03-5.028c.004-.818.01-1.744.405-2.576.54-1.135 1.783-1.878 3.044-1.782 1.25.094 2.38 1.005 2.752 2.217.131.43.168.871.197 1.325.194 3.07.134 6.177-.178 9.236zm-28.54 16.266c.074 2.117-1.056 4.332-3.062 6.1l.018 10.76c.002 1.197-.003 2.395-.006 3.593.353 1.053.356 2.246.015 3.249l-.022.056a511.83 511.83 0 0 0 .052 10.867c.036 3.27.089 8.212 2.632 10.394 2.434 2.088 4.91 2.422 8.36 2.298.156-.01 1.072.086 1.29.243 1.571-.65 3.145-1.552 4.752-2.473 2.05-1.177 4.17-2.393 6.295-3.025 5.993-1.783 14.963-2.387 20.519 1.782.582.438 1.264 1.133 1.85 1.946.275-.125 1.237-.134 1.404-.134h.002c.186 0 .382.002.584.005 1.577.018 3.54.04 4.897-.63 2.499-1.235 2.305-4.898 2.176-7.323l-.011-.215c-.231-4.439-.175-8.996-.12-13.404v-.07a.348.348 0 0 1 .069-.195c-.142-4 .065-40.652.063-40.836l-.003-.425c-.09-12.087-.181-24.587-1.108-36.783a8.45 8.45 0 0 0-.028-.293c-.425-3.668-3.28-4.394-8.067-4.41-7.895-.026-15.927.314-23.695.641-4.598.194-9.353.394-14.032.517-2.194.057-5.022.61-6.395 1.712-2.474 1.989-2.357 4.908-2.243 7.732.017.418.034.832.042 1.243.085 4.01.228 8.074.427 12.079.24 4.814.24 9.674.24 14.374l.001 2.63.024 13.992c.493.093.966.272 1.401.574 1.002.695 1.63 1.976 1.68 3.429z" fill="#F6E05E"/><path d="M60.34 97.318c-.791.462-1.602.884-2.399 1.293l-.584.3c-.657.537-1.2 1.228-1.787 2.097a37.443 37.443 0 0 0-3.83 7.29c1.804-.328 3.565-.604 5.236-.866.377-.059.787-.12 1.21-.159-.073-3.45.651-6.793 2.154-9.955z" fill="#8A6D62"/><path d="M46.447 206.985l.009.02.049-.023a5.112 5.112 0 0 0-.143-.146l-.006.053a.242.242 0 0 1 .091.096z" fill="#FFF"/><path d="M55.312 100.04c-.135.08-.271.16-.404.244-3.663 2.327-7.696 5.508-11.665 9.198-.363.338-.69.75-1.035 1.186l-.05.061c2.863-1.01 5.824-1.713 8.698-2.264a38.225 38.225 0 0 1 4.085-7.894c.12-.177.244-.355.37-.532z" fill="#8A6D62"/><path d="M84.035 48.489c.05-.67.205-1.313.374-1.968.382-1.481.934-2.284 2.11-3.067.95-.632 1.9-1.002 2.822-1.099.212-.022.437-.033.67-.033 1.277 0 3.163.352 4.278 1.342 1.202 1.068 1.99 2.616 2.107 4.14.03.392.02.792-.029 1.189-.267 2.159-1.294 3.82-2.89 4.677-.862.463-1.999.718-3.2.718-1.469 0-2.907-.372-3.945-1.02-1.517-.948-2.44-2.909-2.297-4.88zm-.81 4.8a1.513 1.513 0 0 0 1.508 1.468v.193l.033-.194c3.74-.08 7.432-.187 11.289-.328.831-.03 1.497-.742 1.483-1.587-.012-.703-.02-1.4-.028-2.095-.026-2.314-.053-4.706-.227-7.266a1.55 1.55 0 0 0-1.535-1.447l-.07.002c-2.886.13-5.432.15-8.128.169-1.006.007-2.032.015-3.105.028a1.581 1.581 0 0 0-1.55 1.65c.06 1.522.111 3.077.163 4.631.052 1.605.105 3.209.168 4.776z" fill="#4B5668"/><path d="M83.047 42.463c.366-.39.861-.61 1.394-.617 1.073-.014 2.1-.021 3.106-.028 2.693-.02 5.236-.038 8.114-.169 1.047-.054 1.933.762 2.003 1.804.174 2.571.201 4.97.228 7.288.008.696.016 1.391.027 2.093.017 1.054-.812 1.942-1.85 1.98-3.86.141-7.554.249-11.295.329h-.04a1.897 1.897 0 0 1-1.89-1.838 759.162 759.162 0 0 1-.168-4.779 747.994 747.994 0 0 0-.162-4.628 1.971 1.971 0 0 1 .533-1.435zM81.66 54.38a1.724 1.724 0 0 0 1.718 1.672h.037c4.62-.1 9.18-.232 13.946-.406.95-.034 1.709-.847 1.693-1.812-.014-.866-.025-1.724-.034-2.582-.032-2.86-.066-5.816-.28-8.977a1.767 1.767 0 0 0-1.752-1.65l-.08.002c-3.566.162-6.71.185-10.04.209-1.246.01-2.516.018-3.844.035-.49.007-.945.207-1.281.567a1.815 1.815 0 0 0-.49 1.32c.074 1.884.137 3.81.2 5.737.066 1.977.131 3.954.207 5.885zM62.047 85.433l-.002-1.347c-.114.457-.255.908-.426 1.348.144-.006.286-.005.428 0z" fill="#FFF"/><path d="M41.613 110.184l.106-.133c-.044 0-.088.006-.132.006a5.052 5.052 0 0 1-2.64-.744.39.39 0 0 1-.126-.532.379.379 0 0 1 .524-.128c.875.541 1.955.748 2.965.568.037-.007.073-.002.109.002.1-.107.203-.212.31-.31 2.752-2.56 5.536-4.87 8.212-6.834a6.117 6.117 0 0 1-1.75-1.533.39.39 0 0 1 .066-.542.378.378 0 0 1 .535.068 5.35 5.35 0 0 0 1.827 1.51 62.855 62.855 0 0 1 2.884-1.953 31.311 31.311 0 0 1 2.409-1.355c.065-.053.128-.106.196-.155a.369.369 0 0 1 .238-.068l.25-.13c1.271-.65 2.585-1.323 3.756-2.159 2.405-1.715 3.797-4.042 3.722-6.221-.042-1.208-.545-2.262-1.348-2.818-.72-.499-1.6-.587-2.514-.48a.37.37 0 0 1-.347.05c-.577.096-1.16.258-1.718.434-9.798 3.103-19.01 8.67-26.644 16.1-1.428 1.39-2.887 2.928-3.892 4.753-1.021 1.857-1.55 3.973-2.062 6.02-.596 2.385-1.402 4.834-2.181 7.202-.614 1.864-1.239 3.776-1.767 5.662.243-.27.487-.536.73-.802l4.247-4.653c1.684-1.845 3.425-3.753 5.412-5.354 2.317-1.865 4.928-3.27 7.661-4.36.334-.323.64-.706.962-1.111z" fill="#8A6D62"/><path d="M23.596 142.827a.38.38 0 0 1 .46-.285 18.99 18.99 0 0 0 11.924-.971.38.38 0 0 1 .5.206.388.388 0 0 1-.204.506 19.743 19.743 0 0 1-12.4 1.01.386.386 0 0 1-.28-.466zm-6.43 48.56c1.595.983 3.196 1.957 4.785 2.95 3.17 1.981 6.327 4.014 9.278 6.322 1.393 1.09 2.703 2.355 4.177 3.329 1.515 1.002 3.193 1.661 4.763 2.562 1.374.788 2.726 1.647 3.93 2.688.297.251.588.506.874.767.057.068.115.128.173.184.182-1.463.378-2.925.59-4.384.5-3.425.828-7.066 2.195-10.274 1.246-2.926 3.214-5.524 5.586-7.607 4.696-4.124 8.602-8.069 11.94-12.059 4.652-5.561 9.113-12.05 13.637-19.837 3.498-6.022 10.516-11.115 18.772-13.622 1.93-.587 3.85-.944 5.706-1.063.312-.02.631-.03.954-.04 1.136-.038 2.311-.076 3.293-.559.807-.397 1.234-.963 1.304-1.729.16-1.745-1.58-4.046-2.9-5.036-5.329-4-14.024-3.395-19.849-1.662-2.041.608-4.122 1.801-6.134 2.956-4.548 2.609-9.25 5.307-14.306 2.02-1.323-.862-2.468-1.97-3.43-3.315a.386.386 0 0 1-.218.359c-4.614 2.218-7.933 7.178-8.258 12.342a.383.383 0 0 1-.38.362l-.024-.001a.385.385 0 0 1-.357-.41c.347-5.52 3.76-10.62 8.692-12.99a.372.372 0 0 1 .302-.01c-1.062-1.578-1.887-3.46-2.466-5.642-.827-3.122-1.103-6.851-.805-10.578a13.21 13.21 0 0 1-.437.243c-2.025 1.072-4.29 1.7-6.479 2.307-.294.081-.585.162-.875.244.185.841.312 1.698.37 2.556a.385.385 0 0 1-.355.411l-.027.001a.384.384 0 0 1-.38-.36 16.241 16.241 0 0 0-.344-2.398c-2.665.775-5.142 1.676-7.108 3.518-.819.766-1.54 1.702-2.238 2.608-1.232 1.597-2.505 3.25-4.386 4.093a.379.379 0 0 1-.503-.197.388.388 0 0 1 .195-.51c1.705-.765 2.865-2.27 4.093-3.862.716-.93 1.457-1.89 2.321-2.7 2.153-2.016 4.926-2.979 7.712-3.778.032-.02.064-.039.102-.049l.082-.004c.38-.108.76-.214 1.14-.319 2.15-.596 4.374-1.212 6.327-2.246 1.4-.74 3.21-2.037 3.88-4.005.564-1.66.033-3.935-1.659-4.675-1.03-.451-2.305-.252-3.329-.092-5.184.811-10.82 1.694-15.983 3.726l-.02.02a.376.376 0 0 1-.276.1c-2.617 1.056-5.108 2.414-7.349 4.218-1.94 1.563-3.662 3.45-5.326 5.273l-4.247 4.655c-3.228 3.524-6.565 7.17-6.612 15.685.874 7.193 1.705 14.427 1.588 21.687-.047 2.875-.244 5.75-.653 8.597-.397 2.764-.866 5.684-2.038 8.228-1.297 2.816-1.521 6.224-1.695 9.312.108.075.216.152.331.22.78.497 1.566.985 2.353 1.47z" fill="#8A6D62"/><path d="M44.778 210.905a36.867 36.867 0 0 0-7.414-4.903c-2.273-1.146-4.048-2.747-6.036-4.314-4.953-3.905-10.37-7.112-15.681-10.479-1.007-.638-2.585-1.543-3.284-2.776-.252 1.615-.304 3.403.163 4.606.832 2.147 3.402 3.37 5.192 4.6 3.429 2.359 6.91 4.664 10.594 6.597 3.34 1.753 7.004 2.992 9.933 5.45 1.467 1.23 2.838 2.644 4.435 3.704.997.66 4.29 2.885 4.76-.014.1-.62.11-1.224.074-1.831-.839.392-2.164-.157-2.736-.64z" fill="#38B2AD"/><path d="M33.66 207.694c-1.043 9.127-3.03 18.134-4.156 27.256a174.122 174.122 0 0 0 2.652 6.339 282.367 282.367 0 0 0 1.762-15.35c.509-5.72.67-11.56 1.56-17.26a29.576 29.576 0 0 0-1.819-.985zm5.278 3.57c-.696 5.33-.837 10.766-1.342 16.088-.63 6.65-1.435 13.288-2.536 19.875.71 1.33 1.451 2.645 2.222 3.94.064-1.271.132-2.543.214-3.814.322-4.966 1.114-9.695 2.06-14.567 1.237-6.38 1.382-12.878 1.903-19.335-.866-.697-1.686-1.452-2.521-2.187zm5.919 146.98c.015-.758-.759-3.592-.897-4.49-.3-1.936-.5-3.7-.759-7.183-.182-.592-.831-17.558-.258-35.016.438-13.346.657-28.192 1.017-34.119.053-.887.404-16.305.897-27.067.195-4.255.795-7.956.897-9.915.017-.337-.352-12.57 0-19.582.06-1.2.834-2.952.897-3.642.047-.513.372-1.812.412-1.917l-2.206.144c-.964 5.118-1.675 10.576-2.192 15.397-.154 1.43 0 2.697 0 5.281 0 2.694-1.179 8.558-1.23 8.979-1.064 8.7-.073 10.153 0 19.824.041 5.54-.077 11.432-.167 12.498-.632 7.47-.952 20.087-1.445 25.818-1.01 11.745-.15 24.725 0 33.795 0 .807.006 1.61.025 2.414.148 6.274.247 12.515-.025 18.78h5.034z" fill="#4FD2C5"/><path d="M36.041 339.463c-.099-4.307-.796-18.176-.985-22.521 0-14.57 3.52-25.14 2.224-65.875l-2.224-3.843c-1.862 14.31-2.606 69.919-2.943 69.09-.074 6.114.382 12.286.477 18.313.074 4.72.406 9.39.817 14.088.287 3.271.189 6.578.55 9.834h2.126c.287-6.354.104-12.723-.042-19.086zm-6.441 9.252c-.53-4.93-.785-9.881-.826-14.837-.068-8.231.161-15.028.774-24.432.612-9.404.052-13.341.052-21.414 0-5.562 1.06-21.167 1.07-21.37.925-17.566 1.615-26.092 1.627-26.208.802-6.808 1.33-11.528 1.585-14.163.268-2.78.387-5.206.54-7.215.56-7.297.887-9.636 1.063-10.49l-1.8-1.003c-.317 2.783-2.066 13.208-3.182 20.472-.613 3.986-.944 7.052-.955 7.304-.252 5.395-2.418 26.716-3.278 44.771-.58 12.179.006 23.998 0 24.167-.055 1.443-.139 2.886-.197 4.341-.263 6.633-.324 13.32.02 19.95.52 10.049 1.869 20.007 3.25 29.961h.823c-.291-3.264-.213-6.55-.566-9.834z" fill="#4FD2C5"/><path d="M22.25 327.828c-.295-6.864-.294-13.802.086-20.663.162-2.933.145-5.798.116-8.732a42.36 42.36 0 0 1 .02-1.917c.003-.1-.362-14.235 0-22.671.371-8.69 1.483-11.851 2.446-23.34 1.894-22.611 5.143-44.696 5.159-44.897l-2.212-.898c-.012.397-2.878 16.79-4.577 35.744-1.137 12.683-2.775 26.021-3.334 36.342-.512 9.477.009 16.474 0 16.718-.362 10.291-.99 20.591-.485 30.87.562 11.46 3.2 22.724 3.82 34.165h2.236c-1.43-10.205-2.834-20.422-3.275-30.72z" fill="#4FD2C5"/><path d="M15.662 324.384c-.355-8.685-.324-19.363 0-28.049.164-4.41.12-7.332.165-11.742-.21-.276.1-9.342 1.432-22.182.771-7.426 2.35-17.044 3.375-25.225.869-6.934 1.177-13.402 1.794-18.92.879-7.858 1.902-13.719 1.93-15.627l-1.506-.9c-.213 1.041-3.254 20.857-5.593 40.8-.553 4.713-1.547 9.606-2.008 14.062-1.472 14.229-1.935 25.59-1.962 25.573-.077 13.223-.277 26.442.186 39.664.266 7.601 1.325 14.948 2.352 22.465.647 4.732 1.102 9.483 1.432 14.246h2.217c-.64-11.445-3.346-22.694-3.814-34.165z" fill="#4FD2C5"/><path d="M11.958 343.898c-1.072-7.37-2.047-14.6-2.29-22.06-.436-13.36-.25-26.712-.183-40.071.001-.241.159-13.515 1.874-25.488 2.915-20.355 6.584-45.284 6.446-45.786.981-6.025 1.472-9.704 1.472-11.036l-1.472-1.032c.004.134-2.008 12.748-4.344 28.887C10.857 245.3 8.874 255.66 7.84 272.05c.034 2.445-.429 9.022-.436 11.466-.027 9.308-.946 18.588-.72 27.9.223 9.206 1.124 18.37 2.19 27.507.763 6.544 1.492 13.11 2.485 19.627h2.102c-.332-4.902-.797-9.796-1.503-14.651z" fill="#4FD2C5"/><path d="M5.067 338.922c-1.116-9.63-2.107-19.303-2.217-29.008-.104-9.201 1.099-18.43.717-27.62-.124-2.993.327-6.004.514-9 .187-2.996 3.993-37.9 4.89-43.815.897-5.914 2.692-14.993 5.383-33.621.247-1.707-.228-2.052-1.423-1.035-.918 5.522-4.236 26.468-6.651 44.904-2.077 15.852-3.348 29.925-3.456 29.86-.982 29.724-2.586 59.573 2.695 88.962h2.01c-.974-6.52-1.704-13.083-2.462-19.627z" fill="#4FD2C5"/><path d="M14.282 195.3c.09-1.587.186-3.173.327-4.752-.849-.561-1.76-1.257-2.246-2.115-.252 1.615-.304 3.403.163 4.606.345.892.992 1.622 1.756 2.26zm3.897-2.498c-.123 1.647-.211 3.296-.303 4.945.486.334.974.667 1.463.998.148-1.653.278-3.308.4-4.962l-1.56-.981zm5.191 3.294a247.476 247.476 0 0 1-.442 5.003c.514.325 1.03.647 1.55.962.217-1.613.418-3.229.605-4.846-.568-.378-1.14-.748-1.713-1.119zm5.235 3.552a313.913 313.913 0 0 1-.587 4.43c.098.051.195.106.294.158.594.312 1.197.607 1.805.896.128-1.377.228-2.757.298-4.14a82.77 82.77 0 0 0-1.81-1.344zm5.432 4.194c-.08 1.008-.174 2.014-.282 3.017.63.317 1.253.646 1.86 1.001.145-.86.31-1.717.494-2.569a25.313 25.313 0 0 1-2.072-1.449zm5.557 3.378a60.765 60.765 0 0 0-.534 3.172c.818.725 1.624 1.477 2.477 2.158.11-1.28.24-2.557.397-3.832a36.229 36.229 0 0 0-2.34-1.498zm7.92 4.325c-.598.28-1.44.08-2.084-.232a125.55 125.55 0 0 0-.303 3.366c1.055.326 2.068.209 2.313-1.303.1-.62.11-1.224.074-1.831z" fill="#4FD2C5"/><path fill="#FFF" d="M45.9178009 210.594528L45.9170382 210.60264 45.9193261 210.60264z"/><path d="M47.4 208.402c-.05-.138-.109-.27-.173-.4.047.134.092.274.128.42l.045-.02z" fill="#FFF"/><path d="M86.732 52.71c.922.575 2.213.905 3.545.905 1.078 0 2.088-.223 2.843-.628 1.37-.735 2.254-2.188 2.49-4.09.044-.347.052-.694.026-1.033-.102-1.328-.794-2.682-1.85-3.62-.894-.794-2.54-1.15-3.774-1.15-.208 0-.407.01-.592.03-.799.084-1.634.412-2.482.976-1.008.67-1.46 1.33-1.791 2.616-.16.62-.306 1.226-.35 1.83-.124 1.69.653 3.363 1.935 4.164z" fill="#F7AE55"/><path d="M21.831 128.246l-.093-.012a.387.387 0 0 1-.277-.47c.597-2.387 1.403-4.836 2.183-7.206.775-2.355 1.577-4.79 2.166-7.148.524-2.094 1.065-4.26 2.136-6.206 1.053-1.914 2.558-3.502 4.029-4.934 7.717-7.513 17.034-13.142 26.945-16.28 1.73-.548 3.706-.965 5.236.095 1.002.695 1.63 1.976 1.68 3.429.084 2.441-1.429 5.013-4.045 6.88-1.216.868-2.555 1.554-3.85 2.217-1.014.52-2.063 1.056-3.033 1.673-3.663 2.327-7.696 5.508-11.665 9.198-.363.338-.69.75-1.035 1.186-.35.44-.711.896-1.119 1.274a.378.378 0 0 1-.538-.024.39.39 0 0 1 .024-.546c.364-.338.692-.751 1.038-1.188.348-.44.708-.893 1.115-1.272 4.002-3.72 8.074-6.931 11.775-9.283 1-.635 2.065-1.18 3.094-1.708 1.27-.65 2.584-1.323 3.755-2.159 2.405-1.715 3.797-4.042 3.722-6.221-.042-1.208-.545-2.262-1.348-2.818-1.261-.874-3.023-.489-4.58.004-9.797 3.103-19.01 8.67-26.643 16.1-1.428 1.39-2.887 2.928-3.892 4.753-1.021 1.857-1.55 3.973-2.062 6.02-.596 2.385-1.402 4.834-2.181 7.202-.776 2.357-1.578 4.793-2.167 7.152a.383.383 0 0 1-.37.292z" fill="#000"/><path d="M46.205 92.365a.377.377 0 0 1-.208-.062.39.39 0 0 1-.112-.534l9.123-14.238c.513-.8 1.094-1.708 1.955-2.315.831-.588 2.12-.9 3.127-.273.633.395 1.004 1.068 1.257 1.61 1.39 2.99 1.387 6.56-.01 9.547a.38.38 0 0 1-.508.184.388.388 0 0 1-.181-.515c1.3-2.78 1.304-6.102.009-8.886-.208-.445-.505-.994-.967-1.282-.712-.443-1.663-.195-2.291.248-.738.521-1.253 1.325-1.751 2.103l-9.123 14.237a.38.38 0 0 1-.32.176zm-29.308 49.916h-.001a.385.385 0 0 1-.38-.389c.042-8.833 3.486-12.594 6.816-16.23l4.246-4.653c1.684-1.845 3.425-3.753 5.412-5.354 6.89-5.547 16.369-7.03 23.986-8.223 1.12-.174 2.514-.393 3.748.147 2.08.91 2.752 3.65 2.076 5.637-.751 2.208-2.724 3.631-4.247 4.437-2.025 1.072-4.29 1.7-6.479 2.307-3.272.907-6.362 1.763-8.72 3.972-.818.766-1.54 1.702-2.237 2.608-1.232 1.597-2.505 3.25-4.386 4.093a.379.379 0 0 1-.503-.197.388.388 0 0 1 .195-.51c1.705-.765 2.865-2.27 4.093-3.862.716-.93 1.457-1.89 2.321-2.7 2.494-2.336 5.82-3.258 9.036-4.15 2.15-.596 4.374-1.212 6.327-2.246 1.4-.74 3.21-2.037 3.88-4.005.564-1.66.033-3.935-1.659-4.675-1.03-.451-2.305-.252-3.329-.092-7.92 1.239-16.896 2.644-23.628 8.064-1.94 1.563-3.662 3.45-5.326 5.273l-4.247 4.655c-3.23 3.527-6.572 7.175-6.612 15.708a.384.384 0 0 1-.382.385z" fill="#000"/><path d="M58.573 108.003a.383.383 0 0 1-.38-.372c-.144-3.907.73-7.68 2.596-11.213.1-.188.33-.259.516-.158.186.1.255.334.156.522-1.801 3.411-2.644 7.052-2.506 10.82a.384.384 0 0 1-.367.4h-.015zm-7.386 15.17a.384.384 0 0 1-.38-.36 16.321 16.321 0 0 0-.434-2.807.387.387 0 0 1 .278-.469.382.382 0 0 1 .462.282c.236.963.39 1.952.455 2.941a.385.385 0 0 1-.354.411l-.027.001zm2.461 23.868l-.024-.001a.385.385 0 0 1-.357-.41c.347-5.52 3.76-10.62 8.692-12.99a.378.378 0 0 1 .508.182c.091.193.01.423-.18.515-4.615 2.218-7.934 7.178-8.259 12.342a.383.383 0 0 1-.38.362zm-2.495-37.899a.388.388 0 0 1-.357-.523 38.208 38.208 0 0 1 4.145-8.048c.599-.886 1.276-1.796 2.167-2.452a.377.377 0 0 1 .532.085.39.39 0 0 1-.084.54c-.753.554-1.338 1.306-1.986 2.264a37.439 37.439 0 0 0-4.06 7.884.382.382 0 0 1-.357.25zm-9.566.915a5.052 5.052 0 0 1-2.64-.744.39.39 0 0 1-.126-.532.379.379 0 0 1 .524-.128c.875.541 1.955.748 2.965.568a.38.38 0 0 1 .441.313.386.386 0 0 1-.308.448c-.283.05-.57.075-.856.075zm9.862-7.743a.375.375 0 0 1-.17-.04 6.122 6.122 0 0 1-2.089-1.728.39.39 0 0 1 .067-.542.378.378 0 0 1 .535.068 5.35 5.35 0 0 0 1.827 1.51.389.389 0 0 1 .172.518.38.38 0 0 1-.342.214zm-22.907 41.541c-1.569 0-3.138-.186-4.666-.562a.386.386 0 0 1-.28-.466.38.38 0 0 1 .46-.285 18.99 18.99 0 0 0 11.924-.971.38.38 0 0 1 .5.206.388.388 0 0 1-.204.506 19.743 19.743 0 0 1-7.734 1.572zm45.28-7.024c-3.45.124-5.926-.21-8.36-2.298-2.543-2.182-2.596-7.124-2.632-10.394l-.01-.813c-.063-3.763-.05-7.594-.038-11.298.006-1.885.012-3.77.009-5.654l-.02-11.441a2.759 2.759 0 0 1-.707.503l.019 10.94c.002 1.147-.003 2.296-.006 3.445.7.958.698 2.414-.007 3.369-.01 3.344-.014 6.77.042 10.148l.01.81c.037 3.397.092 8.532 2.88 10.923 2.306 1.979 4.702 2.49 7.685 2.49.377 0 .763-.008 1.16-.022.196-.007 1.32-.204 1.313-.399-.007-.196-1.16-.321-1.338-.31zm44.476-9.647l-.011-.214c-.227-4.368-.175-8.862-.122-13.214.005-.12.009-.25.011-.396.003-.198.125-40.668.124-40.864l-.003-.424c-.089-12.1-.181-24.611-1.11-36.832a8.344 8.344 0 0 0-.03-.32c-.536-4.624-4.807-5.024-8.77-5.037-7.91-.024-15.95.314-23.725.641-4.596.194-9.348.394-14.021.516-2.144.057-5.216.58-6.82 1.868-2.754 2.213-2.628 5.314-2.508 8.314.017.412.034.823.042 1.229.085 4.016.23 8.087.428 12.099.238 4.797.238 9.648.238 14.34 0 .874 0 1.751.002 2.63l.025 14.28c.162.013.324.043.485.092.076.024.15.052.223.08l-.025-14.453-.001-2.63c0-4.7 0-9.56-.24-14.374a423.918 423.918 0 0 1-.427-12.079c-.008-.41-.025-.825-.042-1.243-.114-2.824-.231-5.743 2.243-7.732 1.373-1.103 4.2-1.655 6.395-1.712 4.68-.123 9.434-.323 14.032-.517 7.768-.327 15.8-.667 23.695-.64 4.787.015 7.642.741 8.067 4.41.01.095.02.192.028.292.927 12.196 1.019 24.696 1.108 36.783l.003.425c.002.184-.205 36.836-.063 40.836a.348.348 0 0 0-.07.195v.07c-.054 4.408-.11 8.965.12 13.404l.012.215c.129 2.425.323 6.088-2.176 7.323-1.358.67-3.32.648-4.897.63a63.956 63.956 0 0 0-.584-.005h-.002c-.195 0-1.478.012-1.479.207 0 .196.186.507.381.508.185 0 1.475-.004 1.676-.002.268.004.548.007.834.007 1.472 0 3.12-.085 4.384-.71 2.918-1.44 2.709-5.385 2.57-7.996z" fill="#000"/><path d="M96.988 40.626l-.08.002c-3.566.162-6.71.185-10.04.209-1.246.01-2.516.018-3.844.035-.49.007-.945.207-1.282.567a1.813 1.813 0 0 0-.49 1.32c.074 1.884.138 3.81.201 5.738.065 1.976.13 3.953.207 5.884a1.725 1.725 0 0 0 1.718 1.672h.037c4.62-.1 9.18-.232 13.946-.406.95-.034 1.709-.847 1.693-1.812-.014-.866-.025-1.724-.034-2.582-.032-2.86-.066-5.815-.28-8.977a1.767 1.767 0 0 0-1.752-1.65zm-13.61 16.2a2.49 2.49 0 0 1-2.48-2.414 916.053 916.053 0 0 1-.207-5.89c-.063-1.925-.127-3.85-.2-5.733a2.583 2.583 0 0 1 .698-1.882 2.526 2.526 0 0 1 1.825-.807c1.33-.017 2.602-.026 3.848-.035 3.322-.025 6.46-.047 10.012-.209 1.383-.065 2.534 1 2.627 2.367.215 3.184.249 6.151.282 9.021.01.857.019 1.713.034 2.579.022 1.382-1.067 2.546-2.428 2.596-4.77.174-9.335.307-13.958.406h-.053z" fill="#000"/><path d="M95.748 42.033l-.07.002c-2.886.13-5.432.15-8.128.17-1.006.006-2.032.014-3.105.027a1.581 1.581 0 0 0-1.55 1.65c.06 1.522.111 3.077.163 4.631.052 1.605.105 3.209.168 4.776a1.514 1.514 0 0 0 1.507 1.468v.193l.033-.193c3.74-.08 7.432-.188 11.289-.329.831-.03 1.497-.742 1.483-1.587-.012-.703-.02-1.399-.028-2.095-.026-2.313-.053-4.706-.227-7.266a1.55 1.55 0 0 0-1.535-1.447zm-11.015 13.11a1.897 1.897 0 0 1-1.889-1.838 759.162 759.162 0 0 1-.168-4.779 747.994 747.994 0 0 0-.162-4.628 1.972 1.972 0 0 1 .533-1.435c.366-.39.861-.61 1.393-.617 1.074-.013 2.1-.021 3.107-.028 2.692-.02 5.235-.038 8.114-.169 1.047-.054 1.933.763 2.003 1.804.174 2.571.201 4.97.228 7.288.007.696.016 1.391.027 2.093.017 1.055-.813 1.942-1.85 1.98-3.86.141-7.554.249-11.295.329h-.04z" fill="#000"/><path d="M90.012 42.901c-.215 0-.42.01-.612.03-.83.088-1.693.427-2.567 1.008-1.053.7-1.526 1.389-1.87 2.728-.163.63-.312 1.245-.357 1.864-.129 1.76.686 3.506 2.026 4.343.95.594 2.279.934 3.645.934 1.11 0 2.15-.23 2.932-.65 1.427-.766 2.346-2.271 2.59-4.238.045-.358.054-.718.027-1.071-.106-1.378-.822-2.78-1.915-3.75-.93-.827-2.63-1.198-3.9-1.198zm.265 11.294c-1.435 0-2.837-.362-3.845-.992-1.459-.91-2.345-2.8-2.206-4.7.047-.651.2-1.286.368-1.933.368-1.429.899-2.202 2.03-2.954.925-.616 1.846-.975 2.737-1.068a6.23 6.23 0 0 1 .65-.033c1.244 0 3.077.339 4.152 1.294 1.166 1.035 1.93 2.534 2.043 4.01.03.378.02.765-.028 1.15-.26 2.095-1.251 3.703-2.79 4.53-.836.449-1.94.696-3.11.696z" fill="#000"/><path d="M87.89 43.142a7.298 7.298 0 0 1 0 0zm2.126-.434c1.305.001 3.053.387 4.02 1.246-1.032-.918-2.81-1.245-4.02-1.246zm-5.459 4.836a7.641 7.641 0 0 1 0 0zm11.472.882c-.005.173-.019.346-.04.518-.173 1.396-.679 2.567-1.459 3.422.78-.855 1.286-2.026 1.459-3.422.021-.172.035-.345.04-.518zm-6.017-5.331c-.208 0-.407.01-.592.029-.8.084-1.634.412-2.482.976-1.008.67-1.46 1.33-1.791 2.616-.16.62-.307 1.226-.35 1.83-.124 1.69.653 3.363 1.935 4.164.921.575 2.213.905 3.545.905 1.078 0 2.088-.223 2.843-.628 1.37-.735 2.254-2.188 2.49-4.09.044-.347.052-.694.026-1.033-.102-1.328-.794-2.682-1.85-3.62-.894-.794-2.54-1.15-3.774-1.15zm2.548 10.552zm-7.251-1.795c.332.48.745.888 1.223 1.187.98.612 2.345.963 3.745.963-1.4 0-2.766-.351-3.745-.963a4.217 4.217 0 0 1-1.223-1.187zm4.968 2.536c-1.469 0-2.907-.372-3.946-1.02-1.516-.948-2.439-2.909-2.296-4.879.05-.67.205-1.313.374-1.968.381-1.481.934-2.284 2.11-3.067.95-.632 1.9-1.001 2.822-1.098.212-.023.437-.034.67-.034 1.277 0 3.163.352 4.278 1.342 1.202 1.068 1.99 2.616 2.107 4.14.03.392.02.792-.029 1.189-.267 2.159-1.294 3.82-2.89 4.677-.862.463-1.999.718-3.2.718zm16.4 78.97c-5.555-4.169-14.525-3.565-20.518-1.782-2.125.632-4.245 1.848-6.295 3.025-4.551 2.61-8.85 5.076-13.518 2.041-1.881-1.223-7.913-6.275-6.538-19.897a.385.385 0 0 0-.34-.423.384.384 0 0 0-.42.345c-.4 3.971-.135 7.992.747 11.32 1.13 4.26 3.195 7.39 6.14 9.305 5.054 3.288 9.757.59 14.305-2.02 2.012-1.154 4.093-2.347 6.134-2.955 5.825-1.733 14.52-2.337 19.85 1.662 1.318.99 3.06 3.29 2.9 5.036-.071.766-.498 1.332-1.305 1.729-.982.483-2.157.521-3.293.559-.323.01-.642.02-.954.04-1.856.12-3.776.476-5.706 1.063-8.256 2.507-15.274 7.6-18.772 13.622-4.524 7.787-8.985 14.276-13.637 19.837-3.338 3.99-7.244 7.935-11.94 12.06-2.372 2.082-4.34 4.68-5.586 7.606-1.367 3.208-1.695 6.849-2.194 10.274a215.632 215.632 0 0 0-.65 4.842c.04.022.08.046.12.077l.382.29c.106.08.188.167.251.261a306.68 306.68 0 0 1 1.54-11.915l-.002-.037c.328-1.023.635-1.903.955-2.725 1.247-3.209 3.053-5.78 5.684-8.09 4.726-4.15 8.658-8.123 12.022-12.143 4.68-5.596 9.166-12.12 13.712-19.945 3.403-5.859 10.257-10.821 18.334-13.274 1.874-.57 3.737-.917 5.535-1.032.305-.02.616-.03.93-.04 1.217-.04 2.474-.08 3.601-.635 1.038-.51 1.637-1.324 1.732-2.352.194-2.12-1.798-4.672-3.205-5.729zm-89.4 8.49a.384.384 0 0 0-.425-.337.386.386 0 0 0-.333.43c1.46 12.196 3.117 26.02-1.013 38.607l-.009.075c-1.141 2.51-1.501 5.273-1.72 8.06-.018.218-.03.436-.047.653.127.07.242.184.328.358.02.041.044.08.065.122a.9.9 0 0 1 .34.18c.179-3.165.373-6.704 1.713-9.61 1.172-2.545 1.641-5.465 2.038-8.229.41-2.847.606-5.722.653-8.597.117-7.269-.716-14.51-1.59-21.712zM91.39 61.235c-.883 0-1.764.556-2.143 1.353-.32.674-.326 1.508-.33 2.244l-.03 5.029c-.008 1.566-.017 3.186.552 4.643.357.915 1.177 1.9 2.134 1.9.086 0 .172-.008.258-.025.537-.102 1.036-.542 1.335-1.178.285-.607.375-1.308.45-2.032.309-3.017.368-6.08.175-9.108-.027-.42-.057-.797-.163-1.145-.277-.901-1.152-1.606-2.08-1.676a2.145 2.145 0 0 0-.158-.005zm.183 15.941c-1.32 0-2.38-1.2-2.844-2.388-.623-1.596-.612-3.368-.604-4.932l.03-5.028c.004-.818.01-1.744.405-2.576.54-1.135 1.783-1.878 3.044-1.782 1.25.094 2.38 1.005 2.752 2.217.131.43.168.871.197 1.325.194 3.07.134 6.177-.178 9.236-.082.794-.183 1.567-.52 2.285-.404.858-1.108 1.458-1.883 1.606a2.14 2.14 0 0 1-.4.037z" fill="#000"/><path d="M46.876 206.165c-.39-.372-.98.223-.588.595.843.8 1.282 1.697 1.36 2.864-1.005 1.178-1.897 1.305-2.675.381a32.475 32.475 0 0 0-.873-.767c-1.205-1.041-2.557-1.9-3.931-2.688-1.57-.9-3.248-1.56-4.763-2.562-1.474-.974-2.784-2.24-4.177-3.329-2.951-2.308-6.107-4.34-9.278-6.322-1.59-.993-3.19-1.967-4.786-2.95-.787-.485-1.572-.973-2.353-1.47a5.655 5.655 0 0 1-1.74-1.595c-.822-1.18-.443-2.253 1.137-3.22.274-.031.287-.458 0-.444-1.37.067-2.076.956-2.193 2.31-.174 2.012 2.26 3.372 3.63 4.241 5.311 3.367 10.729 6.574 15.682 10.479 1.988 1.567 3.763 3.168 6.036 4.314a36.867 36.867 0 0 1 7.414 4.903c.725.612 2.668 1.34 3.284.103.868-1.741.147-3.574-1.186-4.843z" fill="#000"/><path d="M47.798 208.567c-.045-.132-.191-.251-.337-.194-.038.015-.071.032-.106.05a4.594 4.594 0 0 0-.234-.698.217.217 0 0 0-.09-.099l-.119-.479c-.056-.228-.307-.256-.456-.143l-.009-.019c-.13-.252-.515-.128-.515.142l-.003.364-.005.024c.001.585.001 1.17.006 1.754-.434.287-.355.9-.015 1.2-.06.233.235.46.454.329.12-.073.23-.155.334-.242a1.17 1.17 0 0 0 .547-.458c.039.056.079.111.12.163.18.226.471.012.498-.21.015-.126.018-.272.007-.423a1.94 1.94 0 0 0-.077-1.061zm-33.718-23.74c-.031.077-.056.155-.082.232a.296.296 0 0 0-.29.055.704.704 0 0 0-.262.447.944.944 0 0 0-.197.155.314.314 0 0 0-.138.06c-.267.211-.38.515-.323.775a.237.237 0 0 0-.04.09 5.61 5.61 0 0 0-.07.388c-.09.237-.103.48-.04.708.033.607.275 1.146.974 1.348l.043.005.008.014c.145.21.495.154.505-.123a.254.254 0 0 0 .085-.2v-.63l.01-.047-.005-1.127.34-2.006c.059-.35-.387-.466-.518-.145z" fill="#000"/><path d="M48.228 210.402c-.068-.529-.897-.536-.828 0 .13 1.001.202 1.969.04 2.974-.47 2.9-3.763.675-4.76.014-1.597-1.06-2.968-2.474-4.435-3.705-2.929-2.457-6.592-3.696-9.933-5.449-3.684-1.933-7.165-4.238-10.594-6.596-1.79-1.232-4.36-2.454-5.192-4.6-.739-1.904-.18-5.27.416-7.102.084-.258-.305-.358-.396-.11-.718 1.95-1.17 4.69-.739 6.758.411 1.975 1.749 2.92 3.31 4.02 4.73 3.332 9.497 6.63 14.672 9.221 2.396 1.2 4.872 2.168 7.065 3.744 1.91 1.372 3.518 3.13 5.426 4.512 1.044.756 3.425 2.301 4.759 1.31 1.576-1.172 1.42-3.207 1.19-4.991z" fill="#000"/><path d="M47.348 214.279c-2.21 8.134 5.583 113.437 13.851 143.964.053.195.748.18.703 0-7.467-30.527-15.908-135.349-14.131-143.846.058-.278-.347-.396-.423-.118zm-34.4-19.605l-.675-1.114c-4.199 23.72-10.24 64.954-10.615 76.96C0 299.705-.758 329.588 4.35 358.55h1.17C.29 329.453 1.73 299.882 2.85 270.48c1.436-23.146 10.085-75.43 10.097-75.806zm74.8-178.03c-1.637-3.664-3.966-6.997-6.503-10.076-.525-.638-1.633.223-1.138.89 2.366 3.188 4.206 6.623 5.938 10.195.566 1.168 2.22.147 1.703-1.01zM96.194.832c-.058-.991-1.46-.991-1.519 0a121.817 121.817 0 0 0-.099 12.472c.05 1.12 1.667 1.12 1.716 0 .184-4.12.144-8.354-.098-12.472zm13.572.49c-1.775 3.522-3.507 7.373-4.286 11.266-.221 1.104 1.315 1.541 1.664.465 1.211-3.73 2.25-7.396 3.908-10.97.403-.869-.846-1.635-1.286-.761zm13.354 10.546c-3.89.89-7.52 2.17-10.963 4.24-.923.556-.11 1.943.837 1.45 3.345-1.742 6.865-3.303 10.503-4.302.887-.244.513-1.592-.377-1.388z" fill="#000"/><path d="M53.303 307.963c-.337 6.58-.337 12.565 0 17.957.505 8.089.132 5.067 1.422 14.366.86 6.2 1.758 12.185 2.692 17.957h3.732c-2.477-10.774-5.092-27.534-7.846-50.28zm-4.858-51.127c-.256 6.098-.555 12.816-.897 20.154-.512 11.007-.642 14.283-.897 18.395s.309-.342 0 10.783-.897 14.297-.897 21.548c0 7.252-.313 3.178.897 13.468.806 6.86 1.704 12.546 2.691 17.06h5.383c-1.891-9.887-3.087-16.472-3.588-19.754-.752-4.923-1.107-8.413-1.346-12.57-.24-4.156 0-3.673 0-10.828V300.78v-26.936l-1.346-17.01z" fill="#4FD2C5"/></g></g><g mask="url(#c)"><g transform="translate(24.033 71.063)"><path d="M133.726 92.708a4.958 4.958 0 0 0-.353-.974l-.021-.01v-.03a2.148 2.148 0 0 0-.447-.598c-.705-.637-1.811-.554-2.595-.189-.52.243-.977.602-1.403 1.004a.382.382 0 0 1-.224.217c-.241.24-.474.49-.704.739l-11.715 12.672a72.927 72.927 0 0 1 13.776-3.176 14.616 14.616 0 0 1 2.106-.14c1.845-2.76 2.439-6.294 1.58-9.515z" fill="#FED7D8"/><path d="M152.061 38.175c.134.243.346.484.648.736.898.75 2.068 1.16 3.173 1.093 1.148-.067 2.241-.678 2.786-1.555.347-.562.494-1.222.59-1.795.065-.38.098-.694.049-.986-.05-.294-.195-.603-.431-.92-.674-.904-1.866-1.481-3.11-1.506a3.857 3.857 0 0 0-1.275.184c-1.548.506-2.677 2.02-2.683 3.6-.002.453.084.84.253 1.149z" fill="#F7AE55"/><path d="M152.992 43.207c1.662.033 3.4-.09 4.932-.198 1.42-.1 2.754-.193 3.808-.153.425.016.89.045 1.383.076.74.046 1.578.099 2.422.116 3.334.065 7.327-.366 8.62-4.324.036-.108.065-.219.094-.33a5.66 5.66 0 0 1-.125.402c-1.375 3.808-5.65 4.166-8.746 4.105-.817-.016-1.62-.064-2.327-.106a60.22 60.22 0 0 0-1.247-.067l-.237-.007c-.881-.018-1.984.047-3.151.117-1.406.084-3 .178-4.55.147-2.736-.054-6.563-.466-8.176-3.41a5.94 5.94 0 0 1-.694-3.324c.049-.579.184-1.124.402-1.621 1.19-2.728 4.273-3.35 6.488-3.582a80.244 80.244 0 0 1 16.944.034c1.229.134 2.417.312 3.454 1.016 1.636 1.111 2.472 3.522 2.096 5.717.407-2.323-.342-4.946-1.835-6.075-.922-.697-2.02-.873-3.258-1.018a77.214 77.214 0 0 0-7.407-.506 77.453 77.453 0 0 0-10.824.548c-2.335.283-5.156.965-6.252 3.742a5.844 5.844 0 0 0-.376 1.673c-.096 1.196.136 2.472.637 3.5 1.133 2.323 3.65 3.444 7.925 3.528zm-19.82 58.818c-.05.086-.099.173-.15.258l.145.02.005-.278z" fill="#FFF"/><path d="M143.44 36.105a6.731 6.731 0 0 1 .438-1.931c1.296-3.284 4.645-4.052 7.052-4.344a78.386 78.386 0 0 1 18.477-.043c1.34.157 2.633.367 3.757 1.216 2.015 1.524 2.886 5.114 1.94 8.003-1.506 4.607-6.192 5.05-9.585 4.984a58.238 58.238 0 0 1-2.467-.118c-.485-.03-.94-.058-1.358-.075l-.228-.007c-.967-.019-2.18.067-3.466.158-1.554.11-3.317.235-5.026.201-2.956-.058-7.084-.545-8.806-4.076-.579-1.187-.837-2.596-.727-3.968zm-7.733 67.387c.951.947 1.385 2.457 1.162 4.04-.25 1.775-1.283 3.472-2.886 4.856l-.121 6.888c-.044 2.505-.1 5.01-.158 7.516-.112 4.925-.227 10.017-.236 15.022 0 .344-.003.706-.007 1.081-.034 4.348-.086 10.92 3.42 13.891 1.881 1.594 3.797 2.452 5.967 2.889.853-.327 1.721-.655 2.57-.934 5.657-1.862 12.228-1.849 19.002.036 1.361.378 3.56 1.121 5.649 2.39a7.043 7.043 0 0 1 1.98-1.457c4.832-2.349 11.805-1.388 16.896-.687l.07.01c.421-.24 9.855-.174 10.122-.168.263.006.536.014.82.023 2.207.068 4.955.152 6.873-.701 3.532-1.573 3.354-6.45 3.236-9.675l-.011-.287c-.158-4.453-.085-8.99.04-13.464-2.419-.978-5.121-1.916-8.741-2.964-.927-.268-1.658-.902-2.174-1.885-.908-1.727-.95-4.326-.465-5.84a.38.38 0 0 1 .3-.256c.326-.844 1.16-1.464 1.97-1.674 1.07-.278 2.165-.054 3.132.143l6.395 1.308c.014-1.228.035-2.457.06-3.685.014-.67-.057-1.454.05-2.145-2.689.756-5.425 1.064-7.932.03-2.239-.924-4.424-3.113-4.257-5.921.127-2.157 1.55-4.073 4.231-5.695 2.493-1.508 5.317-2.49 8.049-3.441l.326-.113.515-.18c-1.267-1.074-3.076-1.443-4.72-1.655l-.61-.076c-1.827-.225-3.717-.457-5.291-1.5-1.595-1.055-2.689-2.895-2.926-4.922-.181-1.546.089-4.336 1.574-5.683 1.202-1.09 3.03-1.002 4.496-.932l.425.02c2.438.096 4.833.204 7.203.4-.224-1.421-.238-12.088-.235-12.33l.007-.564c.185-16.072.376-32.692-.609-48.932a10.322 10.322 0 0 0-.03-.39c-.502-4.887-4.481-5.933-11.185-6.085-11.054-.254-22.31-.025-33.196.194-6.445.13-13.108.264-19.663.298-3.074.016-7.049.672-8.999 2.1-3.516 2.574-3.427 6.46-3.34 10.216.013.556.026 1.108.028 1.654.015 5.332.113 10.74.288 16.069.211 6.408.087 12.868-.033 19.116-.022 1.163-.045 2.329-.065 3.497l-.335 19.142c.047.147.09.29.126.426.635 2.385.523 4.931-.26 7.25l-.049 2.783c.572.198 1.1.502 1.552.953z" fill="#F687B3"/><path d="M169.954 36.793c-.07.408-.186.936-.476 1.404-.483.781-1.407 1.303-2.41 1.362a3.037 3.037 0 0 1-.266.005 3.827 3.827 0 0 1-2.331-.889 2.438 2.438 0 0 1-.594-.688c-.17-.308-.255-.674-.254-1.088.006-1.317.95-2.58 2.246-3.004.344-.113.71-.166 1.088-.159 1.04.02 2.043.512 2.616 1.28.221.298.36.603.412.906.051.303.016.597-.03.87zm1.756-3.929c-.843-.572-1.894-.726-2.988-.846a78.896 78.896 0 0 0-6.958-.446c-1.849-.037-3.71 0-5.566.095 1.655.136 3.211.941 4.125 2.17.374.5.605 1.007.69 1.507.09.527.019 1.04-.056 1.481-.123.72-.327 1.652-.827 2.459-.827 1.332-2.406 2.222-4.124 2.323a5.792 5.792 0 0 1-.456.008c-1.428-.028-2.9-.59-4.042-1.542-.456-.382-.784-.761-1.003-1.159-.281-.51-.422-1.125-.42-1.825.01-2.271 1.636-4.45 3.87-5.18.181-.059.367-.105.555-.145-.84.06-1.677.133-2.512.22-2.131.223-4.703.766-5.682 3.008a4.226 4.226 0 0 0-.33 1.337c-.081.96.132 1.985.585 2.812 1.043 1.902 3.367 2.824 7.316 2.902 1.507.03 3.08-.063 4.467-.145 1.301-.077 2.523-.146 3.49-.112.39.016.816.041 1.27.068.697.042 1.488.09 2.284.105 3.021.06 6.638-.28 7.79-3.47.726-2.013.049-4.588-1.478-5.625z" fill="#4B5668"/><path d="M168.763 35.56c-.393-.53-1.092-.867-1.824-.882-.26-.005-.512.031-.746.108-.91.297-1.574 1.188-1.578 2.119 0 .259.046.477.14.647.075.135.195.272.369.416.534.446 1.23.691 1.88.65.67-.039 1.304-.393 1.62-.9.204-.331.292-.73.351-1.078.038-.225.058-.409.031-.57a1.228 1.228 0 0 0-.243-.51z" fill="#FFF"/><path d="M126.523 115.872c-.248.076-.498.152-.748.23-.81.457-1.525 1.108-2.323 1.93a41.327 41.327 0 0 0-5.632 7.279c2.058-.005 4.06.043 5.958.088.434.01.906.024 1.388.069.588-3.836 2.049-7.389 4.349-10.579-.993.369-2.002.683-2.992.983zm141.393 59.19c-1.763-3.675-3.285-7.521-4.756-11.24-.882-2.231-1.795-4.538-2.749-6.78-2.23-5.24-4.997-9.955-7.928-14.947-.399-.68-.799-1.362-1.198-2.046-3.316-5.68-5.39-11.522-7.57-18.022-.158-.473-.316-.952-.474-1.432-1.674-5.075-3.406-10.323-7.44-13.6-4.329-3.517-9.84-5.52-15.518-5.642-2.616-.058-5.195.701-7.71 1.557l-.014.019a.372.372 0 0 1-.304.09c-.324.11-.647.223-.969.335l-.325.113c-2.695.938-5.481 1.907-7.905 3.374-2.45 1.483-3.75 3.191-3.861 5.077-.144 2.426 1.796 4.34 3.783 5.159 3.719 1.532 8.152-.171 12.064-1.675.538-.206 1.053-.401 1.558-.588a.374.374 0 0 1 .057-.102 5.282 5.282 0 0 0 1.205-2.826.377.377 0 0 1 .42-.343c.21.022.361.213.339.426a6.084 6.084 0 0 1-.875 2.542.38.38 0 0 1 .212.228.381.381 0 0 1-.004.242c1.44.934 3.06 1.619 4.724 1.99l.279.06c.586.125 1.193.255 1.738.587.594.362 1.016.905 1.34 1.495a.376.376 0 0 1 .29-.046c2.13.525 4.482.085 6.288-1.175a.38.38 0 0 1 .532.1.39.39 0 0 1-.098.537 8.651 8.651 0 0 1-4.915 1.527 8.36 8.36 0 0 1-1.732-.184c.056.133.11.266.16.396a23.298 23.298 0 0 1 1.528 7.413 64.16 64.16 0 0 1 13.61 6.304.389.389 0 0 1-.198.717.374.374 0 0 1-.198-.056 63.412 63.412 0 0 0-13.55-6.263l-.02.004h-.01a.373.373 0 0 1-.25-.097c-.87-.28-1.744-.547-2.626-.79-2.67-.73-5.436-1.297-8.11-1.844l-12.77-2.613c-.886-.18-1.891-.387-2.791-.152-.778.202-1.567.9-1.541 1.718a.383.383 0 0 1-.358.396c-.24 1.369-.11 3.236.577 4.544.416.79.991 1.296 1.71 1.504 7.668 2.22 11.25 3.951 16.67 6.572 1.957.946 3.703 1.937 5.258 2.974a.367.367 0 0 1 .18-.054 6.226 6.226 0 0 0 4.627-2.167.378.378 0 0 1 .538-.04.39.39 0 0 1 .04.546 7.016 7.016 0 0 1-4.422 2.38c3.55 2.548 5.963 5.379 7.302 8.562.738 1.754 1.154 3.635 1.557 5.453.081.365.162.73.245 1.093a77.035 77.035 0 0 0 5.41 15.647c.09.193.01.424-.18.516a.382.382 0 0 1-.51-.182 77.836 77.836 0 0 1-5.463-15.806c-.084-.365-.165-.732-.247-1.099-.395-1.784-.804-3.63-1.514-5.32-1.963-4.665-6.141-8.417-13.15-11.805-1.87-.904-3.519-1.701-5.194-2.45a135.342 135.342 0 0 1 1.814 11.777c4.06 1.697 7.377 4.986 9.125 9.073a.389.389 0 0 1-.199.509.378.378 0 0 1-.502-.201c-1.614-3.776-4.63-6.84-8.334-8.504.107 1.045.205 2.09.288 3.134.216 2.745.176 5.807-1.757 7.717-1.446 1.426-3.579 1.79-5.277 1.946-5.096.469-10.21-.273-15.157-.99-.99-.143-1.977-.287-2.965-.42l-.904-.125c-4.996-.688-11.838-1.63-16.463.618-.604.293-1.164.699-1.65 1.18 2.262 1.52 4.267 3.7 4.745 6.759.13.823.096 1.546-.098 2.157.22.114.43.23.632.342.727.405 1.355.755 2.245.874 15.716 2.094 20.015 3.788 28.766 9.41 2.796 1.797 5.548 3.938 8.21 6.01 5.029 3.915 10.23 7.963 16.121 10.04.56.196 1.13.384 1.705.574 3.295 1.087 6.703 2.212 8.612 5.13.68 1.036 1.102 2.227 1.51 3.379.564 1.588 1.097 3.09 2.238 4.157.65.608 1.441 1.017 2.28 1.45l.264.14a.37.37 0 0 1 .154-.042c2.868-.123 5.18-2.24 7.491-4.586a.378.378 0 0 1 .54-.001.39.39 0 0 1 0 .547c-2.094 2.126-4.359 4.21-7.082 4.704.06.037.121.07.18.107.978.641 1.802 1.456 2.539 2.343l.072-.014c1.759.058 3.546-.597 4.88-1.772.159-.14.4-.124.538.038a.39.39 0 0 1-.037.546 7.945 7.945 0 0 1-4.863 1.949c.432.575.84 1.166 1.229 1.752 10.826 16.265 24.155 53.247 28.712 71.827h49.93c-1.733-13.482-19.696-43.986-52.714-95.847-.525-.684-1.05-1.367-1.572-2.055a95.784 95.784 0 0 1-10.04-16.443zm-144.355-58.22c-.228.084-.455.169-.678.26-4.452 1.818-9.473 4.496-14.52 7.742-.466.3-.903.686-1.366 1.095l-.177.155c3.375-.558 6.801-.745 10.099-.778a42.116 42.116 0 0 1 5.989-7.826c.21-.217.428-.435.653-.648z" fill="#FED7D8"/><path d="M106.707 125.171a5.579 5.579 0 0 1-2.956-1.357.39.39 0 0 1-.032-.546.377.377 0 0 1 .539-.033 4.802 4.802 0 0 0 3.157 1.218c.046 0 .088.011.129.026.134-.1.27-.198.41-.287 3.52-2.264 7.024-4.246 10.341-5.866a6.787 6.787 0 0 1-1.657-2.049.389.389 0 0 1 .16-.522.38.38 0 0 1 .516.162 6.013 6.013 0 0 0 1.716 2.025l.016.017a69.86 69.86 0 0 1 3.551-1.575c.947-.386 1.926-.705 2.893-1.004.082-.045.163-.09.246-.132a.373.373 0 0 1 .259-.022l.309-.095c1.514-.459 3.08-.935 4.521-1.616 2.97-1.405 4.948-3.682 5.288-6.092.19-1.341-.162-2.605-.941-3.38-.7-.697-1.657-.97-2.687-1.033a.375.375 0 0 1-.377-.014c-.654-.01-1.326.051-1.972.134-11.307 1.452-22.45 5.713-32.224 12.323-1.83 1.239-3.725 2.633-5.175 4.43-1.478 1.831-2.465 4.04-3.419 6.176-1.11 2.487-2.463 5.002-3.77 7.435-1.058 1.967-2.142 3.988-3.102 5.997.365-.284.73-.563 1.095-.842l5.536-4.243c2.193-1.682 4.46-3.42 6.938-4.774 2.889-1.578 6.01-2.595 9.205-3.245.432-.29.843-.648 1.276-1.03l.21-.186zm123.223-22.558c-1.361-4.417-4.855-8.492-9.907-11.519-.74-.444-1.725-.999-2.776-1.356-1.187-.403-2.428-.56-3.703-.696-2.971-.318-5.987-.453-9.072-.575l-.431-.02c-1.329-.063-2.983-.143-3.95.736-1.124 1.019-1.521 3.344-1.326 5.016.21 1.802 1.178 3.434 2.586 4.366 1.424.944 3.224 1.165 4.965 1.38l.613.076c1.903.245 4.02.697 5.45 2.14 2.563-.87 5.2-1.636 7.92-1.581 3.33.071 6.605.774 9.631 2.033zm-18.67 16.817c.025 1.434.047 2.868.058 4.303l-.005.024 5.571 1.14c1.05.215 2.115.436 3.182.666a141.142 141.142 0 0 0-2.46-9.89c-.132-.083-.26-.173-.388-.261-.613.22-1.241.458-1.905.714-1.32.506-2.696 1.034-4.091 1.46.18.529.031 1.43.038 1.844zm8.46.834c1.331.561 2.737.903 4.176 1.017.21.017.367.203.35.416a.384.384 0 0 1-.38.356h-.03a14.233 14.233 0 0 1-3.992-.908c.37 1.522.72 3.049 1.037 4.572v.021c1.395.308 2.79.64 4.164 1.017.76.208 1.515.431 2.266.667a22.513 22.513 0 0 0-1.463-6.874c-.329-.855-.77-1.794-1.546-2.267-.435-.265-.954-.376-1.503-.494l-.286-.061a15.291 15.291 0 0 1-3.96-1.497c.374 1.33.733 2.67 1.07 4.016l.096.02z" fill="#FED7D8"/><path d="M80.731 157.941a.388.388 0 0 1-.195-.51.38.38 0 0 1 .503-.197 21.118 21.118 0 0 0 13.238 1.299.387.387 0 0 1 .168.755 21.873 21.873 0 0 1-13.713-1.346zm31.484 9.505c1.44-5.946 6.137-10.83 11.969-12.44a.387.387 0 0 1 .2.746c-5.482 1.515-10.074 6.288-11.427 11.878a.384.384 0 0 1-.37.295l-.092-.011a.388.388 0 0 1-.28-.468zm-20.793 63.177c6.286-13.978 8.618-15.358 14.25-18.69 1.732-1.023 3.693-2.184 6.2-3.95 8.954-6.315 17.548-14.298 25.542-23.73.228-.268.454-.54.681-.81 1.239-1.48 2.519-3.01 4.05-4.25 1.683-1.362 3.63-2.342 5.483-3.197 8.158-3.767 15.118-5.155 21.28-4.243 2.365.35 4.562.535 5.5-.964a.384.384 0 0 1-.013-.334.375.375 0 0 1 .261-.209c.15-.49.173-1.086.064-1.779-.456-2.918-2.457-4.985-4.684-6.416a.37.37 0 0 1-.178-.083l-.046-.06c-2.049-1.27-4.25-2.012-5.594-2.386-6.63-1.844-13.05-1.86-18.564-.046-.98.323-1.997.714-2.982 1.093-3.858 1.486-7.85 3.022-11.584 1.355-2.696-1.205-5.207-3.82-6.397-6.663-2.182-5.214-2.378-11.82-.578-18.673-.203.075-.402.143-.593.205-2.415.768-5.006 1.006-7.513 1.236l-1.043.097c.044.967.018 1.94-.086 2.898a.384.384 0 0 1-.38.345l-.042-.002a.386.386 0 0 1-.337-.427c.099-.906.124-1.824.084-2.738-3.082.32-5.982.812-8.504 2.447-1.044.677-2.014 1.559-2.952 2.41-1.65 1.498-3.355 3.047-5.562 3.594a.387.387 0 0 1-.18-.752c2.02-.5 3.58-1.917 5.232-3.417.96-.873 1.954-1.775 3.05-2.486 2.732-1.771 5.94-2.274 9.132-2.595a.376.376 0 0 1 .12-.034l.084.013c.439-.043.878-.083 1.315-.124 2.467-.226 5.017-.46 7.353-1.203 1.679-.535 3.916-1.599 5.032-3.627.946-1.718.801-4.334-.923-5.49-1.05-.704-2.486-.738-3.64-.766-5.823-.139-12.155-.29-18.193.911l-.031.023a.373.373 0 0 1-.298.046c-3.069.637-6.058 1.63-8.861 3.161-2.425 1.325-4.669 3.045-6.84 4.71l-5.536 4.243c-4.212 3.218-8.566 6.544-10.26 15.855-.756 13.632-1.617 29.079-8.514 42.044-6.545 12.307-14.9 24.439-25.538 37.088-2.126 2.528-4.338 4.992-6.567 7.405-18.883 22.952-29.299 38.97-31.249 48.055H65.512c4.852-11.967 12.603-29.928 24.895-56.862.503-1.1.85-1.863 1.015-2.228z" fill="#FED7D8"/><path d="M325.01 269.83c-7.112-14.511-22.111-40.143-44.999-76.895l-.695.303c36.823 59.319 45.408 77.714 45.402 77.76 5.68 11.539 7.443 16.685 7.55 18.735.01.208.18.367.38.367h.021a.385.385 0 0 0 .361-.406c-.142-2.734-2.829-9.38-8.02-19.864zM216.947 115.35a.377.377 0 0 1-.249-.093.39.39 0 0 1-.041-.545 5.282 5.282 0 0 0 1.205-2.826.377.377 0 0 1 .42-.343c.21.022.361.213.339.426a6.073 6.073 0 0 1-1.385 3.246.379.379 0 0 1-.29.135z" fill="#000"/><path d="M227.721 128.387a.384.384 0 0 1-.381-.375 22.526 22.526 0 0 0-1.492-7.464c-.329-.855-.77-1.794-1.546-2.267-.435-.265-.954-.376-1.503-.494l-.285-.061a15.33 15.33 0 0 1-5.571-2.502.39.39 0 0 1-.09-.539.378.378 0 0 1 .532-.091 14.57 14.57 0 0 0 5.293 2.376l.279.06c.586.126 1.193.256 1.739.588.973.593 1.488 1.672 1.863 2.65.95 2.472 1.47 5.07 1.544 7.722a.385.385 0 0 1-.37.397h-.012z" fill="#000"/><path d="M228.132 120.056a8.335 8.335 0 0 1-1.987-.238.387.387 0 0 1-.28-.467.38.38 0 0 1 .46-.284c2.13.525 4.482.085 6.289-1.175a.379.379 0 0 1 .53.1.39.39 0 0 1-.097.537 8.65 8.65 0 0 1-4.915 1.527zm19.997 92.684a.384.384 0 0 1-.381-.37.385.385 0 0 1 .365-.403c2.868-.123 5.18-2.24 7.491-4.586a.378.378 0 0 1 .54-.001.39.39 0 0 1 0 .547c-2.325 2.36-4.859 4.677-7.999 4.813h-.016zm-24.454-71.422a.384.384 0 0 1-.382-.383.384.384 0 0 1 .379-.39 6.226 6.226 0 0 0 4.626-2.167.378.378 0 0 1 .538-.04.39.39 0 0 1 .04.546c-1.287 1.509-3.23 2.42-5.198 2.434h-.003zm28.362 74.525c-.068 0-.137 0-.205-.002a.385.385 0 0 1-.371-.397.381.381 0 0 1 .392-.377c1.759.058 3.546-.597 4.88-1.772.159-.14.4-.124.538.038a.39.39 0 0 1-.037.546 7.945 7.945 0 0 1-5.197 1.964zm-31.53-89.659a.383.383 0 0 1-.373-.307 141.219 141.219 0 0 0-2.536-10.23.387.387 0 0 1 .26-.479.38.38 0 0 1 .473.263 142.38 142.38 0 0 1 2.55 10.286.387.387 0 0 1-.294.459l-.08.008z" fill="#000"/><path d="M223.867 122.053h-.03a14.229 14.229 0 0 1-4.41-1.075.389.389 0 0 1-.207-.505.381.381 0 0 1 .5-.209c1.332.561 2.737.903 4.176 1.017.21.017.367.203.35.416a.384.384 0 0 1-.38.356zM73.383 154.686a.385.385 0 0 0-.403.364c-.752 13.558-1.605 28.926-8.424 41.747-6.521 12.26-14.845 24.347-25.449 36.955-1.935 2.301-3.996 4.55-6.026 6.758-17.613 20.936-28.36 37.337-32.24 49.203h1.032c7.8-21.047 28.777-44.74 31.208-48.014 2.244-2.427 4.47-4.903 6.608-7.446 10.638-12.65 18.993-24.781 25.538-37.088 6.901-12.974 7.759-28.433 8.515-42.072a.385.385 0 0 0-.36-.407zm100.951-116.64c-.018.088-.037.177-.058.264.022-.087.04-.176.058-.264zm-20.38-6.137c-2.233.73-3.86 2.909-3.869 5.18-.002.7.139 1.315.42 1.825.219.398.547.777 1.003 1.159 1.141.952 2.614 1.514 4.042 1.542.152.003.304 0 .456-.008 1.718-.101 3.297-.991 4.124-2.323.5-.807.704-1.738.827-2.459.075-.44.146-.954.056-1.481-.085-.5-.316-1.007-.69-1.508-.914-1.228-2.47-2.033-4.125-2.17a78.927 78.927 0 0 1 5.566-.094c2.316.045 4.657.196 6.958.446 1.094.12 2.145.274 2.988.846 1.527 1.037 2.204 3.612 1.477 5.624-1.151 3.19-4.768 3.531-7.789 3.471-.796-.015-1.587-.063-2.285-.105-.453-.027-.879-.052-1.268-.068-.968-.034-2.19.035-3.491.112-1.387.082-2.96.175-4.467.145-3.949-.078-6.273-1-7.316-2.902a5.096 5.096 0 0 1-.585-2.812c.041-.48.152-.93.33-1.337.979-2.242 3.55-2.785 5.682-3.008.835-.087 1.673-.16 2.512-.22-.188.04-.374.086-.556.145zm.537 1.517c.401-.13.83-.193 1.276-.184 1.243.025 2.435.602 3.109 1.506.236.317.38.627.43.92.05.292.017.605-.048.986-.096.573-.243 1.233-.59 1.795-.545.877-1.638 1.487-2.786 1.555-1.105.066-2.275-.343-3.173-1.093-.302-.252-.514-.493-.648-.736-.17-.309-.255-.696-.253-1.148.006-1.58 1.135-3.095 2.683-3.6zm11.046 9.622c-.844-.017-1.683-.07-2.422-.116a60.84 60.84 0 0 0-1.383-.076c-1.054-.04-2.389.052-3.808.153-1.533.108-3.27.231-4.932.198-4.274-.084-6.792-1.205-7.925-3.529-.5-1.027-.733-2.303-.637-3.499a5.844 5.844 0 0 1 .376-1.673c1.096-2.777 3.917-3.458 6.252-3.742a77.453 77.453 0 0 1 10.824-.548c2.466.05 4.958.22 7.407.506 1.237.145 2.336.321 3.258 1.018 1.493 1.13 2.242 3.752 1.835 6.075.376-2.195-.46-4.606-2.096-5.717-1.037-.704-2.225-.882-3.454-1.016a80.244 80.244 0 0 0-16.944-.034c-2.215.231-5.298.854-6.488 3.582a5.128 5.128 0 0 0-.402 1.62 5.94 5.94 0 0 0 .694 3.325c1.613 2.944 5.44 3.356 8.177 3.41 1.548.03 3.143-.063 4.549-.147 1.167-.07 2.27-.135 3.151-.117l.237.007c.383.015.802.04 1.247.067.708.042 1.51.09 2.327.106 3.096.061 7.37-.297 8.746-4.105a5.66 5.66 0 0 0 .125-.401c-.03.11-.058.22-.093.33-1.294 3.957-5.287 4.388-8.62 4.323zm9.567-4.042c.946-2.889.075-6.479-1.94-8.003-1.124-.849-2.418-1.06-3.757-1.216a78.386 78.386 0 0 0-18.477.043c-2.407.292-5.756 1.06-7.052 4.344a6.731 6.731 0 0 0-.437 1.931c-.11 1.372.148 2.781.727 3.968 1.722 3.531 5.85 4.018 8.806 4.076 1.71.034 3.472-.09 5.026-.2 1.286-.092 2.5-.178 3.466-.159l.228.007c.417.017.873.045 1.358.075.75.047 1.6.1 2.467.118 3.393.067 8.079-.377 9.585-4.984z" fill="#000"/><path d="M166.193 34.786c.234-.077.485-.113.746-.108.732.015 1.43.352 1.824.881.134.18.216.352.243.511.027.161.007.345-.03.57-.06.347-.148.747-.352 1.077-.316.508-.95.862-1.62.901-.65.041-1.346-.204-1.88-.65a1.52 1.52 0 0 1-.37-.416c-.093-.17-.14-.388-.139-.647.004-.93.668-1.822 1.578-2.12zm-1.722 3.89a3.827 3.827 0 0 0 2.331.888c.089.002.177 0 .265-.005 1.004-.06 1.928-.58 2.411-1.362.29-.468.407-.996.476-1.404.047-.274.082-.568.03-.871a2.13 2.13 0 0 0-.411-.906c-.573-.768-1.575-1.26-2.616-1.28a3.281 3.281 0 0 0-1.088.159c-1.296.423-2.24 1.687-2.246 3.004-.001.414.084.78.254 1.088.132.24.327.466.594.688zm-51.885 129.249a.384.384 0 0 0 .37-.295c1.354-5.59 5.946-10.363 11.428-11.878a.387.387 0 0 0-.2-.746c-5.832 1.61-10.53 6.494-11.97 12.44a.388.388 0 0 0 .28.468l.092.01zm-22.956-8.098c1.616 0 3.234-.179 4.814-.54a.387.387 0 0 0-.167-.754 21.118 21.118 0 0 1-13.238-1.3.38.38 0 0 0-.503.199.388.388 0 0 0 .195.51 21.873 21.873 0 0 0 8.899 1.885z" fill="#000"/><path d="M145.419 158.74c-.85.28-1.718.608-2.57.935-2.171-.437-4.087-1.295-5.968-2.889-3.506-2.972-3.454-9.543-3.42-13.89.004-.376.006-.738.007-1.082.009-5.005.124-10.097.236-15.022.058-2.506.114-5.011.158-7.516l.12-6.888c1.604-1.384 2.636-3.081 2.887-4.856.223-1.583-.211-3.093-1.162-4.04a4.022 4.022 0 0 0-1.552-.953l.049-2.783c.783-2.319.895-4.865.26-7.25a7.937 7.937 0 0 0-.126-.426l.335-19.142c.02-1.168.043-2.334.065-3.497.12-6.248.244-12.708.033-19.116a537.012 537.012 0 0 1-.288-16.07c-.002-.545-.015-1.097-.027-1.653-.088-3.757-.177-7.642 3.34-10.216 1.949-1.428 5.924-2.084 8.998-2.1 6.555-.034 13.218-.168 19.663-.298 10.886-.22 22.142-.448 33.196-.194 6.704.152 10.683 1.198 11.184 6.086.013.127.023.257.031.39.985 16.24.794 32.859.609 48.93l-.007.565c-.003.242.011 10.909.235 12.33-2.37-.196-4.765-.304-7.203-.4l-.425-.02c-1.466-.07-3.294-.158-4.496.932-1.485 1.347-1.755 4.137-1.574 5.683.237 2.027 1.331 3.867 2.926 4.923 1.574 1.042 3.464 1.274 5.291 1.499l.61.076c1.644.212 3.453.581 4.72 1.655l-.515.18-.326.113c-2.732.95-5.556 1.933-8.049 3.44-2.68 1.623-4.104 3.539-4.231 5.696-.167 2.808 2.018 4.997 4.257 5.92 2.507 1.035 5.243.727 7.933-.029-.108.69-.037 1.475-.05 2.145a408.962 408.962 0 0 0-.061 3.686l-6.395-1.309c-.967-.197-2.063-.421-3.131-.143-.81.21-1.645.83-1.972 1.674a.38.38 0 0 0-.299.256c-.485 1.514-.443 4.113.465 5.84.516.983 1.247 1.617 2.174 1.885 3.62 1.048 6.322 1.986 8.742 2.964-.126 4.473-.199 9.011-.041 13.464l.01.287c.119 3.226.297 8.102-3.235 9.675-1.918.853-4.666.769-6.873.7-.284-.008-.557-.016-.819-.022h-.001c-.267-.006-9.7-.072-10.122.168l-.07-.01c-5.091-.701-12.064-1.662-16.897.687a7.043 7.043 0 0 0-1.98 1.456c-2.088-1.268-4.287-2.01-5.648-2.39-6.774-1.884-13.345-1.897-19.001-.035zm-14.023 2.476c-2.528-1.13-4.884-3.586-6.002-6.258-2.175-5.196-2.312-11.843-.396-18.732 1.493-.675 3.07-1.746 3.992-3.421 1.113-2.02.909-5.12-1.169-6.512-.582-.39-1.237-.601-1.899-.722.619-4.013 2.223-7.707 4.776-10.985a.376.376 0 0 0 .074-.208c.125-.056.253-.104.376-.163.658-.31 1.267-.665 1.83-1.051l-.107 6.094c-.045 2.504-.101 5.007-.158 7.511-.112 4.93-.228 10.027-.237 15.04 0 .343-.003.703-.007 1.077-.035 4.518-.09 11.346 3.753 14.602 1.625 1.378 3.295 2.242 5.095 2.773-3.373 1.274-6.808 2.347-9.921.955zm-13.576-35.905a41.327 41.327 0 0 1 5.632-7.278c.798-.823 1.513-1.474 2.323-1.932l.748-.229c.99-.3 1.999-.614 2.992-.983-2.3 3.19-3.76 6.743-4.35 10.579a20.081 20.081 0 0 0-1.387-.069c-1.898-.045-3.9-.093-5.958-.088zm-10.823.628c.463-.409.9-.795 1.365-1.095 5.048-3.246 10.069-5.924 14.52-7.742.224-.091.451-.176.679-.26-.225.213-.442.431-.653.648a42.116 42.116 0 0 0-5.989 7.826c-3.298.033-6.724.22-10.099.778l.177-.155zm-10.982 3.693c-2.477 1.353-4.745 3.092-6.938 4.774l-5.536 4.243c-.365.279-.73.558-1.095.842.96-2.01 2.044-4.03 3.102-5.997 1.307-2.433 2.66-4.948 3.77-7.435.954-2.136 1.94-4.345 3.42-6.177 1.45-1.796 3.343-3.19 5.174-4.429 9.774-6.61 20.917-10.871 32.224-12.323a13.962 13.962 0 0 1 1.972-.134c.118.074.26.076.377.014 1.03.063 1.988.336 2.687 1.033.779.775 1.13 2.039.94 3.38-.34 2.41-2.316 4.687-5.287 6.092-1.442.681-3.007 1.157-4.521 1.616l-.31.095a.373.373 0 0 0-.258.022c-.083.041-.164.087-.246.132-.967.299-1.946.618-2.893 1.004a69.86 69.86 0 0 0-3.551 1.575l-.016-.017a6.013 6.013 0 0 1-1.716-2.025.38.38 0 0 0-.516-.162.389.389 0 0 0-.16.522 6.787 6.787 0 0 0 1.657 2.05c-3.317 1.62-6.822 3.6-10.342 5.865-.139.09-.275.186-.41.287a.368.368 0 0 0-.128-.026 4.802 4.802 0 0 1-3.157-1.218.377.377 0 0 0-.539.033.39.39 0 0 0 .032.546 5.579 5.579 0 0 0 2.956 1.357c-.07.062-.142.123-.211.185-.433.383-.844.742-1.276 1.031-3.195.65-6.316 1.667-9.205 3.245zm31.964-36.765c.23-.249.463-.499.704-.74a.382.382 0 0 0 .224-.216c.426-.402.883-.76 1.403-1.004.784-.365 1.89-.448 2.595.19.185.166.33.374.448.598l-.001.029.02.01c.164.32.273.668.354.974.859 3.221.265 6.756-1.58 9.515-.703-.012-1.42.052-2.106.14a72.927 72.927 0 0 0-13.776 3.176l11.715-12.672zm5.043 9.416c.051-.085.1-.172.15-.258l-.005.279-.145-.021zm84.225-12.545c1.051.357 2.036.912 2.776 1.356 5.052 3.027 8.546 7.102 9.907 11.52a26.597 26.597 0 0 0-9.631-2.034c-2.72-.055-5.357.712-7.92 1.581-1.43-1.443-3.547-1.895-5.45-2.14l-.613-.077c-1.74-.214-3.54-.435-4.965-1.379-1.408-.932-2.375-2.564-2.586-4.366-.195-1.672.202-3.997 1.325-5.016.968-.879 2.622-.8 3.95-.735l.432.019c3.085.122 6.1.257 9.072.575 1.275.137 2.516.293 3.703.696zm-5.38 45.807a134.578 134.578 0 0 1 1.9 12.202l-.005.007a.383.383 0 0 0 .04.348c.129 1.207.244 2.414.339 3.62.212 2.695.174 5.42-1.53 7.103-1.273 1.256-3.24 1.584-4.812 1.729-4.745.437-9.548-.2-14.21-.874.337.028.57.044.623.046.26.006 5.434.095 5.715.104.376.011.768.023 1.168.03 2.062.042 4.371-.025 6.157-.82 4.124-1.836 3.932-7.085 3.805-10.559l-.01-.285c-.153-4.303-.088-8.694.03-13.031.266.112.529.224.79.337v.043zm70.51 154.075c-4.435-18.41-17.85-55.624-28.777-72.04-1.186-1.782-2.5-3.624-4.358-4.842-.5-.326-1.032-.602-1.547-.868-.839-.434-1.63-.843-2.28-1.451-1.141-1.068-1.674-2.569-2.237-4.157-.41-1.152-.832-2.343-1.51-3.38-1.91-2.917-5.318-4.042-8.613-5.13a88.356 88.356 0 0 1-1.705-.573c-5.89-2.077-11.092-6.125-16.122-10.04-2.661-2.072-5.413-4.213-8.21-6.01-8.75-5.622-13.049-7.316-28.765-9.41-.89-.119-1.518-.469-2.245-.874a26.559 26.559 0 0 0-.632-.342c.194-.611.227-1.334.098-2.157-.478-3.058-2.483-5.238-4.745-6.76a6.255 6.255 0 0 1 1.65-1.18c4.625-2.247 11.467-1.305 16.463-.617l.904.124c.988.134 1.975.278 2.965.421 4.946.717 10.061 1.459 15.157.99 1.698-.157 3.831-.52 5.277-1.946 1.933-1.91 1.973-4.972 1.757-7.717a134.05 134.05 0 0 0-.288-3.134c3.704 1.663 6.72 4.728 8.334 8.504a.382.382 0 0 0 .502.2.389.389 0 0 0 .199-.508c-1.748-4.087-5.065-7.376-9.125-9.073a135.342 135.342 0 0 0-1.814-11.777c1.675.749 3.325 1.546 5.195 2.45 7.008 3.388 11.186 7.14 13.149 11.806.71 1.69 1.119 3.535 1.514 5.32.082.366.163.733.247 1.098a77.836 77.836 0 0 0 5.464 15.806.382.382 0 0 0 .509.182.389.389 0 0 0 .18-.516 77.035 77.035 0 0 1-5.41-15.647c-.083-.363-.164-.728-.245-1.093-.403-1.818-.82-3.699-1.557-5.453-2.012-4.783-6.435-8.774-13.522-12.2-5.422-2.622-9.003-4.354-16.67-6.573-.72-.208-1.295-.714-1.71-1.504-.688-1.308-.818-3.175-.578-4.544a.383.383 0 0 0 .358-.396c-.026-.818.763-1.516 1.54-1.718.9-.235 1.906-.029 2.792.152l12.77 2.613c2.674.547 5.44 1.113 8.11 1.845a63.396 63.396 0 0 1 16.456 7.145.379.379 0 0 0 .524-.13.389.389 0 0 0-.128-.531 64.121 64.121 0 0 0-16.653-7.23c-2.695-.739-5.472-1.307-8.161-1.858l-5.571-1.14.005-.024a462.083 462.083 0 0 0-.058-4.303c-.007-.414.142-1.315-.038-1.844 1.395-.426 2.772-.953 4.09-1.46.846-.325 1.643-.632 2.408-.896.2-.07.307-.29.238-.491a.38.38 0 0 0-.485-.241c-.777.269-1.58.578-2.43.904-3.913 1.504-8.346 3.207-12.065 1.675-1.987-.82-3.927-2.733-3.783-5.16.111-1.885 1.41-3.593 3.861-5.076 2.424-1.467 5.21-2.436 7.905-3.374l.325-.113.969-.336a.372.372 0 0 0 .304-.09l.013-.018c2.516-.856 5.095-1.615 7.71-1.557 5.68.121 11.19 2.125 15.519 5.641 4.034 3.278 5.766 8.526 7.44 13.6.158.481.316.96.475 1.433 2.18 6.5 4.253 12.341 7.57 18.022.398.684.798 1.365 1.197 2.046 2.93 4.992 5.699 9.706 7.928 14.946.954 2.243 1.867 4.55 2.75 6.78 1.47 3.72 2.992 7.566 4.755 11.24a95.784 95.784 0 0 0 10.04 16.444c.594.782 1.192 1.56 1.789 2.338.075-.29.182-.573.32-.844-.502-.655-1.005-1.308-1.504-1.965a94.943 94.943 0 0 1-9.959-16.31c-1.75-3.65-3.267-7.483-4.733-11.19-.884-2.235-1.799-4.547-2.757-6.799-2.249-5.286-5.158-10.242-7.972-15.036-.4-.68-.799-1.36-1.198-2.044-3.278-5.616-5.337-11.419-7.503-17.876-.158-.473-.315-.95-.474-1.43-1.71-5.18-3.477-10.538-7.686-13.958a25.68 25.68 0 0 0-5.45-3.385l-.005-.07c-1.29-4.816-4.988-9.257-10.412-12.508-.773-.463-1.804-1.043-2.923-1.424-1.258-.427-2.599-.595-3.864-.73-.398-.043-.798-.075-1.197-.111.194-1.53.031-12.144.034-12.386l.007-.563c.185-16.089.376-32.724-.61-48.997-.01-.144-.02-.286-.035-.426-.632-6.162-6.602-6.813-12.15-6.94-11.077-.25-22.343-.024-33.241.195-6.44.13-13.1.264-19.647.298-3.003.015-7.318.626-9.597 2.295-3.913 2.864-3.817 6.991-3.725 10.981.013.55.025 1.096.027 1.636.016 5.342.113 10.757.289 16.096.21 6.385.086 12.833-.034 19.07l-.065 3.498-.307 17.567c-.964-.835-2.388-.747-3.383-.282l-1.421 1.18-.018-.004h-.002v.02l-1.128.937-12.691 13.728a77.306 77.306 0 0 0-17.243 8.744c-1.88 1.272-3.828 2.707-5.342 4.583-1.542 1.91-2.55 4.166-3.523 6.348-1.1 2.46-2.445 4.963-3.746 7.383-1.307 2.432-2.66 4.948-3.77 7.435l-.001.006c-3.481 2.895-6.703 6.62-8.12 14.437a.386.386 0 0 0 .306.45l.07.006c.18 0 .34-.13.374-.317 1.692-9.326 6.05-12.655 10.265-15.875l5.537-4.244c2.17-1.664 4.414-3.384 6.839-4.709 2.803-1.532 5.792-2.524 8.861-3.16a.373.373 0 0 0 .298-.047l.031-.023c6.038-1.2 12.37-1.05 18.193-.91 1.154.027 2.59.061 3.64.765 1.724 1.156 1.87 3.772.923 5.49-1.116 2.028-3.353 3.092-5.032 3.627-2.336.743-4.886.977-7.353 1.203-.437.04-.876.08-1.315.124l-.083-.013a.376.376 0 0 0-.12.034c-3.193.321-6.4.824-9.132 2.595-1.097.711-2.09 1.613-3.05 2.486-1.653 1.5-3.213 2.917-5.234 3.417a.387.387 0 0 0 .181.752c2.207-.547 3.912-2.096 5.562-3.594.938-.851 1.908-1.733 2.952-2.41 2.522-1.635 5.422-2.127 8.504-2.447.04.914.015 1.832-.084 2.738a.386.386 0 0 0 .337.427l.043.002a.384.384 0 0 0 .379-.345c.104-.958.13-1.93.086-2.898l1.043-.097c2.507-.23 5.098-.468 7.513-1.236.191-.062.39-.13.592-.205-1.799 6.853-1.603 13.459.58 18.673 1.19 2.842 3.7 5.458 6.396 6.663 3.735 1.667 7.726.131 11.584-1.355.985-.379 2.002-.77 2.982-1.093 5.514-1.814 11.934-1.798 18.564.046 1.344.374 3.545 1.116 5.594 2.386l.046.06a.37.37 0 0 0 .178.083c2.227 1.43 4.228 3.498 4.684 6.416.109.693.087 1.288-.064 1.78a.375.375 0 0 0-.26.208.382.382 0 0 0 .011.334c-.937 1.499-3.134 1.314-5.498.964-6.163-.912-13.123.476-21.28 4.243-1.854.855-3.8 1.835-5.485 3.198-1.53 1.239-2.81 2.769-4.049 4.249-.227.27-.453.542-.681.81-7.994 9.432-16.588 17.415-25.543 23.73-2.506 1.766-4.467 2.927-6.198 3.95-5.633 3.332-7.965 4.712-14.251 18.69-.164.365-.512 1.127-1.015 2.228-12.292 26.934-20.043 44.895-24.896 56.862h.825c4.853-11.948 12.57-29.819 24.765-56.538l1.015-2.231c6.186-13.755 8.456-15.098 13.941-18.342 1.744-1.032 3.72-2.2 6.25-3.985 9.008-6.352 17.65-14.38 25.686-23.86.23-.27.457-.542.685-.814 1.214-1.452 2.47-2.953 3.943-4.145 1.619-1.31 3.515-2.264 5.324-3.099 8.02-3.704 14.841-5.07 20.854-4.18 1.987.294 4.971.73 6.251-1.317.203.107.4.215.59.32.762.425 1.48.826 2.513.963 15.57 2.075 19.82 3.748 28.457 9.297 2.766 1.778 5.505 3.91 8.153 5.97 5.078 3.953 10.329 8.04 16.337 10.157.563.198 1.139.388 1.718.58 3.171 1.046 6.45 2.128 8.213 4.82.628.96 1.035 2.106 1.428 3.215.57 1.606 1.16 3.267 2.438 4.463.727.68 1.603 1.133 2.45 1.571.499.258 1.014.525 1.48.83 1.738 1.138 2.998 2.908 4.14 4.624 10.863 16.321 24.205 53.323 28.648 71.709.142-.012.282-.008.42.012.117-.004.232 0 .347.007a.337.337 0 0 0-.004-.12zM121.175 29.848c.034-1.524-.182-3.03-.868-4.435-.723-1.48-2.072-2.639-3.646-3.043a12.274 12.274 0 0 0 3.164-2.613l.002-.004c.883-.86 1.252-2.017 1.545-3.214.281-1.153.546-2.311.809-3.47a17.199 17.199 0 0 0 4.499 11.481c-3.01-.146-4.6 2.607-5.505 5.298zm6.158-5.19c-3.57-3.62-5.279-8.76-4.646-13.833.027-.213-.321-.256-.367-.05l-1.05 4.666c-.313 1.396-.57 2.886-1.51 3.985a.167.167 0 0 0-.22.041 12.016 12.016 0 0 1-3.557 2.816c-.144.075-.126.346.047.37 4.302.613 5.112 5.532 4.59 9.126-.036.247.315.362.38.106.747-2.974 2.231-7.5 6.137-6.884.189.03.351-.185.196-.342zM124.52 5.498c-.363-1.74-.547-3.466-.51-5.244.005-.224-.307-.208-.334 0a11.98 11.98 0 0 1-.606 2.503c-.275.775-.92 2.587-1.884 2.664-.147.012-.15.24 0 .234.86-.03 1.252-.912 1.623-1.586a9.97 9.97 0 0 0 .875-2.211 18.64 18.64 0 0 0 .525 3.726c.051.206.353.118.31-.086zm-3.486 32.31a7.066 7.066 0 0 1-.862 1.5c-.474-1.228-.932-2.463-1.417-3.686-.055-.14-.279-.084-.227.063.468 1.333.97 2.655 1.449 3.984.037.102.178.168.26.07a6.78 6.78 0 0 0 1.09-1.807c.069-.168-.222-.292-.293-.124zM107.652 17.21a118.912 118.912 0 0 1-7.064-2.87c-.612-.27-1.145.642-.528.916a56.656 56.656 0 0 0 7.393 2.684c.47.135.644-.565.199-.73zm-.86 4.895c-2.333.126-4.647.64-6.85 1.413-.64.224-.375 1.248.281 1.035 2.197-.711 4.41-1.255 6.66-1.758.382-.086.3-.711-.091-.69zm1.37 5.56a157.65 157.65 0 0 0-5.78 5.361c-.471.46.238 1.171.716.724 1.914-1.791 3.8-3.632 5.623-5.518.361-.374-.177-.903-.56-.567zm122.604 1.365c-1.752 1.374-3.296 2.902-5.208 4.073-1.574.963-2.976 2.02-4.237 3.384-.369.399.175.913.58.586 3.172-2.565 6.963-4.065 9.72-7.178.533-.603-.252-1.338-.855-.865zm4.466 20.801c-3.73-3.497-8.157-6.611-12.663-8.981-.375-.198-.655.318-.324.563 4.132 3.071 8.214 6.187 12.31 9.308.511.39 1.137-.46.677-.89z" fill="#000"/><path d="M227.062 58.277a400.412 400.412 0 0 0-2.408-4.51c-.464-.855-.926-1.711-1.397-2.564-.13-.234-.865-1.264-1.046-1.73l.025-.056c.08-.186.057-.4-.132-.511l-.111-.065c-.235-.138-.483 0-.573.236-.357.93.943 2.498 1.338 3.27a369.649 369.649 0 0 0 3.403 6.463c.322.599 1.216.068.9-.533z" fill="#000"/></g></g><g mask="url(#c)"><g transform="translate(276.286 36.859)"><path d="M32.938 145.237a8.914 8.914 0 0 0 2.008 1.396c.628.315 1.09.383 1.423.21a.362.362 0 0 1 .264-.029l.061-.08a12.068 12.068 0 0 1-3.756-1.497z" fill="#FFF"/><path d="M52.602 145.525c-.115.257-.21.487-.21.7a.67.67 0 0 0 .244.474c.153.127.34.191.505.165a.376.376 0 0 1 .318.111l5.302-8.251c.738-1.15 1.5-2.334 2.383-3.408 2.028-2.462 4.683-4.332 7.25-6.14a88.255 88.255 0 0 0 3.087-2.246c-8.206 3.588-15.165 10.401-18.88 18.595z" fill="#B3B3B3"/><path d="M107.393 253.8a.712.712 0 0 1-.138.011c.004.038.008.076.015.114a.598.598 0 0 1 .123-.125z" fill="#FFF"/><path d="M95.315 257.588c-3.692.301-7.395.443-11.079.351.008.032.023.064.023.103.237 3.254.253 6.532.329 9.793.05 2.187.543 4.842-.41 6.905 1.726-.036 3.444-.098 5.139-.168 6.541-.272 13.213-.783 19.644-2.08 2.254-.456 1.473-3.288 1.282-4.869a60.544 60.544 0 0 0-.757-4.832 66.8 66.8 0 0 0-1.79-6.853c-1.795.685-3.968.728-5.862.96-2.169.267-4.342.512-6.519.69z" fill="#FC8181"/><path d="M74.205 50.933c.28.428.9.86 1.68.86h.05c.795-.02 1.46-.481 1.755-.931.322-.48.387-1.03.433-1.646.114-1.504.172-3.025.168-4.522-.004-1.238-.356-3.08-.662-4.548l-.038-.222c-.126-.623-.153-.753-.834-1.189-.375-.239-.922-.381-1.465-.381-.586 0-1.08.158-1.355.434-.313.308-.336.707-.332 1.196.019 3.082.099 6.21.233 9.298.023.568.05 1.155.367 1.651z" fill="#FFF"/><path d="M55.165 46.004c.046-.651.199-1.286.367-1.933.371-1.43.903-2.203 2.04-2.955.925-.616 1.85-.975 2.742-1.069.207-.02.425-.032.654-.032 1.248 0 3.091.339 4.166 1.294 1.171 1.036 1.936 2.535 2.051 4.011.03.379.02.766-.03 1.15-.26 2.096-1.255 3.705-2.8 4.532-.839.45-1.944.696-3.119.696-1.438 0-2.846-.362-3.86-.992-1.461-.911-2.353-2.8-2.211-4.702zm-1.006 4.788a1.52 1.52 0 0 0 1.515 1.469v.193l.03-.194c3.753-.08 7.456-.187 11.328-.328.834-.03 1.5-.743 1.488-1.588-.011-.703-.015-1.4-.027-2.096-.026-2.314-.053-4.708-.225-7.268a1.555 1.555 0 0 0-1.546-1.447l-.069.001c-2.896.131-5.451.15-8.156.17-1.006.007-2.04.015-3.114.028a1.56 1.56 0 0 0-1.125.497c-.29.313-.448.723-.428 1.154.057 1.522.11 3.077.16 4.632.054 1.605.107 3.21.169 4.777z" fill="#4B5668"/><path d="M57.579 50.377c.952.594 2.284.935 3.657.935 1.113 0 2.158-.231 2.942-.651 1.43-.766 2.353-2.272 2.602-4.24a5.29 5.29 0 0 0 .022-1.07c-.107-1.379-.826-2.78-1.92-3.751-.933-.828-2.64-1.199-3.914-1.199-.21 0-.42.01-.612.03-.834.088-1.698.427-2.578 1.008-1.056.7-1.53 1.39-1.875 2.729-.164.63-.31 1.246-.356 1.865-.13 1.76.685 3.507 2.032 4.344z" fill="#F7AE55"/><path d="M52.116 38.406a2.547 2.547 0 0 1 1.832-.807c1.332-.017 2.61-.026 3.86-.035 3.332-.025 6.485-.047 10.047-.209 1.384-.065 2.54 1 2.635 2.368.215 3.185.25 6.153.28 9.024.011.856.026 1.713.034 2.579.023 1.382-1.067 2.547-2.433 2.597a910.41 910.41 0 0 1-14.006.406h-.053a2.495 2.495 0 0 1-2.487-2.413 687.56 687.56 0 0 1-.203-5.892c-.069-1.926-.134-3.851-.206-5.735a2.588 2.588 0 0 1 .7-1.883zm21.42-.032c.39-.387 1.013-.6 1.756-.6.658 0 1.304.172 1.775.472.841.541.937.825 1.082 1.564l.043.217c.31 1.494.669 3.374.673 4.665a58.927 58.927 0 0 1-.169 4.569c-.053.7-.133 1.328-.527 1.924-.471.7-1.34 1.166-2.22 1.187l-.064.001c-.876 0-1.726-.442-2.162-1.125-.402-.628-.432-1.325-.459-1.94a252.958 252.958 0 0 1-.233-9.32c-.004-.442-.008-1.11.505-1.614zM30.153 140.77c.141.343.283.69.432 1.035.398.69.887 1.3 1.488 1.789 1.649 1.338 3.317 2.054 5.184 2.41 1.675-2.282 3.003-4.907 3.948-7.827.21-.649.41-1.327.6-1.983.777-2.652 1.573-5.394 3.513-7.398 1.224-1.26 2.758-2.083 4.246-2.877 7.12-3.814 14.484-7.757 22.575-9.423 1.22-.252 2.632-.485 3.975-.074 1.117.342 2.23 1.285 2.49 2.524.693-.663 1.504-1.12 2.51-1.123h.004c1.263 0 2.498.83 3.141 2.12.513 1.014.677 2.271.49 3.736-.547 4.295-3.459 7.604-6.274 10.805-1.534 1.742-3.122 3.543-4.312 5.486-.734 1.205-1.373 2.568-1.985 3.887-.303.651-.613 1.31-.934 1.96 1.932-.153 15.82.069 16.041.069h.004c.23 0 .474.003.727.006 1.95.021 4.38.047 6.064-.739 3.094-1.447 2.853-5.743 2.693-8.586l-.008-.252c-.287-5.205-.222-10.55-.153-15.717v-.083c0-.13.069-.24.168-.314a807.374 807.374 0 0 0-.233-49.549.387.387 0 0 1 .096-.266v-.025c-.111-14.173-.222-28.83-1.37-43.13l-.034-.343c-.528-4.301-4.063-5.153-9.997-5.171-9.778-.031-19.725.368-29.35.75-5.697.228-11.584.463-17.38.607-2.717.067-6.22.715-7.923 2.008-3.065 2.331-2.92 5.755-2.778 9.066.02.49.046.976.054 1.457.103 4.701.283 9.467.528 14.163.294 5.646.294 11.344.294 16.854.004 1.026.004 2.054.004 3.084l.077 40.87c0 2.209-.004 4.419-.016 6.629v.953c4.64-2.024 8.413-2.258 14.37-2.47.65-.024 1.342.329 1.794.92.428.558.447 1.296.428 1.802-.126 3.114-1.981 6.04-4.728 7.457-.612.315-1.259.555-1.882.787-.605.223-1.22.455-1.795.748-.294.15-.57.288-.849.422-1.006.49-1.87.911-2.705 1.687-1.105 1.027-2.222 2.231-3.305 3.396-.394.426-.792.855-1.198 1.28.08 1.777.276 3.68.777 5.383l.494 1.2z" fill="#E9D8FD"/><path d="M53.983 39.963a1.93 1.93 0 0 1 1.396-.617c1.075-.014 2.108-.022 3.118-.028 2.7-.02 5.253-.039 8.145-.17 1.048-.054 1.932.763 2.008 1.806.172 2.571.2 4.97.226 7.29.011.695.015 1.391.027 2.093.015 1.055-.815 1.943-1.86 1.981-3.871.14-7.574.249-11.331.329h-.038a1.906 1.906 0 0 1-1.898-1.839c-.061-1.569-.115-3.174-.168-4.78-.05-1.555-.104-3.109-.16-4.63a1.954 1.954 0 0 1 .535-1.435zM52.59 51.885a1.726 1.726 0 0 0 1.722 1.672h.038c4.637-.1 9.212-.231 13.994-.406.949-.034 1.714-.847 1.695-1.812-.008-.867-.023-1.726-.034-2.584-.031-2.86-.065-5.817-.28-8.98a1.769 1.769 0 0 0-1.756-1.65l-.08.002c-3.577.162-6.733.185-10.077.21-1.247.008-2.521.018-3.856.035-.49.006-.945.207-1.282.566a1.81 1.81 0 0 0-.493 1.32c.072 1.886.137 3.813.206 5.74.062 1.977.127 3.955.203 5.887zM28.052 135.05c-.053.058-.115.117-.172.175l.226.558c-.02-.245-.038-.49-.054-.733z" fill="#FFF"/><path d="M81.19 268.71c-.106.826-.202 2.086-.979 2.606-1.66 1.113-3.577-.476-3.707-2.255-.06-.898-.007-3.18.907-3.84.383-1.564 2.774-1.527 3.443.026.478 1.104.494 2.278.337 3.463zm2.105 5.649c1.067-2.218.39-5.696.36-8.03-.035-2.76-.127-5.528-.035-8.287 0-.045.012-.083.027-.118-5.184-.166-10.33-.812-15.383-2.168-.153 1.411.084 3.607.084 4.154 0 1.482-.004 2.964-.008 4.446l-.011 5.187c-.008 1.91-.05 4.228 2.33 4.569 3.97.568 8.095.698 12.18.65.031-.253.234-.386.456-.403z" fill="#FC8181"/><path d="M79.668 286.176c-.16 1.937-.252 3.883-.195 5.828.03.97.057 1.946.153 2.913.023.53.107 1.048.26 1.554l2.43.414c1.163-6.943 1.212-14.145.596-21.154-.6-.004-1.205-.007-1.805-.019.24 3.444-1.156 7.03-1.439 10.464z" fill="#FED7D8"/><path d="M79.722 265.325l-1.113.317a.255.255 0 0 1-.291.084h-.004l-.02.005c-.018.403-.409.536-.68.409-.356.745-.371 2.195-.34 2.53.095.93.833 2.587 2.111 2.065.914-.373.934-2.194.937-2.98.008-.459.042-.981-.088-1.426a1.857 1.857 0 0 0-.512-1.004z" fill="#E6E6E6"/><path d="M72.396 255.632c1.847.327 3.695.597 5.558.76 3.367.292 6.733.401 10.108.304 3.39-.099 6.779-.339 10.153-.713 1.87-.207 3.738-.435 5.6-.697.716-.1 1.44-.187 2.15-.308.223-.03.44-.074.659-.125-2.644-19.12-4.63-37.665-4.155-49.52.023-.586.05-1.175.077-1.765.344-7.964.692-16.2-3.05-23.045-.971-1.777-2.218-3.433-3.423-5.034l-12.54-16.664c-1.493-1.987-3.088-3.66-4.626-5.276-.788-.83-1.569-1.65-2.318-2.491.011-.003-2.277-3.263-2.996-4.304l-2.766.006-.057-.027c-.536 1.004-1.133 1.968-1.837 2.832l1.967 2.42c.225.275.478.586.646.957.226.498.272 1.042.31 1.522l.249 3.001a32.755 32.755 0 0 0 6.347 5.285c.67.427 1.37.839 2.046 1.237 1.236.725 2.51 1.475 3.68 2.361 3.853 2.924 6.47 7.286 8.773 11.135a.385.385 0 0 1-.325.587.384.384 0 0 1-.33-.187c-2.272-3.789-4.846-8.083-8.58-10.917-1.133-.86-2.387-1.598-3.604-2.311-.681-.402-1.389-.817-2.07-1.251a33.382 33.382 0 0 1-6.385-5.298.365.365 0 0 1-.283-.302.373.373 0 0 1-.046-.434l-.233-2.843c-.035-.436-.073-.888-.245-1.263-.126-.28-.337-.538-.54-.788l-2.172-2.67a.4.4 0 0 1 .007-.5c1.412-1.634 2.391-3.74 3.34-5.778.62-1.338 1.266-2.722 2.028-3.965 1.228-2 2.835-3.826 4.388-5.593 2.865-3.256 5.574-6.331 6.086-10.389.169-1.308.031-2.415-.409-3.29-.509-1.014-1.492-1.695-2.46-1.695h-.004c-1.645.003-2.708 1.65-3.749 3.241-.126.198-.252.393-.382.582-2.07 3.108-5.165 5.285-8.153 7.391-2.525 1.779-5.138 3.618-7.097 6-.856 1.04-1.606 2.203-2.33 3.329l-7.031 10.95a.378.378 0 0 1-.528.114.39.39 0 0 1-.115-.534l1.305-2.03a1.422 1.422 0 0 1-.888-.35 1.42 1.42 0 0 1-.52-1.05c0-.375.13-.704.283-1.035 4.17-9.212 11.982-16.446 21.432-19.848l.042-.006c1.113-1.01 2.13-2.11 2.968-3.362.123-.187.249-.38.38-.575.37-.574.764-1.174 1.197-1.716a.337.337 0 0 1-.027-.151c.03-1.14-1.01-2.08-2.009-2.384-1.17-.359-2.475-.141-3.6.09-7.98 1.645-15.299 5.562-22.372 9.35-1.435.767-2.915 1.56-4.055 2.735-1.81 1.866-2.579 4.514-3.325 7.075a65.973 65.973 0 0 1-.608 2.006c-1.136 3.51-2.808 6.61-4.97 9.217a.368.368 0 0 1-.29.139.369.369 0 0 1-.245-.09l-.027-.033a1.663 1.663 0 0 1-.432.058c-.402 0-.854-.128-1.362-.384a9.793 9.793 0 0 1-3.96-3.69c-.157-.261-.295-.53-.428-.802-.766-1.088-1.27-2.398-1.6-3.787l-1.327-3.236c-.184.179-.367.36-.555.532a.378.378 0 0 1-.54-.022.39.39 0 0 1 .024-.546c1.11-1.028 2.222-2.231 3.301-3.395 1.094-1.175 2.22-2.39 3.348-3.437.918-.853 1.874-1.32 2.888-1.814.268-.132.547-.267.834-.414.608-.315 1.259-.554 1.882-.785.601-.224 1.225-.456 1.795-.75 2.467-1.272 4.2-4.005 4.311-6.8.027-.622-.057-1.022-.268-1.3-.294-.39-.753-.63-1.163-.62-6.312.225-10.126.47-15.157 2.895-5.172 2.492-8.627 7.64-11.404 11.778-1.496 2.226-2.74 4.257-2.805 6.564-.053 1.915.735 3.73 1.611 5.574a123.297 123.297 0 0 0 5.107 9.577.39.39 0 0 1-.13.53.393.393 0 0 1-.199.055.389.389 0 0 1-.329-.188 120.985 120.985 0 0 1-5.134-9.638c-.891-1.857-1.748-3.845-1.69-5.932.072-2.512 1.426-4.733 2.934-6.976 1.258-1.876 2.658-3.954 4.292-5.913h-.004a.39.39 0 0 1-.225-.496c.531-1.469.581-3.984-.268-5.486-.406-.72-.987-1.155-1.714-1.29-.857-.159-1.687.476-2.177 1.124-.31.41-.55.865-.811 1.347-.218.408-.444.83-.715 1.226-.75 1.09-1.691 2.043-2.602 2.965-.685.691-1.389 1.405-1.99 2.155-1.549 1.943-2.038 4.352-2.517 6.682-1.404 6.872-2.234 14.901-.738 16.288l1.768 1.634c5.134 4.758 10.952 10.152 15.914 14.904 3.872 3.707 8.333 6.727 12.568 9.501.818.537 1.633 1.067 2.44 1.593 8.478 5.519 16.478 10.731 23.291 18.995 3.96 4.802 7.028 11.214 8.642 18.057 1.328 5.608.876 10.938.398 16.58-.065.803-.13 1.612-.199 2.427a671.342 671.342 0 0 0-1.343 22.14c.104.022.207.049.314.072.704.151 1.408.302 2.12.429z" fill="#DBBBAB"/><path d="M110.331 273.369c-1.526.74-3.772.71-5.432.937-1.76.238-3.52.462-5.284.64-4.158.42-8.332.697-12.51.77-1.029.017-2.054.026-3.08.025.421 4.934.483 9.9.062 14.837-.176 2.074-.15 4.583-.8 6.578-.36 1.102-.96 1.662-2.146 1.612-3.393-.143-2.643-6.953-2.582-8.952.072-2.226.245-4.453.608-6.652.398-2.467 1.274-4.957 1.293-7.466a134.851 134.851 0 0 1-5.895-.258c-1.408-.094-4.136.052-5.762-.89.1 2.625.088 5.254.1 7.88-.1 2.277-3.398 40.268-3.195 40.896h52.205c-2.088-16.908-6.079-33.364-6.955-50.392a2.424 2.424 0 0 1-.627.435z" fill="#FC8181"/><path d="M89.89 281.491c-1.212 0-2.222 1.022-2.222 2.246s1.01 2.246 2.222 2.246c1.213 0 2.223-1.022 2.223-2.246s-1.01-2.246-2.223-2.246zm12.434 10.481c-1.573 0-1.573 2.464 0 2.464 1.572 0 1.572-2.464 0-2.464zm3.443-12.352c-1.806 0-1.806 2.825 0 2.825 1.81 0 1.81-2.825 0-2.825zM90.082 261.31c-1.745 0-1.745 2.735 0 2.735 1.744 0 1.744-2.735 0-2.735zm13.58 4.87c-1.132 0-2.08.955-2.08 2.1 0 1.146.948 2.101 2.08 2.101 1.137 0 2.082-.955 2.082-2.1 0-1.146-.945-2.102-2.081-2.102zM71.91 282.652c-1.63 0-1.63 2.554 0 2.554s1.63-2.554 0-2.554zm1.721-23.114c-1.174 0-2.154.989-2.154 2.174s.98 2.173 2.154 2.173c1.175 0 2.15-.988 2.15-2.173s-.975-2.174-2.15-2.174zm21.807 13.18c-1.73 0-1.73 2.717 0 2.717 1.733 0 1.733-2.717 0-2.717z" fill="#FED7D8"/><path d="M28.879 134.116a2.27 2.27 0 0 1-.85.632c.21 3.494.896 7.383 3.474 9.476 1.764 1.43 3.566 2.206 5.555 2.59.16-.275.375-.522.623-.73-2.042-.326-3.833-1.05-5.608-2.49-2.468-2.006-3.041-5.999-3.194-9.478zm68.644-63.76c-.111-14.189-.226-28.86-1.378-43.189a11.27 11.27 0 0 0-.038-.375c-.662-5.421-5.953-5.891-10.861-5.906-9.798-.028-19.752.368-29.389.752-5.692.227-11.58.461-17.368.605-2.655.066-6.462.68-8.447 2.19-3.413 2.595-3.256 6.231-3.107 9.748.02.484.042.966.05 1.441.107 4.71.287 9.483.535 14.187.291 5.625.291 11.313.291 16.813 0 1.027 0 2.055.004 3.086l.073 40.87c.004 2.207-.004 4.415-.012 6.624 0 .584-.004 1.177-.004 1.766.284-.194.578-.31.877-.357.003-.469.003-.941.003-1.406.012-2.21.016-4.42.016-6.63l-.077-40.869c0-1.03 0-2.058-.004-3.084 0-5.51 0-11.208-.294-16.854a472.677 472.677 0 0 1-.528-14.163c-.008-.481-.035-.968-.054-1.457-.141-3.311-.287-6.735 2.778-9.066 1.702-1.293 5.206-1.94 7.923-2.008 5.796-.144 11.683-.38 17.38-.606 9.625-.383 19.572-.782 29.35-.751 5.934.018 9.469.87 9.997 5.17l.034.343c1.148 14.302 1.259 28.958 1.37 43.131l.004.498a.43.43 0 0 0 .44.412h.003c.241-.002.44-.189.44-.419l-.007-.497zM71.74 158.122a.386.386 0 0 1-.382-.355l-.264-3.24c-.035-.437-.073-.889-.245-1.264-.126-.28-.337-.538-.54-.788l-2.172-2.67a.4.4 0 0 1 .007-.5c1.412-1.634 2.391-3.74 3.34-5.778.62-1.338 1.266-2.722 2.028-3.965 1.228-2 2.835-3.826 4.388-5.593 2.865-3.256 5.574-6.331 6.09-10.389.165-1.308.027-2.415-.413-3.29-.509-1.014-1.492-1.695-2.46-1.695h-.004c-1.645.003-2.708 1.65-3.749 3.241-.126.198-.252.393-.382.582-2.07 3.108-5.165 5.285-8.153 7.391-2.525 1.779-5.138 3.618-7.097 6-.856 1.04-1.599 2.203-2.33 3.329l-7.031 10.95a.378.378 0 0 1-.528.114.39.39 0 0 1-.115-.534l7.032-10.945c.738-1.15 1.5-2.334 2.383-3.408 2.028-2.462 4.683-4.332 7.25-6.14 2.934-2.065 5.964-4.201 7.957-7.188.123-.187.249-.38.38-.575 1.09-1.68 2.325-3.585 4.383-3.59h.012c1.255 0 2.49.83 3.133 2.12.513 1.014.677 2.271.49 3.736-.547 4.295-3.459 7.604-6.274 10.805-1.534 1.742-3.122 3.543-4.312 5.486-.734 1.205-1.373 2.568-1.985 3.887-.922 1.985-1.875 4.035-3.245 5.708l1.967 2.42c.225.275.478.586.646.957.226.498.272 1.042.31 1.522l.268 3.241a.389.389 0 0 1-.352.417l-.03.001z" fill="#000"/><path d="M36.671 147.774a.388.388 0 0 1-.295-.634c2.097-2.532 3.723-5.547 4.829-8.963.21-.649.41-1.327.6-1.983.777-2.652 1.573-5.394 3.513-7.398 1.224-1.26 2.758-2.083 4.25-2.877 7.116-3.814 14.488-7.757 22.571-9.423 1.22-.252 2.632-.485 3.975-.074 1.3.397 2.594 1.605 2.552 3.145a.389.389 0 0 1-.394.376.386.386 0 0 1-.371-.397c.03-1.14-1.01-2.08-2.009-2.384-1.17-.359-2.471-.141-3.6.09-7.98 1.645-15.299 5.562-22.372 9.35-1.435.767-2.915 1.56-4.055 2.735-1.81 1.866-2.579 4.514-3.325 7.075a65.973 65.973 0 0 1-.608 2.006c-1.136 3.51-2.808 6.61-4.97 9.217a.368.368 0 0 1-.29.139zm16.393-.131a1.41 1.41 0 0 1-.918-.354 1.415 1.415 0 0 1-.516-1.05c-.004-.375.126-.704.28-1.035 4.17-9.212 11.981-16.446 21.43-19.848a.383.383 0 0 1 .49.234.39.39 0 0 1-.233.494c-9.113 3.284-16.967 10.55-20.995 19.441-.115.257-.21.487-.207.7 0 .168.092.345.245.474.149.127.337.191.501.165a.382.382 0 0 1 .432.326.381.381 0 0 1-.321.438c-.061.01-.122.015-.188.015zm-32.893 5.789a.389.389 0 0 1-.329-.188 120.985 120.985 0 0 1-5.134-9.638c-.891-1.857-1.748-3.845-1.69-5.932.072-2.512 1.43-4.733 2.934-6.976 2.83-4.214 6.354-9.46 11.714-12.041 5.165-2.49 9.04-2.741 15.456-2.97.65-.023 1.342.33 1.794.92.428.559.447 1.297.428 1.803-.126 3.114-1.981 6.04-4.728 7.457-.612.315-1.259.555-1.882.787-.605.223-1.22.455-1.79.748-.292.15-.575.288-.854.422-1.002.49-1.87.911-2.705 1.687-1.105 1.027-2.222 2.231-3.305 3.396-1.09 1.175-2.215 2.388-3.344 3.435a.378.378 0 0 1-.54-.022.39.39 0 0 1 .024-.546c1.11-1.028 2.222-2.231 3.301-3.395 1.094-1.175 2.22-2.39 3.348-3.437.918-.853 1.874-1.32 2.888-1.814.268-.132.547-.267.834-.414.608-.315 1.259-.554 1.882-.785.601-.224 1.225-.456 1.795-.75 2.467-1.272 4.2-4.005 4.311-6.8.027-.622-.057-1.022-.268-1.3-.294-.39-.753-.63-1.163-.62-6.312.225-10.126.47-15.157 2.895-5.172 2.492-8.627 7.64-11.404 11.778-1.496 2.226-2.74 4.257-2.805 6.564-.053 1.915.735 3.73 1.611 5.574a123.297 123.297 0 0 0 5.107 9.577.39.39 0 0 1-.13.53.383.383 0 0 1-.199.055z" fill="#000"/><path d="M35.968 147.709c-.402 0-.846-.128-1.362-.384a9.793 9.793 0 0 1-3.96-3.69c-.49-.823-.853-1.71-1.205-2.57l-2.292-5.603a.388.388 0 0 1 .207-.505.384.384 0 0 1 .501.21l2.296 5.603c.336.832.688 1.693 1.151 2.466a8.975 8.975 0 0 0 3.642 3.397c.628.315 1.09.383 1.423.21a.377.377 0 0 1 .513.163.394.394 0 0 1-.16.522 1.6 1.6 0 0 1-.754.181z" fill="#000"/><path d="M71.106 213.984c-1.614-6.843-4.682-13.255-8.642-18.057-6.813-8.264-14.813-13.476-23.29-18.995-.808-.526-1.623-1.056-2.441-1.593-4.235-2.774-8.696-5.794-12.568-9.501-4.962-4.752-10.78-10.146-15.914-14.904L6.483 149.3c-1.496-1.387-.666-9.416.738-16.288.479-2.33.968-4.74 2.518-6.682.6-.75 1.304-1.464 1.99-2.155.91-.922 1.85-1.875 2.6-2.965.272-.396.498-.818.716-1.226.26-.482.501-.936.811-1.347.49-.648 1.32-1.283 2.177-1.124.727.135 1.308.57 1.714 1.29.849 1.502.8 4.017.268 5.486a.39.39 0 0 0 .225.496c.203.073.421-.03.494-.23.604-1.667.646-4.418-.325-6.135-.517-.915-1.29-1.492-2.238-1.668-1.194-.223-2.296.586-2.92 1.416-.348.459-.62.962-.88 1.448a12.72 12.72 0 0 1-.669 1.154c-.711 1.033-1.626 1.962-2.517 2.86-.696.704-1.416 1.433-2.04 2.215-1.663 2.088-2.176 4.59-2.673 7.01-.502 2.455-2.885 14.81-.505 17.014l1.763 1.634c5.134 4.757 10.953 10.148 15.907 14.896 3.922 3.752 8.6 6.917 12.683 9.588.814.538 1.63 1.068 2.44 1.595 8.42 5.485 16.378 10.666 23.115 18.84 3.887 4.712 6.902 11.012 8.493 17.741 1.293 5.488.845 10.757.375 16.335-.069.805-.134 1.615-.199 2.433-.582 7.35-1.03 14.75-1.358 22.163a.92.92 0 0 1 .275.208c.153.177.314.354.475.531a653.05 653.05 0 0 1 1.37-22.842c.068-.815.133-1.624.198-2.427.478-5.642.93-10.972-.398-16.58zm21.52-35.914a.384.384 0 0 1-.33-.187c-2.272-3.789-4.843-8.083-8.576-10.917-1.137-.86-2.391-1.598-3.604-2.311a64.252 64.252 0 0 1-2.074-1.251 33.638 33.638 0 0 1-6.664-5.586.39.39 0 0 1 .02-.547.388.388 0 0 1 .546.02 32.638 32.638 0 0 0 6.508 5.459c.67.427 1.37.839 2.046 1.237 1.236.725 2.51 1.475 3.68 2.361 3.853 2.924 6.47 7.286 8.773 11.135a.385.385 0 0 1-.325.587z" fill="#000"/><path d="M102.47 205.333c-.479 12.014 1.564 30.9 4.261 50.29.23-.2.463-.398.689-.596-2.66-19.181-4.66-37.802-4.186-49.663.023-.585.05-1.173.073-1.763.348-8.07.704-16.416-3.14-23.451-1-1.827-2.262-3.505-3.486-5.129l-12.537-16.664c-1.526-2.022-3.053-3.792-4.686-5.344-.689-.656-4.067-5.574-4.679-6.447-.28.052-1.125-.194-1.4-.128l3.21 4.62c.75.841 1.53 1.66 2.318 2.491 1.538 1.617 3.133 3.289 4.625 5.276l12.54 16.664c1.206 1.601 2.453 3.257 3.425 5.034 3.741 6.846 3.393 15.081 3.049 23.045-.027.59-.054 1.179-.077 1.765zM67.97 38.125l-.081.002c-3.577.162-6.733.185-10.077.21-1.247.008-2.521.018-3.856.035-.49.006-.945.207-1.282.566a1.81 1.81 0 0 0-.493 1.32c.072 1.886.137 3.813.206 5.74.062 1.977.127 3.955.203 5.887a1.726 1.726 0 0 0 1.722 1.672h.038c4.637-.1 9.212-.231 13.994-.406.949-.034 1.714-.847 1.695-1.812-.008-.867-.023-1.726-.034-2.584-.031-2.86-.065-5.817-.28-8.98a1.769 1.769 0 0 0-1.756-1.65zM54.311 54.33a2.495 2.495 0 0 1-2.487-2.413 687.56 687.56 0 0 1-.203-5.892c-.069-1.926-.134-3.851-.206-5.735a2.588 2.588 0 0 1 .7-1.883 2.547 2.547 0 0 1 1.832-.807c1.332-.017 2.61-.026 3.86-.035 3.332-.025 6.485-.047 10.047-.209 1.384-.065 2.54 1 2.635 2.368.215 3.185.25 6.153.28 9.024.011.856.026 1.713.034 2.579.023 1.382-1.067 2.547-2.433 2.597a910.41 910.41 0 0 1-14.006.406h-.053z" fill="#000"/><path d="M66.722 39.533l-.069.001c-2.896.131-5.451.15-8.156.17-1.006.007-2.04.015-3.114.028a1.56 1.56 0 0 0-1.125.497c-.29.313-.448.723-.428 1.154.057 1.522.11 3.077.16 4.632.054 1.605.107 3.21.169 4.777a1.52 1.52 0 0 0 1.515 1.469v.193l.03-.194c3.753-.08 7.456-.187 11.328-.328.834-.03 1.5-.743 1.488-1.588-.011-.703-.015-1.4-.027-2.096-.026-2.314-.053-4.708-.225-7.268a1.555 1.555 0 0 0-1.546-1.447zM55.674 52.647a1.906 1.906 0 0 1-1.898-1.839c-.061-1.569-.115-3.174-.168-4.78-.05-1.555-.104-3.109-.16-4.63a1.954 1.954 0 0 1 .535-1.435 1.93 1.93 0 0 1 1.396-.617c1.075-.014 2.108-.022 3.118-.028 2.7-.02 5.253-.039 8.145-.17 1.048-.054 1.932.763 2.008 1.806.172 2.571.2 4.97.226 7.29.011.695.015 1.391.027 2.093.015 1.055-.815 1.943-1.86 1.981-3.871.14-7.574.249-11.331.329h-.038zm19.618-14.293c-.586 0-1.08.158-1.355.434-.313.308-.336.707-.332 1.196.019 3.082.099 6.21.233 9.298.023.568.05 1.155.367 1.651.28.428.9.86 1.68.86h.05c.795-.02 1.46-.481 1.755-.931.322-.48.387-1.03.433-1.646.114-1.504.172-3.025.168-4.522-.004-1.238-.356-3.08-.662-4.548l-.038-.222c-.126-.623-.153-.753-.834-1.189-.375-.239-.922-.381-1.465-.381zm.593 14.02c-.876 0-1.726-.443-2.162-1.126-.402-.628-.432-1.325-.459-1.94a252.958 252.958 0 0 1-.233-9.32c-.004-.442-.008-1.11.505-1.614.39-.387 1.013-.6 1.756-.6.658 0 1.304.172 1.775.472.841.541.937.825 1.082 1.564l.043.217c.31 1.494.669 3.374.673 4.665a58.927 58.927 0 0 1-.169 4.569c-.053.7-.133 1.328-.527 1.924-.471.7-1.34 1.166-2.22 1.187l-.064.001z" fill="#000"/><path d="M60.968 40.401c-.21 0-.42.01-.612.03-.834.088-1.698.427-2.578 1.008-1.056.7-1.53 1.39-1.875 2.729-.164.63-.31 1.246-.356 1.865-.13 1.76.685 3.507 2.032 4.344.952.594 2.284.935 3.657.935 1.113 0 2.158-.231 2.942-.651 1.43-.766 2.353-2.272 2.602-4.24a5.29 5.29 0 0 0 .022-1.07c-.107-1.379-.826-2.78-1.92-3.751-.933-.828-2.64-1.199-3.914-1.199zm.268 11.297c-1.438 0-2.846-.362-3.86-.992-1.461-.911-2.353-2.8-2.211-4.702.046-.651.199-1.286.367-1.933.371-1.43.903-2.203 2.04-2.955.925-.616 1.85-.975 2.742-1.069.207-.02.425-.032.654-.032 1.248 0 3.091.339 4.166 1.294 1.171 1.036 1.936 2.535 2.051 4.011.03.379.02.766-.03 1.15-.26 2.096-1.255 3.705-2.8 4.532-.839.45-1.944.696-3.119.696zm36.401 84.574c-.283-5.16-.218-10.468-.149-15.605a.387.387 0 0 0 .05-.175c.44-16.55.363-33.328-.226-49.867a.377.377 0 0 0-.394-.373.388.388 0 0 0-.37.4c.584 16.434.66 33.102.232 49.549a.395.395 0 0 0-.168.314v.083c-.069 5.168-.134 10.512.153 15.717l.008.252c.16 2.843.401 7.139-2.693 8.586-1.684.786-4.113.76-6.064.739a82.93 82.93 0 0 0-.727-.006h-.004c-.24 0-16.267-.257-16.267-.028-.003.23-.436.9-.19.902.229 0 16.928-.04 17.176-.037.333.003.681.007 1.033.007 1.821 0 3.864-.1 5.433-.832 3.611-1.69 3.351-6.315 3.179-9.376l-.012-.25zm9.446 116.184c-.86.204-.494 1.544.367 1.337-.16.326-.329.652-.493.978a6.64 6.64 0 0 1-.991.207c-.712.12-1.435.208-2.15.308-1.863.262-3.73.49-5.6.697-3.375.374-6.765.614-10.154.713a87.312 87.312 0 0 1-10.108-.305c-1.863-.162-3.71-.432-5.558-.76a58.798 58.798 0 0 1-3.531-.759c-.18-.882.072-1.207.76-.976.43.024.529-.687.104-.76-.379-.063-.757-.13-1.132-.203-.2-.037-.417.019-.52.212-.364.697-.506 1.245-.544 2.032-.011.222.16.429.364.485 8.96 2.464 18.214 2.677 27.418 1.926 2.177-.178 4.35-.423 6.52-.69 1.923-.236 4.127-.274 5.94-.988 1.97-.773 1.52-3.976-.692-3.454z" fill="#000"/><path d="M69.56 254.269a.364.364 0 0 0-.083-.124c.011-.15 0-.306-.042-.463a.388.388 0 0 0-.36-.29.824.824 0 0 0-.08-.193c-.203-.362-.766-.202-.766.21 0 .167.004.335.004.502l-.007.042c-.008.079-.004.173.011.263.004.189.004.378.008.567a.438.438 0 0 0 .405.423c.058.294.46.498.677.228.28-.34.402-.741.234-1.165z" fill="#000"/><path d="M111.264 266.025a65.106 65.106 0 0 0-2.869-11.923c-.256-.755-1.45-.43-1.19.33a66.47 66.47 0 0 1 2.28 8.359c.326 1.597.563 3.213.758 4.832.191 1.581.972 4.413-1.282 4.868-6.43 1.298-13.103 1.809-19.644 2.08-6.13.255-12.572.412-18.658-.459-2.38-.34-2.338-2.658-2.33-4.569l.011-5.187c.004-1.482.008-2.964.008-4.446.004-.792-.505-5.052.41-5.36.42-.142.244-.735-.18-.66-.613.109-.953.49-1.03 1.136-.26 2.077-.11 4.273-.126 6.366-.011 1.976-.027 3.952-.038 5.928-.015 1.844-.222 3.799.176 5.61.6 2.71 5.061 2.38 7.005 2.51 4.174.28 8.359.348 12.54.276 4.178-.073 8.352-.35 12.51-.77 1.764-.178 3.524-.402 5.284-.64 1.66-.226 3.906-.197 5.432-.937 2.475-1.2 1.236-5.234.933-7.344z" fill="#000"/><path d="M84.588 267.835c-.076-3.26-.092-6.54-.329-9.793-.023-.414-.627-.421-.639 0-.092 2.759 0 5.527.035 8.287.034 2.474.791 6.233-.563 8.415-.336.532.501 1.024.827.491 1.3-2.119.726-5.035.669-7.4zm-4.266-.08c-.003.786-.023 2.607-.937 2.98-1.278.522-2.016-1.135-2.112-2.065-.03-.335-.015-1.785.34-2.53.272.127.663-.006.682-.409l.019-.005h.004a.255.255 0 0 0 .29-.084l1.114-.317c.271.28.447.615.512 1.004.13.445.096.967.088 1.426zm.532-2.508c-.67-1.553-3.06-1.59-3.443-.026-.914.66-.968 2.942-.907 3.84.13 1.78 2.047 3.368 3.707 2.255.777-.52.873-1.78.98-2.606.157-1.185.141-2.359-.337-3.463zm-11.948 17.426v.098c0 .03-.001.058-.006.085-.34 10.712-1.404 24.203-3.192 40.47h-1.225c2.144-24.041 3.544-37.645 3.544-40.673.022-3.05-.014-6.108.141-9.155.02-.391.578-.391.597 0 .155 3.047.123 6.105.14 9.155l.001.02z" fill="#000"/><path d="M83.957 274.895c-.07-.718-1.186-.724-1.117 0 .692 7.271.684 14.771-.524 21.99l-2.43-.414a6.277 6.277 0 0 1-.26-1.554c-.096-.967-.122-1.942-.153-2.913-.057-1.945.035-3.89.195-5.828.287-3.489 1.73-7.134 1.431-10.627-.034-.404-.635-.417-.631 0 .011 2.56-.895 5.098-1.3 7.615-.364 2.2-.537 4.426-.61 6.652-.06 2-.81 8.809 2.583 8.952 1.186.05 1.787-.51 2.146-1.612.65-1.995.624-4.504.8-6.578.444-5.22.356-10.471-.13-15.683zm31.485 25.419a525.442 525.442 0 0 1-3.852-28.079c-.046-.419-.689-.44-.666 0 .8 17.268 4.893 34.257 7.005 51.398h1.017c-.94-7.805-2.23-15.565-3.504-23.32zm-97.6-285.512c-1.08-.412-1.688-1.875-2.292-2.774-.616-.923-1.236-1.847-1.848-2.771-1.24-1.844-2.487-3.688-3.86-5.43-1.014-1.289-2.923.221-1.99 1.554 1.527 2.181 3.237 4.226 4.928 6.28 1.236 1.503 2.567 3.891 4.514 4.507.884.28 1.435-1.027.548-1.366zm-2.874 5.357c-3.63-2.339-7.636-4.015-11.802-5.082-1.392-.356-1.981 2.028-.623 2.468 3.913 1.271 7.823 2.57 11.74 3.825.708.226 1.386-.758.685-1.211zm-2.119 5.565c-3.5-.892-7.514-.97-11.102-.515-1.396.177-1.412 2.473.038 2.529 3.623.14 7.502.077 11.083-.497.914-.146.77-1.316-.019-1.517zM23.492 13.25c-.295-3.868-.119-7.71-.15-11.58-.01-1.398-2.046-1.734-2.203-.257-.42 4.014.195 8.122 1.148 12.014.187.763 1.266.623 1.205-.177zm9.293-7.788c-2.269 2.27-4.117 5.289-5.192 8.326-.248.705.673 1.272 1.14.659 1.871-2.455 3.807-4.929 5.578-7.451.681-.97-.62-2.439-1.526-1.534zM13.036 33.261c-2.85.737-5.65 2.312-7.934 4.168-1.01.826.18 2.365 1.232 1.608 2.288-1.646 4.648-2.935 7.127-4.26.73-.393.497-1.755-.425-1.516z" fill="#000"/></g></g></g><path d="M144.84 69.2h10.24V114h-10.24V69.2zm53.44 11.904c7.36 0 12.16 5.248 12.16 13.248V114h-9.6V95.184c0-3.2-1.536-5.248-4.608-5.248-3.2 0-4.992 2.24-4.992 6.016V114h-9.6V95.184c0-3.2-1.536-5.248-4.608-5.248-3.2 0-4.992 2.24-4.992 6.016V114h-9.6V82h9.6v2.944c1.472-2.176 4.288-3.84 8.576-3.84 3.776 0 6.592 1.536 8.384 4.224 1.792-2.56 4.736-4.224 9.28-4.224zm41.984.896h9.6v32h-9.6v-3.008c-2.112 2.432-5.248 3.904-9.536 3.904-8.384 0-15.296-7.36-15.296-16.896 0-9.536 6.912-16.896 15.296-16.896 4.288 0 7.424 1.472 9.536 3.904V82zm-7.616 23.808c4.416 0 7.616-3.008 7.616-7.808s-3.2-7.808-7.616-7.808c-4.416 0-7.616 3.008-7.616 7.808s3.2 7.808 7.616 7.808zM280.392 82h9.344v30.4c0 10.752-8.384 15.296-16.896 15.296-6.656 0-12.224-2.496-15.168-7.744l8.192-4.736c1.216 2.24 3.072 4.032 7.296 4.032 4.48 0 7.232-2.304 7.232-6.848v-2.944c-2.112 2.624-5.184 4.16-9.344 4.16-9.088 0-15.744-7.424-15.744-16.256s6.656-16.256 15.744-16.256c4.16 0 7.232 1.536 9.344 4.16V82zm-7.744 22.784c4.544 0 7.744-3.008 7.744-7.424s-3.2-7.424-7.744-7.424-7.744 3.008-7.744 7.424 3.2 7.424 7.744 7.424zm32.704-2.944c1.216 3.328 4.16 4.48 7.68 4.48 2.624 0 4.864-1.024 6.144-2.432l7.68 4.416c-3.136 4.352-7.872 6.592-13.952 6.592-10.944 0-17.728-7.36-17.728-16.896 0-9.536 6.912-16.896 17.024-16.896 9.344 0 16.256 7.232 16.256 16.896 0 1.344-.128 2.624-.384 3.84h-22.72zm-.192-7.168h13.76c-1.024-3.712-3.904-5.056-6.784-5.056-3.648 0-6.08 1.792-6.976 5.056zm36.544-3.328c0 3.648 15.744 1.216 15.744 13.056 0 7.36-6.4 10.496-13.312 10.496-6.4 0-11.264-2.432-13.76-7.616l8.32-4.736c.832 2.432 2.624 3.776 5.44 3.776 2.304 0 3.456-.704 3.456-1.984 0-3.52-15.744-1.664-15.744-12.736 0-6.976 5.888-10.496 12.544-10.496 5.184 0 9.792 2.304 12.48 6.848l-8.192 4.416c-.896-1.664-2.176-2.816-4.288-2.816-1.664 0-2.688.64-2.688 1.792z" fill="#FFF"/><path d="M138.392 156l-1.632-4.272h-8.424L126.704 156h-1.344l6.528-16.8h1.344l6.504 16.8h-1.344zm-9.576-5.472h7.488l-3.744-9.768-3.744 9.768zm24.912 5.736c-3.144 0-5.376-1.584-6.144-3.96l1.104-.648c.576 2.016 2.28 3.384 5.04 3.384 2.808 0 4.224-1.44 4.224-3.36 0-2.016-1.776-2.784-4.344-3.6-2.808-.912-5.328-1.704-5.328-4.632 0-2.76 2.232-4.512 5.088-4.512 2.76 0 4.584 1.584 5.4 3.528l-1.08.6c-.624-1.512-1.92-2.904-4.32-2.904-2.328 0-3.792 1.368-3.792 3.24 0 2.016 1.704 2.64 4.104 3.432 2.976.984 5.568 1.92 5.568 4.824 0 2.784-2.184 4.608-5.52 4.608zm9-15.168a.963.963 0 0 1-.96-.96c0-.504.432-.936.96-.936s.96.432.96.936c0 .528-.432.96-.96.96zm-.6 14.904v-12h1.2v12h-1.2zm11.04-10.824h-3.576v7.8c0 2.112 1.128 2.16 3.576 1.944V156c-3.144.48-4.8-.288-4.8-3.024v-7.8h-2.64V144h2.64v-3l1.224-.36V144h3.576v1.176zm7.56-1.44c3.648 0 5.928 3.024 5.928 6.312 0 .192-.024.384-.024.576H175.76c.288 2.712 2.352 4.488 5.088 4.488 1.968 0 3.456-.912 4.152-2.184l1.056.624c-.984 1.632-2.856 2.712-5.232 2.712-3.696 0-6.312-2.64-6.312-6.264 0-3.528 2.544-6.264 6.216-6.264zm0 1.152c-2.736 0-4.728 1.896-4.968 4.56h9.648c-.264-2.928-2.328-4.56-4.68-4.56zM206.72 156l-4.032-6.888h-5.304V156h-1.272v-16.8h6.624a4.978 4.978 0 0 1 4.968 4.968c0 2.28-1.56 4.2-3.696 4.776l4.176 7.056h-1.464zm-9.336-15.6v7.512h5.352c2.04 0 3.696-1.68 3.696-3.744 0-2.088-1.656-3.768-3.696-3.768h-5.352zm18 3.336c3.648 0 5.928 3.024 5.928 6.312 0 .192-.024.384-.024.576h-10.872c.288 2.712 2.352 4.488 5.088 4.488 1.968 0 3.456-.912 4.152-2.184l1.056.624c-.984 1.632-2.856 2.712-5.232 2.712-3.696 0-6.312-2.64-6.312-6.264 0-3.528 2.544-6.264 6.216-6.264zm0 1.152c-2.736 0-4.728 1.896-4.968 4.56h9.648c-.264-2.928-2.328-4.56-4.68-4.56zm17.064-.888h1.272l-5.064 12h-1.464l-5.088-12h1.296l4.512 10.752L232.448 144zm4.056-2.904a.963.963 0 0 1-.96-.96c0-.504.432-.936.96-.936s.96.432.96.936c0 .528-.432.96-.96.96zm-.6 14.904v-12h1.2v12h-1.2zm10.296-12.264c3.648 0 5.928 3.024 5.928 6.312 0 .192-.024.384-.024.576h-10.872c.288 2.712 2.352 4.488 5.088 4.488 1.968 0 3.456-.912 4.152-2.184l1.056.624c-.984 1.632-2.856 2.712-5.232 2.712-3.696 0-6.312-2.64-6.312-6.264 0-3.528 2.544-6.264 6.216-6.264zm0 1.152c-2.736 0-4.728 1.896-4.968 4.56h9.648c-.264-2.928-2.328-4.56-4.68-4.56zm22.824-.888h1.272l-3.792 12h-1.32l-3.336-10.224L258.512 156h-1.32l-3.792-12h1.272l3.192 10.44 3.36-10.44h1.248l3.36 10.44 3.192-10.44zm4.008 3.144c0 3.216 7.272 1.32 7.272 5.712 0 1.968-1.728 3.408-4.296 3.408-2.4 0-3.984-1.128-4.56-2.664l1.032-.6c.432 1.296 1.728 2.112 3.528 2.112 1.68 0 3.096-.744 3.096-2.256 0-3.264-7.272-1.392-7.272-5.712 0-1.896 1.632-3.408 4.08-3.408 1.944 0 3.432.936 4.08 2.4l-1.008.576c-.504-1.248-1.752-1.824-3.072-1.824-1.56 0-2.88.816-2.88 2.256zM300.176 144h1.224v12h-1.224v-2.712c-1.008 1.8-2.856 2.976-5.16 2.976-3.408 0-6.216-2.712-6.216-6.264s2.808-6.264 6.216-6.264c2.304 0 4.152 1.176 5.16 2.976V144zm-5.064 11.112c2.856 0 5.064-2.256 5.064-5.112 0-2.856-2.208-5.112-5.064-5.112s-5.088 2.256-5.088 5.112c0 2.856 2.232 5.112 5.088 5.112zM315.68 139.2h1.2V156h-1.2v-2.784c-.984 1.848-2.832 3.048-5.16 3.048-3.432 0-6.216-2.712-6.216-6.264s2.784-6.264 6.216-6.264c2.328 0 4.176 1.2 5.16 3.048V139.2zm-5.088 15.912c2.856 0 5.088-2.256 5.088-5.112 0-2.856-2.232-5.112-5.088-5.112s-5.088 2.256-5.088 5.112c0 2.856 2.232 5.112 5.088 5.112zM331.16 139.2h1.2V156h-1.2v-2.784c-.984 1.848-2.832 3.048-5.16 3.048-3.432 0-6.216-2.712-6.216-6.264s2.784-6.264 6.216-6.264c2.328 0 4.176 1.2 5.16 3.048V139.2zm-5.088 15.912c2.856 0 5.088-2.256 5.088-5.112 0-2.856-2.232-5.112-5.088-5.112s-5.088 2.256-5.088 5.112c0 2.856 2.232 5.112 5.088 5.112zm10.224-5.952v-1.152h8.64v1.152h-8.64zm18.048 7.104c-3.504 0-6.312-2.712-6.312-6.264s2.808-6.264 6.312-6.264c3.48 0 6.288 2.712 6.288 6.264s-2.808 6.264-6.288 6.264zm0-1.152c2.856 0 5.064-2.256 5.064-5.112 0-2.856-2.208-5.112-5.064-5.112s-5.088 2.256-5.088 5.112c0 2.856 2.232 5.112 5.088 5.112zm14.664-11.376c2.856 0 4.656 1.896 4.656 4.8V156h-1.224v-7.464c0-2.208-1.272-3.648-3.528-3.648-2.352 0-4.2 1.536-4.2 4.776V156h-1.2v-12h1.2v2.28c.912-1.776 2.448-2.544 4.296-2.544z" fill="#FFF" opacity=".75"/></g></svg>
