<svg xmlns="http://www.w3.org/2000/svg" width="2200" height="1100"><title>images</title><desc>Created with Sketch.</desc><g fill="none"><path fill="#673AB7" d="M0 0h2200v1100H0z"/><path id="Shape" fill="#764EBE" d="M1471.44 1148.7c-5.22-19.06 4.76-39.34 23.6-46.57 11.17-4.3 23.1-3.08 32.82 2.3l9.1 61.06c-3.5 3.6-7.74 6.6-12.62 8.67l-52.9-25.5zm-121.63-58.62c-2.42-17.52 7.4-35.05 24.6-41.66 20.08-7.7 42.58 2.32 50.28 22.38 6.9 17.98-.43 37.93-16.48 47.4l-58.4-28.12zm-120.96-58.3c-.3-15.9 9.25-31.03 24.96-37.06 20.05-7.7 42.55 2.32 50.25 22.38 6.33 16.48.7 34.6-12.65 44.83l-62.57-30.15zm277.9-69.37c-6.06-4.26-10.97-10.33-13.83-17.8-5.04-13.15-2.46-27.36 5.57-37.76l8.27 55.58zM682.6 1170.9c-3.2-3.5-5.8-7.64-7.6-12.33-7.7-20.06 2.3-42.56 22.37-50.26 20.05-7.7 42.56 2.34 50.25 22.4 1.02 2.65 1.73 5.34 2.15 8.04l-67.17 32.17zm82.6-39.57c-1.18-1.94-2.2-4.02-3.05-6.22-7.7-20.04 2.32-42.54 22.38-50.24 20.06-7.7 42.56 2.32 50.26 22.38.06.22.14.43.22.65l-69.83 33.44zm83.92-40.2c-7.33-19.92 2.68-42.1 22.57-49.74 17.9-6.9 37.74.36 47.27 16.26l-69.86 33.47zm85.24-40.82c-2.82-17.74 7.03-35.65 24.5-42.36 15.4-5.9 32.27-1.36 42.74 10.17l-67.24 32.2zm86.74-41.53c.78-14.87 10.12-28.6 24.9-34.28 12.73-4.9 26.43-2.65 36.72 4.75l-61.62 29.52zm87.27-35.03c1.34-14.26 10.53-27.23 24.8-32.7 20.06-7.7 42.56 2.3 50.26 22.36 5.78 15.05 1.58 31.47-9.35 42l-65.7-31.67zm386.46-91.33c-15.3-.36-29.57-9.8-35.4-24.95-7.7-20.05 2.33-42.56 22.4-50.25.56-.23 1.14-.44 1.72-.63l11.28 75.83zm-820.4 213.83l12.38-76.6c12.1 2.86 22.6 11.44 27.38 23.9 7.7 20.06-2.32 42.56-22.38 50.26-5.73 2.2-11.64 2.94-17.36 2.43zM1470.4 718.3l10.75 72.08c-1.56.86-3.2 1.62-4.9 2.28-20.06 7.7-42.56-2.32-50.26-22.38-7.7-20.06 2.3-42.56 22.37-50.26 7.3-2.8 14.93-3.25 22.05-1.73zM697.24 955.14l7.5-46.5c3.62-3.43 7.95-6.23 12.9-8.12 20.05-7.7 42.55 2.32 50.25 22.37 7.7 20.05-2.32 42.55-22.38 50.25-18.55 7.12-39.18-.9-48.28-18zm795.36-288.36c-5.64-4.25-10.2-10.07-12.9-17.14-7.7-20.05 2.32-42.56 22.37-50.26 16.6-6.37 34.87-.6 45.04 12.94l-54.5 54.45zM1642 517.56c-9.5-3.94-17.46-11.63-21.44-22-7.7-20.05 2.32-42.55 22.38-50.25 19.75-7.57 41.87 2.03 49.9 21.48L1642 517.56zM728.7 760.34l10-61.9-4.2-4.23c1.1-.53 2.2-1.03 3.37-1.47 20.05-7.7 42.56 2.32 50.26 22.37 7.7 20.06-2.32 42.56-22.38 50.26-12.86 4.94-26.73 2.6-37.06-5.02zm977.06-437.94l20.87 3.17c9 4.06 16.45 11.54 20.27 21.48 7.7 20.06-2.33 42.56-22.4 50.26-20.04 7.7-42.55-2.3-50.24-22.36-7.7-20.06 2.3-42.56 22.37-50.26 3-1.15 6.06-1.9 9.12-2.28zm87.75 43.83c-14-1.55-26.67-10.68-32.07-24.74-1.4-3.63-2.2-7.33-2.5-11l61.08 9.27-26.5 26.47zM721.1 680.73l-41.55-41.9c1.16-14.47 10.4-27.7 24.85-33.24 20.06-7.7 42.56 2.3 50.26 22.35 7.7 20.06-2.32 42.56-22.38 50.26-3.68 1.4-7.45 2.24-11.2 2.5zm830.84-381.7l76.78 11.68c-1.27 14.36-10.48 27.44-24.83 32.95-20.07 7.7-42.57-2.32-50.27-22.38-2.83-7.36-3.27-15.05-1.7-22.22zm-203.7-30.95l72 10.94c3.9 18.4-6 37.42-24.13 44.37-20.03 7.7-42.54-2.33-50.23-22.4-4.3-11.2-3.07-23.2 2.37-32.93zm95.05 14.44l42.3 6.44c-.77.34-1.54.67-2.34.98-14.12 5.42-29.46 2.05-39.98-7.42zM528.26 486.25c3.93-9.55 11.63-17.53 22.04-21.53 20.07-7.7 42.57 2.32 50.27 22.38 7.63 19.88-2.14 42.15-21.84 50.04l-50.46-50.9zm753.46-286.13l18.1 40.15c-2.34 12.93-11.18 24.37-24.35 29.42-20.06 7.7-42.56-2.34-50.26-22.4-7.7-20.05 2.3-42.55 22.37-50.25 11.7-4.5 24.2-2.96 34.13 3.06zm-499.4 75.77l8.4-1.3c16.2-.63 31.73 8.98 37.87 24.95 7.7 20.06-2.3 42.56-22.37 50.26-20.06 7.7-42.56-2.3-50.26-22.37-7.7-20.05 2.32-42.56 22.38-50.25 1.32-.52 2.65-.95 3.98-1.3zm60.55-9.17l47.36-7.16 6.58-14.33c8.4 4.2 15.3 11.4 18.93 20.85 7.7 20.05-2.32 42.55-22.38 50.25-20.07 7.7-42.57-2.32-50.27-22.37-3.5-9.13-3.34-18.75-.24-27.26zm397.96-157.28l23.23 51.5c-3.94 9.58-11.65 17.57-22.06 21.57-20.05 7.7-42.55-2.32-50.25-22.38-7.7-20.05 2.32-42.56 22.37-50.26 8.93-3.43 18.34-3.35 26.7-.44zm-807.8 219.23c5.9 4.27 10.66 10.25 13.46 17.55 6.32 16.47.7 34.6-12.62 44.8L380 336.7l53.03-8.02zm25.44-3.84l75.43-11.4c7.25 19.88-2.77 41.98-22.6 49.6-20.06 7.7-42.56-2.33-50.26-22.38-2-5.2-2.8-10.6-2.55-15.82zm91.4-13.82L622.84 300c-2.3 13-11.16 24.5-24.38 29.57-18.74 7.2-39.6-1.07-48.56-18.55zm369.64-115.16l32.4-70.52c7.76 4.28 14.12 11.2 17.55 20.14 7.7 20.06-2.32 42.56-22.38 50.26-9.25 3.55-19 3.34-27.6.12zm281.3-175.22l26.7 59.22c-4.33 6.83-10.8 12.4-18.94 15.5-20.06 7.7-42.56-2.3-50.26-22.37-7.7-20.08 2.32-42.58 22.38-50.28 6.64-2.55 13.55-3.15 20.1-2.1zm-226.14 55.1l32.27-70.25c7.16 4.3 13 10.94 16.22 19.35 7.7 20.06-2.32 42.56-22.37 50.26-8.72 3.36-17.9 3.36-26.12.64zM1161.28-67l29.13 64.6c-4 4.58-9.2 8.3-15.27 10.63-20.06 7.7-42.56-2.3-50.26-22.37-7.7-20.06 2.32-42.56 22.38-50.26 4.62-1.77 9.37-2.6 14.04-2.6zm-131.4 22.6l32.08-69.88c6.57 4.32 11.9 10.65 14.92 18.55 7.7 20.05-2.32 42.55-22.38 50.25-8.2 3.15-16.8 3.34-24.63 1.1zm92.28-109.36l30.74 68.17c-3.25 2.77-7.02 5.04-11.24 6.66-20.06 7.7-42.56-2.32-50.26-22.38-7.7-20.06 2.32-42.56 22.38-50.26 2.76-1.05 5.57-1.77 8.38-2.18zm-37.08-10.85l16.24-35.38 13.73 30.45c-2.12 1.35-4.4 2.5-6.85 3.43-7.67 2.95-15.7 3.3-23.12 1.5zm404.38 1252.22c-20.06 7.7-42.56-2.32-50.26-22.38-7.7-20.05 2.32-42.55 22.37-50.25 20.06-7.7 42.56 2.3 50.26 22.36 7.7 20.06-2.32 42.56-22.37 50.26zm-120.62-53.7c-20.06 7.7-42.56-2.32-50.26-22.38-7.7-20.06 2.32-42.56 22.37-50.26 20.06-7.7 42.56 2.32 50.26 22.38 7.7 20.06-2.3 42.56-22.35 50.26zm87.16-33.46c-20.06 7.7-42.56-2.32-50.26-22.38-7.7-20.05 2.32-42.56 22.38-50.25 20.05-7.7 42.55 2.32 50.25 22.38 7.7 20.07-2.32 42.57-22.37 50.27zm-207.78-20.25c-20.06 7.7-42.56-2.3-50.26-22.37-7.7-20.06 2.32-42.56 22.37-50.26 20.06-7.7 42.56 2.32 50.26 22.38 7.7 20.05-2.34 42.56-22.4 50.25zm87.16-33.45c-20.06 7.7-42.56-2.32-50.26-22.38-7.7-20.06 2.32-42.56 22.38-50.26 20.05-7.7 42.55 2.33 50.25 22.4 7.7 20.05-2.3 42.55-22.37 50.25zm87.16-33.46c-20.06 7.7-42.56-2.33-50.26-22.4-7.7-20.05 2.32-42.55 22.38-50.25 20.05-7.7 42.56 2.32 50.26 22.38 7.7 20.06-2.32 42.56-22.38 50.26zm-643.6 147.03c-20.05 7.7-42.55-2.32-50.25-22.37-7.7-20.06 2.3-42.56 22.36-50.26 20.06-7.7 42.56 2.3 50.26 22.37 7.7 20.05-2.32 42.55-22.38 50.25zm87.17-33.45c-20.03 7.7-42.54-2.32-50.23-22.38-7.7-20.07 2.3-42.57 22.37-50.27 20.06-7.7 42.56 2.32 50.26 22.38 7.7 20.07-2.33 42.58-22.4 50.28zm87.18-33.46c-20.05 7.7-42.55-2.3-50.25-22.37-7.7-20.06 2.32-42.56 22.37-50.26 20.05-7.7 42.55 2.3 50.25 22.37 7.7 20.06-2.32 42.56-22.38 50.26zm87.17-33.45c-20.06 7.7-42.56-2.32-50.26-22.38-7.7-20.06 2.3-42.57 22.36-50.27 20.06-7.68 42.56 2.33 50.26 22.4 7.7 20.05-2.3 42.55-22.36 50.25zm87.16-33.46c-20.05 7.7-42.55-2.32-50.25-22.4-7.7-20.03 2.32-42.53 22.38-50.23 20.05-7.7 42.55 2.32 50.25 22.37 7.7 20.06-2.32 42.56-22.37 50.26zm87.17-33.46c-20.06 7.7-42.56-2.32-50.26-22.37-7.7-20.06 2.33-42.56 22.4-50.26 20.04-7.7 42.55 2.33 50.24 22.38 7.7 20.06-2.3 42.56-22.37 50.26zm87.16-33.46c-20.06 7.7-42.56-2.3-50.26-22.37-7.7-20.05 2.32-42.55 22.38-50.25 20.06-7.7 42.56 2.32 50.26 22.38 7.7 20.05-2.3 42.56-22.37 50.25zm87.16-33.45c-20.07 7.7-42.57-2.32-50.27-22.38-7.7-20.06 2.32-42.56 22.38-50.26 20.07-7.7 42.57 2.3 50.27 22.37 7.7 20.06-2.32 42.56-22.38 50.26zM832.65 939.7c-20.06 7.7-42.56-2.3-50.26-22.37-7.7-20.06 2.32-42.56 22.37-50.26 20.06-7.7 42.56 2.32 50.26 22.38 7.7 20.05-2.32 42.55-22.37 50.25zm87.16-33.45c-20.06 7.7-42.56-2.32-50.26-22.38-7.7-20.06 2.32-42.56 22.37-50.26 20.06-7.7 42.56 2.34 50.26 22.4 7.7 20.06-2.34 42.56-22.4 50.26zm87.16-33.46c-20.06 7.7-42.56-2.34-50.26-22.4-7.7-20.06 2.32-42.56 22.38-50.26 20.05-7.7 42.55 2.32 50.25 22.38 7.7 20.06-2.3 42.56-22.37 50.26zm87.16-33.48c-20.06 7.7-42.56-2.32-50.26-22.38-7.7-20.05 2.32-42.56 22.38-50.25 20.05-7.7 42.56 2.3 50.26 22.36 7.7 20.06-2.32 42.56-22.38 50.26zm87.16-33.46c-20.06 7.7-42.56-2.32-50.26-22.37-7.7-20.07 2.32-42.57 22.38-50.27 20.06-7.7 42.56 2.32 50.26 22.37 7.7 20.07-2.32 42.57-22.38 50.27zm87.16-33.46c-20.06 7.7-42.56-2.3-50.26-22.36-7.7-20.06 2.32-42.56 22.38-50.26 20.06-7.7 42.56 2.32 50.26 22.38 7.7 20.05-2.32 42.55-22.38 50.25zm87.16-33.44c-20.05 7.7-42.56-2.32-50.26-22.38-7.7-20.06 2.32-42.56 22.38-50.26 20.06-7.7 42.56 2.32 50.26 22.38 7.7 20.05-2.32 42.56-22.38 50.26zm87.16-33.46c-20.05 7.7-42.55-2.32-50.25-22.38-7.7-20.06 2.32-42.56 22.37-50.26 20.06-7.7 42.56 2.32 50.26 22.38 7.7 20.06-2.32 42.56-22.38 50.26zM799.2 852.54c-20.06 7.7-42.56-2.32-50.26-22.37-7.7-20.06 2.32-42.56 22.38-50.26 20.05-7.7 42.55 2.34 50.25 22.4 7.7 20.05-2.32 42.55-22.37 50.25zm87.16-33.46c-20.06 7.7-42.56-2.3-50.26-22.37-7.7-20.04 2.32-42.54 22.38-50.24 20.05-7.7 42.56 2.32 50.25 22.38 7.7 20.05-2.3 42.56-22.37 50.25zm87.16-33.45c-20.06 7.7-42.56-2.32-50.26-22.38-7.7-20.06 2.32-42.56 22.38-50.26 20.06-7.7 42.56 2.3 50.26 22.36 7.7 20.06-2.32 42.56-22.38 50.26zm87.16-33.46c-20.06 7.7-42.56-2.32-50.26-22.38-7.7-20.08 2.32-42.58 22.38-50.28 20.06-7.7 42.56 2.32 50.26 22.38 7.7 20.07-2.32 42.57-22.38 50.27zm87.16-33.46c-20.06 7.7-42.56-2.3-50.26-22.36-7.7-20.05 2.32-42.55 22.38-50.25 20.06-7.7 42.56 2.3 50.26 22.36 7.7 20.06-2.32 42.56-22.38 50.26zm87.16-33.44c-20.05 7.7-42.56-2.32-50.25-22.37-7.7-20.07 2.3-42.57 22.37-50.27 20.06-7.7 42.56 2.32 50.26 22.37 7.7 20.05-2.32 42.55-22.38 50.25zm87.16-33.46c-20.05 7.7-42.55-2.32-50.25-22.38-7.7-20.06 2.34-42.56 22.4-50.26 20.05-7.7 42.55 2.32 50.25 22.38 7.7 20.05-2.32 42.55-22.38 50.25zm87.17-33.46c-20.06 7.7-42.56-2.32-50.26-22.38-7.7-20.06 2.32-42.56 22.37-50.26 20.06-7.7 42.56 2.32 50.26 22.38 7.7 20.06-2.32 42.56-22.37 50.26zm87.16-33.46c-20.08 7.7-42.58-2.32-50.28-22.38-7.7-20.06 2.32-42.56 22.38-50.26 20.06-7.7 42.56 2.32 50.26 22.38 7.7 20.06-2.3 42.56-22.37 50.26zm87.14-33.46c-20.06 7.7-42.56-2.32-50.26-22.38-7.7-20.05 2.3-42.56 22.37-50.25 20.05-7.7 42.56 2.3 50.26 22.35 7.7 20.06-2.3 42.56-22.37 50.26zM852.9 731.92c-20.06 7.7-42.56-2.32-50.26-22.37-7.7-20.06 2.32-42.56 22.38-50.26 20.06-7.7 42.56 2.3 50.26 22.36 7.7 20.05-2.32 42.55-22.38 50.25zm87.16-33.45c-20.06 7.7-42.56-2.32-50.26-22.38-7.7-20.08 2.32-42.58 22.38-50.28 20.06-7.7 42.56 2.32 50.26 22.38 7.7 20.06-2.32 42.57-22.38 50.27zm87.16-33.46c-20.05 7.7-42.56-2.3-50.26-22.36-7.7-20.06 2.32-42.56 22.38-50.26 20.06-7.7 42.56 2.32 50.26 22.38 7.7 20.06-2.32 42.56-22.38 50.26zm87.16-33.44c-20.05 7.7-42.55-2.32-50.25-22.38-7.7-20.05 2.3-42.56 22.37-50.26 20.06-7.68 42.56 2.33 50.26 22.4 7.7 20.05-2.32 42.55-22.38 50.25zm87.17-33.46c-20.06 7.7-42.56-2.33-50.26-22.4-7.7-20.04 2.3-42.54 22.35-50.24 20.06-7.7 42.56 2.32 50.26 22.37 7.7 20.06-2.3 42.56-22.36 50.26zm87.16-33.47c-20.04 7.7-42.54-2.32-50.24-22.37-7.7-20.06 2.32-42.56 22.38-50.26 20.05-7.7 42.55 2.32 50.25 22.37 7.7 20.06-2.33 42.56-22.38 50.26zm87.18-33.46c-20.06 7.7-42.56-2.3-50.26-22.37-7.7-20.06 2.33-42.56 22.4-50.26 20.04-7.7 42.55 2.32 50.24 22.38 7.7 20.05-2.3 42.56-22.37 50.25zm87.16-33.45c-20.06 7.7-42.56-2.32-50.26-22.38-7.7-20.06 2.32-42.56 22.38-50.26 20.06-7.7 42.56 2.32 50.26 22.38 7.7 20.06-2.3 42.56-22.37 50.26zm87.16-33.46c-20.07 7.7-42.57-2.32-50.27-22.38-7.7-20.06 2.32-42.56 22.38-50.26 20.08-7.7 42.58 2.32 50.28 22.38 7.7 20.06-2.32 42.56-22.38 50.26zm87.15-33.46c-20.06 7.7-42.56-2.32-50.26-22.38-7.7-20.05 2.3-42.55 22.36-50.25 20.06-7.7 42.56 2.3 50.26 22.37 7.7 20.06-2.32 42.56-22.38 50.26zm-817.9 213.96c-20.07 7.7-42.57-2.32-50.27-22.37-7.7-20.08 2.32-42.58 22.38-50.28 20.06-7.7 42.56 2.32 50.26 22.37 7.7 20.05-2.32 42.55-22.38 50.25zm87.15-33.46c-20.05 7.7-42.56-2.3-50.25-22.37-7.7-20.06 2.3-42.56 22.37-50.26 20.06-7.7 42.56 2.32 50.26 22.38 7.7 20.05-2.32 42.55-22.38 50.25zm87.16-33.45c-20.05 7.7-42.55-2.32-50.25-22.38-7.7-20.06 2.34-42.56 22.4-50.26 20.05-7.7 42.55 2.34 50.25 22.4 7.7 20.06-2.32 42.56-22.38 50.26zm87.17-33.46c-20.06 7.7-42.56-2.34-50.26-22.4-7.7-20.06 2.32-42.56 22.37-50.26 20.06-7.7 42.56 2.32 50.26 22.38 7.7 20.06-2.32 42.56-22.37 50.26zm87.16-33.48c-20.08 7.7-42.58-2.32-50.28-22.38-7.7-20.05 2.32-42.56 22.38-50.25 20.06-7.7 42.56 2.3 50.26 22.36 7.7 20.06-2.32 42.56-22.37 50.26zm87.14-33.46c-20.06 7.7-42.56-2.32-50.26-22.37-7.7-20.07 2.3-42.57 22.37-50.27 20.05-7.7 42.56 2.32 50.26 22.37 7.7 20.07-2.3 42.57-22.37 50.27zM1342.4 444c-20.05 7.7-42.55-2.3-50.25-22.36-7.7-20.06 2.32-42.56 22.38-50.26 20.06-7.7 42.56 2.32 50.26 22.38 7.7 20.05-2.34 42.55-22.4 50.25zm87.17-33.44c-20.06 7.7-42.56-2.32-50.26-22.38-7.7-20.06 2.34-42.56 22.4-50.26 20.06-7.7 42.56 2.32 50.26 22.38 7.7 20.05-2.32 42.56-22.38 50.26zm87.16-33.46c-20.05 7.7-42.56-2.32-50.26-22.38-7.7-20.06 2.32-42.56 22.38-50.26 20.06-7.7 42.56 2.32 50.26 22.38 7.7 20.06-2.3 42.56-22.36 50.26zm-817.9 213.96c-20.06 7.7-42.57-2.32-50.27-22.38-7.7-20.06 2.32-42.56 22.38-50.26 20.06-7.7 42.56 2.32 50.26 22.38 7.7 20.06-2.32 42.56-22.38 50.26zm87.15-33.46c-20.05 7.7-42.55-2.32-50.25-22.38-7.7-20.05 2.3-42.55 22.37-50.25 20.06-7.7 42.56 2.32 50.26 22.37 7.7 20.06-2.32 42.56-22.38 50.26zm87.17-33.46c-20.06 7.7-42.56-2.32-50.26-22.37-7.7-20.06 2.3-42.56 22.35-50.26 20.06-7.7 42.56 2.34 50.26 22.4 7.7 20.05-2.3 42.55-22.36 50.25zm87.16-33.46c-20.04 7.7-42.54-2.3-50.24-22.37-7.7-20.04 2.32-42.54 22.37-50.24 20.06-7.7 42.56 2.32 50.26 22.38 7.7 20.05-2.33 42.56-22.38 50.25zm87.18-33.45c-20.06 7.7-42.56-2.32-50.26-22.38-7.7-20.06 2.33-42.56 22.4-50.26 20.04-7.7 42.54 2.3 50.24 22.36 7.7 20.06-2.3 42.56-22.37 50.26zm87.16-33.46c-20.06 7.7-42.56-2.32-50.26-22.38-7.7-20.08 2.32-42.58 22.38-50.28 20.05-7.7 42.56 2.32 50.26 22.38 7.7 20.07-2.3 42.57-22.37 50.27zm87.16-33.46c-20.07 7.7-42.57-2.3-50.27-22.36-7.7-20.05 2.32-42.55 22.38-50.25 20.08-7.7 42.58 2.3 50.28 22.36 7.7 20.06-2.32 42.56-22.38 50.26zm87.15-33.44c-20.06 7.7-42.56-2.32-50.26-22.37-7.7-20.07 2.3-42.57 22.36-50.27 20.06-7.7 42.56 2.32 50.26 22.37 7.7 20.05-2.32 42.55-22.38 50.25zM665.35 503.9c-20.04 7.7-42.54-2.32-50.24-22.38-7.7-20.06 2.34-42.56 22.4-50.26 20.05-7.7 42.55 2.32 50.25 22.38 7.7 20.06-2.32 42.56-22.38 50.26zm87.18-33.46c-20.06 7.7-42.56-2.32-50.26-22.38-7.7-20.05 2.32-42.56 22.37-50.26 20.06-7.7 42.56 2.32 50.26 22.38 7.7 20.06-2.32 42.56-22.37 50.26zm87.16-33.46c-20.08 7.7-42.58-2.32-50.28-22.38-7.7-20.05 2.32-42.55 22.38-50.25 20.06-7.7 42.56 2.32 50.26 22.37 7.7 20.06-2.32 42.56-22.37 50.26zm87.14-33.46c-20.06 7.7-42.56-2.32-50.26-22.37-7.7-20.06 2.3-42.56 22.37-50.26 20.05-7.7 42.56 2.3 50.25 22.36 7.7 20.05-2.3 42.55-22.37 50.25zm87.16-33.45c-20.05 7.7-42.55-2.32-50.25-22.38-7.7-20.08 2.32-42.58 22.38-50.28 20.06-7.7 42.56 2.32 50.26 22.38 7.7 20.06-2.34 42.57-22.4 50.27zm87.17-33.46c-20.06 7.7-42.56-2.3-50.26-22.36-7.7-20.06 2.34-42.56 22.4-50.26 20.06-7.7 42.56 2.32 50.26 22.38 7.7 20.06-2.32 42.56-22.38 50.26zm87.16-33.44c-20.05 7.7-42.56-2.32-50.26-22.38-7.7-20.05 2.32-42.56 22.38-50.26 20.06-7.68 42.56 2.33 50.26 22.4 7.7 20.05-2.3 42.55-22.36 50.25zM544.75 450.2c-20.06 7.7-42.56-2.32-50.26-22.38-7.7-20.06 2.3-42.56 22.35-50.26 20.06-7.7 42.56 2.32 50.26 22.38 7.7 20.05-2.3 42.55-22.36 50.25zm87.16-33.46c-20.04 7.7-42.54-2.32-50.24-22.38-7.7-20.06 2.32-42.56 22.37-50.26 20.06-7.7 42.56 2.32 50.26 22.38 7.7 20.06-2.33 42.56-22.38 50.26zm87.18-33.46c-20.06 7.7-42.56-2.32-50.26-22.38-7.7-20.06 2.33-42.56 22.4-50.26 20.04-7.7 42.54 2.32 50.24 22.38 7.7 20.06-2.3 42.56-22.37 50.26zM980.55 282.9c-20.06 7.7-42.56-2.32-50.26-22.37-7.7-20.06 2.3-42.56 22.36-50.26 20.06-7.7 42.56 2.32 50.26 22.38 7.7 20.05-2.32 42.55-22.38 50.25zm87.16-33.45c-20.03 7.7-42.54-2.32-50.24-22.38-7.7-20.06 2.32-42.56 22.38-50.26 20.06-7.7 42.56 2.34 50.26 22.4 7.7 20.05-2.33 42.56-22.4 50.26zM1154.9 216c-20.05 7.7-42.55-2.34-50.25-22.4-7.7-20.06 2.32-42.56 22.37-50.26 20.05-7.7 42.55 2.32 50.25 22.38 7.7 20.06-2.32 42.56-22.38 50.26zm-120.62-53.73c-20.05 7.7-42.55-2.3-50.25-22.37-7.7-20.05 2.33-42.55 22.38-50.25 20.06-7.7 42.56 2.32 50.26 22.38 7.7 20.05-2.32 42.55-22.38 50.25zm87.17-33.45c-20.06 7.7-42.56-2.32-50.26-22.38-7.7-20.06 2.32-42.56 22.37-50.26 20.06-7.7 42.56 2.3 50.26 22.37 7.7 20.06-2.33 42.56-22.38 50.26zm-33.46-87.17c-20.06 7.7-42.56-2.3-50.26-22.37C1030-.8 1040.04-23.3 1060.1-31c20.04-7.7 42.55 2.33 50.24 22.4 7.7 20.05-2.3 42.56-22.37 50.25z"/><path fill="#BADEFB" stroke="#979797" d="M720.83 267.17c-2.02 0-3.66 1.64-3.66 3.66v558.34c0 2.02 1.64 3.66 3.66 3.66h758.34c2.02 0 3.66-1.64 3.66-3.66V270.83c0-2.02-1.64-3.66-3.66-3.66H720.83z"/><path fill="#E2F2FD" d="M1173.73 838.77h-225L1487.5 300l6.1 218.9-319.87 319.87zm-281.6-2.15H810.1l577.4-577.4h82l-577.35 577.4zM754.1 833.4l-41.6-8.4L1275 262.5h50L754.1 833.4z"/><path fill="#27A69A" d="M937.5 787.5l179.74-179.64 74.45 73.84L1298.4 575l185.85 165.77v46.73h3.25V800c0 20.7 8.2 37.5-12.5 37.5H725c-20.7 0-12.5-16.8-12.5-37.5v-12.5h225z"/><path fill="#FDD836" d="M962.5 462.5c0 27.64-22.36 50-50 50s-50-22.36-50-50 22.36-50 50-50 50 22.36 50 50z"/><path fill="#160C33" d="M1483.33 725.2V270.82c0-2.3-1.86-4.16-4.16-4.16H720.83c-2.3 0-4.16 1.86-4.16 4.16V782.5H934.6l167.6-167.65c12.9-11.86 32.7-11.87 45.6 0l45.7 46 83.38-83.4c12.86-12.25 33.1-12.25 46 .03l160.45 147.7zm0 20.27l-171.08-157.5c-6.8-6.83-17.84-6.83-24.67 0L1093.06 782.5h344.44c4.12 0 7.5 3.38 7.5 7.5s-3.38 7.5-7.5 7.5H716.67v31.67c0 2.3 1.86 4.16 4.16 4.16h758.34c2.3 0 4.16-1.86 4.16-4.16v-83.7zM975.88 462.5c0 34.52-27.98 62.5-62.5 62.5-34.52 0-62.5-27.98-62.5-62.5 0-34.52 27.98-62.5 62.5-62.5 34.52 0 62.5 27.98 62.5 62.5zm-62.5 45.83c25.3 0 45.83-20.53 45.83-45.83 0-25.3-20.5-45.83-45.8-45.83s-45.84 20.53-45.84 45.83c0 25.3 20.53 45.83 45.83 45.83zm-9.2 54.17c0-4.58 3.74-8.33 8.32-8.33s8.33 3.75 8.33 8.33v25c0 4.58-3.75 8.33-8.33 8.33s-8.33-3.75-8.33-8.33v-25zm8.32-191.67c-4.58 0-8.33-3.75-8.33-8.33v-25c0-4.58 3.75-8.33 8.33-8.33s8.33 3.75 8.33 8.33v25c0 4.58-3.75 8.33-8.33 8.33zm91.67 91.67c0-4.58 3.75-8.33 8.33-8.33h25c4.58 0 8.33 3.75 8.33 8.33s-3.75 8.33-8.33 8.33h-25c-4.58 0-8.33-3.75-8.33-8.33zm-216.67 8.33c-4.58 0-8.33-3.75-8.33-8.33s3.75-8.33 8.33-8.33h25c4.58 0 8.33 3.75 8.33 8.33s-3.75 8.33-8.33 8.33h-25zM975 579.1c-3 0-5.77-1.6-7.28-4.18l-12.3-21.64c-2.04-3.96-.6-8.8 3.26-11.05 3.8-2.2 8.73-1 11.15 2.72l12.45 21.5c1.1 1.9 1.4 4.2.8 6.3-.54 2.18-1.96 4-3.9 5.13l-.12.07-.1.06c-1.15.78-2.48 1.16-3.77 1.1h-.2zM862.5 384.2c-3 0-5.77-1.58-7.28-4.15l-12.3-21.7c-2.04-3.9-.6-8.75 3.26-11 3.8-2.2 8.73-1 11.16 2.68l12.44 21.54c1.1 1.9 1.4 4.22.8 6.32-.54 2.15-1.96 4-3.9 5.1l-.12.06-.1.07c-1.15.76-2.48 1.13-3.78 1.08h-.18zm136.78 37.02c-3.07-.14-5.87-1.85-7.44-4.55-2.26-3.96-.9-9 3.04-11.32l21.56-12.5.16-.08c2.58-1.65 5.83-1.74 8.54-.25 2.68 1.5 4.32 4.3 4.3 7.4-.08 3.05-1.8 5.85-4.52 7.28l-.15.08-21.77 12.6-.17.13c-1.02.76-2.26 1.18-3.55 1.23zm-191.4 111.32c-.97.72-2.2 1.13-3.47 1.18-3.05-.14-5.86-1.85-7.43-4.56-1.1-1.9-1.4-4.18-.8-6.34.55-2.15 1.97-3.97 3.92-5.1l21.62-12.5c1.93-1.1 4.2-1.4 6.35-.8 2.15.54 3.98 1.96 5.1 3.9 1.1 1.9 1.37 4.2.77 6.4-.58 2.12-2 3.9-4 5.04l-21.65 12.52-.2.12-.2.14zm208.9-.15l-20.98-12.14-.16-.24-.97-.5c-2.72-1.4-4.44-4.17-4.47-7.22-.03-3.07 1.6-5.9 4.27-7.4 2.7-1.5 5.96-1.4 8.6.24l.12.08 21.56 12.5c1.98 1.12 3.38 2.93 3.97 5.1.58 2.12.27 4.4-.86 6.35-1.52 2.68-4.34 4.4-7.4 4.55-1.28-.05-2.5-.47-3.54-1.2l-.17-.13zM821.9 419.9l-21.34-12.34-.22-.22-.57-.3c-2.7-1.4-4.4-4.2-4.44-7.23-.03-3.06 1.6-5.9 4.27-7.4 2.66-1.5 5.95-1.4 8.52.24l.15.1 21.63 12.5c1.97 1.1 3.38 2.92 3.97 5.1.55 2.13.25 4.42-.86 6.34-1.5 2.68-4.33 4.4-7.37 4.55-1.3-.05-2.53-.47-3.55-1.2l-.17-.13zm136.64-36.6l-.08-.07-.08-.04c-3.96-2.38-5.3-7.43-3-11.4l12.48-21.58.06-.1.05-.1c1.38-2.68 4.16-4.4 7.27-4.46 3.03-.03 5.85 1.6 7.35 4.3 1.5 2.68 1.4 5.94-.25 8.57l-.08.12-12.5 21.58c-1.5 2.62-4.26 4.2-7.23 4.17h-.24c-1.33.07-2.66-.3-3.76-1zM857.26 574.95c-1.46 2.6-4.2 4.2-7.2 4.27-1.45.03-2.8-.34-3.83-1.04l-.14-.1-.16-.08c-1.95-1.1-3.35-2.92-3.94-5.1-.57-2.1-.26-4.38.87-6.34l12.5-21.62.04-.1.07-.07c1.4-2.7 4.2-4.42 7.23-4.45 3.05-.07 5.9 1.58 7.4 4.27 1.5 2.65 1.4 5.94-.23 8.5l-.1.16-12.5 21.62v.04zM708.33 250h783.34c4.6 0 8.33 3.73 8.33 8.33v583.34c0 4.6-3.73 8.33-8.33 8.33H708.33c-4.6 0-8.33-3.73-8.33-8.33V258.33c0-4.6 3.73-8.33 8.33-8.33zm406.6 377.43L959.15 783.16h111.8l109.34-109.5-46.3-46.23c-5.27-5.22-13.8-5.22-19.08 0z"/></g></svg>