<svg xmlns="http://www.w3.org/2000/svg" xmlns:xlink="http://www.w3.org/1999/xlink" width="750" height="500"><defs><path id="a" d="M149 110.94c0 13.22 47.01 23.94 105 23.94s105-10.72 105-23.94l7.25-5.98L508 0H0l142.34 105.45 6.66 5.49z"/><path id="c" d="M149 110.94c0 13.22 47.01 23.94 105 23.94s105-10.72 105-23.94l7.25-5.98L508 0H0l142.34 105.45 6.66 5.49z"/><path id="e" d="M149 110.94c0 13.22 47.01 23.94 105 23.94s105-10.72 105-23.94l7.25-5.98L508 0H0l142.34 105.45 6.66 5.49z"/><path id="g" d="M149 110.94c0 13.22 47.01 23.94 105 23.94s105-10.72 105-23.94l7.25-5.98L508 0H0l142.34 105.45 6.66 5.49z"/><path id="i" d="M149 110.94c0 13.22 47.01 23.94 105 23.94s105-10.72 105-23.94l7.25-5.98L508 0H0l142.34 105.45 6.66 5.49z"/><path id="k" d="M149 110.94c0 13.22 47.01 23.94 105 23.94s105-10.72 105-23.94l7.25-5.98L508 0H0l142.34 105.45 6.66 5.49z"/><path id="m" d="M149 110.94c0 13.22 47.01 23.94 105 23.94s105-10.72 105-23.94l7.25-5.98L508 0H0l142.34 105.45 6.66 5.49z"/><path id="o" d="M149 110.94c0 13.22 47.01 23.94 105 23.94s105-10.72 105-23.94l7.25-5.98L508 0H0l142.34 105.45 6.66 5.49z"/><path id="q" d="M149 110.94c0 13.22 47.01 23.94 105 23.94s105-10.72 105-23.94l7.25-5.98L508 0H0l142.34 105.45 6.66 5.49z"/></defs><g fill="none" fill-rule="evenodd"><path fill="#319796" fill-rule="nonzero" d="M0 0h750v500H0z"/><path fill="#FFF" fill-rule="nonzero" d="M299.08 114V97.55h16.64V87.7h-16.64v-8.64h16.96V69.2h-27.2V114h10.24zm27.52-34.82a5.82 5.82 0 005.76-5.76 5.82 5.82 0 00-5.76-5.76 5.82 5.82 0 00-5.76 5.76 5.82 5.82 0 005.76 5.76zm4.8 34.82V82h-9.6v32h9.6zm16.64 0V67.28h-9.6V114h9.6zm25.8 0v-8.7c-4.23.25-6.6 0-6.6-2.76V91.22h6.6V82h-6.6v-8.96l-9.6 2.88V82h-5.12v9.22h5.12v11.32c0 8.96 3.65 12.74 16.2 11.46zm20.92.9c6.08 0 10.82-2.24 13.95-6.6l-7.68-4.41c-1.28 1.4-3.52 2.43-6.14 2.43-3.52 0-6.47-1.15-7.68-4.48h22.72c.25-1.22.38-2.5.38-3.84 0-9.66-6.91-16.9-16.25-16.9-10.12 0-17.03 7.36-17.03 16.9s6.79 16.9 17.73 16.9zm6.02-20.23h-13.76c.9-3.26 3.32-5.05 6.97-5.05 2.88 0 5.76 1.34 6.79 5.05zM425.35 114V99.54c0-6.34 5.63-7.94 9.6-7.3V81.36c-4.03 0-8.32 2.05-9.6 6.34V82h-9.6v32h9.6zm24.64.9c6.91 0 13.31-3.14 13.31-10.5 0-11.84-15.74-9.4-15.74-13.06 0-1.15 1.02-1.79 2.69-1.79 2.11 0 3.39 1.15 4.29 2.82l8.19-4.42c-2.69-4.54-7.3-6.85-12.48-6.85-6.66 0-12.55 3.52-12.55 10.5 0 11.07 15.75 9.22 15.75 12.74 0 1.28-1.15 1.98-3.46 1.98-2.81 0-4.6-1.34-5.44-3.78l-8.32 4.74c2.5 5.18 7.36 7.62 13.76 7.62z"/><g transform="translate(121 177)"><g fill-rule="nonzero" transform="translate(139 83.08)"><path fill="#742A2A" d="M87 140.75c4 22.48 9 52.78 12 73.3 10 6.85 25 1.96 27-1.95 4-18.57 10-63.53 13-67.44 3-3.91-41.31-27.15-52-3.91z"/><path fill="#9C2B2B" d="M15 47.9c12.67 26.06 24.67 45.6 36 58.64 17 19.55 25 28.34 37 38.12 12 9.77 38 9.77 51 0 8-8.8 28-25.41 42-43 14-17.6 29-42.04 34-53.77 2.37-5.55-28.69-17-97-14.66-18.55.64-52.89 5.53-103 14.66z"/><ellipse cx="115" cy="27.856" fill="#9C2B2B" rx="105" ry="23.947"/><path fill="#F66565" stroke="#000" d="M115 55.71c38 0 105-7.79 105-21.01 0-13.23-47.01-23.95-105-23.95S10 21.47 10 34.7C10 47.92 77 55.7 115 55.7z"/><path fill="#C53030" stroke="#000" d="M115.5.5c31.57 0 60.16 3.11 80.85 8.14 10.5 2.56 18.95 5.6 24.73 9 5.36 3.14 8.42 6.57 8.42 10.22 0 3.64-3.06 7.07-8.42 10.22-5.78 3.39-14.24 6.43-24.73 8.99-20.7 5.03-49.28 8.14-80.85 8.14-31.57 0-60.16-3.1-80.85-8.14-10.5-2.56-18.95-5.6-24.73-9C4.56 34.94 1.5 31.5 1.5 27.87c0-3.65 3.06-7.08 8.42-10.22 5.78-3.4 14.24-6.44 24.73-9C55.35 3.61 83.93.5 115.5.5zm-.5 2.91c-29.04 0-55.33 2.69-74.36 7.03-9.73 2.22-17.58 4.87-22.93 7.82a22.2 22.2 0 00-6.09 4.6c-1.4 1.61-2.12 3.29-2.12 5 0 1.7.72 3.38 2.13 5a22.26 22.26 0 006.08 4.6c5.35 2.94 13.2 5.6 22.93 7.82C59.67 49.62 85.96 52.3 115 52.3s55.33-2.68 74.36-7.02c9.73-2.22 17.58-4.88 22.93-7.83 2.66-1.46 4.7-3 6.09-4.59 1.4-1.62 2.12-3.3 2.12-5 0-1.71-.72-3.39-2.13-5a22.22 22.22 0 00-6.08-4.6c-5.35-2.95-13.2-5.6-22.93-7.82C170.33 6.1 144.04 3.4 115 3.4z"/><path fill="#742A2A" d="M115.5 55.71c62.57 0 113.41-12.2 114.48-27.37h.02v9.78C216 53.1 177.67 60.6 115 60.6c-62.04 0-99.9-7.34-113.6-22.03l-.4-.45v-9.77h.02C2.09 43.5 52.93 55.7 115.5 55.7z"/><path fill="#000" d="M2 28.34l-.5 9.6.28.3c13.42 14.4 50.56 21.72 111.35 21.87H115c61.9 0 100-7.32 114.2-21.88l.3-.3-.5-9.58h1l.5 9.96-.13.14C216.24 53.58 177.81 61.09 115 61.09c-62.18 0-100.15-7.37-113.97-22.2l-.4-.45-.13-.14.5-9.95h1z"/><path fill="#000" d="M16.04 47.97c19.01 40.62 42.81 72.49 71.4 95.6l1.03.83 11 69.39.06.05c3.17 2.33 8.47 3.25 15.84 2.7l.53-.03c4.86-.95 8.74-2.85 9.65-4.63l.03-.06c.2-.53.72-3.24 1.59-8.22l4.38-25.51.72-4.14 1.1-6.13c2.43-13.42 4.14-21.34 5.18-23.38l.1-.19c.57-.95 1.9-2.31 4.7-4.84l5.57-5c2.1-1.9 4.18-3.8 6.24-5.72a265.76 265.76 0 0032.41-36.03 243.07 243.07 0 0026.3-44.47c1.02-.62 1.5-.9 1.49-.85a244.07 244.07 0 01-26.98 45.9 266.77 266.77 0 01-32.53 36.15 387.87 387.87 0 01-4.78 4.4l-6.47 5.81c-3.25 2.94-4.71 4.41-5.15 5.28l-.08.16c-1.12 2.46-3.12 12.14-5.94 28.1l-.71 4.05-4.55 26.51c-.98 5.58-1.49 8.16-1.72 8.62-1.1 2.13-5.21 4.14-10.4 5.15-7.94.65-13.65-.29-17.13-2.86l-.23-.17-.15-.12-11-69.4-.74-.6c-28.7-23.2-52.6-55.2-71.67-95.95l-.59-1.25c.87.29 1.37.57 1.5.85z"/><path fill="#C53030" d="M40 55.71C56.67 98.07 78.33 130 105 151.5c5.31.65 10.69.65 16 0-19-31.28-23-65.49-23-90.9-21.33 0-40.67-1.63-58-4.89z" opacity=".5"/><path fill="#9C2B2B" d="M95 148.57c7.33 2.6 14.33 3.58 21 2.93-2 18.25-3 39.75-3 64.51-3.33.65-6.33.65-9 0-4.67-29.97-7.67-52.45-9-67.44z" opacity=".5"/></g><mask id="b" fill="#fff"><use xlink:href="#a"/></mask><path fill="#FAF088" fill-rule="nonzero" stroke="#000" d="M185.62 8.4a7.03 7.03 0 00-1.1-2.16c-.5-.62-1.05-.89-1.58-.89s-1.08.26-1.58.88c-.4.49-.77 1.2-1.09 2.16l-2.13 6.4-6.82.02a7.1 7.1 0 00-2.4.36c-.76.28-1.18.72-1.34 1.21-.16.5-.08 1.1.37 1.78.34.52.92 1.1 1.73 1.7l5.55 4.08-2.06 6.4c-.3.97-.42 1.76-.38 2.39.04.8.33 1.33.76 1.64.42.31 1.03.42 1.8.21.6-.16 1.33-.51 2.16-1.1l5.53-3.93 5.58 3.99c.83.59 1.56.95 2.17 1.11.77.21 1.37.11 1.8-.2.43-.3.71-.84.75-1.64.03-.62-.1-1.42-.4-2.38l-2.08-6.45 5.46-4a6.93 6.93 0 001.72-1.69c.44-.67.52-1.27.36-1.77-.17-.5-.6-.94-1.35-1.22a7.13 7.13 0 00-2.4-.38l-6.77-.1-2.26-6.42h0z" mask="url(#b)" transform="rotate(-12 182.99 20.059)"/><mask id="d" fill="#fff"><use xlink:href="#c"/></mask><path fill="#FAF088" fill-rule="nonzero" stroke="#000" d="M234.88 96.07a13.22 13.22 0 00-2.1-4.1c-.9-1.08-1.85-1.57-2.78-1.57-.93 0-1.89.5-2.78 1.57-.76.92-1.48 2.29-2.1 4.1l-4.45 12.98-14.02.13c-1.95.02-3.5.26-4.63.69-1.33.5-2.1 1.23-2.39 2.1-.29.87-.1 1.92.67 3.09.66 1 1.76 2.08 3.34 3.22l11.35 8.22-4.3 12.97a13.09 13.09 0 00-.77 4.54c.08 1.39.56 2.34 1.31 2.88.76.53 1.83.68 3.19.33 1.17-.31 2.57-1 4.16-2.11l11.42-8.03 11.4 8.03c1.6 1.1 3 1.8 4.18 2.1 1.36.36 2.43.21 3.18-.32.76-.54 1.24-1.5 1.31-2.88.06-1.19-.17-2.7-.76-4.53l-4.2-13.04 11.25-8.16a13.5 13.5 0 003.34-3.22c.78-1.17.96-2.22.67-3.09-.3-.87-1.07-1.6-2.39-2.1a13.91 13.91 0 00-4.64-.7l-13.9-.11-4.56-13h0z" mask="url(#d)"/><mask id="f" fill="#fff"><use xlink:href="#e"/></mask><path fill="#FAF088" fill-rule="nonzero" stroke="#000" d="M316.75 19.68a8.16 8.16 0 00-1.32-2.56c-.59-.71-1.23-1.02-1.85-1.02-.62 0-1.26.32-1.86 1.03a8.38 8.38 0 00-1.35 2.58l-2.73 7.83-8.5.11c-1.23.02-2.21.18-2.92.45-.89.33-1.4.84-1.6 1.41-.19.58-.09 1.28.43 2.06.42.62 1.1 1.3 2.1 2.01l6.85 4.9-2.65 7.81a8.17 8.17 0 00-.5 2.85c.05.93.38 1.55.9 1.91.5.35 1.2.46 2.1.22.75-.2 1.64-.63 2.64-1.33l6.95-4.86 6.9 4.8c1 .68 1.88 1.1 2.62 1.3.9.23 1.61.11 2.12-.24.5-.36.84-.99.9-1.9.03-.75-.1-1.7-.47-2.85L323 38.37l6.85-4.95c1-.72 1.69-1.4 2.11-2.03.53-.78.63-1.48.44-2.06-.19-.57-.7-1.07-1.58-1.4a8.77 8.77 0 00-2.92-.42l-8.42-.03-2.73-7.8z" mask="url(#f)" transform="rotate(13 313.512 33.75)"/><mask id="h" fill="#fff"><use xlink:href="#g"/></mask><path fill="#FAF088" fill-rule="nonzero" stroke="#000" d="M121.04 12.24a9.08 9.08 0 00-1.46-2.84c-.64-.77-1.33-1.12-2.01-1.11-.68 0-1.37.35-2.02 1.13a9.23 9.23 0 00-1.48 2.85l-3.03 8.75-9.46.12c-1.36.01-2.44.2-3.23.49-.96.36-1.51.9-1.72 1.53-.22.64-.1 1.4.46 2.24a9.25 9.25 0 002.32 2.23l7.63 5.5-2.94 8.74a9.07 9.07 0 00-.54 3.15c.05 1 .4 1.69.96 2.08.54.38 1.31.5 2.3.24.82-.22 1.8-.7 2.9-1.47l7.73-5.44 7.68 5.37a9.48 9.48 0 002.9 1.45c.98.26 1.75.14 2.3-.25.55-.4.9-1.08.96-2.08a8.99 8.99 0 00-.51-3.15l-2.8-8.75 7.61-5.52a9.46 9.46 0 002.33-2.25c.57-.85.7-1.61.48-2.24-.2-.63-.76-1.17-1.72-1.53a9.68 9.68 0 00-3.22-.47l-9.37-.04-3.05-8.73h0z" mask="url(#h)" transform="rotate(10 117.512 27.88)"/><mask id="j" fill="#fff"><use xlink:href="#i"/></mask><path fill="#FAF088" fill-rule="nonzero" stroke="#000" d="M164 50.33c.93 0 1.89.5 2.77 1.56.77.93 1.49 2.3 2.1 4.1l4.58 13 13.9.12c1.95.01 3.5.26 4.63.69 1.32.49 2.1 1.23 2.39 2.1.29.87.1 1.92-.67 3.08a13.5 13.5 0 01-3.34 3.23l-11.25 8.16 4.2 13.03c.59 1.83.82 3.35.76 4.54-.07 1.38-.55 2.33-1.31 2.87-.75.54-1.82.69-3.18.33-1.17-.3-2.58-1-4.17-2.1L164 97l-11.42 8.02c-1.59 1.11-3 1.8-4.16 2.11-1.36.36-2.43.2-3.19-.33-.75-.54-1.23-1.49-1.3-2.87-.07-1.19.17-2.7.76-4.54l4.3-12.98-11.35-8.21a13.52 13.52 0 01-3.34-3.23c-.78-1.16-.96-2.2-.67-3.08.3-.87 1.06-1.61 2.39-2.1a13.9 13.9 0 014.63-.7l14.02-.12L159.1 56a13.26 13.26 0 012.11-4.1c.9-1.08 1.85-1.57 2.78-1.57h0zm.5 5.66v36.57l8.56 6.02c2.37 1.59 4.1 2.74 5.27 3.38.46.25.82.42 1.39.32 0-.28-.06-.66-.18-1.13-.3-1.27-.97-3.17-1.9-5.8l-3.34-10.38 8.95-6.5c2.24-1.62 3.88-2.82 4.88-3.7.59-.5 1.06-.85.9-1.17a3.6 3.6 0 00-.97-.22c-1.13-.13-2.9-.15-5.35-.15h-1.2l-11.05-.1-3.63-10.33c-.9-2.89-1.56-4.98-2.1-6.29a8.2 8.2 0 00-.23-.52h0z" mask="url(#j)" transform="rotate(-48 164 78.831)"/><mask id="l" fill="#fff"><use xlink:href="#k"/></mask><path fill="#FAF088" fill-rule="nonzero" stroke="#000" d="M302 66.94c.93 0 1.89.5 2.77 1.57.77.92 1.49 2.29 2.1 4.1l4.58 12.99 13.9.12c1.95.02 3.5.27 4.63.7 1.32.48 2.1 1.22 2.39 2.1.29.87.1 1.91-.67 3.08a13.5 13.5 0 01-3.34 3.22L317.11 103l4.2 13.03c.59 1.83.82 3.35.76 4.53-.07 1.39-.55 2.34-1.31 2.88-.75.53-1.82.68-3.18.33-1.17-.31-2.58-1-4.17-2.11L302 113.62l-11.42 8.03c-1.59 1.11-3 1.8-4.16 2.1-1.36.36-2.43.21-3.19-.32-.75-.54-1.23-1.5-1.3-2.88-.07-1.18.17-2.7.76-4.54l4.3-12.97-11.35-8.22a13.52 13.52 0 01-3.34-3.22c-.78-1.17-.96-2.21-.67-3.09.3-.87 1.07-1.6 2.39-2.1a13.9 13.9 0 014.63-.69l14.02-.13 4.44-12.98a13.26 13.26 0 012.11-4.1c.9-1.07 1.85-1.57 2.78-1.57h0zm.5 5.67v36.57l8.56 6.02a80.7 80.7 0 005.27 3.38c.46.24.82.41 1.39.32 0-.28-.06-.66-.17-1.14-.31-1.26-.98-3.17-1.9-5.8l-3.35-10.38 8.96-6.5c2.25-1.63 3.9-2.83 4.9-3.7.56-.5 1.04-.85.86-1.18-.24-.1-.58-.16-1.03-.2a58.77 58.77 0 00-5.57-.16h-.92l-11.04-.1-3.63-10.32c-.9-2.9-1.55-4.99-2.1-6.3a8.2 8.2 0 00-.23-.51h0z" mask="url(#l)" transform="rotate(7 302 95.447)"/><mask id="n" fill="#fff"><use xlink:href="#m"/></mask><path fill="#FAF088" fill-rule="nonzero" stroke="#000" d="M398.5 3.41c.62 0 1.26.31 1.86 1.03.48.57.94 1.43 1.33 2.56l2.77 7.8 8.44.08c1.23.01 2.2.17 2.92.43.89.33 1.4.83 1.59 1.4.2.59.09 1.29-.43 2.06a8.47 8.47 0 01-2.11 2.02l-6.83 4.9 2.55 7.83c.37 1.14.52 2.1.48 2.84-.05.92-.38 1.55-.9 1.9-.5.36-1.2.47-2.11.23a8.7 8.7 0 01-2.63-1.31l-6.93-4.83-6.93 4.83a8.7 8.7 0 01-2.63 1.31c-.91.24-1.62.13-2.12-.23-.5-.35-.84-.98-.9-1.9-.03-.74.12-1.7.49-2.84l2.6-7.8-6.88-4.93c-1-.7-1.69-1.4-2.1-2.02-.53-.78-.63-1.47-.44-2.05.2-.58.7-1.08 1.59-1.4.71-.27 1.69-.43 2.92-.44l8.5-.08 2.7-7.8c.4-1.13.86-1.99 1.34-2.57.6-.7 1.24-1.02 1.86-1.02h0zm0 4.25v21.17l5.26 3.6c1.47.95 2.54 1.65 3.27 2.04.16.08.3.12.49-.27-.19-.76-.6-1.92-1.18-3.5l-2.13-6.45 5.7-4.03c1.75-1.24 3.28-2.05 3.14-2.73-.65-.08-1.69-.1-3.12-.1h-1l-7.02-.06-2.32-6.4c-.44-1.4-.8-2.48-1.08-3.27h0z" mask="url(#n)" transform="rotate(24 398.5 21.015)"/><mask id="p" fill="#fff"><use xlink:href="#o"/></mask><path fill="#FAF088" fill-rule="nonzero" stroke="#000" d="M238.5 22.96c.84 0 1.7.44 2.5 1.41.67.83 1.31 2.05 1.87 3.67l4.02 11.52 12.23.11c1.74.02 3.11.24 4.12.62 1.19.45 1.88 1.12 2.14 1.9.26.8.1 1.74-.6 2.8-.58.88-1.56 1.86-2.96 2.88l-9.9 7.24 3.7 11.57c.51 1.63.72 2.99.67 4.05-.07 1.25-.5 2.11-1.18 2.6-.68.48-1.64.63-2.86.3a12.14 12.14 0 01-3.7-1.88l-10.05-7.12-10.05 7.12c-1.41.99-2.66 1.6-3.7 1.88-1.22.33-2.18.19-2.86-.3-.68-.49-1.11-1.35-1.18-2.6-.06-1.06.15-2.42.68-4.06l3.79-11.51-10-7.29c-1.4-1.02-2.38-2-2.97-2.88-.7-1.06-.85-2-.6-2.8.27-.78.96-1.45 2.15-1.9 1-.38 2.38-.6 4.12-.62l12.34-.1 3.91-11.52c.55-1.63 1.2-2.85 1.87-3.68.8-.97 1.66-1.41 2.5-1.41h0zm-.09 5.05c-.15.22-.32.55-.5.99a78.62 78.62 0 00-1.84 5.6l-3.11 9.23-9.8.1h-1.27c-1.87 0-3.27.01-4.23.1-.44.05-.78.1-1.07.36.14.21.38.46.7.75.88.79 2.34 1.87 4.36 3.36l7.95 5.84-3.02 9.24c-.8 2.35-1.39 4.04-1.66 5.17-.1.42-.15.75.02 1.1.25-.07.56-.22.95-.43 1.04-.58 2.55-1.6 4.63-3.02l7.98-5.7 7.99 5.7c2.07 1.42 3.58 2.44 4.61 3.02.4.21.71.36 1.13.33 0-.25-.05-.58-.15-1-.27-1.13-.86-2.83-1.67-5.16l-2.94-9.29 7.88-5.8c3.2-2.37 5.2-3.6 5.1-4.25a2.82 2.82 0 00-.77-.18c-.94-.12-2.41-.14-4.45-.15h-1.38l-9.73-.09-3.2-9.23c-.79-2.58-1.36-4.44-1.83-5.6-.18-.44-.35-.77-.68-1v.01z" mask="url(#p)"/><mask id="r" fill="#fff"><use xlink:href="#q"/></mask><path fill="#FAF088" fill-rule="nonzero" stroke="#000" d="M366.5 41.53c.84 0 1.7.44 2.5 1.41.67.83 1.32 2.05 1.87 3.67l4.02 11.52 12.23.11c1.74.02 3.11.24 4.12.62 1.19.45 1.88 1.12 2.14 1.9.26.8.1 1.74-.6 2.8a12 12 0 01-2.96 2.88l-9.9 7.24 3.7 11.57c.51 1.63.72 2.99.67 4.05-.07 1.25-.5 2.11-1.18 2.6-.68.49-1.64.63-2.86.3a12.14 12.14 0 01-3.7-1.88L366.5 83.2l-10.05 7.12c-1.41.99-2.66 1.6-3.7 1.88-1.22.33-2.18.19-2.86-.3-.68-.49-1.11-1.35-1.18-2.6-.06-1.06.15-2.42.68-4.06l3.79-11.51-10-7.29c-1.4-1.02-2.38-2-2.97-2.88-.7-1.06-.85-2-.6-2.8.27-.78.96-1.45 2.15-1.9 1-.38 2.38-.6 4.12-.62l12.34-.1 3.91-11.52c.55-1.63 1.2-2.85 1.87-3.68.8-.97 1.66-1.41 2.5-1.41h0zm-.09 5.05c-.15.22-.32.55-.5.99a78.62 78.62 0 00-1.84 5.6l-3.11 9.23-9.8.1h-1.27c-1.87 0-3.27.01-4.23.1-.44.05-.78.1-1.07.36.14.21.38.46.7.75.88.79 2.34 1.87 4.36 3.36l7.95 5.84-3.02 9.25c-.8 2.34-1.39 4.03-1.66 5.16-.1.42-.15.75.02 1.1.25-.07.56-.22.95-.43 1.04-.57 2.55-1.6 4.63-3.02l7.98-5.7 7.99 5.7c2.07 1.42 3.58 2.45 4.62 3.02.39.21.7.36 1.12.33 0-.25-.05-.58-.15-1-.27-1.13-.86-2.82-1.67-5.16l-2.94-9.29 7.88-5.8c3.2-2.37 5.2-3.6 5.1-4.25a2.82 2.82 0 00-.77-.18c-.94-.12-2.41-.14-4.45-.15h-1.38l-9.73-.08-3.2-9.24c-.79-2.57-1.36-4.44-1.83-5.6-.18-.44-.35-.77-.68-.99h0z" mask="url(#r)" transform="rotate(40 366.5 66.953)"/></g><path fill="#FFF" fill-rule="nonzero" d="M263.4 156l-1.64-4.27h-8.42L251.7 156h-1.34l6.53-16.8h1.34l6.5 16.8h-1.34zm-9.58-5.47h7.48l-3.74-9.77-3.74 9.77zm24.9 5.73c-3.14 0-5.37-1.58-6.14-3.96l1.1-.64c.58 2.01 2.29 3.38 5.05 3.38 2.8 0 4.22-1.44 4.22-3.36 0-2.02-1.77-2.78-4.34-3.6-2.81-.91-5.33-1.7-5.33-4.63 0-2.76 2.23-4.51 5.09-4.51a5.64 5.64 0 015.4 3.52l-1.08.6a4.42 4.42 0 00-4.32-2.9c-2.33 0-3.8 1.37-3.8 3.24 0 2.02 1.71 2.64 4.11 3.43 2.98.99 5.57 1.92 5.57 4.83 0 2.78-2.19 4.6-5.52 4.6zm9-15.16a.96.96 0 01-.95-.96c0-.5.43-.94.96-.94s.96.43.96.94c0 .52-.43.96-.96.96zm-.6 14.9v-12h1.2v12h-1.2zm11.05-10.82h-3.58v7.8c0 2.1 1.13 2.16 3.58 1.94V156c-3.15.48-4.8-.29-4.8-3.02v-7.8h-2.64V144h2.64v-3l1.22-.36V144h3.58v1.18zm7.56-1.44c3.65 0 5.93 3.02 5.93 6.3 0 .2-.03.4-.03.58h-10.87a4.88 4.88 0 005.09 4.5c1.97 0 3.45-.92 4.15-2.2l1.06.63a5.91 5.91 0 01-5.24 2.71 6.06 6.06 0 01-6.3-6.26 6.05 6.05 0 016.2-6.26zm0 1.15a4.84 4.84 0 00-4.97 4.56h9.65c-.27-2.93-2.33-4.56-4.68-4.56zM331.72 156l-4.03-6.89h-5.3V156h-1.28v-16.8h6.63a4.96 4.96 0 011.27 9.74l4.17 7.06h-1.46zm-9.34-15.6v7.51h5.36c2.04 0 3.7-1.68 3.7-3.74a3.73 3.73 0 00-3.7-3.77h-5.36zm18 3.34c3.65 0 5.93 3.02 5.93 6.3 0 .2-.02.4-.02.58h-10.87a4.88 4.88 0 005.08 4.5c1.97 0 3.46-.92 4.16-2.2l1.05.63a5.91 5.91 0 01-5.23 2.71 6.06 6.06 0 01-6.31-6.26 6.05 6.05 0 016.21-6.26zm0 1.15a4.84 4.84 0 00-4.96 4.56h9.64c-.26-2.93-2.32-4.56-4.68-4.56zm17.07-.89h1.27l-5.06 12h-1.47l-5.09-12h1.3l4.51 10.75 4.54-10.75zm4.05-2.9a.96.96 0 01-.96-.96.96.96 0 011.92 0c0 .52-.43.96-.96.96zm-.6 14.9v-12h1.2v12h-1.2zm10.3-12.26c3.65 0 5.93 3.02 5.93 6.3 0 .2-.03.4-.03.58h-10.87a4.88 4.88 0 005.09 4.5c1.97 0 3.46-.92 4.15-2.2l1.06.63a5.91 5.91 0 01-5.23 2.71 6.06 6.06 0 01-6.32-6.26 6.05 6.05 0 016.22-6.26zm0 1.15a4.84 4.84 0 00-4.97 4.56h9.65c-.26-2.93-2.33-4.56-4.68-4.56zm22.82-.89h1.28l-3.8 12h-1.32l-3.33-10.22L383.5 156h-1.32l-3.79-12h1.27l3.2 10.44 3.35-10.44h1.25l3.36 10.44 3.2-10.44zm4.01 3.14c0 3.22 7.27 1.32 7.27 5.72 0 1.96-1.72 3.4-4.3 3.4-2.4 0-3.98-1.12-4.55-2.66l1.03-.6c.43 1.3 1.73 2.11 3.53 2.11 1.68 0 3.1-.74 3.1-2.25 0-3.27-7.28-1.4-7.28-5.72 0-1.9 1.63-3.4 4.08-3.4 1.95 0 3.43.93 4.08 2.4l-1 .57c-.51-1.25-1.76-1.82-3.08-1.82-1.56 0-2.88.81-2.88 2.25zm27.15-3.14h1.22v12h-1.22v-2.71a5.77 5.77 0 01-5.16 2.97 6.2 6.2 0 01-6.22-6.26 6.2 6.2 0 016.22-6.26c2.3 0 4.15 1.17 5.16 2.97V144zm-5.07 11.11a5.03 5.03 0 005.07-5.11c0-2.86-2.21-5.11-5.07-5.11a5.05 5.05 0 00-5.09 5.11 5.05 5.05 0 005.1 5.11zm20.57-15.91h1.2V156h-1.2v-2.78a5.69 5.69 0 01-5.16 3.04 6.18 6.18 0 01-6.22-6.26 6.18 6.18 0 016.22-6.26c2.33 0 4.18 1.2 5.16 3.04v-7.58zm-5.09 15.91a5.05 5.05 0 005.09-5.11 5.05 5.05 0 00-5.09-5.11 5.05 5.05 0 00-5.09 5.11 5.05 5.05 0 005.1 5.11zm20.57-15.91h1.2V156h-1.2v-2.78a5.69 5.69 0 01-5.16 3.04 6.18 6.18 0 01-6.22-6.26 6.18 6.18 0 016.22-6.26c2.33 0 4.18 1.2 5.16 3.04v-7.58zm-5.09 15.91a5.05 5.05 0 005.09-5.11 5.05 5.05 0 00-5.09-5.11 5.05 5.05 0 00-5.09 5.11 5.05 5.05 0 005.1 5.11zm10.23-5.95v-1.15h8.64v1.15h-8.64zm18.04 7.1a6.22 6.22 0 01-6.3-6.26c0-3.55 2.8-6.26 6.3-6.26a6.21 6.21 0 016.3 6.26c0 3.55-2.82 6.26-6.3 6.26zm0-1.15a5.03 5.03 0 005.07-5.11c0-2.86-2.21-5.11-5.07-5.11a5.05 5.05 0 00-5.08 5.11 5.05 5.05 0 005.08 5.11zm14.67-11.37c2.85 0 4.65 1.9 4.65 4.8V156h-1.22v-7.46c0-2.21-1.27-3.65-3.53-3.65-2.35 0-4.2 1.53-4.2 4.77V156h-1.2v-12h1.2v2.28a4.52 4.52 0 014.3-2.54z" opacity=".75"/></g></svg>
