<svg xmlns="http://www.w3.org/2000/svg" width="500" height="500"><g fill="none" fill-rule="evenodd"><path fill="#2F3336" d="M0 0h500v500H0z"/><path fill="#4282D6" d="M0 0h500v249H0z"/><path fill="#2F3336" d="M260.78 53.58l9.72-9.34a2.18 2.18 0 013.32.35l7.54 11.1 10.6-8.23a2.18 2.18 0 013.26.7l6.33 11.83 11.4-7.09a2.18 2.18 0 013.18 1.04l5.05 12.43 12.08-5.86a2.18 2.18 0 013.05 1.36l3.73 12.9 12.63-4.56a2.18 2.18 0 012.89 1.67l2.36 13.2 13.04-3.2a2.18 2.18 0 012.7 1.96l.97 13.38 13.3-1.83a2.18 2.18 0 012.47 2.23l-.43 13.42 13.41-.44a2.18 2.18 0 012.24 2.48l-1.84 13.3 13.39.97a2.18 2.18 0 011.96 2.7l-3.21 13.03 13.2 2.36a2.18 2.18 0 011.68 2.9l-4.56 12.62 12.9 3.73a2.18 2.18 0 011.35 3.05l-5.85 12.08 12.43 5.06a2.18 2.18 0 011.03 3.17l-7.08 11.4 11.83 6.34a2.18 2.18 0 01.7 3.26l-8.24 10.6 11.1 7.53a2.18 2.18 0 01.36 3.32l-9.26 9.64 9.71 8.2a2.18 2.18 0 010 3.33l-10.25 8.64 9.8 10.2a2.18 2.18 0 01-.35 3.31l-11.11 7.54 8.24 10.6a2.18 2.18 0 01-.7 3.26l-11.83 6.33 7.08 11.4a2.18 2.18 0 01-1.03 3.18l-12.43 5.05 5.85 12.08a2.18 2.18 0 01-1.36 3.05l-12.9 3.73 4.57 12.63a2.18 2.18 0 01-1.67 2.89l-13.21 2.36 3.21 13.04a2.18 2.18 0 01-1.96 2.7l-13.39.97 1.84 13.3a2.18 2.18 0 01-2.24 2.47l-13.41-.43.43 13.41a2.18 2.18 0 01-2.48 2.24l-13.3-1.84-.96 13.39a2.18 2.18 0 01-2.7 1.96l-13.04-3.21-2.36 13.2a2.18 2.18 0 01-2.9 1.68l-12.62-4.56-3.73 12.9a2.18 2.18 0 01-3.05 1.35l-12.08-5.85-5.05 12.43a2.18 2.18 0 01-3.18 1.03l-11.4-7.08-6.33 11.83a2.18 2.18 0 01-3.27.7l-10.6-8.24-7.53 11.1a2.18 2.18 0 01-3.32.36l-10.19-9.8-8.64 10.25a2.18 2.18 0 01-3.34 0l-8.2-9.71-9.63 9.26a2.18 2.18 0 01-3.32-.35l-7.53-11.11-10.6 8.24a2.18 2.18 0 01-3.26-.7l-6.34-11.83-11.4 7.08a2.18 2.18 0 01-3.17-1.03l-5.06-12.43-12.08 5.85a2.18 2.18 0 01-3.05-1.36l-3.73-12.9-12.62 4.57a2.18 2.18 0 01-2.9-1.67l-2.36-13.21-13.03 3.21a2.18 2.18 0 01-2.7-1.96l-.97-13.39-13.3 1.84a2.18 2.18 0 01-2.48-2.24l.44-13.41-13.42.43a2.18 2.18 0 01-2.23-2.48l1.83-13.3-13.38-.96a2.18 2.18 0 01-1.97-2.7l3.22-13.04-13.21-2.36a2.18 2.18 0 01-1.67-2.9l4.56-12.62-12.9-3.73a2.18 2.18 0 01-1.36-3.05l5.86-12.08-12.43-5.05a2.18 2.18 0 01-1.04-3.18l7.09-11.4-11.84-6.33a2.18 2.18 0 01-.69-3.27l8.24-10.6-11.11-7.53a2.18 2.18 0 01-.35-3.32l9.34-9.72-10.8-9.11a2.18 2.18 0 010-3.34l10.27-8.66-8.81-9.17a2.18 2.18 0 01.35-3.32l11.1-7.53-8.23-10.6a2.18 2.18 0 01.7-3.26l11.83-6.34-7.09-11.4a2.18 2.18 0 011.04-3.17l12.43-5.06-5.86-12.08a2.18 2.18 0 011.36-3.05l12.9-3.73-4.56-12.62a2.18 2.18 0 011.67-2.9l13.2-2.36-3.2-13.03a2.18 2.18 0 011.96-2.7l13.38-.97-1.83-13.3a2.18 2.18 0 012.23-2.48l13.42.44-.44-13.42a2.18 2.18 0 012.48-2.23l13.3 1.83.97-13.38a2.18 2.18 0 012.7-1.97l13.03 3.22 2.36-13.21a2.18 2.18 0 012.9-1.67l12.62 4.56 3.73-12.9a2.18 2.18 0 013.05-1.36l12.08 5.86 5.06-12.43a2.18 2.18 0 013.17-1.04l11.4 7.09 6.34-11.84a2.18 2.18 0 013.26-.69l10.6 8.24 7.53-11.11a2.18 2.18 0 013.32-.35l9.17 8.8 8.66-10.26a2.18 2.18 0 013.34 0l9.11 10.8z"/><path fill="#D65742" d="M259.55 68.67l8.96-8.6a2.01 2.01 0 013.06.31l6.94 10.24 9.76-7.59a2.01 2.01 0 013 .64l5.84 10.9 10.5-6.52a2.01 2.01 0 012.93.95l4.66 11.45 11.13-5.4a2.01 2.01 0 012.8 1.26l3.44 11.88 11.63-4.2a2.01 2.01 0 012.67 1.53l2.18 12.18 12-2.97a2.01 2.01 0 012.49 1.81l.9 12.33 12.24-1.69a2.01 2.01 0 012.29 2.06l-.4 12.36 12.36-.4a2.01 2.01 0 012.05 2.29l-1.69 12.24 12.34.9a2.01 2.01 0 011.8 2.49l-2.96 12 12.17 2.18a2.01 2.01 0 011.54 2.66l-4.2 11.63 11.88 3.44a2.01 2.01 0 011.25 2.81l-5.4 11.13 11.46 4.66a2.01 2.01 0 01.95 2.92l-6.53 10.5 10.9 5.84a2.01 2.01 0 01.65 3l-7.6 9.77 10.24 6.94a2.01 2.01 0 01.32 3.06l-8.53 8.87 8.96 7.55a2.01 2.01 0 010 3.08l-9.45 7.96 9.02 9.39a2.01 2.01 0 01-.32 3.06l-10.23 6.94 7.59 9.76a2.01 2.01 0 01-.64 3l-10.9 5.84 6.52 10.5a2.01 2.01 0 01-.95 2.93l-11.45 4.66 5.39 11.13a2.01 2.01 0 01-1.25 2.8l-11.88 3.44 4.2 11.63a2.01 2.01 0 01-1.54 2.67l-12.17 2.18 2.96 12a2.01 2.01 0 01-1.8 2.49l-12.34.9 1.7 12.24a2.01 2.01 0 01-2.06 2.29l-12.36-.4.4 12.36a2.01 2.01 0 01-2.29 2.05l-12.25-1.69-.9 12.34a2.01 2.01 0 01-2.48 1.8l-12-2.96-2.18 12.17a2.01 2.01 0 01-2.67 1.54l-11.63-4.2-3.43 11.88a2.01 2.01 0 01-2.81 1.25l-11.13-5.4-4.66 11.46a2.01 2.01 0 01-2.93.95l-10.5-6.53-5.83 10.9a2.01 2.01 0 01-3 .65l-9.77-7.6-6.94 10.24a2.01 2.01 0 01-3.06.32l-9.39-9.02-7.96 9.45a2.01 2.01 0 01-3.08 0l-7.55-8.96-8.87 8.53a2.01 2.01 0 01-3.06-.32l-6.94-10.23-9.76 7.59a2.01 2.01 0 01-3.01-.64l-5.83-10.9-10.5 6.52a2.01 2.01 0 01-2.93-.95l-4.66-11.45-11.13 5.39a2.01 2.01 0 01-2.81-1.25l-3.44-11.88-11.63 4.2a2.01 2.01 0 01-2.66-1.54l-2.18-12.17-12 2.96a2.01 2.01 0 01-2.5-1.8l-.89-12.34-12.24 1.7a2.01 2.01 0 01-2.29-2.06l.4-12.36-12.36.4a2.01 2.01 0 01-2.06-2.29l1.7-12.25-12.34-.9a2.01 2.01 0 01-1.8-2.48l2.96-12-12.18-2.18A2.01 2.01 0 0184 344.2l4.2-11.63-11.88-3.43a2.01 2.01 0 01-1.25-2.81l5.39-11.13L69 310.54a2.01 2.01 0 01-.95-2.93l6.52-10.5-10.9-5.83a2.01 2.01 0 01-.64-3l7.59-9.77-10.24-6.94a2.01 2.01 0 01-.32-3.06l8.6-8.96-9.95-8.4a2.01 2.01 0 010-3.07l9.47-7.98-8.12-8.44a2.01 2.01 0 01.32-3.06l10.24-6.94-7.59-9.76a2.01 2.01 0 01.64-3.01l10.9-5.83-6.52-10.5a2.01 2.01 0 01.95-2.93l11.45-4.66-5.4-11.13a2.01 2.01 0 011.26-2.81l11.88-3.44-4.2-11.63a2.01 2.01 0 011.53-2.66l12.18-2.18-2.97-12a2.01 2.01 0 011.81-2.5l12.33-.89-1.69-12.24a2.01 2.01 0 012.06-2.29l12.36.4-.4-12.36a2.01 2.01 0 012.29-2.06l12.24 1.7.9-12.34a2.01 2.01 0 012.49-1.8l12 2.96 2.18-12.18a2.01 2.01 0 012.66-1.53l11.63 4.2 3.44-11.88a2.01 2.01 0 012.81-1.25l11.13 5.39L189.63 69a2.01 2.01 0 012.92-.95l10.5 6.52 5.84-10.9a2.01 2.01 0 013-.64l9.77 7.59 6.94-10.24a2.01 2.01 0 013.06-.32l8.44 8.12 7.98-9.47a2.01 2.01 0 013.08 0l8.4 9.96z"/><path fill="#FFF" fill-rule="nonzero" d="M249.56 409.14c88.14 0 159.58-71.44 159.58-159.58 0-88.13-71.44-159.58-159.58-159.58-88.13 0-159.58 71.45-159.58 159.58 0 88.14 71.45 159.58 159.58 159.58zm.02 12.1c-94.8 0-171.65-76.85-171.65-171.66 0-94.8 76.85-171.65 171.65-171.65 94.8 0 171.66 76.85 171.66 171.65 0 94.8-76.85 171.66-171.66 171.66zm168.34-167.86l-19.61 68.73H100.8l-19.6-68.73h336.71zm-168.3-154a72.81 72.81 0 110 145.64 72.81 72.81 0 010-145.63z"/><path fill="#FFF" fill-rule="nonzero" d="M181.43 359.22c.25 0 .5.19.55.37l3.75 9.73 10.43.55c.24 0 .49.19.55.43.06.25 0 .5-.19.67l-8.1 6.55 2.7 10.04c.07.25 0 .5-.24.68-.18.12-.5.18-.68 0l-8.77-5.63-8.77 5.63c-.12.12-.19.12-.3.12a.87.87 0 01-.38-.12.68.68 0 01-.24-.68l2.7-10.04-8.1-6.55c-.25-.12-.3-.42-.25-.67.07-.24.31-.43.56-.43l10.43-.55 3.74-9.73c.12-.18.37-.37.61-.37zm33.73 0c.24 0 .49.19.55.37l3.74 9.73 10.43.55c.25 0 .5.19.55.43.06.25 0 .5-.18.67l-8.1 6.55 2.7 10.04c.06.25 0 .5-.25.68-.18.12-.49.18-.67 0l-8.77-5.63-8.78 5.63c-.12.12-.18.12-.3.12-.13 0-.25-.06-.37-.12a.68.68 0 01-.25-.68l2.7-10.04-8.1-6.55c-.24-.12-.3-.42-.24-.67.06-.24.3-.43.55-.43l10.43-.55 3.74-9.73c.13-.18.37-.37.62-.37zm33.72 0c.25 0 .5.19.55.37l3.75 9.73 10.42.55c.25 0 .5.19.56.43.06.25 0 .5-.19.67l-8.1 6.55 2.7 10.04c.07.25 0 .5-.24.68-.19.12-.5.18-.68 0l-8.77-5.63-8.77 5.63c-.13.12-.19.12-.3.12-.13 0-.25-.06-.38-.12a.68.68 0 01-.24-.68l2.7-10.04-8.1-6.55c-.25-.12-.3-.42-.25-.67.06-.24.31-.43.56-.43l10.42-.55 3.75-9.73c.12-.18.37-.37.61-.37zm33.73 0c.24 0 .49.19.55.37l3.74 9.73 10.43.55c.24 0 .49.19.55.43.06.25 0 .5-.18.67l-8.1 6.55 2.7 10.04c.06.25 0 .5-.25.68-.18.12-.49.18-.67 0l-8.77-5.63-8.78 5.63c-.12.12-.18.12-.3.12-.13 0-.25-.06-.37-.12a.68.68 0 01-.25-.68l2.7-10.04-8.1-6.55c-.24-.12-.3-.42-.24-.67.06-.24.3-.43.55-.43l10.43-.55 3.74-9.73c.12-.18.37-.37.62-.37zm33.72 0c.25 0 .49.19.55.37l3.74 9.73 10.43.55c.25 0 .5.19.56.43.06.25 0 .5-.19.67l-8.1 6.55 2.7 10.04c.06.25 0 .5-.24.68-.19.12-.5.18-.68 0l-8.77-5.63-8.77 5.63c-.13.12-.19.12-.31.12s-.25-.06-.37-.12a.68.68 0 01-.24-.68l2.7-10.04-8.1-6.55c-.25-.12-.3-.42-.25-.67.06-.24.3-.43.55-.43l10.43-.55 3.75-9.73c.12-.18.36-.37.61-.37z"/><path fill="#FFF" d="M138.24 348.59h-3.91l-5.65-14.67h3.54l4.07 11.26 4.07-11.26h3.54l-5.66 14.67zm10.84.26c-3.23 0-5.68-2.17-5.68-5.58a5.42 5.42 0 015.5-5.57c3.19 0 5.32 2.38 5.32 5.83v.66h-7.9c.2 1.3 1.26 2.38 3.07 2.38.9 0 2.13-.38 2.81-1.04l1.25 1.85a6.62 6.62 0 01-4.37 1.47zm2.46-6.6c-.09-1-.8-2.26-2.64-2.26a2.45 2.45 0 00-2.6 2.27h5.24zm7.71 6.34h-2.8v-10.62h2.8v1.43a4.66 4.66 0 013.39-1.7v2.73c-.2-.04-.44-.07-.77-.07-.92 0-2.16.53-2.62 1.21v7.02zm6.72-11.77c-.9 0-1.65-.74-1.65-1.67 0-.92.75-1.65 1.65-1.65.93 0 1.67.73 1.67 1.65 0 .93-.74 1.67-1.67 1.67zm1.41 11.77h-2.8v-10.62h2.8v10.62zm6.41 0H171v-8.18h-1.76v-2.44H171v-.44c0-2.49 1.52-3.83 3.56-3.83.82 0 1.52.18 2.03.44l-.57 2.07a1.57 1.57 0 00-.9-.22c-.8 0-1.33.5-1.33 1.54v.44h2.16v2.44h-2.16v8.18zm5.15-11.77c-.9 0-1.65-.74-1.65-1.67 0-.92.75-1.65 1.65-1.65.92 0 1.67.73 1.67 1.65 0 .93-.75 1.67-1.67 1.67zm1.4 11.77h-2.79v-10.62h2.8v10.62zm7.98.26c-3.23 0-5.67-2.17-5.67-5.58a5.42 5.42 0 015.5-5.57c3.19 0 5.32 2.38 5.32 5.83v.66h-7.9c.2 1.3 1.26 2.38 3.06 2.38.9 0 2.13-.38 2.82-1.04l1.25 1.85a6.62 6.62 0 01-4.38 1.47zm2.47-6.6c-.1-1-.8-2.26-2.64-2.26a2.45 2.45 0 00-2.6 2.27h5.24zm15.03 6.34H203v-1.36a4.1 4.1 0 01-3.27 1.62c-2.66 0-4.7-2.02-4.7-5.58 0-3.46 2-5.57 4.7-5.57 1.25 0 2.44.53 3.27 1.63v-5.4h2.82v14.66zm-5.21-2.22c.92 0 1.93-.5 2.4-1.21v-3.76a3.03 3.03 0 00-2.4-1.21c-1.6 0-2.7 1.25-2.7 3.08 0 1.84 1.1 3.1 2.7 3.1zm21.1 2.48c-4.45 0-7.68-3.16-7.68-7.58s3.23-7.59 7.67-7.59c4.42 0 7.66 3.17 7.66 7.59s-3.24 7.58-7.66 7.58zm0-2.77c2.7 0 4.44-2.09 4.44-4.81 0-2.75-1.74-4.82-4.45-4.82-2.72 0-4.46 2.07-4.46 4.82 0 2.72 1.74 4.81 4.46 4.81zm19.97 2.5h-2.81v-6.41c0-1.48-.77-1.98-1.96-1.98a3.1 3.1 0 00-2.42 1.23v7.17h-2.79v-10.62h2.8v1.36c.68-.8 2-1.63 3.71-1.63 2.35 0 3.47 1.32 3.47 3.39v7.5zm5.76 0h-2.8v-14.66h2.8v14.67zm4.37-11.76c-.9 0-1.65-.74-1.65-1.67 0-.92.75-1.65 1.65-1.65.92 0 1.67.73 1.67 1.65 0 .93-.75 1.67-1.67 1.67zm1.4 11.77h-2.79v-10.62h2.8v10.62zm12.97 0h-2.81v-6.42c0-1.48-.77-1.98-1.96-1.98a3.1 3.1 0 00-2.42 1.23v7.17h-2.8v-10.62h2.8v1.36c.68-.8 2-1.63 3.72-1.63 2.35 0 3.47 1.32 3.47 3.39v7.5zm7.95.26c-3.23 0-5.67-2.17-5.67-5.58a5.42 5.42 0 015.5-5.57c3.19 0 5.32 2.38 5.32 5.83v.66h-7.9c.2 1.3 1.26 2.38 3.06 2.38.9 0 2.14-.38 2.82-1.04l1.25 1.85a6.62 6.62 0 01-4.38 1.47zm2.47-6.6c-.09-1-.8-2.26-2.64-2.26a2.45 2.45 0 00-2.6 2.27h5.24zm22.74 6.34h-3.6l-2.88-5.21h-2.3v5.2h-3.11v-14.66h6.86c3.05 0 4.94 2 4.94 4.73a4.24 4.24 0 01-3.23 4.35l3.32 5.59zm-5.47-7.96c1.23 0 2.17-.75 2.17-2 0-1.21-.94-1.96-2.17-1.96h-3.3v3.96h3.3zm12.2 8.22c-3.24 0-5.68-2.17-5.68-5.58a5.42 5.42 0 015.5-5.57c3.19 0 5.32 2.38 5.32 5.83v.66h-7.9c.2 1.3 1.26 2.38 3.06 2.38.9 0 2.13-.38 2.82-1.04l1.25 1.85a6.62 6.62 0 01-4.38 1.47zm2.46-6.6c-.1-1-.8-2.26-2.64-2.26a2.45 2.45 0 00-2.6 2.27h5.24zm10.68 6.34h-3.02l-4.26-10.62h2.99l2.77 7.39 2.8-7.4h2.98l-4.26 10.63zm7.11-11.77c-.9 0-1.64-.74-1.64-1.67 0-.92.74-1.65 1.64-1.65.93 0 1.68.73 1.68 1.65 0 .93-.75 1.67-1.68 1.67zm1.41 11.77h-2.8v-10.62h2.8v10.62zm7.98.26c-3.24 0-5.68-2.17-5.68-5.58a5.42 5.42 0 015.5-5.57c3.19 0 5.32 2.38 5.32 5.83v.66h-7.9c.2 1.3 1.26 2.38 3.06 2.38.9 0 2.14-.38 2.82-1.04l1.25 1.85a6.62 6.62 0 01-4.37 1.47zm2.46-6.6c-.09-1-.8-2.26-2.64-2.26a2.45 2.45 0 00-2.6 2.27h5.24zm17.23 6.34h-2.99l-2.24-7.24-2.24 7.24h-3l-3.23-10.62h2.9l1.98 7.14 2.34-7.14h2.48l2.33 7.14 1.98-7.14h2.92l-3.23 10.62zm8.66.26a7.15 7.15 0 01-4.75-1.65l1.2-2.02c.8.75 2.36 1.47 3.68 1.47 1.21 0 1.78-.46 1.78-1.12 0-1.74-6.29-.3-6.29-4.48 0-1.79 1.54-3.35 4.36-3.35 1.78 0 3.2.62 4.26 1.46l-1.12 1.97a4.58 4.58 0 00-3.14-1.23c-1.01 0-1.67.44-1.67 1.04 0 1.56 6.3.24 6.3 4.53 0 1.95-1.66 3.38-4.61 3.38z"/><path fill="#D65742" fill-rule="nonzero" d="M118.19 304.8v-30.26h10.83v-5.52h-27.95v5.52h10.84v30.26h6.28zm20.9 0v-13.36h6.27l7.89 13.36h7.3l-8.8-14.05c4.34-.7 8.52-4.19 8.52-10.52 0-6.65-4.66-11.21-11.75-11.21H132.8v35.78h6.28zm8.63-18.88h-8.64v-11.38h8.64c3.54 0 6.12 2.2 6.12 5.64 0 3.48-2.58 5.74-6.12 5.74zm32.8 19.53c10.41 0 15.5-5.96 15.5-14.81v-21.62h-6.38v21.46c0 5.68-3.16 9.39-9.12 9.39-5.95 0-9.12-3.7-9.12-9.4v-21.45h-6.38v21.62c0 8.85 5.15 14.8 15.5 14.8zm33.88 0c9.6 0 13.84-5.15 13.84-11.11 0-13.3-20.81-9.17-20.81-15.88 0-2.63 2.36-4.45 6-4.45 3.76 0 7.57 1.28 10.41 4.13l3.55-4.67c-3.28-3.22-7.84-5.04-13.36-5.04-7.9 0-13.04 4.56-13.04 10.51 0 13.15 20.82 8.48 20.82 15.99 0 2.41-1.99 4.94-7.14 4.94-4.99 0-8.9-2.36-11.32-5l-3.54 4.89c3.22 3.33 8 5.69 14.6 5.69zm32.32-.65v-30.26h10.84v-5.52h-27.95v5.52h10.84v30.26h6.27zm14.57 0l2.63-6.92h16.41l2.63 6.92h7.14l-14.06-35.78h-7.83l-14.06 35.78h7.14zm17.27-12.45H265.7l6.43-17.06 6.44 17.06zm35.49 12.45v-5.52h-15.77v-30.26H292v35.78h22.05zm13.76 0v-14.86l13.84-20.92h-7.19l-9.82 15.29-9.82-15.3h-7.19l13.9 20.93v14.86h6.28zm41.6 0v-5.52H350.7l18.35-25.22v-5.04h-26.45v5.52h18.24l-18.24 25.17v5.1h26.82zm29.16 0v-5.52h-18.24v-9.98h17.86v-5.53h-17.86v-9.23h18.24v-5.52h-24.52v35.78h24.52z"/><path fill="#D65742" d="M239.65 146.14v82.78h19.93v-82.78h35.26v7.67h-27.6v82.78H232V153.8h-27.6v-7.67h35.26zm68.98-13.8v35.26h-35.25v-7.66h27.59v-19.93h-47.52v82.78h-7.67v-82.78h-47.52v19.93h27.6v7.66H190.6v-35.25h118.03z"/></g></svg>
