<svg xmlns="http://www.w3.org/2000/svg" xmlns:xlink="http://www.w3.org/1999/xlink" width="750" height="500"><defs><path id="a" d="M0 0h396v360H0z"/></defs><g fill="none" fill-rule="evenodd"><path fill="#673AB7" d="M0 0h750v500H0z"/><g transform="translate(177 140)"><mask id="b" fill="#fff"><use xlink:href="#a"/></mask><g mask="url(#b)"><path fill="#38B2AD" d="M63.1 360.04c-4.78-23.34-14.06-89.4-14.06-143-2.61-.27-4.26-.65-4.96-1.16-1.9-1.38-3.52-3.14-5.43-4.5-2.19-1.59-4.67-2.55-7.06-3.75-5.18-2.6-9.94-5.9-14.67-9.22a10.37 10.37 0 01-2.5-2.17c-.14 1.6-.78 4.11-.96 5.71-.9 5.6-8.97 64.29-8.97 69.2 0 2.7-4.48 43.1 2.7 88.9h55.9z"/><path fill="#8A6D62" d="M62.46 78.68c-.21-.44-.5-1-.97-1.28-.71-.44-1.66-.2-2.3.25a7.22 7.22 0 00-1.74 2.1l-8.33 13a65.98 65.98 0 0111.6-4.96c.6-.19 1.21-.36 1.83-.46a10.63 10.63 0 00-.1-8.65z"/><path fill="#FFF" d="M14.48 188.83a5.61 5.61 0 01.1-.48v-.03c-.02.06-.04.12-.06.18-.01.05-.03.12-.04.18a1.5 1.5 0 00-.03.23l.03-.08z"/><path fill="#E6E6E6" d="M95.43 64.72a2.45 2.45 0 00-2.24-1.69c-.88 0-1.76.56-2.14 1.36-.32.67-.33 1.5-.33 2.24l-.03 5.03c-.01 1.57-.02 3.19.55 4.64.36.92 1.18 1.9 2.13 1.9.09 0 .18 0 .26-.02.54-.1 1.04-.54 1.34-1.18.28-.6.37-1.3.45-2.03.3-3.02.36-6.08.17-9.1-.03-.43-.06-.8-.16-1.15z"/><path fill="#F6E05E" d="M82.99 42.7c.48-.5 1.13-.8 1.82-.8 1.33-.02 2.6-.03 3.85-.04 3.32-.02 6.46-.04 10.01-.2 1.39-.07 2.54 1 2.63 2.36.22 3.19.25 6.15.28 9.02.01.86.02 1.72.04 2.58a2.55 2.55 0 01-2.43 2.6c-4.77.17-9.34.3-13.96.4h-.05a2.49 2.49 0 01-2.48-2.4c-.08-1.94-.14-3.92-.2-5.9-.07-1.92-.14-3.85-.21-5.73-.03-.7.22-1.37.7-1.88zm13.18 32.35c-.08.8-.18 1.56-.52 2.28-.4.86-1.1 1.46-1.88 1.6-.13.03-.26.05-.4.05-1.32 0-2.38-1.2-2.84-2.4-.62-1.59-.61-3.36-.6-4.92l.02-5.03c0-.82.01-1.75.41-2.58a3.17 3.17 0 013.04-1.78c1.25.1 2.38 1 2.76 2.22.13.43.16.87.2 1.32.19 3.07.13 6.18-.19 9.24zM67.64 91.3c.07 2.12-1.06 4.34-3.07 6.1l.02 10.76c0 1.2 0 2.4 0 3.6a5.2 5.2 0 01.01 3.25l-.02.05a511.83 511.83 0 00.05 10.87c.04 3.27.09 8.21 2.63 10.4 2.44 2.08 4.91 2.42 8.36 2.3.16-.02 1.07.08 1.3.23a42.69 42.69 0 004.74-2.47c2.05-1.18 4.17-2.4 6.3-3.02 6-1.79 14.96-2.4 20.52 1.78a9.37 9.37 0 011.85 1.94 5.8 5.8 0 011.4-.13c.19 0 .39 0 .59 0 1.57.02 3.54.05 4.9-.62 2.5-1.24 2.3-4.9 2.17-7.33l-.01-.21c-.23-4.44-.18-9-.12-13.4v-.08c0-.07.03-.14.07-.2-.14-4 .06-40.64.06-40.83v-.42c-.09-12.09-.18-24.59-1.1-36.79-.02-.1-.03-.2-.04-.29-.42-3.67-3.28-4.4-8.06-4.4-7.9-.03-15.93.3-23.7.63-4.6.2-9.35.4-14.03.52-2.2.06-5.02.6-6.4 1.71-2.47 1.99-2.35 4.9-2.24 7.73.02.42.03.84.04 1.25.09 4 .23 8.07.43 12.07.24 4.82.24 9.68.24 14.38 0 .87 0 1.75 0 2.63l.03 14c.49.08.96.26 1.4.57a4.3 4.3 0 011.68 3.42z"/><path fill="#8A6D62" d="M62.14 99.12a49.39 49.39 0 01-2.98 1.6 9.45 9.45 0 00-1.79 2.09 37.44 37.44 0 00-3.83 7.29 208.08 208.08 0 016.45-1.03 21.9 21.9 0 012.15-9.95z"/><path fill="#FFF" d="M48.25 208.79v.01l.05-.02c-.04-.05-.09-.1-.14-.14v.05c.03.02.06.05.09.1z"/><path fill="#8A6D62" d="M57.11 101.84c-.13.08-.27.16-.4.24a83.4 83.4 0 00-11.67 9.2c-.36.34-.69.75-1.03 1.19l-.05.06a60.12 60.12 0 018.7-2.27 38.22 38.22 0 014.45-8.42z"/><path fill="#4B5668" d="M85.84 50.29c.04-.67.2-1.31.37-1.97a4.59 4.59 0 012.1-3.07 6.33 6.33 0 013.5-1.13c1.28 0 3.16.35 4.28 1.34a6.34 6.34 0 012.1 4.14c.04.4.03.8-.02 1.2-.27 2.15-1.3 3.81-2.9 4.67-.86.46-2 .72-3.2.72-1.46 0-2.9-.37-3.94-1.02a5.36 5.36 0 01-2.3-4.88zm-.81 4.8c.03.82.69 1.47 1.5 1.47v.19l.04-.2c3.74-.07 7.43-.18 11.28-.32.84-.03 1.5-.74 1.49-1.59-.01-.7-.02-1.4-.03-2.1-.03-2.3-.05-4.7-.23-7.26a1.55 1.55 0 00-1.53-1.45h-.07c-2.89.14-5.43.15-8.13.17-1 .01-2.03.02-3.1.03a1.58 1.58 0 00-1.55 1.65c.06 1.52.1 3.08.16 4.63.05 1.6.1 3.21.17 4.78z"/><path fill="#FFF" d="M84.85 44.26c.36-.39.86-.6 1.4-.61 1.06-.02 2.1-.03 3.1-.03 2.69-.02 5.23-.04 8.11-.17a1.92 1.92 0 012 1.8c.18 2.57.2 4.97.23 7.3.01.69.02 1.38.03 2.08a1.95 1.95 0 01-1.85 1.98c-3.86.15-7.56.25-11.3.33h-.04a1.9 1.9 0 01-1.89-1.83c-.06-1.57-.11-3.18-.16-4.78a748 748 0 00-.17-4.63c-.02-.54.17-1.05.54-1.44zm-1.39 11.92c.04.94.8 1.67 1.72 1.67h.04c4.61-.1 9.18-.23 13.94-.4.95-.04 1.71-.85 1.7-1.81-.02-.87-.03-1.73-.04-2.59a156.6 156.6 0 00-.28-8.97 1.77 1.77 0 00-1.75-1.65h-.08c-3.57.16-6.71.18-10.04.2-1.25.02-2.52.03-3.85.04a1.81 1.81 0 00-1.77 1.89c.08 1.88.14 3.81.2 5.74.07 1.97.13 3.95.21 5.88zM63.85 87.23V85.9c-.12.45-.26.9-.43 1.34.14 0 .29 0 .43 0z"/><path fill="#8A6D62" d="M43.41 111.98c.04-.04.07-.08.1-.13-.03 0-.08 0-.12 0-.93 0-1.86-.25-2.64-.74a.39.39 0 01-.13-.53.38.38 0 01.52-.13c.88.54 1.96.75 2.97.57.04 0 .07 0 .1 0a92.85 92.85 0 018.52-7.14 6.12 6.12 0 01-1.74-1.53.39.39 0 01.07-.55c.16-.13.4-.1.53.07a5.35 5.35 0 001.83 1.51c.98-.7 1.94-1.35 2.88-1.95.78-.5 1.6-.94 2.41-1.36.07-.05.13-.1.2-.15a.37.37 0 01.24-.07c.08-.04.16-.09.25-.13a29.79 29.79 0 003.75-2.16c2.4-1.71 3.8-4.04 3.72-6.22a3.53 3.53 0 00-1.34-2.82c-.72-.5-1.6-.58-2.52-.48-.1.08-.22.1-.34.05-.58.1-1.17.26-1.72.44a67.86 67.86 0 00-26.65 16.1 20.97 20.97 0 00-3.89 4.75c-1.02 1.86-1.55 3.97-2.06 6.02-.6 2.39-1.4 4.83-2.18 7.2-.62 1.87-1.24 3.78-1.77 5.66.24-.27.49-.53.73-.8l4.25-4.65c1.68-1.85 3.42-3.75 5.41-5.35a29.6 29.6 0 017.66-4.37c.33-.32.64-.7.96-1.1z"/><path fill="#8A6D62" d="M25.4 144.63c.05-.21.25-.34.46-.29 3.94.97 8.18.63 11.92-.97.2-.08.42.01.5.2.08.2 0 .43-.2.51a19.74 19.74 0 01-12.4 1.01.39.39 0 01-.28-.46zm-6.43 48.56c1.6.98 3.2 1.95 4.78 2.95a106.7 106.7 0 019.28 6.32c1.4 1.09 2.7 2.35 4.18 3.33 1.51 1 3.19 1.66 4.76 2.56a24.86 24.86 0 014.98 3.64c.18-1.46.37-2.93.59-4.38.5-3.43.82-7.07 2.2-10.28a21.38 21.38 0 015.58-7.6c4.7-4.13 8.6-8.07 11.94-12.06a141.2 141.2 0 0013.63-19.84c3.5-6.02 10.52-11.12 18.78-13.62a25.26 25.26 0 016.66-1.1c1.13-.04 2.3-.08 3.29-.57.8-.4 1.23-.96 1.3-1.72.16-1.75-1.58-4.05-2.9-5.04-5.33-4-14.02-3.4-19.85-1.66-2.04.6-4.12 1.8-6.13 2.95-4.55 2.61-9.25 5.31-14.3 2.02a12.8 12.8 0 01-3.44-3.31c0 .15-.07.29-.21.36a15.1 15.1 0 00-8.26 12.34.38.38 0 01-.38.36h-.03a.38.38 0 01-.35-.41 15.68 15.68 0 018.69-13c.1-.04.2-.04.3 0a18.56 18.56 0 01-2.46-5.64 32.3 32.3 0 01-.81-10.58 32.06 32.06 0 01-6.92 2.55c-.29.08-.58.16-.87.24.18.84.31 1.7.37 2.56.01.21-.15.4-.36.41H53a.38.38 0 01-.38-.36c-.06-.8-.17-1.6-.35-2.4-2.66.78-5.14 1.68-7.1 3.52-.82.77-1.55 1.7-2.24 2.61-1.23 1.6-2.5 3.25-4.39 4.1-.2.08-.42 0-.5-.2-.09-.2 0-.43.2-.51 1.7-.77 2.86-2.27 4.09-3.87.71-.93 1.45-1.89 2.32-2.7 2.15-2.01 4.92-2.97 7.7-3.77.04-.02.07-.04.11-.05h.08c.38-.11.76-.22 1.14-.33 2.15-.6 4.38-1.2 6.33-2.24 1.4-.74 3.2-2.04 3.88-4 .56-1.67.03-3.94-1.66-4.68-1.03-.45-2.3-.25-3.33-.1-5.18.82-10.82 1.7-15.98 3.73l-.02.02a.38.38 0 01-.28.1 28.8 28.8 0 00-7.35 4.22 49.3 49.3 0 00-5.32 5.27L25.69 128c-3.23 3.52-6.56 7.17-6.61 15.68.87 7.2 1.7 14.43 1.59 21.69a68.34 68.34 0 01-.66 8.6c-.4 2.76-.86 5.68-2.03 8.23-1.3 2.81-1.53 6.22-1.7 9.3a186.1 186.1 0 002.68 1.69z"/><path fill="#38B2AD" d="M46.58 212.7a36.87 36.87 0 00-7.42-4.9c-2.27-1.14-4.04-2.74-6.03-4.31-4.96-3.9-10.37-7.11-15.68-10.48-1.01-.64-2.59-1.54-3.29-2.78-.25 1.62-.3 3.4.17 4.6.83 2.16 3.4 3.38 5.19 4.61 3.43 2.36 6.9 4.66 10.6 6.6 3.33 1.75 7 2.99 9.93 5.45 1.46 1.23 2.83 2.64 4.43 3.7 1 .66 4.3 2.89 4.76-.01.1-.62.11-1.23.07-1.84-.83.4-2.16-.15-2.73-.63z"/><path fill="#4FD2C5" d="M35.46 209.5c-1.04 9.12-3.03 18.13-4.16 27.25.85 2.11 1.72 4.24 2.66 6.34.73-5.1 1.3-10.22 1.76-15.35.5-5.72.67-11.56 1.56-17.26-.6-.35-1.2-.68-1.82-.99zm5.28 3.56c-.7 5.33-.84 10.77-1.34 16.1a282.23 282.23 0 01-2.54 19.87 98.17 98.17 0 002.22 3.94c.07-1.27.13-2.55.22-3.82.32-4.96 1.11-9.7 2.06-14.56 1.23-6.38 1.38-12.88 1.9-19.34-.87-.7-1.69-1.45-2.52-2.19zm5.92 146.98c.01-.75-.76-3.59-.9-4.49-.3-1.93-.5-3.7-.76-7.18-.18-.6-.83-17.56-.26-35.02.44-13.34.66-28.19 1.02-34.11.05-.9.4-16.3.9-27.07.2-4.26.8-7.96.9-9.92.01-.33-.36-12.57 0-19.58.05-1.2.83-2.95.9-3.64.04-.51.36-1.81.4-1.92l-2.2.15a201.03 201.03 0 00-2.2 15.4c-.15 1.42 0 2.7 0 5.28 0 2.69-1.17 8.55-1.23 8.97-1.06 8.7-.07 10.16 0 19.83.05 5.54-.07 11.43-.16 12.5-.63 7.47-.95 20.08-1.45 25.81-1 11.75-.15 24.73 0 33.8 0 .8 0 1.61.03 2.41.15 6.28.25 12.52-.03 18.78h5.04z"/><path fill="#4FD2C5" d="M37.84 341.26c-.1-4.3-.8-18.17-.98-22.52 0-14.57 3.52-25.14 2.22-65.87l-2.22-3.85c-1.87 14.31-2.61 69.92-2.95 69.1-.07 6.1.39 12.28.48 18.3.07 4.73.4 9.4.82 14.1.28 3.27.19 6.57.55 9.83h2.12c.29-6.35.1-12.72-.04-19.09zm-6.44 9.25c-.53-4.92-.78-9.88-.83-14.83-.06-8.23.16-15.03.78-24.43.61-9.4.05-13.35.05-21.42 0-5.56 1.06-21.17 1.07-21.37.93-17.56 1.61-26.09 1.63-26.2.8-6.81 1.33-11.53 1.58-14.17.27-2.78.39-5.2.54-7.21.56-7.3.89-9.64 1.06-10.5l-1.8-1c-.31 2.79-2.06 13.21-3.18 20.47a138 138 0 00-.95 7.3c-.25 5.4-2.42 26.72-3.28 44.78-.58 12.18 0 24 0 24.17-.06 1.44-.14 2.88-.2 4.34-.26 6.63-.32 13.32.02 19.95.52 10.05 1.87 20 3.25 29.96h.83c-.3-3.26-.22-6.55-.57-9.84z"/><path fill="#4FD2C5" d="M24.05 329.63c-.3-6.87-.3-13.8.09-20.66.16-2.94.14-5.8.11-8.74 0-.63 0-1.27.02-1.91 0-.1-.36-14.24 0-22.67.37-8.7 1.49-11.86 2.45-23.35 1.9-22.6 5.14-44.7 5.16-44.9l-2.22-.89c0 .4-2.87 16.79-4.57 35.74-1.14 12.69-2.78 26.03-3.34 36.35-.5 9.47.01 16.47 0 16.71-.36 10.3-.99 20.6-.48 30.87.56 11.46 3.2 22.73 3.82 34.17h2.23c-1.43-10.2-2.83-20.42-3.27-30.72z"/><path fill="#4FD2C5" d="M17.46 326.18a387.2 387.2 0 010-28.04c.17-4.41.12-7.34.17-11.75-.21-.27.1-9.34 1.43-22.18.77-7.42 2.35-17.04 3.37-25.22.87-6.94 1.18-13.4 1.8-18.92.88-7.86 1.9-13.72 1.93-15.63l-1.5-.9c-.22 1.04-3.26 20.86-5.6 40.8-.55 4.71-1.55 9.6-2 14.06-1.48 14.23-1.94 25.6-1.97 25.57-.08 13.23-.28 26.45.19 39.67.26 7.6 1.32 14.95 2.35 22.46.64 4.74 1.1 9.49 1.43 14.25h2.22c-.64-11.45-3.35-22.7-3.82-34.17z"/><path fill="#4FD2C5" d="M13.76 345.7c-1.07-7.37-2.05-14.6-2.3-22.06-.43-13.36-.24-26.71-.18-40.07 0-.24.16-13.52 1.88-25.5 2.91-20.35 6.58-45.27 6.44-45.78.99-6.02 1.48-9.7 1.48-11.03l-1.48-1.03c0 .13-2 12.74-4.34 28.88-2.6 17.99-4.59 28.35-5.62 44.74.03 2.44-.43 9.02-.44 11.46-.02 9.31-.94 18.6-.72 27.9.23 9.21 1.13 18.37 2.2 27.51.76 6.55 1.49 13.11 2.48 19.63h2.1c-.33-4.9-.8-9.8-1.5-14.65z"/><path fill="#4FD2C5" d="M6.87 340.72c-1.12-9.63-2.11-19.3-2.22-29-.1-9.2 1.1-18.44.72-27.63-.13-2.99.32-6 .51-9s4-37.9 4.9-43.81c.89-5.91 2.68-15 5.37-33.62.25-1.7-.22-2.05-1.42-1.04-.92 5.53-4.23 26.47-6.65 44.9C6 257.39 4.73 271.46 4.62 271.4c-.98 29.72-2.58 59.57 2.7 88.96h2c-.96-6.52-1.7-13.08-2.45-19.63z"/><path fill="#4FD2C5" d="M16.08 197.1c.1-1.59.19-3.17.33-4.75a6.92 6.92 0 01-2.25-2.12c-.25 1.62-.3 3.4.17 4.6.34.9.99 1.63 1.75 2.27zm3.9-2.5c-.12 1.65-.21 3.3-.3 4.95.48.33.97.66 1.46 1 .15-1.66.28-3.31.4-4.97-.52-.32-1.04-.65-1.56-.98zm5.19 3.3c-.13 1.66-.28 3.33-.44 5 .51.32 1.03.65 1.55.96.22-1.61.42-3.23.6-4.85-.56-.37-1.14-.74-1.71-1.11zm5.23 3.55c-.18 1.48-.38 2.95-.58 4.43a51.38 51.38 0 002.1 1.05c.12-1.38.22-2.76.3-4.14-.6-.46-1.2-.9-1.82-1.34zm5.44 4.2c-.08 1-.18 2-.29 3 .64.33 1.26.66 1.86 1.01.15-.86.31-1.72.5-2.57-.72-.45-1.4-.94-2.07-1.45zm5.55 3.37c-.2 1.05-.38 2.1-.53 3.17.82.73 1.62 1.48 2.48 2.16.1-1.28.24-2.56.4-3.83a36.23 36.23 0 00-2.35-1.5zm7.92 4.32c-.6.28-1.44.09-2.08-.23-.12 1.12-.22 2.25-.3 3.37 1.05.33 2.07.2 2.31-1.3.1-.62.11-1.23.07-1.84z"/><path fill="#FFF" d="M47.72 212.4zM49.2 210.2c-.05-.14-.1-.27-.17-.4.04.14.09.28.13.42l.04-.02z"/><path fill="#F7AE55" d="M88.53 54.51c.92.58 2.22.9 3.55.9 1.08 0 2.09-.22 2.84-.62 1.37-.74 2.25-2.2 2.5-4.1a5.17 5.17 0 00-1.83-4.65c-.9-.79-2.54-1.15-3.78-1.15a5.59 5.59 0 00-3.07 1 3.87 3.87 0 00-1.8 2.63c-.15.62-.3 1.22-.34 1.83a4.57 4.57 0 001.93 4.16z"/><path fill="#000" d="M23.63 130.05l-.1-.02a.39.39 0 01-.27-.47c.6-2.38 1.4-4.83 2.18-7.2.78-2.36 1.58-4.8 2.17-7.15.52-2.1 1.07-4.26 2.14-6.2a21.64 21.64 0 014.02-4.94 68.62 68.62 0 0126.95-16.28c1.73-.55 3.7-.97 5.24.1a4.3 4.3 0 011.68 3.42c.08 2.45-1.43 5.02-4.05 6.88-1.22.87-2.55 1.56-3.85 2.22-1.01.52-2.06 1.06-3.03 1.67a83.4 83.4 0 00-11.67 9.2c-.36.34-.69.75-1.03 1.19-.35.44-.71.9-1.12 1.27a.38.38 0 01-.54-.02.39.39 0 01.02-.55c.37-.34.7-.75 1.04-1.19.35-.44.71-.89 1.12-1.27 4-3.72 8.07-6.93 11.77-9.28 1-.64 2.07-1.18 3.1-1.7a29.79 29.79 0 003.75-2.17c2.4-1.71 3.8-4.04 3.72-6.22a3.53 3.53 0 00-1.34-2.82c-1.27-.87-3.03-.49-4.58 0a67.86 67.86 0 00-26.65 16.1 20.97 20.97 0 00-3.89 4.76c-1.02 1.86-1.55 3.97-2.06 6.02-.6 2.39-1.4 4.83-2.18 7.2-.78 2.36-1.58 4.8-2.17 7.15-.04.18-.2.3-.37.3z"/><path fill="#000" d="M48 94.17a.38.38 0 01-.2-.07.39.39 0 01-.11-.53l9.12-14.24a7.9 7.9 0 011.95-2.31c.83-.6 2.12-.9 3.13-.28.63.4 1 1.07 1.26 1.61a11.42 11.42 0 01-.01 9.55.38.38 0 01-.51.18.39.39 0 01-.18-.51c1.3-2.78 1.3-6.1 0-8.89-.2-.44-.5-1-.96-1.28-.71-.44-1.66-.2-2.3.25a7.22 7.22 0 00-1.74 2.1L48.33 94a.38.38 0 01-.33.18zm-29.3 49.91a.38.38 0 01-.38-.39c.04-8.83 3.48-12.6 6.81-16.23l4.25-4.65c1.68-1.85 3.42-3.75 5.41-5.35 6.89-5.55 16.37-7.04 23.99-8.23 1.12-.17 2.51-.4 3.74.15 2.08.9 2.76 3.65 2.08 5.64-.75 2.2-2.72 3.63-4.25 4.43a32.06 32.06 0 01-6.48 2.31c-3.27.9-6.36 1.76-8.72 3.97-.81.77-1.54 1.7-2.23 2.61-1.23 1.6-2.5 3.25-4.39 4.1-.2.08-.42 0-.5-.2-.09-.2 0-.43.2-.51 1.7-.77 2.86-2.27 4.09-3.87.71-.93 1.45-1.89 2.32-2.7 2.5-2.33 5.82-3.25 9.03-4.15 2.15-.6 4.38-1.2 6.33-2.24 1.4-.74 3.2-2.04 3.88-4 .56-1.67.03-3.94-1.66-4.68-1.03-.45-2.3-.25-3.33-.1-7.92 1.25-16.9 2.65-23.63 8.07a49.3 49.3 0 00-5.32 5.27L25.69 128c-3.23 3.53-6.57 7.17-6.61 15.7 0 .22-.17.4-.38.4z"/><path fill="#000" d="M60.37 109.8a.38.38 0 01-.38-.37 22 22 0 012.6-11.21c.1-.19.33-.26.51-.16.2.1.26.33.16.52a21.24 21.24 0 00-2.5 10.82c0 .22-.16.4-.37.4h-.02zM53 124.97a.38.38 0 01-.38-.36c-.07-.94-.21-1.89-.44-2.8a.39.39 0 01.28-.47c.2-.05.41.07.46.28.24.96.4 1.95.46 2.94.01.21-.15.4-.36.41H53zm2.46 23.87h-.03a.38.38 0 01-.35-.41 15.68 15.68 0 018.69-13c.19-.08.42 0 .5.2.1.19.02.42-.17.5a15.1 15.1 0 00-8.26 12.35.38.38 0 01-.38.36zm-2.5-37.9c-.04 0-.09 0-.13-.02a.39.39 0 01-.22-.5 38.2 38.2 0 014.14-8.05c.6-.88 1.28-1.8 2.17-2.45.17-.13.4-.09.53.08.12.18.09.42-.08.54a8.8 8.8 0 00-1.99 2.27 37.44 37.44 0 00-4.06 7.88.38.38 0 01-.36.25zm-9.56.92c-.93 0-1.86-.26-2.64-.75a.39.39 0 01-.13-.53.38.38 0 01.52-.13c.88.54 1.96.75 2.97.57.2-.04.4.1.44.31.04.21-.1.41-.3.45-.29.05-.58.08-.86.08zm9.86-7.75a.37.37 0 01-.17-.04c-.81-.4-1.53-1-2.09-1.72a.39.39 0 01.07-.55c.16-.13.4-.1.53.07a5.35 5.35 0 001.83 1.51c.19.1.26.33.17.52a.38.38 0 01-.34.21zm-22.9 41.55c-1.58 0-3.15-.2-4.67-.57a.39.39 0 01-.28-.46c.05-.21.25-.34.46-.29 3.94.97 8.18.63 11.92-.97.2-.08.42.01.5.2.08.2 0 .43-.2.51a19.74 19.74 0 01-7.74 1.58zm45.27-7.03c-3.45.13-5.92-.2-8.36-2.3-2.54-2.18-2.6-7.12-2.63-10.4 0-.27 0-.54-.01-.8-.06-3.77-.05-7.6-.04-11.3 0-1.89.01-3.77.01-5.66l-.02-11.44c-.23.22-.46.39-.7.5l.01 10.95c0 1.14 0 2.3 0 3.44.7.96.7 2.42-.01 3.37a521.52 521.52 0 00.05 10.96c.04 3.4.1 8.53 2.88 10.92 2.3 1.98 4.7 2.5 7.69 2.5.37 0 .76-.02 1.16-.03.2 0 1.32-.2 1.31-.4 0-.2-1.16-.32-1.34-.3zm44.48-9.65l-.01-.21a207.87 207.87 0 01-.11-13.61c0-.2.12-40.67.12-40.86v-.43c-.1-12.1-.18-24.6-1.11-36.83-.01-.1-.02-.21-.03-.32-.54-4.62-4.81-5.02-8.77-5.04-7.91-.02-15.95.32-23.73.64-4.6.2-9.35.4-14.02.52-2.14.06-5.22.58-6.82 1.87-2.75 2.21-2.63 5.31-2.5 8.31.01.41.03.83.04 1.23.08 4.02.22 8.09.42 12.1.24 4.8.24 9.65.24 14.34 0 .87 0 1.75 0 2.63l.03 14.28c.16.01.32.04.48.1.08.02.15.04.23.07l-.03-14.45c0-.88 0-1.76 0-2.63 0-4.7 0-9.56-.24-14.38-.2-4-.34-8.06-.43-12.07 0-.41-.02-.83-.04-1.25-.11-2.82-.23-5.74 2.24-7.73 1.38-1.1 4.2-1.65 6.4-1.71 4.68-.12 9.43-.32 14.03-.52 7.77-.32 15.8-.66 23.7-.64 4.78.02 7.64.74 8.06 4.41.01.1.02.2.03.3.93 12.19 1.02 24.69 1.1 36.78l.01.42c0 .19-.2 36.84-.06 40.84a.35.35 0 00-.07.2v.06c-.06 4.41-.11 8.97.12 13.4l.01.22c.13 2.43.32 6.09-2.18 7.33-1.35.67-3.32.64-4.9.63-.2 0-.39-.01-.58-.01-.2 0-1.48.01-1.48.2 0 .2.19.51.38.51s1.48 0 1.68 0c.27 0 .55.01.83.01 1.48 0 3.12-.08 4.39-.71 2.92-1.44 2.7-5.39 2.57-8z"/><path fill="#000" d="M98.79 42.43h-.08c-3.57.16-6.71.18-10.04.2-1.25.02-2.52.03-3.85.04a1.81 1.81 0 00-1.77 1.89c.08 1.88.14 3.81.2 5.74.07 1.97.13 3.95.21 5.88.04.94.8 1.67 1.72 1.67h.04c4.61-.1 9.18-.23 13.94-.4.95-.04 1.71-.85 1.7-1.81-.02-.87-.03-1.73-.04-2.59-.03-2.86-.07-5.81-.28-8.97a1.77 1.77 0 00-1.75-1.65zm-13.61 16.2a2.49 2.49 0 01-2.48-2.42c-.08-1.93-.14-3.9-.2-5.89-.07-1.92-.14-3.85-.21-5.73a2.58 2.58 0 012.52-2.69c1.33-.02 2.6-.03 3.85-.04 3.32-.02 6.46-.04 10.01-.2 1.39-.07 2.54 1 2.63 2.36.22 3.19.25 6.15.28 9.02.01.86.02 1.72.04 2.58a2.55 2.55 0 01-2.43 2.6c-4.77.17-9.34.3-13.96.4h-.05z"/><path fill="#000" d="M97.55 43.83h-.07c-2.89.14-5.43.15-8.13.17-1 .01-2.03.02-3.1.03a1.58 1.58 0 00-1.55 1.65c.06 1.52.1 3.08.16 4.63.05 1.6.1 3.21.17 4.78.03.82.69 1.47 1.5 1.47v.19l.04-.2c3.74-.07 7.43-.18 11.28-.32.84-.03 1.5-.74 1.49-1.59-.01-.7-.02-1.4-.03-2.1-.03-2.3-.05-4.7-.23-7.26a1.55 1.55 0 00-1.53-1.45zM86.53 56.94a1.9 1.9 0 01-1.89-1.83c-.06-1.57-.11-3.18-.16-4.78a748 748 0 00-.17-4.63 1.97 1.97 0 011.93-2.05c1.07-.02 2.1-.03 3.1-.03 2.7-.02 5.24-.04 8.12-.17a1.93 1.93 0 012 1.8c.18 2.57.2 4.97.23 7.3 0 .69.02 1.38.03 2.08a1.95 1.95 0 01-1.85 1.98 744 744 0 01-11.3.33h-.04z"/><path fill="#000" d="M91.81 44.7a5.78 5.78 0 00-3.18 1.04 4.03 4.03 0 00-1.87 2.73c-.16.63-.3 1.24-.35 1.86a4.76 4.76 0 002.02 4.34c.95.6 2.28.94 3.65.94 1.1 0 2.15-.23 2.93-.65 1.43-.77 2.35-2.27 2.59-4.24.04-.36.05-.72.03-1.07a5.75 5.75 0 00-1.92-3.75c-.93-.83-2.63-1.2-3.9-1.2zm.27 11.3a7.45 7.45 0 01-3.85-1 5.16 5.16 0 01-2.2-4.7c.04-.65.2-1.28.36-1.93.37-1.43.9-2.2 2.03-2.95a6.14 6.14 0 013.4-1.1c1.24 0 3.07.33 4.14 1.29a6.15 6.15 0 012.05 4c.03.39.02.77-.03 1.16-.26 2.1-1.25 3.7-2.8 4.53a6.7 6.7 0 01-3.1.7z"/><path fill="#000" d="M89.69 44.94a7.3 7.3 0 010 0zm2.13-.43c1.3 0 3.05.38 4.02 1.24-1.04-.91-2.81-1.24-4.02-1.24zm-5.46 4.83a5.27 5.27 0 000 0zm11.47.89c0 .17-.02.34-.04.51a6.12 6.12 0 01.04-.51zm-6.02-5.34a5.59 5.59 0 00-3.07 1 3.87 3.87 0 00-1.8 2.63c-.15.62-.3 1.22-.34 1.83a4.57 4.57 0 001.93 4.16c.92.58 2.22.9 3.55.9 1.08 0 2.09-.22 2.84-.62 1.37-.74 2.25-2.2 2.49-4.1.04-.34.05-.69.03-1.03a5.55 5.55 0 00-1.85-3.62c-.9-.79-2.54-1.15-3.78-1.15zm2.55 10.56zm-7.25-1.8c.33.48.74.89 1.22 1.19a7.26 7.26 0 010 0c-.48-.3-.89-.7-1.22-1.19zm4.97 2.54c-1.47 0-2.91-.37-3.95-1.02a5.36 5.36 0 01-2.3-4.88c.05-.67.21-1.31.38-1.97a4.59 4.59 0 012.1-3.07 6.33 6.33 0 013.5-1.13c1.28 0 3.16.35 4.28 1.34a6.35 6.35 0 012.1 4.14c.04.4.03.8-.02 1.2-.27 2.15-1.3 3.81-2.9 4.67-.86.46-2 .72-3.2.72zm16.4 78.97c-5.56-4.17-14.53-3.57-20.52-1.78-2.13.63-4.25 1.84-6.3 3.02-4.55 2.61-8.85 5.08-13.51 2.04-1.89-1.22-7.92-6.27-6.54-19.9a.39.39 0 00-.34-.42.38.38 0 00-.42.35c-.4 3.97-.14 7.99.75 11.32 1.12 4.26 3.19 7.39 6.13 9.3 5.06 3.29 9.76.6 14.31-2.02 2.01-1.15 4.1-2.35 6.13-2.95 5.83-1.74 14.52-2.34 19.85 1.66 1.32.99 3.06 3.29 2.9 5.04-.07.76-.5 1.33-1.3 1.72-.98.49-2.16.53-3.3.56a25.26 25.26 0 00-6.66 1.1c-8.25 2.51-15.27 7.6-18.77 13.63a141.2 141.2 0 01-13.63 19.84 110.19 110.19 0 01-11.94 12.05 21.38 21.38 0 00-5.59 7.61c-1.37 3.2-1.7 6.85-2.2 10.28-.23 1.6-.45 3.22-.64 4.84a332.53 332.53 0 01.5.37c.1.07.19.16.25.26.43-3.97.95-7.94 1.54-11.92v-.04c.33-1.02.63-1.9.95-2.72a20.08 20.08 0 015.69-8.1c4.72-4.14 8.66-8.11 12.02-12.14 4.68-5.6 9.16-12.11 13.71-19.94 3.4-5.86 10.26-10.82 18.33-13.27a24.48 24.48 0 016.47-1.08c1.22-.04 2.47-.08 3.6-.63 1.04-.51 1.64-1.33 1.73-2.35.2-2.12-1.8-4.68-3.2-5.73zm-89.4 8.49a.38.38 0 00-.43-.34.39.39 0 00-.33.43c1.46 12.2 3.12 26.02-1.01 38.6l-.01.08c-1.14 2.51-1.5 5.28-1.72 8.06-.02.22-.03.44-.05.66a.8.8 0 01.33.35c.02.05.04.08.06.13.13.03.24.1.34.18.18-3.17.38-6.7 1.72-9.61 1.17-2.55 1.64-5.47 2.03-8.23.41-2.85.61-5.72.66-8.6.11-7.27-.72-14.51-1.6-21.71zm74.11-80.62c-.88 0-1.76.56-2.14 1.36-.32.67-.33 1.5-.33 2.24l-.03 5.03c-.01 1.57-.02 3.19.55 4.64.36.92 1.18 1.9 2.13 1.9.09 0 .18 0 .26-.02.54-.1 1.04-.54 1.34-1.18.28-.6.37-1.3.45-2.03.3-3.02.36-6.08.17-9.1-.03-.43-.06-.8-.16-1.15a2.45 2.45 0 00-2.24-1.69zm.18 15.95c-1.32 0-2.38-1.2-2.84-2.4-.62-1.59-.61-3.36-.6-4.92l.02-5.03c0-.82.01-1.75.41-2.58a3.17 3.17 0 013.04-1.78c1.25.1 2.38 1 2.76 2.22.13.43.16.87.2 1.32.19 3.07.13 6.18-.19 9.24-.08.8-.18 1.56-.52 2.28-.4.86-1.1 1.46-1.88 1.6-.13.03-.26.05-.4.05z"/><path fill="#000" d="M48.68 207.96c-.4-.37-.98.23-.6.6a4.1 4.1 0 011.37 2.86c-1 1.18-1.9 1.3-2.68.39a24.86 24.86 0 00-4.8-3.46c-1.57-.9-3.25-1.56-4.76-2.56-1.48-.98-2.79-2.24-4.18-3.33a106.7 106.7 0 00-9.28-6.32c-1.59-1-3.19-1.97-4.78-2.95-.8-.49-1.58-.98-2.36-1.47-.69-.41-1.27-.94-1.74-1.6-.82-1.18-.44-2.25 1.14-3.22.27-.03.29-.46 0-.44-1.37.07-2.08.95-2.2 2.3-.17 2.02 2.27 3.38 3.64 4.25 5.3 3.37 10.72 6.57 15.68 10.48 1.99 1.57 3.76 3.17 6.03 4.31a36.87 36.87 0 017.42 4.9c.72.62 2.67 1.34 3.28.1.87-1.73.15-3.57-1.18-4.84z"/><path fill="#000" d="M49.6 210.37c-.05-.14-.2-.25-.34-.2-.04.02-.07.04-.1.05a4.6 4.6 0 00-.24-.7.22.22 0 00-.09-.1c-.04-.15-.08-.31-.12-.47-.05-.23-.3-.26-.45-.15l-.01-.01c-.13-.26-.52-.13-.52.14 0 .12 0 .24 0 .36v.02c0 .59 0 1.17 0 1.76-.43.29-.36.9-.02 1.2-.06.23.24.46.46.33.12-.07.23-.16.33-.24.25-.11.43-.27.55-.46.04.05.08.1.12.16.18.23.47.01.5-.2.01-.13.02-.28 0-.43.08-.35.05-.7-.07-1.06zm-33.72-23.74c-.03.07-.06.15-.08.23a.3.3 0 00-.3.05.7.7 0 00-.25.45.94.94 0 00-.2.16.31.31 0 00-.14.06c-.27.2-.38.51-.32.77a1.13 1.13 0 00-.15 1.19c.03.6.27 1.14.97 1.35h.05v.01c.15.21.5.16.5-.12a.25.25 0 00.1-.2c0-.2 0-.42 0-.63v-.05c0-.37 0-.75 0-1.12.11-.67.22-1.34.34-2 .06-.36-.39-.48-.52-.15z"/><path fill="#000" d="M50.03 212.2c-.07-.53-.9-.53-.83 0 .13 1 .2 1.97.04 2.98-.47 2.9-3.76.67-4.76.01-1.6-1.06-2.97-2.47-4.43-3.7-2.93-2.46-6.6-3.7-9.94-5.45a104.71 104.71 0 01-10.6-6.6c-1.78-1.23-4.35-2.45-5.18-4.6-.74-1.9-.18-5.27.41-7.1.09-.26-.3-.36-.4-.11-.71 1.95-1.16 4.69-.73 6.76.4 1.97 1.75 2.92 3.3 4.02 4.74 3.33 9.5 6.63 14.68 9.22 2.4 1.2 4.87 2.16 7.06 3.74 1.91 1.37 3.52 3.13 5.43 4.51 1.04.76 3.43 2.3 4.76 1.31 1.58-1.17 1.42-3.2 1.19-4.99z"/><path fill="#000" d="M49.15 216.08C46.94 224.2 54.73 329.52 63 360.04c.05.2.75.18.7 0-7.46-30.52-15.9-135.35-14.13-143.84.06-.28-.35-.4-.42-.12zm-34.4-19.6l-.68-1.12c-4.2 23.72-10.24 64.95-10.61 76.96-1.66 29.19-2.42 59.07 2.69 88.03h1.17c-5.23-29.1-3.79-58.67-2.67-88.07 1.44-23.15 10.08-75.43 10.1-75.8zm74.8-178.04c-1.64-3.66-3.97-7-6.5-10.07-.53-.64-1.64.22-1.14.89a62.7 62.7 0 015.93 10.2c.57 1.16 2.22.14 1.7-1.02zm8.44-15.8c-.05-1-1.46-1-1.52 0-.24 4.11-.28 8.34-.1 12.46.06 1.12 1.67 1.12 1.72 0 .19-4.12.15-8.35-.1-12.47zm13.58.48c-1.78 3.52-3.51 7.38-4.29 11.27-.22 1.1 1.32 1.54 1.66.46 1.22-3.73 2.25-7.4 3.91-10.97.4-.87-.84-1.63-1.28-.76zm13.35 10.55a36.72 36.72 0 00-10.96 4.24c-.93.55-.11 1.94.83 1.45a53.91 53.91 0 0110.5-4.3c.9-.25.52-1.6-.37-1.4z"/><path fill="#4FD2C5" d="M55.1 309.76c-.33 6.58-.33 12.57 0 17.96.5 8.09.13 5.07 1.43 14.37.86 6.2 1.75 12.18 2.69 17.95h3.73c-2.48-10.77-5.1-27.53-7.85-50.28zm-4.85-51.12c-.26 6.1-.56 12.81-.9 20.15-.51 11-.64 14.28-.9 18.4-.25 4.1.31-.35 0 10.78-.3 11.12-.9 14.3-.9 21.55s-.3 3.17.9 13.46c.8 6.86 1.7 12.55 2.7 17.06h5.38a671.42 671.42 0 01-3.6-19.75c-.74-4.92-1.1-8.41-1.34-12.57s0-3.67 0-10.83c0-7.15 0-7.03 0-14.3 0-4.86 0-9.71 0-14.56v-12.38l-1.34-17.01z"/></g><g mask="url(#b)"><path fill="#FED7D8" d="M157.76 163.77c-.08-.3-.2-.65-.35-.97l-.03-.01v-.03a2.15 2.15 0 00-.44-.6c-.7-.64-1.81-.55-2.6-.19-.52.24-.97.6-1.4 1a.38.38 0 01-.22.22c-.25.24-.48.5-.7.74L140.3 176.6a72.93 72.93 0 0113.77-3.17c.69-.1 1.4-.16 2.1-.14a11.82 11.82 0 001.59-9.52z"/><path fill="#F7AE55" d="M176.1 109.24c.13.24.34.48.64.73.9.75 2.07 1.16 3.17 1.1a3.57 3.57 0 002.8-1.56c.34-.56.48-1.22.58-1.8.07-.37.1-.69.05-.98-.05-.3-.2-.6-.43-.92a4.02 4.02 0 00-4.39-1.32 3.93 3.93 0 00-2.68 3.6c0 .45.08.84.25 1.15z"/><path fill="#FFF" d="M177.03 114.27c1.66.03 3.4-.09 4.93-.2 1.42-.1 2.75-.2 3.8-.15.43.02.9.04 1.39.08.74.04 1.58.1 2.42.11 3.33.07 7.33-.37 8.62-4.32.04-.11.06-.22.1-.33-.04.13-.08.27-.13.4-1.38 3.8-5.65 4.17-8.75 4.1-.81-.01-1.62-.06-2.32-.1-.45-.03-.87-.05-1.25-.07h-.24c-.88-.02-1.98.04-3.15.11-1.4.08-3 .18-4.55.15-2.74-.06-6.56-.47-8.17-3.41-.55-1-.8-2.18-.7-3.33.05-.57.19-1.12.4-1.62 1.2-2.72 4.28-3.35 6.5-3.58a80.24 80.24 0 0116.94.04 7.3 7.3 0 013.45 1.01c1.64 1.11 2.47 3.52 2.1 5.72.4-2.33-.35-4.95-1.84-6.08-.92-.7-2.02-.87-3.26-1.02a77.21 77.21 0 00-18.23.05c-2.33.28-5.15.96-6.25 3.74-.2.51-.33 1.07-.38 1.67-.1 1.2.14 2.47.64 3.5 1.13 2.32 3.65 3.45 7.93 3.53zm-19.82 58.82c-.06.08-.1.17-.16.26.05 0 .1 0 .15.02v-.28z"/><path fill="#F687B3" d="M167.47 107.17c.06-.69.2-1.34.44-1.93 1.3-3.29 4.65-4.06 7.05-4.35a78.39 78.39 0 0118.48-.04c1.34.16 2.63.37 3.76 1.22 2.01 1.52 2.88 5.11 1.94 8-1.5 4.6-6.2 5.05-9.59 4.98-.86-.01-1.71-.07-2.46-.11-.49-.03-.95-.06-1.36-.08h-.23c-.97-.03-2.18.06-3.47.15-1.55.11-3.31.24-5.02.2-2.96-.06-7.09-.54-8.8-4.07a7.76 7.76 0 01-.74-3.97zm-7.73 67.38a4.75 4.75 0 011.16 4.05 8.05 8.05 0 01-2.88 4.85l-.13 6.89c-.04 2.5-.1 5-.15 7.51-.11 4.93-.23 10.02-.24 15.03 0 .34 0 .7 0 1.08-.04 4.35-.1 10.92 3.41 13.89 1.89 1.6 3.8 2.45 5.97 2.89.85-.33 1.72-.66 2.57-.94 5.66-1.86 12.23-1.84 19 .04 1.36.38 3.56 1.12 5.65 2.39.58-.6 1.25-1.1 1.98-1.46 4.83-2.35 11.8-1.39 16.9-.68h.07c.42-.23 9.85-.17 10.12-.16.26 0 .54.01.82.02 2.2.07 4.96.15 6.87-.7 3.53-1.57 3.36-6.45 3.24-9.68l-.01-.28c-.16-4.45-.09-9 .04-13.47a88.36 88.36 0 00-8.74-2.96 3.56 3.56 0 01-2.18-1.88 8.58 8.58 0 01-.46-5.84.38.38 0 01.3-.26 2.95 2.95 0 011.97-1.68 6.92 6.92 0 013.13.15l6.4 1.3c0-1.22.03-2.45.06-3.68 0-.67-.06-1.45.05-2.14-2.7.75-5.43 1.06-7.94.03-2.24-.93-4.42-3.12-4.25-5.93.12-2.15 1.55-4.07 4.23-5.69 2.49-1.5 5.31-2.5 8.05-3.44l.32-.11c.17-.06.35-.12.52-.18-1.27-1.08-3.08-1.45-4.72-1.66l-.61-.08c-1.83-.22-3.72-.45-5.3-1.5a6.88 6.88 0 01-2.92-4.92c-.18-1.54.09-4.33 1.57-5.68 1.2-1.09 3.03-1 4.5-.93l.43.02c2.43.1 4.83.2 7.2.4-.23-1.42-.24-12.09-.24-12.33l.01-.57c.19-16.07.38-32.69-.6-48.93-.02-.13-.03-.26-.04-.39-.5-4.89-4.48-5.93-11.18-6.08-11.06-.26-22.31-.03-33.2.2-6.44.12-13.1.26-19.66.29-3.08.02-7.05.67-9 2.1-3.52 2.57-3.43 6.46-3.34 10.22.01.55.02 1.1.03 1.65.01 5.33.1 10.74.28 16.07.22 6.4.1 12.87-.03 19.11-.02 1.17-.04 2.33-.06 3.5l-.34 19.14a12.62 12.62 0 01-.13 7.68l-.05 2.78c.57.2 1.1.5 1.55.95z"/><path fill="#4B5668" d="M193.99 107.86c-.07.4-.19.93-.48 1.4a3.05 3.05 0 01-2.67 1.37 3.83 3.83 0 01-2.34-.9 2.44 2.44 0 01-.59-.68c-.17-.3-.26-.67-.25-1.09a3.28 3.28 0 013.33-3.16c1.04.02 2.04.51 2.62 1.28.22.3.36.6.4.9.06.3.02.6-.02.88zm1.75-3.93a6.46 6.46 0 00-2.99-.85 78.9 78.9 0 00-12.52-.35c1.66.14 3.21.94 4.13 2.17.37.5.6 1 .69 1.5a4.4 4.4 0 01-.06 1.49 6.84 6.84 0 01-.83 2.46 5.22 5.22 0 01-4.58 2.33 6.64 6.64 0 01-4.04-1.54 4.15 4.15 0 01-1-1.16 3.72 3.72 0 01-.42-1.83 5.66 5.66 0 014.42-5.32c-.84.06-1.67.13-2.5.22-2.14.22-4.71.76-5.7 3-.17.41-.28.86-.32 1.34a5.1 5.1 0 00.58 2.81c1.05 1.9 3.37 2.83 7.32 2.9 1.5.04 3.08-.06 4.47-.14a40.2 40.2 0 013.49-.11c.39.01.81.04 1.27.07.7.04 1.48.09 2.28.1 3.02.06 6.64-.28 7.79-3.47.73-2.01.05-4.59-1.48-5.62z"/><path fill="#FFF" d="M192.8 106.62a2.35 2.35 0 00-2.57-.77 2.31 2.31 0 00-1.58 2.12c0 .26.04.47.14.64.07.14.2.28.37.42.53.45 1.23.7 1.88.65.67-.04 1.3-.4 1.62-.9.2-.33.29-.73.35-1.08.04-.22.06-.4.03-.57-.03-.16-.11-.33-.24-.5z"/><path fill="#FED7D8" d="M150.56 186.94c-.25.07-.5.15-.75.22-.81.46-1.53 1.11-2.33 1.94a41.33 41.33 0 00-5.63 7.27c2.06 0 4.06.05 5.96.1.44 0 .9.02 1.39.06a24.18 24.18 0 014.35-10.58 52 52 0 01-3 .99zm141.39 59.18a173.62 173.62 0 01-4.76-11.24c-.88-2.23-1.8-4.53-2.75-6.78-2.23-5.24-5-9.95-7.92-14.94-.4-.68-.8-1.36-1.2-2.05-3.32-5.68-5.4-11.52-7.57-18.02-.16-.47-.32-.95-.48-1.43-1.67-5.08-3.4-10.33-7.44-13.6a25.57 25.57 0 00-15.51-5.64c-2.62-.06-5.2.7-7.71 1.55l-.02.02c-.08.08-.2.1-.3.1-.33.1-.65.22-.97.33l-.33.11c-2.7.94-5.48 1.9-7.9 3.37-2.45 1.49-3.75 3.2-3.86 5.08-.15 2.43 1.8 4.34 3.78 5.16 3.72 1.53 8.15-.17 12.07-1.67.53-.21 1.05-.4 1.55-.6a5.28 5.28 0 001.26-2.93c.03-.2.2-.36.43-.33.2.02.36.2.33.42-.1.9-.4 1.78-.87 2.54.1.05.17.12.21.23.03.08.02.17 0 .24 1.44.94 3.06 1.62 4.72 2l.28.05c.59.13 1.2.26 1.74.6.6.35 1.01.9 1.34 1.49a.38.38 0 01.29-.05c2.13.52 4.48.09 6.29-1.18a.38.38 0 01.53.1c.12.18.07.42-.1.54a8.65 8.65 0 01-6.65 1.35 23.3 23.3 0 011.69 7.8 64.16 64.16 0 0113.61 6.3.39.39 0 01-.2.73.37.37 0 01-.2-.06 63.41 63.41 0 00-13.54-6.26h-.04a.37.37 0 01-.24-.1c-.87-.28-1.75-.54-2.63-.79-2.67-.73-5.44-1.3-8.11-1.84L228 194.1c-.89-.18-1.9-.4-2.8-.16-.77.2-1.56.9-1.53 1.72 0 .21-.16.38-.36.4a7.71 7.71 0 00.58 4.54c.41.8.99 1.3 1.7 1.5 7.67 2.23 11.26 3.96 16.68 6.58 1.95.94 3.7 1.93 5.25 2.97a.37.37 0 01.18-.05 6.23 6.23 0 004.63-2.17.38.38 0 01.54-.04c.16.14.18.39.04.55a7.02 7.02 0 01-4.42 2.38c3.55 2.55 5.96 5.38 7.3 8.56.74 1.75 1.15 3.63 1.56 5.45.08.37.16.73.24 1.1a77.04 77.04 0 005.41 15.64c.1.2.01.43-.18.52a.38.38 0 01-.5-.18 77.84 77.84 0 01-5.47-15.81c-.09-.37-.17-.73-.25-1.1-.4-1.78-.8-3.63-1.51-5.32-1.97-4.66-6.14-8.42-13.15-11.8-1.87-.9-3.52-1.7-5.2-2.45.78 3.88 1.39 7.82 1.82 11.77a17.22 17.22 0 019.12 9.08c.09.2 0 .42-.2.5a.38.38 0 01-.5-.2 16.46 16.46 0 00-8.33-8.5c.1 1.04.2 2.09.28 3.13.22 2.75.18 5.81-1.75 7.72-1.45 1.43-3.58 1.79-5.28 1.95-5.1.47-10.21-.28-15.16-1-.99-.14-1.97-.28-2.96-.41l-.9-.13c-5-.69-11.84-1.63-16.47.62-.6.3-1.16.7-1.65 1.18 2.26 1.52 4.27 3.7 4.75 6.76.13.82.1 1.54-.1 2.16.22.11.43.23.63.34.73.4 1.36.75 2.25.87 15.71 2.1 20.01 3.79 28.76 9.41 2.8 1.8 5.55 3.94 8.21 6.01 5.03 3.92 10.23 7.97 16.12 10.04.56.2 1.13.39 1.7.58 3.3 1.08 6.71 2.2 8.62 5.13.68 1.03 1.1 2.22 1.51 3.37.56 1.6 1.1 3.1 2.24 4.16.65.61 1.44 1.02 2.28 1.45.09.05.17.1.26.14.05-.02.1-.04.16-.04 2.86-.12 5.18-2.24 7.49-4.59.15-.15.39-.15.54 0 .15.15.15.4 0 .55-2.1 2.13-4.36 4.21-7.09 4.7.06.04.13.07.18.11.98.64 1.8 1.46 2.54 2.34l.08-.01c1.75.06 3.54-.6 4.88-1.77.15-.14.4-.13.53.04.14.16.13.4-.03.54a7.94 7.94 0 01-4.87 1.95c.44.58.84 1.17 1.23 1.75 10.83 16.27 24.16 53.25 28.71 71.83h49.94c-1.74-13.48-19.7-43.99-52.72-95.85-.52-.68-1.05-1.36-1.57-2.05a95.78 95.78 0 01-10.04-16.45zM147.59 187.9c-.22.09-.45.17-.67.26a92.03 92.03 0 00-14.52 7.75c-.47.3-.9.68-1.37 1.1-.06.04-.12.1-.18.15a66.2 66.2 0 0110.1-.78 42.12 42.12 0 016.64-8.48z"/><path fill="#FED7D8" d="M130.74 196.23a5.58 5.58 0 01-2.96-1.35.39.39 0 01-.03-.55.38.38 0 01.54-.03c.86.77 2.01 1.21 3.16 1.22.04 0 .09 0 .13.02.13-.1.27-.2.4-.29 3.53-2.26 7.03-4.24 10.35-5.86a6.79 6.79 0 01-1.66-2.05.39.39 0 01.16-.52c.19-.1.42-.03.52.16.4.8 1 1.5 1.71 2.03l.02.01c1.21-.58 2.4-1.1 3.55-1.57.95-.39 1.93-.7 2.9-1 .07-.05.16-.1.24-.14a.37.37 0 01.26-.02 32.96 32.96 0 004.83-1.71c2.97-1.4 4.95-3.68 5.29-6.1a3.97 3.97 0 00-.95-3.37c-.7-.7-1.65-.97-2.68-1.04a.37.37 0 01-.38-.01c-.65-.01-1.32.05-1.97.13a74.94 74.94 0 00-32.23 12.33 23.15 23.15 0 00-5.17 4.43c-1.48 1.83-2.47 4.04-3.42 6.17-1.11 2.49-2.46 5-3.77 7.44a142.89 142.89 0 00-3.1 6c.36-.29.73-.57 1.1-.85l5.53-4.24c2.2-1.68 4.46-3.42 6.94-4.77a32.64 32.64 0 019.2-3.25c.43-.29.85-.65 1.28-1.03.07-.06.14-.12.21-.19zm123.22-22.55c-1.36-4.42-4.85-8.5-9.9-11.52-.74-.45-1.73-1-2.78-1.36-1.19-.4-2.43-.56-3.7-.7-2.97-.31-5.99-.45-9.07-.57l-.44-.02c-1.32-.06-2.98-.14-3.95.74-1.12 1.01-1.52 3.34-1.32 5.01a6.1 6.1 0 002.58 4.37c1.43.94 3.23 1.16 4.97 1.38l.61.07c1.9.25 4.02.7 5.45 2.14 2.57-.87 5.2-1.63 7.92-1.58 3.33.07 6.6.78 9.63 2.04zm-18.67 16.81c.03 1.44.05 2.87.06 4.3v.03l5.57 1.14c1.05.22 2.11.44 3.18.67-.7-3.32-1.53-6.64-2.46-9.9-.13-.08-.26-.17-.39-.26-.61.23-1.24.46-1.9.72a61.9 61.9 0 01-4.1 1.46c.18.53.04 1.43.04 1.84zm8.46.84c1.33.56 2.74.9 4.18 1.01.2.02.37.2.35.42a.38.38 0 01-.38.36h-.03c-1.37-.11-2.71-.42-4-.91.38 1.52.73 3.05 1.04 4.57v.02a85.89 85.89 0 016.43 1.69 22.51 22.51 0 00-1.46-6.88c-.33-.85-.77-1.8-1.55-2.27-.43-.26-.95-.37-1.5-.49l-.28-.06a15.3 15.3 0 01-3.96-1.5c.37 1.33.73 2.67 1.07 4.02l.1.02z"/><path fill="#FED7D8" d="M104.76 229a.39.39 0 01-.2-.5c.1-.2.32-.29.51-.2a21.12 21.12 0 0013.24 1.3c.2-.05.41.08.46.29.04.2-.09.41-.3.46a21.87 21.87 0 01-13.71-1.35zm31.49 9.5a17.25 17.25 0 0111.97-12.43c.2-.06.41.06.47.27.05.2-.07.42-.27.48a16.7 16.7 0 00-11.43 11.87c-.04.18-.2.3-.37.3l-.1-.01a.39.39 0 01-.27-.47zm-20.8 63.19c6.3-13.98 8.62-15.36 14.26-18.7a84.76 84.76 0 006.2-3.94c8.95-6.32 17.54-14.3 25.54-23.73.23-.27.45-.54.68-.81 1.24-1.48 2.52-3.01 4.05-4.25a25.74 25.74 0 015.48-3.2c8.16-3.77 15.12-5.16 21.28-4.24 2.37.35 4.56.53 5.5-.97a.38.38 0 01-.01-.33.38.38 0 01.26-.21 4 4 0 00.06-1.78c-.45-2.92-2.45-4.99-4.68-6.42a.37.37 0 01-.18-.08l-.04-.06a22.25 22.25 0 00-5.6-2.38c-6.63-1.85-13.05-1.87-18.56-.05-.98.32-2 .71-2.98 1.1-3.86 1.48-7.85 3.01-11.59 1.35-2.7-1.2-5.2-3.82-6.4-6.67-2.18-5.21-2.37-11.82-.57-18.67-.2.08-.4.14-.6.2-2.41.77-5 1.01-7.51 1.24-.35.03-.7.07-1.04.1.04.97.01 1.94-.09 2.9a.38.38 0 01-.38.34h-.04a.39.39 0 01-.34-.43c.1-.9.13-1.82.09-2.74-3.09.32-5.99.82-8.5 2.45-1.05.68-2.02 1.56-2.96 2.41-1.65 1.5-3.36 3.05-5.56 3.6a.39.39 0 01-.18-.75c2.02-.5 3.58-1.92 5.23-3.42a24.5 24.5 0 013.05-2.49c2.73-1.77 5.94-2.27 9.13-2.6a.38.38 0 01.12-.03l.09.02c.43-.05.87-.09 1.31-.13 2.47-.22 5.02-.46 7.35-1.2 1.68-.54 3.92-1.6 5.04-3.63.94-1.72.8-4.33-.93-5.49-1.05-.7-2.48-.74-3.64-.76-5.82-.14-12.15-.3-18.19.9l-.03.03c-.1.06-.2.07-.3.05a31.83 31.83 0 00-8.86 3.16 54.34 54.34 0 00-6.84 4.7l-5.54 4.25c-4.2 3.22-8.56 6.54-10.26 15.85-.75 13.64-1.61 29.08-8.51 42.05-6.55 12.3-14.9 24.44-25.54 37.09-2.12 2.52-4.34 4.99-6.57 7.4-18.88 22.95-29.3 38.97-31.24 48.06h63.64c4.85-11.97 12.6-29.93 24.89-56.87.5-1.1.85-1.86 1.01-2.22z"/><path fill="#000" d="M349.04 340.9c-7.1-14.52-22.1-40.15-45-76.9l-.7.3c36.83 59.32 45.42 77.71 45.41 77.76 5.68 11.54 7.44 16.69 7.55 18.74.01.2.18.36.38.36h.02c.21 0 .37-.19.36-.4-.14-2.74-2.83-9.38-8.02-19.87zM240.98 186.4a.38.38 0 01-.25-.09.39.39 0 01-.04-.55c.67-.78 1.1-1.79 1.2-2.82.03-.21.2-.37.43-.34.2.02.36.2.33.42a6.07 6.07 0 01-1.38 3.25.38.38 0 01-.29.13z"/><path fill="#000" d="M251.75 199.45a.38.38 0 01-.38-.38 22.53 22.53 0 00-1.49-7.46c-.33-.85-.77-1.8-1.55-2.27-.43-.26-.95-.37-1.5-.49l-.28-.06a15.33 15.33 0 01-5.57-2.5.39.39 0 01-.1-.54.38.38 0 01.54-.1 14.57 14.57 0 005.3 2.38l.27.06c.59.13 1.2.26 1.74.6.97.58 1.49 1.66 1.86 2.64a23.3 23.3 0 011.55 7.72c0 .22-.16.4-.37.4h-.02z"/><path fill="#000" d="M252.17 191.12c-.67 0-1.34-.08-2-.24a.39.39 0 01-.27-.47c.05-.2.25-.33.46-.28 2.13.52 4.48.09 6.29-1.18a.38.38 0 01.53.1c.12.18.07.42-.1.54a8.65 8.65 0 01-4.91 1.53zm20 92.68a.38.38 0 01-.39-.37c0-.21.15-.4.37-.4 2.86-.12 5.18-2.24 7.49-4.59.15-.15.39-.15.54 0 .15.15.15.4 0 .55-2.33 2.36-4.86 4.68-8 4.81h-.02zm-24.46-71.42a.38.38 0 01-.38-.38c0-.22.16-.4.37-.4a6.23 6.23 0 004.63-2.16.38.38 0 01.54-.04c.16.14.18.39.04.55a7 7 0 01-5.2 2.43zm28.36 74.53c-.07 0-.14 0-.2 0a.38.38 0 01-.38-.4c0-.22.18-.38.4-.38 1.75.06 3.54-.6 4.88-1.77.15-.14.4-.13.53.04.14.16.13.4-.03.54a7.94 7.94 0 01-5.2 1.97zm-31.53-89.66a.38.38 0 01-.37-.31c-.72-3.42-1.57-6.87-2.54-10.23a.39.39 0 01.26-.48c.2-.06.42.06.47.26.98 3.39 1.84 6.85 2.55 10.29.05.21-.08.41-.29.46h-.08z"/><path fill="#000" d="M247.9 193.12h-.03c-1.52-.13-3-.49-4.41-1.08a.39.39 0 01-.2-.5c.07-.2.3-.3.5-.21 1.32.56 2.73.9 4.17 1.01.2.02.37.2.35.42a.38.38 0 01-.38.36zM97.42 225.75a.39.39 0 00-.4.36c-.76 13.56-1.61 28.93-8.43 41.75-6.52 12.26-14.85 24.35-25.45 36.95-1.93 2.3-4 4.55-6.03 6.76-17.6 20.94-28.36 37.34-32.24 49.2h1.04c7.8-21.04 28.77-44.73 31.2-48 2.25-2.44 4.47-4.91 6.61-7.45 10.64-12.65 19-24.79 25.54-37.1 6.9-12.97 7.76-28.42 8.52-42.06a.39.39 0 00-.36-.41zM198.37 109.1c-.02.09-.04.18-.06.26.02-.08.04-.17.06-.26zm-20.38-6.14a5.66 5.66 0 00-3.87 5.18c0 .7.14 1.32.42 1.83.22.4.55.77 1 1.16a6.64 6.64 0 004.5 1.53c1.72-.1 3.3-1 4.12-2.32.5-.81.7-1.74.83-2.46.07-.44.15-.96.06-1.48-.09-.5-.32-1.01-.7-1.51a5.77 5.77 0 00-4.12-2.17 78.93 78.93 0 0112.52.35c1.1.12 2.15.27 3 .85 1.52 1.03 2.2 3.6 1.47 5.62-1.15 3.2-4.77 3.53-7.79 3.47-.8-.01-1.59-.06-2.28-.1-.46-.03-.88-.06-1.27-.07a40.2 40.2 0 00-3.5.11c-1.38.08-2.95.18-4.46.15-3.95-.08-6.27-1-7.32-2.9a5.1 5.1 0 01-.58-2.82c.04-.48.15-.93.33-1.33.98-2.25 3.55-2.79 5.68-3.01a79.6 79.6 0 012.51-.22c-.19.04-.37.08-.55.14zm.53 1.52a4.02 4.02 0 014.38 1.32c.24.32.39.63.44.92.05.3.02.6-.05.99-.1.57-.24 1.23-.59 1.8a3.57 3.57 0 01-2.79 1.55 4.63 4.63 0 01-3.17-1.1c-.3-.25-.51-.49-.65-.73-.17-.31-.25-.7-.25-1.15 0-1.58 1.14-3.1 2.68-3.6zm11.05 9.62c-.84-.02-1.68-.07-2.42-.11-.5-.04-.96-.06-1.38-.08a38.5 38.5 0 00-3.81.15c-1.54.11-3.27.23-4.93.2-4.28-.08-6.8-1.2-7.93-3.53a6.95 6.95 0 01-.64-3.5c.05-.6.18-1.16.38-1.67 1.1-2.78 3.92-3.46 6.25-3.74a77.45 77.45 0 0118.23-.05c1.24.15 2.34.33 3.26 1.02 1.5 1.13 2.24 3.75 1.83 6.08.38-2.2-.45-4.6-2.1-5.72a7.3 7.3 0 00-3.44-1.01c-5.6-.61-11.34-.63-16.95-.04-2.21.23-5.3.86-6.49 3.58-.21.5-.35 1.05-.4 1.62-.1 1.15.15 2.33.7 3.33 1.6 2.94 5.43 3.35 8.17 3.4 1.55.04 3.14-.06 4.55-.14 1.17-.07 2.27-.13 3.15-.12l.24.01c.38.02.8.04 1.25.07.7.04 1.5.09 2.32.1 3.1.07 7.37-.3 8.75-4.1.05-.13.09-.27.12-.4-.03.1-.05.22-.09.33-1.3 3.95-5.29 4.39-8.62 4.32zm9.57-4.04c.94-2.89.07-6.48-1.94-8-1.13-.85-2.42-1.06-3.76-1.22-6.1-.71-12.35-.7-18.48.04-2.4.3-5.75 1.06-7.05 4.35-.23.6-.38 1.24-.44 1.93a7.76 7.76 0 00.73 3.97c1.72 3.53 5.85 4.01 8.8 4.07 1.72.04 3.48-.09 5.03-.2 1.29-.09 2.5-.18 3.47-.16l.23.01c.41.02.87.05 1.36.08.75.04 1.6.1 2.46.11 3.4.07 8.08-.37 9.59-4.98z"/><path fill="#000" d="M190.23 105.85c.23-.08.48-.11.74-.1.73 0 1.43.34 1.83.87.13.18.21.35.24.51.03.16 0 .35-.03.57-.06.35-.15.75-.35 1.08-.32.5-.95.86-1.62.9-.65.04-1.35-.2-1.88-.65-.18-.14-.3-.28-.37-.42-.1-.17-.14-.38-.14-.64 0-.93.67-1.82 1.58-2.12zm-1.73 3.89a3.83 3.83 0 002.6.88c1-.06 1.93-.58 2.41-1.36.3-.47.4-1 .48-1.4.04-.28.08-.57.03-.88-.05-.3-.2-.6-.41-.9a3.38 3.38 0 00-3.7-1.12 3.28 3.28 0 00-2.25 3c0 .42.08.78.25 1.09.13.24.33.47.6.69zm-51.88 129.25c.17 0 .33-.12.37-.3a16.7 16.7 0 0111.43-11.87.39.39 0 00-.2-.75 17.25 17.25 0 00-11.97 12.44c-.05.2.07.42.28.47h.09zm-22.96-8.1c1.62 0 3.24-.18 4.82-.54a.39.39 0 00-.17-.75c-4.4 1-9.1.54-13.24-1.3a.38.38 0 00-.5.2c-.09.19 0 .42.2.5a21.87 21.87 0 008.9 1.89z"/><path fill="#000" d="M169.45 229.8c-.85.28-1.72.61-2.57.94a12.76 12.76 0 01-5.97-2.9c-3.5-2.96-3.45-9.53-3.42-13.88 0-.38.01-.74.01-1.08.01-5 .13-10.1.24-15.03.05-2.5.11-5 .15-7.51l.13-6.89a8.05 8.05 0 002.88-4.85 4.75 4.75 0 00-1.16-4.05 4.02 4.02 0 00-1.55-.95l.05-2.78a12.62 12.62 0 00.13-7.68l.34-19.14c.02-1.17.04-2.33.06-3.5.12-6.24.25-12.7.03-19.11-.17-5.33-.27-10.74-.28-16.07 0-.55-.02-1.1-.03-1.65-.09-3.76-.18-7.65 3.34-10.22 1.95-1.43 5.92-2.08 9-2.1 6.55-.03 13.22-.17 19.66-.3 10.89-.22 22.14-.45 33.2-.2 6.7.16 10.68 1.2 11.18 6.1.01.12.02.25.03.38.99 16.24.8 32.86.61 48.93v.57c-.01.24 0 10.9.23 12.33-2.37-.2-4.77-.3-7.2-.4l-.43-.02c-1.47-.07-3.3-.16-4.5.93-1.48 1.35-1.75 4.14-1.57 5.68a6.88 6.88 0 002.93 4.93c1.57 1.04 3.46 1.27 5.29 1.5l.6.07c1.65.21 3.46.58 4.73 1.66-.17.06-.35.12-.52.18l-.32.1c-2.74.96-5.56 1.94-8.05 3.45-2.68 1.62-4.1 3.54-4.23 5.7-.17 2.8 2.01 5 4.25 5.92 2.51 1.03 5.25.72 7.94-.03-.11.69-.04 1.47-.05 2.14-.03 1.23-.05 2.46-.07 3.69l-6.39-1.31a6.92 6.92 0 00-3.13-.15c-.81.22-1.65.84-1.97 1.68a.38.38 0 00-.3.26 8.58 8.58 0 00.46 5.84 3.56 3.56 0 002.18 1.88 88.36 88.36 0 018.74 2.96c-.13 4.48-.2 9.02-.04 13.47v.28c.13 3.23.3 8.1-3.23 9.68-1.91.85-4.66.77-6.87.7-.28 0-.56-.02-.82-.02-.27 0-9.7-.07-10.12.17l-.07-.01c-5.1-.7-12.07-1.67-16.9.68-.73.36-1.4.86-1.98 1.46a23.15 23.15 0 00-5.65-2.39c-6.77-1.88-13.34-1.9-19-.04zm-14.02 2.48a12.4 12.4 0 01-6-6.26c-2.18-5.2-2.32-11.84-.4-18.73a8.36 8.36 0 004-3.42c1.1-2.02.9-5.12-1.18-6.51-.58-.4-1.23-.6-1.9-.73.62-4 2.23-7.7 4.78-10.98a.38.38 0 00.07-.2c.13-.06.26-.11.38-.17.66-.31 1.27-.67 1.83-1.05l-.1 6.1c-.05 2.5-.1 5-.16 7.5a722.6 722.6 0 00-.25 16.12c-.03 4.52-.09 11.35 3.76 14.6a13.7 13.7 0 005.09 2.77c-3.37 1.28-6.8 2.35-9.92.96zm-13.58-35.9c1.6-2.63 3.5-5.08 5.63-7.28.8-.83 1.52-1.48 2.33-1.94.25-.07.5-.15.75-.22a52 52 0 002.99-.99 24.19 24.19 0 00-4.35 10.58c-.48-.04-.95-.06-1.39-.07-1.9-.04-3.9-.1-5.96-.09zm-10.82.62c.46-.4.9-.8 1.37-1.1a92.03 92.03 0 0115.2-8c-.23.22-.45.44-.66.65-2.3 2.36-4.3 5-5.99 7.83-3.3.03-6.72.22-10.1.78.06-.05.12-.1.18-.16zm-10.98 3.7c-2.48 1.35-4.75 3.09-6.94 4.77l-5.54 4.24c-.36.28-.73.56-1.1.84.97-2 2.05-4.03 3.11-6 1.3-2.43 2.66-4.94 3.77-7.43.95-2.13 1.94-4.34 3.42-6.17 1.45-1.8 3.34-3.2 5.17-4.43a74.94 74.94 0 0132.23-12.33c.65-.08 1.32-.14 1.97-.13.12.07.26.07.38.01 1.03.07 1.99.34 2.68 1.04.78.77 1.14 2.03.95 3.38-.34 2.4-2.32 4.68-5.3 6.09-1.43.68-3 1.15-4.51 1.61-.1.04-.2.07-.31.1a.37.37 0 00-.26.02c-.08.04-.17.09-.25.13-.96.3-1.94.62-2.89 1-1.15.48-2.34 1-3.55 1.58l-.02-.01a6.01 6.01 0 01-1.71-2.03.38.38 0 00-.52-.16.39.39 0 00-.16.52c.41.78.98 1.48 1.66 2.05a102.31 102.31 0 00-10.75 6.15.37.37 0 00-.13-.02 4.8 4.8 0 01-3.16-1.22.38.38 0 00-.54.03c-.14.16-.12.4.03.55.82.73 1.87 1.2 2.96 1.35-.07.07-.14.13-.21.19-.43.38-.85.74-1.28 1.03-3.2.65-6.31 1.67-9.2 3.25zM152 163.93a26 26 0 01.7-.74c.1-.04.19-.11.23-.22.43-.4.88-.76 1.4-1 .79-.36 1.9-.45 2.6.19.18.17.33.37.45.6v.03h.02c.16.33.27.68.35.98.86 3.22.26 6.76-1.58 9.52-.7-.02-1.42.05-2.1.14-4.65.6-9.27 1.67-13.78 3.17L152 163.93zm5.04 9.42c.06-.09.1-.18.16-.26l-.01.28c-.05-.01-.1-.02-.15-.02zm84.23-12.55c1.05.36 2.04.91 2.78 1.36 5.05 3.02 8.54 7.1 9.9 11.52a26.6 26.6 0 00-9.63-2.04c-2.72-.05-5.35.71-7.92 1.58-1.43-1.44-3.54-1.9-5.45-2.14l-.61-.07c-1.74-.22-3.54-.44-4.97-1.38a6.1 6.1 0 01-2.58-4.37c-.2-1.67.2-4 1.32-5.01.97-.88 2.63-.8 3.95-.74l.44.02c3.08.12 6.1.26 9.07.58 1.27.13 2.51.29 3.7.7zm-5.38 45.8c.82 4.03 1.45 8.11 1.9 12.21a.38.38 0 00.04.35c.12 1.21.24 2.42.33 3.63.22 2.69.18 5.42-1.53 7.1-1.27 1.25-3.24 1.58-4.8 1.73-4.75.43-9.56-.2-14.22-.88.34.03.57.05.62.05.26 0 5.44.1 5.72.1.38.01.77.03 1.17.03 2.06.04 4.37-.02 6.16-.82 4.12-1.83 3.93-7.08 3.8-10.56l-.01-.28c-.15-4.3-.09-8.7.03-13.03.27.11.53.22.79.34v.04zm70.51 154.08c-4.43-18.4-17.85-55.62-28.78-72.04-1.18-1.78-2.5-3.62-4.36-4.84-.5-.33-1.03-.6-1.54-.87a9.84 9.84 0 01-2.28-1.45c-1.14-1.07-1.68-2.57-2.24-4.16-.4-1.15-.83-2.34-1.51-3.37-1.9-2.92-5.32-4.05-8.61-5.13-.58-.2-1.15-.38-1.7-.58-5.9-2.07-11.1-6.12-16.13-10.04a114.5 114.5 0 00-8.2-6c-8.76-5.63-13.06-7.32-28.77-9.42-.9-.12-1.52-.47-2.25-.87-.2-.11-.41-.23-.63-.34.2-.62.23-1.34.1-2.16-.48-3.06-2.49-5.24-4.75-6.76a6.25 6.25 0 011.65-1.18c4.63-2.25 11.47-1.3 16.47-.62l.9.13c.99.13 1.97.27 2.96.42 4.95.71 10.07 1.46 15.16.99 1.7-.16 3.83-.52 5.28-1.95 1.93-1.9 1.97-4.97 1.75-7.72-.08-1.04-.18-2.09-.28-3.13a16.46 16.46 0 018.33 8.5.38.38 0 00.5.2c.2-.08.29-.3.2-.5a17.22 17.22 0 00-9.12-9.08c-.43-3.95-1.04-7.9-1.82-11.77 1.68.74 3.33 1.54 5.2 2.45 7 3.38 11.18 7.14 13.15 11.8a31.08 31.08 0 011.51 5.32 77.84 77.84 0 005.71 16.9.38.38 0 00.51.19c.2-.1.27-.32.18-.52a77.04 77.04 0 01-5.65-16.74c-.4-1.82-.82-3.7-1.56-5.45-2.01-4.78-6.44-8.78-13.52-12.2-5.42-2.62-9-4.35-16.67-6.57-.72-.21-1.3-.72-1.71-1.5a7.71 7.71 0 01-.58-4.55c.2-.02.36-.19.36-.4-.03-.82.76-1.51 1.54-1.72.9-.23 1.9-.02 2.79.16l12.77 2.6c2.67.56 5.44 1.12 8.1 1.85a63.4 63.4 0 0116.46 7.15c.07.04.14.06.2.06.13 0 .26-.07.33-.2a.39.39 0 00-.13-.52 64.12 64.12 0 00-16.65-7.23c-2.7-.74-5.47-1.3-8.16-1.86l-5.57-1.14v-.02c-.01-1.44-.03-2.87-.06-4.3 0-.42.14-1.32-.04-1.85 1.4-.43 2.78-.95 4.1-1.46.84-.33 1.64-.63 2.4-.9.2-.07.31-.29.24-.49a.38.38 0 00-.48-.24c-.78.27-1.58.58-2.43.9-3.92 1.5-8.35 3.21-12.07 1.68-1.99-.82-3.93-2.73-3.78-5.16.1-1.88 1.4-3.6 3.86-5.08 2.42-1.46 5.2-2.43 7.9-3.37l.33-.11c.32-.11.64-.23.97-.34.1.02.22-.01.3-.09l.02-.02c2.51-.85 5.09-1.61 7.7-1.55a25.57 25.57 0 0115.52 5.64c4.04 3.27 5.77 8.52 7.44 13.6.16.48.32.96.48 1.43 2.18 6.5 4.25 12.34 7.57 18.02.4.69.8 1.37 1.2 2.05 2.93 4.99 5.7 9.7 7.92 14.94.96 2.25 1.87 4.55 2.75 6.78 1.47 3.72 3 7.57 4.76 11.24a95.78 95.78 0 0010.04 16.45c.6.78 1.2 1.56 1.79 2.34.07-.3.18-.58.32-.85-.5-.65-1-1.3-1.5-1.96a94.94 94.94 0 01-9.96-16.31c-1.76-3.65-3.27-7.49-4.74-11.2-.88-2.23-1.8-4.54-2.75-6.8-2.25-5.28-5.16-10.23-7.98-15.03-.4-.68-.8-1.36-1.2-2.04-3.27-5.62-5.33-11.42-7.5-17.88-.16-.47-.31-.95-.47-1.43-1.71-5.18-3.48-10.54-7.69-13.96a25.68 25.68 0 00-5.45-3.38V174c-1.3-4.82-5-9.26-10.42-12.5a15.6 15.6 0 00-2.92-1.43c-1.26-.43-2.6-.6-3.86-.73-.4-.05-.8-.08-1.2-.11.2-1.53.03-12.15.03-12.39l.01-.56c.19-16.1.38-32.73-.6-49-.02-.14-.03-.29-.04-.43-.63-6.16-6.6-6.8-12.15-6.94a781.08 781.08 0 00-33.24.2c-6.44.13-13.1.26-19.65.3-3 .01-7.32.62-9.6 2.3-3.91 2.86-3.81 6.98-3.72 10.97.01.55.02 1.1.02 1.64.02 5.34.12 10.76.3 16.1.2 6.38.08 12.83-.04 19.06-.02 1.17-.05 2.33-.07 3.5l-.3 17.57c-.97-.83-2.4-.75-3.39-.28l-1.42 1.18h-.01v.01l-1.14.94-12.69 13.73a77.3 77.3 0 00-17.24 8.74 23.82 23.82 0 00-5.34 4.59c-1.54 1.9-2.55 4.16-3.52 6.34-1.1 2.46-2.45 4.97-3.75 7.39-1.3 2.43-2.66 4.94-3.77 7.43-3.48 2.9-6.7 6.63-8.12 14.44-.04.21.1.42.3.45l.07.01c.19 0 .35-.13.38-.32 1.7-9.32 6.05-12.65 10.26-15.87l5.54-4.24a54.34 54.34 0 016.84-4.71c2.8-1.54 5.8-2.53 8.86-3.16.1.02.2 0 .3-.05l.03-.02c6.04-1.2 12.37-1.05 18.2-.91 1.15.02 2.58.06 3.63.76 1.73 1.16 1.87 3.77.93 5.5-1.12 2.02-3.36 3.08-5.04 3.62-2.33.74-4.88.98-7.35 1.2-.44.04-.88.08-1.31.13l-.09-.02a.38.38 0 00-.12.04c-3.19.32-6.4.82-9.13 2.6a24.5 24.5 0 00-3.05 2.48c-1.65 1.5-3.21 2.91-5.23 3.41a.39.39 0 00.18.76c2.2-.55 3.91-2.1 5.56-3.6.94-.85 1.9-1.73 2.95-2.4 2.52-1.64 5.42-2.14 8.5-2.46.05.92.02 1.84-.08 2.74-.02.21.13.4.34.43h.04c.2 0 .36-.14.38-.34.1-.96.13-1.93.09-2.9.34-.03.69-.07 1.04-.1 2.5-.23 5.1-.47 7.51-1.23.2-.07.4-.13.6-.2-1.8 6.84-1.6 13.45.57 18.66a13.22 13.22 0 006.4 6.67c3.74 1.66 7.73.13 11.59-1.36.98-.38 2-.77 2.98-1.1 5.51-1.8 11.93-1.79 18.56.06 1.34.37 3.55 1.11 5.6 2.38l.04.06c.05.05.12.07.18.08 2.23 1.43 4.23 3.5 4.68 6.42.11.7.09 1.29-.06 1.78a.38.38 0 00-.26.2.38.38 0 00.01.34c-.94 1.5-3.13 1.32-5.5.97-6.16-.92-13.12.47-21.28 4.24-1.85.85-3.8 1.83-5.48 3.2-1.53 1.24-2.81 2.77-4.05 4.25-.23.27-.45.54-.68.8-8 9.44-16.6 17.42-25.55 23.74a84.76 84.76 0 01-6.2 3.95c-5.63 3.33-7.96 4.7-14.25 18.69-.16.36-.5 1.12-1.01 2.22-12.3 26.94-20.04 44.9-24.9 56.87h.83c4.85-11.95 12.57-29.82 24.76-56.54.5-1.1.85-1.87 1.02-2.23 6.19-13.76 8.46-15.1 13.94-18.35a85.33 85.33 0 006.25-3.98c9-6.35 17.65-14.38 25.69-23.86.23-.27.45-.54.68-.81a29.89 29.89 0 013.94-4.15 25.04 25.04 0 015.33-3.1c8.02-3.7 14.84-5.07 20.85-4.18 1.99.3 4.97.73 6.25-1.31.2.1.4.21.6.32.75.42 1.47.82 2.5.96 15.58 2.07 19.83 3.75 28.46 9.3 2.77 1.77 5.5 3.9 8.16 5.97 5.07 3.95 10.32 8.03 16.33 10.15.57.2 1.14.39 1.72.58 3.17 1.05 6.45 2.13 8.21 4.82.63.96 1.04 2.1 1.43 3.22.57 1.6 1.16 3.26 2.44 4.46.73.68 1.6 1.13 2.45 1.57.5.26 1.01.53 1.48.83 1.74 1.14 3 2.9 4.14 4.62 10.86 16.33 24.2 53.33 28.65 71.71.14 0 .28 0 .42.02.12 0 .23 0 .35 0 0-.04 0-.07 0-.12zm-161.2-259.77a9.47 9.47 0 00-.87-4.43 5.73 5.73 0 00-3.65-3.05c1.2-.69 2.25-1.56 3.17-2.61.88-.86 1.25-2.02 1.54-3.22.29-1.15.55-2.3.81-3.47a17.2 17.2 0 004.5 11.48c-3-.14-4.6 2.61-5.5 5.3zm6.16-5.19a16.8 16.8 0 01-4.65-13.83c.03-.22-.32-.26-.37-.05l-1.05 4.66c-.31 1.4-.57 2.89-1.5 3.99a.17.17 0 00-.23.04 12.02 12.02 0 01-3.56 2.82c-.14.07-.12.34.05.37 4.3.6 5.11 5.53 4.6 9.12-.04.25.3.36.37.1.75-2.97 2.23-7.5 6.14-6.88.19.03.35-.18.2-.34zm-2.82-19.16a23.11 23.11 0 01-.5-5.24c0-.23-.31-.21-.34 0-.11.86-.32 1.68-.6 2.5-.28.77-.93 2.59-1.9 2.66-.14.02-.14.24 0 .24.87-.03 1.26-.92 1.63-1.59.39-.7.67-1.44.88-2.21.05 1.26.22 2.5.52 3.73.05.2.35.11.31-.09zm-3.48 32.31a7.07 7.07 0 01-.86 1.5c-.48-1.23-.94-2.46-1.42-3.69-.06-.14-.28-.08-.23.07.47 1.33.97 2.65 1.45 3.98.04.1.18.17.26.07.46-.55.81-1.14 1.09-1.8.07-.17-.22-.3-.3-.13zm-13.39-20.6c-2.38-.88-4.73-1.83-7.06-2.87-.61-.27-1.14.65-.53.92a56.66 56.66 0 007.4 2.68c.47.14.64-.56.2-.73zm-.86 4.9c-2.33.13-4.64.64-6.85 1.41-.64.23-.37 1.25.29 1.04 2.2-.71 4.4-1.26 6.66-1.76.38-.09.3-.71-.1-.7zm1.37 5.56c-1.96 1.73-3.9 3.53-5.77 5.36-.48.46.23 1.17.71.72 1.91-1.79 3.8-3.63 5.62-5.51.37-.38-.17-.9-.56-.57zm122.6 1.36c-1.74 1.38-3.29 2.9-5.2 4.08a19.4 19.4 0 00-4.24 3.38c-.36.4.18.91.58.59 3.18-2.57 6.97-4.07 9.72-7.18.54-.6-.25-1.34-.85-.87zm4.48 20.8a59 59 0 00-12.67-8.98c-.37-.2-.65.32-.32.57 4.13 3.07 8.21 6.18 12.3 9.3.52.4 1.14-.45.69-.88z"/><path fill="#000" d="M251.1 129.34c-.8-1.5-1.6-3.01-2.41-4.5-.47-.86-.93-1.72-1.4-2.57-.13-.24-.87-1.27-1.05-1.73l.03-.06c.08-.19.06-.4-.13-.51-.04-.02-.08-.04-.11-.07-.24-.13-.49 0-.58.24-.35.93.95 2.5 1.34 3.27 1.11 2.17 2.25 4.32 3.4 6.46.33.6 1.22.07.9-.53z"/></g><g mask="url(#b)"><path fill="#FFF" d="M309.22 182.1c.61.55 1.29 1.03 2.01 1.4.63.3 1.1.38 1.43.2a.36.36 0 01.26-.03l.06-.08c-1.32-.29-2.56-.76-3.76-1.5z"/><path fill="#B3B3B3" d="M328.89 182.38c-.12.26-.21.5-.21.7 0 .17.1.35.24.48.16.13.34.19.5.16.13-.01.24.03.32.11l5.3-8.25a35.4 35.4 0 012.39-3.4c2.03-2.47 4.68-4.34 7.25-6.14a88.26 88.26 0 003.09-2.25 37.6 37.6 0 00-18.88 18.6z"/><path fill="#FFF" d="M383.68 290.66c-.05 0-.1.01-.14.01 0 .04 0 .08.02.11a.6.6 0 01.12-.12z"/><path fill="#FC8181" d="M371.6 294.45c-3.7.3-7.4.44-11.08.35.01.03.03.06.03.1.23 3.25.25 6.53.32 9.8.05 2.18.55 4.84-.4 6.9 1.72-.04 3.44-.1 5.13-.17 6.54-.27 13.22-.78 19.65-2.08 2.25-.45 1.47-3.29 1.28-4.87a60.54 60.54 0 00-2.55-11.68c-1.8.68-3.97.72-5.86.96-2.17.26-4.34.5-6.52.69z"/><path fill="#FFF" d="M350.5 87.8c.27.42.89.85 1.67.85h.05c.8-.02 1.46-.48 1.76-.93.32-.48.38-1.03.43-1.65.11-1.5.17-3.02.17-4.52 0-1.24-.36-3.08-.66-4.55l-.04-.22c-.13-.62-.16-.75-.84-1.19a2.84 2.84 0 00-1.46-.38c-.59 0-1.08.16-1.36.44-.31.3-.33.7-.33 1.2.02 3.07.1 6.2.23 9.3.03.56.05 1.15.37 1.64z"/><path fill="#4B5668" d="M331.45 82.86c.05-.65.2-1.28.37-1.93.37-1.43.9-2.2 2.04-2.96a6.16 6.16 0 013.4-1.1c1.24 0 3.09.34 4.16 1.3a6.14 6.14 0 012.05 4c.03.39.02.78-.03 1.16-.26 2.1-1.25 3.7-2.8 4.53-.84.45-1.94.7-3.12.7a7.51 7.51 0 01-3.86-1 5.15 5.15 0 01-2.2-4.7zm-1 4.8c.03.81.7 1.46 1.51 1.46v.2l.03-.2c3.75-.08 7.46-.19 11.33-.33.83-.03 1.5-.74 1.49-1.59-.02-.7-.02-1.4-.03-2.1-.03-2.3-.05-4.7-.23-7.26a1.55 1.55 0 00-1.54-1.45h-.07c-2.9.13-5.45.15-8.16.17-1 .01-2.04.02-3.11.03a1.59 1.59 0 00-1.55 1.65c.05 1.52.1 3.08.16 4.63.05 1.6.1 3.21.16 4.78z"/><path fill="#F7AE55" d="M333.86 87.24c.96.59 2.29.93 3.66.93 1.12 0 2.16-.23 2.94-.65 1.43-.77 2.36-2.27 2.6-4.24.05-.36.06-.72.03-1.07a5.76 5.76 0 00-1.92-3.75c-.94-.83-2.64-1.2-3.92-1.2a5.83 5.83 0 00-3.2 1.04 4.03 4.03 0 00-1.86 2.73 10.5 10.5 0 00-.36 1.86 4.75 4.75 0 002.03 4.35z"/><path fill="#E9D8FD" d="M328.4 75.27c.48-.52 1.14-.8 1.83-.81 1.34-.02 2.61-.03 3.86-.04 3.34-.02 6.49-.04 10.05-.2 1.39-.07 2.54 1 2.64 2.36.21 3.19.25 6.15.28 9.03 0 .85.02 1.7.03 2.57a2.55 2.55 0 01-2.43 2.6c-4.79.18-9.37.3-14 .4h-.06a2.5 2.5 0 01-2.49-2.4c-.08-1.94-.14-3.92-.2-5.9-.07-1.92-.14-3.85-.2-5.73-.04-.7.21-1.37.7-1.88zm21.42-.04c.4-.38 1.02-.6 1.76-.6.66 0 1.3.18 1.77.47.84.55.94.83 1.09 1.57l.04.22c.3 1.49.67 3.37.67 4.66 0 1.51-.05 3.05-.17 4.57a3.8 3.8 0 01-.53 1.92 2.81 2.81 0 01-2.21 1.2h-.07a2.6 2.6 0 01-2.16-1.13 3.73 3.73 0 01-.46-1.94c-.13-3.1-.21-6.23-.23-9.32 0-.44-.01-1.11.5-1.62zm-43.38 102.4c.14.34.28.69.43 1.03.4.7.89 1.3 1.49 1.8a11.28 11.28 0 005.18 2.4c1.68-2.28 3-4.9 3.95-7.82.21-.65.41-1.33.6-1.99.78-2.65 1.57-5.4 3.51-7.4a16.54 16.54 0 014.25-2.87c7.12-3.82 14.48-7.76 22.58-9.43 1.22-.25 2.63-.48 3.97-.07 1.12.34 2.23 1.29 2.5 2.52.68-.66 1.5-1.12 2.5-1.12 1.27 0 2.5.83 3.15 2.12a6.4 6.4 0 01.48 3.74c-.54 4.3-3.45 7.6-6.27 10.8-1.53 1.74-3.12 3.55-4.31 5.49a39.58 39.58 0 00-1.99 3.89c-.3.65-.6 1.3-.93 1.96 1.93-.16 15.82.06 16.04.06.23 0 .48 0 .73.01 1.95.02 4.38.05 6.07-.74 3.09-1.45 2.85-5.74 2.69-8.58v-.26c-.3-5.2-.23-10.55-.16-15.71v-.09a.4.4 0 01.17-.31c.42-16.45.35-33.12-.24-49.55 0-.1.04-.2.1-.27v-.02c-.11-14.17-.22-28.83-1.37-43.13-.01-.12-.02-.23-.04-.34-.52-4.3-4.06-5.16-10-5.17-9.77-.04-19.72.36-29.34.75-5.7.22-11.59.46-17.38.6-2.72.07-6.22.72-7.93 2.01-3.06 2.33-2.91 5.76-2.77 9.07.02.49.04.97.05 1.45.1 4.7.28 9.47.53 14.17.3 5.64.3 11.34.3 16.85 0 1.03 0 2.06 0 3.09l.07 40.86c0 2.21 0 4.42-.01 6.63v.96c4.64-2.03 8.41-2.26 14.37-2.47.65-.03 1.34.33 1.8.92.42.55.44 1.3.42 1.8a8.91 8.91 0 01-4.73 7.46c-.61.31-1.26.55-1.88.78a16.44 16.44 0 00-2.64 1.17c-1.01.5-1.87.91-2.7 1.69-1.11 1.03-2.23 2.23-3.31 3.4-.4.42-.8.85-1.2 1.28.08 1.77.27 3.68.78 5.38l.49 1.2z"/><path fill="#FFF" d="M330.27 76.82c.37-.39.86-.6 1.4-.62 1.07 0 2.1-.02 3.11-.02 2.7-.02 5.26-.04 8.15-.17a1.93 1.93 0 012 1.8c.18 2.57.2 4.97.23 7.3.01.69.02 1.38.03 2.09a1.95 1.95 0 01-1.86 1.98c-3.87.14-7.58.25-11.33.33h-.04a1.9 1.9 0 01-1.9-1.84c-.06-1.57-.11-3.18-.17-4.78-.05-1.56-.1-3.11-.16-4.63-.02-.54.17-1.05.54-1.44zm-1.4 11.92c.04.94.8 1.68 1.73 1.68h.04c4.63-.1 9.2-.24 13.99-.41a1.78 1.78 0 001.7-1.81c-.01-.87-.03-1.73-.04-2.59-.03-2.86-.06-5.81-.28-8.98a1.77 1.77 0 00-1.75-1.65h-.09c-3.57.17-6.73.2-10.07.22-1.25 0-2.52.01-3.86.03-.49 0-.94.2-1.28.57-.34.36-.51.82-.5 1.32.08 1.88.14 3.81.21 5.74.06 1.97.13 3.95.2 5.88zm-24.53 83.17c-.06.06-.12.12-.17.18l.22.55c-.02-.24-.04-.49-.05-.73z"/><path fill="#FC8181" d="M357.48 305.57c-.11.83-.2 2.08-.98 2.6-1.66 1.12-3.58-.47-3.71-2.25-.06-.9 0-3.18.9-3.84.39-1.56 2.78-1.53 3.45.03.48 1.1.5 2.27.34 3.46zm2.1 5.65c1.07-2.22.4-5.7.36-8.03-.03-2.76-.13-5.53-.03-8.29 0-.04 0-.08.02-.12a67.43 67.43 0 01-15.38-2.17c-.15 1.42.08 3.61.08 4.16 0 1.48 0 2.96 0 4.44 0 1.73-.01 3.46-.02 5.2 0 1.9-.04 4.22 2.33 4.56 3.98.57 8.1.7 12.19.65.03-.25.23-.39.45-.4z"/><path fill="#FED7D8" d="M355.95 323.03a52 52 0 00-.2 5.83c.04.97.07 1.95.16 2.92.03.53.1 1.04.26 1.55.82.14 1.62.28 2.43.41a84.2 84.2 0 00.6-21.15c-.6 0-1.2 0-1.8-.02.23 3.45-1.16 7.03-1.45 10.46z"/><path fill="#E6E6E6" d="M356 302.18c-.36.11-.73.22-1.1.32a.26.26 0 01-.3.09h-.02c-.02.4-.4.54-.68.4-.36.75-.37 2.2-.34 2.54.1.93.83 2.59 2.11 2.06.92-.37.93-2.19.94-2.98 0-.45.04-.98-.09-1.42a1.86 1.86 0 00-.51-1z"/><path fill="#DBBBAB" d="M348.68 292.5c1.85.32 3.7.59 5.56.75 3.37.3 6.73.4 10.1.3 3.4-.1 6.79-.33 10.16-.7 1.87-.22 3.74-.44 5.6-.7.72-.1 1.44-.2 2.15-.31.22-.03.44-.08.66-.13-2.64-19.12-4.63-37.66-4.15-49.52.02-.58.04-1.17.07-1.76.35-7.97.7-16.2-3.05-23.05-.97-1.78-2.22-3.43-3.42-5.03l-12.54-16.67c-1.5-1.98-3.09-3.66-4.63-5.27-.79-.83-1.57-1.65-2.32-2.5.02 0-2.27-3.26-3-4.3-1.6 0-2.7 0-2.76 0l-.05-.02a17.5 17.5 0 01-1.84 2.83l1.97 2.42c.22.28.47.59.64.96.23.5.27 1.04.31 1.52l.25 3a32.75 32.75 0 006.35 5.29c.67.43 1.37.84 2.04 1.24 1.24.72 2.51 1.47 3.68 2.36 3.86 2.92 6.47 7.28 8.78 11.13a.38.38 0 01-.33.59.38.38 0 01-.33-.19c-2.27-3.79-4.84-8.08-8.58-10.91a36.32 36.32 0 00-3.6-2.32c-.68-.4-1.4-.81-2.07-1.25a33.38 33.38 0 01-6.39-5.3.36.36 0 01-.28-.3.37.37 0 01-.05-.43l-.23-2.84a3.79 3.79 0 00-.24-1.27c-.13-.28-.34-.54-.54-.79l-2.18-2.67a.4.4 0 01.01-.5c1.41-1.63 2.4-3.74 3.34-5.77a39.04 39.04 0 012.03-3.97c1.23-2 2.83-3.82 4.39-5.6 2.86-3.25 5.57-6.32 6.08-10.38.17-1.3.03-2.42-.4-3.29-.51-1.01-1.5-1.7-2.47-1.7-1.64 0-2.7 1.65-3.75 3.25-.13.2-.25.39-.38.58-2.07 3.1-5.17 5.28-8.15 7.39-2.53 1.78-5.14 3.62-7.1 6-.86 1.04-1.6 2.2-2.33 3.33l-7.03 10.95a.38.38 0 01-.53.11.39.39 0 01-.11-.53l1.3-2.03c-.31-.01-.63-.13-.89-.35a1.42 1.42 0 01-.52-1.05c0-.38.13-.7.29-1.04a37.7 37.7 0 0121.43-19.85h.04a18.37 18.37 0 002.97-3.36c.12-.19.25-.38.38-.58.37-.57.76-1.17 1.2-1.71a.34.34 0 01-.03-.16c.03-1.14-1.01-2.07-2.01-2.38-1.17-.36-2.48-.14-3.6.1-7.98 1.64-15.3 5.55-22.37 9.34a15.98 15.98 0 00-4.06 2.74c-1.8 1.86-2.58 4.51-3.32 7.07-.2.66-.4 1.35-.61 2a27.7 27.7 0 01-4.97 9.22.37.37 0 01-.3.14.37.37 0 01-.24-.09l-.02-.03c-.14.04-.29.06-.44.06-.4 0-.85-.13-1.36-.39a9.8 9.8 0 01-4.39-4.49 10.94 10.94 0 01-1.6-3.79l-1.32-3.23c-.19.18-.37.36-.56.53a.38.38 0 01-.54-.02.39.39 0 01.03-.55c1.1-1.02 2.22-2.23 3.3-3.4 1.1-1.17 2.22-2.38 3.34-3.43a11 11 0 012.9-1.81c.26-.13.54-.27.83-.42.6-.31 1.26-.55 1.88-.78.6-.23 1.22-.46 1.8-.75 2.46-1.27 4.2-4 4.3-6.8.03-.62-.05-1.02-.26-1.3a1.5 1.5 0 00-1.17-.62c-6.3.22-10.12.47-15.15 2.9-5.18 2.48-8.63 7.63-11.4 11.77-1.5 2.23-2.75 4.26-2.81 6.56-.06 1.92.73 3.73 1.6 5.58a123.3 123.3 0 005.12 9.58.4.4 0 01-.13.53.4.4 0 01-.2.05.39.39 0 01-.33-.19 120.98 120.98 0 01-5.14-9.64c-.89-1.85-1.74-3.84-1.69-5.93.08-2.5 1.43-4.73 2.94-6.97a69.82 69.82 0 014.29-5.92.39.39 0 01-.23-.5c.53-1.46.58-3.98-.27-5.48a2.44 2.44 0 00-1.71-1.29c-.86-.16-1.69.48-2.18 1.13-.3.4-.55.86-.8 1.34-.23.41-.45.83-.72 1.23a22.41 22.41 0 01-2.6 2.96c-.7.7-1.4 1.4-2 2.16-1.54 1.94-2.03 4.35-2.51 6.68-1.4 6.87-2.24 14.9-.74 16.29l1.77 1.63c5.13 4.76 10.95 10.15 15.91 14.9 3.87 3.71 8.33 6.73 12.57 9.5.82.55 1.63 1.07 2.44 1.6 8.48 5.52 16.48 10.73 23.29 19 3.96 4.8 7.03 11.21 8.64 18.05 1.33 5.61.88 10.94.4 16.58-.06.8-.13 1.61-.2 2.43a671.34 671.34 0 00-1.34 22.14c.1.02.2.05.31.07.7.15 1.41.3 2.12.43z"/><path fill="#FC8181" d="M386.62 310.23c-1.53.74-3.78.7-5.44.93a150.58 150.58 0 01-20.87 1.44c.42 4.93.48 9.9.06 14.84-.17 2.07-.15 4.58-.8 6.58-.36 1.1-.96 1.66-2.14 1.6-3.4-.14-2.65-6.95-2.59-8.95.08-2.22.25-4.45.61-6.65.4-2.46 1.28-4.95 1.3-7.46-1.97-.05-3.94-.13-5.9-.26-1.4-.1-4.13.05-5.76-.89.1 2.62.09 5.25.1 7.88-.1 2.28-3.4 40.27-3.2 40.9h52.2c-2.08-16.91-6.07-33.37-6.95-50.4-.17.17-.38.32-.62.44z"/><path fill="#FED7D8" d="M366.18 318.35a2.25 2.25 0 00-2.23 2.25 2.25 2.25 0 002.23 2.24 2.25 2.25 0 002.22-2.24 2.25 2.25 0 00-2.22-2.25zm12.43 10.48c-1.57 0-1.57 2.46 0 2.46s1.57-2.46 0-2.46zm-12.84 8.9c-1.7 0-1.7 2.67 0 2.67s1.7-2.67 0-2.67zm-15.3 2.8c-1.7 0-1.7 2.66 0 2.66s1.7-2.67 0-2.67zm-1.8 16.06c-2.9 0-2.9 4.47 0 4.47s2.9-4.47 0-4.47zm36.5-10.77a2.71 2.71 0 00-2.67 2.7 2.7 2.7 0 002.67 2.7 2.7 2.7 0 002.67-2.7c0-1.48-1.21-2.7-2.67-2.7zm-24.75.9a3.16 3.16 0 00-3.12 3.14 3.16 3.16 0 003.12 3.15c1.7 0 3.12-1.43 3.12-3.15a3.16 3.16 0 00-3.12-3.15zm12.64 5.42a2.28 2.28 0 00-2.24 2.27 2.28 2.28 0 002.24 2.26 2.28 2.28 0 002.24-2.26 2.28 2.28 0 00-2.24-2.27zm9-35.66c-1.81 0-1.81 2.82 0 2.82 1.8 0 1.8-2.82 0-2.82zm-15.7-18.31c-1.74 0-1.74 2.73 0 2.73 1.75 0 1.75-2.73 0-2.73zm13.59 4.87c-1.13 0-2.08.95-2.08 2.1 0 1.15.95 2.1 2.08 2.1 1.14 0 2.08-.95 2.08-2.1a2.1 2.1 0 00-2.08-2.1zM348.2 319.5c-1.63 0-1.63 2.56 0 2.56s1.63-2.56 0-2.56zm1.72-23.11c-1.18 0-2.16.99-2.16 2.17 0 1.19.98 2.18 2.16 2.18a2.18 2.18 0 000-4.35zm21.8 13.18c-1.73 0-1.73 2.71 0 2.71 1.74 0 1.74-2.71 0-2.71zm5.98 30.61a2.27 2.27 0 00-2.24 2.26 2.27 2.27 0 002.24 2.26 2.27 2.27 0 002.23-2.26 2.27 2.27 0 00-2.23-2.26z"/><path fill="#000" d="M305.16 170.97c-.25.3-.53.5-.84.64.2 3.5.9 7.38 3.47 9.47a12.2 12.2 0 005.55 2.6c.16-.28.38-.53.63-.74a11.35 11.35 0 01-5.61-2.49c-2.47-2-3.04-6-3.2-9.48zm68.65-63.76c-.11-14.18-.23-28.85-1.38-43.18-.01-.13-.02-.26-.04-.38-.66-5.42-5.95-5.89-10.86-5.9-9.8-.03-19.75.36-29.39.75-5.69.22-11.58.46-17.37.6-2.65.07-6.46.68-8.44 2.2-3.41 2.59-3.26 6.22-3.1 9.74.01.48.03.97.04 1.44.1 4.71.29 9.48.54 14.19.29 5.62.29 11.31.29 16.81 0 1.03 0 2.06 0 3.09l.07 40.87c0 2.2 0 4.41 0 6.62 0 .59-.01 1.18-.01 1.77.28-.2.58-.31.87-.36 0-.47 0-.94 0-1.4.02-2.22.02-4.43.02-6.64l-.07-40.86c0-1.03 0-2.06 0-3.09 0-5.5 0-11.2-.3-16.85-.25-4.7-.43-9.46-.53-14.17 0-.48-.03-.96-.05-1.45-.14-3.31-.29-6.74 2.77-9.07 1.7-1.3 5.21-1.94 7.93-2 5.8-.15 11.68-.39 17.38-.61 9.62-.39 19.57-.79 29.35-.75 5.93.01 9.47.87 10 5.17 0 .1.02.22.03.34 1.15 14.3 1.26 28.96 1.37 43.13v.5c0 .23.2.41.44.41.25 0 .45-.19.45-.42l-.01-.5zm-25.78 87.77a.39.39 0 01-.39-.35l-.26-3.24a3.79 3.79 0 00-.24-1.27c-.13-.28-.34-.54-.54-.79l-2.18-2.67a.4.4 0 01.01-.5c1.41-1.63 2.4-3.74 3.34-5.77a39.04 39.04 0 012.03-3.97c1.23-2 2.83-3.82 4.39-5.6 2.86-3.25 5.57-6.32 6.09-10.38a5.7 5.7 0 00-.42-3.29c-.5-1.01-1.49-1.7-2.46-1.7-1.64 0-2.7 1.65-3.75 3.25-.13.2-.25.39-.38.58-2.07 3.1-5.17 5.28-8.15 7.39-2.53 1.78-5.14 3.62-7.1 6-.86 1.04-1.6 2.2-2.33 3.33l-7.03 10.95a.38.38 0 01-.53.11.39.39 0 01-.11-.53l7.03-10.95a35.4 35.4 0 012.38-3.4c2.03-2.47 4.68-4.34 7.25-6.14 2.93-2.07 5.96-4.2 7.96-7.2.12-.18.25-.37.38-.57 1.09-1.68 2.32-3.58 4.38-3.59h.01c1.26 0 2.5.83 3.14 2.12a6.4 6.4 0 01.48 3.74c-.54 4.3-3.45 7.6-6.27 10.8-1.53 1.74-3.12 3.55-4.31 5.49a39.58 39.58 0 00-1.99 3.89c-.92 1.98-1.87 4.03-3.24 5.7l1.97 2.42c.22.28.47.59.64.96.23.5.27 1.04.31 1.52l.27 3.24c.02.22-.14.4-.35.42h-.03z"/><path fill="#000" d="M312.96 184.63a.39.39 0 01-.3-.63 26.97 26.97 0 004.83-8.96c.21-.65.41-1.33.6-1.99.78-2.65 1.57-5.4 3.51-7.4a16.5 16.5 0 014.25-2.87c7.12-3.82 14.5-7.76 22.58-9.43 1.22-.25 2.63-.48 3.97-.07 1.3.4 2.6 1.6 2.55 3.15 0 .21-.17.37-.4.37a.39.39 0 01-.36-.4c.03-1.14-1.01-2.07-2.01-2.38-1.17-.36-2.47-.14-3.6.1-7.98 1.64-15.3 5.55-22.37 9.34a15.98 15.98 0 00-4.06 2.74c-1.8 1.86-2.58 4.51-3.32 7.07-.2.66-.4 1.35-.61 2a27.7 27.7 0 01-4.97 9.22.37.37 0 01-.3.14zm16.39-.13c-.32 0-.65-.12-.92-.35a1.42 1.42 0 01-.51-1.05c0-.38.12-.7.28-1.04a37.7 37.7 0 0121.43-19.85c.2-.07.42.04.49.24a.4.4 0 01-.24.5 37.48 37.48 0 00-21 19.43c-.1.26-.2.5-.2.7 0 .17.1.35.25.48s.33.19.5.16c.2-.02.4.12.43.33.03.21-.11.4-.32.44-.06 0-.12.01-.19.01zm-32.9 5.8a.39.39 0 01-.32-.2 120.98 120.98 0 01-5.14-9.64c-.89-1.85-1.74-3.84-1.69-5.93.08-2.5 1.43-4.73 2.94-6.97 2.83-4.22 6.35-9.46 11.71-12.04 5.17-2.5 9.04-2.75 15.46-2.97.65-.03 1.34.33 1.8.92.42.55.44 1.3.42 1.8a8.91 8.91 0 01-4.73 7.46c-.61.31-1.26.55-1.88.78-.6.23-1.22.46-1.8.75-.28.15-.56.29-.84.42-1 .5-1.87.91-2.7 1.69-1.11 1.03-2.23 2.23-3.31 3.4-1.1 1.17-2.22 2.38-3.35 3.43a.38.38 0 01-.54-.02.39.39 0 01.03-.55c1.1-1.02 2.22-2.23 3.3-3.4 1.1-1.17 2.22-2.38 3.34-3.43a11 11 0 012.9-1.81c.26-.13.54-.27.83-.42.6-.31 1.26-.55 1.88-.78.6-.23 1.22-.46 1.8-.75 2.46-1.27 4.2-4 4.3-6.8.03-.62-.05-1.02-.26-1.3-.3-.4-.76-.63-1.17-.62-6.3.22-10.12.47-15.15 2.9-5.18 2.48-8.63 7.63-11.4 11.77-1.5 2.23-2.75 4.26-2.81 6.56-.06 1.92.73 3.73 1.6 5.58a123.3 123.3 0 005.12 9.58.4.4 0 01-.13.53.38.38 0 01-.2.05z"/><path fill="#000" d="M312.25 184.57c-.4 0-.84-.13-1.36-.39a9.8 9.8 0 01-3.96-3.69c-.49-.82-.85-1.7-1.2-2.57l-2.3-5.6a.39.39 0 01.21-.5c.2-.08.42 0 .5.2l2.3 5.6c.34.84.69 1.7 1.15 2.48a8.98 8.98 0 003.64 3.4c.63.3 1.1.38 1.43.2.18-.1.4-.02.5.16a.4.4 0 01-.15.53 1.6 1.6 0 01-.76.18z"/><path fill="#000" d="M347.4 250.84c-1.62-6.84-4.69-13.25-8.65-18.05-6.81-8.27-14.81-13.48-23.3-19-.8-.53-1.61-1.05-2.43-1.6-4.24-2.77-8.7-5.79-12.57-9.5a1403.84 1403.84 0 00-15.91-14.9l-1.77-1.63c-1.5-1.39-.67-9.42.74-16.29.48-2.33.97-4.74 2.51-6.68.6-.75 1.3-1.46 2-2.16.9-.92 1.85-1.87 2.6-2.96.27-.4.5-.82.71-1.23.26-.48.5-.93.81-1.34.5-.65 1.32-1.29 2.18-1.13.73.14 1.3.57 1.71 1.3.85 1.5.8 4 .27 5.48-.07.2.03.42.23.5.2.07.42-.04.49-.24.6-1.66.65-4.41-.33-6.13a3.2 3.2 0 00-2.23-1.67c-1.2-.22-2.3.59-2.92 1.42-.35.46-.62.96-.88 1.45-.22.4-.43.79-.67 1.15a21.6 21.6 0 01-2.52 2.86c-.7.7-1.41 1.43-2.04 2.21-1.66 2.1-2.18 4.6-2.67 7.01-.5 2.46-2.89 14.81-.5 17.02l1.76 1.63c5.13 4.76 10.95 10.15 15.9 14.9 3.92 3.75 8.6 6.91 12.69 9.59.81.53 1.63 1.06 2.44 1.6 8.42 5.48 16.37 10.66 23.11 18.83 3.89 4.71 6.9 11.01 8.5 17.74 1.29 5.49.84 10.76.37 16.34-.07.8-.13 1.61-.2 2.43a642.3 642.3 0 00-1.36 22.16c.1.05.19.11.28.21.15.18.31.36.47.53.33-7.64.78-15.26 1.37-22.84.07-.82.14-1.62.2-2.43.48-5.64.93-10.97-.4-16.58zm21.51-35.91a.38.38 0 01-.33-.19c-2.27-3.79-4.84-8.08-8.57-10.91-1.14-.86-2.4-1.6-3.6-2.32a33.64 33.64 0 01-8.74-6.84.39.39 0 01.01-.54c.16-.15.4-.14.55.02a32.64 32.64 0 006.5 5.46c.68.43 1.38.84 2.05 1.24 1.24.72 2.51 1.47 3.68 2.36 3.86 2.92 6.47 7.28 8.78 11.13a.38.38 0 01-.33.59z"/><path fill="#000" d="M378.76 242.2c-.48 12 1.56 30.9 4.26 50.28.23-.2.46-.4.69-.6-2.66-19.18-4.66-37.8-4.19-49.66.02-.58.05-1.17.07-1.76.35-8.07.7-16.42-3.14-23.45-1-1.83-2.26-3.5-3.48-5.13l-12.54-16.66a43.12 43.12 0 00-4.69-5.35c-.68-.65-4.06-5.57-4.67-6.44-.28.05-1.13-.2-1.4-.13l3.2 4.62c.75.84 1.53 1.66 2.32 2.49 1.54 1.61 3.14 3.29 4.63 5.27l12.54 16.67c1.2 1.6 2.45 3.25 3.42 5.03 3.74 6.85 3.4 15.08 3.05 23.05-.03.59-.05 1.18-.07 1.76zm-34.5-167.22h-.09c-3.57.17-6.73.2-10.07.22-1.25 0-2.52.01-3.86.03-.49 0-.94.2-1.28.57-.34.36-.51.82-.5 1.32.08 1.88.14 3.81.21 5.74.06 1.97.13 3.95.2 5.88.04.94.8 1.68 1.73 1.68h.04c4.63-.1 9.2-.24 13.99-.41a1.78 1.78 0 001.7-1.81c-.01-.87-.03-1.73-.04-2.59-.03-2.86-.06-5.81-.28-8.98a1.77 1.77 0 00-1.75-1.65zm-13.66 16.2a2.5 2.5 0 01-2.49-2.4c-.08-1.94-.14-3.92-.2-5.9-.07-1.92-.14-3.85-.2-5.73a2.59 2.59 0 012.52-2.7c1.34 0 2.61-.02 3.86-.03 3.34-.02 6.49-.04 10.05-.2 1.39-.07 2.54 1 2.64 2.36.21 3.19.25 6.15.28 9.03 0 .85.02 1.7.03 2.57a2.55 2.55 0 01-2.43 2.6c-4.79.18-9.37.3-14 .4h-.06z"/><path fill="#000" d="M343 76.4h-.06c-2.9.12-5.45.14-8.16.16-1 .01-2.04.02-3.11.03a1.59 1.59 0 00-1.55 1.65c.05 1.52.1 3.08.16 4.63.05 1.6.1 3.21.16 4.78.04.82.7 1.47 1.52 1.47v.2l.03-.2c3.75-.08 7.46-.19 11.33-.33.83-.03 1.5-.74 1.49-1.59-.02-.7-.02-1.4-.03-2.1-.03-2.3-.05-4.7-.23-7.26a1.55 1.55 0 00-1.54-1.45zm-11.04 13.1a1.9 1.9 0 01-1.9-1.83c-.06-1.57-.11-3.18-.17-4.78-.05-1.56-.1-3.11-.16-4.63a1.95 1.95 0 011.94-2.06c1.07 0 2.1-.02 3.11-.02 2.7-.02 5.26-.04 8.15-.17a1.93 1.93 0 012 1.8c.18 2.57.2 4.97.23 7.3.01.69.02 1.38.03 2.09a1.95 1.95 0 01-1.86 1.98c-3.87.14-7.58.25-11.33.33h-.04zm19.62-14.29c-.59 0-1.08.16-1.36.44-.31.3-.33.7-.33 1.2.02 3.07.1 6.2.23 9.3.03.56.05 1.15.37 1.64.28.43.9.86 1.68.86h.05c.8-.02 1.46-.48 1.76-.93.32-.48.38-1.03.43-1.65.11-1.5.17-3.02.17-4.52 0-1.24-.36-3.08-.66-4.55l-.04-.22c-.13-.62-.16-.75-.84-1.19a2.84 2.84 0 00-1.46-.38zm.6 14.02a2.6 2.6 0 01-2.17-1.12 3.73 3.73 0 01-.46-1.94c-.13-3.1-.21-6.23-.23-9.32 0-.44-.01-1.11.5-1.62.4-.38 1.02-.6 1.76-.6.66 0 1.3.18 1.77.47.84.55.94.83 1.09 1.57l.04.22c.3 1.49.67 3.37.67 4.66 0 1.51-.05 3.05-.17 4.57a3.8 3.8 0 01-.53 1.92 2.81 2.81 0 01-2.21 1.2h-.07z"/><path fill="#000" d="M337.25 77.26a5.83 5.83 0 00-3.2 1.04 4.03 4.03 0 00-1.86 2.73 10.5 10.5 0 00-.36 1.86 4.75 4.75 0 002.03 4.35c.96.59 2.29.93 3.66.93 1.12 0 2.16-.23 2.94-.65 1.43-.77 2.36-2.27 2.6-4.24.05-.36.06-.72.03-1.07a5.76 5.76 0 00-1.92-3.75c-.94-.83-2.64-1.2-3.92-1.2zm.27 11.3a7.51 7.51 0 01-3.86-1 5.15 5.15 0 01-2.2-4.7c.04-.65.19-1.28.36-1.93.37-1.43.9-2.2 2.04-2.96a6.16 6.16 0 013.4-1.1c1.24 0 3.09.34 4.16 1.3a6.14 6.14 0 012.05 4c.03.39.02.78-.03 1.16-.26 2.1-1.25 3.7-2.8 4.53-.84.45-1.94.7-3.12.7zm36.4 84.57c-.28-5.16-.21-10.47-.15-15.6a.39.39 0 00.05-.18c.44-16.55.37-33.33-.22-49.87a.38.38 0 00-.4-.37.39.39 0 00-.37.4c.59 16.43.66 33.1.24 49.55a.4.4 0 00-.17.31v.09c-.07 5.16-.14 10.5.15 15.71v.26c.17 2.84.41 7.13-2.68 8.58-1.69.79-4.12.76-6.07.74-.25 0-.5 0-.73 0-.24 0-16.27-.26-16.27-.03s-.43.9-.19.9c.23 0 16.93-.04 17.18-.04.33 0 .68 0 1.03 0 1.82 0 3.87-.09 5.44-.82 3.6-1.7 3.35-6.32 3.17-9.38v-.25zm9.45 116.19c-.86.2-.5 1.54.37 1.33-.16.33-.33.65-.5.98-.32.1-.65.16-.99.2-.71.13-1.43.21-2.15.32-1.86.26-3.73.48-5.6.7-3.37.37-6.76.6-10.15.7-3.38.1-6.74 0-10.11-.3a63.56 63.56 0 01-9.09-1.52c-.18-.88.07-1.2.76-.97.43.02.53-.7.1-.77-.37-.06-.75-.13-1.13-.2-.2-.03-.41.02-.52.21-.36.7-.5 1.25-.54 2.04-.01.22.16.42.36.48 8.96 2.47 18.22 2.68 27.42 1.93 2.18-.18 4.35-.43 6.52-.7 1.92-.23 4.13-.27 5.94-.98 1.97-.77 1.52-3.98-.7-3.45z"/><path fill="#000" d="M345.85 291.13a.36.36 0 00-.09-.13c.01-.15 0-.3-.04-.46a.39.39 0 00-.36-.29.82.82 0 00-.08-.2c-.2-.35-.76-.2-.76.22 0 .17 0 .33 0 .5v.04c-.02.08-.01.18 0 .27 0 .18 0 .37.01.56 0 .23.2.42.4.42.06.3.47.5.68.23.28-.34.4-.74.24-1.16z"/><path fill="#000" d="M387.55 302.88a65.1 65.1 0 00-2.87-11.92c-.26-.75-1.45-.43-1.19.33a60.54 60.54 0 013.04 13.19c.19 1.58.97 4.42-1.28 4.87-6.43 1.3-13.1 1.8-19.65 2.08-6.13.26-12.57.41-18.66-.46-2.37-.34-2.33-2.66-2.33-4.57 0-1.73.01-3.46.02-5.19 0-1.48 0-2.96 0-4.44 0-.8-.5-5.05.41-5.36.42-.14.25-.74-.18-.66-.6.1-.95.49-1.03 1.14-.26 2.07-.1 4.27-.12 6.36-.01 1.98-.03 3.95-.04 5.93-.02 1.84-.22 3.8.18 5.6.6 2.72 5.06 2.39 7 2.52a149.19 149.19 0 0030.33-1.14c1.66-.22 3.91-.2 5.44-.93 2.47-1.2 1.23-5.24.93-7.35z"/><path fill="#000" d="M360.87 304.7c-.07-3.27-.09-6.55-.32-9.8-.03-.41-.63-.42-.64 0-.1 2.76 0 5.53.03 8.29.03 2.47.8 6.23-.56 8.41-.34.54.5 1.03.82.5 1.3-2.12.73-5.04.67-7.4zm-4.26-.09c0 .79-.02 2.61-.94 2.98-1.28.53-2.02-1.13-2.11-2.06a6.56 6.56 0 01.34-2.53c.27.13.66 0 .68-.41h.02c.12.04.23 0 .3-.09.37-.1.74-.21 1.1-.32.28.28.46.62.52 1 .13.45.1.98.09 1.43zm.53-2.5c-.67-1.56-3.06-1.6-3.44-.03-.92.66-.97 2.94-.91 3.84.13 1.78 2.05 3.37 3.7 2.26.78-.53.88-1.78.99-2.61a6.43 6.43 0 00-.34-3.46zm-11.95 17.42a133.78 133.78 0 000 .18c-.34 10.72-1.4 24.2-3.2 40.48h-1.22c2.14-24.05 3.54-37.65 3.54-40.68.02-3.05-.01-6.1.14-9.15.02-.4.58-.4.6 0 .16 3.04.12 6.1.14 9.15v.02z"/><path fill="#000" d="M360.24 311.75c-.07-.71-1.18-.72-1.11 0 .69 7.28.68 14.77-.53 22-.8-.14-1.61-.28-2.43-.42a6.28 6.28 0 01-.26-1.55c-.1-.97-.12-1.95-.15-2.92a52 52 0 01.2-5.83c.28-3.48 1.72-7.13 1.43-10.62-.04-.4-.64-.42-.64 0 .02 2.56-.9 5.1-1.3 7.61-.36 2.2-.53 4.43-.6 6.65-.07 2-.82 8.81 2.58 8.96 1.18.05 1.78-.51 2.14-1.61.65-2 .63-4.5.8-6.58.45-5.22.36-10.47-.13-15.69zm31.49 25.42a525.44 525.44 0 01-3.85-28.08c-.05-.41-.7-.44-.67 0 .8 17.27 4.9 34.26 7 51.4h1.02c-.94-7.8-2.23-15.56-3.5-23.32zm-97.6-285.5c-1.08-.42-1.69-1.88-2.3-2.78-.61-.93-1.23-1.85-1.84-2.77a87.97 87.97 0 00-3.86-5.43c-1.02-1.3-2.92.22-2 1.55 1.54 2.18 3.25 4.23 4.94 6.28 1.23 1.5 2.56 3.9 4.51 4.5.88.29 1.44-1.02.55-1.36zm-2.88 5.35a40.14 40.14 0 00-11.8-5.08c-1.39-.36-1.98 2.02-.62 2.46 3.91 1.28 7.82 2.57 11.74 3.83.7.23 1.38-.76.68-1.21zm-2.11 5.56a30.8 30.8 0 00-11.1-.51c-1.4.17-1.42 2.47.03 2.53 3.62.14 7.5.07 11.08-.5.92-.15.77-1.32-.01-1.52zm10.64-12.47c-.3-3.87-.12-7.71-.15-11.58-.01-1.4-2.05-1.73-2.2-.26-.43 4.02.19 8.13 1.14 12.02.19.76 1.27.62 1.2-.18zm9.3-7.79a22.88 22.88 0 00-5.2 8.33c-.25.7.67 1.27 1.14.66 1.87-2.46 3.8-4.93 5.58-7.45.68-.97-.62-2.44-1.53-1.54zm-19.76 27.8a21.58 21.58 0 00-7.93 4.17c-1.01.82.18 2.36 1.23 1.6a61.5 61.5 0 017.13-4.25c.73-.4.5-1.76-.43-1.52z"/></g></g><path fill="#FFF" fill-rule="nonzero" d="M250.39 121V62.2h-13.44V121h13.44zm22.26 0V97.31c0-4.95 2.35-7.9 6.55-7.9 4.03 0 6.05 2.7 6.05 6.9V121h12.6V97.31c0-4.95 2.35-7.9 6.55-7.9 4.03 0 6.05 2.7 6.05 6.9V121h12.6V95.21c0-10.5-6.3-17.39-15.96-17.39-5.97 0-9.83 2.19-12.18 5.55-2.36-3.53-6.05-5.55-11-5.55-5.64 0-9.33 2.19-11.26 5.04V79h-12.6v42h12.6zm77.02 1.18c5.63 0 9.75-1.94 12.52-5.13V121h12.6V79h-12.6v3.95c-2.77-3.2-6.89-5.13-12.52-5.13-11 0-20.07 9.66-20.07 22.18s9.07 22.18 20.07 22.18zm2.52-11.93c-5.8 0-10-3.95-10-10.25s4.2-10.25 10-10.25 10 3.95 10 10.25-4.2 10.25-10 10.25zm52.76 28.73c11.17 0 22.17-5.97 22.17-20.08V79h-12.26v4.28c-2.77-3.44-6.8-5.46-12.27-5.46-11.92 0-20.66 9.75-20.66 21.34 0 11.6 8.74 21.34 20.66 21.34 5.46 0 9.5-2.02 12.27-5.46v3.86c0 5.96-3.61 8.99-9.5 8.99-5.54 0-7.97-2.35-9.57-5.3l-10.75 6.22c3.86 6.89 11.17 10.17 19.9 10.17zm-.26-30.08c-5.96 0-10.16-3.94-10.16-9.74 0-5.8 4.2-9.74 10.16-9.74 5.97 0 10.17 3.94 10.17 9.74 0 5.8-4.2 9.74-10.17 9.74zm52.84 13.28c7.98 0 14.2-2.94 18.31-8.66l-10.08-5.8c-1.68 1.86-4.62 3.2-8.06 3.2-4.62 0-8.49-1.51-10.08-5.88h29.82c.33-1.6.5-3.28.5-5.04 0-12.68-9.07-22.18-21.33-22.18-13.28 0-22.35 9.66-22.35 22.18s8.9 22.18 23.27 22.18zm7.9-26.55h-18.06c1.17-4.28 4.36-6.63 9.15-6.63 3.78 0 7.56 1.76 8.9 6.63zm33.1 26.55c9.06 0 17.46-4.12 17.46-13.78 0-15.54-20.66-12.35-20.66-17.14 0-1.5 1.34-2.35 3.53-2.35 2.77 0 4.45 1.51 5.63 3.7l10.75-5.8c-3.53-5.96-9.58-8.99-16.38-8.99-8.74 0-16.47 4.62-16.47 13.78 0 14.53 20.67 12.1 20.67 16.72 0 1.68-1.51 2.6-4.54 2.6-3.7 0-6.05-1.76-7.14-4.96l-10.92 6.22c3.28 6.8 9.66 10 18.06 10z"/></g></svg>