<svg xmlns="http://www.w3.org/2000/svg" xmlns:xlink="http://www.w3.org/1999/xlink" width="750" height="500"><defs><path id="a" d="M0 0h396v360H0z"/><path id="c" d="M0 0h396v360H0z"/><path id="e" d="M0 0h396v360H0z"/></defs><g fill="none" fill-rule="evenodd"><path fill="#6B46C1" fill-rule="nonzero" d="M0 0h750v500H0z"/><g transform="translate(177 170)"><mask id="b" fill="#fff"><use xlink:href="#a"/></mask><g fill-rule="nonzero" mask="url(#b)"><path fill="#38B2AD" d="M63.1 360.04c-4.78-23.34-14.06-89.39-14.06-143-2.61-.26-4.27-.65-4.96-1.16-1.9-1.38-3.52-3.14-5.43-4.5-2.19-1.58-4.67-2.55-7.06-3.75-5.18-2.6-9.94-5.9-14.67-9.22a10.38 10.38 0 01-2.5-2.17c-.14 1.6-.78 4.11-.96 5.71-.9 5.6-8.97 64.29-8.97 69.2 0 2.7-4.49 43.1 2.7 88.9H63.1z"/><path fill="#8A6D62" d="M62.46 78.68c-.21-.44-.5-1-.97-1.28-.71-.44-1.66-.2-2.3.25a7.22 7.22 0 00-1.74 2.1l-8.33 13a65.98 65.98 0 0111.6-4.96c.6-.2 1.21-.35 1.83-.46a10.63 10.63 0 00-.1-8.65z"/><path fill="#FFF" d="M14.48 188.83a5.61 5.61 0 01.1-.48v-.03c-.02.06-.04.12-.06.18l-.04.18a1.5 1.5 0 00-.03.23l.03-.08z"/><path fill="#E6E6E6" d="M95.43 64.72a2.45 2.45 0 00-2.24-1.69c-.88 0-1.76.56-2.14 1.36a5.4 5.4 0 00-.33 2.24l-.03 5.03c-.01 1.57-.02 3.19.55 4.64.36.92 1.18 1.9 2.13 1.9.09 0 .17 0 .26-.02.54-.1 1.04-.54 1.34-1.18.28-.6.37-1.3.45-2.03.3-3.02.36-6.08.17-9.1-.03-.43-.06-.8-.16-1.15z"/><path fill="#F6E05E" d="M82.99 42.7c.47-.5 1.13-.8 1.82-.8 1.33-.02 2.6-.03 3.85-.04 3.32-.02 6.46-.04 10.01-.2 1.39-.07 2.54 1 2.63 2.36.22 3.19.25 6.15.28 9.02.01.86.02 1.72.04 2.58a2.55 2.55 0 01-2.43 2.6c-4.77.17-9.34.3-13.96.4h-.05a2.49 2.49 0 01-2.48-2.4c-.08-1.97-.15-3.93-.2-5.9-.07-1.92-.14-3.85-.2-5.73-.04-.7.21-1.38.69-1.88zm13.19 32.35c-.09.8-.19 1.56-.53 2.28-.4.86-1.1 1.46-1.88 1.6-.13.03-.26.05-.4.05-1.32 0-2.38-1.2-2.84-2.4-.62-1.59-.61-3.36-.6-4.92l.02-5.03c0-.82.02-1.75.41-2.58a3.17 3.17 0 013.04-1.78c1.25.1 2.38 1 2.76 2.22.13.43.16.87.2 1.32.19 3.07.13 6.18-.19 9.24zM67.63 91.3c.08 2.12-1.05 4.34-3.06 6.1l.02 10.76c0 1.2 0 2.4 0 3.6a5.2 5.2 0 01.01 3.25l-.02.05c-.02 3.62 0 7.25.05 10.87.04 3.27.09 8.21 2.63 10.4 2.44 2.08 4.91 2.41 8.36 2.3.16-.02 1.07.08 1.3.23a42.77 42.77 0 004.74-2.47c2.05-1.18 4.17-2.4 6.3-3.02 6-1.79 14.96-2.4 20.52 1.78a9.4 9.4 0 011.85 1.94 5.8 5.8 0 011.4-.13c.19 0 .39 0 .59 0 1.58.02 3.54.04 4.9-.63 2.5-1.23 2.3-4.9 2.17-7.32l-.01-.21c-.23-4.44-.17-9-.12-13.4v-.08c0-.07.03-.14.07-.2-.14-4 .06-40.64.06-40.83v-.42c-.1-12.09-.18-24.59-1.1-36.79-.02-.1-.03-.2-.04-.29-.42-3.67-3.28-4.4-8.06-4.4-7.9-.03-15.93.3-23.7.63-4.6.2-9.35.4-14.03.52-2.2.06-5.02.6-6.4 1.71-2.47 1.99-2.35 4.9-2.24 7.73.02.42.03.84.04 1.25.09 4 .23 8.07.43 12.08.24 4.8.24 9.67.24 14.37v2.63l.02 14c.5.08.97.26 1.4.57a4.3 4.3 0 011.69 3.42z"/><path fill="#8A6D62" d="M62.14 99.12c-.8.46-1.6.88-2.4 1.3l-.58.3a9.44 9.44 0 00-1.79 2.09 37.44 37.44 0 00-3.83 7.29c1.8-.33 3.56-.6 5.24-.87.37-.06.78-.12 1.2-.16a21.9 21.9 0 012.16-9.95z"/><path fill="#FFF" d="M48.25 208.79v.02l.05-.03c-.04-.05-.09-.1-.14-.14v.05c.03.02.07.06.09.1z"/><path fill="#8A6D62" d="M57.11 101.84c-.13.08-.27.16-.4.24a83.43 83.43 0 00-11.67 9.2c-.36.34-.69.75-1.03 1.19l-.05.06a60.32 60.32 0 018.7-2.27 38.23 38.23 0 014.45-8.42z"/><path fill="#4B5668" d="M85.83 50.29c.05-.67.21-1.31.38-1.97a4.6 4.6 0 012.1-3.07 6.33 6.33 0 013.5-1.13c1.28 0 3.16.35 4.28 1.34a6 6 0 012.08 5.33c-.27 2.16-1.3 3.82-2.9 4.68-.86.46-2 .72-3.2.72-1.46 0-2.9-.37-3.94-1.02a5.36 5.36 0 01-2.3-4.88zm-.8 4.8c.02.82.69 1.46 1.5 1.47v.19l.04-.2c3.74-.07 7.43-.18 11.29-.32.83-.03 1.5-.74 1.48-1.59-.01-.7-.02-1.4-.03-2.1-.03-2.3-.05-4.7-.23-7.26a1.55 1.55 0 00-1.53-1.45h-.07c-2.89.13-5.43.16-8.13.17-1 .01-2.03.02-3.1.03a1.58 1.58 0 00-1.56 1.65c.06 1.52.12 3.08.17 4.63.05 1.6.1 3.21.17 4.78z"/><path fill="#FFF" d="M84.85 44.26c.36-.39.86-.6 1.4-.61 1.06-.02 2.1-.02 3.1-.03 2.69-.02 5.23-.04 8.11-.17a1.92 1.92 0 012 1.8c.18 2.57.2 4.97.23 7.3.01.69.02 1.38.03 2.08a1.95 1.95 0 01-1.85 1.98c-3.86.14-7.56.25-11.3.33h-.04a1.9 1.9 0 01-1.89-1.84c-.06-1.59-.11-3.18-.16-4.77a748 748 0 00-.17-4.63c-.02-.53.17-1.05.54-1.44zm-1.39 11.92c.03.93.79 1.67 1.72 1.67h.03c4.63-.1 9.19-.23 13.95-.4.95-.04 1.71-.85 1.7-1.82-.02-.86-.03-1.72-.04-2.58-.03-2.86-.07-5.81-.28-8.98a1.77 1.77 0 00-1.75-1.65h-.08c-3.57.17-6.71.2-10.04.22-1.25 0-2.52.01-3.85.03a1.82 1.82 0 00-1.77 1.89c.08 1.88.14 3.8.2 5.73.07 1.98.13 3.96.21 5.89zM63.85 87.23V85.9c-.12.45-.26.9-.43 1.34.14 0 .28 0 .43 0z"/><path fill="#8A6D62" d="M43.41 111.98l.1-.13c-.04 0-.08 0-.12 0-.93 0-1.85-.25-2.64-.74a.39.39 0 01.1-.7c.1-.03.2-.01.3.04.87.54 1.95.75 2.96.57.04 0 .07 0 .1 0a92.9 92.9 0 018.52-7.14 6.12 6.12 0 01-1.74-1.53.39.39 0 01.07-.55.38.38 0 01.53.07 5.35 5.35 0 001.83 1.51c.94-.68 1.9-1.33 2.88-1.95.79-.49 1.59-.94 2.41-1.36.07-.05.13-.1.2-.15a.37.37 0 01.24-.07l.25-.13a29.68 29.68 0 003.75-2.16c2.4-1.71 3.8-4.04 3.72-6.22a3.53 3.53 0 00-1.34-2.82c-.72-.5-1.6-.58-2.52-.48-.1.08-.23.1-.34.05-.58.1-1.17.26-1.72.44a67.88 67.88 0 00-26.65 16.1 20.98 20.98 0 00-3.89 4.75c-1.02 1.86-1.55 3.97-2.06 6.02-.6 2.38-1.4 4.83-2.18 7.2a132.3 132.3 0 00-1.77 5.66c.24-.27.49-.53.73-.8l4.25-4.65c1.68-1.85 3.42-3.75 5.41-5.35a29.62 29.62 0 017.66-4.36c.33-.33.64-.71.96-1.12z"/><path fill="#8A6D62" d="M25.4 144.63a.38.38 0 01.46-.29c3.97.97 8.15.63 11.92-.97a.38.38 0 01.5.2c.08.2 0 .43-.2.51a19.74 19.74 0 01-12.4 1.01.39.39 0 01-.28-.46zm-6.43 48.56c1.6.98 3.2 1.95 4.78 2.95 3.17 1.98 6.33 4.01 9.28 6.32 1.4 1.09 2.7 2.35 4.18 3.33 1.51 1 3.19 1.66 4.76 2.56a24.85 24.85 0 014.98 3.64c.18-1.46.37-2.93.59-4.38.5-3.43.82-7.07 2.2-10.28a21.37 21.37 0 015.58-7.6c4.7-4.13 8.6-8.07 11.94-12.06a141.18 141.18 0 0013.63-19.84c3.5-6.02 10.52-11.12 18.78-13.62a25.22 25.22 0 016.66-1.1c1.13-.05 2.3-.08 3.29-.57.8-.4 1.23-.96 1.3-1.72.16-1.75-1.58-4.05-2.9-5.04-5.33-4-14.02-3.4-19.85-1.66-2.04.6-4.12 1.8-6.13 2.95-4.55 2.61-9.25 5.31-14.3 2.02a12.79 12.79 0 01-3.44-3.31c0 .15-.08.3-.21.36a15.1 15.1 0 00-8.26 12.34.38.38 0 01-.38.36h-.03a.39.39 0 01-.35-.41 15.68 15.68 0 018.69-12.99c.1-.05.2-.05.3-.01a18.56 18.56 0 01-2.46-5.64 32.3 32.3 0 01-.81-10.58c-.14.08-.29.16-.44.24-2.02 1.08-4.29 1.7-6.48 2.31-.29.08-.58.16-.87.24.18.85.31 1.7.37 2.56.01.21-.14.4-.36.41H53a.38.38 0 01-.38-.36c-.06-.8-.17-1.6-.35-2.4-2.66.78-5.14 1.68-7.1 3.52-.82.77-1.54 1.7-2.24 2.61-1.23 1.6-2.5 3.25-4.39 4.1a.38.38 0 01-.5-.2c-.09-.2 0-.43.2-.51 1.7-.77 2.86-2.27 4.09-3.87.71-.93 1.45-1.89 2.32-2.7 2.15-2.01 4.92-2.97 7.7-3.77a.37.37 0 01.11-.05h.08c.38-.11.76-.22 1.14-.33 2.15-.6 4.38-1.2 6.33-2.24 1.4-.74 3.21-2.04 3.88-4 .56-1.67.03-3.94-1.66-4.68-1.03-.45-2.3-.25-3.33-.1-5.18.82-10.82 1.7-15.98 3.73l-.02.02a.38.38 0 01-.28.1 28.79 28.79 0 00-7.35 4.22c-1.94 1.56-3.66 3.45-5.32 5.27L25.69 128c-3.23 3.52-6.56 7.17-6.61 15.68.87 7.2 1.7 14.43 1.59 21.69a68.31 68.31 0 01-.66 8.6c-.4 2.76-.86 5.68-2.03 8.23-1.3 2.81-1.52 6.22-1.7 9.3a184.78 184.78 0 002.68 1.69z"/><path fill="#38B2AD" d="M46.58 212.7a36.87 36.87 0 00-7.42-4.9c-2.27-1.14-4.04-2.75-6.03-4.31-4.96-3.9-10.37-7.11-15.68-10.48-1.01-.64-2.59-1.54-3.29-2.78-.25 1.62-.3 3.4.17 4.6.83 2.16 3.4 3.38 5.19 4.6 3.43 2.37 6.9 4.67 10.6 6.6 3.33 1.76 7 3 9.92 5.46 1.47 1.23 2.84 2.64 4.44 3.7 1 .66 4.29 2.89 4.76-.01.1-.62.11-1.23.07-1.84-.84.4-2.16-.15-2.73-.63z"/><path fill="#4FD2C5" d="M35.46 209.5c-1.04 9.12-3.03 18.13-4.16 27.25.85 2.13 1.73 4.24 2.66 6.34.72-5.1 1.31-10.22 1.76-15.35.5-5.72.67-11.56 1.56-17.26-.6-.35-1.2-.68-1.82-.99zm5.28 3.56c-.7 5.33-.84 10.77-1.34 16.1a281.7 281.7 0 01-2.54 19.87 97 97 0 002.22 3.94c.07-1.27.13-2.55.22-3.82.32-4.96 1.11-9.7 2.06-14.56 1.23-6.38 1.38-12.88 1.9-19.34-.87-.7-1.69-1.45-2.52-2.19zm5.92 146.98c.01-.75-.76-3.59-.9-4.49-.3-1.93-.5-3.7-.76-7.18-.18-.6-.83-17.56-.26-35.01.44-13.35.66-28.2 1.02-34.12.05-.9.4-16.3.9-27.07.2-4.26.8-7.96.9-9.92.01-.33-.36-12.57 0-19.58.05-1.2.83-2.95.9-3.64.04-.51.36-1.81.4-1.92l-2.2.15a201.24 201.24 0 00-2.2 15.4c-.15 1.42 0 2.7 0 5.28 0 2.69-1.17 8.55-1.23 8.97-1.06 8.7-.07 10.16 0 19.83.05 5.54-.07 11.43-.16 12.5-.63 7.47-.95 20.08-1.45 25.81-1 11.75-.15 24.73 0 33.8 0 .8 0 1.6.03 2.41.15 6.28.24 12.52-.03 18.78h5.04z"/><path fill="#4FD2C5" d="M37.84 341.26c-.1-4.3-.8-18.17-.98-22.52 0-14.57 3.52-25.14 2.22-65.87l-2.22-3.85c-1.87 14.31-2.61 69.92-2.95 69.1-.07 6.1.38 12.28.48 18.3.07 4.73.4 9.4.82 14.1.28 3.27.19 6.57.55 9.83h2.12c.29-6.36.1-12.72-.04-19.09zm-6.44 9.25a150.4 150.4 0 01-.83-14.83c-.06-8.23.16-15.03.78-24.43.61-9.4.05-13.34.05-21.42 0-5.56 1.06-21.16 1.07-21.37.92-17.56 1.61-26.09 1.63-26.2.8-6.81 1.33-11.53 1.58-14.17.27-2.78.39-5.2.54-7.21.56-7.3.89-9.64 1.06-10.5l-1.8-1c-.31 2.79-2.06 13.21-3.18 20.48a136.6 136.6 0 00-.95 7.3c-.25 5.4-2.42 26.72-3.28 44.77-.58 12.18 0 24 0 24.17-.06 1.44-.14 2.88-.2 4.34-.26 6.63-.32 13.32.02 19.95.52 10.05 1.87 20 3.25 29.96h.83c-.3-3.26-.22-6.55-.57-9.84z"/><path fill="#4FD2C5" d="M24.05 329.63c-.3-6.87-.3-13.8.09-20.66.16-2.94.14-5.8.11-8.74 0-.64 0-1.28.02-1.91 0-.1-.36-14.24 0-22.67.37-8.7 1.48-11.86 2.45-23.34 1.9-22.62 5.14-44.7 5.16-44.9l-2.21-.9c-.02.4-2.88 16.79-4.58 35.74-1.14 12.69-2.78 26.03-3.34 36.35-.5 9.47.01 16.47 0 16.71-.36 10.3-.99 20.6-.48 30.87.56 11.46 3.2 22.73 3.82 34.17h2.23c-1.43-10.2-2.83-20.42-3.27-30.72z"/><path fill="#4FD2C5" d="M17.46 326.18c-.35-8.68-.32-19.36 0-28.05.17-4.4.12-7.33.17-11.74-.21-.27.1-9.34 1.43-22.18.77-7.42 2.35-17.04 3.37-25.22.87-6.94 1.18-13.4 1.8-18.92.88-7.86 1.9-13.72 1.93-15.63l-1.5-.9c-.22 1.04-3.26 20.86-5.6 40.8-.55 4.71-1.55 9.6-2 14.06-1.48 14.23-1.94 25.6-1.97 25.57-.08 13.23-.28 26.45.18 39.67.27 7.6 1.33 14.95 2.36 22.46.64 4.74 1.1 9.49 1.43 14.25h2.22c-.64-11.45-3.35-22.7-3.82-34.17z"/><path fill="#4FD2C5" d="M13.76 345.7c-1.07-7.37-2.05-14.6-2.3-22.06-.43-13.36-.24-26.71-.18-40.07 0-.24.16-13.52 1.88-25.5 2.91-20.35 6.58-45.27 6.45-45.78.98-6.02 1.47-9.7 1.47-11.03l-1.47-1.03c0 .13-2.01 12.74-4.35 28.88-2.6 17.99-4.59 28.35-5.62 44.74.03 2.44-.43 9.02-.44 11.47-.02 9.3-.94 18.58-.72 27.9.23 9.2 1.13 18.37 2.2 27.5.76 6.55 1.49 13.11 2.48 19.63h2.1c-.33-4.9-.8-9.8-1.5-14.65z"/><path fill="#4FD2C5" d="M6.87 340.72c-1.12-9.63-2.11-19.3-2.22-29-.1-9.2 1.1-18.44.72-27.63-.13-2.99.32-6 .51-9s4-37.9 4.9-43.81c.89-5.91 2.68-15 5.37-33.62.25-1.7-.22-2.05-1.42-1.04-.92 5.53-4.23 26.47-6.65 44.9C6 257.39 4.73 271.46 4.62 271.4c-.98 29.72-2.58 59.57 2.7 88.96h2c-.96-6.52-1.7-13.08-2.45-19.63z"/><path fill="#4FD2C5" d="M16.08 197.1c.1-1.59.19-3.17.33-4.75a6.9 6.9 0 01-2.25-2.12c-.25 1.62-.3 3.4.17 4.6.34.9.99 1.63 1.75 2.27zm3.9-2.5c-.12 1.65-.21 3.3-.3 4.95.48.33.97.66 1.46 1 .15-1.66.28-3.31.4-4.97l-1.56-.98zm5.19 3.3c-.13 1.67-.28 3.33-.44 5 .51.32 1.03.65 1.55.96.21-1.61.42-3.23.6-4.84-.56-.38-1.14-.75-1.71-1.12zm5.23 3.55c-.18 1.48-.38 2.95-.58 4.43a50.46 50.46 0 002.1 1.05c.13-1.37.22-2.75.3-4.14-.6-.45-1.2-.9-1.81-1.34zm5.44 4.2c-.08 1-.18 2-.28 3 .63.33 1.25.66 1.86 1.01.14-.86.3-1.72.49-2.57-.72-.45-1.4-.93-2.07-1.45zm5.55 3.37c-.2 1.05-.38 2.11-.53 3.17.82.73 1.62 1.48 2.48 2.16.1-1.28.24-2.56.4-3.83a36.23 36.23 0 00-2.35-1.5zm7.92 4.32c-.6.28-1.44.09-2.08-.23-.12 1.12-.22 2.25-.3 3.37 1.05.33 2.07.2 2.31-1.3.1-.62.11-1.23.07-1.84z"/><path fill="#FFF" d="M47.72 212.4zM49.2 210.2c-.05-.14-.1-.27-.17-.4.04.14.09.28.12.42l.05-.02z"/><path fill="#F7AE55" d="M88.53 54.51c.92.57 2.21.9 3.55.9 1.08 0 2.08-.22 2.84-.62 1.37-.74 2.25-2.2 2.49-4.1.04-.34.05-.69.03-1.03a5.56 5.56 0 00-1.85-3.62c-.9-.79-2.54-1.15-3.78-1.15a5.59 5.59 0 00-3.07 1 3.86 3.86 0 00-1.8 2.63c-.15.62-.3 1.22-.34 1.83a4.56 4.56 0 001.93 4.16z"/><path fill="#000" d="M23.63 130.05l-.1-.02a.39.39 0 01-.27-.47c.6-2.38 1.4-4.83 2.18-7.2.78-2.36 1.58-4.8 2.17-7.15.52-2.1 1.07-4.26 2.14-6.2a21.63 21.63 0 014.03-4.94 68.62 68.62 0 0126.94-16.28c1.73-.55 3.7-.96 5.24.1a4.3 4.3 0 011.68 3.42c.08 2.45-1.43 5.02-4.05 6.88a30.35 30.35 0 01-3.85 2.22c-1.01.52-2.06 1.06-3.03 1.67a83.43 83.43 0 00-11.67 9.2c-.36.34-.69.75-1.03 1.19-.35.44-.71.9-1.12 1.27a.38.38 0 01-.54-.02.39.39 0 01.03-.55c.36-.34.69-.75 1.03-1.19.35-.44.71-.89 1.12-1.27 4-3.72 8.07-6.93 11.77-9.28 1-.64 2.07-1.18 3.1-1.7a29.74 29.74 0 003.75-2.17c2.4-1.71 3.8-4.04 3.72-6.22a3.53 3.53 0 00-1.34-2.82c-1.26-.87-3.03-.49-4.58 0a67.88 67.88 0 00-26.65 16.1 20.98 20.98 0 00-3.89 4.76c-1.02 1.86-1.55 3.97-2.06 6.02-.6 2.39-1.4 4.83-2.18 7.2-.78 2.36-1.58 4.8-2.17 7.15-.04.17-.2.3-.37.3z"/><path fill="#000" d="M48 94.17a.38.38 0 01-.2-.07.39.39 0 01-.12-.53l9.13-14.24c.51-.8 1.1-1.7 1.95-2.31.83-.6 2.12-.9 3.13-.28.63.4 1 1.07 1.26 1.61a11.42 11.42 0 01-.01 9.55.38.38 0 01-.51.18.39.39 0 01-.18-.51c1.3-2.78 1.3-6.1 0-8.89-.2-.44-.5-1-.96-1.28-.71-.44-1.66-.2-2.3.25a7.22 7.22 0 00-1.74 2.1L48.32 94a.38.38 0 01-.32.18zm-29.3 49.91a.39.39 0 01-.38-.39c.04-8.83 3.48-12.6 6.81-16.23l4.25-4.65c1.68-1.85 3.42-3.75 5.41-5.35 6.89-5.55 16.37-7.03 23.99-8.23 1.12-.17 2.51-.4 3.74.15 2.08.9 2.76 3.65 2.08 5.64-.75 2.2-2.72 3.63-4.25 4.43-2.02 1.08-4.29 1.7-6.48 2.31-3.27.9-6.36 1.76-8.72 3.97-.81.77-1.54 1.7-2.23 2.61-1.24 1.6-2.5 3.25-4.39 4.1a.38.38 0 01-.5-.2c-.09-.2 0-.43.2-.51 1.7-.77 2.86-2.27 4.09-3.87.71-.93 1.45-1.89 2.32-2.7 2.5-2.33 5.82-3.25 9.03-4.15 2.15-.6 4.38-1.2 6.33-2.24 1.4-.74 3.21-2.04 3.88-4 .56-1.67.03-3.94-1.66-4.68-1.03-.45-2.3-.25-3.33-.1-7.92 1.25-16.9 2.65-23.63 8.07-1.94 1.56-3.66 3.45-5.32 5.27L25.69 128c-3.23 3.53-6.57 7.17-6.61 15.7 0 .22-.17.39-.38.4z"/><path fill="#000" d="M60.37 109.8a.38.38 0 01-.38-.37 22 22 0 012.6-11.21c.1-.19.33-.26.51-.16.2.1.26.33.16.52a21.25 21.25 0 00-2.5 10.82c0 .21-.16.4-.37.4h-.02zM53 124.97a.38.38 0 01-.38-.36c-.07-.94-.21-1.88-.44-2.8a.39.39 0 01.28-.47.38.38 0 01.46.28c.24.96.4 1.95.46 2.94.01.21-.15.4-.36.41H53zm2.46 23.87h-.03a.39.39 0 01-.35-.41 15.68 15.68 0 018.69-12.99.38.38 0 01.5.18c.1.2.02.43-.17.52a15.1 15.1 0 00-8.26 12.34.38.38 0 01-.38.36zm-2.5-37.9a.39.39 0 01-.35-.52 38.2 38.2 0 014.14-8.05c.6-.88 1.28-1.8 2.17-2.45a.38.38 0 01.53.08c.12.18.09.42-.08.54a8.79 8.79 0 00-1.99 2.27 37.44 37.44 0 00-4.06 7.88.38.38 0 01-.36.25zm-9.56.92c-.93 0-1.85-.26-2.64-.75a.39.39 0 01.1-.7c.1-.03.2-.01.3.04.87.54 1.95.75 2.96.57a.38.38 0 01.44.31c.04.21-.1.41-.3.45-.29.05-.58.08-.86.08zm9.86-7.75a.38.38 0 01-.17-.04c-.82-.4-1.53-1-2.09-1.72a.39.39 0 01.07-.55.38.38 0 01.53.07 5.35 5.35 0 001.83 1.51c.19.1.26.33.17.52a.38.38 0 01-.34.21zm-22.9 41.55c-1.58 0-3.15-.2-4.67-.57a.39.39 0 01-.28-.46.38.38 0 01.46-.29c3.97.97 8.15.63 11.92-.97a.38.38 0 01.5.2c.08.2 0 .43-.2.51a19.74 19.74 0 01-7.74 1.58zm45.27-7.03c-3.45.13-5.92-.2-8.36-2.3-2.54-2.18-2.6-7.12-2.63-10.4l-.01-.8c-.06-3.77-.05-7.6-.04-11.3 0-1.89.01-3.77.01-5.66l-.02-11.44c-.2.2-.45.38-.7.5l.01 10.95c0 1.14 0 2.3 0 3.44.7.96.7 2.42-.01 3.37-.01 3.34-.01 6.77.04 10.15l.01.8c.04 3.4.1 8.54 2.88 10.93 2.3 1.98 4.7 2.5 7.69 2.5.37 0 .76-.02 1.16-.03.2 0 1.32-.2 1.31-.4 0-.2-1.16-.32-1.34-.31zm44.48-9.65l-.01-.21a208.06 208.06 0 01-.11-13.61c0-.2.12-40.67.12-40.86v-.43c-.1-12.1-.18-24.6-1.11-36.83-.01-.1-.02-.21-.03-.32-.54-4.62-4.81-5.02-8.77-5.04-7.91-.02-15.95.32-23.73.64-4.6.2-9.35.4-14.02.52-2.14.06-5.22.58-6.82 1.87-2.75 2.21-2.63 5.31-2.5 8.31.01.41.03.83.03 1.23.09 4.02.23 8.09.43 12.1.24 4.8.24 9.65.24 14.34 0 .87 0 1.75 0 2.63l.03 14.28a2.3 2.3 0 01.7.17l-.02-14.45v-2.63c0-4.7 0-9.56-.24-14.37-.2-4.03-.34-8.06-.43-12.08 0-.41-.02-.83-.04-1.25-.11-2.82-.23-5.74 2.24-7.73 1.38-1.1 4.2-1.65 6.4-1.71 4.68-.12 9.43-.32 14.03-.52 7.77-.32 15.8-.66 23.7-.64 4.78.02 7.64.74 8.06 4.41.01.1.02.2.03.3.93 12.19 1.02 24.69 1.1 36.78l.01.42c0 .19-.2 36.84-.06 40.84a.35.35 0 00-.07.2v.06c-.06 4.41-.11 8.97.12 13.4l.01.22c.13 2.43.32 6.09-2.17 7.32-1.36.67-3.33.65-4.9.63-.2 0-.4 0-.59 0-.2 0-1.48.01-1.48.2 0 .2.19.51.38.51s1.48 0 1.68 0c.27 0 .55.01.83.01 1.48 0 3.12-.09 4.39-.71 2.92-1.44 2.7-5.39 2.57-8z"/><path fill="#000" d="M98.79 42.43h-.08c-3.57.16-6.71.18-10.04.2-1.25.02-2.52.02-3.85.04a1.81 1.81 0 00-1.77 1.89c.08 1.88.14 3.8.2 5.74.07 1.97.13 3.95.21 5.88.03.93.79 1.67 1.72 1.67h.03c4.63-.1 9.19-.23 13.95-.4.95-.04 1.71-.85 1.7-1.82-.02-.86-.03-1.72-.04-2.58a155.8 155.8 0 00-.28-8.97 1.77 1.77 0 00-1.75-1.65zm-13.61 16.2a2.49 2.49 0 01-2.48-2.42c-.08-1.96-.15-3.92-.2-5.89-.07-1.92-.14-3.85-.2-5.73a2.58 2.58 0 012.51-2.69c1.33-.02 2.6-.03 3.85-.04 3.32-.02 6.46-.04 10.01-.2 1.39-.07 2.54 1 2.63 2.36.22 3.19.25 6.15.28 9.02.01.86.02 1.72.04 2.58a2.55 2.55 0 01-2.43 2.6c-4.77.17-9.34.3-13.96.4h-.05z"/><path fill="#000" d="M97.55 43.83h-.07c-2.89.13-5.43.16-8.13.17-1 .01-2.03.02-3.1.03a1.58 1.58 0 00-1.56 1.65c.06 1.52.12 3.08.17 4.63.05 1.6.1 3.21.17 4.78.02.81.69 1.46 1.5 1.47v.19l.04-.2c3.74-.07 7.43-.18 11.29-.32.83-.03 1.5-.74 1.48-1.59-.01-.7-.02-1.4-.03-2.1-.03-2.3-.05-4.7-.23-7.26a1.55 1.55 0 00-1.53-1.45zM86.53 56.94a1.9 1.9 0 01-1.89-1.84c-.06-1.59-.11-3.18-.16-4.77a748 748 0 00-.17-4.63 1.97 1.97 0 011.93-2.05c1.07-.02 2.1-.02 3.1-.03 2.7-.02 5.24-.04 8.12-.17a1.93 1.93 0 012 1.8c.18 2.57.2 4.97.23 7.3 0 .69.02 1.38.03 2.08a1.95 1.95 0 01-1.85 1.98c-3.86.14-7.56.25-11.3.33h-.04z"/><path fill="#000" d="M91.81 44.7a5.79 5.79 0 00-3.18 1.04 4.03 4.03 0 00-1.87 2.73c-.16.63-.3 1.24-.35 1.86a4.77 4.77 0 002.02 4.34c.95.6 2.28.94 3.65.94 1.1 0 2.15-.23 2.93-.65 1.43-.77 2.34-2.27 2.59-4.24.04-.36.05-.72.03-1.07a5.75 5.75 0 00-1.92-3.75c-.93-.83-2.63-1.2-3.9-1.2zm.27 11.3a7.45 7.45 0 01-3.85-1 5.16 5.16 0 01-2.2-4.7c.04-.65.2-1.28.36-1.93.37-1.43.9-2.2 2.03-2.95a6.13 6.13 0 013.4-1.1c1.23 0 3.07.33 4.14 1.29a6.14 6.14 0 012.05 4c.03.39.02.77-.03 1.16-.26 2.1-1.25 3.7-2.8 4.53a6.7 6.7 0 01-3.1.7z"/><path fill="#000" d="M91.82 44.5c1.3 0 3.05.4 4.02 1.25-1.04-.91-2.81-1.24-4.02-1.24zm6 5.73a6.12 6.12 0 010 0zm-6-5.34a5.58 5.58 0 00-3.07 1 3.86 3.86 0 00-1.8 2.63c-.16.62-.31 1.22-.35 1.83a4.56 4.56 0 001.93 4.16c.92.57 2.21.9 3.55.9 1.08 0 2.08-.22 2.84-.62 1.37-.74 2.25-2.2 2.49-4.1.04-.34.05-.69.03-1.03a5.56 5.56 0 00-1.85-3.62c-.9-.79-2.54-1.15-3.78-1.15zm-4.71 8.76a4.22 4.22 0 010 0zm4.97 2.54c-1.47 0-2.91-.37-3.95-1.02a5.36 5.36 0 01-2.3-4.88c.05-.67.21-1.31.38-1.97a4.6 4.6 0 012.1-3.07 6.33 6.33 0 013.5-1.13c1.28 0 3.16.35 4.28 1.34a6 6 0 012.08 5.33c-.27 2.16-1.3 3.82-2.9 4.68-.86.46-2 .72-3.2.72zm16.4 78.97c-5.56-4.17-14.53-3.57-20.52-1.78-2.13.63-4.25 1.84-6.3 3.02-4.55 2.61-8.85 5.08-13.51 2.04-1.89-1.22-7.92-6.27-6.54-19.9a.38.38 0 00-.34-.42.38.38 0 00-.42.35c-.4 3.97-.14 7.99.74 11.32 1.13 4.26 3.2 7.39 6.14 9.3 5.06 3.29 9.76.6 14.31-2.02 2.01-1.15 4.1-2.34 6.13-2.95 5.83-1.74 14.52-2.34 19.85 1.66 1.32.99 3.06 3.29 2.9 5.03-.07.77-.5 1.34-1.3 1.73-.98.49-2.16.52-3.3.56a25.28 25.28 0 00-6.66 1.1c-8.25 2.51-15.27 7.6-18.77 13.63a141.18 141.18 0 01-13.63 19.83 110.27 110.27 0 01-11.94 12.06 21.36 21.36 0 00-5.59 7.61c-1.37 3.2-1.7 6.85-2.2 10.27-.23 1.62-.44 3.23-.64 4.85a.9.9 0 01.12.07l.38.3c.1.07.19.16.25.25.44-3.98.95-7.95 1.54-11.91v-.04c.33-1.02.63-1.9.95-2.72a20.07 20.07 0 015.69-8.1c4.72-4.14 8.65-8.12 12.02-12.14 4.68-5.6 9.16-12.12 13.71-19.94 3.4-5.86 10.26-10.82 18.33-13.27a24.45 24.45 0 016.47-1.08c1.22-.04 2.47-.08 3.6-.63a2.86 2.86 0 001.73-2.35c.2-2.12-1.8-4.68-3.2-5.73zm-89.4 8.49a.38.38 0 00-.43-.34.39.39 0 00-.33.43c1.46 12.2 3.12 26.02-1.01 38.6l-.01.08c-1.14 2.51-1.5 5.28-1.72 8.06-.02.22-.03.44-.05.66a.8.8 0 01.33.35c.02.04.04.08.06.13.13.03.24.1.34.18.18-3.17.38-6.7 1.72-9.61 1.17-2.55 1.64-5.47 2.03-8.23.41-2.85.61-5.73.66-8.6.11-7.27-.72-14.51-1.6-21.71zm74.11-80.62c-.88 0-1.76.56-2.14 1.36a5.4 5.4 0 00-.33 2.24l-.03 5.03c-.01 1.57-.02 3.19.55 4.64.36.92 1.18 1.9 2.13 1.9.09 0 .17 0 .26-.02.54-.1 1.04-.54 1.34-1.18.28-.6.37-1.3.45-2.03.3-3.02.36-6.08.17-9.1-.03-.43-.06-.8-.16-1.15a2.45 2.45 0 00-2.24-1.69zm.18 15.95c-1.32 0-2.38-1.2-2.84-2.4-.62-1.59-.61-3.36-.6-4.92l.02-5.03c0-.82.02-1.75.41-2.58a3.17 3.17 0 013.04-1.78c1.25.1 2.38 1 2.76 2.22.13.43.16.87.2 1.32.19 3.07.13 6.18-.19 9.24-.08.8-.18 1.56-.52 2.28-.4.86-1.1 1.46-1.88 1.6-.13.03-.26.05-.4.05z"/><path fill="#000" d="M48.68 207.97c-.4-.38-.98.22-.6.59a4.1 4.1 0 011.37 2.86c-1 1.18-1.9 1.3-2.68.39a24.9 24.9 0 00-4.8-3.45c-1.57-.91-3.25-1.57-4.76-2.57-1.48-.98-2.79-2.24-4.18-3.33a106.9 106.9 0 00-9.28-6.32c-1.59-1-3.19-1.97-4.79-2.95-.78-.49-1.57-.98-2.35-1.47a5.65 5.65 0 01-1.74-1.6c-.82-1.18-.44-2.25 1.14-3.22.27-.03.29-.46 0-.44-1.37.06-2.08.95-2.2 2.3-.17 2.02 2.27 3.38 3.64 4.25 5.3 3.37 10.72 6.57 15.68 10.48 1.99 1.56 3.76 3.17 6.03 4.31a36.87 36.87 0 017.42 4.9c.72.62 2.67 1.35 3.28.1.87-1.73.15-3.57-1.18-4.84z"/><path fill="#000" d="M49.6 210.37c-.05-.13-.2-.25-.34-.2-.04.02-.07.04-.1.05a4.6 4.6 0 00-.24-.7.22.22 0 00-.09-.1l-.12-.47c-.05-.23-.3-.26-.45-.15l-.01-.01c-.13-.26-.52-.13-.52.14v.39c0 .58 0 1.17 0 1.75-.43.29-.35.9-.02 1.2-.06.23.24.46.46.33.12-.07.23-.16.33-.24.23-.1.42-.26.55-.46.04.05.08.1.12.16.18.23.47.01.5-.2.01-.13.02-.28 0-.43.08-.36.05-.72-.07-1.06zm-33.72-23.74c-.03.07-.06.15-.08.23a.3.3 0 00-.3.05.7.7 0 00-.25.45.94.94 0 00-.2.16c-.05 0-.1.03-.14.06-.27.2-.38.51-.32.77a1.13 1.13 0 00-.15 1.19c.03.6.27 1.14.97 1.35h.04l.01.01c.15.21.5.16.5-.12a.25.25 0 00.1-.2V188.78l.34-2c.06-.36-.39-.47-.52-.15z"/><path fill="#000" d="M50.03 212.2c-.07-.53-.9-.53-.83 0 .13 1 .2 1.97.04 2.98-.47 2.9-3.76.67-4.76.01-1.6-1.06-2.97-2.47-4.44-3.7-2.92-2.46-6.59-3.7-9.93-5.45a104.85 104.85 0 01-10.6-6.6c-1.78-1.23-4.35-2.45-5.18-4.6-.74-1.9-.18-5.27.41-7.1.09-.26-.3-.36-.4-.11-.71 1.95-1.16 4.69-.73 6.76.4 1.97 1.75 2.92 3.3 4.02 4.74 3.33 9.5 6.63 14.68 9.22 2.4 1.2 4.87 2.17 7.06 3.74 1.91 1.37 3.52 3.13 5.43 4.51 1.04.76 3.42 2.3 4.76 1.31 1.57-1.17 1.42-3.2 1.19-4.99z"/><path fill="#000" d="M49.15 216.08C46.94 224.2 54.73 329.52 63 360.04c.05.2.75.18.7 0-7.47-30.52-15.9-135.35-14.13-143.84.06-.28-.35-.4-.42-.12zm-34.4-19.6l-.68-1.12c-4.2 23.72-10.24 64.95-10.61 76.96-1.66 29.19-2.42 59.07 2.69 88.03h1.17c-5.23-29.1-3.79-58.67-2.67-88.07 1.44-23.15 10.08-75.43 10.1-75.8zm74.8-178.04c-1.64-3.66-3.97-7-6.5-10.07-.53-.64-1.64.22-1.14.89a62.75 62.75 0 015.93 10.2c.57 1.16 2.22.14 1.7-1.02zm8.44-15.8c-.05-1-1.46-1-1.52 0-.24 4.14-.27 8.3-.1 12.46.06 1.12 1.67 1.12 1.72 0 .19-4.12.15-8.35-.1-12.47zm13.58.48c-1.78 3.52-3.51 7.38-4.29 11.27-.22 1.1 1.31 1.54 1.66.46 1.21-3.73 2.25-7.4 3.91-10.97.4-.87-.84-1.63-1.28-.76zm13.35 10.55a36.74 36.74 0 00-10.96 4.24c-.93.55-.11 1.94.83 1.45a53.92 53.92 0 0110.5-4.3c.9-.25.52-1.6-.37-1.4z"/><path fill="#4FD2C5" d="M55.1 309.76a159.2 159.2 0 000 17.96c.5 8.09.13 5.07 1.42 14.37.86 6.2 1.76 12.18 2.7 17.95h3.73c-2.48-10.77-5.1-27.53-7.85-50.28zm-4.86-51.12c-.25 6.1-.55 12.81-.9 20.15-.5 11-.63 14.28-.89 18.4-.25 4.1.31-.35 0 10.78-.3 11.12-.9 14.3-.9 21.55s-.3 3.17.9 13.46c.8 6.86 1.7 12.55 2.7 17.06h5.38a672.05 672.05 0 01-3.6-19.75 124.1 124.1 0 01-1.34-12.57c-.24-4.16 0-3.67 0-10.83v-41.25l-1.35-17z"/></g><mask id="d" fill="#fff"><use xlink:href="#c"/></mask><g fill-rule="nonzero" mask="url(#d)"><path fill="#FED7D8" d="M157.76 163.77c-.08-.34-.2-.66-.35-.97l-.02-.01v-.03a2.15 2.15 0 00-.45-.6c-.7-.64-1.81-.55-2.6-.19-.52.24-.97.6-1.4 1a.38.38 0 01-.22.22c-.24.24-.48.5-.7.74L140.3 176.6c4.48-1.5 9.09-2.56 13.77-3.17.7-.1 1.4-.15 2.1-.14a11.82 11.82 0 001.59-9.52z"/><path fill="#F7AE55" d="M176.1 109.24c.13.24.34.48.64.73.9.75 2.07 1.16 3.17 1.1a3.57 3.57 0 002.8-1.56c.34-.56.48-1.22.58-1.8.07-.37.1-.69.05-.98-.05-.3-.2-.6-.43-.92a4.02 4.02 0 00-4.39-1.32 3.93 3.93 0 00-2.68 3.6c0 .45.08.84.25 1.15z"/><path fill="#FFF" d="M177.02 114.27c1.67.03 3.4-.09 4.94-.2 1.42-.1 2.75-.2 3.8-.15.43.02.9.04 1.39.08.74.04 1.58.1 2.42.11 3.33.07 7.33-.36 8.62-4.32a5.2 5.2 0 00-.03.07c-1.38 3.8-5.65 4.17-8.75 4.1-.81-.01-1.62-.06-2.32-.1-.42-.03-.84-.05-1.25-.07h-.24c-.88-.02-1.98.04-3.15.11-1.4.08-3 .18-4.55.15-2.74-.06-6.56-.47-8.18-3.41a5.94 5.94 0 01-.69-3.33 5.1 5.1 0 01.4-1.62c1.2-2.73 4.28-3.35 6.5-3.58a80.24 80.24 0 0116.93.03 7.3 7.3 0 013.46 1.02c1.63 1.11 2.47 3.52 2.1 5.72.4-2.32-.35-4.95-1.84-6.08-.92-.7-2.02-.87-3.26-1.01a77.21 77.21 0 00-18.23.04c-2.33.28-5.16.96-6.25 3.74-.2.54-.33 1.1-.38 1.67-.1 1.2.14 2.47.64 3.5 1.13 2.33 3.65 3.45 7.92 3.53zm-19.82 58.82c-.04.08-.1.17-.15.26l.15.02v-.28z"/><path fill="#F687B3" d="M167.47 107.17c.05-.66.2-1.31.44-1.93 1.3-3.29 4.65-4.05 7.05-4.35a78.39 78.39 0 0118.48-.04c1.34.16 2.63.37 3.76 1.22 2.01 1.52 2.88 5.11 1.94 8-1.5 4.6-6.2 5.05-9.59 4.98-.82-.02-1.64-.06-2.47-.12-.48-.03-.94-.05-1.35-.07h-.23c-.97-.03-2.18.06-3.47.15-1.55.11-3.31.24-5.02.2-2.96-.06-7.09-.54-8.8-4.07a7.76 7.76 0 01-.74-3.97zm-7.73 67.39a4.75 4.75 0 011.16 4.04 8.04 8.04 0 01-2.88 4.85l-.13 6.89c-.04 2.5-.1 5-.15 7.52a721.76 721.76 0 00-.25 16.1c-.03 4.35-.08 10.92 3.42 13.89 1.89 1.6 3.8 2.45 5.97 2.89.85-.33 1.72-.66 2.57-.94 5.66-1.86 12.23-1.84 19 .04a23.1 23.1 0 015.65 2.39c.57-.6 1.24-1.1 1.98-1.46 4.83-2.35 11.8-1.38 16.9-.68h.07c.42-.23 9.85-.17 10.12-.16.26 0 .54.01.82.02 2.2.07 4.96.15 6.87-.7 3.53-1.57 3.36-6.45 3.24-9.67l-.01-.3c-.16-4.44-.09-8.98.04-13.46a88.18 88.18 0 00-8.74-2.96 3.56 3.56 0 01-2.18-1.88 8.58 8.58 0 01-.46-5.84.38.38 0 01.3-.26 2.95 2.95 0 011.97-1.67c1.07-.28 2.16-.06 3.13.14l6.4 1.3c0-1.22.03-2.45.06-3.68 0-.67-.06-1.45.05-2.14-2.7.75-5.43 1.06-7.94.03-2.24-.93-4.42-3.12-4.25-5.92.12-2.16 1.55-4.08 4.23-5.7 2.49-1.5 5.31-2.49 8.05-3.44l.32-.11.52-.18c-1.27-1.08-3.08-1.45-4.72-1.66l-.61-.07c-1.83-.23-3.72-.46-5.3-1.5a6.88 6.88 0 01-2.92-4.93c-.18-1.54.09-4.33 1.57-5.68 1.2-1.09 3.03-1 4.5-.93l.43.02c2.43.1 4.83.2 7.2.4-.23-1.42-.24-12.09-.24-12.33l.01-.57c.19-16.07.38-32.69-.6-48.93-.02-.13-.03-.26-.04-.39-.5-4.89-4.48-5.93-11.18-6.08-11.06-.26-22.31-.03-33.2.2-6.44.12-13.1.25-19.66.29-3.08.01-7.05.67-9 2.1-3.52 2.57-3.43 6.46-3.34 10.21.01.56.02 1.11.03 1.66.01 5.33.1 10.74.28 16.07.22 6.4.1 12.87-.03 19.11-.02 1.17-.04 2.33-.06 3.5l-.34 19.14a12.63 12.63 0 01-.13 7.68l-.05 2.78c.57.2 1.1.5 1.55.95z"/><path fill="#4B5668" d="M193.99 107.86c-.07.4-.19.93-.48 1.4a3.05 3.05 0 01-2.67 1.37 3.83 3.83 0 01-2.34-.9 2.44 2.44 0 01-.59-.68c-.17-.3-.25-.67-.25-1.09a3.28 3.28 0 013.33-3.16c1.04.02 2.04.51 2.62 1.28.22.3.36.6.4.9.06.3.02.6-.02.87zm1.75-3.93a6.48 6.48 0 00-2.98-.85 78.9 78.9 0 00-12.53-.35c1.66.14 3.21.94 4.13 2.17.37.5.6 1 .69 1.5.09.53.02 1.05-.06 1.49a6.85 6.85 0 01-.83 2.46 5.23 5.23 0 01-4.58 2.33 6.64 6.64 0 01-4.04-1.54 4.14 4.14 0 01-1-1.16 3.72 3.72 0 01-.42-1.83 5.66 5.66 0 014.42-5.32c-.84.06-1.67.13-2.5.22-2.14.22-4.71.76-5.7 3-.17.43-.28.88-.32 1.34a5.1 5.1 0 00.58 2.81c1.05 1.9 3.37 2.83 7.32 2.9 1.5.04 3.08-.06 4.47-.14 1.3-.08 2.52-.14 3.49-.11.39.02.81.04 1.27.07.7.04 1.49.09 2.28.1 3.02.06 6.64-.28 7.8-3.47.72-2.01.04-4.59-1.49-5.62z"/><path fill="#FFF" d="M192.8 106.62a2.35 2.35 0 00-2.57-.77 2.31 2.31 0 00-1.58 2.12c0 .26.04.48.14.65.07.13.2.27.37.41.53.45 1.23.7 1.88.65.67-.04 1.3-.4 1.62-.9.2-.33.29-.73.35-1.08.04-.22.06-.4.03-.57a1.23 1.23 0 00-.24-.5z"/><path fill="#FED7D8" d="M150.56 186.94c-.25.07-.5.15-.75.23-.81.45-1.53 1.1-2.33 1.93a41.33 41.33 0 00-5.63 7.27c2.06 0 4.06.05 5.96.1.43 0 .9.02 1.39.06a24.19 24.19 0 014.35-10.58c-1 .37-2 .69-3 .99zm141.39 59.19a173.62 173.62 0 01-4.76-11.25c-.88-2.23-1.8-4.53-2.75-6.78-2.23-5.24-5-9.95-7.92-14.94-.4-.68-.8-1.36-1.2-2.05-3.32-5.68-5.4-11.52-7.57-18.02-.16-.47-.32-.95-.48-1.43-1.67-5.08-3.4-10.33-7.44-13.6a25.57 25.57 0 00-15.51-5.64c-2.62-.06-5.2.7-7.71 1.55l-.02.02c-.08.08-.2.1-.3.1-.33.1-.65.21-.97.33l-.33.11c-2.7.94-5.48 1.9-7.9 3.37-2.45 1.49-3.75 3.2-3.86 5.08-.15 2.43 1.8 4.34 3.78 5.16 3.72 1.53 8.15-.17 12.06-1.67.54-.21 1.06-.4 1.56-.6a5.28 5.28 0 001.26-2.93.38.38 0 01.42-.33c.21.02.37.2.34.42-.1.9-.4 1.77-.87 2.54.1.05.18.13.21.23.03.08.02.17 0 .24 1.44.94 3.06 1.62 4.72 2l.28.05c.59.13 1.2.26 1.74.6.6.35 1.01.9 1.34 1.49.08-.06.19-.07.29-.05 2.13.53 4.48.09 6.29-1.17a.38.38 0 01.53.1c.12.17.07.41-.1.53a8.65 8.65 0 01-6.65 1.34 23.3 23.3 0 011.69 7.8 64.16 64.16 0 0113.61 6.32.39.39 0 01-.2.71.37.37 0 01-.2-.05 63.41 63.41 0 00-13.54-6.26h-.03a.37.37 0 01-.25-.1c-.87-.28-1.75-.54-2.63-.79a128.6 128.6 0 00-8.11-1.84L228 194.1c-.89-.18-1.9-.4-2.8-.16-.77.2-1.56.9-1.53 1.72 0 .2-.15.38-.36.4a7.72 7.72 0 00.58 4.54c.41.8.99 1.3 1.7 1.5 7.67 2.23 11.26 3.96 16.68 6.58 1.95.94 3.7 1.94 5.25 2.97a.37.37 0 01.18-.05 6.23 6.23 0 004.63-2.17.38.38 0 01.54-.04c.16.14.18.38.04.55a7.02 7.02 0 01-4.42 2.38c3.55 2.54 5.96 5.38 7.3 8.56.74 1.75 1.15 3.63 1.56 5.45.08.37.16.73.24 1.1a77.04 77.04 0 005.41 15.64c.1.2.01.43-.18.52a.38.38 0 01-.5-.18 77.84 77.84 0 01-5.47-15.81c-.09-.37-.17-.73-.25-1.1-.4-1.78-.8-3.63-1.51-5.32-1.97-4.66-6.14-8.42-13.15-11.8-1.87-.9-3.52-1.7-5.2-2.45.78 3.9 1.39 7.82 1.82 11.77a17.22 17.22 0 019.12 9.08c.09.2 0 .42-.2.5a.38.38 0 01-.5-.2 16.46 16.46 0 00-8.33-8.5c.1 1.04.2 2.09.29 3.13.21 2.75.17 5.81-1.76 7.72-1.45 1.43-3.58 1.8-5.28 1.95-5.1.47-10.2-.28-15.16-1-.99-.14-1.97-.28-2.96-.41l-.9-.13c-5-.69-11.84-1.63-16.47.62-.6.3-1.16.7-1.65 1.18 2.26 1.52 4.27 3.7 4.75 6.76.13.82.1 1.54-.1 2.16.22.11.43.23.63.34.73.4 1.36.75 2.25.87 15.71 2.1 20.01 3.79 28.76 9.41 2.8 1.8 5.55 3.94 8.21 6.01 5.03 3.92 10.23 7.97 16.12 10.04.56.2 1.13.39 1.7.58 3.3 1.08 6.71 2.2 8.62 5.13a15.5 15.5 0 011.51 3.37c.56 1.6 1.1 3.1 2.24 4.16.65.61 1.44 1.02 2.28 1.45l.26.14c.05-.02.1-.04.16-.04 2.86-.12 5.18-2.24 7.49-4.59a.38.38 0 01.54 0c.15.15.15.4 0 .55-2.1 2.13-4.36 4.21-7.08 4.7.06.04.12.07.17.11.98.64 1.8 1.46 2.54 2.34l.08-.01c1.75.06 3.54-.6 4.88-1.77.15-.14.4-.13.53.04.14.16.13.4-.03.54a7.95 7.95 0 01-4.87 1.95c.44.58.84 1.17 1.23 1.75 10.83 16.27 24.16 53.25 28.72 71.83h49.93c-1.74-13.48-19.7-43.99-52.72-95.85-.52-.68-1.05-1.36-1.57-2.05a95.78 95.78 0 01-10.04-16.45zM147.59 187.9c-.22.09-.45.17-.67.26a92 92 0 00-14.52 7.75c-.47.3-.9.68-1.37 1.1l-.18.15c3.38-.56 6.8-.75 10.1-.78a42.12 42.12 0 016.64-8.48z"/><path fill="#FED7D8" d="M130.74 196.23a5.58 5.58 0 01-2.96-1.35.39.39 0 01.23-.68c.1 0 .2.03.28.1.87.77 2 1.2 3.16 1.22.04 0 .09 0 .13.02a102.41 102.41 0 0110.75-6.15 6.79 6.79 0 01-1.66-2.05.39.39 0 01.16-.52.38.38 0 01.52.16c.41.8 1 1.49 1.71 2.03l.02.01a69.86 69.86 0 013.55-1.57c.95-.39 1.93-.7 2.9-1 .08-.05.16-.1.24-.14a.37.37 0 01.26-.02l.3-.1c1.52-.45 3.09-.93 4.53-1.61 2.97-1.4 4.95-3.68 5.29-6.1a3.97 3.97 0 00-.94-3.37c-.7-.7-1.66-.97-2.7-1.04a.37.37 0 01-.37-.01c-.65-.01-1.32.05-1.97.13a74.95 74.95 0 00-32.22 12.33 23.18 23.18 0 00-5.18 4.43c-1.48 1.83-2.46 4.04-3.42 6.17-1.1 2.49-2.46 5-3.77 7.44a142.91 142.91 0 00-3.1 6c.36-.29.73-.57 1.1-.85l5.53-4.24a54.84 54.84 0 016.94-4.77 32.69 32.69 0 019.2-3.25c.44-.29.85-.65 1.28-1.03l.2-.19h.01zm123.22-22.55c-1.36-4.42-4.85-8.5-9.9-11.52-.74-.45-1.73-1-2.78-1.36-1.19-.4-2.43-.56-3.7-.7-2.97-.31-5.99-.45-9.07-.57l-.44-.02c-1.32-.06-2.98-.14-3.95.74-1.12 1.01-1.52 3.34-1.32 5.01a6.1 6.1 0 002.58 4.37c1.43.94 3.23 1.16 4.97 1.38l.61.07c1.9.25 4.02.7 5.45 2.14 2.57-.87 5.2-1.63 7.92-1.58 3.33.07 6.6.78 9.63 2.04zm-18.67 16.81c.03 1.44.05 2.87.06 4.3v.03l5.57 1.14c1.05.21 2.11.44 3.18.67-.7-3.33-1.52-6.63-2.46-9.9-.13-.08-.26-.17-.39-.25-.61.22-1.24.45-1.9.7-1.32.51-2.7 1.04-4.1 1.47.19.53.04 1.43.04 1.84zm8.46.84c1.33.56 2.74.9 4.18 1.01.2.02.37.2.35.42a.38.38 0 01-.38.36h-.03c-1.37-.11-2.71-.42-4-.91.38 1.52.73 3.05 1.04 4.57v.02a85.06 85.06 0 016.43 1.68 22.51 22.51 0 00-1.46-6.87c-.33-.85-.77-1.8-1.54-2.27-.44-.26-.96-.37-1.5-.49l-.3-.06a15.3 15.3 0 01-3.95-1.5c.37 1.33.73 2.67 1.07 4.02l.1.02z"/><path fill="#FED7D8" d="M104.76 229a.39.39 0 01.02-.7c.1-.05.2-.04.3 0 4.15 1.84 8.8 2.3 13.23 1.3a.39.39 0 01.17.75c-4.6 1.04-9.4.57-13.72-1.34zm31.49 9.5a17.25 17.25 0 0111.97-12.43.39.39 0 01.2.75 16.7 16.7 0 00-11.43 11.87c-.04.17-.2.3-.37.3l-.1-.01a.39.39 0 01-.27-.47zm-20.8 63.19c6.3-13.98 8.62-15.36 14.25-18.7a84.75 84.75 0 006.2-3.94c8.96-6.32 17.55-14.3 25.55-23.73.22-.27.45-.54.68-.81 1.24-1.48 2.52-3.01 4.05-4.25a25.74 25.74 0 015.48-3.2c8.16-3.77 15.12-5.16 21.28-4.24 2.37.35 4.56.53 5.5-.97a.38.38 0 01-.01-.33c.05-.1.14-.19.26-.21a4 4 0 00.06-1.78c-.45-2.92-2.45-4.98-4.68-6.42a.37.37 0 01-.18-.08l-.05-.06a22.28 22.28 0 00-5.59-2.38c-6.63-1.85-13.05-1.86-18.56-.05-.98.32-2 .71-2.99 1.1-3.85 1.48-7.85 3.01-11.58 1.35-2.7-1.2-5.2-3.82-6.4-6.67-2.18-5.21-2.37-11.82-.57-18.67-.2.08-.4.14-.6.2-2.41.77-5 1.01-7.51 1.24l-1.04.1c.04.97.01 1.94-.09 2.9a.38.38 0 01-.38.34h-.04a.39.39 0 01-.34-.43 18 18 0 00.09-2.73c-3.09.32-5.99.8-8.5 2.44-1.05.68-2.02 1.56-2.96 2.41-1.65 1.5-3.36 3.05-5.56 3.6a.39.39 0 01-.18-.76c2.02-.5 3.58-1.91 5.23-3.41.96-.88 1.95-1.78 3.05-2.49 2.73-1.77 5.94-2.27 9.13-2.6a.38.38 0 01.12-.03l.09.02c.43-.05.87-.09 1.31-.13 2.47-.22 5.02-.46 7.35-1.2 1.68-.54 3.92-1.6 5.04-3.63.94-1.72.8-4.33-.93-5.49-1.05-.7-2.48-.74-3.64-.76-5.82-.14-12.15-.3-18.19.9l-.03.03a.37.37 0 01-.3.05 31.85 31.85 0 00-8.86 3.16 54.29 54.29 0 00-6.84 4.7l-5.54 4.25c-4.2 3.22-8.56 6.54-10.26 15.85-.75 13.64-1.61 29.08-8.51 42.05-6.55 12.3-14.9 24.44-25.54 37.09-2.12 2.52-4.34 4.99-6.57 7.4-18.88 22.95-29.3 38.97-31.24 48.06h63.63c4.86-11.97 12.6-29.93 24.9-56.87.5-1.1.85-1.86 1.01-2.22z"/><path fill="#000" d="M349.04 340.9c-7.1-14.52-22.1-40.15-45-76.9l-.7.3c36.83 59.32 45.42 77.71 45.41 77.76 5.68 11.54 7.44 16.69 7.55 18.74.01.2.18.36.38.36h.02c.21-.01.37-.2.36-.4-.14-2.74-2.83-9.38-8.02-19.87zM240.98 186.4a.38.38 0 01-.25-.09.39.39 0 01-.04-.55c.67-.8 1.1-1.78 1.2-2.82a.38.38 0 01.43-.34c.2.02.36.2.33.42a6.07 6.07 0 01-1.38 3.25.38.38 0 01-.3.13h.01z"/><path fill="#000" d="M251.75 199.45a.38.38 0 01-.38-.38 22.53 22.53 0 00-1.49-7.46c-.33-.85-.77-1.8-1.54-2.27-.44-.26-.96-.37-1.5-.49l-.3-.06c-2-.45-3.9-1.3-5.56-2.5a.39.39 0 01-.1-.54.38.38 0 01.54-.1 14.57 14.57 0 005.3 2.38l.27.06c.59.13 1.2.26 1.74.6.97.58 1.49 1.66 1.86 2.64a23.28 23.28 0 011.55 7.72c0 .21-.16.4-.37.4h-.02z"/><path fill="#000" d="M252.17 191.12c-.67 0-1.34-.08-2-.24a.39.39 0 01.19-.75c2.13.53 4.48.09 6.29-1.17a.38.38 0 01.53.1c.12.17.07.4-.1.53a8.65 8.65 0 01-4.91 1.53zm20 92.68a.38.38 0 01-.39-.37.38.38 0 01.37-.4c2.86-.12 5.18-2.24 7.49-4.59a.38.38 0 01.54 0c.15.15.15.4 0 .55-2.33 2.36-4.86 4.68-8 4.81h-.02zm-24.46-71.42a.38.38 0 01-.38-.38.38.38 0 01.38-.4 6.23 6.23 0 004.62-2.16.38.38 0 01.54-.04c.16.14.18.38.04.55a7 7 0 01-5.2 2.43zm28.36 74.53c-.07 0-.14 0-.2 0a.39.39 0 01-.38-.4.38.38 0 01.4-.38c1.76.06 3.54-.6 4.88-1.77.16-.14.4-.13.53.04.14.16.13.4-.03.54a7.95 7.95 0 01-5.2 1.97zm-31.53-89.66a.38.38 0 01-.37-.31c-.72-3.44-1.57-6.85-2.54-10.23a.39.39 0 01.26-.48.38.38 0 01.47.26c.98 3.4 1.83 6.83 2.55 10.29.05.2-.08.41-.29.46h-.08z"/><path fill="#000" d="M247.9 193.12h-.03c-1.52-.12-3-.49-4.41-1.08a.39.39 0 010-.71c.1-.04.2-.04.3 0 1.32.56 2.73.9 4.17 1.01.2.02.37.2.35.42a.38.38 0 01-.38.36zM97.42 225.75a.39.39 0 00-.4.36c-.76 13.56-1.61 28.93-8.43 41.75-6.52 12.26-14.85 24.35-25.45 36.96-1.94 2.3-4 4.55-6.03 6.75-17.6 20.94-28.36 37.34-32.24 49.2h1.04c7.8-21.04 28.77-44.73 31.2-48 2.25-2.43 4.47-4.91 6.61-7.45 10.64-12.65 19-24.78 25.54-37.1 6.9-12.97 7.76-28.42 8.52-42.06a.39.39 0 00-.37-.41zM198.37 109.1c-.02.09-.04.18-.06.26.02-.08.04-.17.06-.26zm-20.38-6.14a5.66 5.66 0 00-3.87 5.18c0 .7.14 1.32.42 1.83.22.4.54.77 1 1.16a6.64 6.64 0 004.5 1.53c1.72-.1 3.3-1 4.12-2.32.5-.81.7-1.74.83-2.46.07-.44.15-.96.06-1.48-.09-.5-.32-1.01-.7-1.51a5.77 5.77 0 00-4.12-2.17 78.93 78.93 0 0112.53.35c1.09.12 2.14.27 2.98.85 1.53 1.03 2.2 3.6 1.48 5.62-1.15 3.2-4.77 3.53-7.79 3.47-.8-.01-1.59-.06-2.28-.1-.46-.03-.88-.06-1.27-.07-.97-.04-2.2.03-3.5.11-1.38.08-2.95.18-4.46.15-3.95-.08-6.27-1-7.32-2.9a5.1 5.1 0 01-.58-2.82c.04-.48.15-.93.33-1.34.98-2.24 3.55-2.78 5.68-3a77.8 77.8 0 012.51-.22c-.19.04-.37.08-.55.14zm.53 1.52a4.02 4.02 0 014.38 1.32c.24.32.39.63.44.92.05.3.02.6-.05.99-.1.57-.24 1.23-.59 1.8a3.58 3.58 0 01-2.78 1.55 4.63 4.63 0 01-3.18-1.1c-.3-.25-.51-.49-.65-.73-.17-.31-.25-.7-.25-1.15 0-1.58 1.14-3.1 2.68-3.6zm11.05 9.62c-.84-.02-1.68-.07-2.42-.12-.46-.03-.92-.05-1.39-.07-1.05-.04-2.38.05-3.8.15-1.54.11-3.27.23-4.94.2-4.27-.08-6.79-1.2-7.92-3.53a6.95 6.95 0 01-.64-3.5c.05-.57.17-1.13.38-1.67 1.1-2.78 3.92-3.46 6.25-3.74a77.45 77.45 0 0118.23-.05c1.24.15 2.34.33 3.26 1.02 1.5 1.13 2.24 3.75 1.83 6.08.38-2.2-.46-4.6-2.1-5.72a7.3 7.3 0 00-3.45-1.02 80.24 80.24 0 00-16.94-.03c-2.21.23-5.3.85-6.49 3.58a5.13 5.13 0 00-.4 1.62c-.1 1.16.14 2.31.7 3.33 1.6 2.94 5.44 3.35 8.17 3.4 1.55.04 3.14-.06 4.55-.14 1.17-.07 2.27-.13 3.15-.12l.24.01c.38.02.8.04 1.25.07.7.04 1.5.09 2.32.1 3.1.06 7.37-.3 8.75-4.1.05-.13.09-.27.12-.4-.03.1-.05.22-.09.33-1.3 3.95-5.29 4.39-8.62 4.32zm9.57-4.04c.94-2.89.07-6.48-1.94-8-1.13-.85-2.42-1.06-3.76-1.22a78.39 78.39 0 00-18.48.04c-2.4.3-5.75 1.06-7.05 4.35a6.73 6.73 0 00-.44 1.93 7.76 7.76 0 00.73 3.97c1.72 3.53 5.85 4.01 8.8 4.07 1.72.04 3.48-.09 5.03-.2 1.29-.09 2.5-.18 3.47-.16l.23.01c.41.02.87.04 1.35.07.75.05 1.6.1 2.47.12 3.4.07 8.08-.37 9.59-4.98z"/><path fill="#000" d="M190.23 105.85c.23-.08.48-.11.74-.1.73 0 1.43.34 1.83.87.13.18.21.35.24.51.03.16 0 .35-.03.57-.06.35-.15.75-.35 1.08-.32.5-.95.86-1.62.9-.65.04-1.35-.2-1.88-.65a1.52 1.52 0 01-.37-.41c-.1-.17-.14-.4-.14-.65 0-.93.67-1.82 1.58-2.12zm-1.73 3.89a3.83 3.83 0 002.6.88c1-.06 1.93-.58 2.41-1.36.3-.47.4-1 .48-1.4.04-.28.08-.57.03-.87-.07-.34-.2-.65-.41-.91a3.38 3.38 0 00-3.7-1.12 3.28 3.28 0 00-2.25 3c0 .42.08.78.25 1.09.13.24.33.47.6.69zm-51.88 129.25c.18 0 .33-.13.37-.3a16.7 16.7 0 0111.43-11.87.39.39 0 00-.2-.75 17.25 17.25 0 00-11.97 12.44c-.05.2.07.41.28.47h.09zm-22.96-8.1c1.62 0 3.24-.18 4.82-.54a.39.39 0 00-.17-.75c-4.44 1-9.08.54-13.24-1.3a.38.38 0 00-.5.2c-.09.19 0 .42.2.5a21.87 21.87 0 008.9 1.89z"/><path fill="#000" d="M169.45 229.8c-.85.28-1.72.61-2.57.94a12.76 12.76 0 01-5.97-2.9c-3.5-2.96-3.45-9.53-3.42-13.88 0-.38.01-.74.01-1.08.01-5 .13-10.1.24-15.03.05-2.5.11-5 .15-7.51l.13-6.89a8.05 8.05 0 002.88-4.85 4.75 4.75 0 00-1.16-4.04 4.02 4.02 0 00-1.55-.96l.05-2.78a12.63 12.63 0 00.13-7.68l.34-19.14c.02-1.17.04-2.33.06-3.5.12-6.24.24-12.7.03-19.11-.17-5.36-.27-10.71-.28-16.07 0-.55-.02-1.1-.03-1.65-.09-3.76-.18-7.65 3.34-10.22 1.95-1.43 5.92-2.08 9-2.1 6.55-.03 13.21-.17 19.66-.3 10.89-.22 22.14-.45 33.2-.2 6.7.16 10.68 1.2 11.18 6.1.01.12.02.25.03.38.99 16.24.8 32.86.61 48.93v.57c-.01.24 0 10.9.23 12.33-2.37-.2-4.77-.3-7.2-.4l-.43-.02c-1.47-.07-3.3-.16-4.5.93-1.48 1.35-1.75 4.14-1.57 5.68a6.88 6.88 0 002.93 4.93c1.57 1.04 3.46 1.27 5.29 1.5l.6.07c1.65.21 3.46.58 4.73 1.66l-.52.18-.32.1c-2.74.96-5.56 1.94-8.05 3.45-2.68 1.62-4.1 3.54-4.23 5.7-.17 2.8 2.01 5 4.25 5.92 2.51 1.03 5.25.72 7.94-.03-.11.69-.04 1.47-.05 2.14-.03 1.23-.05 2.46-.07 3.69l-6.39-1.31c-.97-.2-2.06-.42-3.13-.15-.81.22-1.65.83-1.97 1.68a.38.38 0 00-.3.25 8.58 8.58 0 00.46 5.84 3.56 3.56 0 002.18 1.89 88.3 88.3 0 018.74 2.96c-.13 4.48-.2 9.01-.04 13.47v.28c.13 3.23.3 8.1-3.23 9.68-1.92.85-4.66.77-6.87.7-.28 0-.56-.02-.82-.02-.27 0-9.7-.07-10.12.17l-.07-.01c-5.1-.7-12.07-1.67-16.9.68-.74.37-1.4.86-1.98 1.46a23.2 23.2 0 00-5.65-2.4c-6.77-1.88-13.34-1.89-19-.03zm-14.02 2.48a12.41 12.41 0 01-6-6.26c-2.18-5.2-2.32-11.84-.4-18.73a8.35 8.35 0 004-3.42c1.1-2.02.9-5.12-1.18-6.51a4.97 4.97 0 00-1.9-.73c.62-4 2.23-7.7 4.78-10.98a.38.38 0 00.08-.2c.12-.06.25-.11.37-.17.66-.31 1.27-.67 1.83-1.05l-.1 6.1c-.05 2.5-.1 5-.16 7.5-.12 4.93-.23 10.03-.24 15.04 0 .35 0 .7 0 1.08-.04 4.52-.1 11.35 3.75 14.6a13.7 13.7 0 005.09 2.77c-3.37 1.28-6.8 2.35-9.92.96zm-13.58-35.9a41.33 41.33 0 015.63-7.28c.8-.83 1.52-1.48 2.33-1.94l.75-.23c.99-.3 2-.6 2.99-.98a24.21 24.21 0 00-4.35 10.58c-.46-.04-.93-.06-1.39-.07-1.9-.04-3.9-.1-5.96-.09zm-10.82.62c.46-.4.9-.8 1.36-1.1a92.08 92.08 0 0115.2-8c-.22.22-.44.44-.65.65-2.3 2.37-4.3 5-5.99 7.83-3.3.03-6.72.22-10.1.78l.18-.16zm-10.98 3.7a54.8 54.8 0 00-6.94 4.77l-5.54 4.24c-.36.28-.73.56-1.1.84a142.3 142.3 0 013.11-6c1.3-2.43 2.66-4.94 3.77-7.43.95-2.13 1.94-4.34 3.42-6.18a23.17 23.17 0 015.17-4.42 74.95 74.95 0 0132.23-12.33c.65-.09 1.31-.13 1.97-.13.12.07.26.07.38.01 1.03.07 1.99.34 2.68 1.04.78.77 1.13 2.03.94 3.38-.34 2.4-2.31 4.68-5.28 6.09-1.44.68-3 1.15-4.52 1.61l-.31.1a.37.37 0 00-.26.02c-.08.04-.17.09-.25.13-.96.3-1.94.62-2.89 1-1.2.5-2.38 1.02-3.55 1.58l-.02-.02a6.01 6.01 0 01-1.71-2.02.38.38 0 00-.52-.16.39.39 0 00-.16.52c.41.79.98 1.48 1.66 2.05a102.21 102.21 0 00-10.75 6.15.37.37 0 00-.13-.02 4.8 4.8 0 01-3.16-1.22.38.38 0 00-.54.03c-.14.16-.12.4.03.55.83.73 1.86 1.2 2.96 1.35-.07.07-.14.13-.21.19-.43.38-.85.74-1.28 1.03-3.2.65-6.31 1.67-9.2 3.25zM152 163.92c.23-.25.46-.5.7-.74.1-.04.19-.12.23-.22.43-.4.88-.76 1.4-1 .79-.37 1.9-.45 2.6.19.18.17.33.37.45.6v.03h.01c.17.33.28.67.36.98.86 3.22.26 6.76-1.58 9.52-.7-.02-1.42.05-2.1.14-4.7.6-9.3 1.67-13.78 3.17L152 163.93zm5.04 9.42c.06-.09.1-.18.15-.26v.28l-.15-.02zm84.23-12.55c1.05.36 2.04.91 2.78 1.36 5.05 3.02 8.54 7.1 9.9 11.52a26.6 26.6 0 00-9.63-2.04c-2.72-.05-5.36.71-7.92 1.58-1.43-1.44-3.55-1.9-5.45-2.14l-.61-.07c-1.74-.22-3.54-.44-4.97-1.38a6.1 6.1 0 01-2.58-4.37c-.2-1.67.2-4 1.32-5.01.97-.88 2.62-.8 3.95-.74l.43.02c3.09.12 6.1.26 9.08.58 1.27.13 2.51.29 3.7.7zm-5.38 45.8c.82 4.04 1.45 8.12 1.9 12.21a.38.38 0 00.03.35c.13 1.21.25 2.42.34 3.63.22 2.69.18 5.41-1.53 7.1-1.27 1.25-3.24 1.58-4.8 1.73-4.75.43-9.56-.2-14.22-.88.34.03.57.05.62.05.26 0 5.44.1 5.72.1.38.01.77.03 1.17.03 2.06.04 4.37-.02 6.15-.82 4.13-1.83 3.94-7.08 3.81-10.56l-.01-.28c-.15-4.3-.09-8.7.03-13.03.27.11.53.22.79.34v.04zm70.51 154.08c-4.44-18.4-17.85-55.62-28.78-72.04-1.18-1.78-2.5-3.62-4.36-4.84-.5-.32-1.03-.6-1.54-.87-.84-.43-1.63-.84-2.28-1.45-1.14-1.07-1.68-2.57-2.24-4.15-.4-1.16-.83-2.35-1.5-3.38-1.92-2.92-5.33-4.05-8.62-5.13-.57-.19-1.14-.38-1.7-.58-5.9-2.07-11.1-6.12-16.13-10.04a114.23 114.23 0 00-8.2-6c-8.76-5.63-13.06-7.32-28.77-9.42-.9-.12-1.52-.47-2.25-.87-.2-.12-.42-.23-.63-.34.2-.61.23-1.34.1-2.16-.48-3.06-2.49-5.24-4.75-6.76a6.26 6.26 0 011.65-1.18c4.63-2.25 11.47-1.3 16.47-.62l.9.13c.99.13 1.97.27 2.96.42 4.95.71 10.06 1.46 15.16.99 1.7-.16 3.83-.52 5.28-1.95 1.93-1.9 1.97-4.97 1.75-7.72-.08-1.04-.17-2.09-.28-3.13a16.46 16.46 0 018.33 8.5.38.38 0 10.7-.3 17.22 17.22 0 00-9.12-9.08c-.43-3.95-1.04-7.88-1.82-11.77 1.68.75 3.33 1.54 5.2 2.45 7 3.38 11.18 7.14 13.15 11.8a31.06 31.06 0 011.51 5.32 77.84 77.84 0 005.71 16.9.38.38 0 10.7-.33 77.04 77.04 0 01-5.42-15.64c-.08-.37-.16-.73-.24-1.1-.4-1.82-.82-3.7-1.56-5.45-2.01-4.78-6.44-8.77-13.52-12.2-5.42-2.62-9-4.35-16.67-6.57-.72-.21-1.3-.72-1.71-1.5a7.7 7.7 0 01-.58-4.55c.2-.02.36-.2.36-.4-.03-.82.76-1.51 1.54-1.72.9-.23 1.9-.02 2.79.16l12.77 2.6c2.67.56 5.44 1.12 8.1 1.85a63.4 63.4 0 0116.47 7.15.38.38 0 00.52-.13.39.39 0 00-.13-.53 64.12 64.12 0 00-16.65-7.23c-2.7-.74-5.47-1.3-8.16-1.86l-5.57-1.14v-.02c-.01-1.44-.03-2.87-.06-4.3 0-.42.15-1.32-.03-1.85 1.39-.43 2.77-.95 4.09-1.46.84-.33 1.64-.63 2.4-.9a.39.39 0 00.05-.71.38.38 0 00-.3-.02c-.77.27-1.57.58-2.42.9-3.92 1.5-8.35 3.21-12.07 1.68-1.99-.82-3.93-2.73-3.78-5.16.1-1.88 1.4-3.6 3.86-5.08 2.42-1.46 5.2-2.43 7.9-3.37l.33-.11.97-.34c.1.02.22-.02.3-.09l.02-.02c2.51-.85 5.09-1.61 7.7-1.55a25.57 25.57 0 0115.52 5.64c4.04 3.28 5.77 8.52 7.44 13.6.16.48.32.96.48 1.43 2.18 6.5 4.25 12.34 7.57 18.02.4.69.8 1.37 1.2 2.05 2.93 4.99 5.7 9.7 7.92 14.94.96 2.25 1.87 4.55 2.75 6.78 1.47 3.72 3 7.57 4.76 11.24a95.78 95.78 0 0010.04 16.45c.6.78 1.2 1.56 1.79 2.34.07-.3.18-.58.32-.85-.5-.65-1-1.3-1.5-1.96a94.94 94.94 0 01-9.96-16.31 173.45 173.45 0 01-4.74-11.2c-.88-2.23-1.8-4.54-2.75-6.8-2.25-5.28-5.16-10.23-7.98-15.03-.4-.68-.8-1.36-1.2-2.04-3.27-5.62-5.33-11.42-7.5-17.88-.16-.47-.31-.95-.47-1.43-1.71-5.18-3.48-10.54-7.69-13.96a25.68 25.68 0 00-5.45-3.38V174c-1.3-4.82-5-9.26-10.41-12.5-.78-.47-1.8-1.05-2.93-1.43-1.26-.43-2.6-.6-3.86-.73-.4-.05-.8-.08-1.2-.11.2-1.53.03-12.15.04-12.39v-.56c.19-16.1.38-32.73-.6-49-.02-.14-.03-.29-.04-.43-.63-6.16-6.6-6.8-12.15-6.94a783.7 783.7 0 00-33.24.2c-6.44.13-13.1.26-19.65.3-3 .01-7.32.62-9.6 2.3-3.91 2.86-3.81 6.98-3.72 10.97.01.55.02 1.1.02 1.64.02 5.34.12 10.76.3 16.1.2 6.38.08 12.83-.04 19.07l-.07 3.5-.3 17.56c-.97-.83-2.4-.75-3.39-.28l-1.42 1.18h-.01v.01l-1.13.94-12.7 13.73a77.3 77.3 0 00-17.24 8.74 23.83 23.83 0 00-5.34 4.59c-1.54 1.9-2.55 4.16-3.52 6.34a115.8 115.8 0 01-3.75 7.39c-1.3 2.43-2.66 4.95-3.77 7.43-3.48 2.9-6.7 6.63-8.12 14.45-.04.2.1.4.3.45h.08c.18 0 .34-.13.37-.32 1.7-9.32 6.05-12.65 10.26-15.87l5.54-4.24a54.3 54.3 0 016.84-4.71c2.8-1.54 5.8-2.53 8.86-3.16.1.02.21 0 .3-.05l.03-.02c6.04-1.2 12.37-1.05 18.2-.91 1.15.02 2.58.06 3.63.76 1.73 1.16 1.87 3.77.93 5.5-1.12 2.02-3.36 3.08-5.04 3.62-2.33.74-4.88.98-7.35 1.2-.44.04-.87.08-1.31.13l-.09-.02a.38.38 0 00-.12.04c-3.19.32-6.4.82-9.13 2.6-1.1.7-2.09 1.6-3.05 2.48-1.65 1.5-3.21 2.91-5.23 3.41a.39.39 0 00.18.76c2.2-.55 3.91-2.1 5.56-3.6.94-.85 1.9-1.73 2.95-2.4 2.52-1.64 5.42-2.13 8.5-2.45a18 18 0 01-.08 2.73c-.02.21.13.4.34.43h.04c.2 0 .36-.15.38-.34.1-.96.13-1.93.09-2.9l1.04-.1c2.5-.23 5.1-.47 7.51-1.23.2-.07.4-.13.6-.2-1.8 6.84-1.6 13.45.58 18.66a13.22 13.22 0 006.4 6.67c3.73 1.66 7.72.13 11.58-1.36.98-.38 2-.77 2.98-1.1 5.51-1.8 11.93-1.79 18.56.06 1.35.37 3.55 1.11 5.6 2.38l.04.06c.05.04.11.07.18.08 2.23 1.43 4.23 3.5 4.68 6.42.11.7.09 1.29-.06 1.78a.38.38 0 00-.26.2c-.05.12-.04.24.01.34-.94 1.5-3.13 1.32-5.5.97-6.16-.92-13.12.47-21.28 4.24-1.85.85-3.8 1.83-5.48 3.2-1.53 1.24-2.81 2.77-4.05 4.25-.23.27-.45.54-.68.8-8 9.44-16.6 17.42-25.55 23.74a84.77 84.77 0 01-6.2 3.95c-5.63 3.33-7.96 4.7-14.24 18.69-.17.36-.52 1.12-1.02 2.22-12.3 26.94-20.04 44.9-24.9 56.87h.83c4.85-11.95 12.57-29.82 24.76-56.54l1.02-2.23c6.19-13.76 8.46-15.1 13.94-18.34 1.74-1.04 3.72-2.2 6.25-3.99 9-6.35 17.65-14.38 25.69-23.86.23-.27.45-.54.68-.81a29.8 29.8 0 013.94-4.15 25.09 25.09 0 015.33-3.1c8.02-3.7 14.84-5.07 20.85-4.18 1.99.3 4.97.73 6.25-1.31.2.1.4.21.6.32.76.42 1.47.82 2.5.96 15.58 2.07 19.83 3.75 28.46 9.3 2.77 1.77 5.5 3.9 8.16 5.97 5.07 3.95 10.33 8.04 16.33 10.15.57.2 1.14.39 1.72.58 3.17 1.05 6.45 2.13 8.21 4.82.63.96 1.04 2.1 1.43 3.22.57 1.6 1.16 3.26 2.44 4.46.73.68 1.6 1.13 2.45 1.57.5.26 1.01.53 1.48.83 1.74 1.14 3 2.9 4.14 4.63 10.86 16.32 24.2 53.32 28.65 71.7.14 0 .28 0 .42.02.12 0 .23 0 .35 0 0-.04 0-.08 0-.12h-.01zm-161.2-259.77a9.47 9.47 0 00-.87-4.43 5.74 5.74 0 00-3.65-3.05c1.2-.68 2.27-1.57 3.17-2.61.88-.86 1.25-2.02 1.54-3.22a224 224 0 00.81-3.47 17.2 17.2 0 004.5 11.48c-3-.14-4.6 2.61-5.5 5.3zm6.16-5.19a16.8 16.8 0 01-4.65-13.83c.03-.22-.32-.26-.37-.05l-1.05 4.66c-.31 1.4-.57 2.89-1.5 3.99a.17.17 0 00-.23.04c-1 1.16-2.2 2.11-3.55 2.82-.15.07-.13.34.04.37 4.3.6 5.11 5.53 4.6 9.12-.04.25.3.36.37.1.75-2.97 2.23-7.5 6.14-6.88.19.03.35-.18.2-.34zm-2.82-19.16a23.1 23.1 0 01-.5-5.24c0-.23-.31-.21-.34 0-.11.85-.32 1.69-.6 2.5-.28.77-.93 2.59-1.9 2.66-.14.02-.14.24 0 .24.87-.03 1.26-.91 1.63-1.59.38-.7.67-1.44.88-2.2.05 1.25.22 2.5.52 3.72.05.2.35.11.31-.09zm-3.48 32.31a7.07 7.07 0 01-.87 1.5c-.47-1.23-.93-2.46-1.41-3.69-.06-.14-.28-.08-.23.07.47 1.33.97 2.65 1.45 3.98.04.1.18.17.26.07.46-.54.82-1.15 1.09-1.8.07-.17-.22-.3-.3-.13zm-13.39-20.6c-2.38-.88-4.74-1.84-7.06-2.87-.61-.27-1.14.64-.53.92a56.66 56.66 0 007.4 2.68c.47.14.64-.56.2-.73zm-.86 4.9c-2.33.12-4.64.64-6.85 1.41-.64.22-.37 1.25.29 1.04 2.2-.72 4.4-1.26 6.66-1.76.38-.09.3-.71-.1-.7zm1.37 5.56c-1.97 1.74-3.9 3.52-5.78 5.36-.47.46.24 1.17.72.72 1.91-1.79 3.8-3.63 5.62-5.52.36-.37-.17-.9-.56-.56zm122.6 1.36c-1.74 1.38-3.29 2.9-5.2 4.08a19.36 19.36 0 00-4.24 3.38c-.37.4.18.91.58.59 3.18-2.57 6.97-4.07 9.72-7.18.54-.6-.25-1.34-.85-.87zm4.47 20.8a58.97 58.97 0 00-12.66-8.98c-.37-.2-.65.32-.32.57 4.13 3.07 8.21 6.18 12.3 9.3.52.4 1.14-.46.68-.89z"/><path fill="#000" d="M251.1 129.34c-.8-1.5-1.6-3.01-2.41-4.51-.47-.85-.93-1.71-1.4-2.56-.13-.24-.86-1.27-1.05-1.73l.03-.06c.08-.19.06-.4-.13-.51l-.11-.07c-.24-.13-.49 0-.58.24-.35.93.95 2.5 1.34 3.27 1.11 2.17 2.25 4.32 3.4 6.46.33.6 1.22.07.9-.53z"/></g><mask id="f" fill="#fff"><use xlink:href="#e"/></mask><g fill-rule="nonzero" mask="url(#f)"><path fill="#FFF" d="M309.22 182.1c.6.55 1.28 1.02 2.01 1.4.63.3 1.1.38 1.42.2a.36.36 0 01.27-.03l.06-.08c-1.33-.28-2.6-.79-3.76-1.5z"/><path fill="#B3B3B3" d="M328.89 182.38c-.12.26-.21.5-.21.7.01.19.1.36.24.48.16.13.34.19.5.16.12-.01.24.03.33.11l5.3-8.25c.74-1.15 1.5-2.33 2.38-3.4 2.03-2.47 4.68-4.34 7.25-6.15a88.26 88.26 0 003.09-2.24 37.6 37.6 0 00-18.88 18.6z"/><path fill="#FFF" d="M383.68 290.66c-.05 0-.1.01-.14.01 0 .04 0 .08.02.11a.6.6 0 01.12-.12z"/><path fill="#FC8181" d="M371.6 294.45c-3.7.3-7.4.44-11.08.35.01.03.03.06.03.1.23 3.25.25 6.53.32 9.8.05 2.18.55 4.84-.4 6.9 1.72-.04 3.44-.1 5.13-.17 6.54-.27 13.22-.78 19.65-2.08 2.25-.46 1.47-3.29 1.28-4.87a60.54 60.54 0 00-2.55-11.68c-1.8.68-3.97.72-5.86.96-2.17.26-4.34.5-6.52.69z"/><path fill="#FFF" d="M350.5 87.8c.27.42.9.85 1.67.85h.05c.8-.02 1.46-.48 1.76-.93.32-.48.38-1.03.43-1.64.11-1.5.17-3.03.17-4.53 0-1.23-.36-3.08-.66-4.55l-.04-.22c-.13-.62-.16-.75-.84-1.19a2.84 2.84 0 00-1.46-.38c-.59 0-1.08.16-1.36.44-.31.3-.33.7-.33 1.2.02 3.07.1 6.2.23 9.3.03.56.05 1.15.37 1.64z"/><path fill="#4B5668" d="M331.45 82.86c.05-.65.2-1.28.37-1.93.37-1.43.9-2.2 2.04-2.95a6.16 6.16 0 013.4-1.1c1.24 0 3.09.33 4.16 1.29a6.14 6.14 0 012.05 4c.03.39.02.77-.03 1.16-.26 2.1-1.25 3.7-2.8 4.53-.84.45-1.94.7-3.12.7a7.52 7.52 0 01-3.86-1 5.15 5.15 0 01-2.2-4.7zm-1 4.8c.02.8.7 1.46 1.51 1.46v.2l.03-.2c3.75-.08 7.46-.19 11.33-.33.83-.03 1.5-.74 1.49-1.59-.02-.7-.02-1.4-.03-2.1-.03-2.3-.05-4.7-.23-7.26a1.56 1.56 0 00-1.54-1.45h-.07c-2.9.13-5.45.15-8.16.17-1 .01-2.04.02-3.11.03a1.58 1.58 0 00-1.55 1.65c.05 1.52.1 3.08.16 4.63.05 1.6.1 3.21.17 4.78z"/><path fill="#F7AE55" d="M333.87 87.24c.95.59 2.28.93 3.65.93 1.12 0 2.16-.23 2.94-.65 1.43-.77 2.36-2.27 2.6-4.24.05-.36.06-.71.03-1.07a5.76 5.76 0 00-1.92-3.75c-.94-.83-2.64-1.2-3.92-1.2a5.84 5.84 0 00-3.19 1.04 4.03 4.03 0 00-1.87 2.73c-.17.63-.31 1.24-.36 1.86a4.75 4.75 0 002.03 4.35z"/><path fill="#E9D8FD" d="M328.4 75.27c.48-.51 1.14-.8 1.83-.81 1.34-.02 2.61-.03 3.86-.04 3.34-.02 6.49-.04 10.05-.2 1.39-.07 2.54 1 2.64 2.36.21 3.19.25 6.15.28 9.03 0 .85.02 1.7.03 2.57a2.55 2.55 0 01-2.43 2.6c-4.67.17-9.34.3-14 .4h-.06a2.5 2.5 0 01-2.49-2.4c-.08-1.97-.14-3.93-.2-5.9-.07-1.92-.14-3.85-.2-5.73-.04-.7.21-1.38.7-1.88zm21.42-.04c.4-.38 1.02-.6 1.76-.6.66 0 1.3.18 1.77.48.84.54.94.82 1.08 1.56l.05.22c.3 1.49.67 3.37.67 4.66 0 1.53-.05 3.05-.17 4.57-.05.7-.13 1.33-.53 1.92a2.82 2.82 0 01-2.22 1.2h-.06a2.6 2.6 0 01-2.16-1.13c-.4-.63-.43-1.33-.46-1.94-.13-3.1-.21-6.22-.23-9.32 0-.44-.01-1.11.5-1.62zm-43.38 102.4c.14.34.28.69.43 1.03.4.7.89 1.3 1.49 1.8a11.26 11.26 0 005.18 2.4c1.68-2.28 3-4.9 3.95-7.82.21-.65.41-1.33.6-1.99.78-2.65 1.57-5.4 3.51-7.4a16.52 16.52 0 014.25-2.87c7.12-3.82 14.48-7.76 22.57-9.42 1.22-.26 2.64-.49 3.98-.08 1.12.34 2.23 1.29 2.49 2.53.7-.67 1.5-1.13 2.51-1.13 1.27 0 2.5.83 3.15 2.12a6.4 6.4 0 01.48 3.74c-.54 4.3-3.45 7.6-6.27 10.8-1.53 1.75-3.12 3.55-4.31 5.49a39.59 39.59 0 00-1.99 3.89c-.3.65-.6 1.3-.93 1.96 1.93-.16 15.82.06 16.04.06.23 0 .48 0 .73.01 1.95.02 4.38.05 6.07-.74 3.09-1.44 2.85-5.74 2.69-8.58v-.26c-.3-5.2-.23-10.55-.16-15.71v-.09a.4.4 0 01.17-.31c.43-16.51.35-33.04-.24-49.55 0-.1.03-.2.1-.27v-.02c-.11-14.17-.22-28.83-1.37-43.13l-.04-.34c-.52-4.3-4.06-5.16-10-5.17-9.77-.04-19.72.36-29.34.75-5.7.22-11.59.46-17.38.6-2.72.07-6.22.72-7.93 2.01-3.06 2.33-2.92 5.76-2.77 9.07.02.49.04.97.05 1.45.1 4.7.28 9.47.53 14.17.3 5.64.3 11.34.3 16.85 0 1.03 0 2.05 0 3.08l.07 40.87c0 2.21 0 4.42-.01 6.63v.96c4.64-2.03 8.41-2.26 14.37-2.47.65-.03 1.34.33 1.8.92.42.55.44 1.3.42 1.8a8.9 8.9 0 01-4.73 7.46c-.61.31-1.26.55-1.88.78a16.57 16.57 0 00-2.64 1.17c-1.01.5-1.87.91-2.7 1.69-1.11 1.03-2.23 2.23-3.31 3.4-.4.42-.8.85-1.2 1.28.08 1.77.27 3.68.77 5.38l.5 1.2z"/><path fill="#FFF" d="M330.27 76.82c.36-.39.86-.61 1.4-.61 1.07-.02 2.1-.03 3.11-.03 2.7-.02 5.26-.04 8.15-.17a1.93 1.93 0 012 1.8c.18 2.57.2 4.97.23 7.3.01.69.02 1.38.03 2.09a1.95 1.95 0 01-1.86 1.98c-3.87.14-7.57.25-11.33.33h-.04a1.9 1.9 0 01-1.9-1.84 820.4 820.4 0 01-.33-9.41c-.02-.53.17-1.05.54-1.44zm-1.4 11.92c.04.93.8 1.67 1.73 1.68h.04c4.63-.1 9.2-.24 13.99-.41a1.78 1.78 0 001.7-1.81c-.01-.87-.03-1.73-.04-2.59-.03-2.86-.06-5.81-.28-8.98a1.77 1.77 0 00-1.76-1.65h-.08c-3.57.17-6.73.2-10.07.22-1.25 0-2.52.01-3.86.03-.49 0-.94.2-1.28.57-.34.35-.51.83-.5 1.32.08 1.88.14 3.81.21 5.74.07 1.97.13 3.95.2 5.88zm-24.53 83.17c-.05.06-.12.12-.17.17l.22.56c-.02-.24-.04-.49-.05-.73z"/><path fill="#FC8181" d="M357.48 305.57c-.11.82-.2 2.08-.98 2.6-1.66 1.12-3.58-.47-3.71-2.25-.06-.9 0-3.18.9-3.84.39-1.56 2.78-1.53 3.45.03.48 1.1.5 2.27.34 3.46zm2.1 5.65c1.07-2.22.4-5.7.36-8.03-.03-2.76-.13-5.53-.03-8.29a.3.3 0 01.02-.12 67.45 67.45 0 01-15.38-2.16c-.15 1.4.08 3.6.08 4.15 0 1.48 0 2.96 0 4.44l-.01 5.2c-.01 1.9-.05 4.22 2.33 4.56 3.97.57 8.09.7 12.18.65.03-.25.23-.39.45-.4z"/><path fill="#FED7D8" d="M355.95 323.03a52.24 52.24 0 00-.2 5.83c.04.97.07 1.95.16 2.92.03.53.1 1.04.26 1.55l2.43.41a84.2 84.2 0 00.6-21.15c-.6 0-1.2 0-1.8-.02.23 3.44-1.16 7.03-1.45 10.46z"/><path fill="#E6E6E6" d="M356 302.18l-1.1.32a.25.25 0 01-.3.08l-.02.01c-.02.4-.4.54-.68.4-.36.75-.37 2.2-.34 2.54.1.93.83 2.59 2.11 2.06.91-.37.93-2.19.94-2.98 0-.46.04-.98-.09-1.42a1.86 1.86 0 00-.51-1z"/><path fill="#DBBBAB" d="M348.68 292.5c1.85.32 3.7.59 5.56.75 3.37.3 6.73.4 10.1.3 3.4-.1 6.79-.33 10.16-.7 1.87-.22 3.74-.44 5.6-.7.72-.1 1.44-.2 2.15-.31.22-.03.44-.08.66-.13-2.64-19.12-4.63-37.66-4.16-49.52.03-.58.06-1.17.08-1.76.35-7.97.7-16.2-3.05-23.05-.97-1.78-2.22-3.43-3.42-5.03l-12.54-16.67c-1.5-1.98-3.09-3.66-4.63-5.27-.79-.83-1.57-1.65-2.32-2.5.02 0-2.27-3.26-3-4.3h-2.76l-.05-.02c-.54 1-1.14 1.97-1.84 2.83l1.97 2.42c.22.28.47.59.64.96.23.5.27 1.04.31 1.52l.25 3a32.75 32.75 0 006.35 5.29c.67.43 1.37.84 2.04 1.24 1.24.72 2.51 1.47 3.68 2.36 3.86 2.92 6.47 7.28 8.78 11.13a.39.39 0 01-.33.59.38.38 0 01-.33-.19c-2.27-3.79-4.84-8.08-8.58-10.92a36.17 36.17 0 00-3.6-2.3c-.68-.4-1.4-.82-2.07-1.26a33.38 33.38 0 01-6.39-5.3.37.37 0 01-.28-.3.37.37 0 01-.05-.43l-.23-2.84a3.8 3.8 0 00-.24-1.27c-.13-.28-.34-.54-.54-.79l-2.18-2.67a.4.4 0 01.01-.5c1.41-1.63 2.4-3.74 3.34-5.77a39 39 0 012.03-3.97c1.23-2 2.83-3.82 4.39-5.6 2.86-3.25 5.57-6.32 6.08-10.38.17-1.3.03-2.42-.4-3.29-.52-1.01-1.5-1.7-2.47-1.7-1.65 0-2.7 1.65-3.75 3.25-.13.2-.25.39-.38.58-2.07 3.1-5.17 5.28-8.15 7.39-2.53 1.78-5.14 3.62-7.1 6-.86 1.04-1.6 2.2-2.33 3.33l-7.03 10.95a.38.38 0 01-.53.11.39.39 0 01-.12-.53l1.31-2.03a1.42 1.42 0 01-.89-.35c-.31-.26-.5-.64-.52-1.05 0-.38.13-.7.29-1.04a37.7 37.7 0 0121.43-19.85h.04a18.37 18.37 0 002.97-3.36c.12-.19.25-.38.38-.58.37-.57.76-1.17 1.2-1.71a.34.34 0 01-.03-.16c.03-1.14-1.01-2.08-2.01-2.38-1.17-.36-2.48-.14-3.6.1-7.98 1.64-15.3 5.55-22.37 9.34a15.94 15.94 0 00-4.06 2.74c-1.8 1.86-2.58 4.51-3.32 7.07-.2.67-.4 1.34-.61 2a27.68 27.68 0 01-4.97 9.22.37.37 0 01-.3.14.37.37 0 01-.24-.09l-.02-.03c-.14.04-.29.06-.44.06-.4 0-.85-.13-1.36-.39a9.8 9.8 0 01-4.39-4.49 10.95 10.95 0 01-1.6-3.79l-1.32-3.23c-.19.18-.37.36-.56.53a.38.38 0 01-.54-.02.39.39 0 01.03-.55c1.1-1.03 2.22-2.23 3.3-3.4 1.1-1.17 2.22-2.38 3.34-3.43.92-.85 1.88-1.32 2.9-1.81.26-.14.54-.27.83-.42.6-.31 1.26-.55 1.88-.78.6-.23 1.22-.46 1.8-.75 2.46-1.27 4.2-4 4.3-6.8.03-.62-.05-1.02-.26-1.3a1.5 1.5 0 00-1.17-.62c-6.3.22-10.12.47-15.15 2.9-5.17 2.49-8.63 7.63-11.4 11.77-1.5 2.23-2.75 4.26-2.81 6.57-.06 1.91.73 3.73 1.6 5.57a123.3 123.3 0 005.12 9.58c.1.18.05.41-.13.53a.4.4 0 01-.2.05.39.39 0 01-.33-.19 120.98 120.98 0 01-5.14-9.63c-.89-1.86-1.74-3.85-1.69-5.94.08-2.5 1.43-4.73 2.94-6.97a69.63 69.63 0 014.29-5.92.39.39 0 01-.23-.5c.53-1.46.58-3.98-.27-5.48a2.44 2.44 0 00-1.71-1.29c-.86-.16-1.69.48-2.18 1.13-.3.4-.55.86-.8 1.34-.23.41-.45.83-.72 1.23a22.42 22.42 0 01-2.6 2.96c-.7.7-1.4 1.4-2 2.16-1.55 1.94-2.03 4.35-2.51 6.68-1.4 6.87-2.24 14.9-.74 16.29l1.77 1.63a1399.9 1399.9 0 0115.91 14.9c3.87 3.71 8.33 6.73 12.57 9.5.82.55 1.63 1.08 2.44 1.6 8.48 5.52 16.48 10.73 23.29 19 3.96 4.8 7.03 11.21 8.64 18.05 1.33 5.61.88 10.94.4 16.58-.07.8-.13 1.61-.2 2.43a671.34 671.34 0 00-1.34 22.14c.1.02.2.05.31.07.7.15 1.41.3 2.12.43z"/><path fill="#FC8181" d="M386.62 310.23c-1.53.74-3.77.7-5.43.93a150.72 150.72 0 01-20.87 1.44c.41 4.93.47 9.9.05 14.84-.17 2.07-.15 4.58-.8 6.57-.36 1.1-.96 1.67-2.14 1.62-3.4-.15-2.65-6.96-2.58-8.96.07-2.22.24-4.45.6-6.65.4-2.46 1.28-4.95 1.3-7.46-1.97-.05-3.94-.13-5.9-.26-1.4-.1-4.13.05-5.76-.9.1 2.63.09 5.26.1 7.89-.1 2.28-3.4 40.27-3.2 40.9h52.2c-2.08-16.91-6.07-33.37-6.95-50.4-.18.18-.4.33-.62.44z"/><path fill="#FED7D8" d="M366.18 318.35a2.25 2.25 0 00-2.23 2.25 2.25 2.25 0 002.23 2.24 2.25 2.25 0 002.22-2.24 2.25 2.25 0 00-2.22-2.25zm12.43 10.48c-1.57 0-1.57 2.46 0 2.46s1.57-2.46 0-2.46zm3.44-12.35c-1.8 0-1.8 2.82 0 2.82 1.81 0 1.81-2.82 0-2.82zm-15.68-18.31c-1.75 0-1.75 2.73 0 2.73 1.74 0 1.74-2.73 0-2.73zm13.58 4.87c-1.13 0-2.08.95-2.08 2.1 0 1.14.95 2.1 2.08 2.1a2.1 2.1 0 002.08-2.1c0-1.15-.94-2.1-2.08-2.1zM348.2 319.5c-1.63 0-1.63 2.56 0 2.56s1.63-2.56 0-2.56zm1.72-23.11c-1.18 0-2.16.99-2.16 2.17 0 1.19.98 2.17 2.16 2.17 1.17 0 2.15-.98 2.15-2.17 0-1.18-.98-2.17-2.15-2.17zm21.8 13.18c-1.73 0-1.73 2.71 0 2.71 1.74 0 1.74-2.71 0-2.71z"/><path fill="#000" d="M305.17 170.98c-.23.27-.53.49-.85.63.2 3.5.9 7.38 3.47 9.47a12.19 12.19 0 005.55 2.6c.16-.28.38-.53.63-.74a11.34 11.34 0 01-5.61-2.49c-2.47-2-3.04-6-3.2-9.47zm68.64-63.76c-.11-14.2-.23-28.86-1.38-43.2-.01-.12-.02-.24-.04-.37-.66-5.42-5.95-5.89-10.86-5.9-9.8-.03-19.75.36-29.39.75-5.69.22-11.58.46-17.36.6-2.66.07-6.47.68-8.45 2.2-3.41 2.59-3.26 6.22-3.1 9.74.01.48.03.97.04 1.44.1 4.71.29 9.48.54 14.19.29 5.62.29 11.31.29 16.81 0 1.03 0 2.06 0 3.09l.07 40.87c0 2.2 0 4.41 0 6.62 0 .59-.01 1.18-.01 1.77.28-.2.58-.31.87-.36 0-.47 0-.94 0-1.4.02-2.22.02-4.43.02-6.64l-.07-40.87c0-1.03 0-2.05 0-3.08 0-5.5 0-11.2-.3-16.85-.25-4.72-.42-9.44-.53-14.17 0-.48-.03-.96-.05-1.45-.14-3.31-.29-6.74 2.78-9.07 1.7-1.3 5.2-1.94 7.92-2 5.8-.15 11.68-.39 17.38-.61 9.62-.39 19.57-.78 29.35-.75 5.93.01 9.47.87 10 5.17l.03.34c1.15 14.3 1.26 28.96 1.37 43.13v.5c.01.23.2.42.44.41.25 0 .45-.19.45-.42l-.01-.5zm-25.78 87.76a.39.39 0 01-.39-.35l-.26-3.24a3.8 3.8 0 00-.24-1.27c-.13-.28-.34-.54-.55-.79l-2.17-2.67a.4.4 0 01.01-.5c1.41-1.63 2.4-3.74 3.34-5.77a39 39 0 012.03-3.97c1.23-2 2.83-3.82 4.39-5.6 2.86-3.25 5.57-6.32 6.09-10.38.16-1.3.02-2.42-.42-3.3-.5-1-1.49-1.69-2.46-1.69-1.65 0-2.7 1.65-3.75 3.25-.13.2-.25.39-.38.58-2.07 3.1-5.17 5.28-8.16 7.39-2.52 1.78-5.13 3.62-7.1 6-.85 1.04-1.6 2.2-2.32 3.33l-7.03 10.95a.38.38 0 01-.53.11.39.39 0 01-.12-.53l7.04-10.95c.73-1.15 1.5-2.33 2.38-3.4 2.03-2.47 4.68-4.34 7.25-6.15 2.93-2.06 5.96-4.2 7.96-7.18.12-.2.24-.38.38-.58 1.09-1.68 2.32-3.58 4.38-3.59h.01c1.26 0 2.5.83 3.13 2.12a6.4 6.4 0 01.5 3.74c-.55 4.3-3.47 7.6-6.28 10.8-1.53 1.74-3.12 3.54-4.31 5.49a39.59 39.59 0 00-1.99 3.88c-.92 1.99-1.87 4.04-3.24 5.71l1.96 2.42c.23.28.48.59.65.96.23.5.27 1.04.31 1.52l.27 3.24c.02.21-.14.4-.35.42h-.03z"/><path fill="#000" d="M312.96 184.63a.39.39 0 01-.3-.63 26.98 26.98 0 004.83-8.96c.21-.65.41-1.33.6-1.99.78-2.65 1.57-5.4 3.51-7.4a16.48 16.48 0 014.25-2.87c7.12-3.82 14.5-7.76 22.58-9.42 1.22-.26 2.63-.49 3.97-.08 1.3.4 2.6 1.6 2.55 3.15 0 .2-.18.37-.4.37a.39.39 0 01-.36-.4c.03-1.14-1.01-2.08-2.01-2.38-1.17-.36-2.47-.14-3.6.1-7.98 1.64-15.3 5.55-22.37 9.34a15.94 15.94 0 00-4.06 2.74c-1.8 1.86-2.58 4.51-3.32 7.07-.2.67-.4 1.34-.61 2a27.68 27.68 0 01-4.97 9.22.37.37 0 01-.3.14zm16.39-.13c-.34 0-.66-.13-.92-.35-.31-.26-.5-.64-.51-1.05 0-.38.12-.7.28-1.04a37.7 37.7 0 0121.43-19.84.38.38 0 01.49.23c.07.2-.04.42-.24.5a37.48 37.48 0 00-21 19.43c-.1.26-.2.5-.2.7 0 .17.1.35.25.48.14.13.33.19.5.16a.38.38 0 01.43.33.38.38 0 01-.32.44c-.06 0-.12.01-.19.01zm-32.9 5.8a.39.39 0 01-.32-.2 120.98 120.98 0 01-5.14-9.63c-.89-1.86-1.74-3.85-1.69-5.94.08-2.5 1.43-4.73 2.94-6.97 2.83-4.22 6.35-9.46 11.71-12.04 5.17-2.5 9.04-2.74 15.46-2.97.65-.03 1.34.33 1.8.92.42.56.44 1.3.42 1.8a8.9 8.9 0 01-4.73 7.46c-.61.31-1.26.55-1.88.78-.6.23-1.22.46-1.79.75-.3.15-.58.29-.85.42-1 .5-1.87.91-2.7 1.69-1.11 1.03-2.23 2.23-3.31 3.4-1.1 1.17-2.22 2.38-3.35 3.43a.38.38 0 01-.54-.02.39.39 0 01.03-.55c1.1-1.03 2.22-2.23 3.3-3.4 1.1-1.17 2.22-2.38 3.34-3.43.92-.85 1.88-1.32 2.9-1.81.26-.14.54-.27.83-.42.6-.31 1.26-.55 1.88-.78.6-.23 1.22-.46 1.8-.75 2.46-1.27 4.2-4 4.3-6.8.03-.62-.05-1.02-.26-1.3a1.5 1.5 0 00-1.17-.62c-6.3.22-10.12.47-15.15 2.9-5.17 2.48-8.63 7.63-11.4 11.77-1.5 2.23-2.75 4.26-2.81 6.56-.06 1.92.73 3.73 1.6 5.58a123.3 123.3 0 005.12 9.58c.1.18.05.41-.13.53a.39.39 0 01-.2.05z"/><path fill="#000" d="M312.25 184.57c-.4 0-.84-.13-1.36-.39a9.8 9.8 0 01-3.96-3.69c-.49-.82-.85-1.7-1.2-2.57l-2.3-5.6a.39.39 0 01.21-.5.38.38 0 01.5.2l2.3 5.6c.34.84.69 1.7 1.15 2.47a8.98 8.98 0 003.64 3.4c.63.32 1.1.38 1.43.21a.38.38 0 01.5.17.4.4 0 01-.15.52c-.23.12-.5.18-.76.18z"/><path fill="#000" d="M347.4 250.84c-1.62-6.84-4.69-13.25-8.65-18.05-6.81-8.27-14.81-13.48-23.29-19-.8-.52-1.62-1.05-2.44-1.6-4.24-2.77-8.7-5.79-12.57-9.5a1399.9 1399.9 0 00-15.91-14.9l-1.77-1.63c-1.5-1.39-.67-9.42.74-16.29.48-2.33.97-4.74 2.52-6.68.6-.75 1.3-1.46 1.99-2.16.9-.92 1.85-1.87 2.6-2.96.27-.4.5-.82.71-1.23.26-.48.5-.93.81-1.34.5-.65 1.32-1.29 2.18-1.13.73.14 1.3.57 1.71 1.3.85 1.5.8 4 .27 5.48-.07.2.03.42.23.5.2.07.42-.04.49-.24.6-1.66.65-4.41-.32-6.13a3.21 3.21 0 00-2.24-1.67c-1.2-.22-2.3.59-2.92 1.42-.35.46-.62.96-.88 1.44-.2.4-.43.79-.67 1.16a21.61 21.61 0 01-2.52 2.86c-.7.7-1.41 1.43-2.04 2.21-1.66 2.1-2.17 4.6-2.67 7.01-.5 2.46-2.89 14.81-.5 17.02l1.76 1.63c5.13 4.76 10.95 10.15 15.9 14.9 3.93 3.75 8.6 6.91 12.69 9.59.81.53 1.63 1.06 2.44 1.6 8.42 5.48 16.37 10.66 23.11 18.83 3.89 4.71 6.9 11.01 8.5 17.74 1.29 5.49.84 10.76.37 16.34-.07.8-.13 1.61-.2 2.43a638.6 638.6 0 00-1.36 22.16c.1.05.2.12.28.21.15.18.31.35.47.53.33-7.62.78-15.23 1.37-22.84.07-.82.14-1.62.2-2.43.48-5.64.93-10.97-.4-16.58zm21.51-35.91a.38.38 0 01-.33-.19c-2.27-3.79-4.84-8.08-8.57-10.91-1.14-.87-2.4-1.6-3.6-2.32a33.64 33.64 0 01-8.74-6.84.39.39 0 01.01-.54c.16-.14.4-.14.55.02a32.64 32.64 0 006.5 5.46c.68.43 1.38.84 2.05 1.24 1.24.72 2.51 1.47 3.68 2.36 3.86 2.92 6.47 7.28 8.78 11.13a.39.39 0 01-.33.59z"/><path fill="#000" d="M378.76 242.2c-.48 12 1.56 30.9 4.26 50.28.23-.2.46-.4.69-.6-2.66-19.18-4.66-37.8-4.19-49.66.02-.58.05-1.17.07-1.76.35-8.07.7-16.42-3.14-23.45-1-1.83-2.26-3.5-3.48-5.13l-12.54-16.66a43.18 43.18 0 00-4.69-5.35c-.68-.65-4.06-5.57-4.67-6.45-.28.06-1.13-.19-1.4-.12l3.2 4.62c.76.84 1.54 1.66 2.32 2.49 1.54 1.61 3.14 3.29 4.63 5.27l12.54 16.67a42.3 42.3 0 013.42 5.03c3.74 6.85 3.4 15.08 3.05 23.05-.02.59-.05 1.18-.07 1.76zm-34.5-167.22h-.09c-3.57.17-6.73.2-10.07.22-1.25 0-2.52.01-3.86.03-.49 0-.94.2-1.28.57-.34.35-.51.83-.5 1.32.08 1.88.14 3.81.21 5.74.06 1.97.13 3.95.2 5.88.04.93.8 1.67 1.73 1.68h.04c4.63-.1 9.2-.23 13.99-.41a1.78 1.78 0 001.7-1.81c-.01-.87-.03-1.73-.04-2.59-.03-2.86-.06-5.81-.28-8.98a1.77 1.77 0 00-1.76-1.65zm-13.66 16.2a2.5 2.5 0 01-2.49-2.4c-.08-1.97-.14-3.93-.2-5.9-.07-1.92-.14-3.85-.2-5.73a2.59 2.59 0 012.52-2.7c1.33 0 2.61-.02 3.86-.03 3.33-.02 6.49-.04 10.05-.2 1.38-.07 2.54 1 2.64 2.36.21 3.19.25 6.16.28 9.03 0 .85.02 1.71.03 2.58a2.55 2.55 0 01-2.43 2.6c-4.67.16-9.34.3-14.01.4h-.05z"/><path fill="#000" d="M343 76.4h-.06c-2.9.12-5.45.14-8.16.16-1 .01-2.04.02-3.11.03a1.58 1.58 0 00-1.55 1.65c.05 1.52.1 3.08.16 4.63.05 1.6.1 3.21.17 4.78.02.82.7 1.47 1.51 1.47v.2l.03-.2c3.75-.08 7.46-.19 11.33-.33.83-.03 1.5-.74 1.49-1.59-.02-.7-.02-1.4-.03-2.1-.03-2.3-.05-4.7-.23-7.26a1.56 1.56 0 00-1.54-1.45zm-11.04 13.1a1.9 1.9 0 01-1.9-1.83 820.4 820.4 0 01-.33-9.41 1.95 1.95 0 011.94-2.06c1.07 0 2.1-.02 3.11-.02 2.7-.02 5.26-.04 8.15-.17a1.93 1.93 0 012 1.8c.18 2.57.2 4.97.23 7.3.01.69.02 1.38.03 2.09a1.95 1.95 0 01-1.86 1.98c-3.87.14-7.57.25-11.33.33h-.04zm19.62-14.29c-.59 0-1.08.16-1.36.44-.31.3-.33.7-.33 1.2.02 3.07.1 6.2.23 9.3.03.56.05 1.15.37 1.64.28.43.9.86 1.68.86h.05c.8-.02 1.46-.48 1.76-.93.32-.48.38-1.03.43-1.64.11-1.5.17-3.03.17-4.53 0-1.23-.36-3.08-.66-4.55l-.04-.22c-.13-.62-.16-.75-.84-1.19a2.84 2.84 0 00-1.46-.38zm.6 14.02a2.6 2.6 0 01-2.17-1.12c-.4-.63-.43-1.33-.46-1.94-.13-3.1-.21-6.22-.23-9.32 0-.44-.01-1.11.5-1.62.4-.38 1.02-.6 1.76-.6.66 0 1.3.18 1.77.48.84.54.94.82 1.08 1.56l.05.22c.3 1.49.67 3.37.67 4.66 0 1.53-.05 3.05-.17 4.57-.05.7-.13 1.33-.53 1.92a2.82 2.82 0 01-2.22 1.2h-.06z"/><path fill="#000" d="M337.25 77.26a5.84 5.84 0 00-3.19 1.04 4.03 4.03 0 00-1.87 2.73c-.17.63-.31 1.24-.36 1.86a4.75 4.75 0 002.03 4.35c.96.59 2.29.93 3.66.93 1.11 0 2.16-.23 2.94-.65 1.43-.77 2.36-2.27 2.6-4.24.05-.36.06-.71.03-1.07a5.76 5.76 0 00-1.92-3.75c-.94-.83-2.64-1.2-3.92-1.2zm.27 11.3a7.52 7.52 0 01-3.86-1 5.15 5.15 0 01-2.2-4.7c.04-.65.19-1.28.36-1.93.37-1.43.9-2.2 2.04-2.95a6.16 6.16 0 013.4-1.1c1.24 0 3.09.33 4.16 1.29a6.14 6.14 0 012.05 4c.03.39.02.77-.03 1.16-.26 2.1-1.25 3.7-2.8 4.53-.84.45-1.94.7-3.12.7zm36.4 84.57c-.28-5.16-.22-10.47-.15-15.6a.39.39 0 00.05-.18c.44-16.55.37-33.33-.22-49.87a.38.38 0 00-.4-.37.39.39 0 00-.37.4c.59 16.43.66 33.1.24 49.55a.4.4 0 00-.17.31v.09c-.07 5.17-.14 10.5.15 15.71v.26c.17 2.84.41 7.14-2.68 8.58-1.69.79-4.12.76-6.07.74-.24 0-.48 0-.72 0-.25 0-16.28-.26-16.28-.03s-.43.9-.19.9c.23 0 16.93-.04 17.18-.04.33 0 .68 0 1.03 0 1.82 0 3.87-.1 5.44-.82 3.6-1.7 3.35-6.32 3.18-9.38l-.02-.25zm9.45 116.18c-.86.2-.5 1.55.37 1.34-.16.33-.33.65-.5.98-.32.1-.65.16-.99.2-.71.13-1.43.21-2.15.31-1.86.27-3.73.5-5.6.7-3.37.38-6.76.62-10.15.71-3.37.1-6.75 0-10.11-.3a63.03 63.03 0 01-9.09-1.52c-.18-.88.07-1.2.76-.98.43.03.53-.68.1-.76a41.8 41.8 0 01-1.13-.2c-.2-.04-.41.02-.52.21-.36.7-.5 1.25-.54 2.04a.5.5 0 00.36.48c8.96 2.46 18.22 2.68 27.42 1.93 2.18-.18 4.35-.43 6.52-.7 1.92-.23 4.13-.27 5.94-.98 1.97-.77 1.52-3.98-.7-3.46z"/><path fill="#000" d="M345.85 291.13a.36.36 0 00-.09-.13c.01-.15 0-.3-.04-.46a.39.39 0 00-.36-.29.82.82 0 00-.08-.2c-.2-.35-.76-.2-.76.22 0 .16 0 .33 0 .5v.04c-.02.08-.01.18 0 .27 0 .18 0 .37.01.56 0 .23.18.4.4.43.06.29.47.5.68.22.28-.34.4-.74.24-1.16z"/><path fill="#000" d="M387.55 302.88a65.1 65.1 0 00-2.87-11.92c-.25-.75-1.45-.43-1.19.33a60.06 60.06 0 013.04 13.2c.19 1.57.97 4.4-1.28 4.86-6.43 1.3-13.1 1.8-19.65 2.08-6.13.25-12.57.41-18.65-.46-2.38-.34-2.34-2.66-2.33-4.57v-5.19c.01-1.48.01-2.96.01-4.44 0-.8-.5-5.05.41-5.36.42-.14.25-.74-.18-.66-.6.1-.95.49-1.03 1.13-.26 2.08-.1 4.28-.12 6.37-.01 1.98-.03 3.95-.04 5.93-.02 1.84-.22 3.8.18 5.6.6 2.72 5.06 2.39 7 2.52a149.02 149.02 0 0030.33-1.14c1.66-.22 3.91-.2 5.44-.93 2.47-1.2 1.23-5.24.93-7.35z"/><path fill="#000" d="M360.87 304.7c-.07-3.27-.09-6.55-.32-9.8-.03-.41-.63-.42-.64 0-.1 2.76 0 5.53.03 8.29.04 2.47.8 6.23-.56 8.41-.34.53.5 1.03.83.5 1.3-2.13.72-5.04.66-7.4zm-4.26-.09c0 .79-.02 2.61-.94 2.98-1.28.53-2.01-1.13-2.11-2.06a6.59 6.59 0 01.34-2.53c.27.13.66 0 .68-.41h.02c.1.03.23 0 .3-.09l1.1-.32c.28.28.46.62.52 1 .13.45.1.97.09 1.43zm.53-2.5c-.67-1.56-3.06-1.6-3.44-.03-.92.66-.97 2.94-.91 3.84.13 1.78 2.05 3.37 3.7 2.25.78-.52.88-1.78.99-2.6a6.43 6.43 0 00-.34-3.46zm-11.95 17.42v.1c0 .03 0 .06 0 .08-.34 10.72-1.4 24.2-3.2 40.48h-1.22c2.14-24.05 3.54-37.65 3.54-40.68.02-3.05-.01-6.1.14-9.15.02-.4.58-.4.6 0 .16 3.04.12 6.1.14 9.15v.02z"/><path fill="#000" d="M360.24 311.75c-.07-.71-1.18-.72-1.11 0 .69 7.27.68 14.77-.53 22l-2.43-.42a6.28 6.28 0 01-.26-1.55c-.1-.97-.12-1.95-.15-2.92-.06-1.94.03-3.89.2-5.83.28-3.48 1.72-7.13 1.42-10.62-.03-.4-.63-.42-.63 0 .01 2.56-.9 5.1-1.3 7.61-.36 2.2-.53 4.43-.6 6.65-.07 2-.82 8.81 2.58 8.96 1.18.05 1.78-.51 2.14-1.62.65-1.99.63-4.5.8-6.57.45-5.22.36-10.47-.13-15.69zm31.49 25.42a525.44 525.44 0 01-3.85-28.08c-.05-.42-.7-.44-.67 0 .8 17.27 4.9 34.26 7 51.4h1.02c-.94-7.8-2.23-15.56-3.5-23.32zm-97.6-285.5c-1.08-.42-1.69-1.88-2.3-2.78-.61-.93-1.23-1.85-1.84-2.77a88.36 88.36 0 00-3.86-5.43c-1.02-1.3-2.92.22-2 1.55 1.54 2.18 3.25 4.23 4.94 6.28 1.23 1.5 2.56 3.9 4.51 4.5.88.29 1.44-1.02.55-1.36zm-2.88 5.35a40.13 40.13 0 00-11.8-5.08c-1.39-.36-1.98 2.02-.62 2.46 3.91 1.27 7.82 2.57 11.74 3.83.7.22 1.39-.76.68-1.21zm-2.11 5.56c-3.5-.89-7.52-.97-11.1-.51-1.4.17-1.42 2.47.03 2.53 3.62.14 7.5.07 11.08-.5.92-.15.77-1.32-.01-1.52zm10.64-12.47c-.3-3.87-.12-7.71-.15-11.58-.01-1.4-2.05-1.74-2.2-.26-.42 4.02.19 8.12 1.14 12.02.19.76 1.27.62 1.2-.18zm9.3-7.79a22.88 22.88 0 00-5.2 8.33c-.25.7.67 1.27 1.14.66 1.87-2.46 3.8-4.93 5.58-7.46.68-.97-.62-2.43-1.53-1.53zm-19.76 27.8a21.59 21.59 0 00-7.93 4.17c-1.01.82.18 2.36 1.23 1.6a61.6 61.6 0 017.13-4.25c.73-.4.5-1.76-.43-1.52z"/></g></g><path fill="#FFF" fill-rule="nonzero" d="M269.84 69.2h10.24V114h-10.24V69.2zm53.44 11.9c7.36 0 12.16 5.25 12.16 13.25V114h-9.6V95.18c0-3.2-1.54-5.24-4.6-5.24-3.2 0-5 2.24-5 6.01V114h-9.6V95.18c0-3.2-1.54-5.24-4.6-5.24-3.2 0-5 2.24-5 6.01V114h-9.6V82h9.6v2.94c1.47-2.17 4.29-3.84 8.58-3.84 3.77 0 6.59 1.54 8.38 4.23 1.8-2.56 4.74-4.23 9.28-4.23zm41.98.9h9.6v32h-9.6v-3c-2.1 2.42-5.24 3.9-9.53 3.9-8.39 0-15.3-7.36-15.3-16.9s6.91-16.9 15.3-16.9c4.29 0 7.42 1.48 9.53 3.9v-3zm-7.61 23.8c4.41 0 7.61-3 7.61-7.8s-3.2-7.8-7.61-7.8c-4.42 0-7.62 3-7.62 7.8s3.2 7.8 7.62 7.8zM405.39 82h9.35v30.4c0 10.75-8.39 15.3-16.9 15.3-6.66 0-12.22-2.5-15.17-7.75l8.2-4.73c1.21 2.24 3.07 4.03 7.29 4.03 4.48 0 7.23-2.3 7.23-6.85v-2.94c-2.11 2.62-5.18 4.16-9.34 4.16-9.09 0-15.75-7.43-15.75-16.26 0-8.83 6.66-16.26 15.75-16.26 4.16 0 7.23 1.54 9.34 4.16V82zm-7.74 22.78c4.54 0 7.74-3 7.74-7.42s-3.2-7.42-7.74-7.42c-4.55 0-7.75 3-7.75 7.42s3.2 7.42 7.75 7.42zm32.7-2.94c1.22 3.33 4.16 4.48 7.68 4.48 2.63 0 4.87-1.02 6.15-2.43l7.68 4.41c-3.14 4.36-7.88 6.6-13.96 6.6-10.94 0-17.72-7.36-17.72-16.9s6.9-16.9 17.02-16.9c9.34 0 16.26 7.24 16.26 16.9 0 1.34-.13 2.62-.39 3.84h-22.72zm-.19-7.17h13.76c-1.02-3.71-3.9-5.05-6.78-5.05-3.65 0-6.08 1.79-6.98 5.05zm36.54-3.33c0 3.65 15.75 1.22 15.75 13.06 0 7.36-6.4 10.5-13.31 10.5-6.4 0-11.27-2.44-13.76-7.62l8.32-4.74c.83 2.44 2.62 3.78 5.44 3.78 2.3 0 3.45-.7 3.45-1.98 0-3.52-15.74-1.67-15.74-12.74 0-6.98 5.89-10.5 12.54-10.5 5.19 0 9.8 2.3 12.48 6.85l-8.19 4.42c-.9-1.67-2.18-2.82-4.29-2.82-1.66 0-2.69.64-2.69 1.8z"/><path fill="#FFF" fill-rule="nonzero" d="M263.4 156l-1.64-4.27h-8.42L251.7 156h-1.34l6.53-16.8h1.34l6.5 16.8h-1.34zm-9.58-5.47h7.48l-3.74-9.77-3.74 9.77zm24.9 5.73c-3.14 0-5.37-1.58-6.14-3.96l1.1-.64c.58 2.01 2.29 3.38 5.05 3.38 2.8 0 4.22-1.44 4.22-3.36 0-2.02-1.77-2.78-4.34-3.6-2.81-.91-5.33-1.7-5.33-4.63 0-2.76 2.23-4.51 5.09-4.51a5.64 5.64 0 015.4 3.52l-1.08.6a4.42 4.42 0 00-4.32-2.9c-2.33 0-3.8 1.37-3.8 3.24 0 2.02 1.71 2.64 4.11 3.43 2.98.99 5.57 1.92 5.57 4.83 0 2.78-2.19 4.6-5.52 4.6zm9-15.16a.96.96 0 01-.95-.96c0-.5.43-.94.96-.94s.96.43.96.94c0 .52-.43.96-.96.96zm-.6 14.9v-12h1.2v12h-1.2zm11.05-10.82h-3.58v7.8c0 2.1 1.13 2.16 3.58 1.94V156c-3.15.48-4.8-.29-4.8-3.02v-7.8h-2.64V144h2.64v-3l1.22-.36V144h3.58v1.18zm7.56-1.44c3.65 0 5.93 3.02 5.93 6.3 0 .2-.03.4-.03.58h-10.87a4.88 4.88 0 005.09 4.5c1.97 0 3.45-.92 4.15-2.2l1.06.63a5.91 5.91 0 01-5.24 2.71 6.06 6.06 0 01-6.3-6.26 6.05 6.05 0 016.2-6.26zm0 1.15a4.84 4.84 0 00-4.97 4.56h9.65c-.27-2.93-2.33-4.56-4.68-4.56zM331.72 156l-4.03-6.89h-5.3V156h-1.28v-16.8h6.63a4.96 4.96 0 011.27 9.74l4.17 7.06h-1.46zm-9.34-15.6v7.51h5.36c2.04 0 3.7-1.68 3.7-3.74a3.73 3.73 0 00-3.7-3.77h-5.36zm18 3.34c3.65 0 5.93 3.02 5.93 6.3 0 .2-.02.4-.02.58h-10.87a4.88 4.88 0 005.08 4.5c1.97 0 3.46-.92 4.16-2.2l1.05.63a5.91 5.91 0 01-5.23 2.71 6.06 6.06 0 01-6.31-6.26 6.05 6.05 0 016.21-6.26zm0 1.15a4.84 4.84 0 00-4.96 4.56h9.64c-.26-2.93-2.32-4.56-4.68-4.56zm17.07-.89h1.27l-5.06 12h-1.47l-5.09-12h1.3l4.51 10.75 4.54-10.75zm4.05-2.9a.96.96 0 01-.96-.96.96.96 0 011.92 0c0 .52-.43.96-.96.96zm-.6 14.9v-12h1.2v12h-1.2zm10.3-12.26c3.65 0 5.93 3.02 5.93 6.3 0 .2-.03.4-.03.58h-10.87a4.88 4.88 0 005.09 4.5c1.97 0 3.46-.92 4.15-2.2l1.06.63a5.91 5.91 0 01-5.23 2.71 6.06 6.06 0 01-6.32-6.26 6.05 6.05 0 016.22-6.26zm0 1.15a4.84 4.84 0 00-4.97 4.56h9.65c-.26-2.93-2.33-4.56-4.68-4.56zm22.82-.89h1.28l-3.8 12h-1.32l-3.33-10.22L383.5 156h-1.32l-3.79-12h1.27l3.2 10.44 3.35-10.44h1.25l3.36 10.44 3.2-10.44zm4.01 3.14c0 3.22 7.27 1.32 7.27 5.72 0 1.96-1.72 3.4-4.3 3.4-2.4 0-3.98-1.12-4.55-2.66l1.03-.6c.43 1.3 1.73 2.11 3.53 2.11 1.68 0 3.1-.74 3.1-2.25 0-3.27-7.28-1.4-7.28-5.72 0-1.9 1.63-3.4 4.08-3.4 1.95 0 3.43.93 4.08 2.4l-1 .57c-.51-1.25-1.76-1.82-3.08-1.82-1.56 0-2.88.81-2.88 2.25zm27.15-3.14h1.22v12h-1.22v-2.71a5.77 5.77 0 01-5.16 2.97 6.2 6.2 0 01-6.22-6.26 6.2 6.2 0 016.22-6.26c2.3 0 4.15 1.17 5.16 2.97V144zm-5.07 11.11a5.03 5.03 0 005.07-5.11c0-2.86-2.21-5.11-5.07-5.11a5.05 5.05 0 00-5.09 5.11 5.05 5.05 0 005.1 5.11zm20.57-15.91h1.2V156h-1.2v-2.78a5.69 5.69 0 01-5.16 3.04 6.18 6.18 0 01-6.22-6.26 6.18 6.18 0 016.22-6.26c2.33 0 4.18 1.2 5.16 3.04v-7.58zm-5.09 15.91a5.05 5.05 0 005.09-5.11 5.05 5.05 0 00-5.09-5.11 5.05 5.05 0 00-5.09 5.11 5.05 5.05 0 005.1 5.11zm20.57-15.91h1.2V156h-1.2v-2.78a5.69 5.69 0 01-5.16 3.04 6.18 6.18 0 01-6.22-6.26 6.18 6.18 0 016.22-6.26c2.33 0 4.18 1.2 5.16 3.04v-7.58zm-5.09 15.91a5.05 5.05 0 005.09-5.11 5.05 5.05 0 00-5.09-5.11 5.05 5.05 0 00-5.09 5.11 5.05 5.05 0 005.1 5.11zm10.23-5.95v-1.15h8.64v1.15h-8.64zm18.04 7.1a6.22 6.22 0 01-6.3-6.26c0-3.55 2.8-6.26 6.3-6.26a6.21 6.21 0 016.3 6.26c0 3.55-2.82 6.26-6.3 6.26zm0-1.15a5.03 5.03 0 005.07-5.11c0-2.86-2.21-5.11-5.07-5.11a5.05 5.05 0 00-5.08 5.11 5.05 5.05 0 005.08 5.11zm14.67-11.37c2.85 0 4.65 1.9 4.65 4.8V156h-1.22v-7.46c0-2.21-1.27-3.65-3.53-3.65-2.35 0-4.2 1.53-4.2 4.77V156h-1.2v-12h1.2v2.28a4.52 4.52 0 014.3-2.54z" opacity=".75"/></g></svg>
