<svg xmlns="http://www.w3.org/2000/svg" viewBox="0 0 960 540">
	<title>booking-reviews</title>
	<clipPath>
		<path d="M0 0h960v540H0z"/>
	</clipPath>
	<g fill="none">
		<path fill="#00347D" d="M0 0h960v540H0z"/>
		<path fill="#003E8C" d="M676.33 566.25c2.26-.97 4.22-2.36 5.84-4.03l-4.2-28.26c-4.5-2.5-10.03-3.06-15.2-1.07-8.73 3.32-13.35 12.7-10.93 21.53l24.5 11.8zm-53.78-25.92c7.43-4.4 10.83-13.62 7.63-21.95-3.56-9.3-13.98-13.92-23.27-10.36-7.95 3.06-12.5 11.17-11.37 19.3l27.03 13zm-54.07-26.06c6.17-4.73 8.8-13.12 5.86-20.75-3.57-9.3-14-13.93-23.27-10.36-7.28 2.8-11.7 9.8-11.56 17.15l29 13.98zm95.87-71.8c-3.72 4.8-4.92 11.4-2.58 17.48 1.33 3.45 3.6 6.26 6.4 8.25l-3.82-25.74zM317.7 549.82c-.2-1.25-.52-2.5-1-3.72-3.55-9.28-13.97-13.92-23.26-10.35-9.3 3.56-13.92 13.98-10.36 23.27.83 2.17 2.04 4.1 3.53 5.7l31.1-14.9zm39.48-18.9c-.04-.1-.08-.2-.1-.3-3.58-9.3-14-13.94-23.28-10.37-9.3 3.56-13.93 13.98-10.36 23.27.4 1 .86 1.98 1.4 2.88l32.34-15.48zm38.87-18.63c-4.4-7.37-13.6-10.73-21.9-7.55-9.2 3.54-13.84 13.8-10.45 23.04l32.35-15.5zm38.25-18.33c-4.85-5.34-12.65-7.45-19.8-4.7-8.07 3.1-12.64 11.4-11.33 19.6L434.3 494zm37.56-18c-4.76-3.42-11.1-4.46-17-2.2-6.85 2.63-11.17 9-11.53 15.88L471.86 476zm42.3 12.12c5.06-4.88 7-12.5 4.33-19.46-3.6-9.28-14-13.92-23.3-10.36-6.6 2.53-10.85 8.54-11.47 15.14l30.42 14.66zm143.28-92.07c-.27.1-.53.2-.8.3-9.28 3.55-13.92 13.97-10.36 23.26 2.7 7 9.3 11.37 16.4 11.54l-5.24-35.1zm-368.9 98.64c5.6 1.33 10.46 5.3 12.68 11.07 3.56 9.3-1.07 19.7-10.36 23.27-2.65 1.03-5.4 1.38-8.03 1.14l5.72-35.47zm367.8-106.13c-.73.4-1.5.75-2.28 1.05-9.3 3.56-19.7-1.08-23.27-10.37-3.58-9.3 1.05-19.7 10.34-23.27 3.38-1.3 6.9-1.5 10.2-.8l4.98 33.38zm-359.5 54.76c1.68-1.58 3.7-2.88 5.97-3.76 9.3-3.56 19.73 1.08 23.3 10.36 3.56 9.3-1.08 19.7-10.37 23.27-8.58 3.3-18.14-.42-22.35-8.34l3.48-21.52zm390.03-137.2c-4.7-6.26-13.17-8.93-20.85-5.98-9.3 3.57-13.93 14-10.36 23.27 1.25 3.26 3.36 5.95 5.97 7.9l25.24-25.2zm67.47-67.37c-3.72-9-13.96-13.45-23.1-9.94-9.3 3.54-13.93 13.96-10.36 23.25 1.84 4.8 5.5 8.36 9.92 10.18l23.54-23.5zm-443.7 105.3c.5-.25 1-.48 1.55-.7 9.26-3.55 19.7 1.1 23.25 10.37 3.56 9.3-1.08 19.7-10.36 23.27-5.97 2.3-12.4 1.2-17.17-2.32l4.63-28.66-1.94-1.98zm459.34-170.68c4.17 1.88 7.62 5.34 9.4 9.95 3.56 9.3-1.08 19.7-10.37 23.27-9.27 3.56-19.7-1.07-23.25-10.36-3.56-9.27 1.07-19.7 10.36-23.25 1.4-.53 2.8-.88 4.23-1.06l9.66 1.46zm14.97 2.27c.13 1.7.5 3.42 1.15 5.1 2.5 6.5 8.37 10.74 14.85 11.45l12.27-12.25-28.27-4.3zM285.2 318.38c.53-6.7 4.8-12.83 11.5-15.4 9.28-3.56 19.7 1.08 23.27 10.37 3.56 9.28-1.08 19.7-10.36 23.27-1.7.65-3.43 1.03-5.17 1.15l-19.23-19.4zm439.46-151.92c-.6 6.64-4.85 12.7-11.5 15.25-9.28 3.58-19.7-1.06-23.27-10.35-1.3-3.4-1.53-6.97-.8-10.3l35.55 5.42zm-96.53-14.67c1.8 8.5-2.78 17.3-11.17 20.52-9.3 3.57-19.7-1.07-23.27-10.36-2-5.2-1.44-10.74 1.1-15.25l33.32 5.08zm30.26 4.6c-.37.14-.73.3-1.1.43-6.53 2.5-13.63.95-18.5-3.43l19.6 3zM238.5 271.3c9.12-3.66 13.64-13.97 10.1-23.17-3.56-9.3-13.97-13.93-23.26-10.36-4.82 1.85-8.4 5.54-10.2 9.96l23.36 23.57zm333.9-137.45c-1.1 5.98-5.2 11.28-11.3 13.62-9.27 3.56-19.7-1.08-23.26-10.36-3.56-9.27 1.08-19.7 10.36-23.25 5.4-2.08 11.2-1.37 15.8 1.4l8.4 18.6zm-235.72 15.9c7.5-.3 14.7 4.15 17.52 11.55 3.57 9.28-1.07 19.7-10.36 23.27-9.28 3.56-19.7-1.08-23.27-10.36-3.56-9.27 1.08-19.7 10.36-23.25.62-.24 1.23-.44 1.85-.6l3.9-.6zm49.12-13.6c3.88 1.94 7.08 5.28 8.76 9.66 3.56 9.3-1.07 19.7-10.36 23.3-9.3 3.55-19.7-1.1-23.27-10.37-1.62-4.23-1.55-8.68-.1-12.62l21.92-3.3 3.05-6.64zm170.03-39.02c-1.82 4.43-5.38 8.13-10.2 9.98-9.3 3.6-19.7-1.05-23.28-10.34-3.56-9.3 1.08-19.7 10.36-23.27 4.16-1.6 8.5-1.56 12.4-.2l10.74 23.84zM171.45 203.65c6.16-4.73 8.77-13.12 5.84-20.74-1.3-3.37-3.53-6.13-6.26-8.1l-24.55 3.7 24.94 25.16zm46.3-35.93c3.36 9.2-1.28 19.44-10.46 22.96-9.3 3.57-19.73-1.07-23.3-10.36-.92-2.4-1.3-4.9-1.17-7.32l34.92-5.28zm41.18-6.22c-1.07 6.02-5.17 11.34-11.3 13.7-8.66 3.32-18.33-.5-22.47-8.6l33.77-5.1zM411.3 80.63c3.6 1.98 6.54 5.2 8.12 9.33 3.57 9.3-1.07 19.7-10.36 23.27-4.27 1.64-8.8 1.54-12.76.05l15-32.65zm127.6-21.06c-2 3.17-5 5.74-8.77 7.2-9.28 3.55-19.7-1.1-23.27-10.37-3.56-9.3 1.08-19.7 10.36-23.27 3.08-1.2 6.28-1.47 9.3-.98l12.38 27.42zM436.78 25.14c3.3 2 6 5.08 7.5 8.97 3.57 9.3-1.06 19.73-10.35 23.3-4.04 1.54-8.28 1.54-12.1.3l14.95-32.55zm84.94-3.66c-1.86 2.12-4.26 3.84-7.08 4.92-9.3 3.56-19.7-1.07-23.27-10.36-3.56-9.3 1.07-19.7 10.36-23.27 2.14-.82 4.34-1.2 6.5-1.2l13.5 29.9zm-59.47-51.8c3.04 2 5.5 4.93 6.9 8.6 3.57 9.27-1.07 19.7-10.36 23.26-3.8 1.45-7.8 1.54-11.4.5l14.84-32.36zm42.1 13.28c-1.5 1.28-3.25 2.34-5.2 3.08-9.3 3.57-19.7-1.07-23.27-10.36-3.56-9.28 1.07-19.7 10.36-23.27 1.28-.47 2.58-.8 3.88-1l14.23 31.57zM486.83-55.9c-.98.62-2.04 1.16-3.17 1.6-3.55 1.35-7.27 1.52-10.7.68l7.5-16.38 6.37 14.1zm173.35 582.06c9.28-3.57 13.92-13.98 10.36-23.27-3.57-9.3-13.98-13.95-23.27-10.38-9.3 3.56-13.93 13.98-10.36 23.27 3.58 9.3 14 13.9 23.3 10.35zm-55.85-24.87c9.3-3.58 13.93-14 10.36-23.28-3.58-9.3-14-13.93-23.3-10.36-9.27 3.56-13.9 13.98-10.35 23.26 3.57 9.3 13.98 13.93 23.27 10.36zm40.36-15.5c9.26-3.57 13.9-14 10.34-23.28-3.57-9.28-14-13.92-23.27-10.36-9.3 3.57-13.93 14-10.36 23.27 3.57 9.3 14 13.93 23.28 10.36zm-96.23-9.38c9.3-3.56 13.93-13.98 10.36-23.27-3.56-9.3-13.98-13.92-23.26-10.36-9.3 3.56-13.93 13.97-10.37 23.26 3.58 9.3 14 13.93 23.28 10.36zm40.36-15.5c9.3-3.56 13.93-13.97 10.36-23.26-3.57-9.3-14-13.93-23.28-10.36-9.3 3.57-13.92 14-10.36 23.28 3.57 9.3 13.98 13.92 23.27 10.36zm40.36-15.48c9.27-3.57 13.9-13.98 10.35-23.27-3.57-9.3-14-13.93-23.27-10.36-9.3 3.57-13.94 14-10.37 23.28 3.57 9.27 14 13.9 23.28 10.35zm-298 68.08c9.3-3.56 13.93-13.98 10.37-23.27-3.57-9.3-14-13.92-23.27-10.36-9.28 3.56-13.92 13.97-10.35 23.26 3.56 9.3 13.98 13.92 23.26 10.36zm40.36-15.5c9.3-3.56 13.93-13.97 10.36-23.26-3.56-9.3-13.98-13.93-23.27-10.36-9.3 3.57-13.92 14-10.36 23.28 3.56 9.3 13.97 13.92 23.26 10.36zm40.36-15.48c9.28-3.57 13.92-14 10.36-23.27-3.58-9.3-14-13.93-23.28-10.36-9.3 3.57-13.93 14-10.36 23.28 3.56 9.27 13.98 13.9 23.27 10.35zm40.35-15.5c9.3-3.56 13.93-13.98 10.36-23.26-3.56-9.3-13.98-13.94-23.27-10.37-9.26 3.6-13.9 14-10.36 23.3 3.58 9.28 14 13.92 23.28 10.36zm40.36-15.48c9.28-3.57 13.92-14 10.36-23.27-3.58-9.3-14-13.94-23.28-10.37-9.3 3.56-13.93 13.98-10.36 23.27 3.56 9.3 13.98 13.93 23.27 10.37zm40.35-15.5c9.28-3.56 13.92-13.98 10.35-23.26-3.56-9.28-13.98-13.92-23.27-10.36-9.28 3.57-13.92 14-10.36 23.27 3.57 9.3 14 13.95 23.27 10.38zm40.35-15.5c9.3-3.55 13.92-13.97 10.36-23.26-3.57-9.27-13.98-13.9-23.27-10.35-9.3 3.57-13.93 14-10.36 23.27 3.56 9.3 13.98 13.93 23.27 10.36zm40.35-15.48c9.3-3.57 13.93-14 10.37-23.28-3.57-9.28-14-13.92-23.27-10.36-9.3 3.57-13.93 14-10.36 23.27 3.56 9.3 13.98 13.94 23.26 10.37zm-257.62 52.58c9.3-3.56 13.92-13.98 10.36-23.27-3.57-9.28-13.98-13.9-23.27-10.36-9.3 3.57-13.92 14-10.36 23.27 3.56 9.3 14 13.94 23.27 10.37zm40.36-15.5c9.28-3.55 13.92-13.97 10.36-23.26-3.57-9.28-14-13.92-23.27-10.36-9.3 3.57-13.92 14-10.35 23.27 3.56 9.3 13.98 13.94 23.27 10.37zm40.35-15.48c9.28-3.56 13.92-13.98 10.35-23.27-3.56-9.3-13.98-13.9-23.27-10.35-9.3 3.57-13.92 13.98-10.36 23.27 3.56 9.3 13.97 13.93 23.26 10.36zm40.35-15.5c9.28-3.55 13.92-13.97 10.36-23.26-3.56-9.3-13.98-13.92-23.26-10.36-9.3 3.56-13.93 13.98-10.36 23.27 3.56 9.3 13.98 13.92 23.27 10.36zm40.35-15.48c9.3-3.57 13.93-13.98 10.36-23.27-3.56-9.3-13.98-13.93-23.27-10.36-9.3 3.55-13.93 13.97-10.37 23.26 3.56 9.3 14 13.92 23.26 10.36zm40.36-15.5c9.28-3.56 13.92-13.98 10.36-23.26-3.58-9.3-14-13.93-23.28-10.36-9.3 3.56-13.93 13.98-10.36 23.27 3.55 9.28 13.97 13.92 23.26 10.36zm40.35-15.48c9.3-3.57 13.94-14 10.37-23.27-3.56-9.3-13.98-13.93-23.27-10.36-9.28 3.56-13.92 14-10.36 23.27 3.57 9.28 14 13.92 23.27 10.36zm40.37-15.5c9.3-3.56 13.92-13.98 10.36-23.26-3.56-9.3-13.97-13.93-23.26-10.36-9.3 3.56-13.92 13.98-10.36 23.27 3.56 9.27 13.98 13.9 23.27 10.35zm-297.98 68.1c9.27-3.58 13.9-14 10.35-23.28-3.57-9.3-13.98-13.93-23.27-10.36-9.3 3.56-13.93 13.98-10.36 23.27 3.55 9.28 13.97 13.92 23.26 10.36zm40.34-15.5c9.3-3.57 13.94-14 10.37-23.27-3.56-9.3-13.98-13.93-23.27-10.36-9.28 3.56-13.92 14-10.36 23.27 3.57 9.28 14 13.92 23.27 10.36zm40.37-15.5c9.3-3.56 13.92-13.98 10.36-23.26-3.56-9.3-13.98-13.93-23.27-10.36-9.3 3.56-13.93 13.98-10.37 23.27 3.55 9.27 13.97 13.9 23.26 10.35zm40.36-15.5c9.28-3.55 13.92-13.97 10.36-23.26-3.58-9.28-14-13.92-23.28-10.36-9.3 3.57-13.93 14-10.36 23.27 3.55 9.28 13.97 13.92 23.26 10.35zM502 355.37c9.3-3.56 13.94-13.98 10.37-23.27-3.56-9.3-13.98-13.93-23.27-10.37-9.28 3.57-13.92 14-10.36 23.27 3.57 9.3 13.98 13.93 23.27 10.36zm40.37-15.5c9.28-3.55 13.92-13.97 10.36-23.26-3.57-9.27-14-13.9-23.27-10.35-9.3 3.57-13.93 14-10.36 23.27 3.56 9.3 13.98 13.94 23.27 10.37zm40.35-15.48c9.3-3.57 13.93-14 10.36-23.28-3.56-9.28-13.98-13.9-23.27-10.35-9.26 3.57-13.9 13.98-10.34 23.27 3.57 9.3 14 13.93 23.27 10.36zm40.36-15.5c9.28-3.57 13.92-13.98 10.36-23.27-3.57-9.3-13.98-13.92-23.27-10.36-9.3 3.56-13.93 13.98-10.36 23.27 3.58 9.3 14 13.92 23.3 10.36zm40.35-15.5c9.3-3.56 13.93-13.97 10.36-23.26-3.58-9.3-14-13.93-23.3-10.36-9.27 3.56-13.9 13.98-10.35 23.27 3.57 9.3 14 13.92 23.27 10.36zm40.36-15.5c9.27-3.55 13.9-13.97 10.34-23.25-3.56-9.3-13.98-13.93-23.27-10.36-9.3 3.55-13.92 13.97-10.36 23.26 3.57 9.28 14 13.92 23.28 10.36zm-338.36 83.6c9.3-3.56 13.93-13.98 10.36-23.27-3.55-9.28-13.97-13.9-23.26-10.35-9.28 3.57-13.92 13.98-10.36 23.27 3.57 9.3 14 13.93 23.27 10.36zM405.8 346c9.3-3.56 13.93-13.97 10.37-23.26-3.57-9.3-13.98-13.92-23.27-10.36-9.3 3.56-13.93 13.98-10.36 23.27 3.56 9.3 13.98 13.92 23.27 10.36zm40.36-15.48c9.3-3.57 13.93-13.98 10.36-23.27-3.56-9.3-13.98-13.93-23.26-10.36-9.3 3.55-13.93 13.97-10.37 23.26 3.55 9.28 13.97 13.92 23.25 10.36zm40.36-15.5c9.3-3.56 13.93-13.98 10.36-23.26-3.56-9.3-13.98-13.93-23.27-10.36-9.27 3.56-13.9 13.98-10.34 23.27 3.57 9.28 13.98 13.92 23.27 10.36zm40.36-15.48c9.28-3.57 13.92-14 10.36-23.27-3.57-9.3-14-13.93-23.27-10.36-9.3 3.56-13.93 13.98-10.36 23.27 3.58 9.28 14 13.92 23.3 10.36zm40.35-15.5c9.3-3.56 13.93-13.98 10.36-23.26-3.58-9.3-14-13.93-23.3-10.36-9.27 3.56-13.9 13.98-10.35 23.26 3.57 9.3 13.98 13.93 23.27 10.37zm40.36-15.5c9.26-3.55 13.9-13.97 10.34-23.26-3.57-9.28-14-13.92-23.27-10.36-9.3 3.57-13.93 14-10.36 23.27 3.57 9.3 14 13.92 23.28 10.35zm40.33-15.48c9.3-3.56 13.93-13.98 10.36-23.27-3.57-9.3-14-13.93-23.28-10.37-9.28 3.58-13.92 14-10.36 23.28 3.57 9.3 14 13.94 23.27 10.37zm40.36-15.5c9.3-3.55 13.9-13.97 10.35-23.26-3.57-9.28-13.98-13.92-23.27-10.36-9.3 3.57-13.94 13.98-10.37 23.27 3.57 9.3 14 13.93 23.28 10.36zm40.34-15.48c9.3-3.56 13.93-13.98 10.36-23.27-3.55-9.3-13.97-13.92-23.25-10.36-9.3 3.57-13.93 13.98-10.37 23.27 3.57 9.3 14 13.94 23.27 10.37zm-378.7 99.06c9.3-3.56 13.94-13.98 10.37-23.26-3.55-9.3-13.97-13.93-23.26-10.36-9.28 3.56-13.92 13.98-10.36 23.26 3.56 9.3 13.98 13.93 23.26 10.36zm40.37-15.5c9.3-3.55 13.93-13.97 10.37-23.26-3.57-9.28-14-13.92-23.27-10.36-9.28 3.57-13.92 14-10.35 23.27 3.56 9.3 13.98 13.92 23.27 10.35zm40.36-15.48c9.3-3.56 13.93-13.98 10.36-23.27-3.56-9.3-13.98-13.93-23.27-10.37-9.28 3.58-13.92 14-10.36 23.28 3.56 9.3 14 13.94 23.26 10.37zm40.36-15.5c9.3-3.55 13.92-13.97 10.36-23.26-3.58-9.28-14-13.92-23.28-10.36-9.3 3.57-13.93 13.98-10.36 23.27 3.56 9.3 13.98 13.93 23.27 10.36zm40.35-15.48c9.3-3.56 13.93-13.98 10.36-23.27-3.56-9.3-13.98-13.92-23.26-10.36-9.3 3.57-13.93 13.98-10.36 23.27 3.57 9.3 14 13.94 23.27 10.37zm40.36-15.5c9.3-3.56 13.93-13.97 10.36-23.26-3.57-9.3-14-13.93-23.28-10.36-9.3 3.56-13.92 13.98-10.36 23.27 3.57 9.3 13.98 13.93 23.27 10.37zm40.36-15.48c9.27-3.57 13.9-13.98 10.35-23.27-3.57-9.28-14-13.92-23.27-10.35-9.3 3.56-13.94 13.98-10.37 23.27 3.57 9.28 14 13.92 23.28 10.36zm40.34-15.5c9.3-3.56 13.93-13.98 10.36-23.26-3.55-9.3-13.97-13.93-23.26-10.36-9.28 3.56-13.92 13.98-10.36 23.27 3.57 9.28 14 13.92 23.27 10.36zm40.36-15.48c9.3-3.57 13.93-14 10.37-23.27-3.57-9.3-14-13.93-23.27-10.36-9.3 3.55-13.93 13.97-10.36 23.26 3.56 9.28 13.98 13.92 23.27 10.36zm-378.7 99.06c9.3-3.56 13.94-13.98 10.38-23.27-3.57-9.3-14-13.92-23.27-10.36-9.27 3.57-13.9 13.98-10.34 23.27 3.56 9.3 13.98 13.94 23.26 10.37zm40.37-15.5c9.3-3.56 13.93-13.97 10.36-23.26-3.56-9.3-13.98-13.93-23.27-10.36-9.3 3.56-13.92 13.98-10.36 23.27 3.57 9.3 13.98 13.93 23.27 10.37zm40.36-15.48c9.28-3.57 13.92-13.98 10.36-23.27-3.6-9.28-14-13.92-23.3-10.35-9.3 3.56-13.92 13.98-10.35 23.27 3.56 9.28 13.98 13.92 23.27 10.36zm40.35-15.5c9.3-3.56 13.93-13.98 10.36-23.26-3.56-9.3-13.98-13.93-23.27-10.36-9.28 3.56-13.92 13.98-10.36 23.27 3.6 9.28 14 13.92 23.3 10.36zm40.36-15.48c9.28-3.57 13.92-14 10.36-23.27-3.57-9.3-13.98-13.93-23.27-10.36-9.3 3.55-13.93 13.97-10.36 23.26 3.56 9.28 13.98 13.92 23.27 10.36zm40.35-15.5c9.27-3.56 13.9-13.98 10.34-23.26-3.56-9.3-13.98-13.93-23.27-10.36-9.28 3.56-13.92 13.98-10.36 23.26 3.58 9.3 14 13.93 23.28 10.36zm40.34-15.5c9.3-3.55 13.92-13.97 10.36-23.26-3.56-9.28-13.97-13.92-23.26-10.36-9.3 3.57-13.93 14-10.36 23.27 3.56 9.3 13.98 13.93 23.27 10.36zm40.35-15.48c9.3-3.56 13.92-13.98 10.36-23.27-3.57-9.28-14-13.92-23.27-10.36-9.3 3.57-13.94 14-10.37 23.27 3.56 9.3 13.98 13.93 23.26 10.36zM278.6 255.9c9.3-3.56 13.93-13.98 10.36-23.26-3.56-9.3-13.98-13.93-23.27-10.37-9.26 3.57-13.9 14-10.34 23.27 3.57 9.3 14 13.93 23.27 10.36zm40.36-15.5c9.3-3.55 13.92-13.97 10.36-23.26-3.56-9.28-13.98-13.92-23.27-10.36-9.3 3.57-13.92 14-10.36 23.27 3.58 9.3 14 13.93 23.3 10.36zm40.36-15.48c9.28-3.56 13.92-13.98 10.36-23.27-3.57-9.28-14-13.92-23.27-10.36-9.3 3.55-13.93 13.97-10.36 23.25 3.56 9.3 13.98 13.93 23.27 10.36zm40.35-15.5c9.27-3.55 13.9-13.97 10.34-23.26-3.56-9.28-13.98-13.92-23.27-10.36-9.28 3.57-13.92 13.98-10.36 23.27 3.58 9.3 14 13.93 23.28 10.36zm40.34-15.48c9.28-3.56 13.92-13.98 10.36-23.27-3.56-9.3-13.98-13.92-23.26-10.36-9.3 3.6-13.93 14-10.36 23.3 3.56 9.3 13.98 13.92 23.27 10.35zm40.35-15.5c9.3-3.56 13.92-13.97 10.35-23.26-3.56-9.3-13.98-13.93-23.27-10.36-9.3 3.56-13.93 13.98-10.37 23.27 3.58 9.27 14 13.9 23.28 10.34zm40.35-15.48c9.28-3.57 13.92-13.98 10.36-23.27-3.56-9.3-13.97-13.95-23.26-10.38-9.3 3.56-13.93 13.98-10.36 23.27 3.55 9.27 13.97 13.9 23.26 10.35zm-297.98 68.08c9.28-3.56 13.92-13.98 10.36-23.27-3.57-9.3-14-13.92-23.27-10.36-9.3 3.6-13.93 14-10.36 23.3 3.57 9.3 14 13.9 23.28 10.35zm40.35-15.5c9.3-3.56 13.93-13.97 10.36-23.26-3.57-9.3-14-13.93-23.28-10.36-9.28 3.56-13.92 13.98-10.36 23.27 3.57 9.27 14 13.9 23.27 10.34zm40.36-15.48c9.28-3.57 13.9-14 10.35-23.27-3.57-9.3-13.98-13.95-23.27-10.38-9.3 3.56-13.93 13.98-10.36 23.27 3.56 9.27 13.98 13.9 23.27 10.35zm121.06-46.48c9.28-3.56 13.92-13.98 10.36-23.26-3.57-9.3-14-13.93-23.27-10.37-9.3 3.57-13.93 14-10.36 23.27 3.55 9.3 13.97 13.93 23.26 10.36zm40.35-15.5c9.3-3.55 13.93-13.97 10.36-23.26-3.56-9.28-13.98-13.92-23.27-10.36-9.3 3.57-13.93 14-10.37 23.27 3.57 9.3 13.98 13.93 23.27 10.36zm40.36-15.48c9.28-3.56 13.92-13.98 10.36-23.27-3.57-9.28-14-13.92-23.27-10.36-9.3 3.57-13.93 14-10.36 23.27 3.55 9.3 13.97 13.93 23.26 10.36zM449.4 97.74c9.3-3.57 13.94-14 10.37-23.27-3.56-9.3-13.98-13.93-23.27-10.36-9.28 3.58-13.9 14-10.35 23.3 3.57 9.27 13.98 13.9 23.27 10.35zm40.37-15.5c9.28-3.56 13.92-13.98 10.36-23.26-3.57-9.3-14-13.93-23.27-10.36-9.3 3.56-13.93 13.98-10.36 23.27 3.57 9.26 14 13.9 23.28 10.34zm-15.5-40.35c9.3-3.58 13.93-14 10.37-23.3-3.57-9.3-14-13.9-23.27-10.35-9.3 3.57-13.93 13.98-10.36 23.27 3.57 9.3 14 13.93 23.27 10.36z"/>
		<ellipse fill="#fff" cx="414.946" cy="222.281" rx="10.624" ry="10.624"/>
		<path fill="#fff" d="M556.4 238.9c-3.46 0-6.12 1.4-7.46 3.93l-.52.97-.84-.74c-2.96-2.54-8.24-5.57-16.8-5.57-17.1 0-28.6 12.8-28.6 31.9 0 19.06 11.9 32.38 28.94 32.38 5.8 0 10.4-1.35 14.04-4.12l1.4-1.04v1.76c0 8.58-5.54 13.3-15.56 13.3-4.9 0-9.32-1.18-12.3-2.26-3.86-1.17-6.12-.2-7.7 3.68l-1.44 3.58-2.06 5.24 1.26.68c6.43 3.4 14.78 5.42 22.34 5.42 15.56 0 33.7-7.95 33.7-30.37l.08-58.76h-8.47zm-22.02 46.9c-10 0-13.56-8.73-13.56-16.88 0-3.6.9-15.3 12.58-15.3 5.8 0 13.56 1.65 13.56 15.9 0 13.45-6.86 16.28-12.58 16.28zm-61.4-48.18c-9.35 0-15.3 4.15-18.64 7.67l-1.12 1.12-.4-1.54c-.98-3.78-4.3-5.84-9.3-5.84h-8.23l.05 64.06h18.25v-29.5c0-2.9.4-5.4 1.14-7.68 2.04-6.9 7.7-11.2 14.8-11.2 5.7 0 7.9 3 7.9 10.76v27.9c0 6.64 3.1 9.75 9.72 9.75h8.7l-.03-40.75c0-16.2-7.9-24.77-22.85-24.77v.02zm-57.8 1.44h-8.65l.05 49.56v14.5h9.25c.1 0 .2.03.33.03l4.3-.02h4.28v-.03h.03l.03-54.3c0-6.55-3.13-9.73-9.6-9.73h-.03zm-31.43 33.54c-.78-1.44-1.63-2.6-2.55-3.57l-.6-.63.6-.6c.92-.94 1.8-2.05 2.7-3.34l17.07-25.42h-20.72l-12.87 19.9c-.72 1.04-2.2 1.6-4.38 1.6h-2.95v-37.57c0-7.52-4.7-8.55-9.73-8.55h-8.67v88.72h18.4v-26.6h1.72c2.1 0 3.52.24 4.18 1.38l10.16 19.16c2.83 5.2 5.66 6.07 10.96 6.07h14.1l-10.5-17.36-6.95-13.18.05-.02zm-82.2-34.83c-19.4 0-33.46 13.95-33.46 33.2 0 19.2 14.04 33.16 33.43 33.16 19.42 0 33.56-13.95 33.56-33.16 0-19.23-14.14-33.18-33.57-33.18v-.03zm0 50.84c-9.16 0-15.52-7.26-15.52-17.64 0-10.4 6.36-17.67 15.5-17.67 9.2 0 15.65 7.3 15.65 17.67 0 10.56-6.3 17.66-15.64 17.66v-.02zm-71.75-50.83c-19.37 0-33.43 13.95-33.43 33.2 0 19.2 14.08 33.16 33.43 33.16 19.43 0 33.57-13.95 33.57-33.16 0-19.23-14.13-33.18-33.57-33.18v-.03zm0 50.84c-9.16 0-15.5-7.26-15.5-17.64 0-10.4 6.34-17.67 15.5-17.67 9.2 0 15.65 7.3 15.65 17.67 0 10.56-6.3 17.66-15.65 17.66v-.02zm-49-30.93l-2.72-1.52 2.35-2c2.73-2.34 7.3-7.6 7.3-16.73 0-13.95-10.82-22.95-27.55-22.95h-21.25c-4.97.2-8.96 4.2-9.02 9.22v79.1l8.8.04H160.56c18.6 0 30.64-10.14 30.64-25.8 0-8.48-3.9-15.7-10.42-19.37zm-19 30.2h-14.87v-17.8c0-3.8 1.46-5.76 4.7-6.22h10.16c7.22 0 11.9 4.56 11.9 11.94 0 7.58-4.56 12.06-11.9 12.08zm-14.87-47.94v-4.7c0-4.07 1.72-6.03 5.52-6.25h7.62c6.5 0 10.42 3.9 10.42 10.43 0 4.96-2.68 10.8-10.2 10.8h-13.37v-10.27z"/>
		<ellipse fill="#009FE2" cx="582.698" cy="293.181" rx="10.624" ry="10.624"/>
		<path fill="#009FE2" d="M808.2 237.83c-7.55 0-14.9 3.56-19.6 9.52l-1.34 1.67-1.04-1.88c-3.4-6.2-9.2-9.32-17.3-9.32-8.47 0-14.18 4.74-16.8 7.56l-1.75 1.86-.68-2.47c-.97-3.52-4.12-5.48-8.92-5.48h-7.65l-.08 63.8h17.44v-28.16c0-2.47.3-4.9.9-7.46 1.7-6.82 6.26-14.14 13.95-13.4 4.74.45 7.07 4.1 7.07 11.2v37.8h17.55v-28.15c0-3.1.3-5.4 1-7.7 1.4-6.5 6.17-13.16 13.6-13.16 5.37 0 7.36 3.03 7.36 11.22v28.48c0 6.45 2.86 9.32 9.32 9.32h8.2v-40.72c0-16.3-7.14-24.55-21.24-24.55zm-115.14-.05c-19.43 0-33.47 13.95-33.47 33.2 0 19.2 14.05 33.16 33.44 33.16 19.43 0 33.56-13.94 33.56-33.16 0-19.23-14.15-33.17-33.57-33.17l.03-.02zm0 50.84c-9.18 0-15.56-7.26-15.56-17.65 0-10.4 6.4-17.66 15.54-17.66 9.18 0 15.65 7.3 15.65 17.68 0 10.56-6.32 17.66-15.66 17.66l.02-.02zm-43.57-7.64c-.06.05-7.57 7.95-17.45 7.95-9 0-18.1-5.5-18.1-17.83 0-10.65 7.05-18.1 17.15-18.1 3.28 0 7 1.18 7.6 3.16l.06.33c1.35 4.47 5.4 4.7 6.22 4.7h9.56v-8.34c0-11-14.02-15-23.47-15-20.15 0-34.8 14.02-34.8 33.36s14.5 33.37 34.45 33.37c17.3 0 26.72-11.4 26.8-11.5l.52-.64-7.56-12.55-1 1.08z"/>
	</g>
</svg>
