<svg class="glsr-icon-svg" xmlns="http://www.w3.org/2000/svg" viewBox="0 0 40 40">
    <style><![CDATA[.glsr-icon-svg__eye_l{animation:blink 8s infinite;transform-origin:45% 46%}.glsr-icon-svg__eye_r{animation:blink 8s infinite;transform-origin:63% 46%}@keyframes blink{0%,10%,12%,45%,47%,100%{transform:scale(1)}11%,46%{transform:scale(2.25,.25)}}]]></style>
    <path class="glsr-icon-svg__bg" fill="none" d="M35.975 30.177s.004-.03.008-.043l.017-.302V6.887a2.88 2.88 0 0 0-.132-.859 3.03 3.03 0 0 0-.361-.757 2.61 2.61 0 0 0-.353-.425c-.132-.128-.272-.247-.425-.353-.229-.157-.485-.281-.757-.361A3.02 3.02 0 0 0 33.114 4H10.166l-.293.013a1.95 1.95 0 0 0-.268.043 2.86 2.86 0 0 0-1.501.812l-5.259 5.259A2.88 2.88 0 0 0 2 12.167v22.946C2 36.708 3.292 38 4.886 38h22.943c.871 0 1.649-.387 2.181-.995l5.029-5.03c.442-.4.761-.931.893-1.535l.042-.264z"/>
    <g fill="currentColor">
        <path d="M35.975 30.177s.004-.03.008-.043l.017-.302V6.887a2.88 2.88 0 0 0-.132-.859 3.03 3.03 0 0 0-.361-.757 2.61 2.61 0 0 0-.353-.425 3.36 3.36 0 0 0-.425-.353 2.68 2.68 0 0 0-.757-.361A3.02 3.02 0 0 0 33.114 4H10.166l-.293.013a1.95 1.95 0 0 0-.268.043 2.86 2.86 0 0 0-1.501.812l-5.259 5.259A2.88 2.88 0 0 0 2 12.167v22.946C2 36.708 3.292 38 4.886 38h22.943a2.89 2.89 0 0 0 2.181-.995l5.029-5.03c.442-.4.761-.931.893-1.535l.042-.264zm-32.7-14.226l4.005-4.005v2.466l-4.005 4.005v-2.466zm0 4.269l4.005-4.005v2.466l-4.005 4.005V20.22zm0 4.269l4.005-4.005v2.466l-4.005 4.005v-2.466zm0 4.273l4.005-4.005v2.466l-4.005 4.005v-2.466zm0 4.273L7.28 29.03v.808a2.89 2.89 0 0 0 .446 1.539L3.39 35.713c-.072-.183-.115-.383-.115-.591v-2.087zM33.099 5.271c.898 0 1.625.728 1.625 1.625v22.926c0 .898-.728 1.625-1.625 1.625H10.18c-.898 0-1.625-.728-1.625-1.625V6.897c0-.898.728-1.625 1.625-1.625h22.919zM7.28 7.495v2.644l-4.005 4.005v-1.977a1.6 1.6 0 0 1 .472-1.139L7.28 7.495zm7.134 16.139c0-.225-.166-.413-.382-.448H12.3a.29.29 0 0 1-.289-.289v-1.825a.29.29 0 0 1 .289-.289h1.825a.29.29 0 0 1 .289.289v1.658c.002.248.205.451.453.451l13.501-.004c.249 0 .453-.203.453-.452v-1.662a.29.29 0 0 1 .289-.289h1.825a.29.29 0 0 1 .289.289v1.825a.29.29 0 0 1-.289.289H29.27c-.223.002-.409.167-.444.382v1.737a.29.29 0 0 1-.289.289H14.703a.29.29 0 0 1-.289-.289v-1.661z"/>
        <path class="glsr-icon-svg__eye_l" d="M17.101 11.174h1.825a.29.29 0 0 1 .289.289v6.593a.29.29 0 0 1-.289.289h-1.825a.29.29 0 0 1-.289-.289v-6.593a.29.29 0 0 1 .289-.289z"/>
        <path class="glsr-icon-svg__eye_r" d="M26.136 11.174h-1.825a.29.29 0 0 0-.289.289v6.593a.29.29 0 0 0 .289.289h1.825a.29.29 0 0 0 .289-.289v-6.593a.29.29 0 0 0-.289-.289z"/>
    </g>
</svg>
