<svg xmlns="http://www.w3.org/2000/svg" viewBox="0 0 50 50" fill="currentColor">
    <path d="M14.912 4.5H39.09c2.229 0 3.037.232 3.852.668s1.454 1.075 1.89 1.89l.114.223c.344.713.534 1.518.553 3.333L45.5 35.09c0 2.229-.232 3.037-.668 3.852a4.63 4.63 0 0 1-.619.892l-.187.198-6.467 6.465-.273.257-.145.12-.231.171-.223.146-.247.142c-.815.436-1.623.668-3.852.668H8.41l-.574-.006c-1.802-.038-2.537-.266-3.278-.662a4.55 4.55 0 0 1-1.444-1.205l-.129-.173a4.82 4.82 0 0 1-.317-.512c-.282-.528-.479-1.053-.583-1.962l-.016-.147-.068-1.447L2 17.41c0-2.229.232-3.037.668-3.852.229-.428.514-.807.851-1.134l6.439-6.437a4.59 4.59 0 0 1 1.103-.818c.593-.317 1.182-.526 2.316-.617l.377-.025.186-.009.625-.016.347-.002zm24.6 1.5H14.487c-1.56 0-2.126.162-2.696.467a3.23 3.23 0 0 0-.526.35l-.122.105a3.2 3.2 0 0 0-.675.868l-.102.203c-.24.515-.366 1.117-.366 2.494v25.026c0 1.56.162 2.126.467 2.696a3.18 3.18 0 0 0 1.323 1.323l.203.102c.48.223 1.037.348 2.228.364L39.512 40c1.56 0 2.126-.162 2.696-.467.343-.184.642-.419.892-.701a3.24 3.24 0 0 0 .431-.622l.102-.203c.223-.48.348-1.037.364-2.228l.002-25.292c0-1.56-.162-2.126-.467-2.696a3.18 3.18 0 0 0-1.323-1.323l-.203-.102C41.491 6.126 40.889 6 39.512 6zM8.587 36.977L3.5 42.065c.004 1.521.166 2.081.467 2.645l.096.167 5.423-5.423a4.64 4.64 0 0 1-.316-.511c-.283-.528-.479-1.054-.583-1.965zm-.086-5.415L3.5 36.563v3.376l5.001-5.001v-3.376zm0-5.499L3.5 31.064v3.377l5.001-5.001v-3.377zm0-5.498L3.5 25.566v3.377l5.001-5.001v-3.377zm0-5.498L3.5 20.068v3.376l5.001-5.001v-3.376zm.041-5.54l-4.147 4.145a3.25 3.25 0 0 0-.428.618l-.102.203c-.223.48-.348 1.037-.364 2.228L3.5 17.946l5.001-5.001.001-2.035.04-1.383zM18 28.4a.6.6 0 0 0 .6.6h16.8a.6.6 0 0 0 .6-.6v-1.9a.5.5 0 0 1 .5-.5h2a.5.5 0 0 1 .5.5v2a.5.5 0 0 1-.5.5h-1.9a.6.6 0 0 0-.6.6v1.9a.5.5 0 0 1-.5.5h-17a.5.5 0 0 1-.5-.5v-1.9a.6.6 0 0 0-.6-.6h-1.9a.5.5 0 0 1-.5-.5v-2a.5.5 0 0 1 .5-.5h2a.5.5 0 0 1 .5.5v1.9z"/>
    <path class="glsr-icon-svg__eye_r" d="M30.5 13h2a.5.5 0 0 1 .5.5v9a.5.5 0 0 1-.5.5h-2a.5.5 0 0 1-.5-.5v-9a.5.5 0 0 1 .5-.5z"/>
    <path class="glsr-icon-svg__eye_l" d="M21.5 13h2a.5.5 0 0 1 .5.5v9a.5.5 0 0 1-.5.5h-2a.5.5 0 0 1-.5-.5v-9a.5.5 0 0 1 .5-.5z"/>
</svg>
