<svg xmlns="http://www.w3.org/2000/svg" width="48" height="48" viewBox="0 0 48 48">
    <path fill="#212121" d="M39.677 41.464l-.027-.066-.028-.062c-.186-.398-.366-.432-.551-.157l-.014.021-.026.042-.048.09-.023.049-.024.056-.011.028-.011.028-.023.063-.011.033-.62 1.838-1.975.018-.041.001-.064.003a1.76 1.76 0 0 0-.242.029l-.041.009-.044.012c-.243.069-.299.168-.208.332l.011.019.021.033c.04.059.095.122.165.187l.036.033.045.039.023.019.023.018.051.04 1.612 1.184-.61 1.869-.018.062-.01.038-.017.073-.015.078-.008.051-.005.043-.004.046c-.02.338.13.427.495.238l.058-.031.061-.036.05-.031.053-.035.026-.018.026-.018 1.591-1.136 1.59 1.135.052.036.025.017.051.032.067.04.029.016.048.025c.363.182.511.113.5-.205l-.001-.028-.004-.046a1.8 1.8 0 0 0-.068-.324l-.016-.052-.587-1.848 1.595-1.175.052-.04.1-.084.029-.027.039-.038.07-.076.019-.023.026-.034c.158-.221.095-.35-.241-.418l-.032-.006-.05-.008-.055-.007-.056-.006-.057-.004-.064-.003-.065-.001-1.937-.017-.658-1.9-.024-.064zm-7.651 0l-.013-.033-.028-.065c-.191-.427-.376-.469-.565-.187l-.014.021-.026.042-.048.09-.023.049-.024.056-.022.056-.023.063-.631 1.871-1.975.018-.041.001-.064.003a1.76 1.76 0 0 0-.242.029l-.041.009-.044.012c-.243.069-.299.168-.208.332l.011.019.021.033c.04.059.095.122.165.187l.036.033.045.039.023.019.023.018.051.04 1.612 1.184-.61 1.869-.018.062-.015.056-.013.055-.015.078-.008.051-.005.043-.004.046c-.021.355.146.435.553.207l.061-.036.05-.031.053-.035.026-.018.026-.018 1.591-1.136 1.59 1.135.052.036.025.017.051.032.051.03.045.025.048.025c.363.182.511.113.5-.205l-.001-.028-.004-.046a1.8 1.8 0 0 0-.068-.324l-.016-.052-.587-1.848 1.584-1.166.064-.049.1-.084.029-.027.039-.038.07-.076.019-.023.026-.034c.158-.221.095-.35-.241-.418l-.032-.006-.05-.008-.055-.007-.056-.006-.057-.004-.064-.003-.065-.001-1.937-.017-.648-1.87-.011-.03-.024-.064zm-7.664-.033l-.014-.033-.028-.062c-.186-.398-.366-.432-.551-.157l-.014.021-.026.042-.048.09-.023.049-.024.056-.011.028-.011.028-.023.063-.631 1.871-1.975.018-.041.001-.064.003a1.76 1.76 0 0 0-.242.029l-.041.009-.044.012c-.243.069-.299.168-.208.332l.011.019.021.033c.04.059.095.122.165.187l.036.033.045.039.045.037.051.04 1.612 1.184-.61 1.869-.018.062-.015.056-.013.055-.015.078-.008.051-.005.043-.004.046c-.02.338.13.427.495.238l.058-.031.061-.036.05-.031.053-.035.052-.036 1.591-1.136 1.59 1.135.052.036.025.017.051.032.051.03.045.025.048.025c.363.182.511.113.5-.205l-.001-.028-.004-.046a1.8 1.8 0 0 0-.068-.324l-.016-.052-.587-1.848 1.595-1.175.052-.04.1-.084.029-.027.039-.038.07-.076.019-.023.026-.034c.158-.221.095-.35-.241-.418l-.032-.006-.05-.008-.055-.007-.056-.006-.057-.004-.064-.003-.065-.001-1.937-.017-.648-1.87-.011-.03-.024-.064-.013-.033zm-7.637.033l-.013-.033-.028-.065c-.191-.427-.376-.469-.565-.187l-.014.021-.026.042-.048.09-.023.049-.024.056-.022.056-.023.063-.011.033-.62 1.838-1.975.018-.041.001-.064.003a1.76 1.76 0 0 0-.242.029l-.041.009-.044.012c-.243.069-.299.168-.208.332l.011.019.021.033c.04.059.095.122.165.187l.036.033.045.039.023.019.023.018.051.04 1.612 1.184-.61 1.869-.018.062-.01.038-.017.073-.015.078-.008.051-.005.043-.004.046c-.018.303.101.406.389.288l.051-.022.143-.075.031-.018.05-.031.053-.035.026-.018.026-.018 1.591-1.136 1.59 1.135.052.036.025.017.051.032.051.03.045.025.048.025c.363.182.511.113.5-.205l-.001-.028-.004-.046a1.8 1.8 0 0 0-.068-.324l-.016-.052-.587-1.848 1.595-1.175.052-.04.1-.084.029-.027.039-.038.07-.076.019-.023.026-.034c.158-.221.095-.35-.241-.418l-.032-.006-.05-.008-.055-.007-.056-.006-.057-.004-.064-.003-.065-.001-1.937-.017-.658-1.9-.024-.064zm-7.651 0l-.013-.033-.028-.065c-.191-.427-.376-.469-.565-.187l-.014.021-.026.042-.048.09-.023.049-.024.056-.022.056-.023.063-.631 1.871-1.975.018-.041.001-.064.003a1.76 1.76 0 0 0-.242.029l-.041.009-.044.012c-.243.069-.299.168-.208.332l.011.019.021.033c.04.059.095.122.165.187l.036.033.045.039.023.019.023.018.051.04 1.612 1.184-.61 1.869-.018.062-.015.056-.013.055-.015.078-.008.051-.005.043-.004.046c-.021.355.146.435.553.207l.061-.036.05-.031.053-.035.026-.018.026-.018 1.591-1.136 1.59 1.135.052.036.025.017.051.032.051.03.045.025.048.025c.363.182.511.113.5-.205l-.001-.028-.004-.046a1.8 1.8 0 0 0-.068-.324l-.016-.052-.587-1.848 1.595-1.175.052-.04.1-.084.029-.027.039-.038.07-.076.019-.023.026-.034c.158-.221.095-.35-.241-.418l-.032-.006-.05-.008-.055-.007-.056-.006-.057-.004-.064-.003-.065-.001-1.937-.017-.648-1.87-.011-.03-.024-.064z"/>
    <path fill="#f7ae55" d="M40.01 43.914l-.708-2.045-.689 2.044-2.16.02 1.752 1.287-.666 2.037 1.762-1.258 1.763 1.259-.65-2.047 1.735-1.278-2.14-.019zm-7.651 0l-.708-2.045-.689 2.044-2.16.02 1.752 1.287-.666 2.037 1.762-1.258 1.763 1.259-.65-2.047 1.735-1.278-2.14-.019zm-7.651 0l-.708-2.045-.689 2.044-2.16.02 1.752 1.287-.666 2.037 1.762-1.258 1.763 1.259-.65-2.047 1.735-1.278-2.14-.019zm-7.651 0l-.708-2.045-.689 2.044-2.16.02 1.752 1.287-.666 2.037 1.762-1.258 1.763 1.259-.65-2.047 1.735-1.278-2.14-.019zm-7.651 0l-.708-2.045-.689 2.044-2.16.02 1.752 1.287-.666 2.037 1.762-1.258 1.763 1.259-.65-2.047 1.735-1.278-2.14-.019z"/>
    <path fill="#212121" d="M25.329.313l.198.173.272-.088.06-.019h0l.054-.016c.121-.034.211-.046.367-.045l.071.001h0l.207.007h0l.072.003h0l.064.004.029.002.054.005c.102.012.173.031.256.064l.043.018.022.01.213.095.224-.071c.275-.088.793-.095 1.109-.018.727.18 1.296.776 1.414 1.478l.044.258.191.042c.369.078.755.355.933.666l.109.202.272-.014c.657-.025 1.274.321 1.564.878a1.16 1.16 0 0 1 .079.23l.017.069h0l.059.251h0l.017.069c.041.157.087.285.154.309a1.14 1.14 0 0 0 .117.034l.039.009.057.012h0l.075.015.04.009h0l.039.01c.198.052.36.156.423.566-.048.266.133.678.542 1.235C39.767 10.061 43 15.547 43 21.758 43 31.833 34.493 40 24 40S5 31.833 5 21.758c0-6.892 3.98-12.891 9.854-15.994a10.73 10.73 0 0 0-.127-.321c0-.02-.008-.041-.02-.068l-.036-.076h0a1.17 1.17 0 0 1 .015-.942c.129-.254.4-.49.745-.656l.261-.123.022-.321a.51.51 0 0 1 .384-.419c.156-.038.386 0 .593.054.161.042.225-.028.264-.136l.011-.032h0l.014-.051c.1-.377.335-.705.64-.914a1.75 1.75 0 0 1 .748-.278l.067-.002c.082-.005.107-.033.172-.165.14-.279.444-.543.786-.681l.062-.025.029-.011.054-.019c.12-.042.213-.059.372-.069l.112-.006h0L20.108.5h0l.051-.002h0l.094-.002h0 .086 0l.078.002a1.62 1.62 0 0 1 .317.038l.26.063.147-.106a.79.79 0 0 1 .087-.051l.058-.028a2.98 2.98 0 0 1 .166-.071l.069-.027.068-.024.058-.019h0l.053-.016h0l.049-.014.024-.006.046-.011c.023-.005.046-.009.07-.013l.049-.006a1.57 1.57 0 0 1 .053-.005l.058-.003h0l.064-.002h0l.073-.002h0l.127-.001h0 .092l.095.001h0l.125.003h0l.074.003h0l.067.003h0l.062.004h0l.057.005h0l.054.007h0l.052.008.025.004.05.01h0l.05.012h0l.051.013h0l.111.03h0l.046.012h0l.039.009h0l.033.007c.054.01.082.007.112-.009l.016-.01h0l.017-.013h0l.02-.015h0c.121-.092.378-.201.565-.243.433-.095.9.011 1.204.279z"/>
    <path fill="#26a69a" d="M31.284 37.645l.059-.554.048-.395c.007-.007.114.169.239.392.206.363.257.476.213.476-.007 0-.14.056-.297.123l-.283.123.022-.166zm-16.841-.967l-.176-.106.11-.131a3.78 3.78 0 0 1 .279-.289c.151-.141.169-.148.151-.071l-.132.691c0 .032-.066.007-.231-.095zm22.58-3.726l-2.129-4.967c-.349-.656-.764-1.309-1.101-1.718-1.068-1.319-2.456-2.307-3.987-2.847-.749-.265-1.428-.392-2.262-.423l-.584-.021-.055-.265a8.28 8.28 0 0 1 .007-1.976c.132-.688.334-1.341.683-2.212l.117-.286.198.085c.341.152.679.201 1.322.205s1.032-.053 1.535-.212c.958-.303 1.56-1.207 1.715-2.586.095-.808-.011-1.538-.301-2.131l-.154-.31.117-.43 1.002-3.927.158-.706.25-.039c.323-.049.609-.183.866-.416l.206-.183.371.268a20.27 20.27 0 0 1 2.923 2.685c2.379 2.748 3.8 6.012 4.167 9.561a20.84 20.84 0 0 1 0 3.316c-.371 3.584-1.825 6.897-4.233 9.653l-.459.501-.092.081-.279-.699zm-28.3-1.644c-1.564-2.307-2.515-4.883-2.849-7.688-.081-.688-.092-2.886-.018-3.539.279-2.434.958-4.586 2.071-6.562.9-1.598 1.872-2.851 3.224-4.145 1.234-1.189 2.511-2.113 4.079-2.956l.202-.109.062.564c.062.557.132.843.231.953.029.032.044.064.037.071s-.04.402-.073.878l-.481 6.146c-.242 2.187-.217 3.302.11 4.385a5.84 5.84 0 0 0 .687 1.387c.272.377 1.002 1.073 1.406 1.337s1.035.568 1.432.695c.613.198 1.355.339 1.784.339h.206l-.004.349-.004.349-.165.025c-.624.085-1.476.363-2.129.695-1.065.547-1.737 1.034-4.769 3.465l-2.331 1.849c-1.054.822-1.505 1.192-2.008 1.658l-.367.325c-.007 0-.158-.212-.33-.469z"/>
    <path fill="#37474f" d="M32.422 6.273c-.125-.042-.437-.205-.698-.36-.514-.3-.756-.399-.995-.402-.084 0-.363.042-.624.092-.866.166-1.241.085-1.671-.37l-.224-.24-.297.134c-.723.332-1.439.37-2.056.109a3.87 3.87 0 0 1-.797-.526c-.158-.145-.191-.141-.547.06-.433.243-.87.307-1.274.194-.158-.046-.228-.095-.437-.321-.136-.145-.297-.289-.36-.321-.147-.074-.374-.046-.933.109-.793.222-1.127.155-1.472-.282l-.206-.275c-.033-.056-.048-.053-.206.028-.565.303-1.307.349-1.795.109-.316-.159-.305-.131-.264-.557.029-.303.059-.409.132-.533.184-.303.529-.508.951-.568.158-.025.191-.046.334-.226.213-.265.455-.476.672-.579.374-.183.925-.201 1.157-.039.066.046.147.085.184.085s.253-.074.481-.162c.668-.268 1.039-.332 1.527-.261.217.028.283.053.341.123.114.141.257.116.591-.095.246-.155.323-.183.503-.198.268-.018.466.064.749.307.253.219.338.229.745.067.228-.092.338-.113.543-.113.319 0 .507.06.562.173.062.134.198.145.573.049.485-.123.889-.116 1.168.014.374.176.661.557.745.984.022.109.084.435.257.565.084.064.497.153.578.185.18.071.387.29.509.495.187.318.228.339.683.36.448.018.595.053.789.176.283.183.393.437.43.995.029.459.34.479.674.567.316.085.321.357.321.368 0 .021-.099.157-.321.188-.31.043-.796-.028-1.023-.11z"/>
    <path fill="#a56250" d="M20.732 26.465c0-.025.195-.55.272-.737.033-.078.095-.159.143-.176.106-.046.165-.169.209-.462.062-.416.033-1.422-.059-1.891l-.026-.134h.231a6.01 6.01 0 0 0 1.094-.145c.117-.042.154-.092.154-.212s-.106-.243-.22-.25a9.01 9.01 0 0 0-.529.042c-.609.064-1.608.032-2.122-.067s-1.289-.356-1.682-.554c-1.256-.642-2.199-1.824-2.493-3.126-.239-1.065-.202-2.244.198-6.255l.374-4.084c.026-.811.015-.773.393-1.39.136-.219.554-.762.591-.762.004 0 .07.056.143.123.275.247.833.296 1.311.109.187-.071.22-.078.261-.032.114.134.338.205.654.205.272 0 .338-.014.529-.106.121-.056.297-.173.397-.258l.176-.155.165.141c.235.212.386.265.753.268.283.004.338-.007.551-.109l.235-.109.14.113c.334.275 1.017.307 1.344.064.084-.064.092-.064.239.007.305.145.778.071 1.109-.173l.117-.085.066.148c.092.201.481.572.635.607.14.028.14.018.055.593a11.44 11.44 0 0 0 .004 2.556c.143.91.308 1.387.848 2.452l.492 1.062a3.84 3.84 0 0 1 .151.967c0 .222.059.3.235.3.132 0 .217-.071.261-.212.062-.208.547-1.097.723-1.319.103-.134.286-.31.408-.395a1.31 1.31 0 0 1 .929-.254c.782.039 1.38.624 1.634 1.598.198.766.029 2.032-.352 2.646-.415.663-1.024.914-2.221.91-.764-.004-1.223-.145-1.634-.505-.257-.226-.408-.233-.514-.032-.077.141-.07.18.07.381l.129.18-.235.469c-.4.801-.654 1.637-.756 2.491-.051.448-.022 1.538.051 1.884l.051.24-.609.43c-1.81 1.288-3.169 2.11-4.655 2.826l-.415.176z"/>
    <path fill="#ff9800" d="M28.498 38.777c-.114-.035-1.894-.279-2.9-.402-2.757-.332-5.526-.49-7.673-.445l-1.065.025-.349-.145c-.485-.205-1.289-.603-1.307-.653a22.64 22.64 0 0 1 .268-1.665l.018-.081h2.504c3.782 0 5.041.081 7.53.476l5.25 1.044a15.09 15.09 0 0 1-.173 1.214 26.16 26.16 0 0 1-1.388.455l-.716.176zm3.385-2.455l-.815-1.351-.441-.741-.661-1.094-1.513-2.441c-.055-.074-.121-.116-.173-.116-.099 0-.206.102-.206.194 0 .071.698 1.341 1.447 2.642l.426.744a16.04 16.04 0 0 1-.613-.109c-2.464-.469-5.327-.769-8.511-.896-1.814-.071-3.583-.007-4.755.173l-.209.025c-.004-.004.169-1.013.378-2.244l.356-2.328c-.018-.046-.077-.102-.132-.12-.187-.064-.22.014-.43 1.037l-.808 4.103-.228 1.192-.129.113-1.065 1.048c-.136.148-.117.155-.712-.272a17.52 17.52 0 0 1-1.88-1.559c-.767-.727-1.212-1.207-1.377-1.496-.07-.12-.191-.303-.272-.406s-.143-.191-.136-.194c.613-.423.958-.695 1.887-1.485l4.608-3.729c1.391-1.083 2.464-1.768 3.477-2.223.4-.18 1.329-.526 1.41-.526.033 0 .04.088.022.349-.018.342-.026.363-.242.787s-.591 1.415-.591 1.57c0 .109.151.268.261.265.121 0 1.002-.363 1.85-.766 1.19-.561 2.328-1.228 3.297-1.93l1.252-1.013c.062-.064.095-.071.257-.056 3.15.342 5.217 1.461 6.73 3.634.778 1.122 1.395 2.41 2.306 4.816l.65 1.676.253.635-.268.24c-.984.886-2.107 1.718-3.099 2.29-.308.18-.944.487-1.006.487-.018 0-.286-.416-.598-.924z"/>
    <path fill="#bc7d64" d="M19.484 22.337c-1.531-.402-2.585-1.161-3.279-2.36-.352-.607-.543-1.256-.617-2.089-.059-.681.011-2.283.151-3.574l.536-5.396.026-.466.132-.042c.073-.021.283-.106.463-.187l.33-.145.459.007h1.45l2.9.081c.841.102 1.351.085 1.836-.053.239-.067.334-.081.345-.049.037.113.279.318.422.353s.532.028.65-.018c.051-.021.062.042.081.515.029.66.088.489.323 1.554.422 1.912.455 2.159.455 3.546 0 1.083-.029 1.482-.169 2.24-.106.593-.334 1.404-.529 1.887-.9 2.24-2.405 3.514-4.854 4.11-.543.134-.844.155-1.112.085z"/>
    <path fill="#ffb74d" d="M27.947 38.686l-4.938-.572-4.314-.18-1.909-.007-.532-.24c-.687-.31-1.065-.508-1.065-.557 0-.025.066-.413.147-.864l.147-.836c0-.032 4.718-.018 5.599.018 1.571.064 2.632.169 4.318.423l3.077.557.088.018-.026.427-.162 1.697-.026.176-.404-.06zm6.645-2.759c-.04-.028-.47-.289-.955-.586l-2.552-1.693c-.551-.413-1.314-1.055-1.538-1.291-.088-.095-.363-.505-.613-.91l-.514-.801c-.121-.131-.345-.049-.345.123 0 .042.088.243.198.448l.202.367.026 1.157.004 1.154a33.72 33.72 0 0 1-.786-.12c-2.93-.466-7.321-.748-9.704-.624l-2.137.201c-.015.011-.018-.028-.011-.081l.753-4.424c0-.127-.143-.226-.275-.194-.114.028-.11.021-.386 1.397l-.239 1.185c-.073.335-1.751 2.35-2.974 3.57l-.466.466-.264-.219a27.25 27.25 0 0 1-1.704-1.626c-.176-.191-.393-.469-.485-.621a4.81 4.81 0 0 0-.283-.416l-.121-.145.286-.205c.386-.279.984-.759 1.641-1.327l4.736-3.824c1.66-1.281 2.989-2.05 4.292-2.48l.455-.145c.007 0 .007.162-.007.356-.026.349-.033.37-.261.822s-.569 1.362-.569 1.531a.25.25 0 0 0 .173.25c.095.035.158.021.598-.155a31.3 31.3 0 0 0 2.699-1.288c1.057-.6 2.107-1.316 2.801-1.912.536-.459.433-.42.944-.36 1.179.134 2.39.466 3.301.903 1.781.857 3.003 2.159 4.112 4.368.411.826.628 1.337 1.38 3.299l.745 1.912.092.219-.334.314c-.536.501-1.74 1.461-1.821 1.45-.011 0-.055-.021-.095-.046z"/>
    <path fill="#ffcc80" d="M30.572 36.308c-.389-.12-1.784-.448-2.46-.575-2.471-.469-5.797-.826-8.628-.921-1.27-.042-2.878.011-3.767.123l-.151.021.095-.557.099-.557 1.079-.021 8.628.219 2.772.388 2.093.395c.004.004.147.254.319.554l.316.547-.04.24c-.022.131-.048.236-.059.233s-.147-.042-.297-.088z"/>
    <path fill="#ffecb3" d="M22.642 39.289c-1.072-.074-2.515-.314-3.525-.586-.628-.169-.617-.169 1.12-.12l3.341.18 3.172.339c.037.032-.044.049-.51.099a22.54 22.54 0 0 1-3.598.088zm5.929-3.475c-.106-.032-1.869-.339-2.295-.399-2.287-.328-5.18-.575-7.226-.624-.966-.025-2.104.018-2.981.106l-.477.035c-.015-.018.14-.977.173-1.062.015-.035.132-.046.521-.046l2.691-.042c2.768-.053 3.756-.021 5.757.183l3.877.536c.033.035-.004 1.323-.04 1.312z"/>
    <path fill="#212121" d="M20.314 18.777c.408-.099.892-.293.947-.377s-.015-.254-.114-.268c-.044-.007-.195.028-.33.074-.58.201-.903.25-1.59.254-.701 0-.944-.035-1.553-.236-.18-.056-.349-.095-.378-.085s-.051.06-.051.106c0 .078.044.113.341.247.389.183.877.325 1.274.37a4.67 4.67 0 0 0 1.454-.085zm8.771-2.201a.92.92 0 0 0 .598-.829c.015-.233.004-.279-.117-.547-.073-.159-.132-.346-.132-.413 0-.363.492-.822.885-.826.261 0 .444.187.606.614.07.194.092.215.18.215.169 0 .187-.081.092-.37-.217-.646-.723-.97-1.245-.794-.338.113-.775.49-.94.804-.147.286-.114.529.125.889.246.37.095.723-.404.953-.246.113-.319.236-.198.325.095.067.378.056.551-.021zm-10.835-.681c.048-.067.048-.088-.004-.201-.173-.37-.209-.533-.165-.73.048-.229.217-.473.393-.579.14-.081.165-.173.07-.25-.129-.102-.62.258-.789.575-.18.342-.117.85.14 1.125.147.155.272.176.356.06zm3.723-2.237c.143-.095.191-.24.231-.727.077-.914-.033-1.312-.33-1.192-.191.074-.257.346-.316 1.274-.022.339-.018.423.033.519.095.18.235.226.382.127zm-4.828-.155c.136-.106.173-.261.198-.882.026-.642 0-.847-.117-.981-.084-.092-.084-.095-.213-.035-.169.078-.231.261-.283.822-.059.624-.055.871.015.995.088.169.242.198.4.081zm6.539-3.69c.037-.014.059-.064.059-.141 0-.43-.562-.854-1.171-.889-.474-.025-.852.159-1.16.561-.184.243-.187.25-.106.328.084.085.114.071.279-.102.228-.24.543-.377.866-.377s.481.074.837.399c.272.247.294.261.397.222zm-5.838-.141c.04-.014.059-.067.059-.169 0-.399-.613-.691-1.153-.547-.151.039-.444.279-.481.388-.048.141.143.233.242.116.081-.095.316-.191.47-.191.213 0 .297.042.499.243.173.173.242.205.363.159z"/>
</svg>
