<svg xmlns="http://www.w3.org/2000/svg" viewBox="0 0 220 240" class="glsr-mascot">
    <path fill="#fff" d="M110 20c60.751 0 110 49.249 110 110s-49.249 110-110 110S0 190.751 0 130 49.249 20 110 20z"/>
    <path fill="#26a69a" d="M110 28C53.667 28 8 73.667 8 130s45.667 102 102 102 102-45.667 102-102S166.333 28 110 28z"/>
    <path fill="#212121" d="M117.585 1.866l1.131 1.028 1.55-.524.409-.133c.96-.3 1.51-.369 2.875-.329l1.142.042c1.445.063 1.988.181 2.838.56l1.369.636 1.278-.419c1.571-.524 4.526-.566 6.328-.105 4.149 1.069 7.396 4.613 8.067 8.786l.251 1.531 1.09.252c2.095.464 4.287 2.091 5.31 3.93l.641 1.228 1.55-.084c3.75-.147 7.27 1.908 8.926 5.221.712 1.426.964 5.18 1.865 5.515.393.145.786.233 1.167.313l.377.078.246.054.241.059c1.23.324 2.225.973 2.536 3.868-.471 1.116 3.519 5.413 5.05 6.48-.802 2.747-5.05 9.038-10.728 9.038l-.953 4.299-2.488 10.619-1.068 4.277-2.782 10.897c3.719 6.224 3.451 15.548.329 22.956-3.577 8.486-16.841 10.317-24.948 6.465-7.339 16.087-4.62 27.529-4.295 28.163 43.475.617 51.505 46.967 58.428 62.22-8.736 9.561-19.27 17.454-31.067 23.143l-1.101-2.191c-.471-.924-.833-1.579-.971-1.621l-.145 1.397-.409 3.634C138.913 228.837 124.826 232 110 232c-19.392 0-37.521-5.412-52.957-14.807l.526-3.017-.393.303c-1.077.85-1.29 1.19-1.706 1.735-11.658-7.387-21.715-17.075-29.532-28.424l2.718-2.404c13.399-11.82 24.085-20.743 39.605-32.781l3.171-2.451c2.228-1.717 11.313-7.758 20.444-8.91a97.89 97.89 0 0 0 .041-2.976l.001-1.176c-18.798-1.043-27.75-12.031-31.468-22.333-2.186-6.057-1.543-16.522-.5-27.889l.646-6.848.376-4.311.208-2.635.881-12.522.744-11.235.178-2.377c.054-.695-.86-.717-1.137-3.277l-.026-.265c-.864-10.142-4.628-10.909-5.061-11.892-.733-1.594-.691-4.005.084-5.599.733-1.51 2.284-2.915 4.253-3.9l1.488-.734.126-1.908c.04-.661.665-2.101 2.19-2.491.893-.228 2.2 0 3.384.321s1.446-.461 1.676-1.405c.545-2.139 1.886-4.089 3.625-5.326 1.242-.868 3.06-1.57 4.248-1.649l.429-.014c.451-.032.593-.209.96-.979.796-1.657 2.535-3.229 4.484-4.047l.418-.173c1.178-.473 1.744-.548 3.668-.624l.632-.018c1.295-.025 2.129.039 2.916.224l1.501.381.838-.629c.461-.336 1.613-.86 2.556-1.195l.521-.175c1.179-.379 1.77-.412 4.13-.412l.928.014c1.505.033 2.295.122 3.221.369l1.044.29c.899.238.974.178 1.407-.169.691-.545 2.158-1.195 3.227-1.447 2.472-.566 5.133.063 6.872 1.657z"/>
    <path fill="#ffb74d" d="M61.432 210.485l15.843.001 3.32.009 9.314.11 2.619.062.814.028.399.017c4.652.162 8.551.427 12.447.842l1.3.144c3.243.374 6.541.855 10.324 1.472l1.58.262 3.369.603 6.94 1.318 5.838 1.17.503.105-.003.03 3.839.804c4.88 1.036 8.606 1.889 8.777 2.06.054.068-.332 3.049-.639 5.157-4.073 1.636-8.276 3.018-12.59 4.125l-.999.25-.924.223-1.013.233-1.223.267A102.43 102.43 0 0 1 110 232c-12.306 0-24.103-2.179-35.026-6.173l-.909-.337-.71-.27-.994-.389-1.022-.412-.942-.392-.883-.377-1.066-.469-1.118-.507-.457-.212-.571-.269-2.038-.996-1.192-.609-.893-.469-1.095-.591-1.099-.611.3-1.778.319-2.055c.298-1.873.593-3.602.723-4.114l.064-.38c0-.003.007-.006.02-.009l.022-.096zm65.204-70.983c17.977 2.034 29.773 8.682 38.406 21.599l.441.67c4.091 6.291 7.455 13.605 12.203 26.545l1.389 3.796 2.834 7.573.735 1.917a102.34 102.34 0 0 1-25.037 18.629l-.571-.92-2.051-3.417-3.922-6.749-2.32-4.082-.924-1.604-2.607-4.487-3.042-5.244-6.685-11.186-.069-.095c-.314-.44-.691-.692-.985-.692-.566 0-1.173.608-1.173 1.153 0 .406 3.74 7.511 7.862 14.993l2.608 4.721c.139.257.217.406.217.417l-.03-.001c-.224-.026-1.696-.302-3.469-.649-14.059-2.789-30.402-4.571-48.568-5.326-10.092-.409-19.944-.06-26.626.949l-.924.144c-.436.064-.762.098-.778.081l.109-.739 2.049-12.598.943-5.718c.864-5.361 1.186-7.832 1.09-8.122-.105-.273-.44-.608-.754-.713l-.167-.054c-.925-.257-1.155.469-2.284 6.219l-.662 3.41-3.948 20.978-1.299 7.088-.733.671-.595.577-.679.677-4.184 4.3c-9.389-6.429-17.648-14.389-24.418-23.518l1.529-1.15.464-.36c1.725-1.347 3.48-2.834 6.172-5.203l2.282-2.016 11.013-9.434 4.214-3.541 10.215-8.436 1.208-.972c7.36-5.88 13.148-9.673 18.634-12.239l.577-.263c2.494-1.111 7.043-2.862 7.469-2.862.162 0 .216.385.162 1.472l-.072 1.238c-.078 1.206-.2 1.659-.857 3.034l-.49 1.007c-1.236 2.516-3.373 8.409-3.373 9.332 0 .65.859 1.594 1.488 1.573.634 0 4.912-1.815 9.349-3.959l1.211-.592c6.789-3.334 13.284-7.298 18.815-11.471l.46-.353c2.52-1.95 5.994-4.875 6.684-5.665.356-.377.545-.419 1.467-.336z"/>
    <path fill="#ffecb3" d="M147.505 215.811c-2.221-.713-10.183-2.663-14.038-3.418-14.101-2.789-33.084-4.907-49.238-5.473-7.25-.252-16.427.063-21.497.734l-.859.126.545-3.313.566-3.313 6.16-.126c29.585-.608 33.964-.503 49.238 1.3 6.265.734 9.282 1.174 15.819 2.307 4.484.776 11.859 2.223 11.943 2.349.021.021.838 1.51 1.823 3.292l1.802 3.25-.23 1.426c-.126.776-.272 1.405-.335 1.384-.063 0-.838-.252-1.697-.524z"/>
    <path fill="#ff9800" d="M148.657 219.523c.054.068-.332 3.049-.639 5.157-4.073 1.636-8.276 3.018-12.59 4.125l-.407.103.077-.64a213.28 213.28 0 0 0 .8-9.102l.144-2.508 3.839.804c4.88 1.036 8.606 1.889 8.777 2.06zm-7.885-28.193l.887.995c1.241 1.364 5.382 4.999 8.499 7.455l.739.575c3.716 2.858 8.572 6.188 14.103 9.711l4.445 2.831a102.03 102.03 0 0 1-11.838 7.335l-.571-.92-.843-1.388-1.208-2.029-3.922-6.749-2.32-4.082-.924-1.604-2.607-4.487-3.042-5.244-1.397-2.399zm3.058 11.487l.113.224-.03-.001-.443-.073-1.876-.352-1.151-.224-4.735-.923c.022 0 .036-.369.042-1.008l.002-1.107-.038-3.4-.174-8.22.017-.14 4.569 8.503 3.703 6.721zm-83.596-3.601l-1.609 8.773-.733.671-.595.577-.679.677-4.184 4.3-7.924-6.012 1.271-1.324 5.467-6.016.836-.969c5.374-6.265 10.369-12.81 10.669-14.236l-2.519 13.56z"/>
    <path fill="#ffcc80" d="M146.143 206.983l.227.402 1.596 2.89 1.802 3.25-.23 1.426c-.126.776-.272 1.405-.335 1.384-.017 0-.084-.018-.19-.049l-1.507-.475c-2.221-.713-11.993-3.114-11.419-2.936.21.063.419-7.591.23-7.801-.023-.023.857.119 2.64.426 3.635.687 7.129 1.396 7.187 1.482z"/>
    <path fill="#37474f" d="M158.065 36.037c-.712-.252-2.493-1.216-3.981-2.139-2.933-1.782-4.316-2.37-5.678-2.391-.482 0-2.074.252-3.562.545-4.945.986-7.082.503-9.533-2.202l-1.278-1.426-1.697.797c-4.128 1.971-8.213 2.202-11.733.65-1.173-.524-3.457-2.097-4.547-3.125-.901-.86-1.09-.839-3.122.356-2.472 1.447-4.966 1.824-7.27 1.153-.901-.273-1.299-.566-2.493-1.908-.775-.86-1.697-1.72-2.053-1.908-.838-.44-2.137-.273-5.322.65-4.526 1.321-6.432.923-8.402-1.678a42.29 42.29 0 0 1-1.173-1.636c-.189-.336-.272-.315-1.173.168-3.227 1.803-7.459 2.076-10.246.65-1.802-.944-1.739-.776-1.509-3.313.168-1.803.335-2.433.754-3.166 1.048-1.803 3.017-3.02 5.427-3.376.901-.147 1.09-.273 1.907-1.342 1.215-1.573 2.598-2.831 3.834-3.439 2.137-1.09 5.28-1.195 6.6-.231.377.273.838.503 1.048.503.23 0 1.446-.44 2.745-.965 3.813-1.594 5.93-1.971 8.716-1.552 1.236.168 1.613.315 1.949.734.65.839 1.467.692 3.373-.566 1.404-.923 1.844-1.09 2.87-1.174 1.53-.105 2.661.377 4.274 1.824 1.446 1.3 1.928 1.363 4.253.398 1.299-.545 1.928-.671 3.101-.671 1.823 0 2.891.356 3.206 1.028.356.797 1.131.86 3.269.294 2.766-.734 5.07-.692 6.663.084 2.137 1.048 3.771 3.313 4.253 5.851.126.65.482 2.584 1.467 3.359.482.377 2.839.912 3.3 1.101 1.027.419 2.21 1.726 2.902 2.942 1.069 1.887 1.299 2.013 3.897 2.139 2.556.105 3.394.315 4.505 1.048 1.613 1.09 2.242 2.6 2.451 5.913.168 2.726 1.938 2.846 3.845 3.37 1.802.503 1.833 2.124 1.833 2.187 0 .123-.565.931-1.833 1.116-1.769.258-4.542-.166-5.835-.654z"/>
    <path fill="#a56250" d="M91.352 157.305c0-.147 1.11-3.271 1.55-4.383.189-.461.545-.944.817-1.048.608-.273.943-1.007 1.194-2.747.356-2.474.189-8.451-.335-11.24l-.147-.797h1.32c1.488 0 5.406-.545 6.244-.86.67-.252.88-.545.88-1.258 0-.734-.608-1.447-1.257-1.489-.293 0-1.655.105-3.017.252-3.478.377-9.177.189-12.11-.398-2.912-.587-7.354-2.118-9.596-3.292-7.166-3.817-12.55-10.841-14.227-18.579-1.362-6.333-1.152-13.337 1.131-37.18 1.257-13.043 1.97-19.009 2.137-24.273.147-4.823.084-4.592 2.242-8.262.775-1.3 3.164-4.529 3.373-4.529.021 0 .398.336.817.734 1.571 1.468 4.756 1.761 7.48.65 1.069-.419 1.257-.461 1.488-.189.65.797 1.928 1.216 3.73 1.216 1.55 0 1.928-.084 3.017-.629.691-.336 1.697-1.028 2.263-1.531l1.006-.923.943.839c1.341 1.258 2.2 1.573 4.295 1.594 1.613.021 1.928-.042 3.143-.65l1.341-.65.796.671c1.907 1.636 5.804 1.824 7.669.377.482-.377.524-.377 1.362.042 1.739.86 4.442.419 6.328-1.028l.67-.503.377.881c.524 1.195 2.745 3.397 3.625 3.607.796.168.796.105.314 3.523-.545 3.796-.524 11.691.021 15.193.817 5.41 1.76 8.241 4.84 14.574 1.299 2.705 2.556 5.557 2.808 6.312.482 1.615.859 4.131.859 5.746 0 1.321.335 1.782 1.341 1.782.754 0 1.236-.419 1.488-1.258.356-1.237 3.122-6.522 4.128-7.843.587-.797 1.634-1.845 2.326-2.349 1.655-1.216 3.08-1.636 5.301-1.51 4.463.231 7.878 3.712 9.324 9.499 1.131 4.55.168 12.079-2.011 15.727-2.368 3.942-5.846 5.431-12.676 5.41-4.358-.021-6.977-.86-9.324-2.999-1.467-1.342-2.326-1.384-2.933-.189-.44.839-.398 1.069.398 2.265l.733 1.069-1.341 2.789c-2.284 4.76-3.73 9.73-4.316 14.805-.293 2.663-.126 9.143.293 11.198l.293 1.426-3.478 2.558c-10.33 7.654-18.082 12.54-26.568 16.797-1.299.65-2.368 1.132-2.368 1.048z"/>
    <path fill="#bc7d64" d="M84.229 132.771c-8.737-2.391-14.75-6.899-18.71-14.029-2.011-3.607-3.101-7.465-3.52-12.414-.335-4.047.063-13.567.859-21.242l3.059-32.073.147-2.768.754-.252c.419-.126 1.613-.629 2.64-1.111l1.886-.86 2.619.042c1.446.021 5.175.021 8.276 0 11.189-.042 12.655 0 16.552.482 4.798.608 7.71.503 10.476-.315 1.362-.398 1.907-.482 1.97-.294.21.671 1.592 1.887 2.41 2.097.838.231 3.038.168 3.709-.105.293-.126.356.252.461 3.062.168 3.921.503 2.904 1.844 9.237 2.41 11.366 2.598 12.834 2.598 21.075 0 6.438-.168 8.807-.964 13.316-.608 3.523-1.907 8.346-3.017 11.219-5.133 13.316-13.724 20.886-27.699 24.43-3.101.797-4.819.923-6.349.503z"/>
    <path fill="#fff" d="M100.953 81.182c1.678-.726 2.237-1.829 2.71-5.542.903-6.967-.387-10.007-3.872-9.093-2.237.565-3.011 2.636-3.7 9.711-.258 2.582-.215 3.228.387 3.954 1.118 1.372 2.753 1.722 4.474.968zm-27.968-.962c1.434-.8 1.821-1.973 2.092-6.666.271-4.853 0-6.399-1.24-7.413-.891-.693-.891-.72-2.247-.267-1.782.587-2.441 1.973-2.983 6.213-.62 4.72-.581 6.586.155 7.519.93 1.28 2.557 1.493 4.223.613z"/>
    <path fill="#212121" d="M88.964 111.612c2.326-.587 5.091-1.74 5.406-2.244.314-.524-.084-1.51-.65-1.594-.251-.042-1.11.168-1.886.44-3.31 1.195-5.154 1.489-9.072 1.51-4.002 0-5.385-.21-8.863-1.405-1.027-.336-1.99-.566-2.158-.503s-.293.356-.293.629c0 .461.251.671 1.949 1.468 2.221 1.09 5.008 1.929 7.27 2.202 2.389.315 5.992.084 8.297-.503zm50.055-13.085c2.116-.965 3.269-2.621 3.415-4.928.084-1.384.021-1.657-.67-3.25-.419-.944-.754-2.055-.754-2.453 0-2.16 2.808-4.886 5.05-4.907 1.488 0 2.535 1.111 3.457 3.649.398 1.153.524 1.279 1.027 1.279.964 0 1.069-.482.524-2.202-1.236-3.837-4.128-5.767-7.103-4.718-1.928.671-4.421 2.915-5.364 4.781-.838 1.699-.65 3.145.712 5.284 1.404 2.202.545 4.299-2.305 5.662-1.404.671-1.823 1.405-1.131 1.929.545.398 2.158.336 3.143-.126zm-61.83-4.047c.272-.398.272-.524-.021-1.195-.985-2.202-1.194-3.166-.943-4.341.272-1.363 1.236-2.81 2.242-3.439.796-.482.943-1.028.398-1.489-.733-.608-3.541 1.531-4.505 3.418-1.027 2.034-.67 5.054.796 6.689.838.923 1.55 1.048 2.032.356zm31.01-36.152c.21-.084.335-.377.335-.839 0-2.558-3.206-5.075-6.684-5.284-2.703-.147-4.861.944-6.621 3.334-1.048 1.447-1.069 1.489-.608 1.95.482.503.65.419 1.592-.608 1.299-1.426 3.101-2.244 4.945-2.244 1.865 0 2.745.44 4.777 2.37 1.55 1.468 1.676 1.552 2.263 1.321zm-33.314-.839c.23-.084.335-.398.335-1.007 0-2.37-3.499-4.11-6.579-3.25-.859.231-2.535 1.657-2.745 2.307-.272.839.817 1.384 1.383.692.461-.566 1.802-1.132 2.682-1.132 1.215 0 1.697.252 2.85 1.447.985 1.028 1.383 1.216 2.074.944z"/>
    <path class="glsr-mascot__eyes" fill="#111" d="M99.687 82.185c1.237-.566 1.649-1.426 1.998-4.32.666-5.431-.285-7.801-2.854-7.088-1.649.44-2.219 2.055-2.727 7.57-.19 2.013-.159 2.516.285 3.083.824 1.069 2.029 1.342 3.298.755zm-27.43-.923c1.185-.629 1.505-1.552 1.729-5.242.224-3.817 0-5.033-1.025-5.83-.737-.545-.737-.566-1.857-.21-1.473.461-2.017 1.552-2.466 4.886-.512 3.712-.48 5.18.128 5.913.769 1.007 2.113 1.174 3.49.482z"/>
</svg>
