<svg class="glsr-mascot" xmlns="http://www.w3.org/2000/svg" viewBox="0 0 220 240">
    <path fill="#fff" d="M110 20c60.751 0 110 49.249 110 110s-49.249 110-110 110S0 190.751 0 130 49.249 20 110 20z"/>
    <path fill="#7ecfcf" d="M110 28C53.667 28 8 73.667 8 130s45.667 102 102 102 102-45.667 102-102S166.333 28 110 28z"/>
    <path fill="#212121" d="M113.493 0c4.415 0 12.349.957 17.039 4.493 5.69 4.289 6.169 7.973 6.989 8.028 17.354 1.165 23.656 18.444 25.5 27.276 3.619 17.338 1.266 29.506 4.42 36.996l.649 1.526c2.832 6.604 4.95 10.838 5.414 14.211 1.547 11.233-4.253 14.225-6.063 16.703 1.815 13.654-5.921 15.938-6.78 16.043-.246.03 0 1.741-1.404 4.903s-4.231 5.778-10.656 6.302c-.275.022-.75.459-1.06.769l-.178.182c-4.284 4.471-6.841 2.808-9.842 3.26-.136.021-.059.07.191.131l.171.038.289.054c.538.092 1.353.193 2.35.264l.129.032c.57.162 2.181.786 4.046 1.534l1.872.756 4.954 2.034c6.884 2.853 13.716 5.878 16.662 8.981 2.095 1.907 8.562 14.719 14.019 27.732l.446 1.07c1.849 4.458 3.561 8.904 4.922 12.91l-.005.011C168.859 218.126 141.05 232 110 232c-33.537 0-63.294-16.185-81.885-41.171 6.159-16.492 14.786-30.377 25.717-40.516 3.136-2.884 12.61-7.481 20.264-10.074-3.343-3.162-4.81-5.692-6.429-12.185l-1.303-.384c-6.435-1.926-9.998-3.611-11.347-11.738l-.199-1.307c-.076-.483-.166-.963-.271-1.219-.747-1.808-6.212-5.231-7.305-11.581-.356-2.343.081-4.757.896-7.58l.139-.474c.216-.725.22-1.362.141-2.479l-.243-3.056c-.14-1.754-.208-3.24.25-5.297 1.004-4.515 3.244-8.228 6.135-12.932-6.135-11.688-4.594-14.246-.013-25.542l-.161-.632c-1.218-5.021-.753-9.216 3.356-15.832 2.099-3.379 1.483-3.598 8.622-8 2.859-1.763 5.058-2.237 8.858-4.414 6.063-3.474 11.679-8.718 12.265-9.082C95.519 1.52 106.272 0 113.493 0z"/>
    <path fill="#3e2723" d="M126.395 140.058c-1.467-.322-3.335-1.387-4.621-2.654l-1.205-1.206v-1.568-1.568l.723-.121c1.145-.221 4.239-1.468 6.309-2.554 3.777-1.971 7.233-4.806 10.367-8.486 2.029-2.353 4.742-6.254 5.726-8.204 1.487-2.976 2.552-6.716 3.496-12.286l.121-.744.964.121c3.717.442 8.057-2.956 10.889-8.506 2.491-4.926 2.793-10.838.743-15.604-.342-.804-.824-1.77-1.085-2.172-.824-1.206-2.331-2.634-3.395-3.177-.864-.462-1.246-.543-2.813-.543-1.627 0-1.949.06-3.074.623l-1.246.623v-2.715c0-2.674 0-2.694-.683-3.921-2.049-3.72-2.572-7.802-1.527-12.165.201-.804.301-1.488.221-1.528-.06-.04-.482-.181-.924-.322-1.567-.483-3.637-1.729-4.942-2.956-1.467-1.408-2.331-2.835-2.994-5.007l-.422-1.428-1.226-.221c-2.692-.503-4.902-2.172-6.007-4.544-.362-.764-.784-2.232-1.025-3.579-.241-1.247-.462-2.312-.502-2.353-.04-.06-.984.865-2.089 2.051-3.797 4.042-8.539 6.555-16.153 8.586-3.375.905-5.826 1.227-9.342 1.186-4.3-.04-4.36-.02-7.615 3.981-3.054 3.72-4.199 4.544-7.856 5.61-2.13.603-2.913 1.046-4.521 2.493-.603.543-1.447 1.227-1.848 1.488-1.507 1.005-4.48 1.81-7.976 2.192-1.688.181-2.23.322-2.411.603a.57.57 0 0 0 0 .704c.201.282.522.342 2.29.302l2.049-.02-.1 1.126c-.08.623-.181 3.197-.261 5.711l-.141 4.585-.924-.784c-1.346-1.126-2.15-1.468-3.416-1.488-2.652-.02-5.143 2.011-6.952 5.67-1.185 2.413-1.567 4.122-1.587 7.259 0 2.212.08 2.996.442 4.283.884 3.077 2.833 6.213 5.585 8.928 2.029 1.991 3.938 3.016 5.947 3.217l1.286.101.422 3.157c.824 5.892 2.672 10.758 6.068 15.905 3.938 6.012 8.84 10.396 14.647 13.131l1.688.784-.141 2.735c-.181 3.077-.08 2.896-1.909 3.8-.904.442-1.386.543-2.612.543-1.788 0-2.913-.483-4.561-1.971-.563-.503-1.145-.925-1.306-.925s-.583.302-.944.664c-1.025 1.066-2.331 1.649-3.737 1.649-1.547 0-2.672-.543-4.219-2.051-1.969-1.93-3.134-4.062-3.837-6.998-.784-3.338-1.246-4.283-2.311-4.826-.321-.181-1.668-.623-2.974-1.005-1.326-.382-2.953-.965-3.616-1.307-2.712-1.367-3.416-2.493-4.36-7.179-.462-2.252-.824-3.579-1.165-4.162-.281-.442-1.426-1.83-2.572-3.077-3.275-3.559-4.058-5.087-4.058-8.003 0-1.347.141-2.292.542-3.72.723-2.634.824-4.082.482-7.239-.342-3.056-.221-4.685.482-6.837.703-2.111 2.19-5.148 3.938-7.943 2.532-4.062 2.572-4.585.482-8.566-2.873-5.469-3.195-8.104-1.607-12.869.824-2.473 2.009-4.987 2.893-6.213l.723-.985-.522-1.669c-1.125-3.579-.864-7.319.784-10.718 1.065-2.212 2.009-4.411 3.958-6.261 2.732-2.594 5.465-3.632 10.93-6.387 4.34-2.192 5.304-2.835 10.367-6.776 6.61-5.148 10.267-6.239 14.767-7.787 4.38-1.528 8.519-2.051 14.908-1.89 3.395.08 4.802.201 6.329.523 3.858.845 6.731 1.252 8.9 3.584 1.467 1.589 2.29 2.896 3.637 5.731.844 1.79 1.185 2.292 1.567 2.393.261.06.563.06.683 0 .1-.06 1.065-.02 2.17.08 9.081.945 15.993 7.158 19.629 17.655 2.29 6.616 3.717 15.644 4.038 25.477.402 12.427 1.226 16.247 5.485 25.155 1.005 2.091 2.049 4.645 2.351 5.65 1.909 6.676.181 12.568-4.762 16.167-1.246.905-1.406 1.086-1.306 1.548.663 3.318.683 8.164.08 9.853-.864 2.333-2.311 3.418-4.802 3.66-.884.08-1.467.221-1.567.402-.121.161-.201 1.126-.201 2.152 0 2.373-.261 3.539-1.065 4.886-1.366 2.272-3.335 3.197-7.173 3.398l-2.511.121-.522.965c-.723 1.327-1.668 2.252-2.853 2.755-.884.382-1.246.422-2.652.322-.884-.06-1.949-.181-2.351-.241-.683-.101-.864-.04-1.708.684-2.953 2.453-6.53 3.619-9.302 3.056z"/>
    <path fill="#4e342e" d="M140.8 28.936c-2.933-1.468-7.113-.661-12.54 2.422-2.64-11.156-9.093-16.367-19.36-15.633-11.685.835-27.407 11.352-30.8 14.312-7.503 6.545-10.758 14.445-12.1 16.514-5.003 7.715-8.691 9.981-11.44 11.009.44-5.505 2.64-9.908 4.51-12-1.87-3.413-1.312-7.808-1.32-7.817C59.125 26.734 71.5 21.229 74.8 20.128s9.842-6.522 10.573-7.053c18.686-13.578 35.996-8.062 38.276-7.813 7.532 1.943 8.644 6.579 11.098 10.937 1.86.285 3.249.462 3.94.462 3.003 0 3.811.724 5.413 1.265 7.006 2.364 12.557 12.881 15.4 23.119.934 3.366 1.668 12.54 2.2 27.523-5.133-22.018-12.1-35.229-20.9-39.633z"/>
    <path fill="#f2c3a2" d="M106.926 163.645c-2.13-1.428-5.304-4.464-6.952-6.676-2.27-2.996-4.42-7.44-5.123-10.476-.141-.603-.402-1.367-.603-1.709-.462-.784-.924-2.875-.683-3.097.1-.08.784-.322 1.527-.503.743-.201 1.467-.503 1.607-.664.181-.221.281-1.508.382-4.203.06-2.152.161-3.941.201-4.002.06-.04.743.08 1.507.302 3.496 1.026 5.766 1.287 10.628 1.287 3.355 0 5.184-.101 6.711-.342l2.371-.342c.201 0 .261.744.261 3.599 0 4.002 0 4.022 1.346 4.464 1.105.342 2.712 1.166 3.235 1.649.542.503.563 1.227.04 1.89-.221.282-.402.664-.402.845 0 .382-1.025 3.619-1.507 4.746-.784 1.87-1.808 3.7-2.813 5.027-2.753 3.64-8.7 9.37-9.704 9.33-.201 0-1.105-.503-2.029-1.126zm-3.436-33.36c-10.488-1.609-18.906-7.842-23.808-17.675-2.371-4.746-3.215-7.762-3.757-13.472l-.241-2.453c-.02-.02-.583.101-1.226.261-1.507.402-3.154.302-4.32-.282-2.853-1.387-6.349-5.731-7.574-9.39-.502-1.448-.542-1.91-.542-4.424 0-2.554.04-2.956.563-4.424 1.045-3.016 2.572-5.107 4.38-6.012 1.909-.945 2.351-.784 5.384 1.991a58.57 58.57 0 0 0 2.431 2.131l.542.382.121-3.981.281-8.063.141-4.082 1.467-.382c2.029-.523 3.918-1.568 5.746-3.197 1.487-1.327 1.668-1.428 4.038-2.192 3.777-1.227 5.083-2.192 8.358-6.254 2.552-3.157 1.969-2.896 6.57-3.036 4.561-.141 6.952-.583 11.613-2.091 5.184-1.689 9.423-4.042 12.517-6.917.482-.462.904-.804.924-.785.02.041.241.705.462 1.469 1.005 3.358 3.637 5.912 6.911 6.736.884.221.924.261 1.226 1.367.804 2.815 3.456 5.811 6.389 7.219l1.607.764-.141.804c-.703 4.062-.201 8.345 1.346 11.401l.623 1.247-.542-.362c-.522-.342-.522-.342-.301.08.141.261.281 2.071.362 4.524l.141 4.102 2.511-1.247c2.23-1.086 2.632-1.227 3.717-1.227 2.311 0 4.239 1.508 5.626 4.384 1.125 2.353 1.406 3.68 1.386 6.756-.02 2.312-.1 2.976-.563 4.484-1.647 5.49-5.726 10.094-9.322 10.537-.723.08-1.326-.02-2.511-.442-.864-.302-1.607-.503-1.627-.462-.04.02-.261 1.347-.502 2.916-1.065 6.957-2.532 10.577-6.309 15.745-1.889 2.594-6.188 6.837-8.539 8.425-4.139 2.815-9.061 4.565-14.707 5.248-2.411.282-8.579.221-10.849-.121z"/>
    <path fill="#d19882" d="M99.521 132.826c2.982.82 5.205 1.06 9.385 1.078l.511.001 6.322-.284 2.293-.345.467-.054c.174 0 .243.559.258 2.567l.008 2.576c.026 2.474.197 2.545 1.342 2.921 1.105.342 2.712 1.166 3.235 1.649.506.469.558 1.131.137 1.757l-.097.133c-.193.246-.825.285-1.949.665l-.401.139c-2.371.845-6.168 1.77-8.499 2.071-2.029.282-7.333.282-9.443.02-2.663-.338-4.941-.956-6.866-1.871l-.805-.392c-.646-.302-1.036-.526-1.169-.673-.462-.784-.924-2.875-.683-3.097.1-.08.784-.322 1.527-.503.743-.201 1.467-.503 1.607-.664.181-.221.281-1.508.382-4.203l.039-1.191.162-2.81c.056-.037.649.064 1.345.256l.894.254zm27.577-96.889l.062.176.4 1.293c1.005 3.358 3.637 5.912 6.911 6.736l.252.065c.643.176.704.313.973 1.302.804 2.815 3.456 5.811 6.389 7.219l1.607.764-.141.804c-.703 4.062-.201 8.345 1.346 11.401l.623 1.247-.714-.474c-.347-.223-.221-.135-1.616-1.617-1.746-1.842-3.33-4.402-4.601-7.391l-.615-1.475c-.297-.698-.534-1.224-.591-1.309-.052-.103-.561-.222-1.173-.291l-.313-.03c-.763-.06-1.688-.261-2.069-.462-.342-.18-1.359-1.068-2.36-2.074l-.728-.741c-3.239-3.259-4.23-3.393-10.143-1.437l-2.195.73c-3.527 1.156-4.536 1.317-8.983 1.629l-.905.063c-5.026.351-6.917.683-9.482 1.638l-.243.091c-1.949.764-6.53 3.157-7.153 3.74l-.1.105c-.132.149-.087.177.18.177.723 0 2.732 1.267 3.837 2.413l.283.308c.864.96.95 1.284.621 1.924-.364.672-1.095.501-1.999-.461l-.13-.143c-1.627-1.83-3.616-2.413-6.068-1.79-.924.221-2.451 1.528-3.315 2.835-.201.302-.522.543-.723.543-.442 0-.583.684-1.226 5.731-.563 4.504-.804 9.029-.804 14.92l.009 2.874c.024 2.11.107 2.223.393 2.313a1.64 1.64 0 0 1 .644.504l.079.119c.261.382.281.543.08.784-.141.161-.422.302-.623.302-.442 0-.479.237-.172 2.847l.092.772c.639 5.487 1.858 10.04 4.34 16.001l.607 1.438c2.176 5.104 3.394 7.093 7.992 13.285l2.732 3.66-.011.08c-8.099-2.612-14.601-8.297-18.674-16.468-2.292-4.587-3.157-7.559-3.702-12.91l-.296-3.015c-.014-.014-.288.04-.668.127l-.557.134c-1.507.402-3.154.302-4.32-.282-2.774-1.349-6.155-5.492-7.467-9.084l-.107-.306c-.416-1.198-.515-1.722-.537-3.291l-.006-1.132.003-.863c.014-1.722.095-2.229.497-3.383l.063-.178c1.045-3.016 2.572-5.107 4.38-6.012l.283-.136c1.587-.743 2.161-.533 4.655 1.721l1.143 1.039a50.18 50.18 0 0 0 1.735 1.499l.542.382.165-5.438.237-6.607.141-4.082 1.467-.382c2.029-.523 3.918-1.568 5.746-3.197l.485-.428c.881-.763 1.303-1.008 2.569-1.44l.984-.324c3.672-1.193 5.009-2.138 8.09-5.922l1.322-1.643c1.448-1.77 1.683-1.608 5.517-1.725 4.561-.141 6.952-.583 11.613-2.091 5.184-1.689 9.423-4.042 12.517-6.917l.32-.298c.336-.303.589-.502.604-.488z"/>
    <path fill="#f06292" d="M59.74 217.456l-.124-.574-.568-2.927c-.643-3.881-.643-10.637.02-14.176l.215-1.126c.926-4.711 2.637-11.853 4.627-19.4l.503-1.894c2.158-7.975 2.211-8.062 1.421-8.214l-.607-.12c-1.338-.252-1.819-.217-2.287.132l-.165.131-.087.079-.043.044-.063.074-.08.111c-.591.897-1.326 3.796-5.121 18.821l-.547 2.21c-1.709 7.019-2.304 10.701-2.483 15.222l-.024.685c-.134 3.883.041 5.837.802 9.462-9.102-5.818-17.219-13.043-24.045-21.367l.588-1.863.095-.282.641-1.698.279-.76c1.97-5.356 5.52-12.701 8.791-18.156l.617-1.021c.511-.868.621-1.226.497-1.475-.121-.221-.121-.362 0-.362.1 0 .221.101.261.241.038.114.617-.547 1.293-1.506l1.149-1.622c.794-1.103 1.447-1.952 3.163-4.151 3.737-4.786 7.253-8.445 9.684-10.094 1.997-1.357 8.39-4.341 14.496-6.763l1.876-.732c3.484-1.345 4.586-1.678 5.689-1.712l.201-.003c.633 0 1.542-.163 2.406-.43l.925-.298c.542-.167.939-.267.969-.237l.016.081c.03.2.092.752.161 1.466l.105 1.168c.583 7.038 2.974 13.271 7.313 19.062 3.174 4.203 9.664 9.652 14.345 12.045 1.788.905 3.215.643 6.972-1.227 9.856-4.922 17.676-16.563 19.249-28.582l.059-.475c.08-.744.221-1.166.382-1.166l.085.008c.304.039 1.274.218 2.35.431l.758.148a73.12 73.12 0 0 0 2.723.476l.312.042c.752.077 2.319.636 4.861 1.695l2.934 1.241 2.744 1.136 2.842 1.161c5.609 2.328 10.257 4.841 12.237 6.632.863.778 3.028 4.637 5.57 9.707l.366.732 2.99 6.203.817 1.759.573 1.251.755 1.672 3.154 7.33a243.33 243.33 0 0 1 5.112 13.981 102.43 102.43 0 0 1-25.162 19.618l.199-1.038.162-.81.13-.703c.308-1.706.631-3.809.754-4.988.301-3.217.121-8.264-.402-10.778a105.35 105.35 0 0 1-.522-2.68l-.181-1.04a99.38 99.38 0 0 0-.612-3.004l-1.538-6.849-.613-2.765c-1.486-6.614-2.911-12.31-3.265-13-.462-.865-1.286-1.126-2.532-.804-.563.141-1.105.362-1.205.503-.272.312.209 2.888 1.043 5.736l.613 2.083 2.261 8.046c1.246 4.585 2.632 11.703 3.014 15.483.74 7.116.005 14.102-1.943 19.02C141.194 228.303 126.029 232 110 232c-18.133 0-35.16-4.731-49.915-13.027l-.23-1.001-.115-.517z"/>
    <path fill="#ec407a" d="M149.914 174.745l.034.021c.069.063.212.365.878 2.592l.532 1.807.538 1.864 1.723 6.182c1.246 4.585 2.632 11.703 3.014 15.483.74 7.116.005 14.102-1.943 19.02C141.194 228.303 126.029 232 110 232c-14.38 0-28.065-2.976-40.472-8.345l2.028.384c10.801 2.017 19.5 3.127 26.928 3.445l1.658.062 1.367.039 1.166.013.854-.007c1.094-.018 2.331-.072 4.381-.164 8.84-.402 16.676-2.916 24.009-7.681l.762-.508.8-.55c2.709-1.887 5.761-4.261 6.414-5.015.455-.55 1.3-2.081 2.535-4.594l.552-1.568.361-1.048c.754-2.214 1.33-4.063 1.727-5.545l.089-.336c1.194-4.596 2.522-11.545 3.678-19.204l.575-3.881c.244-1.578.444-2.694.502-2.753z"/>
    <path fill="#212121" d="M144.9 209.071c.207-.339-.118-2.43-.977-6.584l-1.274-6.047 3.554-5.002c3.821-5.425 4.117-6.16 2.458-6.499-.474-.113-2.162-.226-3.702-.254l-4.68-.254-1.896-.17-2.903-6.047c-2.814-5.906-3.495-6.923-4.295-6.612-.237.057-1.718 3.052-3.288 6.612l-2.903 6.471-3.436.028-5.627.226c-2.103.17-2.221.198-2.31.904-.059.537.77 1.922 3.317 5.482l3.436 4.945c0 .113-.326 1.639-.74 3.419-2.133 9.042-2.192 9.579-.889 9.579.385 0 3.376-1.272 6.664-2.826l6.309-2.826c.207.028 2.962 1.356 6.131 2.967l6.279 2.967c.296 0 .622-.226.77-.48z"/>
    <path fill="#ffeb3b" d="M121.549 203.691l.992-4.267.768-3.849c0-.328-1.152-2.178-2.593-4.147-1.408-1.939-2.497-3.61-2.401-3.7s2.081-.269 4.385-.358l4.193-.179 2.273-4.983 2.465-5.012c.096 0 1.152 2.059 2.369 4.565l2.625 4.953c.288.298 1.632.477 4.577.597l4.193.179-2.913 3.968-2.913 3.968.992 4.505.864 4.625c-.064.09-2.305-.925-4.929-2.208l-4.801-2.327-3.489 1.611-5.153 2.327-1.728.686.224-.955z"/>
    <path fill="#f9fbfc" d="M106.685 170.863c-5.103-3.117-9.443-7.199-12.457-11.683-1.647-2.433-2.11-3.318-3.174-5.992-1.085-2.735-1.788-5.791-2.11-9.069l-.1-1.046 1.145.121c1.627.161 1.567.121 1.708 1.428.08.643.362 2.111.663 3.278 1.567 6.254 4.983 11.904 9.604 15.926 2.773 2.393 6.369 4.524 7.273 4.303 1.426-.362 6.871-5.208 9.845-8.767 3.255-3.881 5.143-7.842 6.329-13.271.221-1.046.422-1.91.442-1.93.02-.04.804 0 1.728.06l1.668.121-.141 1.327c-.321 3.097-1.949 7.963-3.737 11.261-3.677 6.716-8.298 11.341-14.084 14.096-2.511 1.186-2.391 1.186-4.601-.161z"/>
    <path fill="#212121" d="M137.721 92.107c.458 0 .829-.407.829-.909s-.371-.909-.829-.909-.829.407-.829.909.371.909.829.909zm-2.285-4.532c.404 0 .731-.431.731-.962s-.327-.962-.731-.962-.731.431-.731.962.327.962.731.962zm-2.556 4.211c.458 0 .829-.423.829-.945s-.371-.945-.829-.945-.829.423-.829.945.371.945.829.945zM84.914 86.73c.35 0 .634-.427.634-.953s-.284-.953-.634-.953-.634.427-.634.953.284.953.634.953zm-2.238 4.207c.551 0 .999-.345.999-.771s-.447-.771-.999-.771-.999.345-.999.771.447.771.999.771zm5.065-.002c.464 0 .841-.379.841-.847s-.376-.847-.841-.847-.841.379-.841.847.376.847.841.847zm22.078 21.152c1.587-.261 4.159-1.066 5.525-1.749 1.165-.583 1.487-1.166.904-1.649-.261-.221-.603-.181-2.069.282-3.777 1.146-8.338 1.387-12.858.704-1.467-.241-1.688-.221-1.969.06-.482.462-.241.885.763 1.347 2.672 1.206 6.248 1.589 9.704 1.005zm-.1-14.558c.402-.503.141-.965-1.025-1.729-3.195-2.131-3.195-3.72-.02-6.133.784-.603 1.447-1.186 1.447-1.307 0-.101-.261-.181-.603-.181-.603 0-.603 0-.603-1.166 0-1.186-.321-4.283-.522-4.947-.362-1.166-.884 1.629-.884 4.705v2.111l-.723.402c-1.005.543-1.989 1.749-2.29 2.795-.563 2.031 1.025 4.625 3.355 5.469 1.005.342 1.567.342 1.868-.02zm40.725-6.274c1.125-1.227 1.708-3.258 1.386-4.947-.08-.402-.583-1.408-1.145-2.272l-1.025-1.568.462-.885c.784-1.488 2.331-3.056 2.994-3.056.643 0 1.426.804 1.929 1.991.422.945.583.483.281-.804-.161-.623-.482-1.267-.904-1.689-.844-.905-1.688-.945-2.933-.101-.904.603-2.552 2.594-3.114 3.78-.382.824-.241 1.307 1.025 3.338 1.226 1.991 1.266 2.312.502 4.504-.603 1.729-.643 2.252-.181 2.252.121 0 .422-.241.723-.543zm-79.421-.845c.08-.101-.161-.945-.502-1.87-.784-2.131-.723-2.674.643-4.886 1.306-2.152 1.326-2.534.08-4.343-1.065-1.548-2.069-2.514-3.074-2.936-1.286-.543-2.491.241-3.014 1.95-.623 2.091-.422 2.433.422.704.603-1.227 1.306-1.81 1.949-1.609.603.201 1.748 1.448 2.532 2.775l.663 1.146-.964 1.508c-1.185 1.83-1.527 3.036-1.226 4.404.462 2.051 1.989 3.981 2.491 3.157zm65.779-27.005c.141-.141.241-.483.241-.784 0-.684-2.069-2.875-3.516-3.72-.924-.543-1.165-.583-3.014-.583-1.788 0-2.13.06-3.014.523-1.326.704-2.953 2.031-3.295 2.674-.221.402-.241.623-.06 1.026.362.764.984.623 2.17-.503 2.933-2.775 6.088-2.534 8.679.684.743.925 1.346 1.146 1.808.684zm-51.595-.965c1.165-1.81 3.476-2.976 5.465-2.755 1.246.161 2.371.804 3.677 2.131 1.005 1.046 1.426 1.227 1.868.784 1.105-1.106-1.708-3.961-4.621-4.725-1.165-.302-1.487-.322-2.592-.08-.683.141-1.647.442-2.13.664-1.205.563-2.712 1.971-3.275 3.036-.402.784-.442.985-.241 1.428.402.885 1.085.704 1.848-.483zm47.637 12.324l1.301-1.269c.402-.362.924-1.046 1.185-1.488.462-.784.884-2.514.623-2.514-.08 0-.683.583-1.346 1.307-.683.724-2.471 2.167-2.552 2.167-.054 0 .209.599.789 1.796zm-43.407-2.377l-2.136-1.525a8.92 8.92 0 0 1-1.226-1.408c-.563-.925-.964-.824-.763.201.201 1.066.763 2.051 1.708 2.956l1.399 1.485 1.019-1.709z"/>
    <path fill="#fff" d="M92.5 85.101c3.038 0 5.5-3.582 5.5-8s-2.462-8-5.5-8-5.5 3.582-5.5 8 2.462 8 5.5 8zm36 0c3.038 0 5.5-3.582 5.5-8s-2.462-8-5.5-8-5.5 3.582-5.5 8 2.462 8 5.5 8z"/>
    <path class="glsr-mascot__eyes" fill="#111" d="M130.808 84.296c1.23-.825 1.614-1.777 1.614-3.976v-1.904c-.114-1.028-.498-1.966-1.153-2.813-1.614-2.178-5.919-2.073-7.38.169-.653.994-.615 5.753.077 6.895.615 1.079 1.807 1.988 2.844 2.242 1.268.296 3.037.021 3.997-.613zm-36.054-.078c1.446-.65 2.355-2.075 2.727-4.276.413-2.495.207-3.731-.868-4.821-1.694-1.698-3.842-1.845-6.404-.482-1.079.734-1.809 1.713-2.19 2.935l-.248 1.698c-.578 3.48 1.611 5.786 5.165 5.408.578-.063 1.405-.273 1.818-.461z"/>
</svg>
