<svg class="glsr-mascot" xmlns="http://www.w3.org/2000/svg" xmlns:xlink="http://www.w3.org/1999/xlink" viewBox="0 0 230 250">
    <path fill="#fff" d="M115 20c63.513 0 115 51.487 115 115s-51.487 115-115 115S0 198.512 0 135 51.487 20 115 20z"/>
    <path fill="#fff" d="M115 20c63.513 0 115 51.487 115 115 0 20.926-5.589 40.547-15.356 57.451C176.606 154.15 143.391 135 115 135c-28.955 0-62.558 18.462-100.808 55.387C5.147 173.958 0 155.08 0 135 0 71.487 51.487 20 115 20z"/>
    <path fill="#fff" d="M115 24c61.304 0 111 49.696 111 111s-49.696 111-111 111S4 196.303 4 135 53.696 24 115 24z"/>
    <path fill="#26a69a" d="M115 35C59.772 35 15 79.771 15 135s44.772 100 100 100 100-44.772 100-100S170.228 35 115 35z"/>
    <path fill="#212121" d="M122.436 9.378l1.109 1.007 1.52-.514.401-.13c.941-.294 1.48-.361 2.818-.322l1.12.041c1.417.062 1.949.178 2.782.549l1.342.623 1.253-.411c1.541-.514 4.437-.555 6.204-.103 4.067 1.048 7.251 4.523 7.908 8.614l.246 1.501 1.068.247c2.054.455 4.203 2.05 5.206 3.853l.628 1.204 1.52-.082c3.677-.144 7.128 1.871 8.751 5.119.698 1.398.945 5.078 1.828 5.407.385.142.771.229 1.145.307l.37.077.241.053.236.058c1.206.317 2.181.954 2.486 3.792-.462 1.094 3.45 5.307 4.951 6.353-.786 2.693-4.951 8.861-10.517 8.861l-.934 4.215-2.439 10.411-1.047 4.193-2.728 10.684c3.646 6.102 3.384 15.243.323 22.506-3.506 8.32-16.511 10.115-24.459 6.338-7.195 15.771-4.529 26.989-4.211 27.61 42.623.605 50.495 46.047 57.283 61a100.3 100.3 0 0 1-30.458 22.689l-1.079-2.148c-.462-.905-.816-1.548-.952-1.589l-.142 1.37-.401 3.563C143.346 231.899 129.535 235 115 235c-19.012 0-36.785-5.306-51.919-14.517l.516-2.958-.385.297c-1.056.833-1.265 1.166-1.673 1.701-11.43-7.242-21.289-16.74-28.953-27.867l2.665-2.357c13.136-11.588 23.612-20.337 38.828-32.138l3.109-2.403c2.185-1.683 11.091-7.606 20.043-8.735a95.97 95.97 0 0 0 .04-2.918l.001-1.153c-18.429-1.023-27.205-11.795-30.851-21.895-2.143-5.938-1.512-16.198-.491-27.342L66.565 86l.369-4.226.204-2.584.864-12.276.729-11.014.175-2.33c.053-.681-.843-.703-1.115-3.213l-.025-.259c-.847-9.944-4.537-10.695-4.961-11.659-.719-1.562-.678-3.927.082-5.489.719-1.48 2.239-2.858 4.17-3.824l1.458-.72.123-1.871c.039-.648.652-2.06 2.147-2.442.875-.224 2.157 0 3.317.314s1.417-.452 1.643-1.377c.534-2.097 1.849-4.009 3.554-5.222 1.218-.851 3-1.539 4.165-1.617l.42-.013c.442-.031.581-.205.941-.96.781-1.624 2.486-3.166 4.396-3.968l.41-.17c1.155-.464 1.71-.538 3.596-.612l.62-.017c1.27-.024 2.087.038 2.859.22l1.472.373.822-.617c.452-.329 1.582-.843 2.506-1.172l.511-.172c1.156-.372 1.736-.404 4.049-.404l.91.013c1.476.033 2.25.12 3.158.362l1.023.284c.881.233.955.174 1.379-.166.678-.535 2.116-1.172 3.163-1.419 2.424-.555 5.033.062 6.738 1.624z"/>
    <path fill="#ffb74d" d="M67.385 213.906l15.533.001 3.255.009 9.132.108 2.568.061.798.027.391.017c4.561.159 8.383.418 12.203.826l1.274.141c3.179.366 6.413.838 10.122 1.444l1.549.256 3.303.591 6.804 1.292 5.724 1.147.493.103-.003.029 3.764.788c4.784 1.016 8.437 1.852 8.605 2.02.053.067-.326 2.989-.627 5.056a99.34 99.34 0 0 1-12.343 4.044l-.979.245-.906.219-.993.229-1.199.262A100.42 100.42 0 0 1 115 235c-12.065 0-23.631-2.137-34.34-6.052l-.891-.331-.696-.265-.974-.381-1.002-.404-.924-.384-.865-.37-1.046-.46-1.096-.497-.448-.208-.56-.264-1.998-.976-1.169-.597-.875-.46-1.073-.579-1.077-.599.294-1.743.313-2.014c.292-1.836.582-3.531.709-4.034l.062-.373c0-.003.007-.006.019-.009l.022-.094zm63.925-69.591c17.625 1.994 29.19 8.511 37.653 21.175l.433.657c4.011 6.168 7.308 13.338 11.963 26.025l1.362 3.722 2.778 7.424.721 1.879c-7.167 7.271-15.44 13.45-24.546 18.264l-.56-.902-2.011-3.35-3.845-6.616-2.274-4.002-.906-1.573-2.556-4.399-2.983-5.141-6.554-10.967-.068-.093c-.308-.432-.678-.678-.965-.678-.555 0-1.15.596-1.15 1.131 0 .399 3.666 7.363 7.707 14.699l2.556 4.629c.136.252.212.398.212.409l-.029-.001c-.22-.025-1.663-.296-3.401-.636-13.783-2.734-29.806-4.482-47.615-5.222-9.894-.401-19.553-.059-26.104.93l-.906.141c-.427.063-.747.096-.763.08l.107-.725 2.009-12.351.924-5.606c.847-5.256 1.163-7.679 1.068-7.963-.103-.267-.431-.596-.739-.699l-.164-.052c-.907-.252-1.132.46-2.239 6.097l-.649 3.343-3.87 20.567-1.274 6.949-.719.658-.583.566-.665.663-4.102 4.215a100.54 100.54 0 0 1-23.939-23.057l1.499-1.127.455-.353c1.692-1.321 3.412-2.778 6.051-5.101l2.237-1.976 10.797-9.249 4.131-3.472 10.014-8.271 1.184-.953c7.216-5.764 12.89-9.483 18.269-11.999l.566-.258c2.445-1.089 6.905-2.805 7.322-2.805.158 0 .211.378.158 1.444l-.07 1.214c-.077 1.183-.196 1.626-.84 2.975l-.481.988c-1.212 2.467-3.307 8.244-3.307 9.149 0 .637.842 1.562 1.458 1.542.621 0 4.816-1.779 9.165-3.881l1.188-.58c6.655-3.269 13.023-7.154 18.446-11.246l.451-.346c2.471-1.912 5.877-4.78 6.553-5.554.349-.37.534-.411 1.438-.329z"/>
    <path fill="#ffecb3" d="M151.769 219.128c-2.177-.699-9.983-2.611-13.763-3.351-13.824-2.734-32.435-4.811-48.273-5.366-7.107-.247-16.105.062-21.076.72l-.842.123.534-3.248.555-3.248 6.039-.123c29.005-.596 33.298-.493 48.273 1.275 6.142.72 9.1 1.151 15.509 2.261 4.396.761 11.627 2.179 11.709 2.303.021.021.822 1.48 1.787 3.228l1.767 3.187-.226 1.398c-.123.761-.267 1.377-.329 1.357-.062 0-.822-.247-1.664-.514z"/>
    <path fill="#ff9800" d="M152.899 222.767c.053.067-.326 2.989-.627 5.056a99.34 99.34 0 0 1-12.343 4.044l-.399.101.075-.627.784-8.923.141-2.458 3.764.788 8.605 2.02zm-7.73-27.64l.87.976c1.216 1.337 5.277 4.901 8.332 7.309l.724.563c3.643 2.802 8.404 6.066 13.827 9.52l4.358 2.775a100.03 100.03 0 0 1-11.606 7.191l-.56-.902-.826-1.36-1.184-1.989-3.845-6.616-2.274-4.002-.906-1.573-2.556-4.399-2.983-5.141-1.37-2.352zm2.998 11.262l.111.219-.029-.001-.434-.072-1.839-.345-1.129-.219-4.642-.905c.021 0 .035-.362.041-.988l.002-1.085-.038-3.333-.17-8.059.017-.137 4.479 8.336 3.63 6.589zm-81.957-3.53l-1.578 8.601-.719.658-.583.566-.665.663-4.102 4.215-7.769-5.894 1.246-1.298 5.359-5.898.82-.95c5.268-6.142 10.165-12.558 10.459-13.957l-2.469 13.294z"/>
    <path fill="#ffcc80" d="M150.434 210.473l.223.394 1.564 2.834 1.767 3.187-.226 1.398c-.123.761-.267 1.377-.329 1.357-.016 0-.083-.018-.187-.048l-1.477-.466c-2.177-.699-11.758-3.053-11.195-2.878.205.062.411-7.442.226-7.648-.023-.023.84.116 2.588.418 3.564.673 6.989 1.368 7.046 1.453z"/>
    <path fill="#37474f" d="M162.122 42.879c-.698-.247-2.444-1.192-3.903-2.097-2.876-1.747-4.232-2.323-5.567-2.344-.472 0-2.034.247-3.492.535-4.848.966-6.943.493-9.346-2.159l-1.253-1.398-1.664.781c-4.047 1.933-8.052 2.159-11.503.637-1.15-.514-3.389-2.056-4.458-3.063-.883-.843-1.068-.822-3.061.349-2.424 1.419-4.868 1.789-7.128 1.131-.883-.267-1.274-.555-2.444-1.871-.76-.843-1.664-1.686-2.013-1.871-.822-.432-2.095-.267-5.218.637-4.437 1.295-6.306.905-8.237-1.645a41.46 41.46 0 0 1-1.15-1.604c-.185-.329-.267-.308-1.15.164-3.163 1.768-7.313 2.035-10.045.637-1.767-.925-1.705-.761-1.479-3.248.164-1.768.329-2.385.739-3.104 1.027-1.768 2.958-2.96 5.32-3.31.883-.144 1.068-.267 1.869-1.316 1.191-1.542 2.547-2.775 3.759-3.372 2.095-1.069 5.176-1.172 6.471-.226.37.267.822.493 1.027.493.226 0 1.417-.432 2.691-.946 3.739-1.562 5.813-1.933 8.545-1.521 1.212.164 1.582.308 1.91.72.637.822 1.438.678 3.307-.555 1.376-.905 1.808-1.069 2.814-1.151 1.5-.103 2.609.37 4.19 1.789 1.417 1.275 1.89 1.336 4.17.391 1.274-.535 1.89-.658 3.04-.658 1.787 0 2.835.349 3.143 1.007.349.781 1.109.843 3.204.288 2.711-.72 4.971-.678 6.532.082 2.095 1.028 3.697 3.248 4.17 5.736.123.637.472 2.533 1.438 3.294.472.37 2.783.894 3.235 1.079 1.007.411 2.167 1.692 2.845 2.884 1.048 1.85 1.274 1.974 3.821 2.097 2.506.103 3.328.308 4.416 1.028 1.582 1.069 2.198 2.549 2.403 5.798.164 2.673 1.9 2.79 3.769 3.304 1.767.493 1.797 2.082 1.797 2.144 0 .12-.554.913-1.797 1.094-1.734.253-4.453-.163-5.721-.642z"/>
    <path fill="#a56250" d="M96.718 161.77c0-.144 1.089-3.207 1.52-4.297.185-.452.534-.925.801-1.028.596-.267.924-.987 1.171-2.693.349-2.426.185-8.285-.329-11.019l-.144-.781h1.294c1.458 0 5.3-.535 6.121-.843.657-.247.863-.535.863-1.234 0-.72-.596-1.419-1.232-1.46-.288 0-1.623.103-2.958.247-3.41.37-8.997.185-11.873-.391-2.855-.576-7.21-2.076-9.408-3.228-7.025-3.742-12.304-10.629-13.948-18.215-1.335-6.209-1.13-13.075 1.109-36.451 1.232-12.788 1.931-18.636 2.095-23.797.144-4.728.082-4.502 2.198-8.1.76-1.275 3.102-4.441 3.307-4.441.021 0 .39.329.801.72 1.541 1.439 4.663 1.727 7.333.637 1.048-.411 1.232-.452 1.458-.185.637.781 1.89 1.192 3.656 1.192 1.52 0 1.89-.082 2.958-.617a11.69 11.69 0 0 0 2.218-1.501l.986-.905.924.822c1.315 1.234 2.157 1.542 4.211 1.562 1.582.021 1.89-.041 3.081-.637l1.315-.637.781.658c1.869 1.604 5.69 1.789 7.518.37.472-.37.514-.37 1.335.041 1.705.843 4.355.411 6.204-1.007l.657-.493.37.863c.514 1.172 2.691 3.331 3.554 3.536.781.164.781.103.308 3.454-.534 3.721-.514 11.461.021 14.895.801 5.304 1.725 8.08 4.745 14.288 1.274 2.652 2.506 5.448 2.753 6.188.472 1.583.842 4.05.842 5.633 0 1.295.329 1.747 1.315 1.747.739 0 1.212-.411 1.458-1.234.349-1.213 3.061-6.394 4.047-7.689.575-.781 1.602-1.809 2.28-2.303 1.623-1.192 3.02-1.604 5.197-1.48 4.375.226 7.724 3.639 9.141 9.313 1.109 4.461.164 11.842-1.972 15.419-2.321 3.865-5.731 5.325-12.428 5.304-4.273-.021-6.84-.843-9.141-2.94-1.438-1.316-2.28-1.357-2.876-.185-.431.822-.39 1.048.39 2.22l.719 1.048-1.315 2.734c-2.239 4.667-3.656 9.539-4.232 14.514-.288 2.611-.123 8.964.288 10.978l.288 1.398-3.41 2.508c-10.127 7.504-17.727 12.294-26.047 16.468-1.274.637-2.321 1.11-2.321 1.028z"/>
    <path fill="#bc7d64" d="M89.734 137.716c-8.566-2.344-14.461-6.764-18.344-13.754-1.972-3.536-3.04-7.319-3.451-12.171-.329-3.968.062-13.301.842-20.826l2.999-31.445.144-2.714.739-.247c.411-.123 1.582-.617 2.588-1.09l1.849-.843 2.568.041a521.72 521.72 0 0 0 8.114 0c10.969-.041 12.407 0 16.228.473 4.704.596 7.559.493 10.271-.308 1.335-.391 1.869-.473 1.931-.288.205.658 1.561 1.85 2.362 2.056.822.226 2.979.164 3.636-.103.288-.123.349.247.452 3.002.164 3.844.493 2.847 1.808 9.056 2.362 11.143 2.547 12.582 2.547 20.661 0 6.312-.164 8.635-.945 13.055-.596 3.454-1.869 8.182-2.958 10.999-5.033 13.055-13.455 20.476-27.156 23.951-3.04.781-4.725.905-6.224.493z"/>
    <path fill="#fff" d="M106.13 87.139c1.645-.712 2.193-1.793 2.657-5.433.886-6.831-.38-9.811-3.796-8.914-2.193.554-2.952 2.585-3.627 9.521-.253 2.532-.211 3.165.38 3.877 1.097 1.345 2.699 1.688 4.386.949zm-27.42-.943c1.405-.784 1.785-1.934 2.051-6.535.266-4.758 0-6.274-1.216-7.267-.874-.68-.874-.706-2.203-.261-1.747.575-2.393 1.934-2.925 6.091-.608 4.627-.57 6.457.152 7.372.912 1.255 2.507 1.464 4.14.601z"/>
    <path fill="#111" d="M104.889 88.122c1.212-.555 1.616-1.398 1.958-4.235.653-5.325-.28-7.648-2.798-6.949-1.616.432-2.176 2.015-2.673 7.422-.187 1.974-.155 2.467.28 3.022.808 1.048 1.989 1.316 3.233.74zm-26.892-.905c1.162-.617 1.476-1.521 1.695-5.14.22-3.742 0-4.934-1.005-5.715-.722-.535-.722-.555-1.821-.206-1.444.452-1.978 1.521-2.417 4.79-.502 3.639-.471 5.078.126 5.798.753.987 2.072 1.151 3.422.473z"/>
    <path fill="#212121" d="M94.376 116.972c2.28-.576 4.992-1.706 5.3-2.2.308-.514-.082-1.48-.637-1.562-.246-.041-1.089.164-1.849.432-3.246 1.172-5.053 1.46-8.894 1.48-3.923 0-5.279-.206-8.689-1.377-1.007-.329-1.951-.555-2.116-.493s-.288.349-.288.617c0 .452.246.658 1.91 1.439 2.177 1.069 4.909 1.891 7.128 2.159 2.342.308 5.875.082 8.134-.493zm49.074-12.829c2.075-.946 3.204-2.57 3.348-4.831.082-1.357.021-1.624-.657-3.187-.411-.925-.739-2.015-.739-2.405 0-2.118 2.753-4.79 4.951-4.811 1.458 0 2.486 1.09 3.389 3.577.39 1.131.514 1.254 1.007 1.254.945 0 1.048-.473.514-2.159-1.212-3.762-4.047-5.654-6.964-4.626-1.89.658-4.334 2.858-5.259 4.687-.822 1.665-.637 3.084.698 5.181 1.376 2.159.534 4.215-2.26 5.551-1.376.658-1.787 1.377-1.109 1.891.534.391 2.116.329 3.081-.123zm-60.618-3.968c.267-.391.267-.514-.021-1.172-.965-2.159-1.171-3.104-.924-4.256.267-1.336 1.212-2.755 2.198-3.372.781-.473.924-1.007.39-1.46-.719-.596-3.472 1.501-4.416 3.351-1.007 1.994-.657 4.955.781 6.558.822.905 1.52 1.028 1.993.349zm30.401-35.443c.205-.082.329-.37.329-.822 0-2.508-3.143-4.975-6.553-5.181-2.65-.144-4.766.925-6.491 3.269-1.027 1.419-1.048 1.46-.596 1.912.472.493.637.411 1.561-.596 1.274-1.398 3.04-2.2 4.848-2.2 1.828 0 2.691.432 4.683 2.323 1.52 1.439 1.643 1.521 2.218 1.295zm-32.661-.822c.226-.082.329-.391.329-.987 0-2.323-3.43-4.03-6.45-3.187-.842.226-2.486 1.624-2.691 2.261-.267.822.801 1.357 1.356.678.452-.555 1.767-1.11 2.629-1.11 1.191 0 1.664.247 2.794 1.419.965 1.007 1.356 1.192 2.034.925z"/>
    <path class="glsr-mascot__eyes" fill="#fff" d="M157.448 192.3c3.482 0 5.977 2.246 7.139 5.905L167.64 208l24.808-.001-1.823 12.306-.354.313-1.392 1.205C168.982 238.771 143.185 249 115 249c-30.221 0-57.695-11.76-78.097-30.952l-1.17-1.118.735-8.931 24.806.001 3.065-9.82c1.082-3.405 3.334-5.599 6.531-5.856l.285-.018.295-.006c3.482 0 5.977 2.246 7.139 5.905l3.053 9.794h22.634l3.064-9.819c1.082-3.405 3.334-5.599 6.531-5.856l.285-.018.295-.006c3.482 0 5.977 2.246 7.139 5.905l3.053 9.794h22.634l3.064-9.819c1.082-3.405 3.334-5.599 6.531-5.856l.285-.018.295-.006z"/>
    <g fill="#212121">
        <use xlink:href="#B"/>
        <use xlink:href="#B" x="-43"/>
        <use xlink:href="#B" x="-86"/>
        <use xlink:href="#B" x="-129"/>
        <use xlink:href="#B" x="-129"/>
        <use xlink:href="#B" x="-172"/>
    </g>
    <g fill="#ffce0a">
        <use xlink:href="#C"/>
        <use xlink:href="#C" x="-43"/>
        <use xlink:href="#C" x="-86"/>
        <use xlink:href="#C" x="-129"/>
        <use xlink:href="#C" x="-172"/>
    </g>
    <defs >
        <path id="B" d="M200.448 197c1.098 0 1.859.798 2.366 2.394l4.203 13.478 13.835-.086c1.626-.022 2.619.496 2.957 1.531.338 1.078-.19 2.07-1.5 3.019l-11.279 8.281 4.415 13.413c.528 1.574.338 2.674-.528 3.343-.887.69-1.964.453-3.274-.518l-11.195-8.389-11.174 8.389c-1.31.971-2.408 1.208-3.274.518-.866-.669-1.056-1.768-.528-3.343l4.415-13.413-11.279-8.281c-1.31-.949-1.859-1.941-1.5-3.019.338-1.035 1.331-1.553 2.957-1.531l13.835.086 4.203-13.478c.507-1.596 1.267-2.394 2.345-2.394z"/>
        <path id="C" d="M200.458 205.277l-2.739 8.785-.882 2.827-2.962-.018-9.219-.058 7.598 5.579 2.34 1.718-.907 2.757-2.917 8.863 7.278-5.463 2.399-1.801 2.401 1.799 7.303 5.473-2.919-8.87-.907-2.757 2.34-1.718 7.598-5.578-9.219.057-2.962.018-.882-2.827z"/>
    </defs>
</svg>
