<svg xmlns="http://www.w3.org/2000/svg" viewBox="0 0 20 20"><path fill="#a7aaad" d="M16.593 2C17.37 2 18 2.63 18 3.407v11.186l-.002.044v.278c0 .051-.004.102-.008.151-.002.006-.004.021-.004.021l-.021.132a1.45 1.45 0 0 1-.341.662l-2.619 2.62c-.266.304-.655.497-1.09.497H2.443a1.44 1.44 0 0 1-.997-.4c-.188-.179-.327-.409-.396-.667l2.224-2.222c.118.226.272.431.453.607l-1.751 1.751a.69.69 0 0 0 .467.181h11.47c.204 0 .392-.088.56-.278L16.445 16H5.407C4.63 16 4 15.37 4 14.593V3.545L2 5.546 1 6.547v-.464a1.44 1.44 0 0 1 .33-.918l.084-.094 2.638-2.638a1.43 1.43 0 0 1 .75-.406c.045-.011.089-.017.134-.021L5.083 2h11.51zM3 13.482v1.061l-2 2.001v-1.062l2-2zm0-2.501v1.062l-2 2.001v-1.062l2-2.001zm12.971-.69h-.976c-.085 0-.155.069-.155.155v.889c0 .133-.109.242-.243.242l-7.221.002c-.133 0-.242-.108-.243-.241v-.887c0-.085-.069-.155-.155-.155h-.976c-.085 0-.155.069-.155.155v.976c0 .085.069.155.155.155h.926c.115.018.204.119.204.24v.888c0 .085.069.155.155.155h7.4c.085 0 .155-.069.155-.155v-.929c.018-.115.118-.203.237-.204h.89c.085 0 .155-.069.155-.155v-.976c0-.085-.069-.155-.155-.155zM3 8.481v1.062l-2 2.001v-1.062l2-2.001zm0-2.499v1.061L1 9.044V7.982l2-2zm10.403-.825h-.976c-.085 0-.155.069-.155.155v3.526c0 .085.069.155.155.155h.976c.085 0 .155-.069.155-.155V5.312c0-.085-.069-.155-.155-.155zm-3.856 0H8.57c-.085 0-.155.069-.155.155v3.526c0 .085.069.155.155.155h.976c.085 0 .155-.069.155-.155V5.312c0-.085-.069-.155-.155-.155z"/></svg>

