<svg xmlns="http://www.w3.org/2000/svg" viewBox="0 0 50 50" fill="#a7aaad"><path d="M14.114 4.001L39.588 4c2.229 0 3.037.232 3.852.668s1.454 1.075 1.89 1.89l.114.223c.344.713.534 1.518.553 3.333l.001 25.476c0 2.229-.232 3.037-.668 3.852-.232.434-.523.819-.866 1.149l-5.874 5.874c-.33.344-.715.634-1.149.866-.815.436-1.623.668-3.852.668H8.41l-.574-.006c-1.802-.038-2.537-.266-3.278-.662l-.239-.137c-.564-.345-1.035-.795-1.402-1.34l5.284-5.284c.394.546.879 1.008 1.447 1.377l-3.674 3.675c.519.245 1.119.375 2.514.375h25.025c1.56 0 2.126-.162 2.696-.467a3.21 3.21 0 0 0 .779-.581l4.951-4.953L14.487 40c-1.56 0-2.126-.162-2.696-.467a3.18 3.18 0 0 1-1.323-1.323l-.102-.203c-.223-.48-.348-1.037-.364-2.228L10 8.06l-7.998 7.994c.024-1.962.254-2.726.666-3.496.232-.434.523-.819.866-1.149l5.874-5.874c.33-.344.715-.634 1.149-.866l.223-.114c.713-.344 1.518-.534 3.333-.553h0zM2 40.061l5-4.999v.247c0 1.046.043 1.832.126 2.459L2.033 42.86l-.021-.465-.011-.521L2 40.061zm5-11.707v2.829l-5 4.998v-2.828l5-4.999zM18.5 25.5H16a.5.5 0 0 0-.5.5v2.5a.5.5 0 0 0 .5.5h2.4a.6.6 0 0 1 .6.6v1.9a.5.5 0 0 0 .5.5h17a.5.5 0 0 0 .5-.5v-1.9a.6.6 0 0 1 .6-.6H40a.5.5 0 0 0 .5-.5V26a.5.5 0 0 0-.5-.5h-2.5a.5.5 0 0 0-.5.5v2.4a.6.6 0 0 1-.6.6H19.6a.6.6 0 0 1-.6-.6V26a.5.5 0 0 0-.5-.5zM7 21.646v2.829l-5 4.998v-2.828l5-4.999zm0-6.708v2.828l-5 4.999v-2.828l5-4.999zM34 12h-2.5a.5.5 0 0 0-.5.5v9a.5.5 0 0 0 .5.5H34a.5.5 0 0 0 .5-.5v-9a.5.5 0 0 0-.5-.5zm-9.5 0H22a.5.5 0 0 0-.5.5v9a.5.5 0 0 0 .5.5h2.5a.5.5 0 0 0 .5-.5v-9a.5.5 0 0 0-.5-.5z"/></svg>
