<svg xmlns="http://www.w3.org/2000/svg" viewBox="0 0 960 540">
	<title>yelp-reviews</title>
	<clipPath>
		<path d="M0 0h960v540H0z"/>
	</clipPath>
	<g fill="none">
		<path fill="#D32323" d="M0 0h960v540H0z"/>
		<path fill="#DB4123" d="M676.33 566.25c2.26-.97 4.22-2.36 5.84-4.03l-4.2-28.26c-4.5-2.5-10.03-3.06-15.2-1.07-8.73 3.33-13.35 12.72-10.93 21.54l24.5 11.8zm-53.78-25.92c7.43-4.4 10.83-13.62 7.63-21.95-3.56-9.3-13.98-13.92-23.27-10.36-7.96 3.06-12.5 11.17-11.38 19.3l27.03 13zm-54.07-26.06c6.17-4.73 8.8-13.12 5.86-20.75-3.57-9.3-14-13.93-23.27-10.36-7.28 2.8-11.7 9.8-11.56 17.15l28.98 13.97zm95.87-71.8c-3.72 4.8-4.92 11.4-2.58 17.48 1.33 3.45 3.6 6.26 6.4 8.25l-3.82-25.74zM317.7 549.82c-.2-1.25-.52-2.5-1-3.72-3.55-9.28-13.97-13.92-23.26-10.35-9.3 3.56-13.92 13.98-10.36 23.27.83 2.17 2.04 4.1 3.53 5.7l31.1-14.9zm39.48-18.9c-.04-.1-.08-.2-.1-.3-3.58-9.3-14-13.94-23.28-10.37-9.3 3.56-13.93 13.98-10.36 23.27.4 1 .86 1.98 1.4 2.88l32.34-15.48zm38.87-18.63c-4.4-7.36-13.6-10.72-21.9-7.54-9.2 3.54-13.84 13.8-10.45 23.04l32.35-15.5zm38.25-18.32c-4.85-5.34-12.65-7.45-19.8-4.7-8.07 3.1-12.64 11.4-11.33 19.6L434.3 494zm37.56-18c-4.76-3.42-11.1-4.46-17-2.2-6.85 2.63-11.17 9-11.53 15.88L471.86 476zm42.3 12.12c5.06-4.87 7-12.48 4.33-19.45-3.58-9.28-14-13.92-23.28-10.36-6.6 2.53-10.86 8.54-11.48 15.14l30.42 14.66zm143.28-92.06c-.27.1-.53.2-.8.3-9.28 3.55-13.92 13.97-10.36 23.26 2.7 7.02 9.3 11.38 16.4 11.55l-5.24-35.1zm-368.9 98.64c5.6 1.33 10.46 5.3 12.68 11.07 3.56 9.3-1.07 19.7-10.36 23.27-2.65 1.02-5.4 1.37-8.03 1.13l5.72-35.47zm367.8-106.13c-.73.4-1.5.75-2.28 1.05-9.3 3.57-19.7-1.07-23.27-10.36-3.57-9.3 1.06-19.7 10.35-23.27 3.38-1.3 6.9-1.5 10.2-.8l4.98 33.38zm-359.5 54.76c1.68-1.58 3.7-2.88 5.97-3.76 9.3-3.56 19.72 1.08 23.28 10.36 3.57 9.3-1.07 19.7-10.36 23.27-8.58 3.3-18.14-.42-22.35-8.34l3.48-21.52zm390.03-137.2c-4.7-6.26-13.17-8.93-20.85-5.98-9.3 3.57-13.93 14-10.36 23.27 1.25 3.27 3.36 5.96 5.97 7.92l25.24-25.2zm67.47-67.37c-3.72-9-13.96-13.45-23.1-9.94-9.3 3.55-13.93 13.97-10.36 23.26 1.84 4.8 5.5 8.36 9.92 10.18l23.54-23.5zm-443.7 105.3c.5-.25 1-.48 1.55-.7 9.27-3.55 19.7 1.1 23.26 10.37 3.56 9.3-1.08 19.7-10.36 23.27-5.96 2.3-12.38 1.2-17.16-2.32l4.63-28.66-1.94-1.97zm459.34-170.68c4.17 1.88 7.62 5.34 9.4 9.95 3.56 9.3-1.08 19.7-10.37 23.27-9.28 3.56-19.7-1.07-23.26-10.36-3.56-9.28 1.07-19.7 10.36-23.26 1.4-.53 2.8-.88 4.22-1.06l9.66 1.47zm14.97 2.27c.13 1.7.5 3.42 1.15 5.1 2.5 6.5 8.37 10.74 14.85 11.45l12.27-12.25-28.27-4.3zM285.2 318.38c.53-6.7 4.8-12.83 11.5-15.4 9.28-3.56 19.7 1.08 23.27 10.37 3.56 9.28-1.08 19.7-10.36 23.27-1.7.65-3.44 1.03-5.18 1.15l-19.23-19.4zm439.46-151.92c-.6 6.64-4.85 12.7-11.5 15.25-9.28 3.57-19.7-1.07-23.27-10.36-1.3-3.4-1.52-6.97-.8-10.3l35.56 5.42zm-96.53-14.67c1.8 8.5-2.78 17.3-11.17 20.53-9.3 3.57-19.7-1.07-23.27-10.36-2-5.2-1.43-10.74 1.1-15.25l33.33 5.07zm30.26 4.6c-.36.15-.72.3-1.08.44-6.54 2.5-13.64.95-18.52-3.43l19.6 3zM238.5 271.3c9.12-3.66 13.64-13.97 10.1-23.17-3.56-9.3-13.97-13.93-23.26-10.36-4.82 1.85-8.4 5.54-10.2 9.96l23.36 23.57zM572.4 133.85c-1.1 5.98-5.2 11.28-11.3 13.62-9.27 3.56-19.7-1.08-23.26-10.36-3.56-9.28 1.08-19.7 10.36-23.26 5.4-2.08 11.2-1.37 15.8 1.4l8.4 18.6zm-235.72 15.9c7.5-.3 14.7 4.15 17.52 11.55 3.57 9.28-1.07 19.7-10.36 23.27-9.28 3.56-19.7-1.08-23.27-10.36-3.56-9.28 1.08-19.7 10.36-23.26.62-.24 1.23-.44 1.85-.6l3.9-.6zm49.12-13.6c3.88 1.94 7.08 5.28 8.76 9.66 3.56 9.3-1.07 19.7-10.36 23.28-9.3 3.56-19.7-1.08-23.27-10.36-1.62-4.23-1.55-8.68-.1-12.62l21.92-3.3 3.05-6.65zm170.03-39.02c-1.82 4.43-5.38 8.13-10.2 9.98-9.3 3.58-19.7-1.06-23.28-10.35-3.56-9.3 1.08-19.7 10.36-23.27 4.15-1.58 8.5-1.55 12.38-.2l10.75 23.85zM171.45 203.65c6.16-4.73 8.77-13.12 5.84-20.74-1.3-3.38-3.52-6.14-6.25-8.12l-24.55 3.7 24.95 25.17zm46.3-35.93c3.36 9.2-1.28 19.44-10.46 22.96-9.3 3.57-19.72-1.07-23.28-10.36-.93-2.4-1.3-4.9-1.18-7.32l34.92-5.28zm41.18-6.22c-1.07 6.02-5.17 11.34-11.3 13.7-8.66 3.32-18.33-.5-22.47-8.6l33.77-5.1zM411.3 80.63c3.6 1.98 6.54 5.2 8.12 9.33 3.57 9.3-1.07 19.7-10.36 23.27-4.27 1.64-8.8 1.54-12.76.05l15-32.65zm127.6-21.06c-2 3.17-5 5.74-8.77 7.2-9.28 3.55-19.7-1.1-23.27-10.37-3.56-9.3 1.08-19.7 10.36-23.27 3.08-1.2 6.28-1.47 9.3-.98l12.38 27.42zM436.78 25.14c3.3 2 6 5.08 7.5 8.97 3.57 9.3-1.06 19.72-10.35 23.28-4.04 1.55-8.28 1.55-12.1.3l14.95-32.54zm84.94-3.66c-1.86 2.12-4.26 3.84-7.08 4.92-9.3 3.56-19.7-1.07-23.27-10.36-3.56-9.3 1.07-19.7 10.36-23.27 2.14-.82 4.34-1.2 6.5-1.2l13.5 29.9zm-59.47-51.8c3.04 2 5.5 4.93 6.9 8.6 3.57 9.27-1.07 19.7-10.36 23.26-3.8 1.45-7.78 1.54-11.4.5l14.85-32.36zm42.1 13.28c-1.5 1.28-3.25 2.34-5.2 3.08-9.3 3.57-19.7-1.07-23.27-10.36-3.56-9.28 1.07-19.7 10.36-23.27 1.28-.48 2.58-.8 3.88-1l14.23 31.56zM486.83-55.9c-.98.62-2.04 1.16-3.17 1.6-3.55 1.35-7.27 1.52-10.7.68l7.5-16.38 6.37 14.1zm173.35 582.06c9.28-3.57 13.92-13.98 10.36-23.27-3.57-9.3-13.98-13.94-23.27-10.37-9.3 3.56-13.93 13.98-10.36 23.27 3.57 9.3 14 13.92 23.28 10.36zm-55.85-24.87c9.3-3.57 13.93-14 10.36-23.27-3.57-9.3-14-13.93-23.28-10.36-9.28 3.56-13.92 13.98-10.36 23.26 3.57 9.3 13.98 13.93 23.27 10.36zm40.36-15.5c9.27-3.56 13.9-13.98 10.35-23.27-3.57-9.28-14-13.92-23.27-10.36-9.3 3.57-13.93 14-10.36 23.27 3.56 9.3 13.98 13.93 23.27 10.36zm-96.22-9.37c9.3-3.56 13.93-13.98 10.36-23.27-3.56-9.3-13.98-13.92-23.26-10.36-9.3 3.57-13.93 13.98-10.37 23.27 3.58 9.3 14 13.93 23.28 10.36zm40.36-15.5c9.3-3.56 13.93-13.97 10.36-23.26-3.56-9.3-13.98-13.93-23.27-10.36-9.3 3.57-13.92 14-10.36 23.28 3.57 9.3 13.98 13.92 23.27 10.36zm40.36-15.48c9.28-3.57 13.92-13.98 10.36-23.27-3.57-9.3-14-13.93-23.27-10.36-9.3 3.56-13.94 13.98-10.37 23.27 3.56 9.27 13.98 13.9 23.27 10.35zm-298 68.08c9.3-3.56 13.94-13.98 10.38-23.27-3.57-9.3-14-13.92-23.27-10.36-9.28 3.57-13.92 13.98-10.35 23.27 3.56 9.3 13.98 13.92 23.26 10.36zm40.37-15.5c9.3-3.56 13.93-13.97 10.36-23.26-3.56-9.3-13.98-13.93-23.27-10.36-9.3 3.57-13.92 14-10.36 23.28 3.57 9.3 13.98 13.92 23.27 10.36zm40.36-15.48c9.28-3.57 13.92-14 10.36-23.27-3.58-9.3-14-13.93-23.28-10.36-9.3 3.56-13.93 13.98-10.36 23.27 3.56 9.27 13.98 13.9 23.27 10.35zm40.35-15.5c9.3-3.56 13.93-13.98 10.36-23.26-3.56-9.3-13.98-13.94-23.27-10.37C430.1 437 425.45 447.4 429 456.7c3.58 9.28 14 13.92 23.28 10.36zm40.36-15.48c9.28-3.57 13.92-14 10.36-23.27-3.57-9.3-14-13.93-23.27-10.36-9.3 3.56-13.93 13.98-10.36 23.27 3.56 9.3 13.98 13.93 23.27 10.37zm40.35-15.5c9.28-3.56 13.92-13.98 10.35-23.26-3.56-9.28-13.98-13.92-23.27-10.36-9.28 3.57-13.92 14-10.36 23.27 3.57 9.3 14 13.94 23.27 10.37zm40.35-15.5c9.3-3.55 13.92-13.97 10.36-23.26-3.56-9.27-13.97-13.9-23.26-10.35-9.3 3.57-13.93 14-10.36 23.27 3.56 9.3 13.98 13.93 23.27 10.36zm40.35-15.48c9.3-3.57 13.93-14 10.37-23.28-3.57-9.28-14-13.92-23.27-10.36-9.3 3.57-13.93 14-10.36 23.27 3.56 9.3 13.98 13.93 23.26 10.36zm-257.62 52.58c9.3-3.56 13.92-13.98 10.36-23.27-3.57-9.27-13.98-13.9-23.27-10.35-9.3 3.57-13.92 14-10.36 23.27 3.57 9.3 14 13.93 23.28 10.36zm40.36-15.5c9.28-3.55 13.92-13.97 10.36-23.26-3.57-9.28-14-13.92-23.27-10.36-9.3 3.57-13.93 14-10.36 23.27 3.56 9.3 13.98 13.93 23.27 10.36zm40.35-15.48c9.28-3.56 13.92-13.98 10.35-23.27-3.56-9.3-13.98-13.92-23.27-10.36-9.3 3.57-13.92 13.98-10.36 23.27 3.57 9.3 13.98 13.93 23.27 10.36zm40.35-15.5c9.28-3.55 13.92-13.97 10.36-23.26-3.56-9.3-13.98-13.92-23.26-10.36-9.3 3.56-13.93 13.98-10.36 23.27 3.56 9.3 13.98 13.92 23.27 10.36zm40.35-15.48c9.3-3.57 13.93-13.98 10.36-23.27-3.56-9.3-13.98-13.93-23.27-10.36-9.3 3.55-13.93 13.97-10.37 23.26 3.57 9.3 14 13.92 23.27 10.36zm40.36-15.5c9.28-3.56 13.92-13.98 10.36-23.26-3.57-9.3-13.98-13.93-23.27-10.36-9.3 3.56-13.93 13.98-10.36 23.27 3.55 9.28 13.97 13.92 23.26 10.36zm40.35-15.48c9.3-3.57 13.94-14 10.37-23.27-3.56-9.3-13.98-13.93-23.27-10.36-9.28 3.57-13.92 14-10.36 23.28 3.57 9.28 14 13.92 23.27 10.36zm40.37-15.5c9.3-3.56 13.92-13.98 10.36-23.26-3.57-9.3-13.98-13.93-23.27-10.36-9.3 3.56-13.92 13.98-10.36 23.27 3.56 9.27 13.98 13.9 23.27 10.35zm-297.98 68.1c9.27-3.58 13.9-14 10.35-23.28-3.57-9.3-13.98-13.93-23.27-10.36-9.3 3.56-13.93 13.98-10.36 23.27 3.56 9.28 13.98 13.92 23.27 10.36zm40.34-15.5c9.3-3.57 13.93-14 10.36-23.27-3.56-9.3-13.98-13.93-23.27-10.36-9.28 3.57-13.92 14-10.36 23.28 3.57 9.28 14 13.92 23.27 10.36zm40.36-15.5c9.3-3.56 13.92-13.98 10.36-23.26-3.56-9.3-13.98-13.93-23.27-10.36-9.3 3.56-13.93 13.98-10.37 23.27 3.56 9.27 13.98 13.9 23.27 10.35zm40.36-15.5c9.28-3.55 13.92-13.97 10.36-23.26-3.57-9.28-14-13.92-23.27-10.36-9.3 3.57-13.93 14-10.36 23.27 3.55 9.28 13.97 13.92 23.26 10.35zM502 355.37c9.3-3.56 13.94-13.98 10.37-23.27-3.56-9.3-13.98-13.93-23.27-10.37-9.28 3.57-13.92 14-10.36 23.27 3.57 9.3 13.98 13.93 23.27 10.36zm40.37-15.5c9.28-3.55 13.92-13.97 10.36-23.26-3.57-9.28-14-13.92-23.27-10.36-9.3 3.57-13.93 14-10.36 23.27 3.56 9.3 13.98 13.94 23.27 10.37zm40.35-15.48c9.3-3.56 13.93-13.98 10.36-23.27-3.56-9.28-13.98-13.9-23.27-10.35-9.27 3.57-13.9 13.98-10.35 23.27 3.57 9.3 14 13.93 23.27 10.36zm40.36-15.5c9.28-3.56 13.92-13.97 10.36-23.26-3.57-9.3-13.98-13.92-23.27-10.36-9.3 3.56-13.93 13.98-10.36 23.27 3.57 9.3 14 13.92 23.28 10.36zm40.35-15.48c9.3-3.57 13.93-13.98 10.36-23.27-3.57-9.3-14-13.93-23.28-10.36-9.28 3.56-13.92 13.98-10.36 23.27 3.57 9.3 14 13.92 23.27 10.36zm40.36-15.5c9.28-3.56 13.9-13.98 10.35-23.26-3.56-9.3-13.98-13.93-23.27-10.36-9.3 3.56-13.92 13.98-10.36 23.27 3.56 9.28 13.98 13.92 23.27 10.36zM365.44 361.5c9.3-3.56 13.93-13.98 10.36-23.27-3.55-9.28-13.97-13.9-23.26-10.35-9.28 3.57-13.92 13.98-10.36 23.27 3.57 9.3 14 13.93 23.27 10.36zm40.36-15.5c9.3-3.56 13.93-13.97 10.37-23.26-3.57-9.3-13.98-13.92-23.27-10.36-9.3 3.56-13.93 13.98-10.36 23.27 3.56 9.3 13.98 13.92 23.27 10.36zm40.36-15.48c9.3-3.57 13.93-13.98 10.36-23.27-3.56-9.3-13.98-13.93-23.26-10.36-9.3 3.56-13.93 13.98-10.37 23.27 3.56 9.28 13.98 13.92 23.26 10.36zm40.36-15.5c9.3-3.56 13.93-13.98 10.36-23.26-3.56-9.3-13.98-13.93-23.27-10.36-9.28 3.56-13.9 13.98-10.35 23.27 3.57 9.28 13.98 13.92 23.27 10.36zm40.36-15.48c9.28-3.57 13.92-14 10.36-23.27-3.57-9.3-14-13.93-23.27-10.36-9.3 3.55-13.93 13.97-10.36 23.26 3.57 9.28 14 13.92 23.28 10.36zm40.35-15.5c9.3-3.56 13.93-13.98 10.36-23.26-3.57-9.3-14-13.93-23.28-10.36-9.28 3.56-13.92 13.98-10.36 23.26 3.57 9.3 13.98 13.93 23.27 10.37zm40.36-15.5c9.27-3.55 13.9-13.97 10.35-23.26-3.57-9.28-14-13.92-23.27-10.36-9.3 3.57-13.93 14-10.36 23.27 3.56 9.3 13.98 13.93 23.27 10.36zm40.34-15.48c9.3-3.56 13.93-13.98 10.36-23.27-3.56-9.28-13.98-13.92-23.27-10.36-9.28 3.58-13.92 14-10.36 23.28 3.57 9.3 14 13.93 23.27 10.36zm40.36-15.5c9.3-3.55 13.92-13.97 10.36-23.26-3.57-9.28-13.98-13.92-23.27-10.36-9.3 3.57-13.94 13.98-10.37 23.27 3.56 9.28 13.98 13.92 23.27 10.35zm40.35-15.48c9.3-3.56 13.93-13.98 10.36-23.27-3.55-9.3-13.97-13.93-23.25-10.37-9.3 3.57-13.93 13.98-10.37 23.27 3.57 9.3 14 13.93 23.27 10.36zm-378.7 99.06c9.3-3.56 13.94-13.98 10.37-23.26-3.56-9.3-13.98-13.93-23.27-10.36-9.28 3.56-13.92 13.98-10.36 23.26 3.56 9.3 13.98 13.93 23.26 10.36zm40.37-15.5c9.28-3.55 13.92-13.97 10.36-23.26-3.57-9.28-14-13.92-23.27-10.36-9.28 3.57-13.92 14-10.35 23.27 3.56 9.3 13.98 13.93 23.27 10.36zm40.35-15.48c9.3-3.56 13.93-13.98 10.36-23.27-3.56-9.28-13.98-13.92-23.27-10.36-9.28 3.58-13.92 14-10.36 23.28 3.57 9.3 14 13.93 23.27 10.36zm40.36-15.5c9.3-3.55 13.92-13.97 10.36-23.26-3.58-9.28-14-13.92-23.28-10.36-9.3 3.57-13.93 13.98-10.36 23.27 3.56 9.28 13.98 13.92 23.27 10.35zm40.35-15.48c9.3-3.56 13.93-13.98 10.36-23.27-3.56-9.3-13.98-13.93-23.26-10.37-9.3 3.57-13.93 13.98-10.36 23.27 3.56 9.3 13.98 13.93 23.26 10.36zm40.36-15.5c9.3-3.56 13.93-13.97 10.36-23.26-3.56-9.3-13.98-13.93-23.27-10.36-9.3 3.56-13.92 13.98-10.36 23.27 3.57 9.3 13.98 13.93 23.27 10.37zm40.36-15.48c9.28-3.57 13.92-13.98 10.36-23.27-3.57-9.28-14-13.92-23.27-10.35-9.3 3.56-13.94 13.98-10.37 23.27 3.56 9.28 13.98 13.92 23.27 10.36zm40.35-15.5c9.3-3.56 13.93-13.98 10.36-23.26-3.55-9.3-13.97-13.93-23.26-10.36-9.28 3.56-13.92 13.98-10.36 23.27 3.57 9.28 14 13.92 23.27 10.36zm40.36-15.48c9.3-3.57 13.93-14 10.37-23.27-3.57-9.3-14-13.93-23.27-10.36-9.3 3.56-13.93 13.98-10.36 23.27 3.56 9.28 13.98 13.92 23.27 10.36zm-378.7 99.06c9.3-3.56 13.94-13.98 10.38-23.27-3.57-9.3-14-13.93-23.27-10.37-9.28 3.57-13.92 13.98-10.35 23.27 3.56 9.3 13.98 13.93 23.26 10.36zm40.37-15.5c9.3-3.56 13.93-13.97 10.36-23.26-3.56-9.3-13.98-13.93-23.27-10.36-9.3 3.56-13.92 13.98-10.36 23.27 3.57 9.3 13.98 13.93 23.27 10.37zm40.36-15.48c9.28-3.57 13.92-13.98 10.36-23.27-3.58-9.28-14-13.92-23.28-10.35-9.3 3.56-13.93 13.98-10.36 23.27 3.56 9.28 13.98 13.92 23.27 10.36zm40.35-15.5c9.3-3.56 13.93-13.98 10.36-23.26-3.56-9.3-13.98-13.93-23.27-10.36-9.28 3.56-13.92 13.98-10.36 23.27 3.58 9.28 14 13.92 23.28 10.36zm40.36-15.48c9.28-3.57 13.92-14 10.36-23.27-3.57-9.3-13.98-13.93-23.27-10.36-9.3 3.56-13.93 13.98-10.36 23.27 3.56 9.28 13.98 13.92 23.27 10.36zm40.35-15.5c9.28-3.56 13.92-13.98 10.35-23.26-3.56-9.3-13.98-13.93-23.27-10.36-9.28 3.56-13.92 13.98-10.36 23.26 3.57 9.3 14 13.93 23.27 10.36zm40.35-15.5c9.3-3.55 13.92-13.97 10.36-23.26-3.56-9.28-13.97-13.92-23.26-10.36-9.3 3.57-13.93 14-10.36 23.27 3.56 9.3 13.98 13.93 23.27 10.36zm40.35-15.48c9.3-3.56 13.93-13.98 10.37-23.27-3.57-9.28-14-13.92-23.27-10.36-9.3 3.56-13.93 13.98-10.36 23.26 3.56 9.3 13.98 13.93 23.26 10.36zM278.62 255.9c9.3-3.56 13.93-13.98 10.36-23.26-3.56-9.3-13.98-13.93-23.27-10.37-9.27 3.57-13.9 14-10.35 23.27 3.57 9.3 14 13.93 23.27 10.36zm40.36-15.5c9.3-3.55 13.92-13.97 10.36-23.26-3.56-9.28-13.98-13.92-23.27-10.36-9.3 3.57-13.92 14-10.36 23.27 3.57 9.3 14 13.93 23.28 10.36zm40.36-15.48c9.28-3.56 13.92-13.98 10.36-23.27-3.57-9.28-14-13.92-23.27-10.36-9.3 3.56-13.93 13.98-10.36 23.26 3.56 9.3 13.98 13.93 23.27 10.36zm40.35-15.5c9.28-3.55 13.92-13.97 10.35-23.26-3.56-9.28-13.98-13.92-23.27-10.36-9.28 3.57-13.92 13.98-10.36 23.27 3.57 9.3 13.98 13.93 23.27 10.36zm40.35-15.48c9.28-3.56 13.92-13.98 10.36-23.27-3.56-9.3-13.98-13.92-23.26-10.36-9.3 3.58-13.93 14-10.36 23.28 3.56 9.3 13.98 13.93 23.27 10.36zm40.35-15.5c9.3-3.56 13.93-13.97 10.36-23.26-3.56-9.3-13.98-13.93-23.27-10.36-9.3 3.56-13.93 13.98-10.37 23.27 3.57 9.28 14 13.9 23.27 10.35zm40.36-15.48c9.28-3.57 13.92-13.98 10.36-23.27-3.57-9.3-13.98-13.94-23.27-10.37-9.3 3.56-13.93 13.98-10.36 23.27 3.55 9.28 13.97 13.92 23.26 10.36zm-297.98 68.08c9.28-3.56 13.92-13.98 10.36-23.27-3.57-9.3-14-13.92-23.27-10.36-9.3 3.58-13.93 14-10.36 23.28 3.57 9.3 14 13.92 23.28 10.36zm40.35-15.5c9.3-3.56 13.93-13.97 10.36-23.26-3.57-9.3-14-13.93-23.28-10.36-9.28 3.56-13.92 13.98-10.36 23.27 3.57 9.28 14 13.9 23.27 10.35zm40.36-15.48c9.28-3.57 13.9-14 10.35-23.27-3.57-9.3-13.98-13.94-23.27-10.37-9.3 3.56-13.93 13.98-10.36 23.27 3.56 9.28 13.98 13.92 23.27 10.36zm121.06-46.48c9.28-3.56 13.92-13.98 10.36-23.26-3.57-9.3-14-13.93-23.27-10.37-9.3 3.57-13.93 14-10.36 23.27 3.55 9.3 13.97 13.93 23.26 10.36zm40.35-15.5c9.3-3.55 13.94-13.97 10.37-23.26-3.56-9.28-13.98-13.92-23.27-10.36-9.28 3.57-13.92 14-10.36 23.27 3.57 9.3 13.98 13.93 23.27 10.36zm40.37-15.48c9.28-3.56 13.92-13.98 10.36-23.27-3.57-9.28-14-13.92-23.27-10.36-9.3 3.57-13.93 14-10.36 23.27 3.56 9.3 13.98 13.93 23.27 10.36zm-55.85-24.86c9.3-3.57 13.93-14 10.36-23.27-3.56-9.3-13.98-13.93-23.27-10.36-9.28 3.57-13.9 14-10.35 23.28 3.57 9.28 13.98 13.92 23.27 10.36zm40.36-15.5c9.28-3.56 13.92-13.98 10.36-23.26-3.57-9.3-14-13.93-23.27-10.36-9.3 3.56-13.93 13.98-10.36 23.27 3.57 9.27 14 13.9 23.28 10.35zm-15.5-40.35c9.3-3.57 13.93-14 10.37-23.28-3.57-9.3-14-13.92-23.27-10.36-9.3 3.57-13.93 13.98-10.36 23.27 3.56 9.3 13.98 13.93 23.26 10.36z"/>
		<path fill="#C7C6C2" d="M626.86 150c-.68 0-1.4 0-2.1.1-7.68.6-15.38 1.93-22.86 3.93-7.52 2-14.83 4.7-21.78 8.05-6.8 3.22-12 9.2-14.23 16.4-2.25 7.17-1.38 15.1 2.38 21.63l17.95 31.1c-2.44-.72-5-1.1-7.57-1.1-11.52 0-21.78 7.24-25.6 18.07-3.1-2.56-6.56-4.83-10.44-6.62-6.86-3.28-14.46-4.98-22.13-4.98-5.56 0-11 .9-16.12 2.68-3.97-1.97-8.35-2.98-12.83-2.98-5.37 0-10.67 1.5-15.2 4.32v-1.44c0-16.02-13.07-29.05-29.1-29.05-16.1 0-29.1 13.04-29.1 29.06v10.74c-.6-.54-1.26-1.07-1.9-1.55-12.22-9.7-25.64-11.16-32.5-11.16-5.37 0-19 1.1-31.62 10.73-3.58-4.38-8.35-7.6-13.87-9.3-2.84-.9-5.76-1.32-8.65-1.32-12.7 0-23.77 7.98-27.8 19.94l-1.7-3.43c-4.9-10-15.2-16.46-26.36-16.46-4.42 0-8.86 1.02-12.83 3-7.06 3.42-12.34 9.38-14.9 16.78-2.5 7.4-2.03 15.36 1.4 22.37l25.2 51.57c-7.46 3.5-12.82 9.84-15.12 18.02-2.45 8.64-.9 17.64 4.3 24.74 4.05 5.5 12.02 12.1 26.9 12.53h1.67c25.18 0 36.2-14.7 41.05-27.05.53-1.38.98-2.7 1.4-3.94v-.1l5.2-16.7c8.94 16.4 24.84 25.45 44.8 25.45h.6c16.3-.15 29.52-4.7 39.37-13.48 5.37 8.26 14.52 13.27 24.4 13.27 5.37 0 10.65-1.5 15.2-4.32v1.4c0 16.02 13.02 29.05 29.04 29.05 7.67 0 14.86-2.9 20.3-8.23 5.06-4.9 8.04-11.34 8.64-18.2 17.8-.3 28.85-7.87 35.02-14.23 9.2-9.4 14.44-22.8 15.6-39.83 1.6.36 3.28.48 4.9.48.9 0 1.7 0 2.5-.06-3.46 5.27-4.98 11.68-4.24 18.04.9 7.75 5.16 14.76 11.58 19.18 10.32 7.1 22.25 11.93 34.54 14.02 1.5.24 3.04.35 4.53.35 13.28 0 24.3-9.4 26.67-22.08 5.13 5.97 12.53 9.43 20.6 9.43 6.25 0 12.4-2.2 17.3-6.2 9.53-7.94 17.47-18.1 22.87-29.4 3.4-7 3.6-15.2.48-22.36-2.53-5.9-7.07-10.66-12.7-13.53 5.72-2.62 10.44-7.2 13.12-13 3.37-7.04 3.5-15.22.4-22.37-5.08-11.64-12.45-21.78-21.97-30.22-4.98-4.4-11.33-6.8-17.95-6.8-7.46 0-14.56 3.04-19.63 8.35v-36.18c0-14.98-12.17-27.15-27.15-27.15h.1-.04z"/>
		<path fill="#fff" d="M626.86 151.85c13.96 0 25.3 11.33 25.3 25.3v41.25l.48-.75c4.7-6.98 12.52-11.12 21-11.12 6.14 0 12.08 2.24 16.7 6.26 9.3 8.25 16.56 18.2 21.48 29.58 2.9 6.7 2.77 14.32-.3 20.88-3.16 6.57-8.95 11.52-15.93 13.52l-.84.24.8.3c6.95 2.2 12.53 7.33 15.45 14 2.94 6.73 2.8 14.33-.34 20.9-5.28 11.03-13.04 20.97-22.44 28.75-4.53 3.73-10.23 5.8-16.1 5.8-8.77 0-16.8-4.5-21.48-11.94l-.45-.72v.9c-.5 13.67-11.64 24.4-25.28 24.4-1.4 0-2.8-.1-4.17-.35-12.05-2-23.72-6.74-33.8-13.66-6.05-4.13-9.96-10.66-10.83-17.9-.9-7.23 1.43-14.48 6.33-19.88l.5-.65-.83.2c-2.03.45-4.12.7-6.18.7-2.3 0-4.47-.3-6.62-.9-.6 11.63-3.34 28.7-15.2 40.86-6.04 6.27-17.02 13.63-34.7 13.63h-.7c-.38 14.7-12.43 26.55-27.2 26.55-14.97 0-27.14-12.22-27.14-27.22l-.1-4.95c-4.6 3.8-10.55 6.05-17 6.05-10.34 0-19.38-5.8-23.98-14.32-7.57 7.46-19.98 14.32-39.85 14.56h-.6c-19.6 0-35.1-8.95-43.67-25.24-.6-1.07-1.07-2.14-1.58-3.28l-6.56 21.12v.12c-.4 1.26-.84 2.5-1.34 3.88-4.63 11.75-15.22 25.8-39.32 25.8h-1.6c-14.15-.3-21.67-6.56-25.48-11.78-4.87-6.56-6.33-15-4-23.12 2.38-8.4 8.1-14.6 15.8-17.6l-25.94-53.4c-3.3-6.56-3.7-14-1.32-21 2.4-6.9 7.34-12.52 13.93-15.74 3.76-1.8 7.9-2.78 12.06-2.78 10.44 0 20.13 6.06 24.7 15.42l3.75 7.67 1.2-3.8c3.58-11.63 14.1-19.4 26.25-19.4 2.68 0 5.46.46 8.05 1.27 5.82 1.8 10.74 5.36 14.2 10.2 12.53-10.38 26.4-11.52 31.92-11.52 6.65 0 19.57 1.43 31.32 10.74 1.8 1.42 3.43 2.97 4.92 4.47V239.1c0-14.97 12.23-27.2 27.15-27.2 15 0 27.13 12.23 27.13 27.2v4.98c4.77-3.75 10.68-6.02 17.12-6.02 4.57 0 8.9 1.13 12.7 3.16 5.08-1.85 10.63-2.8 16.24-2.8 7.36 0 14.76 1.67 21.35 4.77 4.83 2.32 8.83 5.15 12.1 8.34.25-.77.5-1.55.72-2.3 3.5-10.3 13.13-17.2 24-17.2 3.8 0 7.62.9 11.08 2.56l.78.36-20.58-35.7c-3.58-6.16-4.4-13.52-2.3-20.24 2.1-6.7 6.92-12.3 13.25-15.3 6.86-3.28 14.02-5.96 21.47-7.93 7.3-2 14.92-3.3 22.46-3.9.66-.05 1.35-.08 2-.08v.06l.03-.03z"/>
		<path fill="#C0282A" d="M582.03 250.35l33.56 16.34c6.43 3.16 5.42 12.64-1.5 14.37l-36.25 9.04c-4.47 1.12-8.95-2-9.54-6.6-1.1-9.9 0-19.7 3.08-28.7 1.5-4.4 6.5-6.48 10.65-4.48v.03zm13.42 69.02l24.97-27.74c4.77-5.3 13.66-1.73 13.42 5.43l-1.3 37.3c-.2 4.67-4.4 8.1-8.96 7.33-9.66-1.62-18.8-5.38-26.76-10.84-3.87-2.63-4.47-8.06-1.37-11.5zm59.15-36.92l35.5 11.63c4.48 1.4 6.57 6.4 4.63 10.6-4.18 8.73-10.2 16.5-17.75 22.75-3.58 2.98-8.95 2.1-11.46-1.88l-19.77-31.62c-3.8-6.12 2.08-13.63 8.88-11.43l-.03-.05zm36.1-22.56l-35.8 10.26c-6.92 2-12.53-5.73-8.5-11.7l20.88-30.93c2.57-3.88 7.97-4.57 11.43-1.5 7.17 6.27 13.04 14.2 17 23.33 1.8 4.3-.47 9.25-4.94 10.53h-.06zm-83.73-87.1c-6.48 1.78-12.62 4.02-18.5 6.85-4 1.88-5.52 6.86-3.28 10.74l35.04 60.72c3.94 6.8 14.32 4 14.32-3.87v-70.1c0-4.48-3.8-8.06-8.23-7.67-6.42.5-12.9 1.6-19.33 3.34l-.03-.03z"/>
		<path fill="#0C0D0B" d="M532.72 301.1c-.15 18.13-4.33 23.9-13.63 23.9-8.66 0-13.14-5.3-13.82-18.78-.15-1.8-.15-3.37-.15-4.98 0-1.28 0-2.57.1-3.88.8-14.74 3.7-19.7 10.58-21.18 11.7-2.68 17.16 3.88 16.83 24.9h.08zm19.03-4.6c0-12.53-1.55-29.84-17.45-37.38-8.95-4.27-20.05-4.18-28.55.7-1.7 1.03-3.4 2.1-4.9 3.24-1-4.18-4.76-7.34-9.33-7.34-5.28 0-9.54 4.32-9.54 9.63v95.55c0 5.28 4.26 9.54 9.54 9.54 5.3 0 9.64-4.3 9.64-9.6v-25.06l.83 1.34c3.87 3.52 10.08 6.63 15.86 6.8 36.5 1.2 34.1-38.68 33.9-47.43zm-94.86 38.18c0 5.37-4.33 9.66-9.64 9.66-5.37 0-9.67-4.3-9.67-9.6V239.1c0-5.28 4.32-9.6 9.6-9.6 5.28 0 9.54 4.32 9.54 9.6v95.55h.12l.03.03zm-87.4-43.85c.6-13.3 10.73-15.5 15.2-15.5 4.57 0 14.62 2.22 15.22 15.68-.12.75-.42 1.14-.84 1.14h-28.75c-.45 0-.72-.48-.8-1.34l-.04.03zm4.17 17.12h35.3c4.76-.36 9.3-4.33 9.32-10.68 0 0 0 0 0-.06v-.47c-1.8-35.08-24.3-40.15-34.5-40.15-10.6 0-34.68 6.27-34.68 45.28.15 14.62 3.64 42.96 34.12 42.66 15.5-.12 25.3-5.37 30.9-13.27 1.08-2.18 1.74-4.18 1.7-6.42-.08-5.2-4.77-10.26-10.26-8.44-2.47.83-4.83 3.27-9.33 6.94-8.47 4.95-18.2 4.18-22.85-1.64-1.73-2.18-3.04-5.37-3.73-9.25-.12-.44-.15-.9-.15-1.28 0-2.24 1.2-3.1 4.12-3.22h.03zm-78.75 24.4l-30.04-61.48c-2.4-4.92-.36-10.83 4.53-13.2 4.93-2.5 10.84-.43 13.23 4.46l23.26 47.6 14.3-46.23c1.62-5.16 7.17-8.05 12.36-6.47 5.2 1.58 8.1 7.16 6.5 12.32l-24.76 80.03v.06c-.3.9-.6 1.8-.95 2.63-4.1 10.44-11.54 14.9-24.1 14.6-12.4-.28-14.32-7.6-12.98-12.42 1.5-5.3 5.97-6.87 10.3-6.87 4.38 0 6.67 0 8.17-1.1 2.26-1.73 4.05-6.26.23-14.08l-.08.06.02.1z"/>
	</g>
</svg>
