<svg xmlns="http://www.w3.org/2000/svg" width="24" height="24" viewBox="0 0 32 32"><path fill="currentColor" d="M16 4c6.678 0 12 5.322 12 12s-5.322 12-12 12c-.939 0-1.983-.104-2.817-.313v-.104c.522-.104.939-.313 1.252-.73.313-.313.417-.626.417-1.043.417.104.73.104 1.148.104 5.426 0 9.913-4.487 9.913-9.913S21.426 6.087 16 6.087 6.087 10.574 6.087 16c0 1.565.313 2.922.939 4.278-.209.417-.522.73-.73 1.252l-.104.313v.209c-.104.209-.104.417-.104.73C4.73 20.8 4 18.504 4 16 4 9.322 9.322 4 16 4zm-5.739 14.191c0 .104.104.209.104.313.209.626.104 1.878 0 2.609 0 .209-.104.522-.104.73h.104c1.043-.209 2.191-1.148 3.339-1.67.522-.313 1.148-.522 1.67-.522.313 0 .522 0 .73.209.313.209.522.835 0 1.252-.104.104-.313.209-.522.313-.626.313-1.252.73-1.878 1.043-.313.209-.313.417-.209.835s.209.939.209 1.357a1.81 1.81 0 0 1-.313 1.461c-.209.313-.522.417-.939.522-.209.104-.522.209-.835.209l-.835.104-.173-.016-.385-.072a1.14 1.14 0 0 0-.173-.016c-.835-.104-1.461-.417-1.983-1.043-.626-.522-.835-1.357-.939-2.191v-.313c0-.313 0-.626.104-.835v-.104c.104-.522.417-.939.626-1.357.313-.417.522-.939.626-1.357s.104-.522.313-.835c0-.313.104-.522.313-.626a.68.68 0 0 1 1.148 0zm5.948-2.504c1.461 0 2.713.522 3.652 1.774.104.104.209.209.209.313 0 .209-.104.626-.209.626-.209.104-.313 0-.417-.104-.209-.209-.417-.522-.73-.626a4.15 4.15 0 0 0-2.191-.939c-1.357-.104-2.609.104-3.757.626h-.313c-.209 0-.313-.417-.313-.626-.104-.104 0-.313.209-.417l.313-.095.626-.228a3.81 3.81 0 0 1 .313-.095c.835-.209 1.774-.313 2.609-.209zm4.8-5.53c1.043 0 1.774.73 1.774 1.774 0 .939-.73 1.774-1.774 1.774-.939 0-1.67-.835-1.67-1.774 0-1.043.73-1.774 1.67-1.774zm-8.348-.939c.939 0 1.67.835 1.67 1.774 0 1.043-.73 1.774-1.774 1.774-.939 0-1.67-.73-1.67-1.774 0-.939.73-1.774 1.774-1.774z"/></svg>
