<svg xmlns="http://www.w3.org/2000/svg" width="24" height="24" viewBox="0 0 32 32"><path fill="currentColor" d="M13.1 7c-.3.635-.4 1.376-.4 2.118 0 1.376.5 2.541 1.3 3.494.9.953 2 1.482 3.2 1.482l.257-.007c1.188-.065 2.203-.586 3.043-1.475.9-.953 1.3-2.224 1.3-3.494 0-.741-.1-1.482-.4-2.118H26v16.412c0 .847-.7 1.588-1.5 1.588h-16v-7.2l-.092.052c-.196.117-.465.311-.808.583-.6.424-1.3.741-2.1.741-1.3 0-2.4-.741-3-1.906a3.82 3.82 0 0 1-.5-1.905c0-2.118 1.6-3.706 3.4-3.812h.1c.8 0 1.5.318 2.1.847l.9.635V7z"/></svg>
