<svg xmlns="http://www.w3.org/2000/svg" width="24" height="24" viewBox="0 0 32 32"><path fill="currentColor" d="M21.843 18.609l5.53 5.53a2.4 2.4 0 0 1 0 3.235c-.892.793-2.161.833-3.091.119l-.144-.119-5.53-5.53a9.59 9.59 0 0 0 3.235-3.235zM12.974 4c5.009 0 9.078 4.07 9.078 8.974 0 5.009-4.07 8.974-9.078 8.974C8.07 21.948 4 17.983 4 12.974 4 8.07 8.07 4 12.974 4zm0 2.296a6.73 6.73 0 0 0-6.678 6.678c0 3.757 3.026 6.783 6.678 6.783a6.77 6.77 0 0 0 6.783-6.783c0-3.652-3.026-6.678-6.783-6.678zm0 1.461v1.461a3.74 3.74 0 0 0-3.751 3.556l-.005.201H7.757c0-2.817 2.4-5.217 5.217-5.217z"/></svg>
