<svg xmlns="http://www.w3.org/2000/svg" width="24" height="24" viewBox="0 0 32 32"><path fill="currentColor" d="M20.783 7c1.867 0 3.15 1.376 4.317 2.753.933 1.165 2.8 4.129 3.733 5.718.233.318.467.635.583.953v.106c.35.741.583 1.588.583 2.435C30 22.247 27.083 25 23.583 25c-2.1 0-3.85-.953-5.017-2.329h-5.133A6.51 6.51 0 0 1 8.417 25C4.917 25 2 22.247 2 18.965c0-.847.233-1.694.583-2.435v-.106l.083-.191c.127-.254.314-.508.5-.762L6.9 9.753C8.067 8.376 9.35 7 11.217 7c.467 0 .933.106 1.4.212 1.283.423 2.683 1.059 3.033 2.647h.7c.35-1.588 1.75-2.224 3.033-2.647.467-.106.933-.212 1.4-.212zM8.417 14.412c-2.217 0-4.083 1.906-4.083 4.235s1.867 4.235 4.083 4.235 4.083-1.906 4.083-4.235-1.867-4.235-4.083-4.235zm15.167 0c-2.217 0-4.083 1.906-4.083 4.235s1.867 4.235 4.083 4.235 4.083-1.906 4.083-4.235-1.867-4.235-4.083-4.235z"/></svg>
