<svg xmlns="http://www.w3.org/2000/svg" width="24" height="24" viewBox="0 0 32 32"><path fill="currentColor" d="M16 4c6.678 0 12 5.322 12 12s-5.322 12-12 12S4 22.678 4 16 9.322 4 16 4zm-.203 15.661c-.814 0-1.492.542-1.492 1.356s.678 1.356 1.492 1.356 1.356-.542 1.356-1.356-.542-1.356-1.356-1.356zm.271-10.034c-2.576 0-3.932 1.492-4.068 3.526h2.034c0-1.085.814-1.763 1.898-1.763s1.763.678 1.763 1.627c0 .814-.271 1.22-1.356 1.898-1.22.678-1.763 1.492-1.627 2.712v.678h2.034v-.542c0-.814.271-1.22 1.356-1.898 1.22-.679 1.898-1.628 1.898-2.984 0-1.898-1.627-3.254-3.932-3.254z"/></svg>
