<svg xmlns="http://www.w3.org/2000/svg" width="24" height="24" viewBox="0 0 32 32"><path fill="currentColor" d="M28 16c0-6.634-5.383-12-12-12C9.366 4 4 9.366 4 16s5.366 12 12 12c6.617 0 12-5.366 12-12zm-10.8 2.537h-2.674V17.8c0-.651.137-1.2.411-1.68s.789-.977 1.509-1.526c.703-.497 1.166-.909 1.389-1.217.24-.309.343-.669.343-1.063 0-.429-.154-.754-.48-.994-.326-.223-.771-.326-1.354-.326-.994 0-2.143.326-3.429.977l-1.097-2.194c1.491-.84 3.086-1.269 4.749-1.269 1.389 0 2.486.343 3.291.994.823.669 1.217 1.56 1.217 2.657 0 .737-.154 1.371-.497 1.903-.326.549-.977 1.149-1.903 1.817-.651.48-1.046.84-1.217 1.08-.171.257-.257.583-.257.977v.6h0zm-2.52 4.697c-.309-.291-.463-.72-.463-1.251 0-.566.137-.994.446-1.286s.737-.429 1.32-.429c.549 0 .977.154 1.286.446s.463.72.463 1.269c0 .514-.154.943-.463 1.234-.309.309-.737.463-1.286.463-.566 0-.994-.154-1.303-.446z"/></svg>
