<svg xmlns="http://www.w3.org/2000/svg" width="24" height="24" viewBox="0 0 32 32"><path fill="currentColor" d="M22.513 11.119C23.471 9.976 24 8.542 24 7.083V4H8v3.083c0 1.459.528 2.892 1.487 4.035l3.087 3.68c.566.677.57 1.625.009 2.306l-3.13 3.794C8.516 22.034 8 23.453 8 24.893V28h16v-3.107c0-1.44-.517-2.858-1.453-3.994l-3.13-3.794a1.78 1.78 0 0 1 .009-2.306l3.087-3.68zM22 6.999a4.3 4.3 0 0 1-1.02 2.834L20.002 11h-8.004l-.978-1.167C10.36 9.048 10 8.097 10 6.999h12zm-.996 15.172c.652.791.996 1.725.996 2.829h-1.061C19 23 16 23 16 23s-3 0-4.939 2H10a4.3 4.3 0 0 1 .996-2.829l3.129-3.793c.342-.415.571-.886.711-1.377H15v1h2v-1h.163c.141.491.369.962.711 1.376l3.13 3.794zM15 21h2v1h-2v-1zm0-2h2v1h-2v-1z"/></svg>
