<svg xmlns="http://www.w3.org/2000/svg" width="256" height="256" viewBox="0 0 512 512">
    <path fill="#fde76f" d="M0 0h512v512H0z"/>
    <path fill="#fff" d="M256 49c114.323 0 207 92.677 207 207s-92.677 207-207 207S49 370.323 49 256 141.677 49 256 49z"/>
    <path fill="#212121" d="M256 49c114.323 0 207 92.677 207 207 0 37.667-10.061 72.984-27.642 103.411C366.89 290.471 307.104 256 256 256c-52.119 0-112.604 33.232-181.454 99.697C58.264 326.125 49 292.145 49 256c0-114.323 92.677-207 207-207z"/>
    <path fill="#fff" d="M256 56.2c110.346 0 199.8 89.454 199.8 199.8S366.346 455.8 256 455.8 56.2 366.347 56.2 256 145.654 56.2 256 56.2z"/>
    <path fill="#26a69a" d="M256 76c-99.411 0-180 80.589-180 180s80.589 180 180 180 180-80.589 180-180S355.411 76 256 76z"/>
    <path fill="#212121" d="M269.385 29.882l1.997 1.813 2.736-.925.722-.234c1.695-.53 2.664-.65 5.073-.58l2.015.074c2.55.112 3.508.32 5.008.988l2.415 1.122 2.255-.74c2.773-.925 7.987-.999 11.166-.185 7.321 1.887 13.052 8.141 14.235 15.505l.444 2.701 1.923.444c3.697.818 7.566 3.69 9.37 6.936l1.131 2.168 2.736-.148c6.618-.259 12.83 3.368 15.751 9.214 1.257 2.516 1.701 9.14 3.291 9.732.694.255 1.387.411 2.06.552l.666.138.434.095.425.104c2.171.571 3.926 1.718 4.475 6.826-.832 1.969 6.21 9.552 8.911 11.435-1.415 4.848-8.911 15.949-18.931 15.949l-1.681 7.586-4.391 18.739-1.885 7.547-4.91 19.231c6.563 10.984 6.091 27.437.581 40.51-6.312 14.976-29.72 18.207-44.026 11.408-12.95 28.388-8.152 48.58-7.58 49.699 76.721 1.089 90.89 82.884 103.109 109.799-15.416 16.873-34.006 30.801-54.825 40.84l-1.942-3.866c-.832-1.63-1.469-2.787-1.714-2.861l-.256 2.466-.722 6.413C307.023 430.418 282.163 436 256 436c-34.222 0-66.213-9.55-93.454-26.131l.928-5.324-.693.535c-1.901 1.499-2.277 2.099-3.011 3.061-20.574-13.036-38.32-30.133-52.115-50.161l4.797-4.243c23.645-20.859 42.502-36.606 69.891-57.849l5.595-4.325c3.932-3.03 19.964-13.69 36.078-15.724.055-1.825.069-3.338.073-5.252l.001-2.075c-33.172-1.841-48.97-21.231-55.532-39.411-3.858-10.688-2.722-29.156-.883-49.216l1.141-12.085.664-7.607.367-4.651 1.554-22.097 1.312-19.826.315-4.194c.095-1.226-1.517-1.265-2.006-5.783l-.045-.467c-1.524-17.898-8.166-19.251-8.93-20.986-1.294-2.812-1.22-7.068.148-9.881 1.294-2.664 4.03-5.144 7.506-6.883l2.625-1.295.222-3.368c.07-1.167 1.174-3.708 3.864-4.396 1.576-.403 3.882 0 5.971.566s2.551-.814 2.958-2.479c.961-3.775 3.328-7.216 6.397-9.399 2.192-1.532 5.4-2.77 7.496-2.91l.757-.024c.796-.057 1.046-.368 1.693-1.728 1.405-2.923 4.474-5.699 7.913-7.142l.738-.305c2.079-.835 3.078-.968 6.472-1.101l1.115-.031c2.286-.044 3.756.068 5.146.396l2.649.671 1.479-1.11c.813-.592 2.847-1.517 4.511-2.109l.919-.309c2.08-.669 3.124-.727 7.289-.727l1.638.024c2.657.059 4.05.216 5.685.651l1.842.512c1.586.42 1.719.313 2.483-.298 1.22-.962 3.808-2.109 5.694-2.553 4.363-.999 9.059.111 12.128 2.923z"/>
    <path fill="#ffb74d" d="M170.292 398.032l27.959.002 5.859.016 16.437.194 4.622.11 1.436.049.705.031c8.21.286 15.09.753 21.966 1.486l2.293.255c5.722.659 11.543 1.509 18.22 2.598l2.787.462 5.946 1.065 12.248 2.326 10.303 2.065.887.185-.005.053 6.775 1.419c8.612 1.829 15.187 3.334 15.489 3.636.096.12-.586 5.381-1.128 9.101a178.84 178.84 0 0 1-22.218 7.279l-1.763.441-1.63.394-1.788.412-2.158.472A180.86 180.86 0 0 1 256 436c-21.717 0-42.535-3.846-61.811-10.894l-1.604-.595-1.253-.477-1.753-.686-1.804-.728-1.663-.691-1.558-.666-1.882-.828-1.972-.895-.806-.374-1.008-.475-3.597-1.757-2.104-1.075-1.575-.828-1.932-1.043-1.939-1.077.529-3.137.563-3.626c.525-3.305 1.047-6.356 1.276-7.261l.112-.671c0-.005.012-.01.035-.015l.039-.17zm115.066-125.264c31.724 3.59 52.541 15.32 67.775 38.116l.779 1.183c7.22 11.102 13.155 24.009 21.534 46.845l2.451 6.699 5.001 13.364 1.297 3.383c-12.901 13.088-27.792 24.21-44.182 32.875l-1.008-1.623-3.619-6.03-6.921-11.909-4.094-7.203-1.631-2.831-4.601-7.918-5.369-9.254-11.798-19.74-.122-.167c-.555-.777-1.22-1.221-1.738-1.221-.998 0-2.071 1.073-2.071 2.035 0 .717 6.6 13.254 13.873 26.458l4.602 8.332c.245.454.382.716.382.736l-.052-.002c-.396-.045-2.993-.533-6.123-1.146-24.81-4.922-53.65-8.067-85.708-9.399-17.809-.722-35.196-.106-46.987 1.674l-1.631.255c-.769.113-1.344.172-1.373.144l.193-1.305 3.616-22.231 1.663-10.091c1.524-9.461 2.093-13.822 1.923-14.333-.185-.481-.776-1.073-1.331-1.258l-.295-.094c-1.632-.453-2.038.828-4.031 10.974l-1.168 6.017-6.967 37.021-2.292 12.508-1.294 1.184-1.05 1.018-1.198 1.194-7.383 7.588a180.98 180.98 0 0 1-43.091-41.503l2.698-2.029.82-.635c3.045-2.378 6.142-5.001 10.892-9.182l4.027-3.557 19.434-16.648 7.437-6.249 18.026-14.887 2.131-1.715c12.988-10.376 23.203-17.07 32.884-21.598l1.018-.464c4.401-1.96 12.429-5.05 13.18-5.05.285 0 .38.68.285 2.598l-.126 2.185c-.138 2.129-.353 2.927-1.512 5.355l-.865 1.778c-2.182 4.441-5.953 14.839-5.953 16.468 0 1.147 1.516 2.812 2.625 2.775 1.118 0 8.668-3.203 16.498-6.986l2.138-1.044c11.98-5.884 23.442-12.878 33.203-20.242l.812-.624c4.447-3.441 10.578-8.604 11.796-9.997.629-.666.961-.74 2.588-.592z"/>
    <path fill="#ffecb3" d="M322.185 407.432c-3.919-1.258-17.97-4.7-24.773-6.032-24.884-4.922-58.383-8.659-86.891-9.658-12.793-.444-28.988.111-37.936 1.295l-1.516.222.961-5.847.998-5.847 10.871-.222c52.208-1.073 59.936-.888 86.891 2.294 11.055 1.295 16.38 2.072 27.916 4.071 7.913 1.369 20.928 3.923 21.076 4.145.037.037 1.479 2.664 3.217 5.81l3.18 5.736-.407 2.516c-.222 1.369-.481 2.479-.592 2.442-.111 0-1.479-.444-2.995-.925z"/>
    <path fill="#ff9800" d="M324.218 413.982c.096.12-.586 5.381-1.128 9.101a178.84 178.84 0 0 1-22.218 7.279l-.719.181.135-1.129c.494-4.313 1.188-12.192 1.411-16.062l.254-4.425 6.775 1.419c8.612 1.829 15.187 3.334 15.489 3.636zm-13.914-49.753l1.565 1.757c2.189 2.406 9.499 8.822 14.998 13.156l1.304 1.014c6.558 5.044 15.127 10.92 24.888 17.137l7.845 4.996a180.05 180.05 0 0 1-20.891 12.944l-1.008-1.623-1.487-2.449-2.132-3.581-6.921-11.909-4.094-7.203-1.631-2.831-4.601-7.918-5.369-9.254-2.466-4.234zm5.396 20.272l.199.395-.052-.002-.781-.129-3.31-.622-2.032-.395-8.356-1.628c.038 0 .063-.651.074-1.778l.004-1.954-.068-6-.306-14.506.031-.247 8.062 15.006 6.535 11.861zm-147.523-6.354l-2.84 15.482-1.294 1.184-1.05 1.018-1.198 1.194-7.383 7.588a180.84 180.84 0 0 1-13.984-10.61l2.243-2.336c3.04-3.161 6.36-6.831 9.647-10.617l1.476-1.71c9.483-11.056 18.297-22.605 18.827-25.123l-4.444 23.929z"/>
    <path fill="#ffcc80" d="M319.782 391.853l.401.71 2.816 5.1 3.18 5.736-.407 2.516c-.222 1.369-.481 2.479-.592 2.442a2.48 2.48 0 0 1-.336-.087l-2.659-.838c-3.919-1.258-21.164-5.495-20.151-5.181.37.111.739-13.396.407-13.766-.041-.041 1.512.21 4.659.752 6.415 1.212 12.581 2.463 12.683 2.616z"/>
    <path fill="#37474f" d="M340.82 90.183c-1.257-.444-4.4-2.146-7.025-3.775-5.176-3.145-7.617-4.182-10.02-4.219-.85 0-3.661.444-6.286.962-8.726 1.739-12.497.888-16.824-3.886l-2.255-2.516-2.995 1.406c-7.284 3.479-14.494 3.886-20.706 1.147-2.071-.925-6.101-3.701-8.024-5.514-1.59-1.517-1.923-1.48-5.509.629-4.363 2.553-8.763 3.219-12.83 2.035-1.59-.481-2.292-.999-4.4-3.368-1.368-1.517-2.995-3.034-3.624-3.368-1.479-.777-3.771-.481-9.392 1.147-7.987 2.331-11.351 1.628-14.827-2.96a74.63 74.63 0 0 1-2.071-2.886c-.333-.592-.481-.555-2.071.296-5.694 3.182-13.163 3.664-18.081 1.147-3.18-1.665-3.069-1.369-2.662-5.847.296-3.182.592-4.293 1.331-5.588 1.849-3.182 5.324-5.329 9.576-5.958 1.59-.259 1.923-.481 3.365-2.368 2.145-2.775 4.585-4.996 6.766-6.069 3.771-1.924 9.318-2.109 11.647-.407.666.481 1.479.888 1.849.888.407 0 2.551-.777 4.844-1.702 6.729-2.812 10.464-3.479 15.382-2.738 2.182.296 2.847.555 3.439 1.295 1.146 1.48 2.588 1.221 5.953-.999 2.477-1.628 3.254-1.924 5.066-2.072 2.699-.185 4.696.666 7.543 3.219 2.551 2.294 3.402 2.405 7.506.703 2.292-.962 3.402-1.184 5.472-1.184 3.217 0 5.103.629 5.657 1.813.629 1.406 1.997 1.517 5.768.518 4.881-1.295 8.948-1.221 11.758.148 3.771 1.85 6.655 5.847 7.506 10.325.222 1.147.85 4.559 2.588 5.929.85.666 5.01 1.61 5.824 1.943 1.812.74 3.901 3.045 5.121 5.192 1.886 3.331 2.292 3.553 6.877 3.775 4.511.185 5.99.555 7.95 1.85 2.847 1.924 3.956 4.589 4.326 10.436.296 4.811 3.42 5.022 6.785 5.947 3.18.888 3.235 3.748 3.235 3.859 0 .216-.997 1.643-3.235 1.969-3.121.455-8.015-.293-10.297-1.155z"/>
    <path fill="#a56250" d="M223.092 304.186c0-.259 1.96-5.773 2.736-7.734.333-.814.961-1.665 1.442-1.85 1.072-.481 1.664-1.776 2.108-4.848.629-4.367.333-14.913-.592-19.835l-.259-1.406h2.329c2.625 0 9.539-.962 11.018-1.517 1.183-.444 1.553-.962 1.553-2.22 0-1.295-1.072-2.553-2.218-2.627-.518 0-2.921.185-5.324.444-6.138.666-16.195.333-21.371-.703-5.139-1.036-12.978-3.738-16.934-5.81-12.645-6.735-22.148-19.132-25.106-32.787-2.403-11.176-2.034-23.536 1.997-65.611 2.218-23.018 3.476-33.546 3.771-42.834.259-8.511.148-8.104 3.956-14.58 1.368-2.294 5.583-7.993 5.953-7.993.037 0 .703.592 1.442 1.295 2.773 2.59 8.393 3.108 13.2 1.147 1.886-.74 2.218-.814 2.625-.333 1.146 1.406 3.402 2.146 6.582 2.146 2.736 0 3.402-.148 5.324-1.11 1.22-.592 2.995-1.813 3.993-2.701l1.775-1.628 1.664 1.48c2.366 2.22 3.882 2.775 7.58 2.812 2.847.037 3.402-.074 5.546-1.147l2.366-1.147 1.405 1.184c3.365 2.886 10.242 3.219 13.533.666.85-.666.924-.666 2.403.074 3.069 1.517 7.839.74 11.166-1.813l1.183-.888.666 1.554c.924 2.109 4.844 5.995 6.397 6.365 1.405.296 1.405.185.555 6.217-.961 6.698-.924 20.631.037 26.811 1.442 9.547 3.106 14.543 8.541 25.719 2.292 4.774 4.511 9.806 4.955 11.139.85 2.849 1.516 7.29 1.516 10.14 0 2.331.592 3.145 2.366 3.145 1.331 0 2.182-.74 2.625-2.22.629-2.183 5.509-11.509 7.284-13.84 1.035-1.406 2.884-3.256 4.104-4.145 2.921-2.146 5.435-2.886 9.355-2.664 7.876.407 13.903 6.55 16.454 16.764 1.997 8.03.296 21.315-3.55 27.754-4.178 6.957-10.316 9.584-22.37 9.547-7.691-.037-12.313-1.517-16.454-5.292-2.588-2.368-4.104-2.442-5.176-.333-.776 1.48-.703 1.887.703 3.997l1.294 1.887-2.366 4.922c-4.03 8.4-6.582 17.171-7.617 26.126-.518 4.7-.222 16.134.518 19.761l.518 2.516-6.138 4.515c-18.229 13.507-31.909 22.129-46.884 29.642-2.292 1.147-4.178 1.998-4.178 1.85z"/>
    <path fill="#bc7d64" d="M210.521 260.89c-15.418-4.219-26.03-12.175-33.018-24.757-3.55-6.365-5.472-13.174-6.212-21.907-.592-7.142.111-23.943 1.516-37.487l5.398-56.6.259-4.885 1.331-.444c.739-.222 2.847-1.11 4.659-1.961l3.328-1.517 4.622.074c2.551.037 9.133.037 14.605 0 19.745-.074 22.333 0 29.21.851 8.467 1.073 13.607.888 18.487-.555 2.403-.703 3.365-.851 3.476-.518.37 1.184 2.81 3.331 4.252 3.701 1.479.407 5.361.296 6.545-.185.518-.222.629.444.813 5.403.296 6.92.887 5.125 3.254 16.301 4.252 20.057 4.585 22.647 4.585 37.191 0 11.361-.296 15.542-1.701 23.499-1.072 6.217-3.365 14.728-5.324 19.798-9.059 23.499-24.218 36.858-48.881 43.112-5.472 1.406-8.504 1.628-11.203.888z"/>
    <path fill="#fff" d="M240.034 169.85c2.961-1.282 3.948-3.228 4.783-9.779 1.594-12.295-.683-17.66-6.832-16.046-3.948.997-5.314 4.652-6.529 17.138-.455 4.557-.38 5.697.683 6.978 1.974 2.421 4.859 3.038 7.895 1.709zm-49.356-1.697c2.53-1.412 3.214-3.482 3.692-11.764.479-8.564 0-11.293-2.188-13.081-1.573-1.223-1.573-1.27-3.966-.471-3.145 1.035-4.308 3.482-5.265 10.964-1.094 8.329-1.026 11.622.273 13.269 1.641 2.259 4.513 2.635 7.453 1.082z"/>
    <path fill="#111" d="M237.801 171.621c2.182-.999 2.91-2.516 3.525-7.623 1.175-9.584-.504-13.766-5.036-12.508-2.91.777-3.917 3.627-4.812 13.359-.336 3.553-.28 4.441.504 5.44 1.455 1.887 3.581 2.368 5.819 1.332zm-48.406-1.628c2.091-1.11 2.656-2.738 3.052-9.251.396-6.735 0-8.881-1.808-10.288-1.3-.962-1.3-.999-3.278-.37-2.599.814-3.56 2.738-4.351 8.622-.904 6.55-.848 9.14.226 10.436 1.356 1.776 3.73 2.072 6.16.851z"/>
    <path fill="#212121" d="M218.877 223.551c4.104-1.036 8.985-3.071 9.539-3.96.555-.925-.148-2.664-1.146-2.812-.444-.074-1.96.296-3.328.777-5.842 2.109-9.096 2.627-16.01 2.664-7.062 0-9.503-.37-15.64-2.479-1.812-.592-3.513-.999-3.808-.888s-.518.629-.518 1.11c0 .814.444 1.184 3.439 2.59 3.919 1.924 8.837 3.405 12.83 3.886 4.215.555 10.575.148 14.642-.888zm88.333-23.092c3.734-1.702 5.768-4.626 6.027-8.696.148-2.442.037-2.923-1.183-5.736-.739-1.665-1.331-3.627-1.331-4.33 0-3.812 4.955-8.622 8.911-8.659 2.625 0 4.474 1.961 6.101 6.439.703 2.035.924 2.257 1.812 2.257 1.701 0 1.886-.851.924-3.886-2.182-6.772-7.284-10.177-12.534-8.326-3.402 1.184-7.802 5.144-9.466 8.437-1.479 2.997-1.146 5.551 1.257 9.325 2.477 3.886.961 7.586-4.067 9.992-2.477 1.184-3.217 2.479-1.997 3.405.961.703 3.808.592 5.546-.222zm-109.113-7.142c.481-.703.481-.925-.037-2.109-1.738-3.886-2.108-5.588-1.664-7.66.481-2.405 2.182-4.959 3.956-6.069 1.405-.851 1.664-1.813.703-2.627-1.294-1.073-6.249 2.701-7.95 6.032-1.812 3.59-1.183 8.918 1.405 11.805 1.479 1.628 2.736 1.85 3.587.629zm54.723-63.798c.37-.148.592-.666.592-1.48 0-4.515-5.657-8.955-11.795-9.325-4.77-.259-8.578 1.665-11.684 5.884-1.849 2.553-1.886 2.627-1.072 3.442.85.888 1.146.74 2.81-1.073 2.292-2.516 5.472-3.96 8.726-3.96 3.291 0 4.844.777 8.43 4.182 2.736 2.59 2.958 2.738 3.993 2.331zm-58.79-1.48c.407-.148.592-.703.592-1.776 0-4.182-6.175-7.253-11.61-5.736-1.516.407-4.474 2.923-4.844 4.071-.481 1.48 1.442 2.442 2.44 1.221.813-.999 3.18-1.998 4.733-1.998 2.145 0 2.995.444 5.029 2.553 1.738 1.813 2.44 2.146 3.661 1.665z"/>
    <path fill="#fff" d="M332.406 359.14c6.268 0 10.758 4.043 12.85 10.629l5.496 17.631 44.654-.002-3.281 22.151-.636.564-2.506 2.17C353.167 442.789 306.734 461.2 256 461.2c-54.398 0-103.852-21.167-140.575-55.714l-2.107-2.012 1.323-16.076 44.651.002 5.517-17.676c1.947-6.128 6.001-10.077 11.756-10.541l.512-.032.53-.011c6.268 0 10.758 4.043 12.85 10.629l5.496 17.629h40.741l5.515-17.675c1.947-6.128 6.001-10.077 11.756-10.541l.512-.032.53-.011c6.268 0 10.758 4.043 12.85 10.629l5.496 17.629h40.741l5.515-17.675c1.947-6.128 6.001-10.077 11.756-10.541l.512-.032.53-.011z"/>
    <path fill="#212121" d="M409.806 367.6c1.977 0 3.346 1.436 4.258 4.309l7.566 24.26 24.903-.155c2.927-.039 4.714.893 5.323 2.756.608 1.941-.342 3.726-2.7 5.434l-20.303 14.905 7.946 24.143c.95 2.834.608 4.813-.951 6.017-1.597 1.242-3.536.815-5.893-.932l-20.151-15.099-20.113 15.099c-2.357 1.747-4.334 2.174-5.893.932-1.559-1.204-1.901-3.183-.951-6.017l7.946-24.143-19.671-14.442-19.67 14.442 7.946 24.143c.95 2.834.608 4.813-.951 6.017-1.597 1.242-3.536.815-5.893-.932l-20.151-15.099-20.113 15.099c-2.357 1.747-4.334 2.174-5.893.932-1.559-1.204-1.901-3.183-.951-6.017l7.946-24.143-19.671-14.442-19.67 14.442 7.946 24.143c.95 2.834.608 4.813-.951 6.017-1.597 1.242-3.536.815-5.893-.932l-20.151-15.099-20.113 15.099c-2.357 1.747-4.334 2.174-5.893.932-1.559-1.204-1.901-3.183-.951-6.017l7.946-24.143-19.671-14.442-19.67 14.442 7.946 24.143c.95 2.834.608 4.813-.951 6.017-.585.455-1.217.686-1.898.71l-.187.001c-1.13-.022-2.393-.595-3.808-1.643l-20.151-15.099-20.113 15.099c-1.336.99-2.549 1.556-3.634 1.635l-.19.009c-.755.015-1.445-.215-2.069-.712-1.559-1.204-1.901-3.183-.951-6.017l7.946-24.143-19.671-14.442-19.67 14.442 7.946 24.143c.95 2.834.608 4.813-.951 6.017-1.597 1.242-3.536.815-5.893-.932l-20.151-15.099-20.113 15.099c-2.357 1.747-4.334 2.174-5.893.932-1.559-1.204-1.901-3.183-.951-6.017l7.946-24.143-20.303-14.905c-2.357-1.708-3.346-3.493-2.699-5.434.608-1.863 2.395-2.795 5.323-2.756l24.903.155 7.566-24.26c.912-2.872 2.281-4.309 4.22-4.309 1.977 0 3.346 1.436 4.258 4.309l7.566 24.26 24.903-.155c.736-.01 1.401.042 1.992.154.509-.097 1.073-.149 1.692-.155l.299.001 24.903.155 7.566-24.26c.912-2.872 2.281-4.309 4.22-4.309 1.977 0 3.346 1.436 4.258 4.309l7.566 24.26 24.903-.155.299-.001.291.006c.478.016.921.061 1.331.135l.072.013c.59-.112 1.254-.164 1.99-.154l24.903.155 7.566-24.26c.912-2.872 2.281-4.309 4.22-4.309 1.977 0 3.346 1.436 4.258 4.309l7.566 24.26 24.903-.155c.736-.01 1.401.042 1.992.154.59-.112 1.254-.164 1.99-.154l24.903.155 7.566-24.26c.912-2.872 2.281-4.309 4.22-4.309 1.977 0 3.346 1.436 4.258 4.309l7.566 24.26 24.903-.155c.736-.01 1.401.042 1.992.154.59-.112 1.254-.164 1.99-.154l24.903.155 7.566-24.26c.912-2.872 2.281-4.309 4.22-4.309z"/>
    <path fill="#ffce0a" d="M409.824 382.499l-4.931 15.814-1.587 5.089-5.331-.033-16.594-.105 13.676 10.042 4.212 3.092-1.633 4.963-5.251 15.954 13.1-9.834 4.319-3.242 4.322 3.238 13.146 9.851-5.254-15.967-1.633-4.963 4.212-3.092 13.676-10.04-16.594.103-5.331.033-1.587-5.089-4.933-15.814zm-77.4 0l-4.931 15.814-1.587 5.089-5.331-.033-16.594-.105 13.676 10.042 4.212 3.092-1.633 4.963-5.251 15.954 13.1-9.834 4.319-3.242 4.322 3.238 13.146 9.851-5.254-15.967-1.633-4.963 4.212-3.092 13.676-10.04-16.594.103-5.331.033-1.587-5.089-4.933-15.814zm-77.4 0l-4.931 15.814-1.587 5.089-5.331-.033-16.594-.105 13.676 10.042 4.212 3.092-1.633 4.963-5.251 15.954 13.1-9.834 4.319-3.242 4.322 3.238 13.146 9.851-5.254-15.967-1.633-4.963 4.212-3.092 13.676-10.04-16.594.103-5.331.033-1.587-5.089-4.933-15.814zm-77.4 0l-4.931 15.814-1.587 5.089-5.331-.033-16.594-.105 13.676 10.042 4.212 3.092-1.633 4.963-5.251 15.954 13.1-9.834 4.319-3.242 4.322 3.238 13.146 9.851-5.254-15.967-1.633-4.963 4.212-3.092 13.676-10.04-16.594.103-5.331.033-1.587-5.089-4.933-15.814zm-77.4 0l-4.931 15.814-1.587 5.089-5.331-.033-16.594-.105 13.676 10.042 4.212 3.092-1.633 4.963-5.251 15.954 13.1-9.834 4.319-3.242 4.322 3.238 13.146 9.851-5.254-15.967-1.633-4.963 4.212-3.092 13.676-10.04-16.594.103-5.331.033-1.587-5.089-4.933-15.814z"/>
</svg>
