<svg xmlns="http://www.w3.org/2000/svg" width="256" height="256" viewBox="0 0 512 512">
    <path fill="#FAF089" d="M0 0h512v512H0z"/>
    <path fill="#212121" d="M458 80c7.73 0 14 6.27 14 14v364c0 7.73-6.27 14-14 14H54c-7.73 0-14-6.27-14-14V94c0-7.73 6.27-14 14-14h404z"/>
    <path fill="#FFFFF0" d="M458 83H54c-5.98 0-10.84 4.77-11 10.7V458c0 5.98 4.77 10.84 10.7 11H458c5.98 0 10.84-4.77 11-10.7V94c0-5.98-4.77-10.84-10.7-11h-.3z"/>
    <path fill="#212121" d="M266.35 2.55l1.55 1.4 2.1-.72.48-.15.42-.13c.95-.27 1.65-.37 2.86-.36h.56l1.62.06.56.02.5.04c.07 0 .15 0 .22 0l.42.06c.8.1 1.34.25 2 .52l.32.14c.06.03.12.05.18.08l1.66.77 1.74-.58c2.15-.7 6.18-.77 8.64-.14 5.66 1.46 10.1 6.3 11 12l.35 2.08 1.5.34c2.86.64 5.87 2.88 7.26 5.4l.84 1.65 2.12-.12c5.12-.2 9.92 2.6 12.18 7.13.24.47.43 1.13.62 1.86l.13.56.45 2.04.13.56c.32 1.28.68 2.3 1.2 2.5.3.12.62.2.92.28l.3.07.45.1.58.12.3.07.3.08c1.56.42 2.8 1.26 3.3 4.6-.37 2.14 1.04 5.48 4.22 10C378.82 81.63 404 126.14 404 176.53c0 81.74-66.26 148-148 148s-148-66.26-148-148c0-55.9 31-104.58 76.76-129.76-.33-.9-.66-1.78-1-2.6 0-.16-.05-.33-.15-.55l-.27-.6c-1-2.2-.94-5.48.1-7.66 1.02-2.06 3.13-3.98 5.82-5.32l2.03-1 .17-2.6c.06-.9.9-2.87 3-3.4 1.2-.32 3 0 4.6.43 1.27.34 1.76-.23 2.07-1.1l.08-.26.1-.4c.02-.05.04-.1.05-.15.74-2.92 2.57-5.58 4.94-7.27 1.7-1.2 4.2-2.15 5.82-2.25h.53c.64-.05.83-.3 1.34-1.35 1.07-2.26 3.45-4.4 6.1-5.53l.5-.2c.06-.03.14-.06.2-.1l.43-.14c.94-.33 1.66-.47 2.9-.56l.87-.05.7-.04h.38l.73-.02h1.28c.98.04 1.74.14 2.48.3l2.02.53 1.14-.86c.17-.1.4-.26.68-.4l.45-.23c.4-.2.84-.4 1.3-.58l.53-.23c.18-.07.36-.13.53-.2l.47-.15.4-.13.4-.13c.05 0 .1-.03.17-.05l.37-.08c.18-.04.36-.08.55-.1l.38-.06c.13 0 .26-.03.4-.04l.46-.02.5-.02.55-.02h2.45l.97.02.58.03.52.02.48.04.45.03.42.06.4.05c.07 0 .13.02.2.04l.4.07.38.1.4.1.87.25.36.1.3.07.25.04c.43.08.64.06.87-.07l.13-.1.13-.1.17-.1c.94-.75 2.94-1.64 4.4-1.98 3.38-.8 7 .07 9.38 2.25z"/>
    <path fill="#26A69A" d="M315.43 300.9c1.6 2.95 2 3.86 1.66 3.86-.07 0-1.1.46-2.33 1l-2.2 1 .17-1.34c.1-.77.32-2.78.46-4.5.14-1.7.3-3.14.37-3.2.06-.06.9 1.37 1.86 3.18zm-131.04-8.16c-.08.35-.28 1.36-.48 2.43l-.1.5c-.23 1.32-.46 2.6-.46 2.68 0 .26-.52.06-1.8-.77l-1.38-.86.86-1.06c.46-.57 1.43-1.63 2.18-2.35 1.17-1.13 1.3-1.2 1.17-.56zm154.37-231.2l2.88 2.2c7.18 5.43 16.93 14.76 22.77 21.77 18.53 22.3 29.6 48.78 32.46 77.58.7 6.93.7 20.06 0 26.9-2.9 29.1-14.2 55.96-32.98 78.32-1.6 1.86-3.2 3.7-3.57 4.06l-.72.66-2.16-5.67c-8.65-22.53-11.6-29.93-14.57-36.2l-.2-.45c-.05-.08-.1-.15-.12-.23l-.22-.45-.22-.45c-.4-.83-.8-1.66-1.25-2.52-2.7-5.32-5.95-10.62-8.58-13.94-8.32-10.7-19.13-18.7-31.05-23.1-5.84-2.13-11.13-3.16-17.62-3.42l-4.55-.17-.43-2.14c-.6-3.2-.57-12.57.06-16.03 1.03-5.58 2.6-10.88 5.32-17.95l.9-2.3 1.56.67c2.66 1.23 5.3 1.63 10.3 1.66 4.97 0 8.03-.42 11.95-1.7 7.47-2.47 12.16-9.8 13.36-20.98.75-6.56-.08-12.48-2.34-17.3l-1.2-2.5.9-3.5c.87-3.24 1.86-7.12 2.85-11.1l.3-1.12.24-1 .25-1c1.85-7.44 3.56-14.6 4.2-17.64l1.22-5.73 1.94-.3c2.53-.4 4.76-1.5 6.76-3.4l1.6-1.48zM189.25 51.2l.5 4.57c.47 4.52 1.02 6.84 1.8 7.73.22.26.33.52.27.57-.05.06-.3 3.27-.57 7.13-.12 1.9-.25 3.8-.38 5.7l-.1 1.27c0 .2-.02.42-.03.63l-.14 1.9c0 .22-.03.44-.04.65l-.1 1.27c-.05.84-.1 1.68-.17 2.52l-.1 1.26c-1.12 15.87-2.24 30.3-2.7 34.66-1.88 17.75-1.68 26.8.86 35.58.95 3.23 3.38 8.36 5.35 11.25 2.13 3.05 7.82 8.7 10.96 10.84 3.12 2.1 8.07 4.6 11.16 5.63 4.77 1.6 10.55 2.75 13.9 2.75h1.6l-.03 2.84-.04 2.83-1.3.2c-4.85.68-11.48 2.94-16.57 5.63-1.26.66-2.43 1.32-3.6 2.02l-.48.28c-.2.12-.4.24-.6.36l-.4.23c-6.26 3.9-13.46 9.66-32.08 25.2-2.06 1.73-4.37 3.65-6.67 5.56l-.92.75c-4.14 3.42-8.15 6.72-10.57 8.68-6.97 5.67-10.56 8.7-13.88 11.78l-.44.43c-.08.07-.15.14-.22.2l-.44.42c-.22.2-.44.42-.67.64-1.5 1.42-2.8 2.62-2.86 2.62-.05 0-1.23-1.72-2.57-3.8-12.18-18.73-19.6-39.62-22.2-62.38-.32-2.93-.5-9.26-.52-15.37v-1.22c0-5.06.13-9.8.38-12.1 2.18-19.76 7.47-37.22 16.13-53.25 7-12.97 14.58-23.13 25.1-33.63 9.6-9.65 19.57-17.15 31.78-24l1.57-.88z"/>
    <path fill="#37474F" d="M321.6 49.2c-.97-.36-3.4-1.67-5.43-2.93-4-2.43-5.9-3.24-7.75-3.26-.66 0-2.83.35-4.86.75-6.75 1.35-9.67.7-13-3l-1.76-1.95-2.3 1.1c-5.65 2.68-11.22 3-16.03.87-1.6-.7-4.72-2.86-6.2-4.26-1.23-1.17-1.5-1.14-4.27.5-3.37 1.97-6.77 2.5-9.92 1.57-1.23-.37-1.77-.77-3.4-2.6-1.06-1.18-2.32-2.35-2.8-2.6-1.15-.6-2.92-.38-7.27.88-6.17 1.8-8.77 1.26-11.46-2.3-.7-.94-1.43-1.97-1.6-2.23-.26-.45-.37-.42-1.6.23-4.4 2.47-10.18 2.84-14 .9-2.45-1.3-2.36-1.07-2.05-4.53.22-2.46.45-3.32 1.02-4.32 1.43-2.46 4.12-4.13 7.4-4.6 1.24-.2 1.5-.38 2.6-1.84 1.67-2.15 3.56-3.87 5.25-4.7 2.9-1.5 7.2-1.63 9-.3.52.36 1.15.67 1.44.67.32 0 1.98-.6 3.75-1.3 5.2-2.2 8.1-2.7 11.9-2.13 1.7.23 2.2.43 2.66 1 .9 1.15 2 .95 4.6-.77 1.93-1.26 2.53-1.5 3.93-1.6 2.1-.15 3.63.5 5.84 2.5 1.97 1.76 2.63 1.85 5.8.53 1.77-.74 2.63-.92 4.23-.92 2.5 0 3.95.5 4.38 1.4.5 1.1 1.54 1.18 4.46.4 3.78-1 6.92-.94 9.1.12 2.9 1.43 5.14 4.52 5.8 8 .17.87.66 3.5 2 4.57.66.52 3.88 1.25 4.5 1.5 1.4.58 3.03 2.36 3.97 4.02 1.47 2.58 1.78 2.75 5.33 2.92 3.5.14 4.63.43 6.15 1.43 2.2 1.5 3.06 3.55 3.34 8.07.23 3.72 2.65 3.9 5.25 4.6 2.46.7 2.5 2.9 2.5 3 0 .16-.77 1.26-2.5 1.5-2.4.36-6.2-.2-7.96-.88z"/>
    <path fill="#A56250" d="M230.55 214.7c0-.2 1.5-4.45 2.1-5.97.27-.63.76-1.3 1.13-1.43.83-.37 1.3-1.37 1.63-3.75.5-3.38.27-11.53-.45-15.34l-.2-1.08h1.8c2.03 0 7.38-.74 8.53-1.17.9-.34 1.2-.75 1.2-1.72 0-1-.83-1.97-1.72-2.03-.4 0-2.26.14-4.12.34-4.75.52-12.52.26-16.53-.54-3.96-.8-10.03-2.9-13.1-4.5-9.77-5.2-17.12-14.8-19.4-25.36-1.86-8.64-1.58-18.2 1.54-50.74 1.72-17.8 2.7-25.95 2.92-33.13.2-6.6.1-6.27 3.06-11.28 1.05-1.8 4.3-6.2 4.6-6.2.03 0 .54.46 1.12 1 2.14 2 6.5 2.4 10.2.9 1.46-.58 1.72-.63 2.04-.26.88 1.08 2.63 1.66 5.1 1.66 2.1 0 2.62-.12 4.1-.86.95-.46 2.32-1.4 3.1-2.1l1.37-1.25 1.28 1.13c1.83 1.72 3 2.15 5.87 2.18 2.2.04 2.63-.05 4.3-.88l1.82-.88 1.08.9c2.6 2.24 7.93 2.5 10.47.53.66-.52.72-.52 1.86.05 2.37 1.18 6.06.58 8.64-1.4l.9-.7.53 1.22c.7 1.63 3.74 4.63 4.94 4.92 1.1.23 1.1.14.43 4.8-.74 5.2-.7 15.97.03 20.75 1.12 7.4 2.4 11.25 6.6 19.9 1.78 3.7 3.5 7.58 3.84 8.6.66 2.22 1.17 5.65 1.17 7.86 0 1.8.47 2.43 1.84 2.43 1.03 0 1.7-.58 2.03-1.73.5-1.7 4.27-8.9 5.64-10.7.8-1.1 2.24-2.52 3.18-3.2 2.26-1.67 4.2-2.24 7.24-2.07 6.1.32 10.75 5.07 12.72 12.97 1.55 6.2.23 16.48-2.74 21.46-3.23 5.38-7.98 7.42-17.3 7.4-5.95-.04-9.53-1.18-12.73-4.1-2-1.84-3.17-1.9-4-.26-.6 1.14-.55 1.46.54 3.1l1 1.45-1.82 3.8c-3.12 6.5-5.1 13.3-5.9 20.2-.4 3.65-.16 12.5.4 15.3l.4 1.94-4.74 3.5c-14.1 10.44-24.68 17.1-36.26 22.92-1.77.9-3.23 1.55-3.23 1.43z"/>
    <path fill="#FF9800" d="M291.03 314.6c-.88-.28-14.75-2.25-22.6-3.25-21.47-2.7-43.03-3.98-59.76-3.6l-8.3.2-2.7-1.18c-3.8-1.66-10.05-4.9-10.2-5.3-.1-.3 1.67-11.82 2.1-13.5l.14-.67h19.5c29.47 0 39.28.66 58.67 3.87 10.64 1.74 40.32 7.9 40.9 8.47.1.14-1.2 9.73-1.35 9.84-.4.26-8.24 2.92-10.8 3.7-4.44 1.3-5.24 1.5-5.6 1.43zM317.4 294.7c-2.43-4.16-5.3-9.1-6.35-10.98-1.06-1.88-2.6-4.58-3.43-6-.83-1.4-3.14-5.42-5.15-8.88-5.7-9.82-11-18.8-11.78-19.8-.44-.6-.95-.95-1.35-.95-.78 0-1.6.82-1.6 1.56 0 .58 5.43 10.88 11.26 21.44 1.84 3.3 3.33 5.98 3.33 6.04 0 .03-2.14-.37-4.78-.9-19.2-3.8-41.5-6.23-66.3-7.26-14.12-.57-27.9-.05-37.02 1.4-.86.15-1.6.24-1.63.2-.03-.02 1.3-8.2 2.94-18.2 2.15-12.8 2.95-18.37 2.78-18.9-.15-.36-.6-.82-1.03-.96-1.47-.52-1.73.1-3.36 8.4-2.3 11.75-4.35 22.7-6.3 33.3l-1.76 9.68-1 .9c-1.26 1.2-7.16 7.2-8.3 8.5-1.06 1.22-.9 1.27-5.55-2.2-5.46-4.1-9.6-7.7-14.64-12.64-6-5.9-9.45-9.8-10.74-12.14-.54-.97-1.48-2.46-2.1-3.3-.67-.82-1.13-1.54-1.07-1.56 4.77-3.44 7.45-5.64 14.7-12.05 7.6-6.75 25.84-22.12 35.88-30.25 10.84-8.8 19.2-14.34 27.1-18.03 3.1-1.46 10.34-4.27 10.97-4.27.25 0 .3.72.17 2.84-.14 2.76-.2 2.94-1.9 6.37-1.68 3.44-4.6 11.48-4.6 12.74 0 .9 1.18 2.18 2.04 2.15.94 0 7.8-2.94 14.4-6.2 9.28-4.56 18.14-9.97 25.7-15.66 3.45-2.65 8.74-7.08 9.75-8.23.5-.5.75-.57 2-.46 24.55 2.8 40.65 11.86 52.43 29.5 6.06 9.1 10.87 19.54 17.96 39.07 1.68 4.63 3.97 10.76 5.05 13.6l1.98 5.14-2.1 1.96c-7.66 7.18-16.4 13.94-24.13 18.58-2.4 1.46-7.35 3.95-7.84 3.95-.14 0-2.23-3.4-4.66-7.5z"/>
    <path fill="#BC7D64" d="M220.82 181.23c-11.92-3.27-20.13-9.42-25.54-19.15-2.74-4.93-4.23-10.2-4.8-16.95-.46-5.52.1-18.52 1.17-29 1.37-13.1 3.78-36.53 4.18-43.77l.2-3.78 1.03-.34c.57-.17 2.2-.86 3.6-1.52l2.57-1.17 3.58.05c1.98.03 7.07.03 11.3 0 15.28-.05 17.28 0 22.6.66 6.55.83 10.52.7 14.3-.43 1.86-.54 2.6-.66 2.7-.4.27.92 2.16 2.58 3.28 2.86 1.14.3 4.14.22 5.06-.15.4-.17.48.34.63 4.18.23 5.35.68 3.96 2.5 12.6 3.3 15.52 3.56 17.53 3.56 28.77 0 8.8-.23 12.03-1.32 18.18-.8 4.8-2.6 11.4-4.1 15.3-7 18.2-18.74 28.52-37.8 33.36-4.24 1.1-6.6 1.26-8.68.7z"/>
    <path fill="#FFB74D" d="M286.74 313.86c-11.64-1.86-26.2-3.63-38.46-4.63-14.6-1.23-18.36-1.4-33.6-1.46l-14.88-.06-4.14-1.94c-5.35-2.5-8.3-4.12-8.3-4.52 0-.2.52-3.35 1.15-7 .64-3.67 1.15-6.7 1.15-6.8 0-.25 36.75-.14 43.6.15 12.25.5 20.52 1.36 33.65 3.42 4.14.66 19.56 3.55 23.96 4.53l.7.14-.2 3.45c-.2 3.47-.9 11.08-1.27 13.77l-.2 1.43-3.16-.5zM338.5 291.48c-.3-.23-3.65-2.35-7.43-4.75-7.86-5-14.73-9.73-19.87-13.74-4.3-3.36-10.24-8.57-12-10.5-.67-.76-2.82-4.08-4.76-7.37-1.92-3.26-3.75-6.2-4-6.5-.95-1.06-2.7-.4-2.7 1 0 .35.7 1.98 1.55 3.64l1.56 2.98.2 9.38c.12 5.16.12 9.36.03 9.36-.12 0-2.87-.43-6.13-.98-22.82-3.78-57.03-6.07-75.6-5.07-5.82.32-16.12 1.32-16.63 1.64-.12.07-.14-.24-.1-.67 1.04-5.67 5.88-35.3 5.88-35.9 0-1.03-1.12-1.83-2.15-1.57-.9.23-.86.17-3 11.34-.97 4.95-1.8 9.3-1.86 9.6-.56 2.73-13.63 19.08-23.16 28.98l-3.63 3.78-2.05-1.78c-3.23-2.83-10.58-10.13-13.27-13.2-1.37-1.54-3.06-3.8-3.77-5.03-.7-1.23-1.7-2.75-2.2-3.38l-.94-1.17 2.23-1.66c3-2.26 7.66-6.16 12.78-10.76 6.03-5.38 28.25-24.1 36.9-31.03 12.92-10.4 23.27-16.63 33.42-20.12 1.86-.66 3.46-1.18 3.55-1.18.05 0 .05 1.32-.06 2.9-.2 2.83-.27 3-2.04 6.66-1.8 3.65-4.43 11.06-4.43 12.44 0 .97.45 1.66 1.34 2.03.74.28 1.23.17 4.66-1.26 5.44-2.25 16.28-7.66 21.02-10.44 8.24-4.86 16.42-10.67 21.82-15.5 4.18-3.73 3.38-3.42 7.35-2.93 9.18 1.1 18.62 3.78 25.7 7.33 13.9 6.95 23.4 17.5 32.05 35.43 3.2 6.7 4.9 10.84 10.75 26.75 3.37 9.16 5.18 14 5.8 15.52l.72 1.77-2.6 2.55c-4.18 4.05-13.56 11.84-14.2 11.75-.07 0-.42-.17-.73-.37z"/>
    <path fill="#FFCC80" d="M307.2 294.57c-3.04-.97-13.9-3.63-19.17-4.66-19.25-3.8-45.16-6.7-67.2-7.46-9.9-.35-22.43.08-29.35 1l-1.17.17.75-4.5.77-4.53 8.4-.18c40.4-.84 46.37-.7 67.22 1.77 8.55 1 12.67 1.6 21.6 3.15 6.1 1.06 16.18 3.03 16.3 3.2.02.03 1.14 2.06 2.48 4.5l2.46 4.43-.3 1.95c-.2 1.06-.4 1.92-.47 1.9-.08 0-1.14-.36-2.3-.73z"/>
    <path fill="#FFECB3" d="M245.42 318.76c-8.35-.6-19.6-2.55-27.46-4.75-4.9-1.37-4.8-1.37 8.73-.97 11.3.38 15.74.63 26 1.46 6.56.54 24.46 2.54 24.72 2.74.3.26-.34.4-3.97.8-8.8 1-19.9 1.3-28.03.72zm46.2-28.2c-.84-.25-14.57-2.74-17.9-3.23-17.8-2.66-40.34-4.66-56.27-5.07-7.52-.2-16.4.15-23.22.86-1.98.23-3.64.35-3.72.3-.1-.15 1.1-7.94 1.35-8.63.12-.3 1.03-.38 4.06-.38 2.16 0 11.6-.14 20.98-.34 21.56-.43 29.25-.17 44.84 1.5 10.9 1.13 29.7 3.85 30.2 4.34.26.28-.03 10.73-.3 10.65z"/>
    <path fill="#212121" d="M233.7 147.1h.08c.77.12 1.3 1.47.9 2.18-.44.7-4.22 2.26-7.4 3.07-3.14.8-8.06 1.1-11.32.68-3.1-.37-6.9-1.5-9.92-3-2.32-1.1-2.66-1.38-2.66-2 0-.38.17-.78.4-.87.23-.08 1.54.23 2.94.7 4.75 1.62 6.64 1.9 12.1 1.9 5.35-.02 7.87-.42 12.38-2.05 1.06-.36 2.24-.65 2.58-.6zm68.66-36.54c4.06-1.44 8 1.2 9.7 6.44.74 2.34.6 3-.72 3-.7 0-.86-.17-1.4-1.74-1.26-3.47-2.7-4.98-4.72-4.98-3.06.02-6.9 3.74-6.9 6.7 0 .54.46 2.05 1.04 3.34.94 2.18 1.03 2.55.9 4.44-.2 3.15-1.76 5.4-4.65 6.72-1.33.63-3.54.72-4.28.18-.94-.72-.37-1.72 1.54-2.64 3.9-1.86 5.07-4.72 3.15-7.73-1.85-2.92-2.1-4.9-.96-7.22 1.28-2.55 4.7-5.6 7.32-6.52zm-95 8.78c1.3-2.57 5.14-5.5 6.14-4.66.75.63.55 1.37-.54 2.03-1.37.87-2.7 2.84-3.06 4.7-.34 1.6-.06 2.92 1.3 5.93.4.9.4 1.1 0 1.63-.64.94-1.62.77-2.76-.5-2-2.22-2.5-6.34-1.1-9.12zm32.08-24.1c2.32-.97 3.18 2.26 2.58 9.68-.32 3.95-.7 5.12-1.8 5.9-1.15.8-2.24.42-2.98-1.04-.4-.77-.43-1.46-.26-4.2.46-7.53.97-9.74 2.46-10.34zm-37.86-1.1c1-.47 1-.44 1.65.3.92 1.1 1.12 2.75.92 7.96-.2 5.04-.5 6.3-1.54 7.15-1.22.95-2.43.72-3.1-.65-.56-1-.58-3-.13-8.08.4-4.55.9-6.04 2.2-6.67zm34.26-18.33c2.4-3.26 5.35-4.74 9.03-4.54 4.75.28 9.13 3.72 9.13 7.2 0 .64-.17 1.04-.46 1.15-.8.33-.97.2-3.1-1.8-2.76-2.62-3.96-3.22-6.5-3.22-2.53 0-5 1.1-6.76 3.06-1.3 1.4-1.5 1.52-2.17.83-.62-.63-.6-.7.84-2.66zm-36.3-3.14c4.2-1.17 9 1.2 9 4.44 0 .83-.16 1.26-.47 1.37-.95.37-1.5.1-2.83-1.3-1.58-1.62-2.23-1.96-3.9-1.96-1.2 0-3.02.78-3.65 1.55-.8.95-2.27.2-1.9-.94.3-.88 2.57-2.83 3.75-3.14zm209.23 287.9l-.26-.66-.27-.6c-1.8-3.9-3.58-4.24-5.38-1.54l-.14.2-.24.42c-.16.27-.32.57-.47.88l-.23.48-.24.55-.1.27-.1.27-.24.6-.12.33-6.06 18-19.3.18h-.4l-.62.04c-.9.04-1.7.14-2.37.28l-.4.1-.43.1c-2.38.68-2.92 1.64-2.03 3.25l.1.2.2.3c.4.6.94 1.2 1.62 1.85l.34.32.44.38.23.18.23.18.5.4 15.74 11.58-5.96 18.3-.17.6-.1.38-.17.72-.15.76-.07.5-.05.42-.03.46c-.2 3.3 1.27 4.18 4.83 2.33l.57-.3.6-.36.48-.3.52-.34.26-.18.26-.17 15.54-11.12 15.53 11.1.52.37.24.16.48.3.65.4.3.16.45.24c3.55 1.78 5 1.1 4.9-2l-.02-.28-.04-.45c-.1-.93-.3-2-.66-3.18l-.16-.5-5.73-18.1 15.6-11.5.5-.4c.35-.28.68-.56.97-.82l.3-.27.37-.36c.26-.26.5-.5.7-.75l.17-.23.26-.33c1.54-2.18.92-3.44-2.36-4.1l-.3-.06-.5-.08-.54-.07-.54-.07-.57-.04-.63-.04h-.64l-18.92-.18-6.43-18.6-.23-.63zm-74.74 0l-.13-.33-.27-.64c-1.86-4.2-3.67-4.6-5.52-1.84l-.13.2-.25.42c-.16.27-.32.57-.47.88l-.22.48-.24.55-.23.54-.22.6-6.17 18.33-19.3.18h-.4l-.63.04c-.88.04-1.68.14-2.36.28l-.4.1-.44.1c-2.38.68-2.92 1.64-2.04 3.25l.1.2.22.3c.4.6.93 1.2 1.6 1.85l.36.32.44.38.23.18.22.18.5.4 15.73 11.58-5.96 18.3-.18.6-.15.56-.13.54-.15.76-.08.5-.06.42-.03.46c-.2 3.47 1.43 4.26 5.4 2.03l.6-.36.5-.3.5-.34.27-.18.25-.17 15.54-11.12 15.53 11.1.5.37.25.16.5.3.5.3.43.26.46.24c3.55 1.78 5 1.1 4.9-2l-.02-.28-.04-.45c-.1-.93-.3-2-.66-3.18l-.16-.5-5.73-18.1 15.47-11.42.62-.48c.36-.28.68-.56.98-.82l.3-.27.36-.36c.26-.26.5-.5.7-.75l.17-.23.25-.33c1.55-2.18.93-3.44-2.35-4.1l-.3-.06-.5-.08-.54-.07-.56-.07-.55-.04-.64-.04h-.64l-18.92-.18-6.33-18.3-.1-.3-.24-.63zm-74.87-.33l-.13-.33-.28-.6c-1.8-3.9-3.58-4.24-5.38-1.54l-.14.2-.25.42c-.16.27-.32.57-.47.88l-.2.48-.25.55-.1.27-.12.27-.22.6-6.16 18.33-19.3.18h-.4l-.63.04c-.87.04-1.67.14-2.35.28l-.4.1-.43.1c-2.38.68-2.92 1.64-2.04 3.25l.1.2.22.3c.4.6.93 1.2 1.6 1.85l.36.32.44.38.45.36.5.4 15.74 11.58-5.97 18.3-.18.6-.14.56-.12.54-.15.76-.08.5-.05.42-.04.46c-.2 3.3 1.27 4.18 4.84 2.33l.56-.3.6-.36.5-.3.5-.34.52-.35 15.54-11.12 15.53 11.1.5.37.26.16.5.3.5.3.44.26.46.24c3.55 1.78 5 1.1 4.9-2l-.02-.28-.04-.45c-.1-.93-.3-2-.66-3.18l-.16-.5-5.73-18.1 15.58-11.5.5-.4c.36-.28.68-.56.98-.82l.3-.27.36-.36c.26-.26.5-.5.7-.75l.17-.23.24-.33c1.55-2.18.93-3.44-2.35-4.1l-.32-.06-.5-.08-.53-.07-.55-.07-.55-.04-.63-.04h-.64l-18.92-.18-6.33-18.3-.1-.3-.24-.63-.14-.32zm-74.6.32l-.14-.32-.27-.64c-1.86-4.2-3.67-4.6-5.52-1.84l-.14.2-.26.42c-.16.27-.32.57-.47.88l-.22.48-.24.55-.2.54-.23.6-.1.33-6.07 18-19.3.18h-.4l-.63.04c-.88.04-1.68.14-2.36.28l-.4.1-.43.1c-2.37.68-2.92 1.64-2.03 3.25l.1.2.22.3c.4.6.93 1.2 1.6 1.85l.36.32.44.38.23.18.2.18.5.4 15.75 11.58-5.96 18.3-.2.6-.1.38-.16.72-.15.76-.1.5-.04.42-.04.46c-.17 2.96 1 3.97 3.8 2.8l.5-.2c.44-.2.9-.45 1.4-.74l.3-.18.5-.3.5-.34.26-.18.26-.17 15.54-11.12 15.53 11.1.52.37.25.16.5.3.5.3.43.26.46.24c3.55 1.78 5 1.1 4.9-2l-.02-.28-.04-.45c-.1-.93-.3-2-.66-3.18l-.16-.5-5.73-18.1 15.6-11.5.5-.4c.34-.28.67-.56.97-.82l.28-.27.38-.36c.26-.26.5-.5.7-.75l.17-.23.25-.33c1.55-2.18.93-3.44-2.35-4.1l-.3-.06-.5-.08-.54-.07-.54-.07-.56-.04-.62-.04h-.64l-18.92-.18-6.43-18.6-.25-.63zm-74.75 0l-.12-.32-.27-.64c-1.85-4.2-3.66-4.6-5.5-1.84l-.15.2-.25.42c-.16.27-.32.57-.47.88l-.22.48-.23.55-.22.54-.22.6-6.17 18.33-19.3.18h-.4l-.63.04c-.88.04-1.68.14-2.37.28l-.4.1-.43.1c-2.37.68-2.92 1.64-2.03 3.25l.1.2.22.3c.4.6.93 1.2 1.6 1.85l.36.32.44.38.22.18.22.18.5.4L89.8 399.1l-5.95 18.3-.18.6-.14.56-.13.54-.15.76-.08.5-.05.42-.04.46c-.2 3.47 1.43 4.26 5.4 2.03l.6-.36.5-.3.5-.34.26-.18.26-.17 15.54-11.12 15.53 11.1.5.37.26.16.5.3.5.3.43.26.46.24c3.55 1.78 5 1.1 4.9-2l-.03-.28-.04-.45c-.1-.93-.32-2-.66-3.18l-.16-.5-5.73-18.1 15.6-11.5.5-.4c.35-.28.68-.56.98-.82l.28-.27.38-.36c.26-.26.5-.5.68-.75l.2-.23.24-.33c1.55-2.18.93-3.44-2.35-4.1l-.3-.06-.5-.08-.53-.07-.55-.07-.56-.04-.62-.04h-.64l-18.92-.18-6.33-18.3-.1-.3-.24-.63z"/>
    <path fill="#F7AE55" d="M412.02 384.53l-6.92-20.02-6.73 20.02-21.1.2 17.12 12.6-6.5 19.94 17.2-12.3 17.23 12.3-6.35-20.03 16.95-12.5zM337.28 384.53l-6.92-20.02-6.73 20.02-21.1.2 17.12 12.6-6.5 19.94 17.2-12.3 17.24 12.3-6.36-20.03 16.95-12.5zM262.54 384.53l-6.92-20.02-6.73 20.02-21.1.2 17.1 12.6-6.5 19.94 17.22-12.3 17.23 12.3-6.35-20.03 16.95-12.5zM187.8 384.53l-6.92-20.02-6.73 20.02-21.1.2 17.12 12.6-6.5 19.94 17.2-12.3 17.24 12.3-6.34-20.03 16.95-12.5zM113.06 384.53l-6.92-20.02-6.73 20.02-21.1.2 17.13 12.6-6.5 19.94 17.2-12.3 17.23 12.3-6.34-20.03 16.95-12.5z"/>
</svg>
