<svg xmlns="http://www.w3.org/2000/svg" viewBox="0 0 512 512" width="256" height="256">
    <rect width="512" height="512" fill="#FAF089"/>
    <path fill="#212121" d="M432.5,76 L79.5,76 C69.8350169,76 62,83.8350169 62,93.5 L62,425.5 L62,425.82877 C62.1783049,435.34204 69.9448462,443 79.5,443 L130.829,443 L130.770905,443.492559 C129.934291,450.261036 128.148764,458.143698 125.546357,467.006348 L124.792315,469.526726 L124.110764,471.731904 L123.818402,472.659174 L123.22155,474.521375 L122.620194,476.359505 L122.014346,478.176934 L121.257033,480.405576 L120.493261,482.610453 L119.584861,485.184182 L118.988023,486.849937 L118.10442,489.284481 L111.37632,507.581705 L144.264029,476.54579 L159.047772,462.255613 L170.628473,451.112046 L179.101,443 L432.5,443 C442.164983,443 450,435.164983 450,425.5 L450,93.5 C450,83.8350169 442.164983,76 432.5,76 Z"/>
    <path fill="#FFFFF0" d="M432.5,80 C439.955844,80 446,86.0441559 446,93.5 L446,425.5 C446,432.955844 439.955844,439 432.5,439 L178.5,439 C177.857079,439 177.238871,439.24769 176.773811,439.691611 L167.854966,448.229745 L156.267722,459.379623 L141.51869,473.636647 L121,493 L121.864446,490.649105 L122.753645,488.199046 L123.356837,486.51542 L124.272178,483.921859 L125.194138,481.255262 L125.809096,479.441793 L126.421959,477.60312 L127.030712,475.742148 L127.633339,473.861778 L127.931725,472.915226 L128.521386,471.011204 L128.812156,470.05446 L129.384318,468.133317 C132.022872,459.147563 134.19805,449.907505 134.988375,441.74081 C135.130537,440.271804 133.975869,439 132.5,439 L79.5,439 C72.0441559,439 66,432.955844 66,425.5 L66,93.5 C66,86.0441559 72.0441559,80 79.5,80 L432.5,80 Z"/>
    <path fill="#212121" d="M144.226126,315.100483 L144.139265,314.885216 L143.956121,314.456527 C142.706387,311.65066 141.491453,311.370377 140.248529,313.225381 L140.157533,313.364918 L139.988716,313.643071 C139.88168,313.827918 139.776221,314.027025 139.674489,314.235963 L139.524956,314.556189 L139.365535,314.927208 L139.219294,315.295915 L139.068884,315.707092 L134.927435,328.009858 L121.971704,328.128748 L121.699695,328.135242 L121.278543,328.154176 C120.683486,328.188769 120.148225,328.255031 119.688762,328.34772 L119.422308,328.406463 L119.13126,328.482671 C117.535245,328.938611 117.17057,329.587214 117.766827,330.666595 L117.839875,330.793064 L117.978045,331.009699 C118.240255,331.397318 118.604115,331.812682 119.059767,332.240644 L119.295197,332.455604 L119.592125,332.711892 L119.742457,332.836315 L119.890249,332.955516 L120.225324,333.215244 L130.796878,340.999765 L126.793887,353.288922 L126.675632,353.695946 L126.579002,354.062154 L126.493683,354.424436 L126.392546,354.936424 L126.340244,355.273939 L126.305911,355.558239 L126.281217,355.863162 C126.141398,358.196628 127.237256,358.723657 129.906537,357.22601 L130.308435,356.992364 L130.63586,356.789968 L130.983758,356.561873 L131.156068,356.444277 L131.327477,356.324334 L141.762096,348.858425 L152.189363,356.321638 L152.533671,356.559783 L152.696958,356.668465 L153.028452,356.88027 L153.361615,357.080433 L153.657843,357.247303 L153.970129,357.410391 C156.353463,358.604504 157.323134,358.151663 157.250515,356.063803 L157.241747,355.880839 L157.2172,355.575137 C157.154504,354.951058 157.00672,354.236339 156.772746,353.442349 L156.667191,353.097248 L152.820094,340.949924 L163.284704,333.22589 L163.62489,332.962555 C163.861721,332.774348 164.082226,332.588152 164.281201,332.409158 L164.472806,332.232757 L164.726941,331.985181 C164.897799,331.812921 165.052422,331.644009 165.184858,331.486577 L165.309678,331.333274 L165.478848,331.107729 C166.515524,329.65254 166.102694,328.806164 163.899996,328.360577 L163.688239,328.319971 L163.361682,328.265926 L162.999349,328.21852 L162.632106,328.181805 L162.257146,328.154801 L161.836106,328.135716 L161.407798,328.126931 L148.703719,328.013407 L144.455723,315.717858 L144.384779,315.518689 L144.226126,315.100483 Z"/>
    <polygon fill="#F7AE55" points="146.409 331.204 141.763 317.759 137.242 331.199 123.075 331.328 134.568 339.789 130.202 353.182 141.762 344.911 153.328 353.188 149.066 339.73 160.449 331.328"/>
    <path fill="#212121" d="M201.123494,315.100483 L201.036633,314.885216 L200.85349,314.456527 C199.603755,311.65066 198.388821,311.370377 197.145898,313.225381 L197.054901,313.364918 L196.886085,313.643071 C196.779048,313.827918 196.673589,314.027025 196.571858,314.235963 L196.422324,314.556189 L196.262904,314.927208 L196.116662,315.295915 L195.966253,315.707092 L195.891778,315.923443 L191.824803,328.009858 L178.869073,328.128748 L178.597064,328.135242 L178.175911,328.154176 C177.580854,328.188769 177.045594,328.255031 176.58613,328.34772 L176.319676,328.406463 L176.028629,328.482671 C174.432613,328.938611 174.067939,329.587214 174.664196,330.666595 L174.737244,330.793064 L174.875414,331.009699 C175.137623,331.397318 175.501484,331.812682 175.957136,332.240644 L176.192565,332.455604 L176.489493,332.711892 L176.639826,332.836315 L176.787618,332.955516 L177.122692,333.215244 L187.694246,340.999765 L183.691255,353.288922 L183.573001,353.695946 L183.505822,353.946491 L183.391052,354.424436 L183.289914,354.936424 L183.237612,355.273939 L183.20328,355.558239 L183.178586,355.863162 C183.059228,357.855145 183.840349,358.530719 185.732056,357.754117 L186.067267,357.606735 C186.355741,357.47202 186.667125,357.30751 187.002032,357.11281 L187.205803,356.992364 L187.533229,356.789968 L187.881127,356.561873 L188.053437,356.444277 L188.224845,356.324334 L198.659465,348.858425 L209.086732,356.321638 L209.43104,356.559783 L209.594327,356.668465 L209.92582,356.88027 L210.258983,357.080433 L210.555212,357.247303 L210.867498,357.410391 C213.250832,358.604504 214.220502,358.151663 214.147884,356.063803 L214.139116,355.880839 L214.114568,355.575137 C214.051873,354.951058 213.904088,354.236339 213.670114,353.442349 L213.564559,353.097248 L209.717462,340.949924 L220.182072,333.22589 L220.522259,332.962555 C220.759089,332.774348 220.979594,332.588152 221.178569,332.409158 L221.370175,332.232757 L221.62431,331.985181 C221.795167,331.812921 221.94979,331.644009 222.082227,331.486577 L222.207047,331.333274 L222.376217,331.107729 C223.412892,329.65254 223.000063,328.806164 220.797365,328.360577 L220.585608,328.319971 L220.259051,328.265926 L219.896718,328.21852 L219.529475,328.181805 L219.154514,328.154801 L218.733474,328.135716 L218.305166,328.126931 L205.601087,328.013407 L201.282148,315.518689 L201.123494,315.100483 Z"/>
    <polygon fill="#F7AE55" points="203.307 331.204 198.661 317.759 194.139 331.199 179.973 331.328 191.466 339.789 187.099 353.182 198.66 344.911 210.225 353.188 205.963 339.73 217.347 331.328"/>
    <path fill="#212121" d="M257.934002,314.885216 L257.842365,314.666347 L257.659475,314.255721 C256.441842,311.638258 255.255874,311.415621 254.043266,313.225381 L253.95227,313.364918 L253.783453,313.643071 C253.676417,313.827918 253.570958,314.027025 253.469226,314.235963 L253.319693,314.556189 L253.160272,314.927208 L253.084932,315.113595 L253.014031,315.295915 L252.863621,315.707092 L248.722172,328.009858 L235.766441,328.128748 L235.494432,328.135242 L235.07328,328.154176 C234.478222,328.188769 233.942962,328.255031 233.483499,328.34772 L233.217044,328.406463 L232.925997,328.482671 C231.329982,328.938611 230.965307,329.587214 231.561564,330.666595 L231.634612,330.793064 L231.772782,331.009699 C232.034992,331.397318 232.398852,331.812682 232.854504,332.240644 L233.089934,332.455604 L233.386862,332.711892 L233.684986,332.955516 L234.020061,333.215244 L244.591614,340.999765 L240.588624,353.288922 L240.470369,353.695946 L240.373738,354.062154 L240.28842,354.424436 L240.187283,354.936424 L240.134981,355.273939 L240.100648,355.558239 L240.075954,355.863162 C239.942955,358.082801 240.928021,358.667941 243.32184,357.43075 L243.701274,357.22601 L244.103172,356.992364 L244.430597,356.789968 L244.778495,356.561873 L245.122213,356.324334 L255.556833,348.858425 L265.9841,356.321638 L266.328408,356.559783 L266.491695,356.668465 L266.823189,356.88027 L267.156352,357.080433 L267.45258,357.247303 L267.764866,357.410391 C270.1482,358.604504 271.117871,358.151663 271.045252,356.063803 L271.036484,355.880839 L271.011937,355.575137 C270.949241,354.951058 270.801457,354.236339 270.567483,353.442349 L270.461928,353.097248 L266.61483,340.949924 L277.079441,333.22589 L277.419627,332.962555 C277.656458,332.774348 277.876963,332.588152 278.075938,332.409158 L278.267543,332.232757 L278.521678,331.985181 C278.692536,331.812921 278.847159,331.644009 278.979595,331.486577 L279.104415,331.333274 L279.273585,331.107729 C280.310261,329.65254 279.897431,328.806164 277.694733,328.360577 L277.482976,328.319971 L277.156419,328.265926 L276.794086,328.21852 L276.426843,328.181805 L276.051883,328.154801 L275.630843,328.135716 L275.202535,328.126931 L262.498456,328.013407 L258.25046,315.717858 L258.179516,315.518689 L258.020862,315.100483 L257.934002,314.885216 Z"/>
    <polygon fill="#F7AE55" points="260.204 331.204 255.558 317.759 251.036 331.199 236.87 331.328 248.363 339.789 243.997 353.182 255.557 344.911 267.123 353.188 262.861 339.73 274.244 331.328"/>
    <path fill="#212121" d="M314.918231,315.100483 L314.83137,314.885216 L314.648226,314.456527 C313.398492,311.65066 312.183558,311.370377 310.940635,313.225381 L310.849638,313.364918 L310.680822,313.643071 C310.573785,313.827918 310.468326,314.027025 310.366595,314.235963 L310.217061,314.556189 L310.057641,314.927208 L309.911399,315.295915 L309.76099,315.707092 L305.61954,328.009858 L292.66381,328.128748 L292.391801,328.135242 L291.970648,328.154176 C291.375591,328.188769 290.840331,328.255031 290.380867,328.34772 L290.114413,328.406463 L289.823366,328.482671 C288.22735,328.938611 287.862676,329.587214 288.458933,330.666595 L288.531981,330.793064 L288.67015,331.009699 C288.93236,331.397318 289.296221,331.812682 289.751873,332.240644 L289.987302,332.455604 L290.28423,332.711892 L290.434562,332.836315 L290.582355,332.955516 L290.917429,333.215244 L301.488983,340.999765 L297.485992,353.288922 L297.367737,353.695946 L297.271107,354.062154 L297.185789,354.424436 L297.084651,354.936424 L297.032349,355.273939 L296.998017,355.558239 L296.973323,355.863162 C296.833503,358.196628 297.929362,358.723657 300.598642,357.22601 L301.00054,356.992364 L301.327966,356.789968 L301.675864,356.561873 L301.848174,356.444277 L302.019582,356.324334 L312.454202,348.858425 L322.881469,356.321638 L323.225776,356.559783 L323.389064,356.668465 L323.720557,356.88027 L324.05372,357.080433 L324.349948,357.247303 L324.662235,357.410391 C327.045569,358.604504 328.015239,358.151663 327.942621,356.063803 L327.933852,355.880839 L327.909305,355.575137 C327.846609,354.951058 327.698825,354.236339 327.464851,353.442349 L327.359296,353.097248 L323.512199,340.949924 L333.899083,333.284102 L334.316996,332.962555 C334.553826,332.774348 334.774331,332.588152 334.973306,332.409158 L335.164911,332.232757 L335.419047,331.985181 C335.589904,331.812921 335.744527,331.644009 335.876963,331.486577 L336.001783,331.333274 L336.170953,331.107729 C337.207629,329.65254 336.7948,328.806164 334.592102,328.360577 L334.380345,328.319971 L334.053788,328.265926 L333.691454,328.21852 L333.324212,328.181805 L332.949251,328.154801 L332.528211,328.135716 L332.099903,328.126931 L319.395824,328.013407 L315.147828,315.717858 L315.076885,315.518689 L314.918231,315.100483 Z"/>
    <polygon fill="#F7AE55" points="317.101 331.204 312.455 317.759 307.934 331.199 293.767 331.328 305.26 339.789 300.894 353.182 312.455 344.911 324.02 353.188 319.758 339.73 331.142 331.328"/>
    <path fill="#212121" d="M371.815599,315.100483 L371.637102,314.666347 L371.454212,314.255721 C370.236578,311.638258 369.050611,311.415621 367.838003,313.225381 L367.747007,313.364918 L367.57819,313.643071 C367.471153,313.827918 367.365695,314.027025 367.263963,314.235963 L367.11443,314.556189 L366.955009,314.927208 L366.879669,315.113595 L366.808767,315.295915 L366.658358,315.707092 L366.583884,315.923443 L362.516909,328.009858 L349.561178,328.128748 L349.289169,328.135242 L348.868016,328.154176 C348.272959,328.188769 347.737699,328.255031 347.278236,328.34772 L347.011781,328.406463 L346.720734,328.482671 C345.124718,328.938611 344.760044,329.587214 345.356301,330.666595 L345.429349,330.793064 L345.567519,331.009699 C345.829728,331.397318 346.193589,331.812682 346.649241,332.240644 L346.884671,332.455604 L347.181599,332.711892 L347.331931,332.836315 L347.479723,332.955516 L347.814798,333.215244 L358.386351,340.999765 L354.38336,353.288922 L354.265106,353.695946 L354.197927,353.946491 L354.083157,354.424436 L353.98202,354.936424 L353.929717,355.273939 L353.895385,355.558239 L353.870691,355.863162 C353.737692,358.082801 354.722757,358.667941 357.116577,357.43075 L357.496011,357.22601 L357.897908,356.992364 L358.225334,356.789968 L358.573232,356.561873 L358.745542,356.444277 L358.91695,356.324334 L369.35157,348.858425 L379.778837,356.321638 L380.123145,356.559783 L380.286432,356.668465 L380.617925,356.88027 L381.054937,357.140156 L381.247317,357.247303 L381.559603,357.410391 C383.942937,358.604504 384.912607,358.151663 384.839989,356.063803 L384.831221,355.880839 L384.806674,355.575137 C384.743978,354.951058 384.596194,354.236339 384.362219,353.442349 L384.256665,353.097248 L380.409567,340.949924 L390.874178,333.22589 L391.214364,332.962555 C391.451195,332.774348 391.6717,332.588152 391.870674,332.409158 L392.06228,332.232757 L392.316415,331.985181 C392.487272,331.812921 392.641896,331.644009 392.774332,331.486577 L392.899152,331.333274 L393.068322,331.107729 C394.104997,329.65254 393.692168,328.806164 391.48947,328.360577 L391.277713,328.319971 L390.951156,328.265926 L390.588823,328.21852 L390.22158,328.181805 L389.84662,328.154801 L389.42558,328.135716 L388.997272,328.126931 L376.293193,328.013407 L371.974253,315.518689 L371.815599,315.100483 Z"/>
    <polygon fill="#F7AE55" points="373.999 331.204 369.353 317.759 364.831 331.199 350.665 331.328 362.158 339.789 357.791 353.182 369.352 344.911 380.917 353.188 376.656 339.73 388.039 331.328"/>
    <path fill="#212121" d="M265.653333,2.37531276 L267.093333,3.68306922 L269.066667,3.01584654 L269.501267,2.87396781 L269.501267,2.87396781 L269.895155,2.75383153 C270.776463,2.49789704 271.427518,2.40920748 272.563996,2.41553367 L273.082863,2.42385161 L273.082863,2.42385161 L274.589784,2.47675532 L274.589784,2.47675532 L275.111605,2.50183795 L275.111605,2.50183795 L275.574167,2.53211009 C275.646806,2.53767028 275.717338,2.54350848 275.785945,2.54965558 L276.175937,2.59049208 C276.915521,2.68056714 277.430104,2.82402002 278.033021,3.07422852 L278.343291,3.2084762 C278.396713,3.2324159 278.451111,3.25715874 278.506667,3.28273561 L280.053333,4.00333611 L281.68,3.46955796 C283.68,2.80233528 287.44,2.74895746 289.733333,3.33611343 C295.013333,4.69724771 299.146667,9.20767306 300,14.5187656 L300.32,16.4670559 L301.706667,16.7873228 C304.387556,17.3807061 307.193037,19.4704476 308.485134,21.8270396 L309.28,23.352794 L311.253333,23.2460384 C316.026667,23.059216 320.506667,25.6747289 322.613333,29.8915763 C322.833131,30.3315389 323.018451,30.9456043 323.189429,31.6295866 L323.315288,32.1540548 L323.315288,32.1540548 L323.740694,34.0551491 L323.740694,34.0551491 L323.865711,34.5767298 C324.162522,35.7654642 324.500202,36.7295979 324.986667,36.910759 C325.271758,37.0155736 325.55669,37.0972673 325.838884,37.1668893 L326.12007,37.2328966 L326.537173,37.3221889 L326.537173,37.3221889 L327.081573,37.4359945 L327.369,37.5013048 L327.369,37.5013048 L327.650546,37.5732366 C329.088761,37.967344 330.262444,38.751073 330.721181,41.8539457 C330.371941,43.86614 331.683595,46.9797976 334.654977,51.1945554 C370.52048,76.1167425 394,117.616403 394,164.6 C394,240.815295 332.215295,302.6 256,302.6 C179.784705,302.6 118,240.815295 118,164.6 C118,112.465952 146.909434,67.0840645 189.571917,43.6107222 C189.262443,42.7569533 188.955641,41.9482328 188.651511,41.1845606 C188.652102,41.0350377 188.594302,40.8742693 188.504321,40.6734921 L188.24,40.1000834 L188.24,40.1000834 C187.306667,38.0717264 187.36,35.0025021 188.346667,32.9741451 C189.28,31.0525438 191.253333,29.264387 193.76,28.0100083 L195.653333,27.0758966 L195.813333,24.647206 C195.86378,23.8057201 196.660084,21.9731342 198.6,21.4767208 C199.736442,21.1859118 201.4,21.4767208 202.906667,21.8849041 C204.078519,22.20238 204.540576,21.6708114 204.826081,20.8538009 L204.903311,20.613089 L204.903311,20.613089 L205.007185,20.2292846 C205.018217,20.1854282 205.029136,20.1412288 205.04,20.0967473 C205.733333,17.3744787 207.44,14.8924103 209.653333,13.3177648 C211.244912,12.2052588 213.57843,11.308334 215.089391,11.2170027 L215.577686,11.2032272 C216.173498,11.1674955 216.352593,10.9513483 216.826667,9.95496247 C217.84,7.84653878 220.053333,5.84487073 222.533333,4.80400334 L222.981435,4.61789145 C223.052245,4.58914836 223.121285,4.56150959 223.188802,4.53492494 L223.577633,4.38766488 C224.45158,4.07169941 225.124763,3.94266441 226.280006,3.86282164 L227.095787,3.81691533 L227.095787,3.81691533 L227.733333,3.78982485 L227.733333,3.78982485 L228.101898,3.77797685 L228.101898,3.77797685 L228.78679,3.76350663 L228.78679,3.76350663 L229.408802,3.76188662 L229.408802,3.76188662 L229.976054,3.77377581 C230.880352,3.80521491 231.59032,3.89568811 232.275139,4.05892428 L234.16,4.53711426 L235.226667,3.73644704 C235.383111,3.62257437 235.602133,3.4916208 235.861989,3.35269614 L236.27968,3.13946956 C236.648747,2.95869669 237.064628,2.77258604 237.484855,2.59893022 L237.988496,2.39766027 C238.155259,2.33332221 238.32,2.27211565 238.48,2.21517932 L238.903861,2.07054378 L238.903861,2.07054378 L239.288924,1.94577341 L239.288924,1.94577341 L239.646096,1.8394125 C239.703907,1.82313894 239.76101,1.80757177 239.817633,1.79268069 L240.153424,1.71120454 C240.320256,1.67428033 240.486856,1.64289494 240.659361,1.61622956 L241.01406,1.5689495 C241.13613,1.55512551 241.262641,1.54315668 241.395413,1.5328004 L241.814328,1.50632656 L241.814328,1.50632656 L242.281713,1.48807229 L242.281713,1.48807229 L242.808478,1.47658187 L242.808478,1.47658187 L243.733824,1.46884414 L243.733824,1.46884414 L244.4,1.46788991 L245.087592,1.47598284 L245.087592,1.47598284 L245.997227,1.49585988 L245.997227,1.49585988 L246.533472,1.51558491 L246.533472,1.51558491 L247.022367,1.54154104 L247.022367,1.54154104 L247.471449,1.57463017 L247.471449,1.57463017 L247.888254,1.61575414 L247.888254,1.61575414 L248.28032,1.66581485 L248.28032,1.66581485 L248.655183,1.72571415 C248.716645,1.73656735 248.777704,1.74786808 248.838518,1.75963511 L249.201707,1.83598332 L249.201707,1.83598332 L249.566534,1.92442481 L249.566534,1.92442481 L249.940536,2.02586144 L249.940536,2.02586144 L250.749856,2.25339809 L250.749856,2.25339809 L251.084251,2.34308897 L251.084251,2.34308897 L251.365847,2.41306384 L251.365847,2.41306384 L251.601927,2.46339557 C251.997466,2.53770875 252.200243,2.51335527 252.412198,2.39235625 L252.529935,2.31678424 L252.529935,2.31678424 L252.656774,2.22211576 L252.656774,2.22211576 L252.8,2.10842369 L252.8,2.10842369 C253.68,1.41451209 255.546667,0.587155963 256.906667,0.266889074 C260.053333,-0.453711426 263.44,0.346955796 265.653333,2.37531276 Z"/>
    <path fill="#26A69A" d="M311.413333,280.567139 C312.906667,283.316097 313.28,284.170142 312.96,284.170142 C312.906667,284.170142 311.946667,284.597164 310.8,285.104254 L308.746667,286.038365 L308.906667,284.783987 C308.967843,284.232939 309.10699,283.01079 309.228708,281.750083 L309.2833,281.167784 C309.300854,280.974307 309.317647,280.78222 309.333333,280.593828 C309.466667,278.992494 309.626667,277.658048 309.68,277.604671 C309.733333,277.551293 310.506667,278.885738 311.413333,280.567139 Z M189.226667,272.960801 C189.157333,273.296191 188.967822,274.293111 188.775307,275.328286 L188.686667,275.806505 C188.466667,276.997498 188.266667,278.11176 188.266667,278.191827 C188.266667,278.432027 187.786667,278.245204 186.586667,277.471226 L185.306667,276.670559 L186.106667,275.683069 C186.533333,275.149291 187.44,274.161802 188.133333,273.494579 C189.226667,272.427023 189.36,272.373645 189.226667,272.960801 Z M333.173333,57.3944954 L335.866667,59.4228524 C342.56,64.4937448 351.653333,73.1943286 357.093333,79.7331109 C374.373333,100.52377 384.693333,125.211009 387.36,152.06005 C388,158.518766 388,170.768974 387.36,177.147623 C384.666667,204.263553 374.106667,229.324437 356.613333,250.168474 C355.12,251.903253 353.626667,253.611343 353.28,253.958299 L352.613333,254.572143 L350.586667,249.28774 C341.927467,226.740951 339.401515,220.439123 336.393989,214.267917 L336.188107,213.847166 L335.980266,213.425685 C335.701632,212.862719 335.416533,212.294779 335.12,211.709758 C332.586667,206.745621 329.573333,201.808173 327.12,198.71226 C319.36,188.730609 309.28,181.257715 298.16,177.174312 C292.72,175.172644 287.786667,174.211843 281.733333,173.971643 L277.493333,173.81151 L277.093333,171.809842 C276.533333,168.820684 276.56,160.093411 277.146667,156.864053 C278.106667,151.659716 279.573333,146.722269 282.106667,140.130108 L282.96,137.968307 L284.4,138.608841 C286.88,139.756464 289.333333,140.130108 294,140.156797 C298.64,140.156797 301.493333,139.756464 305.146667,138.555463 C312.106667,136.260217 316.48,129.427857 317.6,118.992494 C318.293333,112.880734 317.52,107.35613 315.413333,102.872394 L314.293333,100.52377 L315.146667,97.2677231 C317.653333,87.793161 321.44,72.2869058 322.426667,67.5629691 L323.573333,62.2251877 L325.386667,61.9316097 C327.733333,61.557965 329.813333,60.5437865 331.68,58.7823186 L333.173333,57.3944954 Z M193.76,47.7331109 L194.213333,52.0033361 C194.666667,56.2201835 195.173333,58.381985 195.893333,59.2093411 C196.106667,59.4495413 196.213333,59.6897415 196.16,59.7431193 C196.106667,59.7964971 195.866667,62.7856547 195.626667,66.3886572 C195.5744,67.1701084 195.521621,67.9548904 195.468419,68.741828 L195.38831,69.9237042 L195.307633,71.1079325 L195.226453,72.2936314 C195.212885,72.4913214 195.199299,72.6890361 195.185696,72.8867569 L195.021747,75.2585288 C193.896198,91.4652261 192.695214,107.218933 192.185289,112.369881 L192.150051,112.719637 C192.144378,112.774878 192.138805,112.828583 192.133333,112.880734 C190.373333,129.427857 190.56,137.861551 192.933333,146.055046 C193.813333,149.070892 196.08,153.848207 197.92,156.543786 C199.893333,159.3995 205.2,164.657214 208.133333,166.658882 C211.04,168.633862 215.653333,170.955796 218.533333,171.916597 C222.986667,173.411176 228.373333,174.478732 231.493333,174.478732 L232.986667,174.478732 L232.96,177.120934 L232.933333,179.763136 L231.733333,179.949958 C227.2,180.590492 221.013333,182.698916 216.266667,185.207673 C215.338667,185.704087 214.451755,186.193967 213.571371,186.703509 L213.131563,186.96004 L212.753466,187.183832 C212.56434,187.296546 212.37502,187.410544 212.185163,187.526086 L211.804631,187.759308 C211.741056,187.798547 211.677396,187.837977 211.613638,187.877608 L211.229814,188.117876 C205.836992,191.517475 199.5744,196.468199 184.90218,208.684997 L183.839761,209.57006 C183.121811,210.168443 182.384384,210.78361 181.626667,211.41618 C176,216.140117 168.373333,222.41201 164.693333,225.401168 C157.04,231.619683 153.76,234.422018 150.106667,237.944954 C148.693333,239.279399 147.493333,240.400334 147.44,240.400334 C147.386667,240.400334 146.293333,238.798999 145.04,236.850709 C133.68,219.396163 126.773333,199.913261 124.346667,178.69558 C124.076667,176.300402 123.913983,171.485759 123.869014,166.504676 L123.861593,165.506908 L123.861593,165.506908 L123.856888,164.324127 L123.856649,163.147406 C123.864666,158.461532 123.980606,154.081128 124.213333,151.926606 C126.24,133.511259 131.173333,117.231026 139.253333,102.285238 C145.786667,90.1951626 152.853333,80.7206005 162.666667,70.9257715 C171.626667,61.9316097 180.906667,54.9391159 192.293333,48.5604671 L193.76,47.7331109 Z"/>
    <path fill="#37474F" d="M317.173333,45.8648874 C316.266667,45.5446205 314,44.3169308 312.106667,43.1426188 C308.373333,40.8740617 306.613333,40.1267723 304.88,40.1000834 C304.266667,40.1000834 302.24,40.4203503 300.346667,40.793995 C294.053333,42.0483736 291.333333,41.4345288 288.213333,37.9916597 L286.586667,36.176814 L284.426667,37.1909925 C279.173333,39.6997498 273.973333,39.9933278 269.493333,38.0183486 C268,37.3511259 265.093333,35.3494579 263.706667,34.0417014 C262.56,32.9474562 262.32,32.9741451 259.733333,34.4954128 C256.586667,36.3369475 253.413333,36.8173478 250.48,35.9633028 C249.333333,35.616347 248.826667,35.2427023 247.306667,33.5346122 C246.32,32.440367 245.146667,31.3461218 244.693333,31.1059216 C243.626667,30.5454545 241.973333,30.7589658 237.92,31.9332777 C232.16,33.6146789 229.733333,33.1075897 227.226667,29.7981651 C226.56,28.9174312 225.893333,27.9566305 225.733333,27.7164304 C225.493333,27.2894078 225.386667,27.3160967 224.24,27.9299416 C220.133333,30.2251877 214.746667,30.5721435 211.2,28.7572977 C208.906667,27.5562969 208.986667,27.7698082 209.28,24.5404504 C209.493333,22.2452043 209.706667,21.4445371 210.24,20.5104254 C211.573333,18.2151793 214.08,16.6672227 217.146667,16.2135113 C218.293333,16.0266889 218.533333,15.8665555 219.573333,14.5054212 C221.12,12.5037531 222.88,10.9024187 224.453333,10.1284404 C227.173333,8.74061718 231.173333,8.60717264 232.853333,9.83486239 C233.333333,10.1818182 233.92,10.4753962 234.186667,10.4753962 C234.48,10.4753962 236.026667,9.91492911 237.68,9.24770642 C242.533333,7.21934946 245.226667,6.73894912 248.773333,7.27272727 C250.346667,7.48623853 250.826667,7.67306088 251.253333,8.20683903 C252.08,9.27439533 253.12,9.08757298 255.546667,7.48623853 C257.333333,6.31192661 257.893333,6.09841535 259.2,5.99165972 C261.146667,5.85821518 262.586667,6.47206005 264.64,8.31359466 C266.48,9.96830692 267.093333,10.0483736 270.053333,8.8206839 C271.706667,8.12677231 272.506667,7.96663887 274,7.96663887 C276.32,7.96663887 277.68,8.42035029 278.08,9.27439533 C278.533333,10.2885738 279.52,10.3686405 282.24,9.64804003 C285.76,8.71392827 288.693333,8.76730609 290.72,9.75479566 C293.44,11.089241 295.52,13.971643 296.133333,17.2010008 C296.293333,18.028357 296.746667,20.4892312 298,21.4767208 C298.613333,21.9571211 301.613333,22.6376883 302.2,22.8778884 C303.506667,23.4116666 305.013333,25.0742285 305.893333,26.6221852 C307.253333,29.0241868 307.546667,29.1843203 310.853333,29.3444537 C314.106667,29.4778982 315.173333,29.7447873 316.586667,30.6788991 C318.64,32.0667223 319.44,33.9883236 319.706667,38.205171 C319.92,41.6747289 322.173333,41.8270127 324.6,42.4942354 C326.893333,43.1347692 326.933333,45.1976647 326.933333,45.2777314 C326.933333,45.4337775 326.214402,46.4623299 324.6,46.6977383 C322.348795,47.0260038 318.819493,46.4865977 317.173333,45.8648874 Z"/>
    <path fill="#A56250" d="M232.266667,200.206839 C232.266667,200.020017 233.68,196.043369 234.24,194.628857 C234.48,194.041701 234.933333,193.427857 235.28,193.294412 C236.053333,192.947456 236.48,192.013344 236.8,189.798165 C237.253333,186.648874 237.04,179.042535 236.373333,175.492911 L236.186667,174.478732 L237.866667,174.478732 C239.76,174.478732 244.746667,173.784821 245.813333,173.384487 C246.666667,173.06422 246.933333,172.690575 246.933333,171.783153 C246.933333,170.849041 246.16,169.941618 245.333333,169.88824 C244.96,169.88824 243.226667,170.021685 241.493333,170.208507 C237.066667,170.688907 229.813333,170.448707 226.08,169.701418 C222.373333,168.954128 216.72,167.005838 213.866667,165.511259 C204.746667,160.653878 197.893333,151.713094 195.76,141.864887 C194.026667,133.804837 194.293333,124.890742 197.2,94.5454545 C198.8,77.9449541 199.706667,70.35196 199.92,63.6530442 C200.106667,57.5145955 200.026667,57.8081735 202.773333,53.1376147 C203.76,51.4829024 206.8,47.3728107 207.066667,47.3728107 C207.093333,47.3728107 207.573333,47.7998332 208.106667,48.3069224 C210.106667,50.175146 214.16,50.5487907 217.626667,49.1342786 C218.986667,48.6005004 219.226667,48.5471226 219.52,48.8940784 C220.346667,49.9082569 221.973333,50.442035 224.266667,50.442035 C226.24,50.442035 226.72,50.3352794 228.106667,49.6413678 C228.986667,49.2143453 230.266667,48.3336113 230.986667,47.6930776 L232.266667,46.5187656 L233.466667,47.5863219 C235.173333,49.1876564 236.266667,49.58799 238.933333,49.6146789 C240.986667,49.6413678 241.386667,49.5613011 242.933333,48.7873228 L244.64,47.9599666 L245.653333,48.8140117 C248.08,50.8957465 253.04,51.1359466 255.413333,49.294412 C256.026667,48.8140117 256.08,48.8140117 257.146667,49.3477898 C259.36,50.442035 262.8,49.881568 265.2,48.0400334 L266.053333,47.3994996 L266.533333,48.5204337 C267.2,50.0417014 270.026667,52.8440367 271.146667,53.1109258 C272.16,53.324437 272.16,53.2443703 271.546667,57.5946622 C270.853333,62.4253545 270.88,72.4737281 271.573333,76.9307756 C272.613333,83.8165138 273.813333,87.4195163 277.733333,95.4795663 C279.386667,98.9224354 280.986667,102.552127 281.306667,103.512927 C281.92,105.567973 282.4,108.770642 282.4,110.825688 C282.4,112.507089 282.826667,113.094245 284.106667,113.094245 C285.066667,113.094245 285.68,112.560467 286,111.492911 C286.453333,109.918265 289.973333,103.192661 291.253333,101.511259 C292,100.497081 293.333333,99.1626355 294.213333,98.5221018 C296.32,96.9741451 298.133333,96.440367 300.96,96.6005004 C306.64,96.8940784 310.986667,101.324437 312.826667,108.690575 C314.266667,114.482068 313.04,124.063386 310.266667,128.707256 C307.253333,133.724771 302.826667,135.619683 294.133333,135.592994 C288.586667,135.566305 285.253333,134.498749 282.266667,131.77648 C280.4,130.06839 279.306667,130.015013 278.533333,131.53628 C277.973333,132.603837 278.026667,132.897415 279.04,134.418682 L279.973333,135.779817 L278.266667,139.329441 C275.36,145.387823 273.52,151.713094 272.773333,158.17181 C272.4,161.561301 272.613333,169.808173 273.146667,172.423686 L273.52,174.238532 L269.093333,177.494579 C255.946667,187.23603 246.08,193.454545 235.28,198.872394 C233.626667,199.69975 232.266667,200.313595 232.266667,200.206839 Z"/>
    <path fill="#FF9800" d="M288.666667,293.351126 C287.84,293.084237 274.906667,291.242702 267.6,290.30859 C247.573333,287.799833 227.466667,286.598832 211.866667,286.945788 L204.133333,287.132611 L201.6,286.038365 C198.08,284.490409 192.24,281.474562 192.106667,281.100917 C192,280.834028 193.653333,270.078399 194.053333,268.503753 L194.186667,267.889908 L212.373333,267.889908 C239.84,267.889908 248.986667,268.503753 267.066667,271.492911 C276.986667,273.120934 304.666667,278.859049 305.2,279.392827 C305.306667,279.526272 304.08,288.467056 303.946667,288.573812 C303.573333,288.814012 296.266667,291.29608 293.866667,292.016681 C289.733333,293.24437 288.986667,293.431193 288.666667,293.351126 Z"/>
    <path fill="#FF9800" d="M313.253333,274.775646 C310.986667,270.905755 308.32,266.315263 307.333333,264.553795 C306.346667,262.792327 304.906667,260.28357 304.133333,258.949124 C303.36,257.641368 301.2,253.904921 299.333333,250.675563 C294.026667,241.521268 289.066667,233.140951 288.346667,232.206839 C287.946667,231.646372 287.466667,231.326105 287.093333,231.326105 C286.373333,231.326105 285.6,232.100083 285.6,232.793995 C285.6,233.327773 290.666667,242.93578 296.106667,252.783987 C297.813333,255.853211 299.2,258.361968 299.2,258.415346 C299.2,258.442035 297.2,258.06839 294.746667,257.58799 C276.853333,254.038365 256.053333,251.769808 232.933333,250.809008 C219.76,250.275229 206.906667,250.75563 198.4,252.116764 C197.6,252.250209 196.906667,252.330275 196.88,252.303586 C196.853333,252.276897 198.106667,244.64387 199.626667,235.329441 C201.626667,223.3995 202.373333,218.195163 202.213333,217.714762 C202.08,217.367807 201.653333,216.940784 201.253333,216.807339 C199.893333,216.326939 199.653333,216.914095 198.133333,224.653878 C196,235.59633 194.08,245.818182 192.266667,255.693078 L190.613333,264.713928 L189.68,265.567973 C188.506667,266.662219 183.013333,272.266889 181.946667,273.494579 C180.96,274.615513 181.093333,274.668891 176.773333,271.439533 C171.68,267.59633 167.813333,264.260217 163.12,259.643036 C157.546667,254.145121 154.32,250.51543 153.12,248.326939 C152.613333,247.419516 151.733333,246.031693 151.146667,245.257715 C150.533333,244.483736 150.106667,243.816514 150.16,243.789825 C154.613333,240.587156 157.12,238.53211 163.866667,232.553795 C170.96,226.255213 187.973333,211.923269 197.333333,204.34362 C207.44,196.150125 215.226667,190.972477 222.586667,187.529608 C225.493333,186.168474 232.24,183.552961 232.826667,183.552961 C233.066667,183.552961 233.12,184.220183 232.986667,186.195163 C232.853333,188.783987 232.8,188.94412 231.226667,192.146789 C229.653333,195.349458 226.933333,202.849041 226.933333,204.023353 C226.933333,204.850709 228.026667,206.05171 228.826667,206.025021 C229.706667,206.025021 236.106667,203.276063 242.266667,200.233528 C250.906667,195.989992 259.173333,190.945788 266.213333,185.634696 C269.44,183.179316 274.373333,179.042535 275.306667,177.974979 C275.76,177.494579 276,177.441201 277.173333,177.547957 C300.053333,180.136781 315.066667,188.597164 326.053333,205.037531 C331.706667,213.524604 336.186667,223.266055 342.8,241.46789 C344.373333,245.791493 346.506667,251.502919 347.52,254.145121 L349.36,258.949124 L347.413333,260.76397 C340.266667,267.462886 332.106667,273.761468 324.906667,278.085071 C322.666667,279.446205 318.053333,281.76814 317.6,281.76814 C317.466667,281.76814 315.52,278.618849 313.253333,274.775646 Z"/>
    <path fill="#BC7D64" d="M223.2,168.980817 C212.08,165.938282 204.426667,160.200167 199.386667,151.125938 C196.826667,146.535446 195.44,141.624687 194.906667,135.326105 C194.48,130.175146 194.986667,118.058382 196,108.290242 C197.28,96.0667223 199.52,74.2218515 199.893333,67.469558 L200.08,63.9466222 L201.04,63.6263553 C201.573333,63.4662219 203.093333,62.8256881 204.4,62.2118432 L206.8,61.117598 L210.133333,61.1709758 C211.973333,61.1976647 216.72,61.1976647 220.666667,61.1709758 C234.906667,61.117598 236.773333,61.1709758 241.733333,61.7848207 C247.84,62.558799 251.546667,62.4253545 255.066667,61.3844871 C256.8,60.8773978 257.493333,60.7706422 257.573333,61.0108424 C257.84,61.8648874 259.6,63.412844 260.64,63.6797331 C261.706667,63.9733111 264.506667,63.8932444 265.36,63.5462886 C265.733333,63.3861551 265.813333,63.8665555 265.946667,67.4428691 C266.16,72.4336947 266.586667,71.1392827 268.293333,79.1993328 C271.36,93.6647206 271.6,95.5329441 271.6,106.021685 C271.6,114.215179 271.386667,117.231026 270.373333,122.969141 C269.6,127.452877 267.946667,133.591326 266.533333,137.247706 C260,154.195163 249.066667,163.829858 231.28,168.340284 C227.333333,169.354462 225.146667,169.514595 223.2,168.980817 Z"/>
    <path fill="#FFB74D" d="M284.666667,292.657214 C273.813333,290.922435 260.24,289.267723 248.8,288.333611 C235.2,287.185988 231.68,287.025855 217.466667,286.972477 L203.6,286.919099 L199.733333,285.104254 C194.746667,282.75563 192,281.261051 192,280.887406 C192,280.700584 192.48,277.764804 193.066667,274.348624 C193.653333,270.932444 194.133333,268.10342 194.133333,268.023353 C194.133333,267.783153 228.4,267.889908 234.8,268.156797 C246.213333,268.637198 253.92,269.437865 266.16,271.359466 C270.026667,271.973311 284.4,274.668891 288.506667,275.576314 L289.146667,275.709758 L288.96,278.939116 C288.773333,282.168474 288.133333,289.267723 287.786667,291.77648 L287.6,293.110926 L284.666667,292.657214 Z"/>
    <path fill="#FFB74D" d="M332.933333,271.786489 C332.64,271.572977 329.52,269.597998 326,267.35613 C318.666667,262.685571 312.266667,258.281902 307.466667,254.545455 C303.466667,251.422852 297.92,246.565471 296.293333,244.777314 C295.653333,244.056714 293.653333,240.960801 291.84,237.891576 C290.053333,234.849041 288.346667,232.100083 288.106667,231.833194 C287.226667,230.845705 285.6,231.45955 285.6,232.767306 C285.6,233.087573 286.24,234.608841 287.04,236.156797 L288.506667,238.932444 L288.693333,247.686405 C288.8,252.490409 288.8,256.413678 288.72,256.413678 C288.613333,256.413678 286.053333,256.013344 283.013333,255.506255 C261.733333,251.983319 229.84,249.848207 212.533333,250.782319 C207.093333,251.075897 197.493333,252.010008 197.013333,252.303586 C196.906667,252.383653 196.88,252.090075 196.933333,251.689741 C197.893333,246.405338 202.4,218.782319 202.4,218.221852 C202.4,217.261051 201.36,216.513761 200.4,216.753962 C199.573333,216.967473 199.6,216.914095 197.6,227.322769 C196.693333,231.93995 195.92,235.996664 195.866667,236.290242 C195.333333,238.825688 183.146667,254.065054 174.266667,263.299416 L170.88,266.822352 L168.96,265.16764 C165.946667,262.525438 159.093333,255.719766 156.586667,252.864053 C155.306667,251.422852 153.733333,249.314429 153.066667,248.166806 C152.4,247.019183 151.466667,245.604671 151.013333,245.017515 L150.133333,243.923269 L152.213333,242.375313 C155.013333,240.266889 159.36,236.637198 164.133333,232.340284 C169.76,227.322769 190.48,209.868224 198.533333,203.409508 C210.586667,193.721435 220.24,187.903253 229.706667,184.647206 C231.44,184.033361 232.933333,183.552961 233.013333,183.552961 C233.066667,183.552961 233.066667,184.780651 232.96,186.24854 C232.773333,188.890742 232.72,189.050876 231.066667,192.467056 C229.386667,195.856547 226.933333,202.768974 226.933333,204.050042 C226.933333,204.957465 227.36,205.597998 228.186667,205.944954 C228.88,206.211843 229.333333,206.105088 232.533333,204.770642 C237.6,202.662219 247.706667,197.618015 252.133333,195.029191 C259.813333,190.492077 267.44,185.074229 272.48,180.563803 C276.373333,177.094245 275.626667,177.387823 279.333333,177.841535 C287.893333,178.855713 296.693333,181.36447 303.306667,184.673895 C316.24,191.159299 325.12,201.007506 333.173333,217.714762 C336.16,223.959967 337.733333,227.829858 343.2,242.668891 C346.346667,251.209341 348.026667,255.719766 348.613333,257.134279 L349.28,258.788991 L346.853333,261.164304 C342.96,264.954128 334.213333,272.213511 333.626667,272.134101 C333.546667,272.134101 333.226667,271.973311 332.933333,271.786489 Z"/>
    <path fill="#FFCC80" d="M303.733333,274.668891 C300.906667,273.761468 290.773333,271.279399 285.866667,270.318599 C267.92,266.768974 243.76,264.073394 223.2,263.352794 C213.973333,263.032527 202.293333,263.432861 195.84,264.286906 L194.746667,264.447039 L195.44,260.230192 L196.16,256.013344 L204,255.853211 C241.653333,255.079233 247.226667,255.212677 266.666667,257.507923 C274.64,258.442035 278.48,259.002502 286.8,260.443703 C292.506667,261.431193 301.893333,263.272727 302,263.432861 C302.026667,263.45955 303.066667,265.354462 304.32,267.623019 L306.613333,271.7598 L306.32,273.574646 C306.16,274.562135 305.973333,275.362802 305.893333,275.336113 C305.813333,275.336113 304.826667,275.015847 303.733333,274.668891 Z"/>
    <path fill="#FFECB3" d="M246.133333 297.221018C238.346667 296.66055 227.866667 294.845705 220.533333 292.790659 215.973333 291.509591 216.053333 291.509591 228.666667 291.883236 239.226667 292.230192 243.36 292.470392 252.933333 293.24437 259.04 293.75146 275.733333 295.619683 275.973333 295.806505 276.24 296.046706 275.653333 296.18015 272.266667 296.553795 264.053333 297.487907 253.706667 297.754796 246.133333 297.221018zM289.2 270.932444C288.426667 270.692244 275.626667 268.370309 272.533333 267.916597 255.92 265.434529 234.906667 263.566305 220.053333 263.192661 213.04 263.005838 204.773333 263.326105 198.4 263.993328 196.56 264.206839 195.013333 264.313595 194.933333 264.260217 194.826667 264.126772 195.946667 256.867389 196.186667 256.226856 196.293333 255.959967 197.146667 255.8799 199.973333 255.8799 201.973333 255.8799 210.773333 255.746455 219.52 255.559633 239.626667 255.159299 246.8 255.3995 261.333333 256.947456 271.493333 258.015013 289.04 260.550459 289.493333 261.00417 289.733333 261.271059 289.466667 271.01251 289.2 270.932444z"/>
    <path fill="#212121" d="M235.20595 137.161163L235.28 137.16764C236 137.274395 236.506667 138.528774 236.106667 139.195997 235.706667 139.83653 232.186667 141.30442 229.226667 142.05171 226.293333 142.798999 221.706667 143.092577 218.666667 142.692244 215.786667 142.345288 212.24 141.277731 209.413333 139.889908 207.253333 138.87573 206.933333 138.608841 206.933333 138.021685 206.933333 137.674729 207.093333 137.301084 207.306667 137.221018 207.52 137.140951 208.746667 137.434529 210.053333 137.861551 214.48 139.382819 216.24 139.649708 221.333333 139.649708 226.32 139.623019 228.666667 139.249374 232.88 137.728107 233.866667 137.381151 234.96 137.114262 235.28 137.16764zM299.226667 103.085905C303.013333 101.75146 306.693333 104.206839 308.266667 109.090909 308.96 111.279399 308.826667 111.893244 307.6 111.893244 306.96 111.893244 306.8 111.733111 306.293333 110.265221 305.12 107.035863 303.786667 105.621351 301.893333 105.621351 299.04 105.64804 295.466667 109.117598 295.466667 111.866555 295.466667 112.373645 295.893333 113.788157 296.426667 114.989158 297.306667 117.017515 297.386667 117.36447 297.28 119.125938 297.093333 122.061718 295.626667 124.170142 292.933333 125.397832 291.68 125.984987 289.626667 126.065054 288.933333 125.557965 288.053333 124.890742 288.586667 123.956631 290.373333 123.102585 294 121.367807 295.093333 118.698916 293.306667 115.89658 291.573333 113.174312 291.333333 111.332777 292.4 109.170976 293.6 106.795663 296.773333 103.93995 299.226667 103.085905zM210.64 111.279399C211.866667 108.877398 215.44 106.155129 216.373333 106.929108 217.066667 107.516264 216.88 108.210175 215.866667 108.82402 214.586667 109.624687 213.36 111.466222 213.013333 113.201001 212.693333 114.69558 212.96 115.923269 214.213333 118.725605 214.586667 119.57965 214.586667 119.739783 214.24 120.246872 213.626667 121.127606 212.72 120.967473 211.653333 119.793161 209.786667 117.711426 209.333333 113.868224 210.64 111.279399zM240.56 88.8073394C242.72 87.8999166 243.52 90.9157631 242.96 97.8281902 242.666667 101.511259 242.32 102.605505 241.28 103.326105 240.213333 104.073394 239.2 103.726439 238.506667 102.365304 238.133333 101.644704 238.106667 101.00417 238.266667 98.442035 238.693333 91.4228524 239.173333 89.3678065 240.56 88.8073394zM205.253333 87.793161C206.186667 87.3394495 206.186667 87.3661384 206.8 88.06005 207.653333 89.0742285 207.84 90.6221852 207.653333 95.4795663 207.466667 100.176814 207.2 101.351126 206.213333 102.151793 205.066667 103.032527 203.946667 102.819016 203.306667 101.537948 202.8 100.603837 202.773333 98.735613 203.2 94.0116764 203.573333 89.7681401 204.026667 88.3803169 205.253333 87.793161zM237.2 70.6855713C239.44 67.6430359 242.186667 66.2552127 245.626667 66.442035 250.053333 66.7089241 254.133333 69.911593 254.133333 73.1676397 254.133333 73.7547957 253.973333 74.1284404 253.706667 74.235196 252.96 74.528774 252.8 74.4220183 250.826667 72.5537948 248.24 70.0984153 247.12 69.5379483 244.746667 69.5379483 242.4 69.5379483 240.106667 70.5788157 238.453333 72.3936614 237.253333 73.7014178 237.04 73.8081735 236.426667 73.1676397 235.84 72.5804837 235.866667 72.5271059 237.2 70.6855713zM203.36 67.7497915C207.28 66.6555463 211.733333 68.8707256 211.733333 71.8865721 211.733333 72.6605505 211.6 73.0608841 211.306667 73.1676397 210.426667 73.5145955 209.92 73.2743953 208.666667 71.9666389 207.2 70.4453711 206.586667 70.1251043 205.04 70.1251043 203.92 70.1251043 202.213333 70.8457048 201.626667 71.5663053 200.906667 72.4470392 199.52 71.7531276 199.866667 70.6855713 200.133333 69.8582152 202.266667 68.0433695 203.36 67.7497915zM129.616 411.672C136.912 411.672 142.096 407.832 142.096 401.352 142.096 394.706323 137.097257 392.723338 132.286865 391.237654L131.790122 391.085565C131.624907 391.035347 131.460129 390.985548 131.296 390.936 126.064 389.352 125.248 388.296 125.248 386.76 125.248 385.416 126.448 384.216 128.848 384.216 131.92 384.216 133.504 385.704 134.656 388.104L141.136 384.312C138.688 379.368 134.368 376.728 128.848 376.728 123.04 376.728 117.568 380.472 117.568 386.952 117.568 393.384 122.464 395.784 127.456 397.176 132.496 398.568 134.416 399.384 134.416 401.448 134.416 402.744 133.504 404.184 129.856 404.184 126.064 404.184 124 402.312 122.8 399.528L116.176 403.368C118.048 408.312 122.56 411.672 129.616 411.672zM149.296 384.888C151.648 384.888 153.616 382.92 153.616 380.568 153.616 378.216 151.648 376.248 149.296 376.248 146.944 376.248 144.976 378.216 144.976 380.568 144.976 382.92 146.944 384.888 149.296 384.888zM152.896 411L152.896 387 145.696 387 145.696 411 152.896 411zM172.24 411L172.24 404.472C169.072 404.664 167.296 404.472 167.296 402.408L167.296 393.912 172.24 393.912 172.24 387 167.296 387 167.296 380.28 160.096 382.44 160.096 387 156.256 387 156.256 393.912 160.096 393.912 160.096 402.408C160.096 409.128 162.832 411.96 172.24 411zM188.896 411.672C193.456 411.672 197.008 409.992 199.36 406.728L193.6 403.416C192.64 404.472 190.96 405.24 188.992 405.24 186.352 405.24 184.144 404.376 183.232 401.88L200.272 401.88C200.464 400.968 200.56 400.008 200.56 399 200.56 391.752 195.376 386.328 188.368 386.328 180.784 386.328 175.6 391.848 175.6 399 175.6 406.152 180.688 411.672 188.896 411.672zM193.408 396.504L183.088 396.504C183.76 394.056 185.584 392.712 188.32 392.712 190.48 392.712 192.64 393.72 193.408 396.504zM224.56 411L224.56 399.96 228.208 399.96 234.544 411 242.8 411 235.648 398.664C239.344 396.792 241.84 393.048 241.84 388.92 241.84 382.536 236.704 377.4 230.32 377.4L216.88 377.4 216.88 411 224.56 411zM230.32 393.24L224.56 393.24 224.56 384.6 230.32 384.6C232.432 384.6 234.16 386.472 234.16 388.92 234.16 391.368 232.432 393.24 230.32 393.24zM258.256 411.672C262.816 411.672 266.368 409.992 268.72 406.728L262.96 403.416C262 404.472 260.32 405.24 258.352 405.24 255.712 405.24 253.504 404.376 252.592 401.88L269.632 401.88C269.824 400.968 269.92 400.008 269.92 399 269.92 391.752 264.736 386.328 257.728 386.328 250.144 386.328 244.96 391.848 244.96 399 244.96 406.152 250.048 411.672 258.256 411.672zM262.768 396.504L252.448 396.504C253.12 394.056 254.944 392.712 257.68 392.712 259.84 392.712 262 393.72 262.768 396.504zM288.4 411L297.28 387 289.312 387 284.32 402.216 279.328 387 271.36 387 280.24 411 288.4 411zM303.52 384.888C305.872 384.888 307.84 382.92 307.84 380.568 307.84 378.216 305.872 376.248 303.52 376.248 301.168 376.248 299.2 378.216 299.2 380.568 299.2 382.92 301.168 384.888 303.52 384.888zM307.12 411L307.12 387 299.92 387 299.92 411 307.12 411zM324.496 411.672C329.056 411.672 332.608 409.992 334.96 406.728L329.2 403.416C328.24 404.472 326.56 405.24 324.592 405.24 321.952 405.24 319.744 404.376 318.832 401.88L335.872 401.88C336.064 400.968 336.16 400.008 336.16 399 336.16 391.752 330.976 386.328 323.968 386.328 316.384 386.328 311.2 391.848 311.2 399 311.2 406.152 316.288 411.672 324.496 411.672zM329.008 396.504L318.688 396.504C319.36 394.056 321.184 392.712 323.92 392.712 326.08 392.712 328.24 393.72 329.008 396.504zM352.24 411L356.08 398.184 359.92 411 366.64 411 374.32 387 366.64 387 363.184 399.864 359.44 387 352.72 387 348.976 399.864 345.52 387 337.84 387 345.52 411 352.24 411zM385.84 411.672C391.024 411.672 395.824 409.32 395.824 403.8 395.824 394.92 384.016 396.744 384.016 394.008 384.016 393.144 384.784 392.664 386.032 392.664 387.616 392.664 388.576 393.528 389.248 394.776L395.392 391.464C393.376 388.056 389.92 386.328 386.032 386.328 381.04 386.328 376.624 388.968 376.624 394.2 376.624 402.504 388.432 401.112 388.432 403.752 388.432 404.712 387.568 405.24 385.84 405.24 383.728 405.24 382.384 404.232 381.76 402.408L375.52 405.96C377.392 409.848 381.04 411.672 385.84 411.672z"/>
</svg>
