<svg xmlns="http://www.w3.org/2000/svg" viewBox="0 0 960 540">
	<title>facebook-reviews</title>
	<clipPath>
		<path d="M0 0h960v540H0z"/>
	</clipPath>
	<g fill="none">
		<path fill="#3B5998" d="M0 0h960v540H0z"/>
		<path fill="#4161A1" d="M676.33 566.25c2.26-.97 4.22-2.36 5.84-4.03l-4.2-28.26c-4.5-2.5-10.03-3.06-15.2-1.07-8.73 3.3-13.35 12.7-10.93 21.52l24.5 11.8zm-53.78-25.92c7.43-4.4 10.83-13.62 7.63-21.95-3.56-9.3-13.98-13.92-23.27-10.36-7.94 3.06-12.5 11.17-11.36 19.3l27.03 13zm-54.07-26.06c6.17-4.73 8.8-13.12 5.86-20.75-3.57-9.3-14-13.93-23.27-10.36-7.28 2.8-11.7 9.8-11.56 17.15l29 14zm95.87-71.8c-3.72 4.8-4.92 11.4-2.58 17.48 1.33 3.45 3.6 6.26 6.4 8.25l-3.82-25.74zM317.7 549.82c-.2-1.25-.52-2.5-1-3.72-3.55-9.28-13.97-13.92-23.26-10.35-9.3 3.56-13.92 13.98-10.36 23.27.83 2.17 2.04 4.1 3.53 5.7l31.1-14.9zm39.48-18.9c-.04-.1-.08-.2-.1-.3-3.58-9.3-14-13.94-23.28-10.37-9.3 3.56-13.93 13.98-10.36 23.27.4 1 .86 1.98 1.4 2.88l32.34-15.48zm38.87-18.63c-4.4-7.38-13.6-10.74-21.9-7.56-9.2 3.54-13.84 13.8-10.45 23.04l32.35-15.5zm38.25-18.34c-4.85-5.34-12.65-7.45-19.8-4.7-8.07 3.1-12.64 11.4-11.33 19.6L434.3 494zm37.56-18c-4.76-3.42-11.1-4.46-17-2.2-6.85 2.63-11.17 9-11.53 15.88L471.86 476zm42.3 12.12c5.06-4.88 7-12.5 4.33-19.46-3.6-9.28-14-13.92-23.3-10.36-6.6 2.53-10.86 8.54-11.48 15.14l30.42 14.66zM657.44 396c-.27.1-.53.2-.8.3-9.28 3.56-13.92 13.98-10.36 23.27 2.7 7 9.3 11.37 16.4 11.54l-5.24-35.1zm-368.9 98.65c5.6 1.33 10.46 5.3 12.68 11.07 3.56 9.3-1.07 19.7-10.36 23.27-2.65 1.02-5.4 1.37-8.03 1.13l5.72-35.47zm367.8-106.13c-.73.4-1.5.75-2.28 1.05-9.3 3.56-19.7-1.08-23.27-10.37-3.6-9.3 1.04-19.7 10.33-23.27 3.38-1.3 6.9-1.5 10.2-.8l4.98 33.38zm-359.5 54.76c1.68-1.58 3.7-2.88 5.97-3.76 9.3-3.56 19.74 1.08 23.3 10.36 3.57 9.3-1.07 19.7-10.36 23.27-8.58 3.3-18.14-.42-22.35-8.34l3.47-21.5zm390.03-137.2c-4.7-6.26-13.17-8.93-20.85-5.98-9.3 3.57-13.93 14-10.36 23.27 1.25 3.26 3.36 5.95 5.97 7.9l25.24-25.2zm67.47-67.37c-3.72-9-13.96-13.44-23.1-9.93-9.3 3.54-13.93 13.96-10.36 23.25 1.84 4.8 5.5 8.36 9.92 10.18l23.54-23.5zM310.64 344c.5-.24 1-.47 1.55-.7 9.25-3.54 19.7 1.1 23.24 10.38 3.56 9.3-1.08 19.7-10.36 23.27-5.97 2.3-12.4 1.2-17.17-2.32l4.64-28.66-1.94-1.98zm459.34-170.67c4.17 1.88 7.62 5.34 9.4 9.95 3.56 9.3-1.08 19.7-10.37 23.27-9.26 3.56-19.7-1.07-23.24-10.36-3.56-9.28 1.07-19.7 10.36-23.26 1.4-.53 2.8-.88 4.23-1.06l9.66 1.46zm14.97 2.27c.13 1.7.5 3.42 1.15 5.1 2.5 6.5 8.37 10.74 14.85 11.45l12.27-12.25-28.27-4.3zM285.2 318.38c.53-6.7 4.8-12.83 11.5-15.4 9.28-3.56 19.7 1.08 23.27 10.37 3.56 9.28-1.08 19.7-10.36 23.27-1.7.65-3.42 1.03-5.16 1.15l-19.23-19.4zm439.46-151.92c-.6 6.64-4.85 12.7-11.5 15.25-9.28 3.6-19.7-1.05-23.27-10.34-1.3-3.4-1.54-6.97-.8-10.3l35.54 5.42zm-96.53-14.67c1.8 8.5-2.78 17.3-11.17 20.5-9.3 3.58-19.7-1.06-23.27-10.35-2-5.2-1.45-10.74 1.1-15.25l33.3 5.08zm30.26 4.6c-.38.13-.74.3-1.1.42-6.54 2.5-13.64.95-18.5-3.43l19.6 3zM238.5 271.3c9.12-3.66 13.64-13.97 10.1-23.17-3.56-9.3-13.97-13.93-23.26-10.36-4.82 1.85-8.4 5.54-10.2 9.96l23.36 23.57zm333.9-137.45c-1.1 5.98-5.2 11.28-11.3 13.62-9.27 3.56-19.7-1.08-23.26-10.36-3.56-9.26 1.08-19.7 10.36-23.24 5.4-2.08 11.2-1.37 15.8 1.4l8.4 18.6zm-235.72 15.9c7.5-.3 14.7 4.15 17.52 11.55 3.57 9.28-1.07 19.7-10.36 23.27-9.28 3.56-19.7-1.08-23.27-10.36-3.56-9.26 1.08-19.7 10.36-23.24.62-.24 1.23-.44 1.85-.6l3.9-.6zm49.12-13.6c3.88 1.94 7.08 5.28 8.76 9.66 3.56 9.3-1.07 19.7-10.36 23.3-9.3 3.56-19.7-1.1-23.27-10.36-1.62-4.23-1.55-8.68-.1-12.62l21.92-3.3 3.05-6.64zm170.03-39.02c-1.82 4.43-5.38 8.13-10.2 9.98-9.3 3.6-19.7-1.04-23.28-10.33-3.56-9.3 1.08-19.7 10.36-23.27 4.17-1.6 8.5-1.56 12.4-.2l10.75 23.84zM171.45 203.65c6.16-4.73 8.77-13.12 5.84-20.74-1.3-3.36-3.54-6.12-6.27-8.1l-24.55 3.7 24.94 25.17zm46.3-35.93c3.36 9.2-1.28 19.44-10.46 22.96-9.3 3.57-19.74-1.07-23.3-10.36-.93-2.4-1.3-4.9-1.18-7.32l34.92-5.28zm41.18-6.22c-1.07 6.02-5.17 11.34-11.3 13.7-8.66 3.32-18.33-.5-22.47-8.6l33.77-5.1zM411.3 80.63c3.6 1.98 6.54 5.2 8.12 9.33 3.57 9.3-1.07 19.7-10.36 23.27-4.27 1.64-8.8 1.54-12.76.05l15-32.65zm127.6-21.06c-2 3.17-5 5.74-8.77 7.2-9.28 3.55-19.7-1.1-23.27-10.37-3.56-9.3 1.08-19.7 10.36-23.27 3.08-1.2 6.28-1.47 9.3-.98l12.38 27.42zM436.78 25.14c3.3 2 6 5.08 7.5 8.97 3.57 9.3-1.06 19.74-10.35 23.3-4.04 1.55-8.28 1.55-12.1.3l14.95-32.54zm84.94-3.66c-1.86 2.12-4.26 3.84-7.08 4.92-9.3 3.56-19.7-1.07-23.27-10.36-3.56-9.3 1.07-19.7 10.36-23.27 2.14-.82 4.34-1.2 6.5-1.2l13.5 29.9zm-59.47-51.8c3.04 2 5.5 4.93 6.9 8.6 3.57 9.27-1.07 19.7-10.36 23.26-3.8 1.45-7.8 1.54-11.4.5l14.83-32.36zm42.1 13.28c-1.5 1.28-3.25 2.34-5.2 3.08-9.3 3.57-19.7-1.07-23.27-10.36-3.56-9.28 1.07-19.7 10.36-23.27 1.28-.46 2.58-.8 3.88-1L504.35-17zM486.83-55.9c-.98.62-2.04 1.16-3.17 1.6-3.55 1.35-7.27 1.52-10.7.68l7.5-16.38 6.37 14.1zm173.35 582.06c9.28-3.57 13.92-13.98 10.36-23.27-3.57-9.3-13.98-13.96-23.27-10.4-9.3 3.57-13.93 14-10.36 23.28 3.6 9.3 14 13.9 23.3 10.35zm-55.85-24.87c9.3-3.6 13.93-14 10.36-23.3-3.6-9.3-14-13.92-23.3-10.35-9.28 3.56-13.9 13.98-10.36 23.26 3.57 9.3 13.98 13.94 23.27 10.37zm40.36-15.5c9.25-3.58 13.9-14 10.33-23.3-3.57-9.27-14-13.9-23.27-10.35-9.3 3.57-13.93 14-10.36 23.27 3.57 9.3 14 13.93 23.28 10.36zm-96.24-9.4c9.3-3.55 13.93-13.97 10.36-23.26-3.56-9.3-13.98-13.92-23.26-10.36-9.3 3.56-13.93 13.97-10.37 23.26 3.57 9.3 14 13.93 23.27 10.36zm40.36-15.5c9.3-3.55 13.93-13.96 10.36-23.25-3.57-9.3-14-13.93-23.28-10.36-9.3 3.56-13.92 14-10.36 23.27 3.57 9.3 13.98 13.92 23.27 10.36zm40.36-15.47c9.27-3.57 13.9-13.98 10.35-23.27-3.57-9.3-14-13.93-23.27-10.36-9.3 3.57-13.94 14-10.37 23.28 3.56 9.27 14 13.9 23.27 10.35zm-298 68.08c9.3-3.55 13.93-13.97 10.37-23.26-3.57-9.3-14-13.92-23.27-10.36-9.28 3.56-13.92 13.97-10.35 23.26 3.56 9.3 13.98 13.92 23.26 10.36zm40.36-15.5c9.3-3.55 13.93-13.96 10.36-23.25-3.56-9.3-13.98-13.93-23.27-10.36-9.3 3.56-13.92 14-10.36 23.27 3.56 9.3 13.97 13.92 23.26 10.36zm40.36-15.47c9.28-3.57 13.92-14 10.36-23.27-3.58-9.3-14-13.93-23.28-10.36-9.3 3.57-13.93 14-10.36 23.28 3.56 9.27 13.98 13.9 23.27 10.35zm40.35-15.5c9.3-3.56 13.93-13.98 10.36-23.26-3.55-9.3-13.97-13.94-23.26-10.37-9.26 3.6-13.9 14-10.36 23.3 3.58 9.28 14 13.92 23.28 10.36zm40.36-15.48c9.3-3.57 13.93-14 10.37-23.27-3.58-9.3-14-13.94-23.28-10.37-9.3 3.57-13.94 14-10.37 23.28 3.56 9.3 13.98 13.93 23.27 10.37zm40.36-15.5c9.28-3.56 13.92-13.98 10.35-23.26-3.55-9.3-13.97-13.93-23.26-10.37-9.28 3.57-13.92 14-10.36 23.27 3.57 9.3 14 13.95 23.27 10.38zm40.35-15.5c9.3-3.55 13.93-13.97 10.37-23.26-3.57-9.28-13.98-13.9-23.27-10.36-9.3 3.57-13.93 14-10.36 23.27 3.56 9.3 13.98 13.94 23.27 10.37zm40.36-15.48c9.3-3.57 13.93-14 10.37-23.28-3.57-9.3-14-13.93-23.27-10.37-9.3 3.57-13.93 14-10.36 23.27 3.56 9.3 13.98 13.94 23.26 10.37zm-257.62 52.58c9.3-3.56 13.92-13.98 10.36-23.27-3.57-9.28-13.98-13.9-23.27-10.36-9.3 3.57-13.92 14-10.36 23.27 3.56 9.3 14 13.93 23.27 10.36zm40.36-15.5c9.28-3.55 13.92-13.97 10.36-23.26-3.57-9.3-14-13.93-23.27-10.37-9.3 3.57-13.93 14-10.36 23.27 3.56 9.3 13.98 13.94 23.27 10.37zm40.35-15.48c9.28-3.56 13.92-13.98 10.35-23.27-3.56-9.3-13.98-13.9-23.27-10.35-9.3 3.57-13.92 13.98-10.36 23.27 3.56 9.3 13.97 13.93 23.26 10.36zm40.35-15.5c9.28-3.55 13.92-13.97 10.36-23.26-3.56-9.3-13.98-13.9-23.26-10.35-9.3 3.56-13.93 13.98-10.36 23.27 3.56 9.3 13.98 13.92 23.27 10.36zm40.35-15.48c9.3-3.58 13.93-14 10.36-23.28-3.55-9.3-13.97-13.93-23.26-10.36-9.3 3.55-13.93 13.97-10.37 23.26 3.56 9.3 14 13.92 23.26 10.36zm40.36-15.5c9.3-3.57 13.93-14 10.37-23.27-3.58-9.3-14-13.93-23.28-10.36-9.3 3.56-13.94 13.98-10.37 23.27 3.55 9.28 13.97 13.92 23.26 10.36zm40.36-15.5c9.3-3.56 13.94-14 10.37-23.26-3.56-9.3-13.98-13.93-23.27-10.36-9.28 3.56-13.92 14-10.36 23.27 3.57 9.28 14 13.92 23.27 10.36zm40.37-15.5c9.3-3.55 13.92-13.97 10.36-23.25-3.57-9.3-13.98-13.93-23.27-10.36-9.3 3.55-13.92 13.97-10.36 23.26 3.56 9.27 13.98 13.9 23.27 10.35zm-297.98 68.1c9.27-3.57 13.9-14 10.35-23.27-3.57-9.3-13.98-13.93-23.27-10.36-9.3 3.56-13.93 13.98-10.36 23.27 3.55 9.28 13.97 13.92 23.26 10.36zm40.34-15.5c9.3-3.56 13.93-14 10.36-23.26-3.56-9.3-13.98-13.93-23.27-10.36-9.3 3.56-13.93 14-10.37 23.27 3.57 9.28 14 13.92 23.27 10.36zm40.36-15.5c9.3-3.55 13.92-13.97 10.36-23.25-3.56-9.3-13.98-13.93-23.27-10.36-9.3 3.55-13.93 13.97-10.37 23.26 3.55 9.27 13.97 13.9 23.26 10.35zm40.36-15.5c9.28-3.54 13.92-13.96 10.36-23.25-3.58-9.28-14-13.92-23.28-10.36-9.3 3.56-13.93 14-10.36 23.26 3.55 9.28 13.97 13.92 23.26 10.35zM502 355.38c9.3-3.56 13.94-13.98 10.37-23.27-3.56-9.3-13.98-13.93-23.27-10.37-9.28 3.57-13.92 14-10.36 23.27 3.57 9.3 13.98 13.93 23.27 10.36zm40.37-15.5c9.28-3.55 13.92-13.97 10.36-23.26-3.57-9.26-14-13.9-23.27-10.34-9.3 3.57-13.93 14-10.36 23.27 3.56 9.3 13.98 13.94 23.27 10.37zm40.35-15.48c9.3-3.58 13.93-14 10.36-23.3-3.56-9.27-13.98-13.9-23.27-10.34-9.25 3.57-13.9 13.98-10.33 23.27 3.57 9.3 14 13.93 23.27 10.36zm40.36-15.5c9.28-3.58 13.92-14 10.36-23.28-3.57-9.3-13.98-13.92-23.27-10.36-9.3 3.56-13.93 13.98-10.36 23.27 3.6 9.3 14 13.92 23.3 10.36zm40.35-15.5c9.3-3.57 13.93-13.98 10.36-23.27-3.6-9.3-14-13.93-23.3-10.36-9.28 3.56-13.9 13.98-10.36 23.27 3.57 9.3 14 13.92 23.27 10.36zm40.36-15.5c9.26-3.56 13.9-13.98 10.33-23.26-3.56-9.3-13.98-13.93-23.27-10.36-9.3 3.55-13.92 13.97-10.36 23.26 3.57 9.28 14 13.92 23.28 10.36zm-338.37 83.6c9.3-3.57 13.93-14 10.36-23.28-3.56-9.28-13.98-13.9-23.27-10.35-9.28 3.57-13.92 13.98-10.36 23.27 3.57 9.3 14 13.93 23.27 10.36zM405.8 346c9.3-3.56 13.93-13.97 10.37-23.26-3.57-9.3-13.98-13.92-23.27-10.36-9.3 3.56-13.93 13.98-10.36 23.27 3.56 9.3 13.98 13.92 23.27 10.36zm40.36-15.48c9.3-3.57 13.93-13.98 10.36-23.27-3.56-9.3-13.98-13.93-23.26-10.36-9.3 3.54-13.93 13.96-10.37 23.25 3.54 9.28 13.96 13.92 23.24 10.36zm40.36-15.5c9.3-3.56 13.93-13.98 10.36-23.26-3.56-9.3-13.98-13.93-23.27-10.36-9.26 3.56-13.9 13.98-10.33 23.27 3.57 9.28 13.98 13.92 23.27 10.36zm40.36-15.48c9.28-3.57 13.92-14 10.36-23.27-3.57-9.3-14-13.93-23.27-10.36-9.3 3.57-13.93 14-10.36 23.28 3.6 9.28 14 13.92 23.3 10.36zm40.35-15.5c9.3-3.56 13.93-13.98 10.36-23.26-3.6-9.3-14-13.93-23.3-10.36-9.28 3.56-13.9 13.98-10.36 23.26 3.57 9.3 13.98 13.93 23.27 10.37zm40.36-15.5c9.25-3.55 13.9-13.97 10.33-23.26-3.57-9.28-14-13.92-23.27-10.36-9.3 3.57-13.93 14-10.36 23.27 3.57 9.3 14 13.9 23.28 10.34zm40.32-15.48c9.3-3.56 13.93-13.98 10.36-23.27-3.57-9.3-14-13.94-23.28-10.38-9.28 3.58-13.92 14-10.36 23.28 3.57 9.3 14 13.94 23.27 10.37zm40.36-15.5c9.3-3.55 13.9-13.97 10.35-23.26-3.57-9.28-13.98-13.92-23.27-10.36-9.3 3.57-13.94 13.98-10.37 23.27 3.56 9.3 14 13.94 23.27 10.37zm40.34-15.48c9.3-3.56 13.93-13.98 10.36-23.27-3.55-9.3-13.97-13.9-23.25-10.35-9.3 3.57-13.93 13.98-10.37 23.27 3.57 9.3 14 13.94 23.27 10.37zm-378.7 99.06c9.3-3.56 13.94-13.98 10.37-23.26-3.56-9.3-13.98-13.93-23.27-10.36-9.28 3.56-13.92 13.98-10.36 23.26 3.56 9.3 13.98 13.93 23.26 10.36zm40.37-15.5c9.3-3.55 13.92-13.97 10.36-23.26-3.57-9.28-14-13.92-23.27-10.36-9.3 3.57-13.93 14-10.36 23.27 3.56 9.3 13.98 13.9 23.27 10.34zm40.35-15.48c9.3-3.56 13.93-13.98 10.36-23.27-3.55-9.3-13.97-13.94-23.26-10.38-9.28 3.58-13.92 14-10.36 23.28 3.56 9.3 14 13.94 23.26 10.37zm40.36-15.5c9.3-3.55 13.93-13.97 10.37-23.26-3.58-9.28-14-13.92-23.28-10.36-9.3 3.57-13.94 13.98-10.37 23.27 3.56 9.3 13.98 13.94 23.27 10.37zm40.36-15.48c9.3-3.56 13.93-13.98 10.36-23.27-3.56-9.3-13.98-13.9-23.26-10.35-9.3 3.57-13.93 13.98-10.36 23.27 3.57 9.3 14 13.94 23.27 10.37zm40.36-15.5c9.3-3.56 13.93-13.97 10.36-23.26-3.57-9.3-14-13.93-23.28-10.36-9.3 3.56-13.92 13.98-10.36 23.27 3.57 9.3 13.98 13.93 23.27 10.37zm40.36-15.48c9.27-3.57 13.9-13.98 10.35-23.27-3.57-9.28-14-13.92-23.27-10.35-9.3 3.56-13.94 13.98-10.37 23.27 3.56 9.28 14 13.92 23.27 10.36zm40.34-15.5c9.3-3.56 13.93-13.98 10.36-23.26-3.55-9.3-13.97-13.93-23.26-10.36-9.28 3.56-13.92 13.98-10.36 23.27 3.57 9.28 14 13.92 23.27 10.36zm40.36-15.48c9.3-3.57 13.93-14 10.37-23.27-3.57-9.3-14-13.93-23.27-10.36-9.3 3.54-13.93 13.96-10.36 23.25 3.56 9.28 13.98 13.92 23.27 10.36zm-378.7 99.06c9.3-3.56 13.94-13.98 10.38-23.27-3.57-9.3-14-13.9-23.27-10.35-9.28 3.57-13.9 13.98-10.35 23.27 3.56 9.3 13.98 13.94 23.26 10.37zm40.37-15.5c9.3-3.56 13.93-13.97 10.36-23.26-3.55-9.3-13.97-13.93-23.26-10.36-9.3 3.56-13.92 13.98-10.36 23.27 3.57 9.3 13.98 13.93 23.27 10.37zm40.36-15.48c9.3-3.57 13.93-13.98 10.37-23.27-3.6-9.28-14-13.92-23.3-10.35-9.3 3.56-13.92 13.98-10.35 23.27 3.56 9.28 13.98 13.92 23.27 10.36zm40.36-15.5c9.3-3.56 13.93-13.98 10.36-23.26-3.56-9.3-13.98-13.93-23.27-10.36-9.28 3.56-13.92 13.98-10.36 23.27 3.6 9.28 14 13.92 23.3 10.36zm40.36-15.48c9.28-3.57 13.92-14 10.36-23.27-3.57-9.3-13.98-13.93-23.27-10.36-9.3 3.54-13.92 13.96-10.35 23.25 3.56 9.28 13.98 13.92 23.27 10.36zm40.35-15.5c9.27-3.56 13.9-13.98 10.34-23.26-3.55-9.3-13.97-13.93-23.26-10.36-9.28 3.56-13.92 13.98-10.36 23.26 3.58 9.3 14 13.93 23.28 10.36zm40.34-15.5c9.3-3.55 13.93-13.97 10.37-23.26-3.56-9.28-13.97-13.92-23.26-10.36-9.3 3.57-13.92 14-10.35 23.27 3.56 9.3 13.98 13.93 23.27 10.36zm40.36-15.48c9.3-3.56 13.92-13.98 10.36-23.27-3.57-9.28-14-13.92-23.27-10.36-9.3 3.58-13.94 14-10.37 23.28 3.56 9.3 13.98 13.93 23.26 10.36zM278.6 255.9c9.3-3.56 13.93-13.98 10.36-23.26-3.56-9.3-13.98-13.93-23.27-10.37-9.27 3.57-13.9 14-10.35 23.27 3.57 9.3 14 13.93 23.27 10.36zm40.36-15.5c9.3-3.55 13.92-13.97 10.36-23.26-3.56-9.28-13.98-13.92-23.27-10.36-9.3 3.57-13.92 14-10.36 23.27 3.57 9.3 14 13.93 23.3 10.36zm40.36-15.48c9.28-3.56 13.92-13.98 10.36-23.27-3.57-9.28-14-13.92-23.27-10.36-9.3 3.54-13.92 13.96-10.35 23.24 3.56 9.3 13.98 13.93 23.27 10.36zm40.35-15.5c9.27-3.55 13.9-13.97 10.34-23.26-3.55-9.28-13.97-13.92-23.26-10.36-9.28 3.57-13.92 13.98-10.36 23.27 3.58 9.3 14 13.93 23.28 10.36zM440 193.94c9.3-3.56 13.93-13.98 10.37-23.27-3.56-9.3-13.98-13.92-23.26-10.36-9.3 3.6-13.92 14-10.35 23.3 3.56 9.3 13.98 13.93 23.27 10.36zm40.36-15.5c9.3-3.56 13.92-13.97 10.35-23.26-3.55-9.3-13.97-13.93-23.26-10.36-9.3 3.56-13.93 13.98-10.37 23.27 3.58 9.26 14 13.9 23.28 10.33zm40.35-15.48c9.3-3.57 13.93-13.98 10.37-23.27-3.56-9.3-13.97-13.96-23.26-10.4-9.3 3.57-13.92 14-10.35 23.28 3.55 9.27 13.97 13.9 23.26 10.35zm-297.97 68.08c9.28-3.56 13.92-13.98 10.36-23.27-3.58-9.3-14-13.92-23.28-10.36-9.3 3.6-13.93 14-10.36 23.3 3.57 9.3 14 13.9 23.28 10.36zm40.35-15.5c9.3-3.56 13.93-13.97 10.36-23.26-3.57-9.3-14-13.93-23.28-10.36-9.28 3.56-13.92 13.98-10.36 23.27 3.57 9.26 14 13.9 23.27 10.33zm40.36-15.48c9.28-3.57 13.9-14 10.35-23.27-3.58-9.3-14-13.96-23.28-10.4-9.3 3.57-13.93 14-10.36 23.28 3.56 9.27 13.98 13.9 23.27 10.35zm121.06-46.48c9.28-3.56 13.92-13.98 10.36-23.26-3.57-9.3-14-13.93-23.27-10.37-9.3 3.57-13.94 14-10.37 23.27 3.55 9.3 13.97 13.93 23.26 10.36zm40.35-15.5c9.3-3.55 13.93-13.97 10.36-23.26-3.55-9.28-13.97-13.92-23.26-10.36-9.3 3.57-13.93 14-10.37 23.27 3.57 9.3 13.98 13.93 23.27 10.36zm40.36-15.48c9.3-3.56 13.93-13.98 10.37-23.27-3.57-9.28-14-13.92-23.27-10.36-9.3 3.57-13.93 14-10.36 23.27 3.55 9.3 13.97 13.93 23.26 10.36zm-55.8-24.86c9.3-3.57 13.94-14 10.37-23.27-3.56-9.3-13.98-13.93-23.27-10.36-9.28 3.6-13.9 14-10.35 23.3 3.57 9.28 13.98 13.9 23.27 10.36zm40.37-15.5c9.28-3.56 13.92-13.98 10.36-23.26-3.57-9.3-14-13.93-23.27-10.36-9.3 3.56-13.93 13.98-10.36 23.27 3.57 9.25 14 13.9 23.28 10.33zm-15.5-40.35c9.3-3.6 13.93-14 10.37-23.3-3.57-9.3-14-13.9-23.27-10.36-9.3 3.57-13.93 13.98-10.36 23.27 3.58 9.3 14 13.94 23.28 10.37z"/>
		<path fill="#fff" d="M500.92 246.9c-5.35 0-9.2 1.77-13.12 3.56v40.45c3.75.37 5.9.37 9.45.37 12.85 0 14.6-5.88 14.6-14.1v-19.32c0-6.06-2-10.94-10.93-10.94zm-85.3-2.2c-8.92 0-10.96 4.9-10.96 10.96v3.4h21.88v-3.4c0-6.06-2.03-10.95-10.93-10.95zm-165.28 42.12c0 4.8 2.26 7.28 7.25 7.28 5.35 0 8.52-1.74 12.43-3.54v-9.6h-11.7c-5.56 0-8 1.04-8 5.86zm333.57-39.9c-8.92 0-12 4.87-12 10.93V280c0 6.07 3.08 10.96 12 10.96 8.9 0 12.03-4.9 12.03-10.97v-22.15c0-6.06-3.12-10.94-12.02-10.94zm-377.3 64.72h-26.25v-63.52h-13.12v-21.9h13.12V213.1c0-17.85 7.4-28.47 28.43-28.47h17.52v21.9h-10.95c-8.2 0-8.73 3.06-8.73 8.77l-.03 10.96h19.82l-2.32 21.9h-17.5v63.5zm89.68.16H274.4l-.94-5.53c-10 5.53-18.9 6.43-24.78 6.43-16.04 0-24.58-10.72-24.58-25.54 0-17.48 9.96-23.72 27.8-23.72h18.13v-3.78c0-8.92-1.03-11.54-14.75-11.54h-22.44l2.2-21.9h24.52c30.12 0 36.72 9.52 36.72 33.62v51.96zm74.38-62.08c-13.6-2.33-17.52-2.84-24.07-2.84-11.78 0-15.33 2.6-15.33 12.58v18.9c0 10 3.55 12.6 15.32 12.6 6.54 0 10.45-.53 24.06-2.87v21.34c-11.92 2.67-19.7 3.38-26.26 3.38-28.17 0-39.37-14.82-39.37-36.23v-15.34c0-21.42 11.2-36.27 39.37-36.27 6.57 0 14.34.7 26.26 3.38v21.34zm82.13 26.87h-48.14v1.76c0 10 3.56 12.6 15.32 12.6 10.57 0 17.02-.53 30.6-2.87v21.34c-13.1 2.67-19.92 3.38-32.78 3.38-28.17 0-39.38-14.82-39.38-36.23v-17.54c0-18.73 8.3-34.07 37.2-34.07 28.86 0 37.17 15.16 37.17 34.06v17.53zm85.3.4c0 20.7-5.92 35.78-41.74 35.78-12.93 0-20.52-1.14-34.8-3.34V191.18l26.24-4.38v41.37c5.67-2.1 13-3.18 19.7-3.18 26.23 0 30.6 11.76 30.6 30.66V277zm84.1.45c0 17.85-7.37 35.16-38.2 35.16-30.84 0-38.35-17.3-38.35-35.15v-17.23c0-17.86 7.5-35.17 38.35-35.17 30.83 0 38.2 17.3 38.2 35.17v17.23zm84.04 0c0 17.85-7.38 35.16-38.2 35.16-30.85 0-38.35-17.3-38.35-35.15v-17.23c0-17.86 7.5-35.17 38.34-35.17 30.82 0 38.2 17.3 38.2 35.17v17.23zm86.24 34.2h-28.43L740 271.48v40.14h-26.25V191.18L740 186.8v77.55l24.05-38.12h28.43l-26.25 41.6 26.25 43.8zM667.95 246.9c-8.9 0-12 4.9-12 10.95V280c0 6.07 3.1 10.96 12 10.96S680 286.06 680 280v-22.15c0-6.06-3.15-10.94-12.05-10.94zM807.46 296.66c4.42 0 7.94 3.6 7.94 8.1 0 4.57-3.52 8.13-7.97 8.13-4.43 0-8.02-3.57-8.02-8.14 0-4.5 3.6-8.1 8.03-8.1h.03zm-.03 1.26c-3.56 0-6.47 3.06-6.47 6.84 0 3.85 2.9 6.87 6.5 6.87 3.6.04 6.47-3.02 6.47-6.84s-2.87-6.88-6.47-6.88h-.03zm-1.5 11.56h-1.45v-9.04c.75-.1 1.47-.22 2.55-.22 1.37 0 2.26.3 2.8.68.54.4.83 1 .83 1.87 0 1.2-.8 1.9-1.75 2.2v.08c.8.14 1.33.86 1.5 2.2.22 1.4.44 1.93.6 2.23h-1.52c-.22-.3-.43-1.12-.62-2.3-.2-1.16-.8-1.6-1.94-1.6h-1v3.9zm0-5h1.03c1.18 0 2.2-.44 2.2-1.56 0-.8-.58-1.58-2.2-1.58-.47 0-.8.03-1.04.07v3.07z"/>
	</g>
</svg>
