<svg xmlns="http://www.w3.org/2000/svg" viewBox="0 0 960 540">
	<title>tripadvisor-reviews</title>
	<clipPath>
		<path d="M0 0h960v540H0z"/>
	</clipPath>
	<g fill="none">
		<path fill="#4B7E37" d="M0 0h960v540H0z"/>
		<path fill="#558A42" d="M676.33 566.25c2.26-.97 4.22-2.36 5.84-4.03l-4.2-28.26c-4.5-2.5-10.03-3.06-15.2-1.07-8.73 3.32-13.35 12.7-10.93 21.53l24.5 11.8zm-53.78-25.92c7.43-4.4 10.83-13.62 7.63-21.95-3.56-9.3-13.98-13.92-23.27-10.36-7.95 3.06-12.5 11.17-11.37 19.3l27.03 13zm-54.07-26.06c6.17-4.73 8.8-13.12 5.86-20.75-3.57-9.3-14-13.93-23.27-10.36-7.28 2.8-11.7 9.8-11.56 17.15l29 13.98zm95.87-71.8c-3.72 4.8-4.92 11.4-2.58 17.48 1.33 3.45 3.6 6.26 6.4 8.25l-3.82-25.74zM317.7 549.82c-.2-1.25-.52-2.5-1-3.72-3.55-9.28-13.97-13.92-23.26-10.35-9.3 3.56-13.92 13.98-10.36 23.27.83 2.17 2.04 4.1 3.53 5.7l31.1-14.9zm39.48-18.9c-.04-.1-.08-.2-.1-.3-3.58-9.3-14-13.94-23.28-10.37-9.3 3.56-13.93 13.98-10.36 23.27.4 1 .86 1.98 1.4 2.88l32.34-15.48zm38.87-18.63c-4.4-7.37-13.6-10.73-21.9-7.55-9.2 3.54-13.84 13.8-10.45 23.04l32.35-15.5zm38.25-18.33c-4.85-5.34-12.65-7.45-19.8-4.7-8.07 3.1-12.64 11.4-11.33 19.6L434.3 494zm37.56-18c-4.76-3.42-11.1-4.46-17-2.2-6.85 2.63-11.17 9-11.53 15.88L471.86 476zm42.3 12.12c5.06-4.88 7-12.5 4.33-19.46-3.6-9.28-14-13.92-23.3-10.36-6.6 2.53-10.85 8.54-11.47 15.14l30.42 14.66zm143.28-92.07c-.27.1-.53.2-.8.3-9.28 3.55-13.92 13.97-10.36 23.26 2.7 7 9.3 11.37 16.4 11.54l-5.24-35.1zm-368.9 98.64c5.6 1.33 10.46 5.3 12.68 11.07 3.56 9.3-1.07 19.7-10.36 23.27-2.65 1.03-5.4 1.38-8.03 1.14l5.72-35.47zm367.8-106.13c-.73.4-1.5.75-2.28 1.05-9.3 3.56-19.7-1.08-23.27-10.37-3.58-9.3 1.05-19.7 10.34-23.27 3.38-1.3 6.9-1.5 10.2-.8l4.98 33.38zm-359.5 54.76c1.68-1.58 3.7-2.88 5.97-3.76 9.3-3.56 19.73 1.08 23.3 10.36 3.56 9.3-1.08 19.7-10.37 23.27-8.58 3.3-18.14-.42-22.35-8.34l3.48-21.52zm390.03-137.2c-4.7-6.26-13.17-8.93-20.85-5.98-9.3 3.57-13.93 14-10.36 23.27 1.25 3.26 3.36 5.95 5.97 7.9l25.24-25.2zm67.47-67.37c-3.72-9-13.96-13.45-23.1-9.94-9.3 3.54-13.93 13.96-10.36 23.25 1.84 4.8 5.5 8.36 9.92 10.18l23.54-23.5zm-443.7 105.3c.5-.25 1-.48 1.55-.7 9.26-3.55 19.7 1.1 23.25 10.37 3.56 9.3-1.08 19.7-10.36 23.27-5.97 2.3-12.4 1.2-17.17-2.32l4.63-28.66-1.94-1.98zm459.34-170.68c4.17 1.88 7.62 5.34 9.4 9.95 3.56 9.3-1.08 19.7-10.37 23.27-9.27 3.56-19.7-1.07-23.25-10.36-3.56-9.27 1.07-19.7 10.36-23.25 1.4-.53 2.8-.88 4.23-1.06l9.66 1.46zm14.97 2.27c.13 1.7.5 3.42 1.15 5.1 2.5 6.5 8.37 10.74 14.85 11.45l12.27-12.25-28.27-4.3zM285.2 318.38c.53-6.7 4.8-12.83 11.5-15.4 9.28-3.56 19.7 1.08 23.27 10.37 3.56 9.28-1.08 19.7-10.36 23.27-1.7.65-3.43 1.03-5.17 1.15l-19.23-19.4zm439.46-151.92c-.6 6.64-4.85 12.7-11.5 15.25-9.28 3.58-19.7-1.06-23.27-10.35-1.3-3.4-1.53-6.97-.8-10.3l35.55 5.42zm-96.53-14.67c1.8 8.5-2.78 17.3-11.17 20.52-9.3 3.57-19.7-1.07-23.27-10.36-2-5.2-1.44-10.74 1.1-15.25l33.32 5.08zm30.26 4.6c-.37.14-.73.3-1.1.43-6.53 2.5-13.63.95-18.5-3.43l19.6 3zM238.5 271.3c9.12-3.66 13.64-13.97 10.1-23.17-3.56-9.3-13.97-13.93-23.26-10.36-4.82 1.85-8.4 5.54-10.2 9.96l23.36 23.57zm333.9-137.45c-1.1 5.98-5.2 11.28-11.3 13.62-9.27 3.56-19.7-1.08-23.26-10.36-3.56-9.27 1.08-19.7 10.36-23.25 5.4-2.08 11.2-1.37 15.8 1.4l8.4 18.6zm-235.72 15.9c7.5-.3 14.7 4.15 17.52 11.55 3.57 9.28-1.07 19.7-10.36 23.27-9.28 3.56-19.7-1.08-23.27-10.36-3.56-9.27 1.08-19.7 10.36-23.25.62-.24 1.23-.44 1.85-.6l3.9-.6zm49.12-13.6c3.88 1.94 7.08 5.28 8.76 9.66 3.56 9.3-1.07 19.7-10.36 23.3-9.3 3.55-19.7-1.1-23.27-10.37-1.62-4.23-1.55-8.68-.1-12.62l21.92-3.3 3.05-6.64zm170.03-39.02c-1.82 4.43-5.38 8.13-10.2 9.98-9.3 3.6-19.7-1.05-23.28-10.34-3.56-9.3 1.08-19.7 10.36-23.27 4.16-1.6 8.5-1.56 12.4-.2l10.74 23.84zM171.45 203.65c6.16-4.73 8.77-13.12 5.84-20.74-1.3-3.37-3.53-6.13-6.26-8.1l-24.55 3.7 24.94 25.16zm46.3-35.93c3.36 9.2-1.28 19.44-10.46 22.96-9.3 3.57-19.73-1.07-23.3-10.36-.92-2.4-1.3-4.9-1.17-7.32l34.92-5.28zm41.18-6.22c-1.07 6.02-5.17 11.34-11.3 13.7-8.66 3.32-18.33-.5-22.47-8.6l33.77-5.1zM411.3 80.63c3.6 1.98 6.54 5.2 8.12 9.33 3.57 9.3-1.07 19.7-10.36 23.27-4.27 1.64-8.8 1.54-12.76.05l15-32.65zm127.6-21.06c-2 3.17-5 5.74-8.77 7.2-9.28 3.55-19.7-1.1-23.27-10.37-3.56-9.3 1.08-19.7 10.36-23.27 3.08-1.2 6.28-1.47 9.3-.98l12.38 27.42zM436.78 25.14c3.3 2 6 5.08 7.5 8.97 3.57 9.3-1.06 19.73-10.35 23.3-4.04 1.54-8.28 1.54-12.1.3l14.95-32.55zm84.94-3.66c-1.86 2.12-4.26 3.84-7.08 4.92-9.3 3.56-19.7-1.07-23.27-10.36-3.56-9.3 1.07-19.7 10.36-23.27 2.14-.82 4.34-1.2 6.5-1.2l13.5 29.9zm-59.47-51.8c3.04 2 5.5 4.93 6.9 8.6 3.57 9.27-1.07 19.7-10.36 23.26-3.8 1.45-7.8 1.54-11.4.5l14.84-32.36zm42.1 13.28c-1.5 1.28-3.25 2.34-5.2 3.08-9.3 3.57-19.7-1.07-23.27-10.36-3.56-9.28 1.07-19.7 10.36-23.27 1.28-.47 2.58-.8 3.88-1l14.23 31.57zM486.83-55.9c-.98.62-2.04 1.16-3.17 1.6-3.55 1.35-7.27 1.52-10.7.68l7.5-16.38 6.37 14.1zm173.35 582.06c9.28-3.57 13.92-13.98 10.36-23.27-3.57-9.3-13.98-13.95-23.27-10.38-9.3 3.56-13.93 13.98-10.36 23.27 3.58 9.3 14 13.9 23.3 10.35zm-55.85-24.87c9.3-3.58 13.93-14 10.36-23.28-3.58-9.3-14-13.93-23.3-10.36-9.27 3.56-13.9 13.98-10.35 23.26 3.57 9.3 13.98 13.93 23.27 10.36zm40.36-15.5c9.26-3.57 13.9-14 10.34-23.28-3.57-9.28-14-13.92-23.27-10.36-9.3 3.57-13.93 14-10.36 23.27 3.57 9.3 14 13.93 23.28 10.36zm-96.23-9.38c9.3-3.56 13.93-13.98 10.36-23.27-3.56-9.3-13.98-13.92-23.26-10.36-9.3 3.56-13.93 13.97-10.37 23.26 3.58 9.3 14 13.93 23.28 10.36zm40.36-15.5c9.3-3.56 13.93-13.97 10.36-23.26-3.57-9.3-14-13.93-23.28-10.36-9.3 3.57-13.92 14-10.36 23.28 3.57 9.3 13.98 13.92 23.27 10.36zm40.36-15.48c9.27-3.57 13.9-13.98 10.35-23.27-3.57-9.3-14-13.93-23.27-10.36-9.3 3.57-13.94 14-10.37 23.28 3.57 9.27 14 13.9 23.28 10.35zm-298 68.08c9.3-3.56 13.93-13.98 10.37-23.27-3.57-9.3-14-13.92-23.27-10.36-9.28 3.56-13.92 13.97-10.35 23.26 3.56 9.3 13.98 13.92 23.26 10.36zm40.36-15.5c9.3-3.56 13.93-13.97 10.36-23.26-3.56-9.3-13.98-13.93-23.27-10.36-9.3 3.57-13.92 14-10.36 23.28 3.56 9.3 13.97 13.92 23.26 10.36zm40.36-15.48c9.28-3.57 13.92-14 10.36-23.27-3.58-9.3-14-13.93-23.28-10.36-9.3 3.57-13.93 14-10.36 23.28 3.56 9.27 13.98 13.9 23.27 10.35zm40.35-15.5c9.3-3.56 13.93-13.98 10.36-23.26-3.56-9.3-13.98-13.94-23.27-10.37-9.26 3.6-13.9 14-10.36 23.3 3.58 9.28 14 13.92 23.28 10.36zm40.36-15.48c9.28-3.57 13.92-14 10.36-23.27-3.58-9.3-14-13.94-23.28-10.37-9.3 3.56-13.93 13.98-10.36 23.27 3.56 9.3 13.98 13.93 23.27 10.37zm40.35-15.5c9.28-3.56 13.92-13.98 10.35-23.26-3.56-9.28-13.98-13.92-23.27-10.36-9.28 3.57-13.92 14-10.36 23.27 3.57 9.3 14 13.95 23.27 10.38zm40.35-15.5c9.3-3.55 13.92-13.97 10.36-23.26-3.57-9.27-13.98-13.9-23.27-10.35-9.3 3.57-13.93 14-10.36 23.27 3.56 9.3 13.98 13.93 23.27 10.36zm40.35-15.48c9.3-3.57 13.93-14 10.37-23.28-3.57-9.28-14-13.92-23.27-10.36-9.3 3.57-13.93 14-10.36 23.27 3.56 9.3 13.98 13.94 23.26 10.37zm-257.62 52.58c9.3-3.56 13.92-13.98 10.36-23.27-3.57-9.28-13.98-13.9-23.27-10.36-9.3 3.57-13.92 14-10.36 23.27 3.56 9.3 14 13.94 23.27 10.37zm40.36-15.5c9.28-3.55 13.92-13.97 10.36-23.26-3.57-9.28-14-13.92-23.27-10.36-9.3 3.57-13.92 14-10.35 23.27 3.56 9.3 13.98 13.94 23.27 10.37zm40.35-15.48c9.28-3.56 13.92-13.98 10.35-23.27-3.56-9.3-13.98-13.9-23.27-10.35-9.3 3.57-13.92 13.98-10.36 23.27 3.56 9.3 13.97 13.93 23.26 10.36zm40.35-15.5c9.28-3.55 13.92-13.97 10.36-23.26-3.56-9.3-13.98-13.92-23.26-10.36-9.3 3.56-13.93 13.98-10.36 23.27 3.56 9.3 13.98 13.92 23.27 10.36zm40.35-15.48c9.3-3.57 13.93-13.98 10.36-23.27-3.56-9.3-13.98-13.93-23.27-10.36-9.3 3.55-13.93 13.97-10.37 23.26 3.56 9.3 14 13.92 23.26 10.36zm40.36-15.5c9.28-3.56 13.92-13.98 10.36-23.26-3.58-9.3-14-13.93-23.28-10.36-9.3 3.56-13.93 13.98-10.36 23.27 3.55 9.28 13.97 13.92 23.26 10.36zm40.35-15.48c9.3-3.57 13.94-14 10.37-23.27-3.56-9.3-13.98-13.93-23.27-10.36-9.28 3.56-13.92 14-10.36 23.27 3.57 9.28 14 13.92 23.27 10.36zm40.37-15.5c9.3-3.56 13.92-13.98 10.36-23.26-3.56-9.3-13.97-13.93-23.26-10.36-9.3 3.56-13.92 13.98-10.36 23.27 3.56 9.27 13.98 13.9 23.27 10.35zm-297.98 68.1c9.27-3.58 13.9-14 10.35-23.28-3.57-9.3-13.98-13.93-23.27-10.36-9.3 3.56-13.93 13.98-10.36 23.27 3.55 9.28 13.97 13.92 23.26 10.36zm40.34-15.5c9.3-3.57 13.94-14 10.37-23.27-3.56-9.3-13.98-13.93-23.27-10.36-9.28 3.56-13.92 14-10.36 23.27 3.57 9.28 14 13.92 23.27 10.36zm40.37-15.5c9.3-3.56 13.92-13.98 10.36-23.26-3.56-9.3-13.98-13.93-23.27-10.36-9.3 3.56-13.93 13.98-10.37 23.27 3.55 9.27 13.97 13.9 23.26 10.35zm40.36-15.5c9.28-3.55 13.92-13.97 10.36-23.26-3.58-9.28-14-13.92-23.28-10.36-9.3 3.57-13.93 14-10.36 23.27 3.55 9.28 13.97 13.92 23.26 10.35zM502 355.37c9.3-3.56 13.94-13.98 10.37-23.27-3.56-9.3-13.98-13.93-23.27-10.37-9.28 3.57-13.92 14-10.36 23.27 3.57 9.3 13.98 13.93 23.27 10.36zm40.37-15.5c9.28-3.55 13.92-13.97 10.36-23.26-3.57-9.27-14-13.9-23.27-10.35-9.3 3.57-13.93 14-10.36 23.27 3.56 9.3 13.98 13.94 23.27 10.37zm40.35-15.48c9.3-3.57 13.93-14 10.36-23.28-3.56-9.28-13.98-13.9-23.27-10.35-9.26 3.57-13.9 13.98-10.34 23.27 3.57 9.3 14 13.93 23.27 10.36zm40.36-15.5c9.28-3.57 13.92-13.98 10.36-23.27-3.57-9.3-13.98-13.92-23.27-10.36-9.3 3.56-13.93 13.98-10.36 23.27 3.58 9.3 14 13.92 23.3 10.36zm40.35-15.5c9.3-3.56 13.93-13.97 10.36-23.26-3.58-9.3-14-13.93-23.3-10.36-9.27 3.56-13.9 13.98-10.35 23.27 3.57 9.3 14 13.92 23.27 10.36zm40.36-15.5c9.27-3.55 13.9-13.97 10.34-23.25-3.56-9.3-13.98-13.93-23.27-10.36-9.3 3.55-13.92 13.97-10.36 23.26 3.57 9.28 14 13.92 23.28 10.36zm-338.36 83.6c9.3-3.56 13.93-13.98 10.36-23.27-3.55-9.28-13.97-13.9-23.26-10.35-9.28 3.57-13.92 13.98-10.36 23.27 3.57 9.3 14 13.93 23.27 10.36zM405.8 346c9.3-3.56 13.93-13.97 10.37-23.26-3.57-9.3-13.98-13.92-23.27-10.36-9.3 3.56-13.93 13.98-10.36 23.27 3.56 9.3 13.98 13.92 23.27 10.36zm40.36-15.48c9.3-3.57 13.93-13.98 10.36-23.27-3.56-9.3-13.98-13.93-23.26-10.36-9.3 3.55-13.93 13.97-10.37 23.26 3.55 9.28 13.97 13.92 23.25 10.36zm40.36-15.5c9.3-3.56 13.93-13.98 10.36-23.26-3.56-9.3-13.98-13.93-23.27-10.36-9.27 3.56-13.9 13.98-10.34 23.27 3.57 9.28 13.98 13.92 23.27 10.36zm40.36-15.48c9.28-3.57 13.92-14 10.36-23.27-3.57-9.3-14-13.93-23.27-10.36-9.3 3.56-13.93 13.98-10.36 23.27 3.58 9.28 14 13.92 23.3 10.36zm40.35-15.5c9.3-3.56 13.93-13.98 10.36-23.26-3.58-9.3-14-13.93-23.3-10.36-9.27 3.56-13.9 13.98-10.35 23.26 3.57 9.3 13.98 13.93 23.27 10.37zm40.36-15.5c9.26-3.55 13.9-13.97 10.34-23.26-3.57-9.28-14-13.92-23.27-10.36-9.3 3.57-13.93 14-10.36 23.27 3.57 9.3 14 13.92 23.28 10.35zm40.33-15.48c9.3-3.56 13.93-13.98 10.36-23.27-3.57-9.3-14-13.93-23.28-10.37-9.28 3.58-13.92 14-10.36 23.28 3.57 9.3 14 13.94 23.27 10.37zm40.36-15.5c9.3-3.55 13.9-13.97 10.35-23.26-3.57-9.28-13.98-13.92-23.27-10.36-9.3 3.57-13.94 13.98-10.37 23.27 3.57 9.3 14 13.93 23.28 10.36zm40.34-15.48c9.3-3.56 13.93-13.98 10.36-23.27-3.55-9.3-13.97-13.92-23.25-10.36-9.3 3.57-13.93 13.98-10.37 23.27 3.57 9.3 14 13.94 23.27 10.37zm-378.7 99.06c9.3-3.56 13.94-13.98 10.37-23.26-3.55-9.3-13.97-13.93-23.26-10.36-9.28 3.56-13.92 13.98-10.36 23.26 3.56 9.3 13.98 13.93 23.26 10.36zm40.37-15.5c9.3-3.55 13.93-13.97 10.37-23.26-3.57-9.28-14-13.92-23.27-10.36-9.28 3.57-13.92 14-10.35 23.27 3.56 9.3 13.98 13.92 23.27 10.35zm40.36-15.48c9.3-3.56 13.93-13.98 10.36-23.27-3.56-9.3-13.98-13.93-23.27-10.37-9.28 3.58-13.92 14-10.36 23.28 3.56 9.3 14 13.94 23.26 10.37zm40.36-15.5c9.3-3.55 13.92-13.97 10.36-23.26-3.58-9.28-14-13.92-23.28-10.36-9.3 3.57-13.93 13.98-10.36 23.27 3.56 9.3 13.98 13.93 23.27 10.36zm40.35-15.48c9.3-3.56 13.93-13.98 10.36-23.27-3.56-9.3-13.98-13.92-23.26-10.36-9.3 3.57-13.93 13.98-10.36 23.27 3.57 9.3 14 13.94 23.27 10.37zm40.36-15.5c9.3-3.56 13.93-13.97 10.36-23.26-3.57-9.3-14-13.93-23.28-10.36-9.3 3.56-13.92 13.98-10.36 23.27 3.57 9.3 13.98 13.93 23.27 10.37zm40.36-15.48c9.27-3.57 13.9-13.98 10.35-23.27-3.57-9.28-14-13.92-23.27-10.35-9.3 3.56-13.94 13.98-10.37 23.27 3.57 9.28 14 13.92 23.28 10.36zm40.34-15.5c9.3-3.56 13.93-13.98 10.36-23.26-3.55-9.3-13.97-13.93-23.26-10.36-9.28 3.56-13.92 13.98-10.36 23.27 3.57 9.28 14 13.92 23.27 10.36zm40.36-15.48c9.3-3.57 13.93-14 10.37-23.27-3.57-9.3-14-13.93-23.27-10.36-9.3 3.55-13.93 13.97-10.36 23.26 3.56 9.28 13.98 13.92 23.27 10.36zm-378.7 99.06c9.3-3.56 13.94-13.98 10.38-23.27-3.57-9.3-14-13.92-23.27-10.36-9.27 3.57-13.9 13.98-10.34 23.27 3.56 9.3 13.98 13.94 23.26 10.37zm40.37-15.5c9.3-3.56 13.93-13.97 10.36-23.26-3.56-9.3-13.98-13.93-23.27-10.36-9.3 3.56-13.92 13.98-10.36 23.27 3.57 9.3 13.98 13.93 23.27 10.37zm40.36-15.48c9.28-3.57 13.92-13.98 10.36-23.27-3.6-9.28-14-13.92-23.3-10.35-9.3 3.56-13.92 13.98-10.35 23.27 3.56 9.28 13.98 13.92 23.27 10.36zm40.35-15.5c9.3-3.56 13.93-13.98 10.36-23.26-3.56-9.3-13.98-13.93-23.27-10.36-9.28 3.56-13.92 13.98-10.36 23.27 3.6 9.28 14 13.92 23.3 10.36zm40.36-15.48c9.28-3.57 13.92-14 10.36-23.27-3.57-9.3-13.98-13.93-23.27-10.36-9.3 3.55-13.93 13.97-10.36 23.26 3.56 9.28 13.98 13.92 23.27 10.36zm40.35-15.5c9.27-3.56 13.9-13.98 10.34-23.26-3.56-9.3-13.98-13.93-23.27-10.36-9.28 3.56-13.92 13.98-10.36 23.26 3.58 9.3 14 13.93 23.28 10.36zm40.34-15.5c9.3-3.55 13.92-13.97 10.36-23.26-3.56-9.28-13.97-13.92-23.26-10.36-9.3 3.57-13.93 14-10.36 23.27 3.56 9.3 13.98 13.93 23.27 10.36zm40.35-15.48c9.3-3.56 13.92-13.98 10.36-23.27-3.57-9.28-14-13.92-23.27-10.36-9.3 3.57-13.94 14-10.37 23.27 3.56 9.3 13.98 13.93 23.26 10.36zM278.6 255.9c9.3-3.56 13.93-13.98 10.36-23.26-3.56-9.3-13.98-13.93-23.27-10.37-9.26 3.57-13.9 14-10.34 23.27 3.57 9.3 14 13.93 23.27 10.36zm40.36-15.5c9.3-3.55 13.92-13.97 10.36-23.26-3.56-9.28-13.98-13.92-23.27-10.36-9.3 3.57-13.92 14-10.36 23.27 3.58 9.3 14 13.93 23.3 10.36zm40.36-15.48c9.28-3.56 13.92-13.98 10.36-23.27-3.57-9.28-14-13.92-23.27-10.36-9.3 3.55-13.93 13.97-10.36 23.25 3.56 9.3 13.98 13.93 23.27 10.36zm40.35-15.5c9.27-3.55 13.9-13.97 10.34-23.26-3.56-9.28-13.98-13.92-23.27-10.36-9.28 3.57-13.92 13.98-10.36 23.27 3.58 9.3 14 13.93 23.28 10.36zm40.34-15.48c9.28-3.56 13.92-13.98 10.36-23.27-3.56-9.3-13.98-13.92-23.26-10.36-9.3 3.6-13.93 14-10.36 23.3 3.56 9.3 13.98 13.92 23.27 10.35zm40.35-15.5c9.3-3.56 13.92-13.97 10.35-23.26-3.56-9.3-13.98-13.93-23.27-10.36-9.3 3.56-13.93 13.98-10.37 23.27 3.58 9.27 14 13.9 23.28 10.34zm40.35-15.48c9.28-3.57 13.92-13.98 10.36-23.27-3.56-9.3-13.97-13.95-23.26-10.38-9.3 3.56-13.93 13.98-10.36 23.27 3.55 9.27 13.97 13.9 23.26 10.35zm-297.98 68.08c9.28-3.56 13.92-13.98 10.36-23.27-3.57-9.3-14-13.92-23.27-10.36-9.3 3.6-13.93 14-10.36 23.3 3.57 9.3 14 13.9 23.28 10.35zm40.35-15.5c9.3-3.56 13.93-13.97 10.36-23.26-3.57-9.3-14-13.93-23.28-10.36-9.28 3.56-13.92 13.98-10.36 23.27 3.57 9.27 14 13.9 23.27 10.34zm40.36-15.48c9.28-3.57 13.9-14 10.35-23.27-3.57-9.3-13.98-13.95-23.27-10.38-9.3 3.56-13.93 13.98-10.36 23.27 3.56 9.27 13.98 13.9 23.27 10.35zm121.06-46.48c9.28-3.56 13.92-13.98 10.36-23.26-3.57-9.3-14-13.93-23.27-10.37-9.3 3.57-13.93 14-10.36 23.27 3.55 9.3 13.97 13.93 23.26 10.36zm40.35-15.5c9.3-3.55 13.93-13.97 10.36-23.26-3.56-9.28-13.98-13.92-23.27-10.36-9.3 3.57-13.93 14-10.37 23.27 3.57 9.3 13.98 13.93 23.27 10.36zm40.36-15.48c9.28-3.56 13.92-13.98 10.36-23.27-3.57-9.28-14-13.92-23.27-10.36-9.3 3.57-13.93 14-10.36 23.27 3.55 9.3 13.97 13.93 23.26 10.36zM449.4 97.74c9.3-3.57 13.94-14 10.37-23.27-3.56-9.3-13.98-13.93-23.27-10.36-9.28 3.58-13.9 14-10.35 23.3 3.57 9.27 13.98 13.9 23.27 10.35zm40.37-15.5c9.28-3.56 13.92-13.98 10.36-23.26-3.57-9.3-14-13.93-23.27-10.36-9.3 3.56-13.93 13.98-10.36 23.27 3.57 9.26 14 13.9 23.28 10.34zm-15.5-40.35c9.3-3.58 13.93-14 10.37-23.3-3.57-9.3-14-13.9-23.27-10.35-9.3 3.57-13.93 13.98-10.36 23.27 3.57 9.3 14 13.93 23.27 10.36z"/>
		<path fill="#fff" d="M405.25 391.43c0 11.1-6.67 18.26-17 18.26-6.3 0-10.7-4.16-10.7-10.12 0-7.82 7.47-12.12 21.03-12.12h6.7v3.98h-.03zm-11.48-38.75c-8 0-15 1.5-21.4 4.6l-.4.17.13 11.14 1.03-.57c6.14-3.44 11.94-5.17 17.24-5.17 9.46 0 14.88 5.4 14.88 14.88v.56h-7.46c-21.5 0-33.33 7.78-33.33 21.92 0 11.35 8.56 19.28 20.8 19.28 9 0 15.95-3.53 20.9-10.2v9.3H418v-38.98c0-17.9-8.13-26.94-24.18-26.94h-.05zm62.68 56.12c-9.95 0-16.14-8.67-16.14-22.65 0-14 6.24-23.05 15.9-23.05 10.8 0 17.26 8.62 17.26 23.05 0 13.76-6.68 22.67-17 22.67v-.02zm17-85.38v39.52c-4.8-6.7-11.53-10.26-20.15-10.26-15.96 0-26.7 13.13-26.7 32.7 0 20.17 10.88 34.23 26.45 34.23 9.23 0 16.4-4.05 21.42-12.02v11.03h12.07v-95.2h-13.08v.02zm71.47 30.77l-18.54 37.17-17.1-37.2-14.73.06 31.56 64.42 32.47-64.4H544.9v-.05h.02zm188.23 10.4v-10.44l-11.94.03v64.4h13.08v-32.35c0-13.52 5.7-21 16.02-21 1.54 0 2.98.2 4.75.72l.84.26.43-12.73-5.6-.45c-7.6 0-13.72 4.1-17.54 11.56h-.04zm-56.1-11.88c-19.65 0-31.83 12.9-31.83 33.72s12.18 33.74 31.83 33.74c19.7 0 31.96-12.93 31.96-33.73 0-20.8-12.24-33.7-31.95-33.7v-.03zm.16 56.75c-10.87 0-18.16-9.32-18.16-23.2 0-13.93 7.3-23.3 18.17-23.3 11.02 0 18.14 9.16 18.14 23.3 0 14.13-7.12 23.22-18.14 23.22v-.03zm-83.6-38.76c0 9.08 6.24 13.84 17.72 19.47 7.26 3.58 11.05 5.66 11.05 10.68 0 5.15-4.67 8.5-11.87 8.5-5.12 0-10.78-1.47-16.4-4.23l-.96-.46-.4 11.35.47.2c5.36 2.12 11 3.18 16.85 3.18 15.98 0 26.3-7.63 26.3-19.4 0-9.83-6.54-14.83-17.85-20.1-8.3-3.9-11.77-6.17-11.77-10.3 0-3.9 3.85-6.43 9.84-6.43 5.4 0 10.67 1.2 15.65 3.58l.93.46.6-11.15-.53-.14c-5.44-1.62-10.77-2.43-15.9-2.43-14.15 0-23.68 6.94-23.68 17.27h-.02l-.02-.03zm-29.65-35.4c0 4.3 3.5 7.78 7.8 7.78 4.27 0 7.76-3.5 7.76-7.77 0-4.28-3.48-7.76-7.76-7.76-4.3 0-7.78 3.52-7.78 7.82v-.04zm13.66 18.9h-12.38v64.4h13.07v-64.4h-.68zm199.97 4.26h1.24c1.6 0 2.36-.53 2.36-1.67 0-1.24-.8-1.76-2.5-1.76h-1.05v3.42h-.03zm1.63-5.64c3.68 0 5.54 1.28 5.54 3.72 0 1.63-1 2.9-2.72 3.44l2.84 5.6H781l-2.4-5.08h-1.03v5.08h-3.52v-12.74h5.15v-.02zm-6.85-.26c-1.9 1.9-2.87 4.32-2.87 6.9 0 2.5.92 4.77 2.7 6.62 1.84 1.86 4.23 2.92 6.78 2.92 2.52 0 4.9-.98 6.76-2.78 1.83-1.73 2.83-4.15 2.83-6.77 0-2.57-.93-4.9-2.7-6.7-1.85-1.88-4.24-2.88-6.84-2.88-2.6 0-4.86.92-6.65 2.68zm15.04-1.27c2.14 2.16 3.26 5.02 3.26 8.14 0 3.24-1.2 6.14-3.45 8.3-2.3 2.2-5.22 3.38-8.22 3.38-3.14 0-6.06-1.23-8.3-3.54-2.17-2.25-3.35-5.1-3.35-8.13 0-3.07 1.24-6.1 3.55-8.35 2.18-2.15 4.96-3.32 8.1-3.32 3.23 0 6.17 1.24 8.4 3.55v-.03z"/>
		<path fill="#0A0A08" d="M194.9 334.75l-11.76 4.06v15.4H170.1v10.28h12.67v33.1c0 15.74 5.37 22.14 18.52 22.14 3.35 0 6.53-.4 9.7-1.26l.55-.13-.14-10.74-.92.34c-2.57.9-4.6 1.32-6.16 1.32-6.18 0-8.5-3.47-8.5-12.86v-31.96h15.1v-10.28h-15.1v-19.72l-.92.32m40.76 29.84v-10.44l-11.94.03v64.4h13.05v-32.35c0-13.52 5.7-21 16.02-21 1.5 0 2.94.2 4.7.72l.85.26.44-12.73-5.62-.45c-7.56 0-13.7 4.1-17.5 11.56m32.75-29.3c0 4.28 3.5 7.76 7.77 7.76 4.3 0 7.78-3.48 7.78-7.77 0-4.3-3.48-7.78-7.78-7.78-4.28 0-7.77 3.53-7.77 7.83m13.63 18.85H269.7v64.4h13.06v-64.4h-.7m46.83-1.52c-9 0-16.52 4.24-21.56 11.97v-10.42H295.4v90.68h13.1v-35.17c4.7 6.4 11.46 9.92 19.9 9.92 16.5 0 27.17-13.53 27.17-34.48 0-19.42-10.74-32.47-26.7-32.47m-3.57 56.36c-10.35 0-16.78-8.83-16.78-23.04 0-13.7 6.76-22.55 17.24-22.55 10.08 0 16.1 8.38 16.1 22.4 0 14.33-6.35 23.2-16.62 23.2M343.77 175.66c-3.65-14.9-14.77-29.68-14.77-29.68l47.22-.03c28.15-18.33 63.86-28.17 103.38-28.17 38.17 0 72.68 9.57 101 27.82l50.13.03s-11.28 14.98-14.86 30c4.2 5.6 7.68 11.93 10.25 18.82 14.44 38.9-5.6 82.24-44.72 96.64-18.9 6.92-39.42 6.13-57.78-2.3-11.03-5.06-20.47-12.5-27.76-21.74l-16.2 24.1-16.1-23.88c-13.86 17.17-35.13 28.15-58.94 28.15-41.65 0-75.57-33.72-75.57-75.2 0-16.66 5.48-32.1 14.73-44.57"/>
		<path fill="#E8C56C" d="M405.8 145.04c21.68-9.25 46.74-14.15 73.8-14.15 27.07 0 51.54 4.88 73.16 14.5-7.9.23-15.93 1.74-23.73 4.6-18.9 6.95-34 20.85-42.48 39.1-3.65 7.93-5.87 16.25-6.63 24.67-3.32-38.06-35.18-68.1-74.13-68.7v-.03z"/>
		<ellipse fill="#fff" cx="404.583" cy="220.508" rx="60.317" ry="60.028"/>
		<ellipse fill="#fff" cx="555.218" cy="220.508" rx="60.317" ry="60.028"/>
		<ellipse fill="#0A0A08" cx="404.6" cy="220.508" rx="37.335" ry="37.156"/>
		<ellipse fill="#0A0A08" cx="555.185" cy="220.508" rx="37.335" ry="37.156"/>
		<ellipse fill="#fff" cx="404.6" cy="220.508" rx="24.475" ry="24.358"/>
		<ellipse fill="#fff" cx="555.185" cy="220.508" rx="24.475" ry="24.358"/>
		<ellipse fill="#922826" cx="404.6" cy="220.508" rx="12.445" ry="12.385"/>
		<ellipse fill="#548C40" cx="555.185" cy="220.508" rx="12.445" ry="12.385"/>
	</g>
</svg>
