<svg xmlns="http://www.w3.org/2000/svg" width="24" height="24" viewBox="0 0 24 24"><path d="M2.4 0A2.4 2.4 0 0 0 0 2.4v19.2A2.4 2.4 0 0 0 2.4 24h19.2a2.4 2.4 0 0 0 2.4-2.4V2.4A2.4 2.4 0 0 0 21.6 0H2.4zm5.174 6.601c.746-.746 2.205-1.351 3.26-1.351h9.547l-3.375 3.377H5.548l2.025-2.026zm-.559 8.773h11.457l-2.025 2.026c-.746.746-2.205 1.351-3.26 1.351H3.639l3.375-3.377zm12.712-5.062H3.878l-.675.675c-1.491 1.492-.991 2.701 1.119 2.701h15.848l.675-.675c1.491-1.492.991-2.701-1.119-2.701z" fill-rule="evenodd"/></svg>
