<svg xmlns="http://www.w3.org/2000/svg" width="24" height="24" viewBox="0 0 24 24"><path d="M12 0c6.627 0 12 5.373 12 12s-5.373 12-12 12S0 18.627 0 12 5.373 0 12 0zM7.745 8.021H5.496c-.852 0-1.324.399-1.324 1.124s.453 1.161 1.288 1.161h.925v4.371c0 1.233.834 1.959 2.031 1.959s1.741-.472 2.34-1.578l1.306-2.448v2.068c0 1.215.798 1.959 2.013 1.959s1.669-.417 2.358-1.578l3.011-5.078c.628-1.064.233-1.893-1.088-1.955L18.2 8.02l-.143.004c-.695.033-1.165.307-1.589 1.103l-2.068 3.899V9.562c0-1.034-.49-1.542-1.396-1.542s-1.288.308-1.741 1.179l-1.959 3.827V9.599c0-1.106-.453-1.578-1.56-1.578z"/></svg>
