<svg xmlns="http://www.w3.org/2000/svg" viewBox="0 0 24 24"><path d="M20.694 18.429c.406 0 .735.336.735.75v1.5c0 .414-.329.75-.735.75H3.306c-.406 0-.735-.336-.735-.75v-1.5c0-.414.329-.75.735-.75h17.388zm-.513 1.071H6.39c-.097 0-.176.064-.176.143v.571c0 .079.079.143.176.143h13.79c.097 0 .176-.064.176-.143v-.571c0-.079-.079-.143-.176-.143zm.513-4.929c.406 0 .735.336.735.75v1.5c0 .414-.329.75-.735.75H3.306c-.406 0-.735-.336-.735-.75v-1.5c0-.414.329-.75.735-.75h17.388zm-.527 1.188H8.976c-.105 0-.19.064-.19.143v.571c0 .079.085.143.19.143h11.192c.105 0 .19-.064.19-.143v-.571c0-.079-.085-.143-.19-.143zm.527-5.045c.406 0 .735.336.735.75v1.5c0 .414-.329.75-.735.75H3.306c-.406 0-.735-.336-.735-.75v-1.5c0-.414.329-.75.735-.75h17.388zm-.551 1.071h-2.571c-.118 0-.214.064-.214.143v.571c0 .079.096.143.214.143h2.571c.118 0 .214-.064.214-.143v-.571c0-.079-.096-.143-.214-.143zM6.944 1.786l-.083 1.678-3.253.062v1.844c.083-.041.166-.083.269-.104l.332-.083.174-.028.08-.009.078-.004c.104 0 .228-.021.332-.021.435 0 .808.062 1.119.186a2.01 2.01 0 0 1 .767.518c.207.228.373.456.477.746s.145.58.145.87c0 .394-.062.746-.207 1.057s-.352.559-.622.767a2.59 2.59 0 0 1-.85.456c-.332.104-.642.145-.974.145-.352 0-.663-.041-.912-.124s-.497-.207-.684-.332-.311-.29-.414-.456-.145-.332-.145-.497a.83.83 0 0 1 .062-.311.98.98 0 0 1 .145-.249c.062-.083.145-.124.228-.186s.186-.062.29-.062c.124 0 .228.021.311.062s.145.104.207.166c.033.033.055.072.07.114l.033.114c.021.083.041.145.041.228 0 .062 0 .124-.021.207s-.062.145-.104.207c.021.062.083.124.124.166s.145.083.207.124.166.062.249.083a.93.93 0 0 0 .228.021 1.09 1.09 0 0 0 .539-.124c.145-.083.249-.207.352-.352s.145-.29.186-.456a2.26 2.26 0 0 0 .062-.539v-.352c0-.124-.021-.249-.062-.373-.021-.145-.062-.269-.104-.394s-.145-.249-.228-.332-.207-.186-.332-.249-.311-.104-.518-.104c-.145 0-.332.041-.539.083s-.456.166-.705.311l-.435-.352-.041-3.461h2.694c.124 0 .228 0 .311-.021s.186-.041.269-.104.104-.104.145-.207a.86.86 0 0 0 .062-.332h.642zm5.203-.293c.092-.002.175.055.207.141l1.083 2.594 2.814.225c.091.006.168.067.194.154l.035.11c.03.085.004.18-.066.238l-2.123 1.823.652 2.735c.021.088-.012.179-.084.233l-.128.07a.22.22 0 0 1-.247 0L12.09 8.364 9.681 9.83a.22.22 0 0 1-.247 0l-.097-.066c-.072-.054-.105-.146-.084-.233l.634-2.753-2.123-1.823c-.074-.054-.106-.15-.079-.238l.035-.11c.026-.087.103-.149.194-.154l2.814-.225 1.079-2.594c.032-.081.107-.135.192-.141h.147z"/></svg>
