<svg xmlns="http://www.w3.org/2000/svg" viewBox="0 0 24 24"><path d="M18.646 1.821a3.44 3.44 0 0 1 1.772.481 3.57 3.57 0 0 1 1.281 1.285 3.46 3.46 0 0 1 .479 1.775v8.126a3.51 3.51 0 0 1-.477 1.78c-.315.545-.746.981-1.283 1.298a3.44 3.44 0 0 1-1.772.481h-6.28l-.064.052-6.144 4.914c-.392.304-.976.263-1.359-.066-.358-.307-.472-.83-.337-1.233l1.377-3.742h-.485a3.44 3.44 0 0 1-1.567-.369l-.206-.112a3.57 3.57 0 0 1-1.281-1.285 3.46 3.46 0 0 1-.479-1.775V5.362a3.46 3.46 0 0 1 .479-1.775 3.57 3.57 0 0 1 1.281-1.285 3.44 3.44 0 0 1 1.772-.481h13.292zm0 1.5H5.354a1.94 1.94 0 0 0-1.01.273 2.07 2.07 0 0 0-.749.752 1.96 1.96 0 0 0-.273 1.016v8.069a1.96 1.96 0 0 0 .273 1.016 2.07 2.07 0 0 0 .749.752 1.94 1.94 0 0 0 1.01.273H7.99l-.371 1.009-1.275 3.464.103-.082 1.871-1.496 1.1-.88 1.955-1.564.263-.21.205-.164h6.806a1.94 1.94 0 0 0 1.01-.273c.315-.186.561-.435.747-.757a2.01 2.01 0 0 0 .275-1.029V5.362a1.96 1.96 0 0 0-.273-1.016 2.07 2.07 0 0 0-.749-.752 1.94 1.94 0 0 0-1.01-.273zm-6.582 1.4a.22.22 0 0 1 .211.144l1.106 2.648 2.873.229a.22.22 0 0 1 .198.157l.036.112a.22.22 0 0 1-.067.243l-2.167 1.861.665 2.792a.23.23 0 0 1-.085.238l-.13.072c-.076.051-.176.051-.252 0l-2.446-1.484-2.459 1.497c-.076.051-.176.051-.252 0l-.099-.067a.23.23 0 0 1-.085-.238l.647-2.81-2.167-1.861a.22.22 0 0 1-.081-.243l.036-.112a.22.22 0 0 1 .198-.157l2.873-.229 1.101-2.648a.23.23 0 0 1 .196-.144h.15z"/></svg>
