<svg xmlns="http://www.w3.org/2000/svg" viewBox="0 0 24 24"><path d="M9.506 19.714H3.351c-.43 0-.779.288-.779.643v1.286c0 .355.349.643.779.643h6.156c.43 0 .779-.288.779-.643v-1.286c0-.355-.349-.643-.779-.643zm11.187-7.286H3.306a.73.73 0 0 0-.735.723v4.339a.73.73 0 0 0 .735.723h17.388a.73.73 0 0 0 .735-.723v-4.339a.73.73 0 0 0-.735-.723zm0-3H3.306c-.406 0-.735.349-.735.78v-.06c0 .431.329.78.735.78h17.388c.406 0 .735-.349.735-.78v.06c0-.431-.329-.78-.735-.78zM5.831 1.714c.067-.001.128.04.151.103l.79 1.892 1.889.151 1.891-.151.787-1.892c.023-.059.078-.098.14-.103h.107c.067-.001.128.04.151.103l.79 1.892 1.89.151 1.89-.151.787-1.892c.023-.059.078-.098.14-.103h.107c.067-.001.128.04.151.103l.79 1.892 2.052.164c.066.004.122.049.141.112l.026.08c.022.062.003.131-.048.173l-1.548 1.33.475 1.994c.016.064-.008.131-.061.17l-.093.051a.16.16 0 0 1-.18 0L17.3 6.724l-1.756 1.069a.16.16 0 0 1-.18 0l-.071-.048c-.053-.039-.077-.106-.061-.17l.462-2.007-1.273-1.093-1.271 1.093.475 1.994c.016.064-.008.131-.061.17l-.093.051a.16.16 0 0 1-.18 0l-1.747-1.06-1.756 1.069a.16.16 0 0 1-.18 0l-.071-.048c-.053-.039-.077-.106-.061-.17l.462-2.007-1.273-1.093-1.271 1.093.475 1.994c.016.064-.008.131-.061.17l-.093.051a.16.16 0 0 1-.18 0L5.79 6.724 4.033 7.794a.16.16 0 0 1-.18 0l-.071-.048c-.053-.039-.077-.106-.061-.17l.462-2.007-1.548-1.33c-.054-.04-.078-.109-.058-.173l.026-.08c.019-.063.075-.108.141-.112l2.052-.164.787-1.892c.023-.059.078-.098.14-.103h.107z"/></svg>
