<svg xmlns="http://www.w3.org/2000/svg" viewBox="0 0 256 256" class="glsr-icon-svg">
    <path fill="#e8ff5e" d="M0 0h256v256H0z"/>
    <path fill="#fff" d="M215.868 175.505s.022-.155.044-.221l.088-1.562V54.943c0-1.541-.242-3.037-.682-4.446s-1.079-2.707-1.87-3.917c-.529-.792-1.145-1.541-1.826-2.201s-1.409-1.276-2.201-1.827a13.96 13.96 0 0 0-3.917-1.871c-1.408-.418-2.904-.682-4.445-.682H82.273l-1.518.066c-.462.044-.924.11-1.386.22-3.059.594-5.721 2.113-7.768 4.204L44.379 71.714C41.672 74.421 40 78.162 40 82.278v118.778C40 209.309 46.69 216 54.942 216h118.764c4.511 0 8.538-2.003 11.289-5.15l26.032-26.036c2.289-2.069 3.939-4.82 4.621-7.945.088-.484.154-.924.22-1.364z"/>
    <g fill="#000">
        <path d="M215.868 175.505s.022-.155.044-.221l.088-1.562V54.944c0-1.541-.242-3.037-.682-4.446s-1.079-2.707-1.87-3.917c-.529-.792-1.145-1.541-1.826-2.201s-1.409-1.276-2.201-1.827a13.96 13.96 0 0 0-3.917-1.871c-1.408-.418-2.904-.682-4.445-.682H82.273l-1.518.066c-.462.044-.924.11-1.386.22-3.059.594-5.721 2.113-7.768 4.204L44.379 71.714C41.672 74.421 40 78.162 40 82.278v118.778C40 209.31 46.69 216 54.942 216h118.764c4.511 0 8.538-2.003 11.289-5.15l26.032-26.036c2.289-2.069 3.939-4.82 4.621-7.945.088-.484.154-.924.22-1.364zm-169.266-73.64l20.729-20.732v12.765L46.602 114.63v-12.765zm0 22.096l20.729-20.731v12.765l-20.729 20.732v-12.765zm0 22.096l20.729-20.732v12.765l-20.729 20.732v-12.765zm0 22.119l20.729-20.732v12.765l-20.729 20.732v-12.765zm0 22.118l20.729-20.732v4.182c0 2.927.858 5.656 2.311 7.967l-22.446 22.448a8.32 8.32 0 0 1-.594-3.059v-10.805zM200.985 46.58c4.647 0 8.413 3.767 8.413 8.413v118.678c0 4.647-3.767 8.413-8.413 8.413H82.346c-4.647 0-8.413-3.767-8.413-8.413V54.994c0-4.647 3.767-8.413 8.413-8.413h118.639zM67.331 58.091V71.78L46.602 92.512V82.278c0-2.223.858-4.314 2.443-5.898l18.287-18.289z"/>
        <path class="mouth" d="M104.262 141.636c0-1.166-.861-2.14-1.978-2.318h-8.966c-.826 0-1.496-.67-1.496-1.497v-9.449c0-.826.67-1.497 1.496-1.497h9.448c.826 0 1.496.67 1.496 1.497v8.583c.008 1.284 1.061 2.333 2.347 2.333l69.889-.023c1.289 0 2.343-1.053 2.348-2.34v-8.605c0-.827.67-1.497 1.496-1.497h9.448c.826 0 1.496.67 1.496 1.497v9.448c0 .827-.67 1.497-1.496 1.497h-8.618c-1.156.01-2.119.867-2.297 1.977v8.992c0 .826-.67 1.497-1.496 1.497h-71.621c-.826 0-1.496-.67-1.496-1.497v-8.598z"/>
        <path class="left-eye" d="M118.169 77.137h9.448c.826 0 1.497.67 1.497 1.497v34.127c0 .826-.67 1.497-1.497 1.497h-9.448c-.826 0-1.497-.67-1.497-1.497V78.634c0-.827.67-1.497 1.497-1.497z"/>
        <path class="right-eye" d="M164.938 77.137h-9.448c-.826 0-1.496.67-1.496 1.497v34.127c0 .826.67 1.497 1.496 1.497h9.448c.826 0 1.497-.67 1.497-1.497V78.634c0-.827-.67-1.497-1.497-1.497z"/>
    </g>
</svg>
