<svg xmlns="http://www.w3.org/2000/svg" width="537" height="91">
	<title>Booking</title>
	<g fill="none">
		<circle fill="#243664" cx="218.84" cy="9.02" r="8.15"/>
		<path fill="#243664" d="M327.36 21.78c-2.66 0-4.7 1.06-5.73 3l-.4.75-.64-.57c-2.27-1.95-6.32-4.27-12.9-4.27-13.1 0-21.93 9.82-21.93 24.47 0 14.63 9.13 24.85 22.2 24.85 4.45 0 7.97-1.04 10.77-3.16l1.08-.8v1.35c0 6.58-4.25 10.2-11.94 10.2-3.75 0-7.15-.9-9.43-1.73-2.97-.9-4.7-.16-5.92 2.82l-1.1 2.75-1.58 4.02.97.52c4.93 2.6 11.34 4.16 17.14 4.16 11.93 0 25.86-6.1 25.86-23.3l.05-45.08h-6.5zm-16.9 35.97c-7.67 0-10.4-6.7-10.4-12.95 0-2.76.7-11.75 9.65-11.75 4.46 0 10.4 1.28 10.4 12.2 0 10.33-5.26 12.5-9.65 12.5zm-47.1-36.96c-7.17 0-11.74 3.18-14.3 5.88l-.86.87-.3-1.18c-.76-2.9-3.3-4.48-7.13-4.48h-6.32l.04 49.14h14V48.4c0-2.23.3-4.15.88-5.9 1.56-5.3 5.9-8.6 11.34-8.6 4.38 0 6.08 2.3 6.08 8.26v21.4c0 5.1 2.36 7.48 7.45 7.48h6.67l-.02-31.26c0-12.42-6.06-19-17.53-19zm-44.35 1.1h-6.63l.04 38.02v11.13h7.1c.08 0 .16.02.25.02l3.3-.02h3.28v-.02h.03l.02-41.66c0-5.02-2.4-7.46-7.37-7.46zm-24.1 25.73c-.6-1.1-1.25-2-1.96-2.74l-.45-.48.46-.46c.7-.72 1.38-1.57 2.06-2.56l13.1-19.5h-15.9l-9.87 15.26c-.55.8-1.68 1.23-3.36 1.23h-2.26V9.55c0-5.77-3.6-6.56-7.47-6.56h-6.65v68.06h14.12v-20.4h1.32c1.6 0 2.7.18 3.2 1.05l7.8 14.7c2.16 3.98 4.33 4.66 8.4 4.66h10.82l-8.05-13.32-5.34-10.1zM131.84 20.9c-14.87 0-25.66 10.7-25.66 25.46 0 14.74 10.78 25.45 25.65 25.45 14.9 0 25.75-10.7 25.75-25.44 0-14.75-10.84-25.45-25.75-25.45zm0 39c-7.02 0-11.9-5.57-11.9-13.54 0-7.97 4.88-13.55 11.9-13.55 7.06 0 12 5.6 12 13.56 0 8.1-4.83 13.55-12 13.55zm-55.03-39c-14.86 0-25.65 10.7-25.65 25.46 0 14.74 10.8 25.45 25.65 25.45 14.9 0 25.75-10.7 25.75-25.44 0-14.75-10.84-25.45-25.75-25.45zm0 39c-7.03 0-11.9-5.57-11.9-13.54 0-7.97 4.87-13.55 11.9-13.55 7.06 0 12 5.6 12 13.56 0 8.1-4.83 13.55-12 13.55zm-37.6-23.73L37.13 35l1.8-1.53c2.1-1.8 5.6-5.84 5.6-12.84 0-10.7-8.3-17.6-21.13-17.6H7.1C3.28 3.17.22 6.26.18 10.1v60.7l6.73.02c.03 0 .03 0 .04 0H23.7c14.27 0 23.5-7.78 23.5-19.8 0-6.5-3-12.03-8-14.85zM24.63 59.34h-11.4V45.69c0-2.92 1.12-4.43 3.62-4.78h7.78c5.55 0 9.14 3.5 9.14 9.16 0 5.82-3.5 9.26-9.14 9.27zm-11.4-36.78v-3.6c0-3.13 1.32-4.63 4.24-4.8h5.84c5 0 8 2.98 8 8 0 3.8-2.05 8.27-7.82 8.27H13.23v-7.87z"/>
		<circle fill="#00A3DA" cx="347.53" cy="63.41" r="8.15"/>
		<path fill="#00A3DB" d="M520.53 20.95c-5.8 0-11.44 2.73-15.04 7.3l-1.03 1.28-.8-1.44c-2.6-4.75-7.06-7.15-13.27-7.15-6.5 0-10.88 3.64-12.9 5.8l-1.33 1.43-.52-1.9c-.74-2.7-3.16-4.2-6.84-4.2h-5.87l-.06 48.95h13.38v-21.6c0-1.9.24-3.77.7-5.73 1.3-5.23 4.8-10.84 10.7-10.28 3.64.35 5.42 3.16 5.42 8.6v29h13.47v-21.6c0-2.37.22-4.14.76-5.9 1.08-5 4.74-10.1 10.44-10.1 4.12 0 5.64 2.32 5.64 8.6v21.86c0 4.95 2.2 7.15 7.15 7.15h6.3V39.78c0-12.5-5.48-18.83-16.3-18.83zm-88.34-.04c-14.9 0-25.67 10.7-25.67 25.46 0 14.74 10.78 25.45 25.66 25.45 14.9 0 25.74-10.7 25.74-25.44 0-14.75-10.85-25.45-25.75-25.45zm0 39c-7.04 0-11.93-5.57-11.93-13.54 0-7.97 4.9-13.55 11.92-13.55 7.04 0 12 5.6 12 13.56 0 8.1-4.84 13.55-12 13.55zm-33.42-5.86c-.04.04-5.8 6.1-13.38 6.1-6.9 0-13.88-4.22-13.88-13.68 0-8.17 5.4-13.88 13.15-13.88 2.52 0 5.38.9 5.82 2.42l.06.25c1.03 3.44 4.15 3.62 4.77 3.62h7.33v-6.4c0-8.45-10.75-11.52-18-11.52-15.46 0-26.7 10.77-26.7 25.6 0 14.84 11.12 25.6 26.43 25.6 13.27 0 20.5-8.73 20.56-8.82l.4-.48-5.8-9.63-.78.82z"/>
	</g>
</svg>
