<svg xmlns="http://www.w3.org/2000/svg" width="666" height="109">
	<title>Tripadvisor</title>
	<g fill="none">
		<path fill="#0A0A08" d="M216.54 25.86l-8.88 3.06v11.6h-9.84v7.76h9.56v24.96c0 11.87 4.05 16.7 13.97 16.7 2.53 0 4.93-.3 7.33-.95l.4-.1-.1-8.1-.7.26c-1.94.68-3.47 1-4.65 1-4.66 0-6.4-2.62-6.4-9.7v-24.1h11.37V40.5h-11.37V25.63l-.7.24m30.73 22.5V40.5l-9 .02V89.1h9.84V64.7c0-10.2 4.3-15.85 12.08-15.85 1.13 0 2.22.17 3.55.55l.64.2.33-9.6-4.23-.34c-5.7 0-10.33 3.1-13.2 8.72m24.7-22.1c0 3.22 2.63 5.85 5.86 5.85 3.24 0 5.87-2.63 5.87-5.86 0-3.23-2.63-5.86-5.87-5.86-3.23 0-5.86 2.66-5.86 5.9m10.28 14.22h-9.33V89.1h9.86V40.52h-.52m35.3-1.14c-6.77 0-12.45 3.2-16.25 9.03v-7.86h-9v68.38h9.87V82.4c3.54 4.83 8.65 7.48 15 7.48 12.45 0 20.5-10.2 20.5-26 0-14.64-8.1-24.48-20.13-24.48m-2.7 42.5c-7.8 0-12.65-6.66-12.65-17.38 0-10.33 5.1-17 13-17 7.6 0 12.15 6.32 12.15 16.9 0 10.8-4.8 17.48-12.54 17.48"/>
		<path fill="#fff" d="M375.14 68.6c0 8.37-5.03 13.77-12.83 13.77-4.74 0-8.06-3.13-8.06-7.62 0-5.9 5.63-9.14 15.86-9.14h5.05v3zm-8.66-29.22c-6.02 0-11.3 1.13-16.14 3.46l-.3.14.1 8.4.78-.42c4.63-2.6 9-3.9 13-3.9 7.13 0 11.22 4.08 11.22 11.22v.42h-5.63c-16.2 0-25.12 5.87-25.12 16.53 0 8.56 6.45 14.54 15.68 14.54 6.78 0 12.03-2.66 15.77-7.7v7.03h8.9V59.7c0-13.5-6.12-20.32-18.22-20.32h-.02zm47.26 42.32c-7.5 0-12.17-6.54-12.17-17.08 0-10.56 4.7-17.38 11.98-17.38 8.15 0 13.02 6.5 13.02 17.38 0 10.38-5.04 17.1-12.83 17.1v-.02zm12.83-64.38v29.8c-3.63-5.06-8.7-7.74-15.2-7.74-12.04 0-20.13 9.9-20.13 24.67 0 15.2 8.2 25.8 19.94 25.8 6.96 0 12.37-3.06 16.15-9.07v8.32h9.1V17.3h-9.86v.02zm53.88 23.2l-13.98 28.04-12.9-28.05-11.1.04 23.8 48.58 24.47-48.57h-10.3v-.03zm141.93 7.86V40.5l-9 .02V89.1h9.85V64.7c0-10.2 4.3-15.85 12.08-15.85 1.16 0 2.25.17 3.58.55l.64.2.33-9.6-4.23-.34c-5.72 0-10.34 3.1-13.22 8.72h-.02zm-42.3-8.97c-14.82 0-24 9.74-24 25.43 0 15.7 9.18 25.44 24 25.44 14.86 0 24.1-9.75 24.1-25.43s-9.24-25.42-24.1-25.42zm.12 42.8c-8.2 0-13.7-7.03-13.7-17.5 0-10.5 5.5-17.56 13.7-17.56 8.3 0 13.67 6.9 13.67 17.57 0 10.65-5.37 17.5-13.68 17.5zm-63.04-29.23c0 6.84 4.7 10.43 13.36 14.67 5.47 2.7 8.33 4.27 8.33 8.06 0 3.88-3.52 6.4-8.95 6.4-3.86 0-8.13-1.1-12.37-3.18l-.72-.35-.3 8.56.35.14c4.04 1.6 8.3 2.4 12.7 2.4 12.05 0 19.83-5.75 19.83-14.64 0-7.4-4.93-11.17-13.46-15.15-6.25-2.93-8.87-4.65-8.87-7.77 0-2.93 2.9-4.84 7.42-4.84 4.07 0 8.04.9 11.8 2.7l.7.34.45-8.4-.4-.1c-4.1-1.23-8.12-1.84-11.98-1.84-10.68 0-17.86 5.23-17.86 13.02h-.02zm-22.36-26.7c0 3.23 2.64 5.86 5.87 5.86s5.86-2.63 5.86-5.86c0-3.23-2.63-5.86-5.86-5.86-3.23 0-5.86 2.66-5.86 5.9v-.03zm10.3 14.25h-9.34V89.1h9.85V40.52h-.5zM655.87 43.74h.94c1.2 0 1.77-.4 1.77-1.26 0-.93-.6-1.32-1.88-1.32h-.8v2.58h-.03zm1.23-4.25c2.78 0 4.18.96 4.18 2.8 0 1.23-.75 2.2-2.05 2.6l2.14 4.22h-2.92l-1.8-3.83h-.78v3.83h-2.65V39.5h3.88zm-5.16-.2c-1.43 1.43-2.17 3.26-2.17 5.2 0 1.9.7 3.6 2.05 5 1.38 1.4 3.18 2.2 5.1 2.2 1.9 0 3.7-.74 5.1-2.1 1.38-1.3 2.13-3.13 2.13-5.1 0-1.94-.7-3.7-2.03-5.05-1.4-1.42-3.2-2.18-5.16-2.18s-3.67.7-5.02 2.02zm11.34-.96c1.62 1.64 2.46 3.8 2.46 6.15 0 2.44-.9 4.63-2.6 6.25-1.75 1.66-3.94 2.56-6.2 2.56-2.37 0-4.57-.93-6.26-2.67-1.64-1.7-2.53-3.84-2.53-6.13 0-2.32.94-4.6 2.68-6.3 1.64-1.62 3.74-2.5 6.1-2.5 2.44 0 4.66.93 6.35 2.67v-.02z"/>
		<path fill="#0A0A08" d="M8.9 35.52C6.7 26.5 0 17.55 0 17.55l28.46-.02C45.42 6.43 66.94.47 90.76.47c23 0 43.8 5.8 60.86 16.85l30.22.02s-6.8 9.07-8.96 18.16c2.54 3.4 4.63 7.23 6.18 11.4 8.7 23.55-3.38 49.8-26.95 58.52-11.4 4.2-23.76 3.72-34.82-1.38-6.65-3.07-12.34-7.58-16.73-13.17l-9.76 14.6L81.1 91c-8.36 10.4-21.18 17.05-35.53 17.05-25.1 0-45.54-20.42-45.54-45.53 0-10.1 3.3-19.44 8.88-27z"/>
		<path fill="#E8C56C" d="M46.28 16.98c13.07-5.6 28.17-8.57 44.47-8.57 16.32 0 31.07 2.96 44.1 8.78-4.77.15-9.6 1.06-14.3 2.8-11.4 4.2-20.5 12.62-25.6 23.67-2.2 4.8-3.54 9.84-4 14.94-2-23.05-21.2-41.24-44.67-41.6v-.02z"/>
		<circle fill="#fff" cx="45.55" cy="62.68" r="36.35"/>
		<circle fill="#fff" cx="136.33" cy="62.68" r="36.35"/>
		<circle fill="#0A0A08" cx="45.56" cy="62.68" r="22.5"/>
		<circle fill="#0A0A08" cx="136.31" cy="62.68" r="22.5"/>
		<circle fill="#fff" cx="45.56" cy="62.68" r="14.75"/>
		<circle fill="#fff" cx="136.31" cy="62.68" r="14.75"/>
		<circle fill="#922826" cx="45.56" cy="62.68" r="7.5"/>
		<circle fill="#548C40" cx="136.31" cy="62.68" r="7.5"/>
	</g>
</svg>
