<svg xmlns="http://www.w3.org/2000/svg" width="158" height="81">
	<title>Yelp</title>
	<g fill="none">
		<path fill="#C7C6C2" d="M128.2 0c-.23 0-.47 0-.7.03-2.58.2-5.16.65-7.67 1.32-2.52.67-4.97 1.58-7.3 2.7-2.28 1.08-4.02 3.08-4.77 5.5-.75 2.4-.46 5.06.8 7.25l6.02 10.42c-.82-.24-1.68-.37-2.54-.37-3.86 0-7.3 2.43-8.58 6.06-1.04-.86-2.2-1.62-3.5-2.22-2.3-1.1-4.85-1.67-7.42-1.67-1.86 0-3.68.3-5.4.9-1.33-.66-2.8-1-4.3-1-1.8 0-3.58.5-5.1 1.45v-.48c0-5.37-4.38-9.74-9.75-9.74-5.4 0-9.76 4.37-9.76 9.74v3.6c-.2-.18-.42-.36-.63-.52-4.1-3.25-8.6-3.74-10.9-3.74-1.8 0-6.37.37-10.6 3.6-1.2-1.47-2.8-2.55-4.65-3.12-.95-.3-1.93-.44-2.9-.44-4.26 0-7.97 2.67-9.32 6.68l-.57-1.15c-1.64-3.36-5.1-5.52-8.84-5.52-1.48 0-2.97.34-4.3 1-2.37 1.15-4.14 3.15-5 5.63-.84 2.48-.68 5.15.47 7.5L9.44 60.7c-2.5 1.17-4.3 3.3-5.07 6.04-.82 2.9-.3 5.92 1.44 8.3 1.36 1.84 4.03 4.06 9.02 4.2h.56c8.44 0 12.14-4.93 13.76-9.07.18-.46.33-.9.47-1.32v-.03l1.74-5.6c3 5.5 8.33 8.53 15.02 8.53h.2c5.47-.05 9.9-1.58 13.2-4.52 1.8 2.77 4.87 4.45 8.18 4.45 1.8 0 3.57-.5 5.1-1.45v.47c0 5.37 4.36 9.74 9.73 9.74 2.57 0 4.98-.97 6.8-2.76 1.7-1.64 2.7-3.8 2.9-6.1 5.97-.1 9.67-2.64 11.74-4.77 3.08-3.15 4.84-7.64 5.23-13.35.54.12 1.1.16 1.64.16.3 0 .57 0 .84-.02-1.16 1.77-1.67 3.92-1.42 6.05.3 2.6 1.73 4.95 3.88 6.43 3.46 2.38 7.46 4 11.58 4.7.5.08 1.02.12 1.52.12 4.45 0 8.14-3.15 8.94-7.4 1.72 2 4.2 3.16 6.9 3.16 2.1 0 4.16-.74 5.8-2.08 3.2-2.66 5.86-6.07 7.67-9.85 1.14-2.35 1.2-5.1.16-7.5-.85-1.97-2.37-3.57-4.26-4.53 1.92-.88 3.5-2.42 4.4-4.36 1.13-2.36 1.17-5.1.13-7.5-1.7-3.9-4.17-7.3-7.36-10.13-1.67-1.47-3.8-2.28-6.02-2.28-2.5 0-4.88 1.02-6.58 2.8V9.1c0-5.02-4.08-9.1-9.1-9.1h.03z"/>
		<path fill="#fff" d="M128.2.62c4.68 0 8.48 3.8 8.48 8.48v13.83l.16-.25c1.58-2.34 4.2-3.73 7.04-3.73 2.06 0 4.05.75 5.6 2.1 3.12 2.77 5.55 6.1 7.2 9.92.97 2.24.93 4.8-.1 7-1.06 2.2-3 3.86-5.34 4.53l-.28.08.27.1c2.33.74 4.2 2.46 5.18 4.7.98 2.25.93 4.8-.12 7-1.77 3.7-4.37 7.03-7.52 9.64-1.52 1.25-3.43 1.94-5.4 1.94-2.94 0-5.63-1.5-7.2-4l-.15-.24v.3c-.16 4.58-3.9 8.18-8.47 8.18-.47 0-.94-.04-1.4-.12-4.04-.67-7.95-2.26-11.33-4.58-2.03-1.38-3.34-3.57-3.63-6-.3-2.42.48-4.85 2.12-6.66l.17-.22-.28.07c-.68.15-1.38.23-2.07.23-.77 0-1.5-.1-2.22-.3-.2 3.9-1.12 9.62-5.1 13.7-2.02 2.1-5.7 4.57-11.63 4.57h-.23c-.13 4.93-4.17 8.9-9.12 8.9-5.02 0-9.1-4.1-9.1-9.13L73.7 69c-1.55 1.27-3.54 2.03-5.7 2.03-3.47 0-6.5-1.95-8.04-4.8-2.54 2.5-6.7 4.8-13.36 4.88h-.2c-6.57 0-11.77-3-14.64-8.46-.2-.36-.36-.72-.53-1.1l-2.2 7.08v.04c-.13.42-.28.84-.45 1.3-1.55 3.94-5.1 8.65-13.18 8.65-.18 0-.36 0-.54 0-4.74-.1-7.26-2.2-8.54-3.95-1.63-2.2-2.12-5.03-1.34-7.75.8-2.82 2.72-4.9 5.3-5.9l-8.7-17.9c-1.1-2.2-1.24-4.7-.44-7.04.8-2.32 2.46-4.2 4.67-5.28 1.26-.6 2.65-.93 4.04-.93 3.5 0 6.75 2.03 8.28 5.17l1.26 2.57.4-1.27c1.2-3.9 4.73-6.5 8.8-6.5.9 0 1.83.15 2.7.42 1.95.6 3.6 1.8 4.76 3.42 4.2-3.48 8.85-3.86 10.7-3.86 2.23 0 6.56.48 10.5 3.6.6.48 1.15 1 1.65 1.5v-5.05c0-5.02 4.1-9.12 9.1-9.12 5.03 0 9.1 4.1 9.1 9.12v1.67c1.6-1.26 3.58-2.02 5.74-2.02 1.53 0 2.98.38 4.26 1.06 1.7-.62 3.56-.94 5.44-.94 2.47 0 4.95.56 7.16 1.6 1.62.78 2.96 1.73 4.06 2.8.08-.26.16-.52.24-.77 1.17-3.45 4.4-5.77 8.04-5.77 1.28 0 2.56.3 3.72.86l.26.12-6.9-11.97c-1.2-2.06-1.47-4.53-.77-6.78s2.32-4.12 4.44-5.13c2.3-1.1 4.7-2 7.2-2.66 2.45-.67 5-1.1 7.53-1.3.22-.02.45-.03.67-.03v.02z"/>
		<path fill="#C0282A" d="M113.17 33.64l11.25 5.48c2.16 1.06 1.82 4.24-.5 4.82l-12.15 3.03c-1.5.37-3-.67-3.2-2.22-.37-3.32 0-6.6 1.03-9.62.5-1.47 2.18-2.17 3.57-1.5zm4.5 23.14l8.37-9.3c1.6-1.78 4.58-.58 4.5 1.82l-.44 12.5c-.06 1.57-1.47 2.72-3 2.46-3.24-.54-6.3-1.8-8.97-3.63-1.3-.88-1.5-2.7-.46-3.85zM137.5 44.4l11.9 3.9c1.5.47 2.2 2.15 1.55 3.55-1.4 2.93-3.42 5.54-5.95 7.63-1.2 1-3 .7-3.84-.63l-6.63-10.6c-1.27-2.05.7-4.57 2.98-3.83zm12.1-7.56l-12 3.44c-2.32.67-4.2-1.92-2.85-3.92l7-10.37c.86-1.3 2.67-1.53 3.83-.5 2.4 2.1 4.37 4.76 5.7 7.82.6 1.44-.16 3.1-1.66 3.53zm-28.07-29.2c-2.17.6-4.23 1.35-6.2 2.3-1.34.63-1.85 2.3-1.1 3.6l11.75 20.36c1.32 2.28 4.8 1.34 4.8-1.3V9.1c0-1.5-1.27-2.7-2.76-2.57-2.15.17-4.32.54-6.48 1.12z"/>
		<path fill="#0C0D0B" d="M96.64 50.65c-.05 6.08-1.45 8.02-4.57 8.02-2.9 0-4.4-1.78-4.63-6.3-.05-.6-.05-1.13-.05-1.67 0-.43 0-.86.03-1.3.27-4.94 1.24-6.6 3.55-7.1 3.92-.9 5.75 1.3 5.64 8.35h.02zm6.38-1.54c0-4.2-.52-10-5.85-12.53-3-1.43-6.72-1.4-9.57.24-.57.34-1.14.7-1.64 1.08-.34-1.4-1.6-2.46-3.13-2.46-1.77 0-3.2 1.45-3.2 3.23V70.7c0 1.77 1.43 3.2 3.2 3.2 1.78 0 3.23-1.44 3.23-3.22v-8.4l.28.45c1.3 1.18 3.38 2.22 5.32 2.28 12.23.4 11.43-12.97 11.36-15.9zm-31.8 12.8c0 1.8-1.45 3.24-3.23 3.24-1.8 0-3.24-1.44-3.24-3.22V29.87c0-1.77 1.45-3.22 3.22-3.22 1.77 0 3.2 1.45 3.2 3.22V61.9h.04zm-29.3-14.7c.2-4.46 3.6-5.2 5.1-5.2 1.53 0 4.9.75 5.1 5.26-.04.25-.14.38-.28.38H42.2c-.15 0-.24-.16-.27-.45zm1.4 5.74h11.83c1.6-.12 3.12-1.45 3.13-3.58 0 0 0 0 0-.02v-.16c-.6-11.76-8.14-13.46-11.56-13.46-3.56 0-11.63 2.1-11.63 15.18.05 4.9 1.22 14.4 11.44 14.3 5.2-.04 8.48-1.8 10.36-4.45.36-.73.58-1.4.57-2.15-.03-1.74-1.6-3.44-3.44-2.83-.83.28-1.62 1.1-3.13 2.33-2.84 1.66-6.1 1.4-7.66-.55-.58-.73-1.02-1.8-1.25-3.1-.04-.15-.05-.3-.05-.43 0-.75.4-1.04 1.38-1.08zm-26.4 8.18L6.85 40.52c-.8-1.65-.12-3.63 1.52-4.43 1.65-.83 3.63-.14 4.43 1.5l7.8 15.96 4.8-15.5c.54-1.73 2.4-2.7 4.14-2.17 1.74.53 2.72 2.4 2.18 4.13l-8.3 26.83v.02c-.1.3-.2.6-.32.88-1.37 3.5-3.87 5-8.08 4.9-4.16-.1-4.8-2.55-4.35-4.17.5-1.78 2-2.3 3.45-2.3 1.47 0 2.24 0 2.74-.37.76-.58 1.36-2.1.08-4.72l-.03.02z"/>
	</g>
</svg>
