<svg xmlns="http://www.w3.org/2000/svg" viewBox="0 0 28 28" width="28" height="28" fill-rule="evenodd" fill="#00447f"><path d="M25.75 13.5A2.25 2.25 0 0 1 28 15.75v4.5a2.25 2.25 0 0 1-2.25 2.25H23.5a.75.75 0 1 1 0-1.5h2.25a.75.75 0 0 0 .75-.75v-4.5a.75.75 0 0 0-.75-.75H2.25a.75.75 0 0 0-.75.75v4.5a.75.75 0 0 0 .75.75h15.753a.75.75 0 1 1 0 1.5H2.25A2.25 2.25 0 0 1 0 20.25v-4.5a2.25 2.25 0 0 1 2.25-2.25h23.5z" fill-rule="nonzero"/><rect y="10.5" width="28" height="1.5" rx=".75"/><path d="M20.195 5.245l-2.107-1.81c-.074-.054-.106-.149-.079-.236l.035-.109c.026-.086.102-.148.192-.153l2.793-.223L22.101.14c.032-.08.107-.134.191-.14h.146c.091-.002.174.054.205.14l1.075 2.575 2.793.223c.09.005.167.067.192.153l.035.109c.03.085.004.179-.066.236l-2.107 1.81.647 2.714c.021.087-.011.178-.083.232l-.127.07c-.074.05-.171.05-.245 0L22.38 6.819l-2.391 1.456c-.074.05-.171.05-.245 0l-.096-.066c-.072-.054-.104-.145-.083-.232l.629-2.732zm-9 0l-2.107-1.81c-.074-.054-.106-.149-.079-.236l.035-.109c.026-.086.102-.148.192-.153l2.793-.223L13.101.14c.032-.08.107-.134.191-.14h.146c.091-.002.174.054.205.14l1.075 2.575 2.793.223c.09.005.167.067.192.153l.035.109c.03.085.004.179-.066.236l-2.107 1.81.647 2.714c.021.087-.011.178-.083.232l-.127.07c-.074.05-.171.05-.245 0L13.38 6.819l-2.391 1.456c-.074.05-.171.05-.245 0l-.096-.066c-.072-.054-.104-.145-.083-.232l.629-2.732zm-9 0L.088 3.436C.014 3.382-.017 3.287.009 3.2l.035-.109c.026-.086.102-.148.192-.153l2.793-.223L4.101.14c.032-.08.107-.134.191-.14h.146c.091-.002.174.054.205.14l1.075 2.575 2.793.223c.09.005.167.067.192.153l.035.109c.03.085.004.179-.066.236l-2.107 1.81.647 2.714c.021.087-.011.178-.083.232l-.127.07c-.074.05-.171.05-.245 0L4.38 6.819 1.989 8.274c-.074.05-.171.05-.245 0l-.096-.066c-.072-.054-.104-.145-.083-.232l.629-2.732z" fill-rule="nonzero"/><rect y="24" width="12" height="4" rx="1.5"/></svg>
