<svg xmlns="http://www.w3.org/2000/svg" width="28" height="28"><path d="M23.868 0c.744 0 1.433.187 2.066.56s1.135.877 1.507 1.512A4.02 4.02 0 0 1 28 4.143v12.065c0 .747-.186 1.442-.558 2.086s-.875 1.152-1.507 1.526-1.321.56-2.066.56h-9.715l-9.519 7.614h-.307a.36.36 0 0 1-.293-.07c-.084-.065-.144-.154-.181-.266a.52.52 0 0 1 0-.336l2.596-7.054H4.132c-.744 0-1.433-.187-2.066-.56S.931 18.83.558 18.196A4.02 4.02 0 0 1 0 16.124V4.143a4.02 4.02 0 0 1 .558-2.072C.931 1.437 1.433.933 2.066.56S3.387 0 4.132 0h19.737zm-9.769 3.1h-.233c-.135.01-.254.096-.305.224l-1.713 4.119-4.469.357c-.144.009-.267.107-.308.245l-.056.175c-.043.14.008.292.126.378l3.371 2.895-1.007 4.371c-.034.139.018.285.133.371l.154.105a.35.35 0 0 0 .392 0l3.825-2.329 3.804 2.308a.35.35 0 0 0 .392 0l.203-.112c.115-.086.167-.232.133-.371l-1.035-4.343 3.371-2.895c.111-.091.153-.242.105-.378l-.056-.175c-.041-.138-.164-.236-.308-.245l-4.469-.357-1.72-4.119c-.051-.137-.183-.227-.329-.224z" fill="#60bd91"/></svg>
