<svg xmlns="http://www.w3.org/2000/svg" width="28" height="28"><path d="M23.868 0c.744 0 1.433.187 2.066.56s1.135.877 1.507 1.512A4.02 4.02 0 0 1 28 4.143v12.065c0 .747-.186 1.442-.558 2.086s-.875 1.152-1.507 1.526-1.321.56-2.066.56h-9.715l-9.519 7.614h-.307a.36.36 0 0 1-.293-.07c-.084-.065-.144-.154-.181-.266a.52.52 0 0 1 0-.336l2.596-7.054H4.132c-.744 0-1.433-.187-2.066-.56S.931 18.83.558 18.196A4.02 4.02 0 0 1 0 16.124V4.143a4.02 4.02 0 0 1 .558-2.072C.931 1.437 1.433.933 2.066.56S3.387 0 4.132 0h19.737zm-8.694 4.745h-.888L11.02 7.152l.516.86 1.576-.946v5.731c0 .287-.029.516-.086.688s-.115.287-.201.373-.201.115-.315.143c-.143.029-.964.057-1.107.057v.946h5.578v-1.118l-1.862.058c0-.057.057-.746.057-.889v-8.31z" fill="#60bd91"/></svg>
