<svg xmlns="http://www.w3.org/2000/svg" viewBox="0 0 28 28" width="28" height="28"><path d="M27 24a1 1 0 0 1 1 1v2a1 1 0 0 1-1 1h-8.796l5.283-.001-.08-.004c-.367-.039-.65-.302-.65-.62 0-.345.333-.625.744-.625h-5.309c.411 0 .744.28.744.625l-.006.078c-.045.305-.351.541-.725.547H1a1 1 0 0 1-1-1v-2a1 1 0 0 1 1-1h26zm-.5 1.25h-22a.25.25 0 0 0-.25.25v1a.25.25 0 0 0 .25.25h22a.25.25 0 0 0 .25-.25v-1a.25.25 0 0 0-.25-.25zm.5-6.254a1 1 0 0 1 1 1v2a1 1 0 0 1-1 1H1a1 1 0 0 1-1-1v-2a1 1 0 0 1 1-1h26zm-.5 1.254h-17a.25.25 0 0 0-.25.25v1a.25.25 0 0 0 .25.25h17a.25.25 0 0 0 .25-.25v-1a.25.25 0 0 0-.25-.25zM27 14a1 1 0 0 1 1 1v2a1 1 0 0 1-1 1H1a1 1 0 0 1-1-1v-2a1 1 0 0 1 1-1h26zm-.5 1.25h-3a.25.25 0 0 0-.25.25v1a.25.25 0 0 0 .25.25h3a.25.25 0 0 0 .25-.25v-1a.25.25 0 0 0-.25-.25zM1.721 10.708c.028.085.113.169.169.226s.197.113.282.169.226.085.338.113.226.028.31.028c.282 0 .536-.056.733-.169s.338-.282.479-.479.197-.395.254-.621.085-.479.085-.733v-.479c0-.169-.028-.338-.085-.508-.028-.197-.085-.367-.141-.536s-.197-.338-.31-.451a1.89 1.89 0 0 0-.451-.338c-.169-.085-.423-.141-.705-.141-.197 0-.451.056-.733.113s-.621.226-.959.423l-.592-.479-.056-4.71h3.667c.169 0 .31 0 .423-.028s.254-.056.367-.141.141-.141.197-.282a1.17 1.17 0 0 0 .085-.451h.874l-.113 2.285L1.41 3.6v2.51c.113-.056.226-.113.367-.141l.451-.113.236-.039.109-.013.106-.005c.141 0 .31-.028.451-.028.592 0 1.1.085 1.523.254s.762.395 1.044.705.508.621.649 1.015a3.48 3.48 0 0 1 .197 1.185c0 .536-.085 1.015-.282 1.438s-.479.762-.846 1.044-.705.479-1.156.621-.874.197-1.326.197c-.479 0-.903-.056-1.241-.169a4.08 4.08 0 0 1-.931-.451c-.254-.169-.423-.395-.564-.621S0 10.539 0 10.313a1.13 1.13 0 0 1 .085-.423c.056-.141.113-.226.197-.338s.197-.169.31-.254.254-.085.395-.085c.169 0 .31.028.423.085s.197.141.282.226c.045.045.074.098.096.155l.045.155c.028.113.056.197.056.31 0 .085 0 .169-.028.282s-.085.197-.141.282zm8.238-2.683L7.07 5.544c-.101-.074-.145-.204-.108-.324l.048-.15c.035-.118.14-.202.264-.21l3.83-.306 1.469-3.531c.044-.11.146-.183.262-.192h.2c.125-.003.238.074.282.192l1.475 3.531 3.83.306c.123.008.229.091.264.21l.048.15c.041.116.005.245-.09.324l-2.889 2.482.887 3.723c.029.119-.016.244-.114.318l-.174.096a.3.3 0 0 1-.336 0l-3.261-1.978-3.279 1.996a.3.3 0 0 1-.336 0l-.132-.09c-.098-.073-.143-.199-.114-.318l.863-3.747z" fill="#00447f"/></svg>
