<svg xmlns="http://www.w3.org/2000/svg" viewBox="0 0 28 28" width="28" height="28"><path d="M23.868 0c.744 0 1.433.187 2.066.56s1.135.877 1.507 1.512A4.02 4.02 0 0 1 28 4.143v12.065c0 .747-.186 1.442-.558 2.086s-.875 1.152-1.507 1.526-1.321.56-2.066.56h-9.715l-9.519 7.614h-.307a.36.36 0 0 1-.293-.07c-.084-.065-.144-.154-.181-.266a.52.52 0 0 1 0-.336l2.596-7.054H4.132c-.744 0-1.433-.187-2.066-.56S.931 18.83.558 18.196A4.02 4.02 0 0 1 0 16.124V4.143a4.02 4.02 0 0 1 .558-2.072C.931 1.437 1.433.933 2.066.56S3.387 0 4.132 0h19.737zm2.644 4.143c0-.483-.116-.913-.354-1.319a2.7 2.7 0 0 0-.98-.983c-.403-.238-.831-.354-1.31-.354H4.132c-.48 0-.907.116-1.31.354a2.7 2.7 0 0 0-.98.983c-.238.405-.354.836-.354 1.319v11.981c0 .483.116.913.354 1.319a2.7 2.7 0 0 0 .98.983c.403.238.831.354 1.31.354h4.45l-.737 2.001-1.43 3.883 6.81-5.447.407-.326h10.237c.48 0 .907-.116 1.31-.354.411-.243.731-.566.975-.989a2.61 2.61 0 0 0 .359-1.341v-5.212c0-.411.333-.744.744-.744l.093.006c.362.045.644.351.65.725l-.001-5.283-.005.08c-.046.367-.359.65-.738.65-.411 0-.744-.333-.744-.744V4.143zM11.36 8.012l-.516-.86 3.267-2.407H15v8.31c0 .143-.057.832-.057.889l1.862-.058v1.118h-5.578v-.946c.143 0 .964-.029 1.107-.057.115-.029.229-.057.315-.143s.143-.201.201-.373.086-.401.086-.688V7.066l-1.576.946z" fill="#00447f"/></svg>
