<svg xmlns="http://www.w3.org/2000/svg" viewBox="0 0 28 28" width="28" height="28" fill-rule="evenodd" fill="#039588" xmlns:v="https://vecta.io/nano"><path d="M27.412 9.5H.588c-.336 0-.588.252-.588.588s.252.588.588.588h26.824a.59.59 0 0 0 .588-.588.59.59 0 0 0-.588-.588zm0 3.5H.588c-.336 0-.588.252-.588.588v8a.59.59 0 0 0 .588.588h26.824a.59.59 0 0 0 .588-.588v-8c0-.336-.252-.588-.588-.588zM1.176 14.176h25.648v3.66L23.688 21H1.176v-6.824zM25.34 21l1.484-1.512V21H25.34zM8.176 23.324H2.324C1.036 23.324 0 24.388 0 25.676A2.32 2.32 0 0 0 2.324 28h5.852a2.32 2.32 0 0 0 2.324-2.324c0-1.288-1.036-2.352-2.324-2.352zm0 3.5H2.324c-.644 0-1.148-.504-1.148-1.148S1.68 24.5 2.324 24.5h5.852c.644 0 1.148.532 1.148 1.176s-.504 1.148-1.148 1.148zm9.659-24.341l.937-2.342c.024-.064.068-.106.132-.126s.128-.02.192 0 .108.062.132.126l.937 2.342h2.595c.048 0 .094.016.138.048a.24.24 0 0 1 .09.27c-.016.052-.044.094-.084.126L20.79 4.586l.709 2.583a.23.23 0 0 1-.006.156c-.02.048-.05.088-.09.12-.064.032-.112.048-.144.048s-.08-.016-.144-.048L19 6.039l-2.114 1.405c-.04.032-.088.048-.144.048s-.104-.016-.144-.048-.07-.072-.09-.12a.23.23 0 0 1-.006-.156l.709-2.583-1.96-1.539-1.96 1.539.709 2.583a.23.23 0 0 1-.006.156c-.02.048-.05.088-.09.12-.064.032-.112.048-.144.048s-.08-.016-.144-.048L11.5 6.039 9.386 7.444c-.04.032-.088.048-.144.048s-.104-.016-.144-.048-.07-.072-.09-.12a.23.23 0 0 1-.006-.156l.709-2.583-1.961-1.539L5.79 4.586l.709 2.583a.23.23 0 0 1-.006.156c-.02.048-.05.088-.09.12-.064.032-.112.048-.144.048s-.08-.016-.144-.048L4 6.039 1.886 7.444c-.04.032-.088.048-.144.048s-.104-.016-.144-.048-.07-.072-.09-.12a.23.23 0 0 1-.006-.156l.709-2.583L.096 2.928c-.04-.032-.068-.074-.084-.126a.24.24 0 0 1 0-.15.24.24 0 0 1 .09-.12c.044-.032.094-.048.15-.048h2.583L3.772.141c.024-.064.068-.106.132-.126s.128-.02.192 0 .108.062.132.126l.937 2.342h5.17l.937-2.342c.024-.064.068-.106.132-.126s.128-.02.192 0 .108.062.132.126l.937 2.342h5.17zM19 1.647l-.572 1.42c-.012.036-.034.066-.067.089s-.067.036-.103.036h-1.51L18 4.157c.03.024.049.054.058.089a.26.26 0 0 1 .004.107l-.429 1.572 1.26-.849c.036-.018.071-.027.107-.027s.071.009.107.027l1.26.849-.429-1.572a.26.26 0 0 1 .004-.107c.009-.036.028-.066.058-.089l1.251-.965h-1.51c-.036 0-.07-.012-.103-.036s-.055-.051-.067-.08L19 1.647zm-15.001.001l-.571 1.42c-.012.036-.034.065-.067.089s-.067.036-.103.036H1.749L3 4.157c.03.024.049.054.058.089a.26.26 0 0 1 .004.107l-.429 1.572 1.259-.848c.036-.018.071-.027.107-.027s.071.009.107.027l1.259.848-.429-1.572a.26.26 0 0 1 .004-.107c.009-.036.028-.065.058-.089l1.25-.965H4.741c-.036 0-.07-.012-.103-.036s-.055-.051-.067-.08l-.573-1.429zm7.501.001l-.571 1.419c-.012.036-.034.065-.067.089s-.067.036-.103.036H9.25l1.25.964c.03.024.049.054.058.089a.26.26 0 0 1 .004.107l-.429 1.571 1.259-.848c.036-.018.071-.027.107-.027s.071.009.107.027l1.259.848-.429-1.571a.26.26 0 0 1 .004-.107c.009-.036.028-.065.058-.089l1.25-.964h-1.509c-.036 0-.07-.012-.103-.036s-.055-.051-.067-.08L11.5 1.649z" fill-rule="nonzero"/><path opacity=".059" d="M1.176 14.176h25.648v3.66L23.688 21H1.176zM25.34 21l1.484-1.512V21zM8.176 26.824H2.324c-.644 0-1.148-.504-1.148-1.148S1.68 24.5 2.324 24.5h5.852c.644 0 1.148.532 1.148 1.176s-.504 1.148-1.148 1.148z"/></svg>
