<svg xmlns="http://www.w3.org/2000/svg" viewBox="0 0 28 28" width="28" height="28"><g fill="#039588"><use href="#B" opacity=".2"/><use href="#B" y="-3.5" opacity=".4"/><use href="#B" y="-7" opacity=".6"/><use href="#B" y="-10.5" opacity=".8"/><path d="M1 26.001a1 1 0 1 0 0 2 1 1 0 1 0 0-2zm4-3.5H1a1 1 0 1 0 0 2h4a1 1 0 1 0 0-2zm4-3.5H1a1 1 0 1 0 0 2h8a1 1 0 1 0 0-2zm14-3.5H1a1 1 0 0 0-1 1 1 1 0 0 0 1 1h22a1 1 0 1 0 0-2zM1.721 10.709c.028.085.113.169.169.226s.197.113.282.169.226.085.338.113.226.028.31.028c.282 0 .536-.056.733-.169s.338-.282.479-.479.197-.395.254-.621.085-.479.085-.733v-.479c0-.169-.028-.338-.085-.508-.028-.197-.085-.367-.141-.536s-.197-.338-.31-.451a1.89 1.89 0 0 0-.451-.338c-.169-.085-.423-.141-.705-.141-.197 0-.451.056-.733.113s-.621.226-.959.423l-.592-.479-.056-4.71h3.667c.169 0 .31 0 .423-.028s.254-.056.367-.141.141-.141.197-.282a1.17 1.17 0 0 0 .085-.451h.874l-.113 2.285-4.428.085v2.51c.113-.056.226-.113.367-.141l.451-.113.236-.039.109-.013.106-.005c.141 0 .31-.028.451-.028.592 0 1.1.085 1.523.254s.762.395 1.044.705.508.621.649 1.015a3.48 3.48 0 0 1 .197 1.185c0 .536-.085 1.015-.282 1.438s-.479.762-.846 1.044-.705.479-1.156.621-.874.197-1.326.197c-.479 0-.903-.056-1.241-.169a4.08 4.08 0 0 1-.931-.451c-.254-.169-.423-.395-.564-.621S0 10.539 0 10.314a1.13 1.13 0 0 1 .085-.423c.056-.141.113-.226.197-.338s.197-.169.31-.254.254-.085.395-.085c.169 0 .31.028.423.085s.197.141.282.226c.045.045.074.098.096.155l.045.155c.028.113.056.197.056.31 0 .085 0 .169-.028.282s-.085.197-.141.282zm14.616 1.523c-.048 0-.12-.024-.216-.072l-3.171-2.108-3.171 2.108c-.06.048-.132.072-.216.072s-.156-.024-.216-.072-.105-.108-.135-.18-.033-.15-.009-.234l1.063-3.874-3.171-2.486c-.06-.048-.102-.111-.126-.189a.36.36 0 0 1 .135-.405c.066-.048.141-.072.225-.072h3.874l1.405-3.514c.036-.096.102-.159.198-.189s.192-.03.288 0 .162.093.198.189l1.405 3.514h3.892c.072 0 .141.024.207.072a.36.36 0 0 1 .135.405c-.024.078-.066.141-.126.189l-3.171 2.486 1.063 3.874c.024.084.021.162-.009.234s-.075.132-.135.18c-.096.048-.168.072-.216.072zm-3.387-3.173a.45.45 0 0 1 .202.051l2.377 1.602-.809-2.967a.49.49 0 0 1 .008-.202c.017-.067.053-.124.11-.169l2.36-1.821h-2.849c-.067 0-.132-.022-.194-.067s-.104-.096-.126-.152l-1.079-2.697-1.079 2.681c-.022.067-.065.124-.126.169s-.126.067-.194.067H8.7l2.36 1.821c.056.045.093.101.11.169a.49.49 0 0 1 .008.202l-.809 2.967 2.377-1.602a.45.45 0 0 1 .202-.051z"/></g><defs ><path id="B" d="M27.5 26.501H.5a.5.5 0 1 0 0 1h27a.5.5 0 1 0 0-1z"/></defs></svg>
