<svg xmlns="http://www.w3.org/2000/svg" viewBox="0 0 28 28" width="28" height="28" fill-rule="evenodd" fill="#039588"><path d="M4.327 27.994a.36.36 0 0 1-.293-.07c-.084-.065-.144-.154-.181-.266a.52.52 0 0 1 0-.336l2.596-7.054H4.132c-.744 0-1.433-.187-2.066-.56S.931 18.83.558 18.196A4.02 4.02 0 0 1 0 16.124V4.143a4.02 4.02 0 0 1 .558-2.072C.931 1.437 1.433.933 2.066.56S3.387 0 4.132 0h19.737c.744 0 1.433.187 2.066.56s1.135.877 1.507 1.512A4.02 4.02 0 0 1 28 4.143v12.065c0 .747-.186 1.442-.558 2.086s-.875 1.152-1.507 1.526-1.321.56-2.066.56h-9.715l-9.519 7.614h-.307z" opacity=".06"/><path d="M4.327 27.994a.36.36 0 0 1-.293-.07c-.084-.065-.144-.154-.181-.266a.52.52 0 0 1 0-.336l2.596-7.054H4.132c-.744 0-1.433-.187-2.066-.56S.931 18.83.558 18.196A4.02 4.02 0 0 1 0 16.124V4.143a4.02 4.02 0 0 1 .558-2.072C.931 1.437 1.433.933 2.066.56S3.387 0 4.132 0h19.737c.744 0 1.433.187 2.066.56s1.135.877 1.507 1.512A4.02 4.02 0 0 1 28 4.143v12.065c0 .747-.186 1.442-.558 2.086s-.875 1.152-1.507 1.526-1.321.56-2.066.56h-9.715l-9.519 7.614h-.307zM4.132.952a3.26 3.26 0 0 0-1.577.448c-.475.28-.856.663-1.145 1.148S.977 3.565.977 4.143v12.065c0 .579.144 1.11.433 1.596s.67.868 1.145 1.148a3.26 3.26 0 0 0 1.577.448H7.23a.51.51 0 0 1 .363.224c.093.131.13.28.112.448l-2.317 6.103 8.291-6.663c.074-.075.167-.112.279-.112h9.91c.577 0 1.107-.145 1.591-.434s.87-.677 1.159-1.162.433-1.017.433-1.596V4.059c0-.579-.144-1.11-.433-1.596s-.675-.872-1.159-1.162-1.014-.434-1.591-.434L4.132.952zm7.404 7.06l-.516-.86 3.267-2.407h.888v8.31c0 .143-.057.832-.057.889l1.862-.058v1.118h-5.578v-.946c.143 0 .964-.029 1.107-.057.115-.029.229-.057.315-.143s.143-.201.201-.373.086-.401.086-.688V7.066l-1.576.946z" fill-rule="nonzero"/></svg>
